<?xml version="1.0" encoding="UTF-8" standalone="no"?>
<svg
   xmlns:svg="http://www.w3.org/2000/svg"
   xmlns="http://www.w3.org/2000/svg"
   width="480.0"
   height="480.0"

>
    <g transform="scale(2.7121078332320163, -2.7121078332320163)   translate(91.49207501320662,-66.31374833964203)" stroke-width="0.3687169026787187"  fill="none">
       <!-- hidden lines -->
       <g  stroke="rgb(100,40,40)" fill="none" stroke-dasharray="0.3687169026787187,0.3687169026787187" >
			<path d="M53.994673811404745,23.302812419677295 L53.994673811404745,25.017455239625523 " />
			<path d="M53.994673811404745,23.302812419677295 L58.94442127971058,3.2986461869480017 " />
			<path d="M53.99467381140478,23.302812419677313 L48.450956646902235,22.845574334357778 " />
			<path d="M48.45095664690223,22.845574334357767 L48.45095664690223,24.549686120468024 " />
			<path d="M30.672060626959222,0.7362529115672877 L21.235630456402454,19.33916684065369 " />
			<path d="M48.45095664690223,22.845574334357767 L48.45350558799268,22.83527291158473 " />
			<path d="M21.23563045640242,19.33916684065369 L22.073370086230696,19.478799978680584 L22.912072559165402,19.616492981387978 L23.75172439568901,19.752243635791743 L24.59231210102576,19.886049760124934 L25.43382216535892,20.017909203872847 L26.276241064047696,20.14781984780757 L27.11955525784449,20.27577960402205 L27.963751193112778,20.401786415963628 L28.808815302044742,20.525838258467132 L29.654734002879415,20.647933137787433 L30.501493700120967,20.768069091631403 L31.349080784757042,20.88624418918957 L32.19748163447778,21.00245653116704 L33.04668261389457,21.11670424981412 L33.89667007475909,21.228985508956228 L34.74743035618294,21.339298504023503 L35.598949784856984,21.447641462079787 L36.451214675271174,21.554012641851088 L37.30421132993456,21.658410333753565 L38.15792603959521,21.76083285992098 L39.012345083460865,21.861278574231832 L39.86745472941927,21.959745862335538 L40.7232412342588,22.056233141678604 L41.57969084388954,22.150738861529973 L42.43678979356428,22.243261503005954 L43.29452430809953,22.333799579094602 L44.15288060209725,22.4223516346797 L45.011844880166215,22.508916246564056 L45.87140333714363,22.59349202349246 L46.73154215831729,22.676077606173934 L47.59224751964744,22.756671667303706 L48.45350558798831,22.83527291158441 " />
			<path d="M36.24629360362243,17.056613575580204 L44.68066328961555,17.752268662530625 " />
			<path d="M36.24629360362243,17.056613575580204 L36.458425637978394,16.19929216560609 " />
			<path d="M36.458425637978394,16.19929216560609 L44.477016536633826,16.860654396157546 " />
			<path d="M44.477016536633826,16.860654396157553 L46.68318969393586,7.944511732426781 " />
			<path d="M38.66459879528042,7.283149501875324 L46.68318969393587,7.944511732426784 " />
			<path d="M38.664598795280426,7.283149501875325 L38.87673082963639,6.425828091901209 " />
			<path d="M38.87673082963639,6.42582809190121 L55.80486717124234,7.822037245287626 " />
			<path d="M55.38908838390465,9.502387208836888 L55.804867171242336,7.822037245287623 " />
			<path d="M48.45350558799267,22.835272911584816 L48.45350558799267,24.549915731533044 " />
			<path d="M-69.82112100453125,-11.307670839163292 L-69.82112100453125,-9.593028019215065 " />
			<path d="M21.235630456402454,19.339166840653675 L21.235630456402454,20.19648825062779 " />
			<path d="M21.23563045640234,20.196488250627795 L20.467878038655158,20.066672708360883 " />
			<path d="M20.46787803865456,19.209351298386625 L20.46787803865456,20.06667270836074 " />
			<path d="M6.471133896955706,16.525578461162667 L7.336418802225936,16.709318640734807 L8.203044939575264,16.89093955190161 L9.07099673745364,17.070437931296127 L9.940258600491717,17.247810553689092 L10.81081490978076,17.423054232046894 L11.682650023153485,17.596165817588798 L12.555748275464978,17.76714219984349 L13.430093978874254,17.935980306705105 L14.3056714231261,18.10267710448828 L15.182464875833375,18.267229597982734 L16.060458582759736,18.429634830507126 L16.939636768102517,18.589889883962016 L17.81998363477642,18.747991878882516 L18.701483364697353,18.903937974489878 L19.58412011906632,19.057725368742567 L20.467878038654028,19.209351298386565 " />
			<path d="M6.471133896955774,16.52557846116266 L6.471133896955774,17.382899871136775 " />
			<path d="M6.471133896955692,17.382899871136786 L5.721406023137632,17.22174971836091 " />
			<path d="M5.721406023137016,16.364428308386636 L5.721406023137016,17.22174971836075 " />
			<path d="M-7.907495540383195,13.110210600779155 L-7.06715681696727,13.329170382461982 L-6.225218057834326,13.546071630288267 L-5.381694390951182,13.760910446973483 L-4.536600972762287,13.97368297229093 L-3.689952987917394,14.184385383141063 L-2.841765648998731,14.393013893620164 L-1.9920541962476221,14.59956475508838 L-1.1408338972908183,14.804034256237074 L-0.2881200468659131,15.006418723155534 L0.5660720334533664,15.206714519397025 L1.4217269955322678,15.40491804604396 L2.27882946495113,15.601025741772773 L3.1373640412814012,15.795034082917752 L3.997315298362423,15.986939583534479 L4.858667784578586,16.17673879546237 L5.72140602313651,16.36442830838655 " />
			<path d="M-7.907495540383158,13.110210600779133 L-7.907495540383158,13.967532010753247 " />
			<path d="M-7.907495540383621,13.96753201075316 L-8.635367693324952,13.775870739260483 " />
			<path d="M-8.635367693325602,12.918549329286169 L-8.635367693325602,13.775870739260283 " />
			<path d="M-21.82678176441422,9.11051609681877 L-21.015683429400553,9.363576576410878 L-20.202734431358536,9.614649775988596 L-19.387949377366496,9.863731184265333 L-18.571342907493204,10.11081632574303 L-17.752929694534487,10.35590076079258 L-16.932724443749777,10.598980085733643 L-16.11074189259803,10.84004993291363 L-15.286996810472559,11.079105970786344 L-14.461503998435958,11.316143903989726 L-13.634278288954022,11.551159473423056 L-12.805334545629279,11.784148456323436 L-11.974687662933931,12.015106666341765 L-11.142352565942176,12.244029953617812 L-10.308344210062103,12.47091420485495 L-9.472677580766856,12.695755343393927 L-8.635367693326074,12.918549329286051 " />
			<path d="M-21.826781764414168,9.11051609681877 L-21.826781764414168,9.967837506792884 " />
			<path d="M-21.826781764414292,9.967837506792876 L-22.529078704234294,9.74664452293932 " />
			<path d="M-22.529078704234916,8.889323112964988 L-22.529078704234916,9.746644522939102 " />
			<path d="M-35.2155959691203,4.546933748363628 L-34.437882808039106,4.832801764026556 L-33.658077813672904,5.116763908697067 L-32.87619499756818,5.398815080139585 L-32.09224840860581,5.6789502104549 L-31.306252132748455,5.957164266171276 L-30.51822029278766,6.233452248334871 L-29.72816704808993,6.5078091925995665 L-28.936106594342547,6.780230169316113 L-28.142053163298215,7.050710283620802 L-27.34602102251951,7.319244675523365 L-26.548024475122546,7.585828519994237 L-25.748077859519853,7.850457027051405 L-24.946195549162866,8.113125441846336 L-24.14239195228356,8.373829044749442 L-23.336681511635646,8.632563151434937 L-22.529078704235417,8.889323112964846 " />
			<path d="M-35.21559596912024,4.54693374836365 L-35.21559596912024,5.404255158337764 " />
			<path d="M-35.21559596912034,5.404255158337719 L-35.888728895215365,5.154660778189026 " />
			<path d="M-35.88872889521594,4.2973393682146845 L-35.88872889521594,5.1546607781887985 " />
			<path d="M-48.00552010827141,-0.5572161278414285 L-47.265166305407746,-0.24000138740971977 L-46.5224901884589,0.07539863022392979 L-45.77750510183924,0.3889782579478407 L-45.03022443145065,0.7007318613590883 L-44.28066160444217,1.0106538388647976 L-43.528830088968576,1.3187386217827282 L-42.77474339394857,1.6249806744414599 L-42.018415068821824,1.9293744942796849 L-41.25985870330581,2.2319146119452427 L-40.499087927151336,2.532595591393246 L-39.73611640989782,2.8314120299838947 L-38.97095786062762,3.1283585585794214 L-38.20362602771971,3.4234298416406688 L-37.43413469860259,3.716620577322942 L-36.66249769950673,4.007925497571165 L-35.88872889521619,4.297339368214594 " />
			<path d="M-48.005520108271355,-0.5572161278414072 L-48.005520108271355,0.30010528213270693 " />
			<path d="M-48.00552010827144,0.3001052821326624 L-48.64604925077441,0.02338495544699981 " />
			<path d="M-48.64604925077499,-0.83393645452737 L-48.64604925077499,0.023384955446744127 " />
			<path d="M-69.82112100453654,-11.307670839166278 L-69.1954530846256,-10.957033523655667 L-68.56735546089521,-10.607847182687834 L-67.9368382280492,-10.260117428340521 L-67.30391151967885,-9.913849849281291 L-66.6685855081003,-9.569050010677856 L-66.03087040419098,-9.225723454108604 L-65.39077645722551,-8.8838756974735 L-64.74831395471097,-8.543512234905478 L-64.10349322222154,-8.204638536681998 L-63.45632462323255,-7.867260049137329 L-62.80681855895395,-7.531382194574846 L-62.154985468163204,-7.197010371179928 L-61.50083582703732,-6.864149952933275 L-60.84438014898464,-6.532806289524416 L-60.185628984475954,-6.202984706265838 L-59.524592920874625,-5.874690504007347 L-58.86128258226674,-5.54792895905085 L-58.19570862929021,-5.222705323065611 L-57.527881758963474,-4.899024823003828 L-56.85781270451352,-4.576892661016586 L-56.185512235203504,-4.256314014370318 L-55.51099115615952,-3.9372940353635073 L-54.834260308197,-3.619837851243986 L-54.15533056764667,-3.303950564126481 L-53.47421284617937,-2.9896372509105333 L-52.790918090630925,-2.676902963199069 L-52.10545728282628,-2.365752727217071 L-51.417841439402764,-2.0561915437308755 L-50.72808161163326,-1.74822438796771 L-50.03618888524838,-1.4418562095358993 L-49.34217438025857,-1.1370919323451147 L-48.64604925077521,-0.8339364545274748 " />
			<path d="M-69.83386570998344,-11.30031268003973 L-69.83386570998344,-9.585669860091503 " />
			<path d="M-69.83386570998344,-11.300312680039733 L-73.79366368462811,-13.586503106637368 " />
			<path d="M-69.82112100453139,-11.307670839163219 L-69.83386570998344,-11.30031268003973 " />
			<path d="M36.246293603622405,17.056613575580208 L36.246293603622405,18.771256395528432 " />
			<path d="M36.458425637978394,16.199292165606092 L36.458425637978394,17.91393498555432 " />
			<path d="M44.47701653663383,16.860654396157553 L44.47701653663383,18.57529721610578 " />
			<path d="M46.68318969393586,7.944511732426793 L46.68318969393586,8.7843367870953 " />
			<path d="M38.66459879528041,7.283149501875325 L38.66459879528041,8.997792321823551 " />
			<path d="M38.87673082963637,6.425828091901209 L38.87673082963637,8.140470911849436 " />
			<path d="M55.80486717124231,7.822037245287635 L55.80486717124231,9.536680065235862 " />
			<path d="M-54.48964855823536,-9.136596740581261 L-54.48964855823536,-8.646698792024624 " />
			<path d="M-53.428988386455536,-9.748969176277054 L-54.48964855823536,-9.13659674058126 " />
			<path d="M-53.428988386455536,-9.748969176277058 L-53.428988386455536,-8.034326356328831 " />
			<path d="M-53.42898838645553,-9.74896917627705 L-59.156553314066564,-13.055780329034343 " />
			<path d="M-66.58117451652532,-16.11764250751332 L-66.58117451652532,-14.402999687565094 " />
			<path d="M-54.48964855823535,-9.13659674058126 L-59.15655331406657,-11.831035457642761 " />
			<path d="M-65.09625027603356,-15.260321097539208 L-66.58117451652531,-16.11764250751332 " />
			<path d="M-48.12568752755643,-19.42445366027061 L-48.12568752755643,-18.934555711713973 " />
			<path d="M-48.12568752755643,-19.424453660270608 L-48.54995159626836,-19.17950468599229 " />
			<path d="M-53.42898838645554,-23.711060710141172 L-53.42898838645554,-21.996417890192944 " />
			<path d="M-53.428988386455536,-23.711060710141172 L-66.58117451652532,-16.117642507513317 " />
			<path d="M-42.39812259994539,-16.117642507513313 L-48.12568752755642,-19.424453660270608 " />
			<path d="M-42.398122599945395,-16.11764250751332 L-42.398122599945395,-15.627744558956682 " />
			<path d="M-41.33746242816557,-16.730014943209113 L-41.33746242816557,-15.015372123260887 " />
			<path d="M-41.33746242816557,-16.730014943209113 L-53.428988386455536,-23.711060710141172 " />
			<path d="M-41.33746242816557,-16.730014943209113 L-42.398122599945395,-16.11764250751332 " />
			<path d="M31.072711555692162,0.8037338195597803 L21.235630456402475,20.19648825062781 " />
			<path d="M-27.676909131695773,-17.01314224974025 L-48.646049250775,-0.8339364545273718 " />
			<path d="M-27.67690913169577,-16.15582083976614 L-48.64604925077501,0.023384955446740463 " />
			<path d="M-27.036379989192117,-15.879100513080171 L-48.005520108271355,0.3001052821327086 " />
			<path d="M-27.67690913169577,-16.242207436644883 L-48.00552010827137,-0.5572161278414072 " />
			<path d="M-16.975121814165146,-12.705409478258678 L-35.888728895215934,4.29733936821469 " />
			<path d="M-16.975121814165163,-11.848088068284577 L-35.88872889521595,5.154660778188784 " />
			<path d="M-16.301988888069445,-11.598493688135605 L-35.21559596912023,5.4042551583377545 " />
			<path d="M-16.975121814165146,-11.850689379168275 L-35.21559596912026,4.546933748363664 " />
			<path d="M-5.767654896540571,-8.850083207089659 L-22.529078704234934,8.889323112964995 " />
			<path d="M-5.767654896540569,-7.992761797115564 L-22.52907870423493,9.746644522939086 " />
			<path d="M-5.065357956719812,-7.771568813261781 L-21.82678176441418,9.967837506792876 " />
			<path d="M-5.689717503971939,-7.968101031005904 L-21.82678176441418,9.110516096818767 " />
			<path d="M5.8882204560122595,-5.466864500645602 L-8.635367693325612,12.918549329286169 " />
			<path d="M5.888220456012246,-4.609543090671499 L-8.63536769332563,13.775870739260277 " />
			<path d="M6.616092608954717,-4.417881819178515 L-7.9074955403831595,13.967532010753262 " />
			<path d="M6.055336311439926,-4.565341693453565 L-7.907495540383168,13.110210600779155 " />
			<path d="M17.932941670846553,-2.573041911170547 L5.721406023137021,16.364428308386668 " />
			<path d="M17.93294167084653,-1.715720501196449 L5.721406023137007,17.221749718360755 " />
			<path d="M18.682669544665305,-1.5545703484204267 L6.471133896955781,17.38289987113678 " />
			<path d="M18.196996287390004,-1.658716800598656 L6.471133896955777,16.525578461162684 " />
			<path d="M30.30495913794423,-0.1834031326813797 L20.467878038654536,19.209351298386657 " />
			<path d="M30.304959137944245,0.6739182772927581 L20.467878038654554,20.066672708360784 " />

       </g>

       <!-- solid lines -->
       <g  stroke="rgb(200,20,20)" fill="none">
			<path d="M53.994673811404745,25.017455239625516 L58.94442127971058,5.013289006896223 " />
			<path d="M58.944421279710596,3.298646186947998 L58.944421279710596,5.013289006896224 " />
			<path d="M48.450956646902235,24.560217154306006 L53.99467381140478,25.01745523962554 " />
			<path d="M48.45095664690223,24.549686120468024 L48.45095664690223,24.560217154305995 " />
			<path d="M58.944421279710596,5.013289006896219 L56.17256269745932,4.784669964236454 " />
			<path d="M-47.065027355776635,-25.017455239625548 L-46.41463462343842,-24.64383388413225 L-45.76099676743756,-24.27210503522808 L-45.10413030796035,-23.90227808806938 L-44.44405184679363,-23.53436238974342 L-43.78077806690497,-23.168367239032165 L-43.114325732021186,-22.804301886177214 L-42.44471168620454,-22.442175532646033 L-41.77195285342715,-22.081997330899412 L-41.096066237143106,-21.723776384160118 L-40.41706891985878,-21.36752174618283 L-39.73497806270113,-21.01324242102531 L-39.0498109049839,-20.660947362820806 L-38.36158476377187,-20.31064547555181 L-37.67031703344331,-19.962345612824933 L-36.976025185250265,-19.6160565776472 L-36.278726766876986,-19.27178712220355 L-35.57843940199642,-18.929545947635617 L-34.875180789824825,-18.589341703821802 L-34.16896870467444,-18.251182989158693 L-33.45982099550419,-17.91507835034372 L-32.74775558546861,-17.58103628215912 L-32.032790471464835,-17.24906522725732 L-31.31494372367777,-16.919173575947468 L-30.594233485123368,-16.591369665983436 L-29.870677971190062,-16.265661782353035 L-29.144295469178402,-15.942058157068644 L-28.41510433783887,-15.62056696895921 L-27.683123006907834,-15.301196343463431 L-26.948369976641814,-14.983954352424448 L-26.210863817349804,-14.668849013885833 L-25.47062316892402,-14.355888291888917 L-24.72766674036879,-14.045080096271562 L-23.982013309327613,-13.736432282468186 L-23.233681721608647,-13.42995265131124 L-22.48269089070837,-13.12564894883404 L-21.72905979733352,-12.823528866075051 L-20.97280748892146,-12.523600038883401 L-20.213953079158628,-12.225870047725977 L-19.452515747497657,-11.930346417495784 L-18.68851473867244,-11.637036617321769 L-17.921969362211826,-11.345948060380124 L-17.152898991951602,-11.057088103706747 L-16.38132306554472,-10.770464048011476 L-15.607261083970158,-10.48608313749348 L-14.830732611039991,-10.203952559658163 L-14.051757272904979,-9.924079445135575 L-13.270354757558408,-9.646470867500113 L-12.486544814338643,-9.371133843091783 L-11.700347253429882,-9.098075330838839 L-10.911781945361469,-8.82730223208192 L-10.120868820505748,-8.558821390399658 L-9.327627868574268,-8.292639591435659 L-8.532079138112636,-8.028763562726994 L-7.734242735993689,-7.7671999735342325 L-6.934138826909489,-7.507955434672837 L-6.131787632861403,-7.251036498346025 L-5.327209432649312,-6.996449657979298 L-4.520424561358894,-6.744201348056222 L-3.711453409847678,-6.494297943955843 L-2.900316424229757,-6.24674576179153 L-2.087034105358981,-6.001551058251337 L-1.2716270083108299,-5.758720030439946 L-0.45411574186290693,-5.518258815721936 L0.36547903202598775,-5.280173491566714 L1.1871365987380074,-5.044470075394912 L2.0108361915198287,-4.811154524426314 L2.8365569920075018,-4.580232735529236 L3.6642781307526775,-4.351710545071583 L4.493978687749944,-4.125593728773254 L5.325637692965714,-3.9018880015601525 L6.159234126868071,-3.680599017419894 L6.994746920958207,-3.4617323692586837 L7.832154958302738,-3.2452935887601484 L8.671437074067427,-3.031288146245444 L9.512572056052335,-2.8197214505349706 L10.355538645227654,-2.610598848811776 L11.20031553627112,-2.4039256264862843 L12.046881378106576,-2.199707007062784 L12.895214774443488,-1.9979481520074103 L13.745294284317765,-1.7986541606176587 L14.597098422633692,-1.6018300698935235 L15.45060566070687,-1.4074808544101671 L16.305794426808404,-1.2156114261922397 L17.162643106710107,-1.0262266345897189 L18.021130044230745,-0.8393312661552983 L18.881233541783416,-0.6549300445234678 L19.742931860923882,-0.473027630291071 L20.60620322290014,-0.2936286208995966 L21.471025809202665,-0.11673755051889145 L22.337377762115935,0.057641110067379486 L23.20523718527098,0.2295029535747659 L24.074582144198622,0.39884363632936015 L24.945390666883924,0.5656588783776897 L25.81764074432155,0.7299444635947481 L26.691310331071982,0.8916962397907042 L27.566377345818687,1.0509101188157075 L28.442819671926273,1.2075820766633143 L29.320615157999406,1.3617081535721667 L30.19974161844268,1.51328445412598 L31.080176834021387,1.6623071473521804 L31.961898552423015,1.8087724668185672 L32.844884488819716,1.9526767107285536 L33.72911232643149,2.0940162420147743 L34.61455971709035,2.2327874884309438 L35.50120428180495,2.368986942642209 L36.389023611326316,2.5026111623137126 L37.27799526671431,2.6336567701976463 L38.16809677990455,2.762120454218632 L39.05930565427643,2.8879989675573654 L39.95159936522162,3.0112891287327272 L40.84495536071343,3.1319878216821877 L41.73935106187674,3.2500919958405348 L42.63476386355868,3.3655986662170108 L43.53117113489997,3.478504913470715 L44.428550219906846,3.5888078839844155 L45.32687843802381,3.6965047899366965 L46.226133084706674,3.8015929093723457 L47.12629143199647,3.90406958627122 L48.02733072909403,4.003932230615362 L48.929228202934766,4.101178318454387 L49.83196105876435,4.195805391969401 L50.735506480714854,4.287811059535002 L51.63984163238136,4.377192995779794 L52.54494365739915,4.463948941645157 L53.45078968002139,4.548076704442295 L54.35735680569728,4.629574157907712 L55.26462212165066,4.708439242256915 L56.172562697458886,4.784669964236443 " />
			<path d="M-49.04492634309894,-26.160550452924348 L-47.06502735577661,-25.01745523962553 " />
			<path d="M48.45095664690223,24.560217154305995 L48.45350558799268,24.54991573153296 " />
			<path d="M-49.04492634309894,-26.160550452924348 L-73.79366368462811,-11.871860286689136 " />
			<path d="M-69.82112100452707,-9.593028019212724 L-69.06761360642506,-9.17109191426124 L-68.31058794104197,-8.75126029288161 L-67.55006164112302,-8.33354293384923 L-66.78605242095045,-7.917949566693821 L-66.01857807593129,-7.504489871472785 L-65.24765648218269,-7.093173478545765 L-64.47330559611558,-6.684009968350296 L-63.695543454016445,-6.277008871178651 L-62.914388171627195,-5.872179666955958 L-62.129857943723266,-5.469531785019242 L-61.34197104368974,-5.069074603897903 L-60.55074582309578,-4.67081745109526 L-59.756200711267184,-4.274769602871217 L-58.95835421485708,-3.880940284026309 L-58.15722491741491,-3.4893386676867664 L-57.35283147895359,-3.0999738750908534 L-56.54519263551484,-2.7128549753764304 L-55.73432719873276,-2.327990985369752 L-54.92025405539579,-1.9453908693753448 L-54.10299216700653,-1.5650635389673369 L-53.28256056934049,-1.1870178527817785 L-52.45897837200235,-0.8112626163104011 L-51.63226475798098,-0.43780658169538356 L-50.80243898320265,-0.06665844752566841 L-49.969520376082585,0.30217314136577045 L-49.13352833707458,0.6686795941032528 L-48.29448233821927,1.032852373968467 L-47.45240192269051,1.3946829985993503 L-46.60730670434023,1.7541630401876205 L-45.75921636724159,2.1112841256751267 L-44.90815066523044,2.466037936948794 L-44.054129421445126,2.81841621103446 L-43.197172527865035,3.1684107402893034 L-42.337299944847075,3.516013372592994 L-41.47453170066069,3.861216011537593 L-40.60888789102155,4.204010616616145 L-39.74038867862342,4.5443892034099065 L-38.869054292668395,4.88234384377445 L-37.99490502839589,5.217866666024165 L-37.11796124660982,5.550949855115675 L-36.238243373204384,5.881585652829941 L-35.35577189868832,6.209766357952816 L-34.47056737770764,6.535484326454537 L-33.58265042856674,6.858731971667808 L-32.69204173274839,7.179501764464305 L-31.798762034431874,7.497786233430261 L-30.90283214000965,7.813577965040466 L-30.004272917603245,8.126869603830741 L-29.103105296576516,8.437653852569525 L-28.199350267048672,8.745923472427734 L-27.293028879405213,9.051671283147257 L-26.384162243807495,9.354890163208424 L-25.472771529701163,9.65557304999571 L-24.558877965323163,9.953712939962273 L-23.64250283720702,10.24930288879311 L-22.7236674896872,10.542336011566832 L-21.80239332440202,10.832805482915987 L-20.878701799795067,11.120704537185958 L-19.952614430615313,11.406026468592728 L-19.024152787416057,11.688764631378959 L-18.093338496052624,11.968912439968776 L-17.16019323717849,12.246463369121173 L-16.22473874574031,12.521410954082071 L-15.286996810471692,12.793748790734824 L-14.34698927338576,13.06347053574936 L-13.40473802926634,13.330569906730005 L-12.460265025157923,13.595040682361741 L-11.513592259854562,13.856876702555255 L-10.564741783387447,14.116071868590168 L-9.61373569651144,14.372620143257336 L-8.66059615018996,14.626515550999343 L-7.705345345079351,14.877752178049732 L-6.748005531011714,15.12632417257069 L-5.788599006476659,15.372225744789418 L-4.827148118101803,15.615451167132917 L-3.863675260132368,15.855994774361534 L-2.8982028739096677,16.093850963700675 L-1.9307534473482377,16.329014194971563 L-0.9613495144120492,16.561478990720147 L0.009986345410155195,16.791239936344667 L0.9832315076310323,17.018291680221836 L1.9583633032915628,17.242628933831455 L2.9353590194888,17.464246471879605 L3.9141958999052946,17.683139132420393 L4.894851145338933,17.89930181697605 L5.877301914233854,18.112729490655866 L6.861525323212746,18.323417182273346 L7.847498447609752,18.53135998446203 L8.835198322004288,18.736553053789805 L9.824601940756096,18.938991610871682 L10.81568625854112,19.138670940481205 L11.808428190888293,19.335586391660172 L12.802804614717033,19.52973337782703 L13.798792368875965,19.721107376883666 L14.796368254682477,19.90970393132082 L15.795509036462988,20.095518648321814 L16.796191442094056,20.27854719986489 L17.798392163544506,20.458785322824042 L18.802087857418478,20.636228819068364 L19.807255145498942,20.81087355555971 L20.81387061529223,20.98271546444903 L21.821910820573528,21.151750543171175 L22.83135228193288,21.317974854538008 L23.84217148732197,21.481384526830183 L24.854344892602,21.641975753887365 L25.867848922091973,21.79974479519673 L26.88265996911766,21.954687975980264 L27.898754396561777,22.106801687280253 L28.916108537414317,22.256082386043403 L29.93469869532374,22.402526595203284 L30.95450114514918,22.546130903761423 L31.97549213351288,22.686891966866654 L32.99764787935341,22.82480650589312 L34.02094457447963,22.95987130851651 L35.045358384125365,23.09208322878905 L36.07086544750444,23.22143918721268 L37.097441878366375,23.347936170810712 L38.12506376555285,23.471571233198176 L39.15370717355471,23.592341494650327 L40.1833481430694,23.71024414216977 L41.213962691558955,23.82527642955195 L42.245526813808645,23.937435677449102 L43.278016482486244,24.04671927343277 L44.31140764870158,24.153124672054503 L45.34567624256653,24.256649394905224 L46.38079817375595,24.357291030672997 L47.41674933206864,24.455047235199103 L48.45350558798831,24.549915731532636 " />
			<path d="M-69.83386570998344,-9.585669860091507 L-73.79366368462811,-11.871860286689142 " />
			<path d="M-69.82112100453114,-9.593028019215131 L-69.83386570998344,-9.585669860091501 " />
			<path d="M36.24629360362243,18.771256395528432 L53.17442994522838,20.167465548914848 " />
			<path d="M36.24629360362243,18.771256395528432 L36.458425637978394,17.913934985554317 " />
			<path d="M36.458425637978394,17.913934985554313 L44.477016536633826,18.57529721610577 " />
			<path d="M44.477016536633826,18.575297216105778 L46.68318969393586,9.659154552375005 " />
			<path d="M38.66459879528042,8.99779232182355 L46.68318969393587,9.65915455237501 " />
			<path d="M38.664598795280426,8.997792321823553 L38.87673082963639,8.140470911849437 " />
			<path d="M38.87673082963639,8.140470911849436 L55.80486717124234,9.536680065235853 " />
			<path d="M53.174429945228376,20.167465548914848 L55.804867171242336,9.536680065235851 " />
			<path d="M-53.428988386455536,-8.03432635632883 L-54.48964855823536,-7.421953920633035 " />
			<path d="M-53.42898838645553,-8.034326356328823 L-59.156553314066564,-11.341137509086117 " />
			<path d="M-54.48964855823535,-7.421953920633033 L-66.58117451652531,-14.402999687565094 " />
			<path d="M-48.12568752755643,-17.70981084032238 L-59.15655331406657,-11.341137509086115 " />
			<path d="M-53.428988386455536,-21.996417890192944 L-66.58117451652532,-14.40299968756509 " />
			<path d="M-42.39812259994539,-14.402999687565089 L-48.12568752755642,-17.709810840322383 " />
			<path d="M-41.33746242816557,-15.015372123260883 L-53.428988386455536,-21.996417890192944 " />
			<path d="M-41.33746242816557,-15.015372123260889 L-42.398122599945395,-14.402999687565096 " />
			<path d="M58.944421279710596,3.298646186947998 L56.17256269745932,3.0700271442882334 " />
			<path d="M56.17256269745934,4.78466996423648 L56.17256269745934,3.070027144288254 " />
			<path d="M31.072711555692138,-0.05358759041432393 L31.844372583120048,0.07476705179790599 L32.61700438937936,0.20116005759052769 L33.39059201454403,0.3255889797047047 L34.1651204801812,0.44805140891075723 L34.940574789641154,0.5685449740548307 L35.71693992834772,0.6870673421048394 L36.494200864089024,0.8036162181955291 L37.2723425473084,0.9181893456730279 L38.05134991139598,1.0307845061384882 L38.831207872980336,1.1413995194910456 L39.611901332220405,1.2500322439700113 L40.39341517309809,1.3566805761964105 L41.17573426371079,1.461342451213568 L41.95884345656438,1.5640158425273114 L42.7427275888666,1.6646987621449654 L43.52737148282054,1.763389260613991 L44.31275994591857,1.8600854270597438 L45.09887777123651,1.9547853892223515 L45.88570973772802,2.0474873134931215 L46.67324061051937,2.138189404949884 L47.4614551412044,2.226889907391879 L48.25033806813974,2.313587103373692 L49.03987411674037,2.3982793142385077 L49.830047999775296,2.4809649001506386 L50.62084441766362,2.5616422601272717 L51.41224805877072,2.6403098320694482 L52.20424359970473,2.716966092792333 L52.996815705613265,2.791609558054688 L53.7899490304803,2.8642387825875915 L54.583628217423346,2.9348523601225054 L55.377837898990784,3.0034489234183894 L56.172562697458886,3.0700271442882183 " />
			<path d="M31.072711555692138,-0.053587590414321276 L30.672060626959222,0.7362529115672877 " />
			<path d="M44.68066328961555,17.752268662530625 L53.17442994522838,18.45282272896662 " />
			<path d="M53.174429945228376,18.45282272896662 L55.38908838390465,9.502387208836888 " />
			<path d="M-47.06502735577661,-25.01745523962553 L-47.06502735577661,-26.732098059573758 " />
			<path d="M-47.065027355776635,-26.732098059573772 L-46.49593898771619,-26.404977331033734 L-45.924362992493286,-26.0793055302545 L-45.350310437131725,-25.75508896299003 L-44.77379243660724,-25.432333906817576 L-44.19482015363219,-25.111046611016178 L-43.61340479843955,-24.791233296445725 L-43.02955762856574,-24.472900155426373 L-42.44328994863271,-24.156053351618738 L-41.85461311012901,-23.840699019904548 L-41.26353851119008,-23.526843266267846 L-40.67007759637747,-23.214492167676767 L-40.074241856457306,-22.903651771965812 L-39.47604282817777,-22.594328097718886 L-38.875492094045796,-22.286527134152635 L-38.27260128210261,-21.98025484100056 L-37.66738206569886,-21.67551714839753 L-37.05984616326836,-21.37231995676511 L-36.45000533810132,-21.070669136697177 L-35.83787139811653,-20.770570528846292 L-35.223456195632764,-20.472029943810654 L-34.60677162713927,-20.175053162021555 L-33.98782963306546,-19.879645933631465 L-33.36664219754964,-19.585813978402697 L-32.74322134820707,-19.29356298559665 L-32.11757915589696,-19.00289861386365 L-31.48972773448891,-18.713826491133418 L-30.859679240628196,-18.426352214506068 L-30.22744587350047,-18.140481350143745 L-29.59303987459562,-17.85621943316285 L-28.956473527470592,-17.573571967526888 L-28.31775915751166,-17.292544425939838 L-27.676909131695936,-17.01314224974034 " />
			<path d="M-27.67690913169577,-16.155820839766136 L-27.67690913169577,-17.013142249740252 " />
			<path d="M-27.67690913169578,-16.15582083976615 L-27.036379989192312,-15.879100513080246 " />
			<path d="M-27.03637998919213,-15.879100513080171 L-27.03637998919213,-16.736421923054287 " />
			<path d="M-27.036379989192156,-16.736421923054294 L-26.42147389381664,-16.47313896843363 L-25.80466031054432,-16.211347542420413 L-25.18595009294691,-15.951052251547466 L-24.56535412796964,-15.692257676021342 L-23.94288333573975,-15.434968369641652 L-23.318548669374294,-15.179188859721066 L-22.692361114787374,-14.924923647005556 L-22.06433169049697,-14.672177205595204 L-21.434471447430838,-14.420953982865555 L-20.80279146873231,-14.17125839938926 L-20.169302869565,-13.923094848858312 L-19.534016796917484,-13.676467698006803 L-18.89694442940693,-13.431381286534005 L-18.258096977082573,-13.187839927028065 L-17.617485681228374,-12.945847904890059 L-16.975121814165348,-12.70540947825873 " />
			<path d="M-16.975121814165146,-11.848088068284566 L-16.975121814165146,-12.70540947825868 " />
			<path d="M-16.975121814165163,-11.848088068284554 L-16.301988888069815,-11.598493688135704 " />
			<path d="M-16.30198888806944,-11.5984936881356 L-16.30198888806944,-12.455815098109714 " />
			<path d="M-16.30198888806946,-12.455815098109696 L-15.656076232493803,-12.218566922789321 L-15.008445519051108,-11.982885140353076 L-14.359108143577203,-11.748773897903419 L-13.70807553193876,-11.516237314907258 L-13.055359139832206,-11.285279483123517 L-12.400970452582058,-11.055904466531103 L-11.744920984938801,-10.828116301257381 L-11.08722228087639,-10.601918995507177 L-10.427885913389048,-10.377316529492248 L-9.766923484287716,-10.154312855361283 L-9.10434662399571,-9.932911897130225 L-8.440166991344228,-9.713117550613376 L-7.7743962733672305,-9.494933683354787 L-7.107046185095683,-9.27836413456022 L-6.438128469351426,-9.063412715029528 L-5.767654896540932,-8.850083207089767 " />
			<path d="M-5.767654896540549,-7.9927617971155565 L-5.767654896540549,-8.850083207089671 " />
			<path d="M-5.767654896540577,-7.992761797115534 L-5.065357956720177,-7.771568813261865 " />
			<path d="M-5.065357956719799,-7.771568813261774 L-5.065357956719799,-8.628890223235889 " />
			<path d="M-5.065357956719822,-8.62889022323587 L-4.391739412777554,-8.418889186755536 L-3.7166010204283424,-8.210521403027329 L-3.0399546595385516,-8.003790538531248 L-2.36181223650901,-7.79870023094378 L-1.0010869610494382,-7.39345569279925 L0.36547903202598775,-6.994816311514938 L1.7377895576970417,-6.6028101451115475 L3.1157480266176663,-6.217464784734474 L4.499257451914289,-5.838807352711882 L5.888220456011894,-5.466864500645698 " />
			<path d="M5.888220456012279,-4.6095430906715 L5.888220456012279,-5.466864500645614 " />
			<path d="M5.888220456012263,-4.60954309067148 L6.616092608954318,-4.417881819178604 " />
			<path d="M6.6160926089547285,-4.4178818191785325 L6.6160926089547285,-5.2752032291526465 " />
			<path d="M6.616092608954688,-5.275203229152623 L8.013170843121145,-4.913533448836944 L9.415455331164821,-4.558643373388918 L10.822847374038275,-4.21055798155767 L12.235247913201462,-3.869301773148237 L13.652557537594092,-3.5348987672972783 L15.074676490632442,-3.207372500782384 L16.5015046772308,-2.886746026365543 L17.932941670846134,-2.573041911170634 " />
			<path d="M17.932941670846553,-1.7157205011964516 L17.932941670846553,-2.5730419111705656 " />
			<path d="M17.93294167084656,-1.7157205011964152 L18.682669544664897,-1.5545703484204836 " />
			<path d="M18.68266954466531,-1.5545703484204303 L18.68266954466531,-2.4118917583945443 " />
			<path d="M18.682669544665274,-2.4118917583945176 L20.120929881125186,-2.1087691831169764 L21.563544273285608,-1.8126237245473789 L23.01041118350014,-1.5234762267262312 L24.461428774811303,-1.2413470411463123 L25.91649491811811,-0.9662560253201917 L27.375507199364343,-0.6982225413826484 L28.838362926747024,-0.43726545472782163 L30.304959137943847,-0.18340313268143404 " />
			<path d="M30.30495913794426,0.673918277292718 L30.30495913794426,-0.18340313268139607 " />
			<path d="M30.30495913794423,0.6739182772927563 L31.072711555691754,0.8037338195597385 " />
			<path d="M31.07271155569215,0.8037338195597713 L31.07271155569215,-0.0535875904143428 " />
			<path d="M-49.04492634309894,-27.875193272872576 L-47.06502735577661,-26.732098059573758 " />
			<path d="M-49.04492634309894,-27.875193272872576 L-49.04492634309894,-26.160550452924348 " />
			<path d="M-73.79366368462811,-13.586503106637364 L-73.79366368462811,-11.871860286689138 " />
			<path d="M-49.04492634309894,-27.875193272872576 L-73.79366368462811,-13.586503106637364 " />
			<path d="M53.17442994522835,18.452822728966627 L53.17442994522835,20.167465548914855 " />
			<path d="M46.68318969393586,8.7843367870953 L46.68318969393586,9.65915455237502 " />
			<path d="M-54.48964855823536,-8.646698792024624 L-54.48964855823536,-7.421953920633035 " />
			<path d="M-59.15655331406657,-13.055780329034349 L-59.15655331406657,-11.341137509086122 " />
			<path d="M-59.15655331406657,-11.831035457642761 L-65.09625027603356,-15.260321097539208 " />
			<path d="M-48.12568752755643,-18.934555711713973 L-48.12568752755643,-17.709810840322383 " />
			<path d="M-48.54995159626836,-19.17950468599229 L-59.15655331406657,-13.055780329034343 " />
			<path d="M-42.398122599945395,-15.627744558956682 L-42.398122599945395,-14.402999687565094 " />
			<path d="M-27.036379989192135,-16.736421923054287 L-27.67690913169577,-16.242207436644883 " />
			<path d="M-16.301988888069467,-12.455815098109703 L-16.975121814165146,-11.850689379168275 " />
			<path d="M-5.065357956719826,-8.628890223235878 L-5.689717503971939,-7.968101031005904 " />
			<path d="M6.616092608954714,-5.27520322915263 L6.055336311439926,-4.565341693453565 " />
			<path d="M18.682669544665305,-2.4118917583945256 L18.196996287390004,-1.658716800598656 " />

       </g>
    </g>
    
</svg>
