<?xml version="1.0" encoding="UTF-8" standalone="no"?>
<svg
   xmlns:svg="http://www.w3.org/2000/svg"
   xmlns="http://www.w3.org/2000/svg"
   width="480.0"
   height="480.0"

>
    <g transform="scale(2.8350422232671457, -2.8350422232671457)   translate(86.70826193621924,-63.38810945250765)" stroke-width="0.3527284326818896"  fill="none">
       <!-- hidden lines -->
       <g  stroke="rgb(100,40,40)" fill="none" stroke-dasharray="0.3527284326818896,0.3527284326818896" >
			<path d="M53.58455187831659,20.379754659956035 L54.06538448952344,18.436492797348052 " />
			<path d="M53.58455187831659,20.379754659956035 L53.58455187831659,22.176047137997035 " />
			<path d="M37.13724814791748,17.040283643961626 L37.13724814791748,18.836576122002622 " />
			<path d="M37.13724814791749,17.040283643961654 L45.59141682378383,17.73757172407393 " />
			<path d="M56.848556780273675,5.718742052817784 L56.41297900306275,5.682816203256962 " />
			<path d="M56.85138520739842,3.9110186226438284 L56.412979003062766,5.682816203256978 " />
			<path d="M-40.36165507012813,-16.844324464538992 L-52.45318102841809,-23.82537023147105 " />
			<path d="M-40.36165507012813,-16.844324464538996 L-41.493025920026604,-16.191127199796814 " />
			<path d="M-41.4930259200266,-16.191127199796814 L-47.22059084763764,-19.497938352554105 " />
			<path d="M-47.22059084763764,-19.4979383525541 L-47.644854916349566,-19.25298937827578 " />
			<path d="M-52.52389170653674,-9.822453868560547 L-58.25145663414777,-13.12926502131784 " />
			<path d="M-52.523891706536745,-9.822453868560547 L-53.65526255643522,-9.16925660381837 " />
			<path d="M-53.655262556435225,-9.169256603818367 L-58.25145663414778,-11.822870491833475 " />
			<path d="M-68.15095157075945,-14.76225818317329 L-67.58526614581021,-14.4356595508022 " />
			<path d="M-67.58526614581021,-14.4356595508022 L-68.15095157075945,-14.10906091843111 " />
			<path d="M-69.77729716748854,-13.170089850364235 L-69.00787365564295,-12.728090668714898 L-68.23461111805071,-12.288330348285243 L-67.45752909831847,-11.850820003673945 L-66.67664723658754,-11.415570692613258 L-65.8919852690371,-10.98259341568965 L-65.10356302738552,-10.551899116065627 L-64.31140043838928,-10.123498679203252 L-63.51551752333921,-9.697402932589043 L-62.715934397554406,-9.273622645460193 L-61.912671269873925,-8.852168528532545 L-61.10574844214608,-8.433051233729756 L-60.2951863087151,-8.016281353914124 L-59.48100535590592,-7.601869422618918 L-58.66322616150626,-7.189825913782016 L-57.84186939424666,-6.780161241481352 L-57.016955813277946,-6.372885759671576 L-56.18850626764663,-5.9680097619224455 L-55.356541695768016,-5.565543481158599 L-54.52108312489696,-5.165497089400972 L-53.68215167059637,-4.7678806975097245 L-52.83976853620359,-4.372704354928601 L-51.993955012294464,-3.9799780494310824 L-51.14473247614529,-3.589711706867803 L-50.292122391192436,-3.201915190915841 L-49.436146306489974,-2.8165983028292345 L-48.57682585616493,-2.4337707811914413 L-47.71418275887066,-2.0534423016690937 L-46.84823881723773,-1.675622476767515 L-45.97901591732301,-1.3003208555876853 L-45.10653602805648,-0.9275469235850125 L-44.230821200685924,-0.5573101023294953 L-43.351893568219765,-0.18961974926764924 L-42.469775344867486,0.17551484251399074 L-41.5844888254783,0.5380844445237614 L-40.69605638497765,0.8980798930981564 L-39.8045004778016,1.2554920896333073 L-38.90984363732946,1.6103120008150853 L-38.01210847531415,1.9625306588473563 L-37.11131768131085,2.312139161678587 L-36.207494022103376,2.6591286732269026 L-35.30066034112886,3.003490423603367 L-34.39083955790048,3.3452157093336723 L-33.4780546674279,3.6842958935780956 L-32.5623287396364,4.020722406349805 L-31.643684918783677,4.354486744731403 L-30.722146422874914,4.685580473089914 L-29.797736543075885,5.013995223289896 L-28.870478643124386,5.3397226949050065 L-27.940396158739716,5.662754655427818 L-27.0075125970303,5.983082940477772 L-26.071851535899597,6.300699454007628 L-25.13343662345025,6.615596168508063 L-24.192291577386328,6.927765125210527 L-23.248440184413838,7.23719843428843 L-22.301906299639697,7.543888275056517 L-21.35271384596858,7.847826896168627 L-20.400886813498474,8.149006615813448 L-19.44644925891437,8.447419821908738 L-18.48942530488,8.743058972293795 L-17.529839139428447,9.035916594919968 L-16.56771501535063,9.325985288039561 L-15.60307724958244,9.613257720392866 L-14.635950222590068,9.897726631393525 L-13.666358377753852,10.17938483131195 L-12.694326220750412,10.458225201457097 L-11.719878318933453,10.734240694356401 L-10.743039300712695,11.007424333933812 L-9.76383385493142,11.277769215686178 L-8.782286730242589,11.545268506857738 L-7.798422734483225,11.809915446612848 L-6.812266734047512,12.071703346206732 L-5.8238436532581375,12.330625589154707 L-4.833178473736581,12.586675631399274 L-3.8402962337716673,12.839847001475576 L-2.8452220276865035,13.090133300674978 L-1.8479810052045877,13.337528203206688 L-0.8485983708139884,13.582025456357783 L0.15290061686971512,13.82361888065111 L1.1564906457417123,14.062302370001547 L2.1621463508477774,14.298069891870298 L3.169842315025349,14.530915487417388 L4.179553069545889,14.760833271652217 L5.191253094758608,14.98781743358235 L6.204916820735491,15.211862236360346 L7.2205186279174285,15.432962017428792 L8.238032847761943,15.651111188663378 L9.257433763391674,15.866304236514196 L10.278695610244682,16.07853572214499 L11.301792576725319,16.28780028157071 L12.326698804856676,16.494092625793044 L13.353388390934356,16.697407540934122 L14.381835386180796,16.89773988836818 L15.4120137974014,17.09508460485165 L16.443897587641302,17.289436702650903 L17.47746067684359,17.480791269668487 L18.51267694250832,17.66914346956709 L19.549520220352868,17.854488541892025 L20.587964304973077,18.036821802191298 L21.627982950505704,18.216138642134155 L22.669549871291693,18.392434529627508 L23.71263874254052,18.56570500893048 L24.757223200995575,18.735945700767004 L25.803276845600408,18.903152302436567 L26.85077323816615,19.06732058792288 L27.899685904039472,19.22844640800075 L28.94998833277188,19.38652569034089 L30.001653978789783,19.54155443961291 L31.05465626206525,19.69352873758622 L32.10896856878792,19.842444743229137 L33.1645642520376,19.988298692805913 L34.221416632457775,20.131086899971876 L35.27949899892988,20.270805755866604 L36.33878460924841,20.407451729205135 L37.39924669079682,20.541021366367175 L38.460858441224126,20.671511291484478 L39.5235930291225,20.79891820652611 L40.58742359470513,20.92323889138177 L41.652323250485225,21.044470203943234 L42.718265081955714,21.162609080183785 L43.78522214826921,21.277652534235543 L44.85316748291912,21.389597658465078 L45.922074094421106,21.498441623546796 L46.991914966995346,21.604181678534474 L48.062663061249275,21.706815150930822 L49.13429131486101,21.806339446754933 L50.206772643263335,21.902752050607987 L51.28007994032818,21.99605052573672 L52.354186079051445,22.086232514094974 " />
			<path d="M52.79259228338764,20.314434933481827 L52.35418607905197,22.086232514095016 " />
			<path d="M53.58455187831659,20.379754659956035 L52.79259228338764,20.314434933481817 " />
			<path d="M37.1372481479175,17.040283643961644 L37.36352231789719,16.125807473322595 " />
			<path d="M37.36352231789718,16.125807473322595 L45.38211321655262,16.787169703874056 " />
			<path d="M45.38211321655261,16.787169703874056 L47.58828637385464,7.871027040143286 " />
			<path d="M39.56969547519921,7.209664809591832 L47.588286373854665,7.871027040143292 " />
			<path d="M39.569695475199225,7.20966480959183 L39.79596964517892,6.295188638952768 " />
			<path d="M39.79596964517891,6.295188638952769 L56.72410598678486,7.691397792339186 " />
			<path d="M56.72410598678486,7.691397792339172 L57.20493859799171,5.7481359297311805 " />
			<path d="M52.792592283387656,22.11072741152283 L52.79259228338766,20.31443493348183 " />
			<path d="M56.412979003062794,7.479108681297982 L56.4129790030628,5.682816203256984 " />
			<path d="M-40.36165507012813,-16.844324464538992 L-40.36165507012813,-15.048031986497993 " />
			<path d="M-41.493025920026604,-16.191127199796814 L-41.493025920026604,-15.701229251240173 " />
			<path d="M-47.22059084763764,-19.497938352554105 L-47.22059084763764,-19.008040403997462 " />
			<path d="M-52.523891706536745,-9.822453868560551 L-52.523891706536745,-8.026161390519551 " />
			<path d="M-53.65526255643522,-9.169256603818368 L-53.65526255643522,-8.679358655261733 " />
			<path d="M-67.58526614581021,-14.435659550802203 L-67.58526614581021,-12.639367072761205 " />
			<path d="M52.35418607905194,22.086232514095 L52.35418607905194,23.882524992136 " />
			<path d="M37.36352231789719,16.125807473322595 L37.36352231789719,17.92209995136359 " />
			<path d="M45.38211321655262,16.787169703874063 L45.38211321655262,18.583462181915063 " />
			<path d="M47.58828637385465,7.871027040143305 L47.58828637385465,8.734180568552596 " />
			<path d="M39.56969547519921,7.2096648095918265 L39.56969547519921,9.005957287632826 " />
			<path d="M39.795969645178914,6.29518863895275 L39.795969645178914,8.09148111699375 " />
			<path d="M56.724105986784856,7.6913977923391865 L56.724105986784856,9.487690270380186 " />

       </g>

       <!-- solid lines -->
       <g  stroke="rgb(200,20,20)" fill="none">
			<path d="M53.58455187831658,22.17604713799704 L54.06538448952343,20.232785275389055 " />
			<path d="M54.06538448952344,18.436492797348066 L54.06538448952344,20.232785275389062 " />
			<path d="M57.204938597991706,7.544428407772182 L56.41297900306274,7.479108681297961 " />
			<path d="M56.41297900306276,7.479108681297969 L56.85138520739842,5.707311100684816 " />
			<path d="M-47.291301525756325,-24.356093009074087 L-46.63520672014829,-23.97919606909427 L-45.97583834047839,-23.604208227542173 L-45.313213051767406,-23.23113896194262 L-44.647347601352095,-22.859997701329974 L-43.97825881846167,-22.49079382600975 L-43.3059636137926,-22.123536667321545 L-42.63047897908113,-21.758235507403242 L-41.951821986673906,-21.394899578956384 L-41.270009789096406,-21.03353806501279 L-40.585059618619454,-20.674160098702558 L-39.89698878682371,-20.316774763023105 L-39.20581468416212,-19.96139109060968 L-38.51155477952028,-19.608018063507103 L-37.81422661977514,-19.256664612942615 L-37.11384782935136,-18.907339619100313 L-36.4104361097759,-18.560051910896604 L-35.70400923923064,-18.214810265757123 L-34.99458507210301,-17.8716234093948 L-34.282181538534886,-17.53050001558944 L-33.56681664396916,-17.191448705968412 L-32.84850846869492,-16.85447804978878 L-32.12727516739028,-16.51959656372071 L-31.40313496866372,-16.186812711632257 L-30.676106174593215,-15.85613490437538 L-29.946207160263782,-15.527571499573426 L-29.213456373302975,-15.201130801409832 L-28.477872333414723,-14.876821060418337 L-27.73947363191114,-14.554650473274378 L-26.99827893124278,-14.234627182587928 L-26.254306964526847,-13.916759276697746 L-25.507576535073767,-13.601054789466886 L-24.758106515912033,-13.287521700079736 L-24.005915849311037,-12.97616793284027 L-23.251023546302477,-12.667001356971824 L-22.493448686199784,-12.36002978641811 L-21.733210416115895,-12.055260979645894 L-20.9703279504794,-11.752702639448728 L-20.20482057054879,-11.452362412752379 L-19.436707623925315,-11.15424789042153 L-18.666008524063827,-10.858366607067921 L-17.892742749782172,-10.564726040859924 L-17.116929844768975,-10.273333613333534 L-16.338589417089494,-9.984196689204765 L-15.557741138690176,-9.697322576183595 L-14.774404744901446,-9.412718524789184 L-13.988600033938937,-9.130391728166671 L-13.200346866403038,-8.85034932190537 L-12.409665164776953,-8.572598383858377 L-11.616574912923241,-8.297145933963762 L-10.821096155578616,-8.023998934067066 L-10.023248997847446,-7.753164287745406 L-9.223053604693561,-7.484648840132948 L-8.420530200430605,-7.218459377747934 L-7.615699068210901,-6.954602628321155 L-6.808580549512811,-6.693085260625907 L-5.9991950436265,-6.433913884309376 L-5.187563007138564,-6.177095049725722 L-4.373704953414915,-5.922635247770458 L-3.557641452082237,-5.670540909716323 L-2.739393128508212,-5.420818407050831 L-1.9189806632802089,-5.173474051315225 L-1.0964247916826082,-4.9285140939449406 L-0.27174630317266235,-4.685944726111586 L0.5550339591448363,-4.445772078566506 L1.38389509904448,-4.208002221485813 L2.2148161677082214,-3.97264116431694 L3.0477761642549694,-3.7396948556267944 L3.8827540362713364,-3.509169182951439 L4.71972868034365,-3.2810699726472023 L5.558678942591442,-3.0554029897434702 L6.399583619201977,-2.8321739377970374 L7.2424214569663405,-2.6113884587478395 L8.087171153816342,-2.3930521327764467 L8.93381135936309,-2.177170478162978 L9.782320675436623,-1.9637489511476502 L10.632677656626626,-1.7527929457929048 L11.484860810824443,-1.5443077938470253 L12.338848599766408,-1.3382987646094051 L13.194619439578048,-1.134771064797377 L14.05215170131973,-0.9337298384146209 L14.911423711533217,-0.7351801666211202 L15.77241375278949,-0.5391270676047526 L16.635100064237676,-0.345575496454515 L17.49946084215496,-0.15453034503519802 L18.365474240497704,0.0340035581361775 L19.23311837145357,0.22002144801246004 L20.102371305994716,0.4035186231367476 L20.973211074432136,0.5844904457612472 L21.845615666970737,0.762932341964472 L22.71956303426571,0.9388398017668322 L23.595031087979933,1.1122083792447057 L24.471997701341998,1.2830336926426185 L25.350440709705644,1.4513114244842455 L26.23033791110985,1.6170373216812948 L27.111667066840006,1.780207195641168 L27.994405901989964,1.940816922372676 L28.878532106025077,2.098862442590459 L29.764023333345968,2.2543397618174055 L30.650857203853406,2.4072449504856763 L31.539011303513902,2.557574144036053 L32.42846318492617,2.7053235430155667 L33.31919036788854,2.850489413173534 L34.21117033996705,2.9930680855559615 L35.104380557064566,3.1330559565982554 L35.99879844399036,3.2704494882162862 L36.89440139503082,3.4052452078958737 L37.791166774520846,3.5374397087804397 L38.68907191741577,3.667029649757211 L39.588094129864324,3.7940117555416606 L40.488210689782186,3.9183828167602144 L41.38939884742625,4.04013969003141 L42.29163582596962,4.159279298045391 L43.19489882207727,4.2757986296416135 L44.09916500648238,4.389694739884931 L45.00441152456328,4.5009647501401275 L45.910615496921274,4.6096058481445965 L46.81775401995862,4.715615288079405 L47.72580416645753,4.818990390638774 L48.634742986159786,4.919728543097705 L49.54454750634652,5.017827199378061 L50.455194732418995,5.113283880112931 L51.36666164847975,5.206096172709238 L52.27892521791429,5.296261731408791 L53.19196238397333,5.3837782773474885 L54.10575007035555,5.468643598612985 L55.02026518179078,5.550855550300554 L55.93548460462375,5.630412054567344 L56.851385207397975,5.707311100684777 " />
			<path d="M-49.4833325474346,-23.0905233086361 L-47.291301525756296,-24.35609300907408 " />
			<path d="M-50.04901797238383,-23.417121941007185 L-49.48333254743459,-23.090523308636094 " />
			<path d="M-50.04901797238383,-23.417121941007185 L-52.45318102841809,-22.029077753430048 " />
			<path d="M-52.45318102841809,-22.02907775343005 L-40.36165507012813,-15.048031986497993 " />
			<path d="M-41.493025920026604,-14.394834721755815 L-40.36165507012813,-15.048031986497996 " />
			<path d="M-47.22059084763764,-17.701645874513105 L-41.4930259200266,-14.394834721755814 " />
			<path d="M-58.25145663414778,-11.332972543276837 L-47.22059084763764,-17.7016458745131 " />
			<path d="M-58.25145663414777,-11.332972543276842 L-52.52389170653674,-8.02616139051955 " />
			<path d="M-53.65526255643522,-7.37296412577737 L-52.523891706536745,-8.026161390519547 " />
			<path d="M-65.74678851472518,-14.354009892709428 L-53.655262556435225,-7.372964125777367 " />
			<path d="M-65.74678851472518,-14.354009892709422 L-68.15095157075945,-12.965965705132287 " />
			<path d="M-68.15095157075945,-12.965965705132291 L-67.58526614581021,-12.6393670727612 " />
			<path d="M-69.77729716748851,-11.373797372323228 L-67.58526614581021,-12.639367072761203 " />
			<path d="M-69.77729716748854,-11.373797372323239 L-69.00787365564295,-10.931798190673902 L-68.23461111805071,-10.492037870244246 L-67.45752909831847,-10.054527525632949 L-66.67664723658754,-9.619278214572262 L-65.8919852690371,-9.186300937648653 L-65.10356302738552,-8.75560663802463 L-64.31140043838928,-8.327206201162255 L-63.51551752333921,-7.901110454548046 L-62.715934397554406,-7.477330167419197 L-61.912671269873925,-7.055876050491548 L-61.10574844214608,-6.63675875568876 L-60.2951863087151,-6.219988875873128 L-59.48100535590592,-5.805576944577922 L-58.66322616150626,-5.39353343574102 L-57.84186939424666,-4.983868763440356 L-57.016955813277946,-4.576593281630579 L-56.18850626764663,-4.171717283881449 L-55.356541695768016,-3.7692510031176027 L-54.52108312489696,-3.369204611359976 L-53.68215167059637,-2.971588219468728 L-52.83976853620359,-2.5764118768876045 L-51.993955012294464,-2.183685571390086 L-51.14473247614529,-1.7934192288268065 L-50.292122391192436,-1.4056227128748446 L-49.436146306489974,-1.0203058247882382 L-48.57682585616493,-0.637478303150445 L-47.71418275887066,-0.25714982362809735 L-46.84823881723773,0.12067000127348138 L-45.97901591732301,0.49597162245331106 L-45.10653602805648,0.8687455544559839 L-44.230821200685924,1.238982375711501 L-43.351893568219765,1.606672728773347 L-42.469775344867486,1.971807320554987 L-41.5844888254783,2.3343769225647577 L-40.69605638497765,2.6943723711391527 L-39.8045004778016,3.0517845676743036 L-38.90984363732946,3.4066044788560816 L-38.01210847531415,3.7588231368883527 L-37.11131768131085,4.1084316397195835 L-36.207494022103376,4.455421151267899 L-35.30066034112886,4.799782901644363 L-34.39083955790048,5.141508187374669 L-33.4780546674279,5.480588371619092 L-32.5623287396364,5.817014884390801 L-31.643684918783677,6.1507792227724 L-30.722146422874914,6.48187295113091 L-29.797736543075885,6.810287701330893 L-28.870478643124386,7.136015172946003 L-27.940396158739716,7.459047133468815 L-27.0075125970303,7.779375418518768 L-26.071851535899597,8.096991932048624 L-25.13343662345025,8.411888646549059 L-24.192291577386328,8.724057603251524 L-23.248440184413838,9.033490912329427 L-22.301906299639697,9.340180753097513 L-21.35271384596858,9.644119374209623 L-20.400886813498474,9.945299093854445 L-19.44644925891437,10.243712299949735 L-18.48942530488,10.539351450334792 L-17.529839139428447,10.832209072960964 L-16.56771501535063,11.122277766080558 L-15.60307724958244,11.409550198433863 L-14.635950222590068,11.694019109434521 L-13.666358377753852,11.975677309352946 L-12.694326220750412,12.254517679498093 L-11.719878318933453,12.530533172397398 L-10.743039300712695,12.803716811974809 L-9.76383385493142,13.074061693727174 L-8.782286730242589,13.341560984898734 L-7.798422734483225,13.606207924653845 L-6.812266734047512,13.867995824247728 L-5.8238436532581375,14.126918067195703 L-4.833178473736581,14.38296810944027 L-3.8402962337716673,14.636139479516572 L-2.8452220276865035,14.886425778715974 L-1.8479810052045877,15.133820681247684 L-0.8485983708139884,15.37831793439878 L0.15290061686971512,15.619911358692107 L1.1564906457417123,15.858594848042543 L2.1621463508477774,16.094362369911295 L3.169842315025349,16.327207965458385 L4.179553069545889,16.557125749693213 L5.191253094758608,16.784109911623347 L6.204916820735491,17.008154714401343 L7.2205186279174285,17.22925449546979 L8.238032847761943,17.447403666704375 L9.257433763391674,17.662596714555193 L10.278695610244682,17.874828200185988 L11.301792576725319,18.084092759611707 L12.326698804856676,18.29038510383404 L13.353388390934356,18.49370001897512 L14.381835386180796,18.694032366409175 L15.4120137974014,18.891377082892646 L16.443897587641302,19.0857291806919 L17.47746067684359,19.277083747709483 L18.51267694250832,19.465435947608086 L19.549520220352868,19.65078101993302 L20.587964304973077,19.833114280232294 L21.627982950505704,20.01243112017515 L22.669549871291693,20.188727007668504 L23.71263874254052,20.361997486971475 L24.757223200995575,20.532238178808 L25.803276845600408,20.699444780477563 L26.85077323816615,20.863613065963875 L27.899685904039472,21.024738886041746 L28.94998833277188,21.182818168381885 L30.001653978789783,21.337846917653906 L31.05465626206525,21.489821215627217 L32.10896856878792,21.638737221270134 L33.1645642520376,21.78459117084691 L34.221416632457775,21.927379378012873 L35.27949899892988,22.0670982339076 L36.33878460924841,22.20374420724613 L37.39924669079682,22.337313844408172 L38.460858441224126,22.467803769525474 L39.5235930291225,22.595210684567107 L40.58742359470513,22.719531369422768 L41.652323250485225,22.84076268198423 L42.718265081955714,22.95890155822478 L43.78522214826921,23.07394501227654 L44.85316748291912,23.185890136506075 L45.922074094421106,23.294734101587792 L46.991914966995346,23.40047415657547 L48.062663061249275,23.50310762897182 L49.13429131486101,23.60263192479593 L50.206772643263335,23.699044528648983 L51.28007994032818,23.792343003777717 L52.354186079051445,23.88252499213597 " />
			<path d="M52.35418607905197,23.882524992136005 L52.792592283387634,22.110727411522824 " />
			<path d="M53.58455187831658,22.17604713799704 L52.79259228338763,22.11072741152282 " />
			<path d="M37.13724814791749,18.836576122002654 L54.06538448952344,20.23278527538907 " />
			<path d="M37.1372481479175,18.836576122002644 L37.36352231789719,17.922099951363595 " />
			<path d="M37.36352231789718,17.922099951363595 L45.38211321655262,18.583462181915056 " />
			<path d="M45.38211321655261,18.583462181915053 L47.58828637385464,9.667319518184282 " />
			<path d="M39.56969547519921,9.00595728763283 L47.588286373854665,9.66731951818429 " />
			<path d="M39.569695475199225,9.00595728763283 L39.79596964517892,8.091481116993767 " />
			<path d="M39.79596964517891,8.09148111699377 L56.72410598678486,9.487690270380185 " />
			<path d="M56.724105986784856,9.487690270380176 L57.20493859799171,7.544428407772184 " />
			<path d="M45.59141682378383,17.73757172407393 L54.06538448952344,18.43649279734807 " />
			<path d="M57.204938597991706,5.748135929731182 L56.848556780273675,5.718742052817784 " />
			<path d="M-47.291301525756325,-26.152385487115083 L-46.63520672014829,-25.775488547135268 L-45.97583834047839,-25.40050070558317 L-45.313213051767406,-25.027431439983616 L-44.647347601352095,-24.65629017937097 L-43.97825881846167,-24.287086304050746 L-43.3059636137926,-23.91982914536254 L-42.63047897908113,-23.55452798544424 L-41.951821986673906,-23.19119205699738 L-41.270009789096406,-22.829830543053788 L-40.585059618619454,-22.470452576743554 L-39.89698878682371,-22.1130672410641 L-39.20581468416212,-21.757683568650677 L-38.51155477952028,-21.4043105415481 L-37.81422661977514,-21.05295709098361 L-37.11384782935136,-20.70363209714131 L-36.4104361097759,-20.3563443889376 L-35.70400923923064,-20.01110274379812 L-34.99458507210301,-19.667915887435797 L-34.282181538534886,-19.326792493630435 L-33.56681664396916,-18.98774118400941 L-32.84850846869492,-18.650770527829778 L-32.12727516739028,-18.315889041761707 L-31.40313496866372,-17.983105189673253 L-30.676106174593215,-17.652427382416377 L-29.946207160263782,-17.323863977614423 L-29.213456373302975,-16.997423279450828 L-28.477872333414723,-16.673113538459333 L-27.73947363191114,-16.350942951315375 L-26.99827893124278,-16.030919660628925 L-26.254306964526847,-15.713051754738743 L-25.507576535073767,-15.397347267507882 L-24.758106515912033,-15.083814178120733 L-24.005915849311037,-14.772460410881266 L-23.251023546302477,-14.46329383501282 L-22.493448686199784,-14.156322264459106 L-21.733210416115895,-13.85155345768689 L-20.9703279504794,-13.548995117489724 L-20.20482057054879,-13.248654890793375 L-19.436707623925315,-12.950540368462526 L-18.666008524063827,-12.654659085108918 L-17.892742749782172,-12.36101851890092 L-17.116929844768975,-12.06962609137453 L-16.338589417089494,-11.780489167245761 L-15.557741138690176,-11.493615054224591 L-14.774404744901446,-11.20901100283018 L-13.988600033938937,-10.926684206207668 L-13.200346866403038,-10.646641799946366 L-12.409665164776953,-10.368890861899374 L-11.616574912923241,-10.093438412004758 L-10.821096155578616,-9.820291412108062 L-10.023248997847446,-9.549456765786402 L-9.223053604693561,-9.280941318173944 L-8.420530200430605,-9.01475185578893 L-7.615699068210901,-8.750895106362151 L-6.808580549512811,-8.489377738666903 L-5.9991950436265,-8.230206362350373 L-5.187563007138564,-7.973387527766718 L-4.373704953414915,-7.718927725811454 L-3.557641452082237,-7.466833387757319 L-2.739393128508212,-7.217110885091827 L-1.9189806632802089,-6.969766529356221 L-1.0964247916826082,-6.724806571985937 L-0.27174630317266235,-6.482237204152582 L0.5550339591448363,-6.242064556607502 L1.38389509904448,-6.00429469952681 L2.2148161677082214,-5.768933642357936 L3.0477761642549694,-5.535987333667791 L3.8827540362713364,-5.305461660992435 L4.71972868034365,-5.077362450688199 L5.558678942591442,-4.851695467784467 L6.399583619201977,-4.628466415838034 L7.2424214569663405,-4.407680936788836 L8.087171153816342,-4.189344610817443 L8.93381135936309,-3.9734629562039743 L9.782320675436623,-3.7600414291886466 L10.632677656626626,-3.549085423833901 L11.484860810824443,-3.3406002718880217 L12.338848599766408,-3.1345912426504015 L13.194619439578048,-2.9310635428383733 L14.05215170131973,-2.730022316455617 L14.911423711533217,-2.5314726446621165 L15.77241375278949,-2.335419545645749 L16.635100064237676,-2.1418679744955114 L17.49946084215496,-1.9508228230761944 L18.365474240497704,-1.7622889199048188 L19.23311837145357,-1.5762710300285363 L20.102371305994716,-1.3927738549042488 L20.973211074432136,-1.2118020322797491 L21.845615666970737,-1.0333601360765243 L22.71956303426571,-0.8574526762741641 L23.595031087979933,-0.6840840987962906 L24.471997701341998,-0.5132587853983779 L25.350440709705644,-0.3449810535567508 L26.23033791110985,-0.17925515635970157 L27.111667066840006,-0.016085282399828316 L27.994405901989964,0.14452444433167955 L28.878532106025077,0.3025699645494626 L29.764023333345968,0.45804728377640913 L30.650857203853406,0.61095247244468 L31.539011303513902,0.7612816659950568 L32.42846318492617,0.9090310649745703 L33.31919036788854,1.0541969351325378 L34.21117033996705,1.1967756075149651 L35.104380557064566,1.336763478557259 L35.99879844399036,1.4741570101752899 L36.89440139503082,1.6089527298548774 L37.791166774520846,1.7411472307394433 L38.68907191741577,1.8707371717162147 L39.588094129864324,1.9977192775006642 L40.488210689782186,2.122090338719218 L41.38939884742625,2.2438472119904134 L42.29163582596962,2.3629868200043944 L43.19489882207727,2.479506151600617 L44.09916500648238,2.5934022618439343 L45.00441152456328,2.704672272099131 L45.910615496921274,2.8133133701036 L46.81775401995862,2.919322810038409 L47.72580416645753,3.0226979125977778 L48.634742986159786,3.1234360650567083 L49.54454750634652,3.221534721337065 L50.455194732418995,3.3169914020719347 L51.36666164847975,3.4098036946682413 L52.27892521791429,3.4999692533677944 L53.19196238397333,3.587485799306492 L54.10575007035555,3.6723511205719888 L55.02026518179078,3.7545630722595575 L55.93548460462375,3.834119576526348 L56.851385207397975,3.9110186226437804 " />
			<path d="M-47.291301525756296,-26.152385487115072 L-49.48333254743459,-24.886815786677097 " />
			<path d="M-50.04901797238383,-25.213414419048185 L-49.48333254743459,-24.886815786677094 " />
			<path d="M-50.04901797238383,-25.213414419048185 L-52.45318102841809,-23.825370231471048 " />
			<path d="M-47.644854916349566,-19.25298937827578 L-58.25145663414778,-13.129265021317837 " />
			<path d="M-58.25145663414778,-11.822870491833475 L-65.74678851472518,-16.150302370750428 " />
			<path d="M-65.74678851472518,-16.150302370750424 L-68.15095157075945,-14.762258183173287 " />
			<path d="M-68.15095157075945,-14.10906091843111 L-69.77729716748851,-13.170089850364223 " />
			<path d="M57.204938597991706,5.748135929731182 L57.204938597991706,7.544428407772181 " />
			<path d="M56.85138520739844,5.707311100684818 L56.85138520739844,3.9110186226438186 " />
			<path d="M-47.29130152575629,-24.356093009074076 L-47.29130152575629,-26.152385487115076 " />
			<path d="M-49.48333254743459,-24.886815786677097 L-49.48333254743459,-23.090523308636097 " />
			<path d="M-50.04901797238383,-25.213414419048185 L-50.04901797238383,-23.417121941007185 " />
			<path d="M-52.45318102841809,-23.825370231471048 L-52.45318102841809,-22.02907775343005 " />
			<path d="M-41.493025920026604,-15.701229251240173 L-41.493025920026604,-14.394834721755814 " />
			<path d="M-47.22059084763764,-19.008040403997462 L-47.22059084763764,-17.701645874513105 " />
			<path d="M-58.25145663414778,-13.129265021317838 L-58.25145663414778,-11.332972543276838 " />
			<path d="M-53.65526255643522,-8.679358655261733 L-53.65526255643522,-7.372964125777369 " />
			<path d="M-65.74678851472518,-16.150302370750424 L-65.74678851472518,-14.354009892709426 " />
			<path d="M-68.15095157075945,-14.76225818317329 L-68.15095157075945,-12.965965705132291 " />
			<path d="M-69.77729716748851,-13.170089850364224 L-69.77729716748851,-11.373797372323224 " />
			<path d="M47.58828637385465,8.734180568552596 L47.58828637385465,9.667319518184305 " />

       </g>
    </g>
    
</svg>
