<?xml version="1.0" encoding="UTF-8" standalone="no"?>
<svg
   xmlns:svg="http://www.w3.org/2000/svg"
   xmlns="http://www.w3.org/2000/svg"
   width="480.0"
   height="480.0"

>
    <g transform="scale(2.8318883215836808, -2.8318883215836808)   translate(86.89682374453562,-63.513756865874235)" stroke-width="0.3531212697825487"  fill="none">
       <!-- hidden lines -->
       <g  stroke="rgb(100,40,40)" fill="none" stroke-dasharray="0.3531212697825487,0.3531212697825487" >
			<path d="M53.55626760706912,20.34709479671893 L54.0512423538997,18.34667817344601 " />
			<path d="M53.55626760706912,20.34709479671893 L53.55626760706912,22.14338727475993 " />
			<path d="M37.123106012293746,16.950469020059572 L37.123106012293746,18.746761498100568 " />
			<path d="M37.12310601229376,16.950469020059607 L45.57727468816009,17.647757100171884 " />
			<path d="M56.82027250902622,5.686082189580667 L56.3846947318153,5.650156340019846 " />
			<path d="M56.85138520739842,3.764049238076833 L56.3846947318153,5.650156340019867 " />
			<path d="M-40.460650019494246,-16.836159498729714 L-52.55217597778421,-23.817205265661777 " />
			<path d="M-40.460650019494246,-16.836159498729717 L-41.52131019127407,-16.223787063033924 " />
			<path d="M-41.52131019127406,-16.22378706303392 L-47.248875118885096,-19.530598215791215 " />
			<path d="M-47.2488751188851,-19.530598215791215 L-47.74384986571569,-19.24482441246651 " />
			<path d="M-52.5521759777842,-9.855113731797656 L-58.27974090539524,-13.16192488455495 " />
			<path d="M-52.55217597778421,-9.855113731797658 L-53.61283614956403,-9.242741296101864 " />
			<path d="M-53.612836149564025,-9.242741296101862 L-58.27974090539525,-11.937180013163367 " />
			<path d="M-68.1792358420069,-14.7949180464104 L-67.61355041705767,-14.468319414039309 " />
			<path d="M-67.61355041705767,-14.46831941403931 L-68.1792358420069,-14.141720781668221 " />
			<path d="M-69.94700279497326,-13.121100055508592 L-69.17686652396895,-12.678691425798434 L-68.40288767091806,-12.238523731287799 L-67.62508579753163,-11.800608096871386 L-66.84348056214463,-11.364955590524872 L-66.05809171921894,-10.931577223025144 L-65.2689391188442,-10.500483947671952 L-64.47604270623611,-10.071686660011196 L-63.67942252123231,-9.645196197559443 L-62.87909869778585,-9.221023339530063 L-62.07509146345629,-8.79917880656079 L-61.26742113889867,-8.379673260442772 L-60.456108137349645,-7.9625173038510155 L-59.641172964111746,-7.547721480076618 L-58.82263621603502,-7.135296272760016 L-58.000518580996555,-6.725252105626282 L-57.17484083737759,-6.317599342221499 L-56.34562385353817,-5.912348285650921 L-55.512888587290064,-5.50950917831851 L-54.6766560853668,-5.109092201668105 L-53.83694748289176,-4.711107475926099 L-52.993784002844166,-4.315565059845596 L-52.147186955522415,-3.9224749504522975 L-51.297177738005814,-3.5318470827916997 L-50.44377783361344,-3.14369132967812 L-49.58700881136144,-2.7580175014450816 L-48.726892325417765,-2.3748353456973774 L-47.86345011455492,-1.9941545470647668 L-46.99670400160042,-1.6159847269571657 L-46.1266758928854,-1.2403354433214133 L-45.253387777690875,-0.8672161903998017 L-44.3768617276919,-0.4966363984900255 L-43.49711989639994,-0.12860543370696575 L-42.614184518602684,0.236867402254191 L-41.72807790980231,0.5997728723529008 L-40.83882246565135,0.9601018044368601 L-39.94644066138666,1.3178450914736572 L-39.05095505126147,1.67299369178113 L-38.1523882679752,2.025538629255763 L-37.250763022101566,2.3754709935995777 L-36.34610210151456,2.722781940545346 L-35.43842837081243,3.067462692080099 L-34.52776477073992,3.409504536667029 L-33.614134317608276,3.748898829465645 L-32.69756010271368,4.085636992550249 L-31.778065291753634,4.419710515126738 L-30.85567312424142,4.751110953747741 L-29.930406912918727,5.0798299325259535 L-29.00229004316644,5.405859143345893 L-28.071345972413653,5.729190346073906 L-27.137598229544707,6.049815368766346 L-26.20107041430458,6.367726107876123 L-25.261786196702445,6.682914528457616 L-24.319769316413343,6.995372664369626 L-23.375043582178265,7.3050926184767775 L-22.42763287120239,7.612066562849094 L-21.477561128551486,7.916286738959926 L-20.52485236654691,8.217745457881847 L-19.56953066415865,8.51643510048116 L-18.61162016639659,8.81234811761044 L-17.651145083700527,9.10547703029927 L-16.688129691328058,9.395814429943286 L-15.722598328741185,9.683352978491456 L-14.754575398991065,9.968085408631524 L-13.784085368101259,10.250004523973686 L-12.811152764449375,10.529103199232452 L-11.83580217814719,10.805374380406775 L-10.858058260419028,11.078811084958332 L-9.87794572297885,11.349406401987906 L-8.89548933740565,11.61715349241021 L-7.9107139345172754,11.882045589126648 L-6.92364440374304,12.144075997196296 L-5.934305692494391,12.40323809400526 L-4.9427228055346575,12.659525329433947 L-3.948920804346983,12.912931226022593 L-2.9529248065007465,13.163449379135102 L-1.9547599850169917,13.41107345712075 L-0.954451567732093,13.6557972014744 L0.04797516333991325,13.897614426994494 L1.0524948726462497,14.13651902193952 L2.059082171735753,14.372504948182396 L3.067711619900521,14.60556624136315 L4.078357724818943,14.8356970110396 L5.090994943200002,15.062891440836268 L6.105597681428819,15.28714378859138 L7.12214029621353,15.50844838650194 L8.140597095233431,15.726799641267078 L9.160942337788256,15.942192034229393 L10.183150235448906,16.1546201215143 L11.207194952709045,16.364078534167845 L12.233050607638134,16.57056197829219 L13.260691272535695,16.774065235179563 L14.290090974586448,16.974583161444045 L15.321223696516839,17.17211068915168 L16.354063377252558,17.366642825948432 L17.388583912577317,17.558174655186505 L18.424759155792458,17.746701336048417 L19.462562918377948,17.932218103669626 L20.501968970654126,18.11472026925867 L21.54295104244477,18.294203220215834 L22.585482823740982,18.470662420249695 L23.62953796536614,18.644093409491802 L24.675090079641905,18.814491804609332 L25.722112741055078,18.981853298915922 L26.770579486925655,19.146173662480507 L27.820463818075375,19.307448742234214 L28.871739199497668,19.46567446207537 L29.924379061028326,19.620846822972467 L30.978356798016883,19.77296190306525 L32.03364577199913,19.92201585776388 L33.0902193113704,20.06800491984606 L34.14805071205961,20.210925399552238 L35.207113238204215,20.350773684678913 L36.267380122825955,20.487546240669914 L37.32882456850734,20.621239610705658 L38.391419748068905,20.751850415790656 L39.45513880524741,20.879375354838814 L40.51995485537435,21.00381120475687 L41.58584098605558,21.125154820525893 L42.65277025785166,21.243403135280786 L43.72071570495841,21.358553160387714 L44.78965033588867,21.47060198551972 L45.85954713415445,21.57954677873029 L46.93037905894969,21.685384786524807 L48.002119045833766,21.788113333930312 L49.0747400074155,21.88772982456298 L50.148214834037745,21.984231740693815 L51.222516394462545,22.07761664331224 L52.29761753655656,22.16788217218773 " />
			<path d="M52.76430801214018,20.28177507024472 L52.29761753655705,22.167882172187785 " />
			<path d="M53.55626760706912,20.34709479671893 L52.76430801214017,20.281775070244713 " />
			<path d="M37.123106012293746,16.950469020059593 L37.335238046649714,16.093147610085484 " />
			<path d="M37.33523804664971,16.093147610085484 L45.35382894530516,16.754509840636945 " />
			<path d="M45.35382894530514,16.754509840636945 L47.56000210260717,7.838367176906175 " />
			<path d="M39.54141120395174,7.177004946354723 L47.56000210260719,7.838367176906183 " />
			<path d="M39.54141120395174,7.177004946354721 L39.75354323830771,6.319683536380598 " />
			<path d="M39.75354323830772,6.319683536380602 L56.68167957991368,7.715892689767017 " />
			<path d="M56.68167957991366,7.71589268976701 L57.17665432674424,5.715476066494077 " />
			<path d="M52.76430801214017,22.078067548285716 L52.76430801214017,20.281775070244716 " />
			<path d="M56.3846947318153,7.446448818060864 L56.3846947318153,5.650156340019865 " />
			<path d="M-40.460650019494246,-16.836159498729717 L-40.460650019494246,-15.039867020688718 " />
			<path d="M-41.52131019127407,-16.22378706303392 L-41.52131019127407,-15.652239456384512 " />
			<path d="M-47.24887511888511,-19.530598215791212 L-47.24887511888511,-18.959050609141805 " />
			<path d="M-52.5521759777842,-9.855113731797658 L-52.5521759777842,-8.058821253756658 " />
			<path d="M-53.61283614956403,-9.242741296101865 L-53.61283614956403,-8.671193689452457 " />
			<path d="M-67.61355041705767,-14.468319414039312 L-67.61355041705767,-12.672026935998314 " />
			<path d="M52.29761753655703,22.16788217218777 L52.29761753655703,23.96417465022877 " />
			<path d="M37.33523804664971,16.093147610085484 L37.33523804664971,17.88944008812648 " />
			<path d="M45.35382894530516,16.754509840636956 L45.35382894530516,18.550802318677956 " />
			<path d="M47.560002102607186,7.8383671769061944 L47.560002102607186,8.759841889667465 " />
			<path d="M39.541411203951746,7.177004946354719 L39.541411203951746,8.973297424395719 " />
			<path d="M39.75354323830772,6.319683536380591 L39.75354323830772,8.115976014421591 " />
			<path d="M56.68167957991366,7.715892689767017 L56.68167957991366,9.512185167808017 " />

       </g>

       <!-- solid lines -->
       <g  stroke="rgb(200,20,20)" fill="none">
			<path d="M53.55626760706913,22.143387274759924 L54.05124235389972,20.142970651486998 " />
			<path d="M54.0512423538997,18.346678173446016 L54.0512423538997,20.142970651487012 " />
			<path d="M57.176654326744256,7.511768544535078 L56.3846947318153,7.446448818060858 " />
			<path d="M56.3846947318153,7.446448818060862 L56.85138520739842,5.560341716117826 " />
			<path d="M-47.17816444076644,-24.470402530403973 L-46.52278239431715,-24.09391503848498 L-45.864130330105866,-23.71933457101386 L-45.20222489504911,-23.346670595219422 L-44.537082818289875,-22.975932529892617 L-43.86872091077467,-22.607129745148512 L-43.19715606482876,-22.240271562189463 L-42.52240525372915,-21.87536725306954 L-41.84448553127565,-21.512426040460213 L-41.163414031359835,-21.151457097417165 L-40.47920796753196,-20.792469547148542 L-39.79188463256598,-20.435472462784332 L-39.10146139802242,-20.080474867147032 L-38.40795571380933,-19.727485732523647 L-37.71138510774125,-19.376513980438858 L-37.0117671850963,-19.027568481429626 L-36.30911962817113,-18.680658054820938 L-35.60346019583395,-18.33579146850289 L-34.89480672307583,-17.992977438709133 L-34.18317712055992,-17.65222462979655 L-33.46858937416863,-17.31354165402628 L-32.751061544549216,-16.97693707134603 L-32.03061176665719,-16.642419389173753 L-31.307258249298073,-16.309997062182617 L-30.58101927466707,-15.979678492087345 L-29.851913197887157,-15.651472027431836 L-29.119958446544985,-15.325385963378153 L-28.385173520225322,-15.001428541496907 L-27.64757699004332,-14.67960794955897 L-26.907187498175247,-14.359932321328458 L-26.164023757387312,-14.042409736357214 L-25.41810455056263,-13.727048219780599 L-24.669448730226705,-13.413855742114677 L-23.918075218070697,-13.102840219054713 L-23.164003004473344,-12.794009511275206 L-22.407251148020947,-12.487371424231057 L-21.64783877502569,-12.182933707960487 L-20.88578507904225,-11.880704056889016 L-20.1211093203826,-11.580690109635043 L-19.353830825629444,-11.282899448816764 L-18.583968987147486,-10.987339600860608 L-17.811543262593474,-10.694018035810913 L-17.03657317442439,-10.402942167141134 L-16.25907830940399,-10.114119351566558 L-15.479078318107753,-9.827556888858282 L-14.696592914426347,-9.543262021658762 L-13.911641875067275,-9.261241935298742 L-13.124245039055054,-8.981503757615656 L-12.334422307229758,-8.704054558773521 L-11.542193641744163,-8.428901351084107 L-10.747579065559066,-8.15605108882987 L-9.95059866193732,-7.885510668088145 L-9.151272573936225,-7.617286926556744 L-8.349621003898449,-7.351386643381275 L-7.5456642129413325,-7.087816538983745 L-6.739422520444975,-6.826583274892727 L-5.930916303538453,-6.567693453574918 L-5.120165996585001,-6.311153618268378 L-4.3071920906655095,-6.056970252817138 L-3.492015133060491,-5.805149781507211 L-2.6746557267309896,-5.555698568904376 L-1.8551345297976383,-5.308622919693192 L-1.0334722550187223,-5.0639290785177735 L-0.2096896692665382,-4.821623229823842 L0.6161924069973992,-4.581711497702486 L1.4441531002485846,-4.3441999457354115 L2.274171484427086,-4.109094576841571 L3.1062265814664443,-3.876401333125557 L3.9402973618239088,-3.6461260957274106 L4.776362745011852,-3.4182746846739036 L5.614401600130648,-3.192852858731513 L6.454392746402661,-2.9698663152608447 L7.296314953707736,-2.7493206900726506 L8.14014694311956,-2.531221557285363 L8.985867387443548,-2.315574429184238 L9.833454911756007,-2.1023847560820172 L10.682888093944172,-1.8916579261812245 L11.534145465247704,-1.6833992654378847 L12.387205510801351,-1.4776140374270312 L13.242046670178652,-1.2743074432095938 L14.098647337936896,-1.0734846212009614 L14.956985864163187,-0.8751506470411243 L15.817040555021578,-0.679310533466392 L16.678789673301438,-0.48596923018268967 L17.542211438966774,-0.29513162374047397 L18.407284029706744,-0.10680253741121248 L19.273985581487217,0.0790132689345171 L20.142294189103275,0.26231109894732185 L21.012187906733054,0.44308631991768266 L21.883644748492145,0.6213343628930943 L22.756642688989402,0.7970507227934434 L23.63115966388373,0.9702309585250077 L24.507173570441495,1.1408706930925092 L25.384662268095347,1.3089656137099723 L26.26360357900372,1.4745114719095227 L27.143975288611415,1.6375040836489063 L28.02575514621097,1.7979393294171047 L28.908920865505145,1.955813154338614 L29.793450125170068,2.1111215682758058 L30.67932056941948,2.2638606459297677 L31.566509808569755,2.414026526939608 L32.454995419605694,2.561615415979986 L33.34475494674735,2.706623582856949 L34.23576590201752,2.849047362602363 L35.1280057658102,2.988883155566384 L36.0214519874596,3.126127427508578 L36.91608198581017,3.26077670968715 L37.811873149787445,3.3928275989466385 L38.708802838969284,3.5222767578039367 L39.606848384158255,3.6491209145326593 L40.50598708795453,3.773356863245823 L41.406196225329566,3.894981463976805 L42.30745304420043,4.013991642758839 L43.209734766004864,4.130384391702577 L44.11301858627699,4.244156769072205 L45.01728167522364,4.355305899359706 L45.92250117830151,4.46382897335765 L46.82865421679454,4.569723248230076 L47.735717888392315,4.6729860475818725 L48.643669267768985,4.77361476152646 L49.552485407162465,4.8716068467516465 L50.46214333695458,4.966959826584031 L51.37262006625155,5.059671291051515 L52.28389258346509,5.149738896944214 L53.19593785689398,5.2371603678737415 L54.1087328353062,5.321933494330693 L55.022254448521515,5.404056133740497 L55.93647960799454,5.4835262105175815 L56.85138520739801,5.56034171611779 " />
			<path d="M-49.51161681868206,-23.12318317187321 L-47.17816444076645,-24.470402530403963 " />
			<path d="M-50.077302243631294,-23.449781804244296 L-49.51161681868206,-23.123183171873205 " />
			<path d="M-50.077302243631294,-23.449781804244296 L-52.55217597778421,-22.020912787620773 " />
			<path d="M-52.55217597778421,-22.020912787620777 L-40.460650019494246,-15.039867020688716 " />
			<path d="M-41.52131019127407,-14.427494584992923 L-40.460650019494246,-15.039867020688718 " />
			<path d="M-47.248875118885096,-17.734305737750216 L-41.52131019127406,-14.427494584992923 " />
			<path d="M-58.27974090539524,-11.365632406513951 L-47.2488751188851,-17.734305737750216 " />
			<path d="M-58.27974090539524,-11.365632406513951 L-52.5521759777842,-8.058821253756658 " />
			<path d="M-53.61283614956403,-7.446448818060864 L-52.55217597778421,-8.058821253756658 " />
			<path d="M-65.704362107854,-14.427494584992923 L-53.612836149564025,-7.446448818060862 " />
			<path d="M-65.704362107854,-14.42749458499292 L-68.17923584200692,-12.998625568369398 " />
			<path d="M-68.1792358420069,-12.998625568369402 L-67.61355041705767,-12.67202693599831 " />
			<path d="M-69.94700279497329,-11.324807577467567 L-67.61355041705768,-12.672026935998316 " />
			<path d="M-69.94700279497326,-11.324807577467595 L-69.17686652396895,-10.882398947757437 L-68.40288767091806,-10.442231253246803 L-67.62508579753163,-10.00431561883039 L-66.84348056214463,-9.568663112483875 L-66.05809171921894,-9.135284744984148 L-65.2689391188442,-8.704191469630956 L-64.47604270623611,-8.2753941819702 L-63.67942252123231,-7.848903719518447 L-62.87909869778585,-7.424730861489067 L-62.07509146345629,-7.002886328519793 L-61.26742113889867,-6.583380782401775 L-60.456108137349645,-6.166224825810019 L-59.641172964111746,-5.751429002035621 L-58.82263621603502,-5.339003794719019 L-58.000518580996555,-4.928959627585286 L-57.17484083737759,-4.521306864180502 L-56.34562385353817,-4.116055807609925 L-55.512888587290064,-3.7132167002775134 L-54.6766560853668,-3.3127997236271085 L-53.83694748289176,-2.9148149978851023 L-52.993784002844166,-2.5192725818046 L-52.147186955522415,-2.126182472411301 L-51.297177738005814,-1.7355546047507033 L-50.44377783361344,-1.3473988516371236 L-49.58700881136144,-0.9617250234040853 L-48.726892325417765,-0.5785428676563811 L-47.86345011455492,-0.19786206902377046 L-46.99670400160042,0.18030775108383068 L-46.1266758928854,0.555957034719583 L-45.253387777690875,0.9290762876411947 L-44.3768617276919,1.2996560795509708 L-43.49711989639994,1.6676870443340306 L-42.614184518602684,2.0331598802951873 L-41.72807790980231,2.396065350393897 L-40.83882246565135,2.7563942824778564 L-39.94644066138666,3.1141375695146536 L-39.05095505126147,3.4692861698221265 L-38.1523882679752,3.8218311072967595 L-37.250763022101566,4.171763471640574 L-36.34610210151456,4.519074418586342 L-35.43842837081243,4.863755170121095 L-34.52776477073992,5.2057970147080255 L-33.614134317608276,5.5451913075066415 L-32.69756010271368,5.8819294705912455 L-31.778065291753634,6.216002993167734 L-30.85567312424142,6.547403431788737 L-29.930406912918727,6.87612241056695 L-29.00229004316644,7.202151621386889 L-28.071345972413653,7.525482824114903 L-27.137598229544707,7.846107846807342 L-26.20107041430458,8.16401858591712 L-25.261786196702445,8.479207006498612 L-24.319769316413343,8.791665142410622 L-23.375043582178265,9.101385096517774 L-22.42763287120239,9.40835904089009 L-21.477561128551486,9.712579217000922 L-20.52485236654691,10.014037935922843 L-19.56953066415865,10.312727578522157 L-18.61162016639659,10.608640595651437 L-17.651145083700527,10.901769508340266 L-16.688129691328058,11.192106907984282 L-15.722598328741185,11.479645456532452 L-14.754575398991065,11.76437788667252 L-13.784085368101259,12.046297002014683 L-12.811152764449375,12.325395677273448 L-11.83580217814719,12.601666858447771 L-10.858058260419028,12.875103562999328 L-9.87794572297885,13.145698880028903 L-8.89548933740565,13.413445970451207 L-7.9107139345172754,13.678338067167644 L-6.92364440374304,13.940368475237293 L-5.934305692494391,14.199530572046257 L-4.9427228055346575,14.455817807474943 L-3.948920804346983,14.70922370406359 L-2.9529248065007465,14.959741857176098 L-1.9547599850169917,15.207365935161747 L-0.954451567732093,15.452089679515396 L0.04797516333991325,15.69390690503549 L1.0524948726462497,15.932811499980517 L2.059082171735753,16.168797426223392 L3.067711619900521,16.401858719404146 L4.078357724818943,16.631989489080595 L5.090994943200002,16.859183918877264 L6.105597681428819,17.083436266632376 L7.12214029621353,17.304740864542936 L8.140597095233431,17.523092119308075 L9.160942337788256,17.73848451227039 L10.183150235448906,17.950912599555295 L11.207194952709045,18.16037101220884 L12.233050607638134,18.366854456333186 L13.260691272535695,18.57035771322056 L14.290090974586448,18.77087563948504 L15.321223696516839,18.968403167192676 L16.354063377252558,19.16293530398943 L17.388583912577317,19.3544671332275 L18.424759155792458,19.542993814089414 L19.462562918377948,19.728510581710623 L20.501968970654126,19.911012747299665 L21.54295104244477,20.09049569825683 L22.585482823740982,20.26695489829069 L23.62953796536614,20.4403858875328 L24.675090079641905,20.61078428265033 L25.722112741055078,20.77814577695692 L26.770579486925655,20.942466140521503 L27.820463818075375,21.10374122027521 L28.871739199497668,21.261966940116366 L29.924379061028326,21.417139301013464 L30.978356798016883,21.569254381106248 L32.03364577199913,21.718308335804878 L33.0902193113704,21.864297397887057 L34.14805071205961,22.007217877593234 L35.207113238204215,22.14706616271991 L36.267380122825955,22.28383871871091 L37.32882456850734,22.417532088746654 L38.391419748068905,22.548142893831653 L39.45513880524741,22.67566783287981 L40.51995485537435,22.800103682797868 L41.58584098605558,22.92144729856689 L42.65277025785166,23.039695613321783 L43.72071570495841,23.15484563842871 L44.78965033588867,23.266894463560718 L45.85954713415445,23.375839256771286 L46.93037905894969,23.481677264565803 L48.002119045833766,23.58440581197131 L49.0747400074155,23.684022302603978 L50.148214834037745,23.78052421873481 L51.222516394462545,23.873909121353236 L52.29761753655656,23.964174650228728 " />
			<path d="M52.29761753655705,23.964174650228777 L52.76430801214018,22.078067548285713 " />
			<path d="M53.55626760706913,22.143387274759924 L52.764308012140184,22.078067548285706 " />
			<path d="M37.12310601229376,18.746761498100604 L54.05124235389972,20.14297065148702 " />
			<path d="M37.123106012293746,18.74676149810059 L37.335238046649714,17.88944008812648 " />
			<path d="M37.33523804664971,17.889440088126484 L45.35382894530516,18.550802318677945 " />
			<path d="M45.35382894530514,18.550802318677945 L47.56000210260717,9.634659654947175 " />
			<path d="M39.54141120395174,8.97329742439572 L47.56000210260719,9.63465965494718 " />
			<path d="M39.54141120395174,8.973297424395717 L39.75354323830771,8.115976014421594 " />
			<path d="M39.75354323830772,8.115976014421602 L56.68167957991368,9.512185167808017 " />
			<path d="M56.68167957991368,9.512185167808003 L57.176654326744256,7.5117685445350695 " />
			<path d="M45.57727468816009,17.647757100171884 L54.05124235389972,18.346678173446023 " />
			<path d="M57.176654326744256,5.715476066494066 L56.82027250902622,5.686082189580667 " />
			<path d="M-47.17816444076644,-26.26669500844497 L-46.52278239431715,-25.890207516525976 L-45.864130330105866,-25.515627049054856 L-45.20222489504911,-25.142963073260418 L-44.537082818289875,-24.772225007933613 L-43.86872091077467,-24.40342222318951 L-43.19715606482876,-24.03656404023046 L-42.52240525372915,-23.671659731110537 L-41.84448553127565,-23.30871851850121 L-41.163414031359835,-22.94774957545816 L-40.47920796753196,-22.58876202518954 L-39.79188463256598,-22.23176494082533 L-39.10146139802242,-21.87676734518803 L-38.40795571380933,-21.523778210564643 L-37.71138510774125,-21.172806458479855 L-37.0117671850963,-20.823860959470622 L-36.30911962817113,-20.476950532861935 L-35.60346019583395,-20.132083946543887 L-34.89480672307583,-19.78926991675013 L-34.18317712055992,-19.448517107837546 L-33.46858937416863,-19.109834132067277 L-32.751061544549216,-18.773229549387025 L-32.03061176665719,-18.43871186721475 L-31.307258249298073,-18.106289540223614 L-30.58101927466707,-17.77597097012834 L-29.851913197887157,-17.447764505472833 L-29.119958446544985,-17.12167844141915 L-28.385173520225322,-16.797721019537903 L-27.64757699004332,-16.475900427599967 L-26.907187498175247,-16.156224799369454 L-26.164023757387312,-15.83870221439821 L-25.41810455056263,-15.523340697821595 L-24.669448730226705,-15.210148220155673 L-23.918075218070697,-14.899132697095709 L-23.164003004473344,-14.590301989316202 L-22.407251148020947,-14.283663902272053 L-21.64783877502569,-13.979226186001483 L-20.88578507904225,-13.676996534930012 L-20.1211093203826,-13.37698258767604 L-19.353830825629444,-13.07919192685776 L-18.583968987147486,-12.783632078901604 L-17.811543262593474,-12.49031051385191 L-17.03657317442439,-12.19923464518213 L-16.25907830940399,-11.910411829607554 L-15.479078318107753,-11.623849366899279 L-14.696592914426347,-11.339554499699759 L-13.911641875067275,-11.057534413339738 L-13.124245039055054,-10.777796235656652 L-12.334422307229758,-10.500347036814517 L-11.542193641744163,-10.225193829125104 L-10.747579065559066,-9.952343566870866 L-9.95059866193732,-9.681803146129141 L-9.151272573936225,-9.41357940459774 L-8.349621003898449,-9.147679121422271 L-7.5456642129413325,-8.884109017024741 L-6.739422520444975,-8.622875752933723 L-5.930916303538453,-8.363985931615915 L-5.120165996585001,-8.107446096309374 L-4.3071920906655095,-7.853262730858134 L-3.492015133060491,-7.601442259548207 L-2.6746557267309896,-7.351991046945372 L-1.8551345297976383,-7.104915397734189 L-1.0334722550187223,-6.86022155655877 L-0.2096896692665382,-6.617915707864839 L0.6161924069973992,-6.378003975743482 L1.4441531002485846,-6.140492423776408 L2.274171484427086,-5.905387054882567 L3.1062265814664443,-5.672693811166553 L3.9402973618239088,-5.442418573768407 L4.776362745011852,-5.2145671627149 L5.614401600130648,-4.989145336772509 L6.454392746402661,-4.766158793301841 L7.296314953707736,-4.545613168113647 L8.14014694311956,-4.3275140353263595 L8.985867387443548,-4.1118669072252345 L9.833454911756007,-3.8986772341230136 L10.682888093944172,-3.687950404222221 L11.534145465247704,-3.479691743478881 L12.387205510801351,-3.2739065154680276 L13.242046670178652,-3.07059992125059 L14.098647337936896,-2.869777099241958 L14.956985864163187,-2.6714431250821207 L15.817040555021578,-2.4756030115073884 L16.678789673301438,-2.282261708223686 L17.542211438966774,-2.0914241017814703 L18.407284029706744,-1.9030950154522088 L19.273985581487217,-1.7172792091064792 L20.142294189103275,-1.5339813790936745 L21.012187906733054,-1.3532061581233137 L21.883644748492145,-1.174958115147902 L22.756642688989402,-0.999241755247553 L23.63115966388373,-0.8260615195159886 L24.507173570441495,-0.6554217849484871 L25.384662268095347,-0.487326864331024 L26.26360357900372,-0.32178100613147365 L27.143975288611415,-0.15878839439209003 L28.02575514621097,0.0016468513761083159 L28.908920865505145,0.15952067629761757 L29.793450125170068,0.31482909023480943 L30.67932056941948,0.4675681678887713 L31.566509808569755,0.6177340488986118 L32.454995419605694,0.7653229379389899 L33.34475494674735,0.9103311048159526 L34.23576590201752,1.0527548845613666 L35.1280057658102,1.1925906775253878 L36.0214519874596,1.3298349494675819 L36.91608198581017,1.4644842316461535 L37.811873149787445,1.5965351209056422 L38.708802838969284,1.7259842797629403 L39.606848384158255,1.852828436491663 L40.50598708795453,1.9770643852048266 L41.406196225329566,2.0986889859358087 L42.30745304420043,2.2176991647178426 L43.209734766004864,2.334091913661581 L44.11301858627699,2.447864291031209 L45.01728167522364,2.55901342131871 L45.92250117830151,2.6675364953166536 L46.82865421679454,2.77343077018908 L47.735717888392315,2.876693569540876 L48.643669267768985,2.9773222834854636 L49.552485407162465,3.07531436871065 L50.46214333695458,3.1706673485430343 L51.37262006625155,3.263378813010519 L52.28389258346509,3.353446418903218 L53.19593785689398,3.440867889832745 L54.1087328353062,3.525641016289697 L55.022254448521515,3.6077636556995003 L55.93647960799454,3.687233732476585 L56.85138520739801,3.764049238076794 " />
			<path d="M-47.178164440766444,-26.266695008444955 L-49.51161681868205,-24.919475649914208 " />
			<path d="M-50.077302243631294,-25.246074282285296 L-49.51161681868206,-24.919475649914204 " />
			<path d="M-50.077302243631294,-25.246074282285296 L-52.55217597778421,-23.817205265661773 " />
			<path d="M-47.74384986571569,-19.24482441246651 L-58.27974090539524,-13.161924884554951 " />
			<path d="M-58.27974090539525,-11.937180013163367 L-65.704362107854,-16.223787063033924 " />
			<path d="M-65.704362107854,-16.223787063033917 L-68.17923584200692,-14.794918046410398 " />
			<path d="M-68.1792358420069,-14.141720781668221 L-69.94700279497329,-13.12110005550856 " />
			<path d="M57.176654326744256,5.715476066494066 L57.176654326744256,7.511768544535065 " />
			<path d="M56.85138520739843,5.560341716117826 L56.85138520739843,3.7640492380768267 " />
			<path d="M-47.17816444076645,-24.470402530403952 L-47.17816444076645,-26.26669500844495 " />
			<path d="M-49.51161681868206,-24.919475649914208 L-49.51161681868206,-23.123183171873208 " />
			<path d="M-50.077302243631294,-25.246074282285296 L-50.077302243631294,-23.449781804244296 " />
			<path d="M-52.55217597778421,-23.817205265661773 L-52.55217597778421,-22.020912787620777 " />
			<path d="M-41.52131019127407,-15.652239456384512 L-41.52131019127407,-14.427494584992921 " />
			<path d="M-47.24887511888511,-18.959050609141805 L-47.24887511888511,-17.734305737750212 " />
			<path d="M-58.27974090539525,-13.16192488455495 L-58.27974090539525,-11.36563240651395 " />
			<path d="M-53.61283614956403,-8.671193689452457 L-53.61283614956403,-7.4464488180608654 " />
			<path d="M-65.704362107854,-16.223787063033917 L-65.704362107854,-14.42749458499292 " />
			<path d="M-68.1792358420069,-14.7949180464104 L-68.1792358420069,-12.998625568369402 " />
			<path d="M-69.94700279497329,-13.121100055508565 L-69.94700279497329,-11.324807577467567 " />
			<path d="M47.560002102607186,8.759841889667465 L47.560002102607186,9.634659654947194 " />

       </g>
    </g>
    
</svg>
