<?xml version="1.0" encoding="UTF-8" standalone="no"?>
<svg
   xmlns:svg="http://www.w3.org/2000/svg"
   xmlns="http://www.w3.org/2000/svg"
   width="480.0"
   height="480.0"

>
    <g transform="scale(2.7225501735524817, -2.7225501735524817)   translate(91.16963432098555,-66.08187172837275)" stroke-width="0.3673026891163456"  fill="none">
       <!-- hidden lines -->
       <g  stroke="rgb(100,40,40)" fill="none" stroke-dasharray="0.3673026891163456,0.3673026891163456" >
			<path d="M53.74011537017763,23.2293277273938 L53.74011537017763,24.94397054734203 " />
			<path d="M53.74011537017763,23.2293277273938 L58.689862838483464,3.2251614946645084 " />
			<path d="M53.74011537017761,23.229327727393816 L48.79036790187178,22.821079436929953 " />
			<path d="M48.790367901871804,22.821079436929942 L48.790367901871804,24.52732871049443 " />
			<path d="M30.714487033830416,0.6872631167116121 L21.27805686327364,19.29017704579803 " />
			<path d="M48.790367901871804,22.821079436929942 L48.792399885027216,22.812867274777588 " />
			<path d="M21.27805686327362,19.290177045798032 L22.124809572395655,19.431301054898057 L22.972545793932184,19.570442957206268 L23.821251608601372,19.707600468102427 L24.670913081201135,19.842771335548647 L25.521516260838254,19.97595334012651 L26.37304718115727,20.107144295073383 L27.22549186056969,20.23634204631844 L28.078836302483843,20.363544472517944 L28.93306649553446,20.48874948509011 L29.78816841381284,20.61195502824941 L30.644128017097138,20.73315907904029 L31.500931251082754,20.85235964737042 L32.35856404761334,20.96955477604338 L33.21701232491168,21.084742540790785 L34.07626198781073,21.197921050303776 L34.936298927985376,21.30908844626427 L35.79710902418387,21.418242903375358 L36.658678142459706,21.52538262939123 L37.52099213640383,21.630505865146745 L38.384036847376606,21.733610884586156 L39.24779810474069,21.834695994791545 L40.11226172609347,21.933759536010655 L40.97741351749986,22.03079988168399 L41.843239273725594,22.125815438471705 L42.70972477847027,22.218804646279665 L43.576855804600875,22.30976597828503 L44.444618114385385,22.398697940961426 L45.31299745972637,22.485599074103376 L46.18197958239518,22.570467950850357 L47.05155021426601,22.653303177710157 L47.92169507754993,22.73410339458178 L48.79239988502918,22.812867274777744 " />
			<path d="M36.24629360362242,17.179088062719362 L44.68066328961555,17.874743149669786 " />
			<path d="M36.246293603622426,17.179088062719366 L36.50085204484959,16.150302370750424 " />
			<path d="M36.500852044849566,16.150302370750428 L44.51944294350501,16.81166460130189 " />
			<path d="M44.51944294350502,16.81166460130189 L46.72561610080705,7.895521937571116 " />
			<path d="M38.707025202151605,7.2341597070196615 L46.72561610080706,7.895521937571122 " />
			<path d="M38.70702520215161,7.234159707019661 L38.96158364337877,6.205374015050722 " />
			<path d="M38.96158364337877,6.205374015050725 L55.691730086252484,7.585253236818586 " />
			<path d="M55.275951298914784,9.265603200367845 L55.69173008625248,7.585253236818579 " />
			<path d="M48.79239988502717,22.812867274777556 L48.79239988502717,24.527510094725784 " />
			<path d="M-69.9934114216911,-11.477642792143417 L-69.9934114216911,-9.76299997219519 " />
			<path d="M21.278056863273644,19.290177045798014 L21.278056863273644,20.14749845577213 " />
			<path d="M21.27805686327354,20.147498455772123 L20.51030444552636,20.01768291350521 " />
			<path d="M20.51030444552575,19.160361503530964 L20.51030444552575,20.01768291350508 " />
			<path d="M6.513560303826907,16.47658866630701 L7.378845209097136,16.66032884587915 L8.245471346446465,16.841949757045953 L9.113423144324841,17.02144813644047 L9.982685007362917,17.198820758833435 L10.85324131665196,17.374064437191237 L11.725076430024686,17.54717602273314 L12.598174682336179,17.718152404987833 L13.472520385745455,17.886990511849447 L14.3480978299973,18.053687309632622 L15.224891282704576,18.218239803127076 L16.102884989630937,18.38064503565147 L16.982063174973717,18.54090008910636 L17.86241004164762,18.69900208402686 L18.743909771568553,18.85494817963422 L19.62654652593752,19.00873557388691 L20.51030444552523,19.160361503530908 " />
			<path d="M6.513560303826964,16.476588666306995 L6.513560303826964,17.33391007628111 " />
			<path d="M6.5135603038268926,17.333910076281114 L5.763832430008833,17.17275992350524 " />
			<path d="M5.763832430008206,16.315438513530978 L5.763832430008206,17.172759923505094 " />
			<path d="M-7.865069133511994,13.061220805923497 L-7.024730410096069,13.280180587606324 L-6.182791650963125,13.49708183543261 L-5.3392679840799815,13.711920652117826 L-4.494174565891086,13.924693177435273 L-3.6475265810461934,14.135395588285405 L-2.7993392421275303,14.344024098764507 L-1.9496277893764216,14.550574960232723 L-1.0984074904196177,14.755044461381416 L-0.2456936399947125,14.957428928299876 L0.608498440324567,15.157724724541367 L1.4641534024034684,15.355928251188303 L2.3212558718223306,15.552035946917115 L3.179790448152602,15.746044288062095 L4.039741705233624,15.937949788678822 L4.901094191449786,16.127749000606713 L5.76383243000771,16.315438513530893 " />
			<path d="M-7.865069133511966,13.061220805923472 L-7.865069133511966,13.918542215897586 " />
			<path d="M-7.865069133512421,13.918542215897489 L-8.592941286453751,13.726880944404812 " />
			<path d="M-8.592941286454412,12.869559534430508 L-8.592941286454412,13.726880944404622 " />
			<path d="M-21.78435535754302,9.061526301963113 L-20.973257022529353,9.31458678155522 L-20.160308024487335,9.565659981132939 L-19.345522970495296,9.814741389409676 L-18.528916500622003,10.061826530887373 L-17.710503287663286,10.306910965936922 L-16.890298036878576,10.549990290877986 L-16.068315485726828,10.791060138057972 L-15.244570403601358,11.030116175930686 L-14.419077591564758,11.267154109134069 L-13.591851882082821,11.502169678567398 L-12.762908138758078,11.735158661467779 L-11.93226125606273,11.966116871486108 L-11.099926159070975,12.195040158762154 L-10.265917803190902,12.421924409999292 L-9.430251173895655,12.64676554853827 L-8.592941286454874,12.869559534430394 " />
			<path d="M-21.784355357542978,9.061526301963108 L-21.784355357542978,9.918847711937222 " />
			<path d="M-21.78435535754309,9.918847711937204 L-22.486652297363094,9.697654728083648 " />
			<path d="M-22.486652297363726,8.840333318109327 L-22.486652297363726,9.69765472808344 " />
			<path d="M-35.1731695622491,4.497943953507971 L-34.395456401167905,4.783811969170898 L-33.6156514068017,5.067774113841409 L-32.83376859069698,5.349825285283927 L-32.04982200173461,5.629960415599243 L-31.263825725877254,5.908174471315618 L-30.47579388591646,6.184462453479213 L-29.68574064121873,6.458819397743909 L-28.893680187471347,6.731240374460455 L-28.099626756427014,7.0017204887651445 L-27.303594615648308,7.270254880667707 L-26.505598068251345,7.53683872513858 L-25.705651452648652,7.801467232195748 L-24.903769142291665,8.064135646990678 L-24.09996554541236,8.324839249893785 L-23.294255104764446,8.58357335657928 L-22.486652297364216,8.840333318109188 " />
			<path d="M-35.17316956224905,4.4979439535079875 L-35.17316956224905,5.3552653634821015 " />
			<path d="M-35.17316956224914,5.355265363482047 L-35.846302488344165,5.105670983333354 " />
			<path d="M-35.846302488344755,4.248349573359022 L-35.846302488344755,5.105670983333136 " />
			<path d="M-47.96309370140021,-0.606205922697086 L-47.222739898536545,-0.28899118226537723 L-46.4800637815877,0.02640883536827232 L-45.73507869496804,0.3399884630921832 L-44.98779802457945,0.6517420665034308 L-44.23823519757097,0.9616640440091402 L-43.486403682097375,1.2697488269270707 L-42.73231698707737,1.5759908795858024 L-41.97598866195062,1.8803846994240274 L-41.21743229643461,2.182924817089585 L-40.456661520280136,2.4836057965375886 L-39.69369000302662,2.7824222351282373 L-38.92853145375642,3.079368763723764 L-38.16119962084851,3.3744400467850113 L-37.39170829173139,3.6676307824672847 L-36.62007129263553,3.9589357027155074 L-35.84630248834499,4.2483495733589365 " />
			<path d="M-47.96309370140017,-0.6062059226970682 L-47.96309370140017,0.2511154872770459 " />
			<path d="M-47.96309370140024,0.25111548727699073 L-48.60362284390321,-0.025604839408671864 " />
			<path d="M-48.60362284390381,-0.8829262493830328 L-48.60362284390381,-0.025604839408918667 " />
			<path d="M-69.99341142169094,-11.477642792143328 L-69.36185010336256,-11.122739796274473 L-68.72780312068487,-10.769317229556734 L-68.09128088430033,-10.417380894960644 L-67.45229384549343,-10.066936571053816 L-66.81085249601914,-9.717990011905968 L-66.16696736793064,-9.370546946994494 L-65.52064903340637,-9.024613081110402 L-64.87190810457643,-8.680194094264607 L-64.22075523334844,-8.337295641594679 L-63.56720111123242,-7.995923353272033 L-62.91125646916554,-7.656082834409389 L-62.25293207733556,-7.3177796649688815 L-61.59223874500442,-6.981019399670302 L-60.92918732033034,-6.645807567899965 L-60.26378869019011,-6.312149673619913 L-59.59605377999988,-5.980051195277511 L-58.925993553536145,-5.649517585715557 L-58.253619012755664,-5.320554272082703 L-57.578941197614526,-4.993166655744318 L-56.90197118588732,-4.667360112193904 L-56.222720092984886,-4.3431399909647155 L-55.54119907177203,-4.0205116155419915 L-54.85741931238424,-3.69948028327552 L-54.171392042044076,-3.3800512652926926 L-53.48312852487682,-3.062229806411949 L-52.79264006172535,-2.7460211250565862 L-52.09993798996483,-2.431430413169167 L-51.40503368331646,-2.118462836126284 L-50.70793855166063,-1.8071235326536055 L-50.00866404084975,-1.4974176147416927 L-49.30722163252021,-1.1893501675619262 L-48.603622843904006,-0.8829262493831322 " />
			<path d="M-70.0035713374682,-11.471776962034555 L-70.0035713374682,-9.75713414208633 " />
			<path d="M-70.00357133746822,-11.471776962034559 L-73.53910524340095,-13.513018414353876 " />
			<path d="M-69.99341142169109,-11.477642792143406 L-70.0035713374682,-11.471776962034548 " />
			<path d="M36.246293603622405,17.179088062719355 L36.246293603622405,18.893730882667583 " />
			<path d="M36.50085204484957,16.150302370750428 L36.50085204484957,17.864945190698652 " />
			<path d="M44.519442943505,16.81166460130188 L44.519442943505,18.52630742125011 " />
			<path d="M46.725616100807024,7.895521937571111 L46.725616100807024,8.560383439183695 " />
			<path d="M38.707025202151605,7.234159707019661 L38.707025202151605,8.948802526967887 " />
			<path d="M38.96158364337875,6.205374015050717 L38.96158364337875,7.920016834998943 " />
			<path d="M55.69173008625248,7.5852532368185805 L55.69173008625248,9.299896056766807 " />
			<path d="M-54.65935418572013,-9.063112048297763 L-54.65935418572013,-8.818163074019443 " />
			<path d="M-53.38656197958434,-9.797958971132713 L-54.65935418572013,-9.06311204829776 " />
			<path d="M-53.38656197958435,-9.797958971132717 L-53.38656197958435,-8.08331615118449 " />
			<path d="M-53.38656197958434,-9.797958971132713 L-59.114126907195384,-13.104770123890006 " />
			<path d="M-66.60945878777278,-15.962508157137052 L-66.60945878777278,-14.247865337188825 " />
			<path d="M-54.65935418572012,-9.06311204829776 L-59.114126907195384,-11.635076278220104 " />
			<path d="M-65.12453454728103,-15.105186747162934 L-66.60945878777278,-15.962508157137048 " />
			<path d="M-48.08326112068524,-19.473443455126272 L-48.08326112068524,-19.228494480847953 " />
			<path d="M-48.083261120685236,-19.473443455126272 L-48.295393155041204,-19.35096896798711 " />
			<path d="M-53.03300858899107,-23.80087533404322 L-53.03300858899107,-22.08623251409499 " />
			<path d="M-53.033008588991066,-23.80087533404322 L-66.60945878777278,-15.962508157137048 " />
			<path d="M-42.35569619307421,-16.16663230236898 L-48.08326112068524,-19.473443455126272 " />
			<path d="M-42.35569619307421,-16.16663230236898 L-42.35569619307421,-15.921683328090662 " />
			<path d="M-41.08290398693842,-16.901479225203932 L-41.08290398693842,-15.186836405255706 " />
			<path d="M-41.08290398693842,-16.901479225203932 L-53.03300858899107,-23.80087533404322 " />
			<path d="M-41.08290398693842,-16.901479225203932 L-42.3556961930742,-16.166632302368978 " />
			<path d="M31.11513796256335,0.7547440247041104 L21.27805686327366,20.147498455772137 " />
			<path d="M-27.634482724824583,-17.062132044595913 L-48.60362284390381,-0.8829262493830363 " />
			<path d="M-27.63448272482457,-16.204810634621793 L-48.60362284390381,-0.02560483940891345 " />
			<path d="M-26.99395358232093,-15.928090307935836 L-47.96309370140017,0.251115487277044 " />
			<path d="M-27.63448272482458,-16.291197231500544 L-47.963093701400176,-0.6062059226970682 " />
			<path d="M-16.932695407293956,-12.754399273114341 L-35.84630248834475,4.248349573359027 " />
			<path d="M-16.932695407293963,-11.897077863140227 L-35.84630248834475,5.105670983333134 " />
			<path d="M-16.25956248119826,-11.647483482991262 L-35.17316956224904,5.355265363482097 " />
			<path d="M-16.932695407293956,-11.899679174023937 L-35.173169562249065,4.497943953508001 " />
			<path d="M-5.725228489669381,-8.89907300194532 L-22.48665229736374,8.840333318109334 " />
			<path d="M-5.725228489669385,-8.041751591971224 L-22.486652297363747,9.697654728083425 " />
			<path d="M-5.022931549848628,-7.820558608117442 L-21.784355357542992,9.918847711937214 " />
			<path d="M-5.64729109710076,-8.017090825861557 L-21.784355357542992,9.061526301963104 " />
			<path d="M5.930646862883449,-5.5158542955012635 L-8.592941286454423,12.869559534430508 " />
			<path d="M5.930646862883415,-4.658532885527162 L-8.592941286454462,13.726880944404614 " />
			<path d="M6.658519015825886,-4.4668716140341775 L-7.865069133511991,13.918542215897599 " />
			<path d="M6.097762718311124,-4.614331488309238 L-7.8650691335119784,13.061220805923492 " />
			<path d="M17.975368077717743,-2.622031706026209 L5.763832430008211,16.315438513531006 " />
			<path d="M17.975368077717704,-1.764710296052126 L5.763832430008179,17.172759923505076 " />
			<path d="M18.725095951536467,-1.6035601432760966 L6.513560303826942,17.333910076281107 " />
			<path d="M18.2394226942612,-1.7077065954543298 L6.513560303826967,16.476588666307023 " />
			<path d="M30.34738554481542,-0.2323929275370425 L20.510304445525726,19.160361503530993 " />
			<path d="M30.34738554481543,0.6249284824370775 L20.51030444552574,20.017682913505105 " />

       </g>

       <!-- solid lines -->
       <g  stroke="rgb(200,20,20)" fill="none">
			<path d="M53.74011537017763,24.943970547342033 L58.689862838483464,4.93980431461274 " />
			<path d="M58.68986283848347,3.2251614946645155 L58.68986283848347,4.939804314612742 " />
			<path d="M48.790367901871775,24.53572225687818 L53.740115370177605,24.943970547342044 " />
			<path d="M48.790367901871804,24.52732871049443 L48.790367901871804,24.53572225687817 " />
			<path d="M58.689862838483464,4.93980431461274 L56.21498910433054,4.7356801693808075 " />
			<path d="M-47.022600948905435,-25.06644503448122 L-46.372208216567216,-24.69282367898792 L-45.71857036056636,-24.32109483008375 L-45.061703901089146,-23.951267882925052 L-44.40162543992243,-23.583352184599093 L-43.73835166003377,-23.217357033887836 L-43.071899325149985,-22.853291681032886 L-42.40228527933334,-22.491165327501704 L-41.72952644655595,-22.130987125755084 L-41.053639830271905,-21.77276617901579 L-40.37464251298758,-21.416511541038503 L-39.69255165582993,-21.062232215880982 L-39.0073844981127,-20.709937157676478 L-38.31915835690067,-20.35963527040748 L-37.62789062657211,-20.011335407680605 L-36.933598778379064,-19.66504637250287 L-36.236300360005785,-19.32077691705922 L-35.53601299512522,-18.97853574249129 L-34.832754382953624,-18.638331498677474 L-34.12654229780324,-18.300172784014364 L-33.41739458863299,-17.96406814519939 L-32.70532917859741,-17.63002607701479 L-31.990364064593635,-17.29805502211299 L-31.27251731680657,-16.96816337080314 L-30.551807078252168,-16.640359460839107 L-29.82825156431886,-16.314651577208707 L-29.101869062307202,-15.991047951924315 L-28.37267793096767,-15.669556763814882 L-27.640696600036634,-15.350186138319103 L-26.905943569770614,-15.03294414728012 L-26.168437410478603,-14.717838808741504 L-25.42819676205282,-14.404878086744588 L-24.68524033349759,-14.094069891127234 L-23.939586902456412,-13.785422077323858 L-23.191255314737447,-13.478942446166911 L-22.44026448383717,-13.174638743689712 L-21.68663339046232,-12.872518660930723 L-20.93038108205026,-12.572589833739073 L-20.171526672287428,-12.274859842581648 L-19.410089340626456,-11.979336212351456 L-18.646088331801238,-11.68602641217744 L-17.879542955340625,-11.394937855235796 L-17.1104725850804,-11.106077898562418 L-16.33889665867352,-10.819453842867148 L-15.564834677098958,-10.535072932349152 L-14.78830620416879,-10.252942354513834 L-14.009330866033778,-9.973069239991247 L-13.227928350687208,-9.695460662355785 L-12.444118407467442,-9.420123637947455 L-11.657920846558682,-9.14706512569451 L-10.869355538490268,-8.876292026937591 L-10.078442413634548,-8.60781118525533 L-9.285201461703068,-8.34162938629133 L-8.489652731241435,-8.077753357582665 L-7.691816329122489,-7.816189768389904 L-6.891712420038289,-7.556945229528509 L-6.089361225990203,-7.300026293201697 L-5.284783025778111,-7.0454394528349695 L-4.477998154487693,-6.793191142911894 L-3.6690270029764775,-6.5432877388115145 L-2.8578900173585566,-6.295735556647202 L-2.0446076984877806,-6.050540853107009 L-1.2292006014396293,-5.807709825295618 L-0.41168933499170635,-5.567248610577607 L0.40790543889718833,-5.329163286422386 L1.229563005609208,-5.093459870250584 L2.0532625983910293,-4.860144319281986 L2.8789833988787024,-4.629222530384908 L3.706704537623878,-4.400700339927255 L4.536405094621145,-4.174583523628925 L5.368064099836914,-3.950877796415824 L6.201660533739272,-3.7295888122755656 L7.037173327829407,-3.5107221641143553 L7.874581365173938,-3.29428338361582 L8.713863480938628,-3.080277941101116 L9.554998462923535,-2.8687112453906423 L10.397965052098854,-2.6595886436674476 L11.24274194314232,-2.452915421341956 L12.089307784977777,-2.248696801918456 L12.937641181314689,-2.046937946863082 L13.787720691188966,-1.8476439554733304 L14.639524829504893,-1.6508198647491952 L15.49303206757807,-1.4564706492658388 L16.348220833679605,-1.2646012210479114 L17.205069513581307,-1.0752164294453905 L18.063556451101945,-0.88832106101097 L18.923659948654617,-0.7039198393791395 L19.785358267795083,-0.5220174251467427 L20.648629629771342,-0.3426184157552683 L21.513452216073865,-0.16572734537456313 L22.379804168987135,0.00865131521170781 L23.24766359214218,0.18051315871909424 L24.117008551069823,0.3498538414736885 L24.987817073755124,0.516669083522018 L25.86006715119275,0.6809546687390764 L26.733736737943183,0.8427064449350326 L27.608803752689887,1.0019203239600358 L28.485246078797474,1.1585922818076426 L29.363041564870606,1.312718358716495 L30.24216802531388,1.4642946592703083 L31.122603240892587,1.6133173524965088 L32.004324959294216,1.7597826719628955 L32.887310895690916,1.903686915872882 L33.77153873330269,2.0450264471591026 L34.65698612396155,2.183797693575272 L35.54363068867615,2.3199971477865375 L36.431450018197516,2.453621367458041 L37.320421673585514,2.5846669753419746 L38.21052318677575,2.7131306593629603 L39.10173206114763,2.8390091727016937 L39.99402577209282,2.9622993338770556 L40.88738176758463,3.082998026826516 L41.78177746874794,3.201102200984863 L42.67719027042988,3.316608871361339 L43.57359754177117,3.4295151186150434 L44.47097662677805,3.539818089128744 L45.36930484489501,3.647514995081025 L46.268559491577875,3.752603114516674 L47.16871783886767,3.855079791415548 L48.06975713596523,3.9549424357596905 L48.97165460980597,4.052188523598716 L49.87438746563555,4.146815597113729 L50.777932887586054,4.238821264679331 L51.68226803925256,4.328203200924122 L52.58737006427035,4.414959146789485 L53.49321608689259,4.499086909586623 L54.39978321256848,4.58058436305204 L55.30704852852186,4.659449447401244 L56.21498910433009,4.735680169380771 " />
			<path d="M-48.79036790187179,-26.08706576064085 L-47.02260094890542,-25.06644503448119 " />
			<path d="M48.7903679018718,24.535722256878163 L48.79239988502721,24.52751009472581 " />
			<path d="M-48.79036790187179,-26.08706576064085 L-73.53910524340095,-11.79837559440564 " />
			<path d="M-69.99341142169307,-9.762999972196312 L-69.23754433479782,-9.33858187531591 L-68.47812249550991,-8.91628431594853 L-67.71516375072964,-8.496117218357696 L-66.94868603047688,-8.078090456739702 L-66.17870734746965,-7.662213854991535 L-65.4052457967009,-7.248497186480066 L-64.62831955501305,-6.836950173812369 L-63.84794688067113,-6.427582488607172 L-63.06414611293347,-6.020403751267651 L-62.276935671620876,-5.615423530755294 L-61.48633405668356,-5.212651344365 L-60.692359847766554,-4.812096657501485 L-59.89503170377297,-4.413768883456825 L-59.09436836242567,-4.017677383189152 L-58.290388639826645,-3.623831465102782 L-57.483111430015,-3.2322403848293817 L-56.672555704522935,-2.8429133450105013 L-55.85874051192992,-2.4558594950812704 L-55.04168497741493,-2.071087931055416 L-54.22140830230698,-1.6886076953114753 L-53.39792976363411,-1.3084277763802845 L-52.571268713670136,-0.930557108733808 L-51.74144457947993,-0.5550045725750721 L-50.90847686246285,-0.18177899362953553 L-50.0723851378945,0.18911085706231745 L-49.23318905446665,0.5576562633510918 L-48.39090833382552,0.9238485641833734 L-47.54556277010819,1.2876791538052714 L-46.69717222947766,1.6491394819645109 L-45.84575664965577,2.0082210541116012 L-44.991336039454666,2.3649154315992433 L-44.13393047830674,2.719214231880855 L-43.27356011579256,3.0711091287073486 L-42.4102451711675,3.420591852322957 L-41.54400593288645,3.767654189659524 L-40.67486275812708,4.112287984529559 L-39.802836072311436,4.454485137817812 L-38.92794636862597,4.794237607671704 L-38.050214207539824,5.1315374096902815 L-37.16966021632169,5.466376617111891 L-36.28630508855521,5.79874736100038 L-35.4001695836524,6.128641830430098 L-34.51127452636592,6.4560522726694245 L-33.61964080629983,6.780970993362985 L-32.725289377418335,7.103390356712453 L-31.82824125755367,7.423302785655977 L-30.92851752791202,7.740700762046302 L-30.02613933257804,8.055576826827405 L-29.121127878018143,8.367923580209833 L-28.213504432581857,8.677733681844543 L-27.30329032600234,8.98499985099545 L-26.39050694889488,9.289714866710483 L-25.47517575225426,9.591871567991362 L-24.557318246950686,9.891462853961798 L-23.636956003224213,10.188481684034414 L-22.7141106501779,10.482921078076203 L-21.78880387526941,10.774774116572587 L-20.86105742380134,11.064033940789955 L-19.930893098410408,11.35069375293692 L-18.998332758554838,11.634746816324025 L-18.06339832000073,11.916186455522123 L-17.12611175430702,12.195006056519176 L-16.186495088309158,12.471199066875712 L-15.244570403601486,12.744758995878854 L-14.300359836018174,13.01567941469483 L-13.353885575113125,13.283953956520051 L-12.405169863638534,13.549576316730693 L-11.454234997022098,13.812540253030932 L-10.501103322843093,14.072839585599596 L-9.545797240307195,14.330468197235462 L-8.588339199720025,14.585420033500881 L-7.628751701959615,14.837689102864204 L-6.66705729794765,15.08726947684049 L-5.703278588119403,15.334155290130866 L-4.7374382218927025,15.57834074076041 L-3.7695588971356813,15.819820090214364 L-2.7996633596331577,16.058587663573178 L-1.827774402552322,16.294637849645753 L-0.8539148659070435,16.527965101101287 L0.1218923639789864,16.758563934599735 L1.0996243550099791,16.986428930920596 L2.0792581298570525,17.211554735090346 L3.0607706664982146,17.433936056508145 L4.044138898759286,17.65356766907034 L5.0293397168561285,17.870444411293178 L6.0163499679377,18.084561186434087 L7.0051464566300155,18.29591296261158 L7.995705945581378,18.50449477292331 L8.988005156008512,18.710301715562963 L9.982020768243515,18.913328953935405 L10.977729422281982,19.113571716770323 L11.97510771833187,19.311025298234313 L12.974132217363575,19.50568505804162 L13.974779441660672,19.69754642156302 L14.977025875371552,19.88660487993343 L15.98084796506221,20.072855990157805 L16.98622212026973,20.256295375215586 L17.993124714056606,20.43691872416362 L19.00153208356614,20.614721792237304 L20.01142053057829,20.789700400950508 L21.022766322066907,20.96185043819375 L22.03554569075729,21.13116785833067 L23.04973483568463,21.297648682293385 L24.065309922753585,21.46128899767568 L25.08224708529822,21.622084958825226 L26.100522424642982,21.780032786933788 L27.12011201066433,21.93512877012614 L28.140991882352985,22.087369263547146 L29.16313804837725,22.236750689447604 L30.186526487646688,22.38326953726819 L31.211133149876567,22.526922363721994 L32.23693395615316,22.667705792875495 L33.263904799499606,22.805616516227772 L34.29202154544242,22.940651292788402 L35.32126003257864,23.072806949153517 L36.35159607314368,23.20208037958041 L37.38300545357979,23.32846854606059 L38.41546393510505,23.45196847839108 L39.44894725428293,23.57257727424424 L40.48343112359256,23.690292099236018 L41.518891231999525,23.805110186992536 L42.55530324552717,23.917028839215092 L43.59264280782844,24.02604542574356 L44.63088554075827,24.13215738461824 L45.670007044946566,24.235362222140054 L46.709982900371564,24.33565751292913 L47.750788666933616,24.43304089998179 L48.79239988502918,24.527510094725955 " />
			<path d="M-70.00357133746822,-9.757134142086333 L-73.53910524340095,-11.798375594405648 " />
			<path d="M-69.99341142169115,-9.762999972195159 L-70.0035713374682,-9.757134142086324 " />
			<path d="M36.24629360362242,18.89373088266759 L52.97644004649614,20.27361010443545 " />
			<path d="M36.246293603622426,18.89373088266759 L36.50085204484959,17.864945190698652 " />
			<path d="M36.500852044849566,17.864945190698656 L44.51944294350501,18.526307421250117 " />
			<path d="M44.51944294350502,18.526307421250117 L46.72561610080705,9.610164757519344 " />
			<path d="M38.707025202151605,8.948802526967889 L46.72561610080706,9.610164757519348 " />
			<path d="M38.70702520215161,8.948802526967889 L38.96158364337877,7.92001683499895 " />
			<path d="M38.96158364337877,7.920016834998951 L55.691730086252484,9.299896056766812 " />
			<path d="M52.97644004649613,20.27361010443545 L55.69173008625248,9.299896056766807 " />
			<path d="M-53.38656197958434,-8.083316151184489 L-54.65935418572013,-7.348469228349536 " />
			<path d="M-53.38656197958434,-8.083316151184487 L-59.114126907195384,-11.39012730394178 " />
			<path d="M-54.65935418572012,-7.348469228349534 L-66.60945878777278,-14.247865337188822 " />
			<path d="M-48.083261120685236,-17.758800635178044 L-59.11412690719538,-11.39012730394178 " />
			<path d="M-53.033008588991066,-22.08623251409499 L-66.60945878777278,-14.24786533718882 " />
			<path d="M-42.35569619307421,-14.451989482420752 L-48.08326112068524,-17.758800635178044 " />
			<path d="M-41.08290398693842,-15.186836405255704 L-53.03300858899107,-22.08623251409499 " />
			<path d="M-41.08290398693842,-15.186836405255708 L-42.3556961930742,-14.451989482420755 " />
			<path d="M58.68986283848347,3.2251614946645155 L56.21498910433055,3.0210373494325826 " />
			<path d="M56.21498910433053,4.735680169380821 L56.21498910433053,3.0210373494325946 " />
			<path d="M31.115137962563338,-0.10257738526998139 L31.88679898999125,0.025777256942248528 L32.65943079625056,0.15217026273487022 L33.433018421415234,0.2765991848490472 L34.2075468870524,0.39906161405509977 L34.983001196512355,0.5195551791991733 L35.75936633521892,0.638077547249182 L36.536627270960224,0.7546264233398716 L37.3147689541796,0.8691995508173704 L38.09377631826718,0.9817947112828307 L38.87363427985154,1.092409724635388 L39.654327739091606,1.2010424491143539 L40.43584157996929,1.307690781340753 L41.21816067058199,1.4123526563579105 L42.00126986343558,1.515026047671654 L42.7851539957378,1.615708967289308 L43.56979788969174,1.7143994657583335 L44.35518635278977,1.8110956322040863 L45.14130417810771,1.905795594366694 L45.92813614459922,1.998497518637464 L46.71566701739057,2.0891996100942265 L47.5038815480756,2.1779001125362214 L48.29276447501094,2.2645973085180344 L49.08230052361157,2.3492895193828502 L49.8724744066465,2.431975105294981 L50.66327082453482,2.5126524652716142 L51.45467446564192,2.591320037213791 L52.24667000657593,2.6679762979366757 L53.039242112484466,2.7426197631990306 L53.8323754373515,2.815248987731934 L54.62605462429455,2.885862565266848 L55.420264305861984,2.954459128562732 L56.21498910433009,3.021037349432561 " />
			<path d="M31.115137962563324,-0.10257738526998407 L30.714487033830416,0.6872631167116121 " />
			<path d="M44.68066328961555,17.874743149669786 L52.97644004649614,18.55896728448722 " />
			<path d="M52.97644004649613,18.55896728448722 L55.275951298914784,9.265603200367845 " />
			<path d="M-47.02260094890542,-25.066445034481195 L-47.02260094890542,-26.781087854429423 " />
			<path d="M-47.022600948905435,-26.78108785442943 L-46.453512580844986,-26.453967125889392 L-45.881936585622086,-26.12829532511016 L-45.307884030260524,-25.804078757845687 L-44.73136602973604,-25.481323701673233 L-44.15239374676099,-25.160036405871836 L-43.570978391568346,-24.840223091301382 L-42.98713122169454,-24.52188995028203 L-42.40086354176151,-24.205043146474395 L-41.81218670325781,-23.889688814760206 L-41.22111210431888,-23.575833061123504 L-40.62765118950627,-23.263481962532424 L-40.031815449586105,-22.95264156682147 L-39.43361642130657,-22.643317892574544 L-38.833065687174596,-22.335516929008293 L-38.23017487523141,-22.029244635856216 L-37.62495565882766,-21.72450694325319 L-37.01741975639716,-21.42130975162077 L-36.40757893123012,-21.119658931552834 L-35.79544499124533,-20.81956032370195 L-35.18102978876156,-20.52101973866631 L-34.564345220268066,-20.224042956877213 L-33.94540322619426,-19.928635728487123 L-33.32421579067844,-19.634803773258355 L-32.70079494133587,-19.34255278045231 L-32.07515274902576,-19.051888408719307 L-31.44730132761771,-18.762816285989075 L-30.817252833756996,-18.475342009361725 L-30.18501946662927,-18.189471144999402 L-29.550613467724418,-17.905209228018506 L-28.914047120599392,-17.622561762382546 L-28.27533275064046,-17.341534220795495 L-27.634482724824736,-17.062132044595998 " />
			<path d="M-27.63448272482458,-16.204810634621797 L-27.63448272482458,-17.062132044595913 " />
			<path d="M-27.63448272482458,-16.204810634621822 L-26.99395358232111,-15.928090307935918 " />
			<path d="M-26.99395358232094,-15.928090307935834 L-26.99395358232094,-16.78541171790995 " />
			<path d="M-26.993953582320955,-16.785411717909952 L-26.37904748694544,-16.522128763289288 L-25.76223390367312,-16.26033733727607 L-25.14352368607571,-16.000042046403124 L-24.52292772109844,-15.741247470877 L-23.90045692886855,-15.48395816449731 L-23.276122262503094,-15.228178654576723 L-22.649934707916174,-14.973913441861214 L-22.02190528362577,-14.721167000450862 L-21.392045040559637,-14.469943777721213 L-20.76036506186111,-14.220248194244917 L-20.1268764626938,-13.97208464371397 L-19.491590390046284,-13.72545749286246 L-18.85451802253573,-13.480371081389663 L-18.215670570211373,-13.236829721883723 L-17.575059274357173,-12.994837699745716 L-16.932695407294148,-12.754399273114387 " />
			<path d="M-16.932695407293956,-11.897077863140229 L-16.932695407293956,-12.754399273114343 " />
			<path d="M-16.932695407293963,-11.897077863140225 L-16.259562481198614,-11.647483482991376 " />
			<path d="M-16.25956248119825,-11.647483482991262 L-16.25956248119825,-12.504804892965376 " />
			<path d="M-16.25956248119826,-12.504804892965353 L-15.613649825622602,-12.267556717644979 L-14.966019112179907,-12.031874935208734 L-14.316681736706002,-11.797763692759077 L-13.66564912506756,-11.565227109762915 L-13.012932732961005,-11.334269277979175 L-12.358544045710858,-11.104894261386761 L-11.7024945780676,-10.877106096113039 L-11.044795874005189,-10.650908790362834 L-10.385459506517847,-10.426306324347905 L-9.724497077416515,-10.20330265021694 L-9.06192021712451,-9.981901691985883 L-8.397740584473027,-9.762107345469033 L-7.73196986649603,-9.543923478210445 L-7.064619778224483,-9.327353929415878 L-6.395702062480225,-9.112402509885186 L-5.725228489669732,-8.899073001945425 " />
			<path d="M-5.725228489669359,-8.04175159197122 L-5.725228489669359,-8.899073001945334 " />
			<path d="M-5.725228489669377,-8.041751591971206 L-5.022931549848977,-7.820558608117537 " />
			<path d="M-5.022931549848611,-7.820558608117437 L-5.022931549848611,-8.677880018091551 " />
			<path d="M-5.022931549848622,-8.677880018091528 L-4.349313005906353,-8.467878981611193 L-3.674174613557142,-8.259511197882986 L-2.997528252667351,-8.052780333386906 L-2.3193858296378096,-7.847690025799437 L-0.9586605541782376,-7.442445487654908 L0.40790543889718833,-7.043806106370596 L1.7802159645682423,-6.651799939967205 L3.158174433488867,-6.266454579590132 L4.54168385878549,-5.8877971475675395 L5.930646862883094,-5.515854295501356 " />
			<path d="M5.930646862883469,-4.658532885527162 L5.930646862883469,-5.515854295501276 " />
			<path d="M5.930646862883464,-4.658532885527151 L6.658519015825519,-4.466871614034275 " />
			<path d="M6.6585190158259175,-4.466871614034194 L6.6585190158259175,-5.324193024008308 " />
			<path d="M6.658519015825888,-5.324193024008281 L8.055597249992346,-4.962523243692601 L9.457881738036022,-4.6076331682445755 L10.865273780909476,-4.259547776413328 L12.277674320072663,-3.9182915680038946 L13.694983944465292,-3.5838885621529357 L15.117102897503642,-3.2563622956380414 L16.543931084102,-2.9357358212212006 L17.975368077717334,-2.6220317060262914 " />
			<path d="M17.975368077717743,-1.7647102960521144 L17.975368077717743,-2.6220317060262284 " />
			<path d="M17.97536807771776,-1.7647102960520868 L18.725095951536098,-1.6035601432761553 " />
			<path d="M18.7250959515365,-1.6035601432760922 L18.7250959515365,-2.460881553250206 " />
			<path d="M18.725095951536474,-2.460881553250175 L20.163356287996386,-2.157758977972634 L21.60597068015681,-1.8616135194030363 L23.05283759037134,-1.5724660215818886 L24.503855181682503,-1.2903368360019698 L25.958921324989312,-1.0152458201758492 L27.417933606235543,-0.7472123362383059 L28.880789333618225,-0.4862552495834791 L30.347385544815047,-0.2323929275370915 " />
			<path d="M30.347385544815445,0.624928482437057 L30.347385544815445,-0.2323929275370571 " />
			<path d="M30.34738554481543,0.6249284824370847 L31.115137962562954,0.7547440247040669 " />
			<path d="M31.115137962563338,0.7547440247041067 L31.115137962563338,-0.10257738527000737 " />
			<path d="M-48.79036790187179,-27.80170858058908 L-47.02260094890542,-26.781087854429423 " />
			<path d="M-48.79036790187179,-27.80170858058908 L-48.79036790187179,-26.08706576064085 " />
			<path d="M-73.53910524340095,-13.513018414353871 L-73.53910524340095,-11.798375594405645 " />
			<path d="M-48.79036790187179,-27.80170858058908 L-73.53910524340095,-13.513018414353867 " />
			<path d="M52.97644004649613,18.558967284487228 L52.97644004649613,20.273610104435456 " />
			<path d="M46.725616100807024,8.560383439183695 L46.725616100807024,9.610164757519337 " />
			<path d="M-54.65935418572013,-8.818163074019443 L-54.65935418572013,-7.348469228349536 " />
			<path d="M-59.114126907195384,-13.104770123890006 L-59.114126907195384,-11.39012730394178 " />
			<path d="M-59.114126907195384,-11.635076278220104 L-65.12453454728103,-15.105186747162934 " />
			<path d="M-48.08326112068524,-19.228494480847953 L-48.08326112068524,-17.758800635178044 " />
			<path d="M-48.295393155041204,-19.35096896798711 L-59.11412690719538,-13.104770123890008 " />
			<path d="M-42.35569619307421,-15.921683328090662 L-42.35569619307421,-14.451989482420755 " />
			<path d="M-26.993953582320945,-16.78541171790995 L-27.63448272482458,-16.291197231500544 " />
			<path d="M-16.259562481198277,-12.504804892965366 L-16.932695407293956,-11.899679174023937 " />
			<path d="M-5.0229315498486375,-8.67788001809154 L-5.64729109710076,-8.017090825861557 " />
			<path d="M6.658519015825904,-5.324193024008292 L6.097762718311124,-4.614331488309238 " />
			<path d="M18.725095951536495,-2.4608815532501875 L18.2394226942612,-1.7077065954543298 " />

       </g>
    </g>
    
</svg>
