<?xml version="1.0" encoding="UTF-8" standalone="no"?>
<svg
   xmlns:svg="http://www.w3.org/2000/svg"
   xmlns="http://www.w3.org/2000/svg"
   width="480.0"
   height="480.0"

>
    <g transform="scale(2.8318883215836808, -2.8318883215836808)   translate(86.89682374453562,-63.513756865874235)" stroke-width="0.3531212697825487"  fill="none">
       <!-- hidden lines -->
       <g  stroke="rgb(100,40,40)" fill="none" stroke-dasharray="0.3531212697825487,0.3531212697825487" >
			<path d="M53.55626760706912,20.34709479671893 L54.0512423538997,18.34667817344601 " />
			<path d="M53.55626760706912,20.34709479671893 L53.55626760706912,22.14338727475993 " />
			<path d="M37.123106012293746,16.950469020059572 L37.123106012293746,18.746761498100568 " />
			<path d="M37.12310601229376,16.950469020059607 L45.57727468816009,17.647757100171884 " />
			<path d="M56.82027250902622,5.686082189580667 L56.3846947318153,5.650156340019846 " />
			<path d="M56.85138520739842,3.764049238076833 L56.3846947318153,5.650156340019867 " />
			<path d="M30.907502564221886,1.89450171885677 L22.505925985740483,18.457312350972764 " />
			<path d="M22.50592598574051,18.457312350972757 L23.42178005456846,18.60984354182068 L24.338790537336187,18.76004090356767 L25.256939592567214,18.907901513954116 L26.176209356632818,19.053422496184552 L27.09658194409967,19.1966010189836 L28.0180394480777,19.33743429665111 L28.940563940568623,19.475919589116344 L29.86413747281469,19.612054201991228 L30.788742075647818,19.745835486622838 L31.714359759839276,19.877260840144928 L32.640972516449786,20.00632770552852 L33.56856231717976,20.133033571631742 L34.497111114720106,20.2573759732486 L35.42660084310337,20.379352491156993 L36.357013418055246,20.498960752165743 L37.28833073734634,20.616198429160804 L38.220534681144514,20.731063241150522 L39.1536071123673,20.843552953310024 L40.08752987703481,20.95366537702469 L41.022284804623055,21.061398369932718 L41.95785370841723,21.166749835966854 L42.89421838586574,21.26971772539511 L43.831360618934376,21.37030003486069 L44.76926217446069,21.468494807420967 L45.70790480450872,21.564300132585558 L46.6472702467241,21.65771414635344 L47.5873402246893,21.74873503124931 L48.52809644827928,21.837361016358827 L49.46952061401728,21.92359037736321 L50.41159440543101,22.007421436572656 L51.354299493408945,22.088852562959076 L52.29761753655656,22.16788217218773 " />
			<path d="M52.76430801214018,20.28177507024472 L52.29761753655705,22.167882172187785 " />
			<path d="M53.55626760706912,20.34709479671893 L52.76430801214017,20.281775070244713 " />
			<path d="M37.123106012293746,16.950469020059593 L37.335238046649714,16.093147610085484 " />
			<path d="M37.33523804664971,16.093147610085484 L45.35382894530516,16.754509840636945 " />
			<path d="M45.35382894530514,16.754509840636945 L47.56000210260717,7.838367176906175 " />
			<path d="M39.54141120395174,7.177004946354723 L47.56000210260719,7.838367176906183 " />
			<path d="M39.54141120395174,7.177004946354721 L39.75354323830771,6.319683536380598 " />
			<path d="M39.75354323830772,6.319683536380602 L56.68167957991368,7.715892689767017 " />
			<path d="M56.68167957991366,7.71589268976701 L57.17665432674424,5.715476066494077 " />
			<path d="M52.76430801214017,22.078067548285716 L52.76430801214017,20.281775070244716 " />
			<path d="M56.3846947318153,7.446448818060864 L56.3846947318153,5.650156340019865 " />
			<path d="M-40.460650019494246,-16.836159498729717 L-40.460650019494246,-15.039867020688718 " />
			<path d="M-40.460650019494246,-16.836159498729714 L-52.55217597778421,-23.817205265661773 " />
			<path d="M-41.52131019127407,-16.22378706303392 L-41.52131019127407,-15.652239456384509 " />
			<path d="M-40.460650019494246,-16.836159498729717 L-41.52131019127406,-16.223787063033924 " />
			<path d="M-41.52131019127406,-16.22378706303392 L-47.2488751188851,-19.530598215791212 " />
			<path d="M-47.24887511888511,-19.530598215791212 L-47.24887511888511,-18.959050609141805 " />
			<path d="M-47.2488751188851,-19.530598215791215 L-47.74384986571569,-19.244824412466507 " />
			<path d="M-52.5521759777842,-9.855113731797655 L-58.27974090539524,-13.16192488455495 " />
			<path d="M-52.5521759777842,-9.855113731797658 L-52.5521759777842,-8.058821253756658 " />
			<path d="M-53.61283614956403,-9.242741296101865 L-53.61283614956403,-8.671193689452455 " />
			<path d="M-52.5521759777842,-9.855113731797658 L-53.61283614956403,-9.242741296101864 " />
			<path d="M-53.61283614956403,-9.242741296101862 L-58.27974090539525,-11.93718001316336 " />
			<path d="M-68.1792358420069,-14.7949180464104 L-67.61355041705767,-14.468319414039309 " />
			<path d="M-67.61355041705767,-14.468319414039312 L-67.61355041705767,-12.672026935998314 " />
			<path d="M-67.61355041705767,-14.46831941403931 L-68.1792358420069,-14.141720781668221 " />
			<path d="M52.29761753655703,22.16788217218777 L52.29761753655703,23.96417465022877 " />
			<path d="M22.505925985740493,18.457312350972742 L22.505925985740493,19.84535653854988 " />
			<path d="M22.505925985740262,19.84535653854985 L21.738173567993016,19.71554099628291 " />
			<path d="M21.7381735679926,18.327496808705693 L21.7381735679926,19.71554099628283 " />
			<path d="M7.836407578467515,15.66193533423531 L8.695824307726511,15.844423135466158 L9.556572661612805,16.02480678088756 L10.418637185054365,16.203083031640872 L11.28200239934688,16.379248686706575 L12.146652802431547,16.553300582961697 L13.012572869173596,16.725235595236654 L13.87974705164089,16.89505063637131 L14.74815977938313,17.062742657270434 L15.617795459711544,17.228308646958496 L16.488638477978768,17.391745632633658 L17.360673197859143,17.55305067972114 L18.23388396162953,17.71222089192601 L19.108255090450548,17.8692534112851 L19.98377088464793,18.024145418218353 L20.860415623994562,18.176894131579445 L21.738173567992114,18.327496808705618 " />
			<path d="M7.836407578467533,15.661935334235302 L7.836407578467533,17.04997952181244 " />
			<path d="M7.836407578467316,17.049979521812404 L7.086679704649214,16.888829369036515 " />
			<path d="M7.086679704648775,15.50078518145928 L7.086679704648775,16.888829369036415 " />
			<path d="M-6.449739787787152,12.268649722516955 L-5.615099282198301,12.48611829017284 L-4.778870193774296,12.701543001691007 L-3.941067537334135,12.914919989036832 L-3.1017063559509523,13.126245420943377 L-2.260801720681698,13.3355155029802 L-1.4183687302966064,13.542726477621457 L-0.5744225110082368,13.747874624313368 L0.2710217838002791,13.950956259541059 L1.1179489738472768,14.151967736894647 L1.96634385222508,14.35090544713475 L2.816191185673219,14.547765818257275 L3.667475714851804,14.742545315557607 L4.520182154615455,14.935240441693978 L5.374295194287839,15.12584773675033 L6.2297994979366536,15.314363778298429 L7.086679704648333,15.500785181459193 " />
			<path d="M-6.449739787787161,12.268649722516937 L-6.449739787787161,13.656693910094074 " />
			<path d="M-6.449739787787379,13.656693910094035 L-7.177611940728781,13.465032638601315 " />
			<path d="M-7.177611940729605,12.076988451023972 L-7.177611940729605,13.465032638601109 " />
			<path d="M-20.27951261353452,8.294795510854144 L-19.473913419757636,8.546133560971612 L-18.666476802739012,8.795498498911996 L-17.85721726031764,9.042885847230693 L-17.0461493230639,9.288291163991474 L-16.233287554018503,9.5317100428463 L-15.418646548431141,9.773138113114399 L-14.602240933498436,10.012571039860674 L-13.784085368101259,10.250004523973686 L-12.964194542541478,10.485434302242723 L-12.142583178278272,10.718856147434408 L-11.319266027663744,10.950265868368575 L-10.494257873678109,11.179659309993525 L-9.667573529664082,11.407032353460664 L-8.839227839061095,11.632380916198457 L-8.009235675138711,11.85570095198564 L-7.177611940730017,12.076988451023865 " />
			<path d="M-20.279512613534518,8.294795510854145 L-20.279512613534518,9.682839698431282 " />
			<path d="M-20.27951261353475,9.68283969843121 L-20.981809553354466,9.461646714577753 " />
			<path d="M-20.981809553355266,8.073602527000363 L-20.981809553355266,9.4616467145775 " />
			<path d="M-33.5822395142833,3.7606794521084765 L-32.80979831674166,4.044602624618776 L-32.03528024494993,4.3266335116935295 L-31.258699205681808,4.606767049358325 L-30.4800691427524,4.884998207706289 L-29.699404036767774,5.161321990988654 L-28.916717904873963,5.435733437704243 L-28.13202480050542,5.708227620688618 L-27.3453388131325,5.978799647202592 L-26.55667406800856,6.24744465901999 L-25.7660447259164,6.5141578325149965 L-24.973464982913768,6.778934378748673 L-24.17894907007866,7.041769543555006 L-23.382511253253867,7.302658607626213 L-22.584165832790617,7.561596886597528 L-21.783927143291947,7.8185797311312655 L-20.981809553355717,8.073602527000219 " />
			<path d="M-33.582239514283295,3.7606794521084925 L-33.582239514283295,5.148723639685628 " />
			<path d="M-33.582239514283515,5.148723639685528 L-34.25537244037824,4.8991292595369345 " />
			<path d="M-34.255372440379,3.5110850719595277 L-34.255372440379,4.899129259536664 " />
			<path d="M-46.28994235767874,-1.3105287123690346 L-45.554606400449046,-0.9954712904442999 L-44.81696473097534,-0.6822156574646101 L-44.07703059390117,-0.3707674380568591 L-43.334817275032165,-0.06113222439516619 L-42.59033810109766,0.24668442389960887 L-41.84360643951118,0.5526769798595979 L-41.094635698130645,0.8568399492693004 L-40.34343932501747,1.1591678707640938 L-39.59003080819511,1.459655315928373 L-38.83442367540708,1.7582968893930087 L-38.07663149387369,2.0550872289322086 L-37.31666787004882,2.3500210055598103 L-36.55454644937538,2.6430929236249767 L-35.790280916040345,2.9342977209072387 L-35.02388499272912,3.2236301687110114 L-34.255372440379205,3.511085071959428 " />
			<path d="M-46.28994235767878,-1.3105287123690097 L-46.28994235767878,0.0775154752081264 " />
			<path d="M-46.28994235767897,0.07751547520801694 L-46.93047150018165,-0.19920485147754619 " />
			<path d="M-46.93047150018241,-1.5872490390549707 L-46.93047150018241,-0.19920485147783462 " />
			<path d="M-69.94700279497326,-13.121100055508592 L-69.2715053302953,-12.732817880131435 L-68.59304799893346,-12.34625972691488 L-67.91164400104276,-11.961433116785173 L-67.22730659410891,-11.578345536979441 L-66.54004909269051,-11.197004440899974 L-65.84988486815976,-10.817417247969232 L-65.15682734844262,-10.439591343485588 L-64.46089001775721,-10.06353407847945 L-63.762086416351735,-9.68925276957043 L-63.060430140240925,-9.31675469882488 L-62.35593484094156,-8.94604711361417 L-61.6486142252067,-8.577137226473866 L-60.93848205475925,-8.210032214963192 L-60.22555214602403,-7.844739221525472 L-59.5098383698591,-7.481265353349272 L-58.79135465128576,-7.119617682229887 L-58.070114969217656,-6.759803244431978 L-57.34613335618886,-6.401829040552542 L-56.61942389808078,-6.045702035384707 L-55.8900007338481,-5.691429157782309 L-55.157878055243856,-5.339017300525029 L-54.42307010654312,-4.988473320184298 L-53.68559118426589,-4.639804036989858 L-52.94545563689903,-4.293016234697106 L-52.202677864617016,-3.9481166604551134 L-51.45727231900179,-3.6051120246753072 L-50.70925350276167,-3.264009000900998 L-49.95863596944906,-2.9248142256774514 L-49.20543432317734,-2.587534298422767 L-48.44966321833675,-2.25217578129957 L-47.691337359309244,-1.9187451990872404 L-46.93047150018256,-1.5872490390550809 " />
			<path d="M37.33523804664971,16.093147610085484 L37.33523804664971,17.88944008812648 " />
			<path d="M45.35382894530516,16.754509840636956 L45.35382894530516,18.550802318677956 " />
			<path d="M47.560002102607186,7.8383671769061944 L47.560002102607186,8.759841889667465 " />
			<path d="M39.541411203951746,7.177004946354719 L39.541411203951746,8.973297424395719 " />
			<path d="M39.75354323830772,6.319683536380591 L39.75354323830772,8.115976014421591 " />
			<path d="M56.68167957991366,7.715892689767017 L56.68167957991366,9.512185167808017 " />
			<path d="M31.556040575496837,2.0040225045300533 L22.505925985740507,19.845356538549897 " />
			<path d="M-27.63886263665207,-16.472118335141104 L-46.93047150018241,-1.587249039054976 " />
			<path d="M-27.638862636652078,-15.084074147563975 L-46.93047150018242,-0.19920485147785172 " />
			<path d="M-26.998333494148447,-14.807353820878003 L-46.28994235767878,0.07751547520811641 " />
			<path d="M-27.638862636652064,-15.701183522045742 L-46.28994235767876,-1.3105287123690257 " />
			<path d="M-16.854853967323393,-12.131443829478746 L-34.25537244037899,3.5110850719595312 " />
			<path d="M-16.854853967323415,-10.743399641901618 L-34.25537244037902,4.899129259536661 " />
			<path d="M-16.181721041227696,-10.493805261752644 L-33.5822395142833,5.148723639685635 " />
			<path d="M-16.8548539673234,-11.276723730388337 L-33.5822395142833,3.7606794521084925 " />
			<path d="M-5.5612996870640155,-8.24665124851591 L-20.981809553355266,8.073602527000357 " />
			<path d="M-5.561299687064027,-6.85860706093878 L-20.981809553355276,9.461646714577483 " />
			<path d="M-4.85900274724328,-6.637414077084998 L-20.279512613534536,9.68283969843127 " />
			<path d="M-5.561299687064009,-7.282184249533888 L-20.27951261353452,8.29479551085414 " />
			<path d="M6.184089124785217,-4.837592232161408 L-7.177611940729615,12.076988451023972 " />
			<path d="M6.184089124785196,-3.449548044584276 L-7.177611940729637,13.465032638601105 " />
			<path d="M6.911961277727659,-3.2578867730913004 L-6.449739787787173,13.65669391009408 " />
			<path d="M6.18408912478522,-3.7245174222557225 L-6.449739787787162,12.268649722516948 " />
			<path d="M18.321292473739963,-1.9216873789698283 L7.086679704648789,15.500785181459293 " />
			<path d="M18.32129247373995,-0.5336431913927004 L7.086679704648763,16.888829369036436 " />
			<path d="M19.07102034755871,-0.37249303861667293 L7.836407578467526,17.04997952181246 " />
			<path d="M18.321292473739963,-0.5978702453315197 L7.8364075784675435,15.661935334235315 " />
			<path d="M30.788288157748905,0.4861627746858783 L21.738173567992582,18.327496808705703 " />
			<path d="M30.788288157748934,1.874206962263015 L21.738173567992604,19.715540996282854 " />

       </g>

       <!-- solid lines -->
       <g  stroke="rgb(200,20,20)" fill="none">
			<path d="M53.55626760706913,22.143387274759924 L54.05124235389972,20.142970651486998 " />
			<path d="M54.0512423538997,18.346678173446016 L54.0512423538997,20.142970651487012 " />
			<path d="M57.176654326744256,7.511768544535078 L56.3846947318153,7.446448818060858 " />
			<path d="M56.3846947318153,7.446448818060862 L56.85138520739842,5.560341716117826 " />
			<path d="M-47.17816444076644,-24.470402530403973 L-46.52278239431715,-24.09391503848498 L-45.864130330105866,-23.71933457101386 L-45.20222489504911,-23.346670595219422 L-44.537082818289875,-22.975932529892617 L-43.86872091077467,-22.607129745148512 L-43.19715606482876,-22.240271562189463 L-42.52240525372915,-21.87536725306954 L-41.84448553127565,-21.512426040460213 L-41.163414031359835,-21.151457097417165 L-40.47920796753196,-20.792469547148542 L-39.79188463256598,-20.435472462784332 L-39.10146139802242,-20.080474867147032 L-38.40795571380933,-19.727485732523647 L-37.71138510774125,-19.376513980438858 L-37.0117671850963,-19.027568481429626 L-36.30911962817113,-18.680658054820938 L-35.60346019583395,-18.33579146850289 L-34.89480672307583,-17.992977438709133 L-34.18317712055992,-17.65222462979655 L-33.46858937416863,-17.31354165402628 L-32.751061544549216,-16.97693707134603 L-32.03061176665719,-16.642419389173753 L-31.307258249298073,-16.309997062182617 L-30.58101927466707,-15.979678492087345 L-29.851913197887157,-15.651472027431836 L-29.119958446544985,-15.325385963378153 L-28.385173520225322,-15.001428541496907 L-27.64757699004332,-14.67960794955897 L-26.907187498175247,-14.359932321328458 L-26.164023757387312,-14.042409736357214 L-25.41810455056263,-13.727048219780599 L-24.669448730226705,-13.413855742114677 L-23.918075218070697,-13.102840219054713 L-23.164003004473344,-12.794009511275206 L-22.407251148020947,-12.487371424231057 L-21.64783877502569,-12.182933707960487 L-20.88578507904225,-11.880704056889016 L-20.1211093203826,-11.580690109635043 L-19.353830825629444,-11.282899448816764 L-18.583968987147486,-10.987339600860608 L-17.811543262593474,-10.694018035810913 L-17.03657317442439,-10.402942167141134 L-16.25907830940399,-10.114119351566558 L-15.479078318107753,-9.827556888858282 L-14.696592914426347,-9.543262021658762 L-13.911641875067275,-9.261241935298742 L-13.124245039055054,-8.981503757615656 L-12.334422307229758,-8.704054558773521 L-11.542193641744163,-8.428901351084107 L-10.747579065559066,-8.15605108882987 L-9.95059866193732,-7.885510668088145 L-9.151272573936225,-7.617286926556744 L-8.349621003898449,-7.351386643381275 L-7.5456642129413325,-7.087816538983745 L-6.739422520444975,-6.826583274892727 L-5.930916303538453,-6.567693453574918 L-5.120165996585001,-6.311153618268378 L-4.3071920906655095,-6.056970252817138 L-3.492015133060491,-5.805149781507211 L-2.6746557267309896,-5.555698568904376 L-1.8551345297976383,-5.308622919693192 L-1.0334722550187223,-5.0639290785177735 L-0.2096896692665382,-4.821623229823842 L0.6161924069973992,-4.581711497702486 L1.4441531002485846,-4.3441999457354115 L2.274171484427086,-4.109094576841571 L3.1062265814664443,-3.876401333125557 L3.9402973618239088,-3.6461260957274106 L4.776362745011852,-3.4182746846739036 L5.614401600130648,-3.192852858731513 L6.454392746402661,-2.9698663152608447 L7.296314953707736,-2.7493206900726506 L8.14014694311956,-2.531221557285363 L8.985867387443548,-2.315574429184238 L9.833454911756007,-2.1023847560820172 L10.682888093944172,-1.8916579261812245 L11.534145465247704,-1.6833992654378847 L12.387205510801351,-1.4776140374270312 L13.242046670178652,-1.2743074432095938 L14.098647337936896,-1.0734846212009614 L14.956985864163187,-0.8751506470411243 L15.817040555021578,-0.679310533466392 L16.678789673301438,-0.48596923018268967 L17.542211438966774,-0.29513162374047397 L18.407284029706744,-0.10680253741121248 L19.273985581487217,0.0790132689345171 L20.142294189103275,0.26231109894732185 L21.012187906733054,0.44308631991768266 L21.883644748492145,0.6213343628930943 L22.756642688989402,0.7970507227934434 L23.63115966388373,0.9702309585250077 L24.507173570441495,1.1408706930925092 L25.384662268095347,1.3089656137099723 L26.26360357900372,1.4745114719095227 L27.143975288611415,1.6375040836489063 L28.02575514621097,1.7979393294171047 L28.908920865505145,1.955813154338614 L29.793450125170068,2.1111215682758058 L30.67932056941948,2.2638606459297677 L31.566509808569755,2.414026526939608 L32.454995419605694,2.561615415979986 L33.34475494674735,2.706623582856949 L34.23576590201752,2.849047362602363 L35.1280057658102,2.988883155566384 L36.0214519874596,3.126127427508578 L36.91608198581017,3.26077670968715 L37.811873149787445,3.3928275989466385 L38.708802838969284,3.5222767578039367 L39.606848384158255,3.6491209145326593 L40.50598708795453,3.773356863245823 L41.406196225329566,3.894981463976805 L42.30745304420043,4.013991642758839 L43.209734766004864,4.130384391702577 L44.11301858627699,4.244156769072205 L45.01728167522364,4.355305899359706 L45.92250117830151,4.46382897335765 L46.82865421679454,4.569723248230076 L47.735717888392315,4.6729860475818725 L48.643669267768985,4.77361476152646 L49.552485407162465,4.8716068467516465 L50.46214333695458,4.966959826584031 L51.37262006625155,5.059671291051515 L52.28389258346509,5.149738896944214 L53.19593785689398,5.2371603678737415 L54.1087328353062,5.321933494330693 L55.022254448521515,5.404056133740497 L55.93647960799454,5.4835262105175815 L56.85138520739801,5.56034171611779 " />
			<path d="M-49.51161681868206,-23.12318317187321 L-47.17816444076645,-24.470402530403963 " />
			<path d="M-50.077302243631294,-23.449781804244296 L-49.51161681868206,-23.123183171873205 " />
			<path d="M-50.077302243631294,-23.449781804244296 L-52.55217597778421,-22.020912787620773 " />
			<path d="M-40.460650019494246,-15.039867020688714 L-52.55217597778421,-22.020912787620773 " />
			<path d="M-40.460650019494246,-15.039867020688718 L-41.52131019127406,-14.427494584992925 " />
			<path d="M-41.52131019127406,-14.427494584992921 L-47.2488751188851,-17.734305737750212 " />
			<path d="M-47.2488751188851,-17.734305737750212 L-58.27974090539524,-11.365632406513948 " />
			<path d="M-52.5521759777842,-8.058821253756655 L-58.27974090539524,-11.36563240651395 " />
			<path d="M-52.5521759777842,-8.058821253756658 L-53.61283614956403,-7.446448818060864 " />
			<path d="M-53.61283614956403,-7.446448818060862 L-65.704362107854,-14.427494584992921 " />
			<path d="M-65.704362107854,-14.42749458499292 L-68.17923584200692,-12.998625568369398 " />
			<path d="M-68.1792358420069,-12.998625568369402 L-67.61355041705767,-12.67202693599831 " />
			<path d="M-69.94700279497329,-11.324807577467567 L-67.61355041705768,-12.672026935998316 " />
			<path d="M-69.94700279497326,-11.324807577467595 L-69.17686652396895,-10.882398947757437 L-68.40288767091806,-10.442231253246803 L-67.62508579753163,-10.00431561883039 L-66.84348056214463,-9.568663112483875 L-66.05809171921894,-9.135284744984148 L-65.2689391188442,-8.704191469630956 L-64.47604270623611,-8.2753941819702 L-63.67942252123231,-7.848903719518447 L-62.87909869778585,-7.424730861489067 L-62.07509146345629,-7.002886328519793 L-61.26742113889867,-6.583380782401775 L-60.456108137349645,-6.166224825810019 L-59.641172964111746,-5.751429002035621 L-58.82263621603502,-5.339003794719019 L-58.000518580996555,-4.928959627585286 L-57.17484083737759,-4.521306864180502 L-56.34562385353817,-4.116055807609925 L-55.512888587290064,-3.7132167002775134 L-54.6766560853668,-3.3127997236271085 L-53.83694748289176,-2.9148149978851023 L-52.993784002844166,-2.5192725818046 L-52.147186955522415,-2.126182472411301 L-51.297177738005814,-1.7355546047507033 L-50.44377783361344,-1.3473988516371236 L-49.58700881136144,-0.9617250234040853 L-48.726892325417765,-0.5785428676563811 L-47.86345011455492,-0.19786206902377046 L-46.99670400160042,0.18030775108383068 L-46.1266758928854,0.555957034719583 L-45.253387777690875,0.9290762876411947 L-44.3768617276919,1.2996560795509708 L-43.49711989639994,1.6676870443340306 L-42.614184518602684,2.0331598802951873 L-41.72807790980231,2.396065350393897 L-40.83882246565135,2.7563942824778564 L-39.94644066138666,3.1141375695146536 L-39.05095505126147,3.4692861698221265 L-38.1523882679752,3.8218311072967595 L-37.250763022101566,4.171763471640574 L-36.34610210151456,4.519074418586342 L-35.43842837081243,4.863755170121095 L-34.52776477073992,5.2057970147080255 L-33.614134317608276,5.5451913075066415 L-32.69756010271368,5.8819294705912455 L-31.778065291753634,6.216002993167734 L-30.85567312424142,6.547403431788737 L-29.930406912918727,6.87612241056695 L-29.00229004316644,7.202151621386889 L-28.071345972413653,7.525482824114903 L-27.137598229544707,7.846107846807342 L-26.20107041430458,8.16401858591712 L-25.261786196702445,8.479207006498612 L-24.319769316413343,8.791665142410622 L-23.375043582178265,9.101385096517774 L-22.42763287120239,9.40835904089009 L-21.477561128551486,9.712579217000922 L-20.52485236654691,10.014037935922843 L-19.56953066415865,10.312727578522157 L-18.61162016639659,10.608640595651437 L-17.651145083700527,10.901769508340266 L-16.688129691328058,11.192106907984282 L-15.722598328741185,11.479645456532452 L-14.754575398991065,11.76437788667252 L-13.784085368101259,12.046297002014683 L-12.811152764449375,12.325395677273448 L-11.83580217814719,12.601666858447771 L-10.858058260419028,12.875103562999328 L-9.87794572297885,13.145698880028903 L-8.89548933740565,13.413445970451207 L-7.9107139345172754,13.678338067167644 L-6.92364440374304,13.940368475237293 L-5.934305692494391,14.199530572046257 L-4.9427228055346575,14.455817807474943 L-3.948920804346983,14.70922370406359 L-2.9529248065007465,14.959741857176098 L-1.9547599850169917,15.207365935161747 L-0.954451567732093,15.452089679515396 L0.04797516333991325,15.69390690503549 L1.0524948726462497,15.932811499980517 L2.059082171735753,16.168797426223392 L3.067711619900521,16.401858719404146 L4.078357724818943,16.631989489080595 L5.090994943200002,16.859183918877264 L6.105597681428819,17.083436266632376 L7.12214029621353,17.304740864542936 L8.140597095233431,17.523092119308075 L9.160942337788256,17.73848451227039 L10.183150235448906,17.950912599555295 L11.207194952709045,18.16037101220884 L12.233050607638134,18.366854456333186 L13.260691272535695,18.57035771322056 L14.290090974586448,18.77087563948504 L15.321223696516839,18.968403167192676 L16.354063377252558,19.16293530398943 L17.388583912577317,19.3544671332275 L18.424759155792458,19.542993814089414 L19.462562918377948,19.728510581710623 L20.501968970654126,19.911012747299665 L21.54295104244477,20.09049569825683 L22.585482823740982,20.26695489829069 L23.62953796536614,20.4403858875328 L24.675090079641905,20.61078428265033 L25.722112741055078,20.77814577695692 L26.770579486925655,20.942466140521503 L27.820463818075375,21.10374122027521 L28.871739199497668,21.261966940116366 L29.924379061028326,21.417139301013464 L30.978356798016883,21.569254381106248 L32.03364577199913,21.718308335804878 L33.0902193113704,21.864297397887057 L34.14805071205961,22.007217877593234 L35.207113238204215,22.14706616271991 L36.267380122825955,22.28383871871091 L37.32882456850734,22.417532088746654 L38.391419748068905,22.548142893831653 L39.45513880524741,22.67566783287981 L40.51995485537435,22.800103682797868 L41.58584098605558,22.92144729856689 L42.65277025785166,23.039695613321783 L43.72071570495841,23.15484563842871 L44.78965033588867,23.266894463560718 L45.85954713415445,23.375839256771286 L46.93037905894969,23.481677264565803 L48.002119045833766,23.58440581197131 L49.0747400074155,23.684022302603978 L50.148214834037745,23.78052421873481 L51.222516394462545,23.873909121353236 L52.29761753655656,23.964174650228728 " />
			<path d="M52.29761753655705,23.964174650228777 L52.76430801214018,22.078067548285713 " />
			<path d="M53.55626760706913,22.143387274759924 L52.764308012140184,22.078067548285706 " />
			<path d="M37.12310601229376,18.746761498100604 L54.05124235389972,20.14297065148702 " />
			<path d="M37.123106012293746,18.74676149810059 L37.335238046649714,17.88944008812648 " />
			<path d="M37.33523804664971,17.889440088126484 L45.35382894530516,18.550802318677945 " />
			<path d="M45.35382894530514,18.550802318677945 L47.56000210260717,9.634659654947175 " />
			<path d="M39.54141120395174,8.97329742439572 L47.56000210260719,9.63465965494718 " />
			<path d="M39.54141120395174,8.973297424395717 L39.75354323830771,8.115976014421594 " />
			<path d="M39.75354323830772,8.115976014421602 L56.68167957991368,9.512185167808017 " />
			<path d="M56.68167957991368,9.512185167808003 L57.176654326744256,7.5117685445350695 " />
			<path d="M45.57727468816009,17.647757100171884 L54.05124235389972,18.346678173446023 " />
			<path d="M57.176654326744256,5.715476066494066 L56.82027250902622,5.686082189580667 " />
			<path d="M31.556040575496823,0.615978316952905 L32.33370965685837,0.7453402987335949 L33.112357251328156,0.8727251365581452 L33.891968278927415,0.9981303633789906 L34.6725276410187,1.1215535504874765 L35.4540202205982,1.2429923075608684 L36.236430882588586,1.362444282708637 L37.019744474132196,1.4799071625180744 L37.80394582488445,1.5953786720990877 L38.58901974730756,1.7088565751281095 L39.37495103696474,1.8203386738916123 L40.16172447281474,1.9298228093285417 L40.94932481750657,2.0373068610722243 L41.73773681767452,2.142788747491295 L42.52694520423362,2.2462664257301697 L43.31693469267547,2.34773789174848 L44.10768998336416,2.447201180359997 L44.899195761832495,2.54465436527056 L45.691436699078665,2.6400955591155224 L46.484397451863195,2.7335229134962162 L47.278062663006054,2.8249346190157496 L48.072416961683935,2.9143289053141075 L48.86744496372807,3.0017040411023572 L49.663131271922225,3.0870583341962856 L50.45946047630083,3.1703901315490697 L51.25641715444736,3.251697819283308 L52.05398587179303,3.330979822722327 L52.852151181915886,3.4082346064206774 L53.65089762683979,3.483460674193779 L54.45020973733381,3.556656569147009 L55.25007203321177,3.6278208737038256 L56.050469023632246,3.6969522096333236 L56.85138520739801,3.764049238076794 " />
			<path d="M31.556040575496823,0.6159783169529054 L30.907502564221886,1.89450171885677 " />
			<path d="M57.176654326744256,5.715476066494066 L57.176654326744256,7.511768544535065 " />
			<path d="M56.85138520739843,5.560341716117826 L56.85138520739843,3.7640492380768267 " />
			<path d="M-47.17816444076645,-24.470402530403952 L-47.17816444076645,-26.26669500844495 " />
			<path d="M-47.17816444076644,-26.26669500844497 L-46.604642360665935,-25.937025886074494 L-46.028612977433625,-25.608817153329937 L-45.45008744696466,-25.282075166592207 L-44.86907697349669,-24.956806253835936 L-44.28559280939304,-24.63301671450695 L-43.6996462549247,-24.310712819400138 L-43.11124865805148,-23.989900810538145 L-42.52041141420227,-23.670586901050427 L-41.92714596605428,-23.35277727505286 L-41.331463803311536,-23.03647808752808 L-40.73337646248224,-22.72169546420625 L-40.13289552665543,-22.408435501446377 L-39.53003262527666,-22.096704266118294 L-38.924799433922644,-21.786507795485136 L-38.31720767407532,-21.477852097086412 L-37.70726911289472,-21.170743148621696 L-37.0949955629911,-20.865186897834803 L-36.48039888219621,-20.5611892623987 L-35.86349097333354,-20.258756129800716 L-35.24428378398797,-19.95789335722874 L-34.62278930627414,-19.658606771457613 L-33.999019576604496,-19.360902168736374 L-33.37298667545595,-19.064785314675973 L-32.74470272713597,-18.7702619441376 L-32.11417989954788,-18.47733776112166 L-31.481430403955017,-18.186018438657257 L-30.846466494744462,-17.896309618692328 L-30.209300469189486,-17.608216911984428 L-29.569944667211544,-17.321745897992017 L-28.92841147114126,-17.0369021247664 L-28.284713305478533,-16.753691108844336 L-27.638862636652235,-16.472118335141204 " />
			<path d="M-27.638862636652064,-15.084074147563966 L-27.638862636652064,-16.4721183351411 " />
			<path d="M-27.638862636652064,-15.084074147563996 L-26.998333494148596,-14.807353820878106 " />
			<path d="M-26.998333494148437,-14.807353820878006 L-26.998333494148437,-16.195398008455143 " />
			<path d="M-26.998333494148426,-16.19539800845517 L-26.378409416844505,-15.929957837723066 L-25.756561268925992,-15.666022116213526 L-25.132800003437666,-15.40359549281034 L-24.507136607121424,-15.142682589816516 L-23.87958210022269,-14.883288002872845 L-23.25014753629631,-14.625416300876935 L-22.618844002011926,-14.369072025902824 L-21.985682616958613,-14.114259693120843 L-21.350674533449137,-13.86098379071818 L-20.71383093632342,-13.60924877981985 L-20.075163042751527,-13.359059094410028 L-19.434682102036163,-13.11041914125397 L-18.792399395414492,-12.863333299820468 L-18.1483262358594,-12.617805922204639 L-17.502473967880334,-12.373841333051288 L-16.854853967323564,-12.131443829478812 " />
			<path d="M-16.8548539673234,-10.743399641901611 L-16.8548539673234,-12.131443829478748 " />
			<path d="M-16.85485396732338,-10.743399641901604 L-16.181721041228045,-10.493805261752783 " />
			<path d="M-16.181721041227696,-10.493805261752643 L-16.181721041227696,-11.881849449329778 " />
			<path d="M-16.181721041227718,-11.881849449329792 L-15.530536298836282,-11.642656538612243 L-14.877618556979371,-11.405043592342835 L-14.222979315952202,-11.169014795764014 L-13.566630106371917,-10.934574306215424 L-12.908582488974588,-10.70172625306084 L-12.24884805441144,-10.470474737615262 L-11.587438423044887,-10.240823833072781 L-10.924365244743669,-10.012777584434843 L-10.2596401986778,-9.786340008438955 L-9.593274993112743,-9.561515093487927 L-8.925281365203247,-9.338306799579684 L-8.255671080786627,-9.11671905823745 L-7.584455934175452,-8.896755772440528 L-6.9116477479499,-8.678420816555587 L-6.237258372749395,-8.461718036268351 L-5.561299687064363,-8.24665124851603 " />
			<path d="M-5.561299687064009,-6.85860706093877 L-5.561299687064009,-8.246651248515906 " />
			<path d="M-5.5612996870640075,-6.858607060938766 L-4.859002747243636,-6.637414077085097 " />
			<path d="M-4.859002747243261,-6.637414077084988 L-4.859002747243261,-8.025458264662124 " />
			<path d="M-4.859002747243267,-8.025458264662134 L-4.179884952436268,-7.8137349112718795 L-3.499234085096191,-7.603658963794757 L-2.817062134001148,-7.395234122444862 L-2.133381114721132,-7.188464058354185 L-1.448203069406361,-6.98335241350793 L-0.7615400665752503,-6.779902800680475 L-0.07340420090180544,-6.578118803371595 L0.6161924069973992,-6.378003975743482 L1.3072376107767383,-6.179561842558073 L1.9997192385754374,-5.982795899114905 L2.693625093232029,-5.787709611189712 L3.3889429524990646,-5.594306414973218 L4.783765671737555,-5.212562894141968 L6.184089124784876,-4.837592232161512 " />
			<path d="M6.18408912478522,-3.4495480445842714 L6.18408912478522,-4.837592232161407 " />
			<path d="M6.184089124785231,-3.44954804458429 L6.911961277727315,-3.2578867730914 " />
			<path d="M6.911961277727668,-3.257886773091304 L6.911961277727668,-4.64593096066844 " />
			<path d="M6.911961277727642,-4.645930960668437 L8.320447577464606,-4.281293648330532 L9.734185435935501,-3.923494806931302 L11.15307524897841,-3.572559645001135 L12.57701704945309,-3.2285128874934372 L14.005910514284224,-2.891378774042707 L15.439654971529563,-2.5611810572566895 L16.878149407472677,-2.2379430010429786 L18.32129247373956,-1.921687378969935 " />
			<path d="M18.321292473739963,-0.5336431913927084 L18.321292473739963,-1.9216873789698443 " />
			<path d="M18.321292473739987,-0.5336431913926987 L19.07102034755831,-0.3724930386167671 " />
			<path d="M19.07102034755872,-0.3724930386166871 L19.07102034755872,-1.760537226193823 " />
			<path d="M19.071020347558687,-1.7605372261938186 L20.5210267930617,-1.4549252318864916 L21.975425211866543,-1.1563508388274357 L23.434113135092772,-0.8648350829194982 L24.89698779164511,-0.5803985027528711 L26.363946115454198,-0.3030611381581849 L27.834884752738034,-0.032842528794475356 L29.309700069283686,0.23023828722733697 L30.788288157748497,0.48616277468579483 " />
			<path d="M30.78828815774893,1.8742069622629849 L30.78828815774893,0.486162774685849 " />
			<path d="M30.78828815774893,1.8742069622630027 L31.556040575496425,2.0040225045299707 " />
			<path d="M31.556040575496823,2.0040225045300364 L31.556040575496823,0.6159783169529005 " />
			<path d="M-49.51161681868206,-24.919475649914208 L-49.51161681868206,-23.123183171873208 " />
			<path d="M-47.178164440766444,-26.266695008444955 L-49.51161681868205,-24.919475649914208 " />
			<path d="M-50.077302243631294,-25.246074282285296 L-49.51161681868206,-24.919475649914204 " />
			<path d="M-50.077302243631294,-25.246074282285296 L-50.077302243631294,-23.449781804244296 " />
			<path d="M-52.55217597778421,-23.817205265661773 L-52.55217597778421,-22.020912787620777 " />
			<path d="M-50.077302243631294,-25.246074282285296 L-52.55217597778421,-23.817205265661773 " />
			<path d="M-41.52131019127407,-15.652239456384509 L-41.52131019127407,-14.427494584992921 " />
			<path d="M-47.24887511888511,-18.959050609141805 L-47.24887511888511,-17.734305737750212 " />
			<path d="M-58.27974090539525,-13.16192488455495 L-58.27974090539525,-11.36563240651395 " />
			<path d="M-47.74384986571569,-19.244824412466507 L-58.27974090539524,-13.161924884554947 " />
			<path d="M-53.61283614956403,-8.671193689452455 L-53.61283614956403,-7.4464488180608654 " />
			<path d="M-65.704362107854,-16.223787063033917 L-65.704362107854,-14.42749458499292 " />
			<path d="M-58.27974090539525,-11.93718001316336 L-65.704362107854,-16.22378706303392 " />
			<path d="M-68.1792358420069,-14.7949180464104 L-68.1792358420069,-12.998625568369402 " />
			<path d="M-65.704362107854,-16.223787063033917 L-68.17923584200692,-14.794918046410398 " />
			<path d="M-69.94700279497329,-13.121100055508565 L-69.94700279497329,-11.324807577467567 " />
			<path d="M-68.1792358420069,-14.141720781668221 L-69.94700279497329,-13.12110005550856 " />
			<path d="M47.560002102607186,8.759841889667465 L47.560002102607186,9.634659654947194 " />
			<path d="M-26.998333494148433,-16.195398008455143 L-27.638862636652064,-15.701183522045742 " />
			<path d="M-16.181721041227703,-11.881849449329783 L-16.8548539673234,-11.276723730388337 " />
			<path d="M-4.859002747243283,-8.025458264662115 L-5.561299687064009,-7.282184249533888 " />
			<path d="M6.9119612777276735,-4.645930960668439 L6.18408912478522,-3.7245174222557225 " />
			<path d="M19.07102034755872,-1.760537226193806 L18.321292473739963,-0.5978702453315197 " />

       </g>
    </g>
    
</svg>
