<?xml version="1.0" encoding="UTF-8" standalone="no"?>
<svg
   xmlns:svg="http://www.w3.org/2000/svg"
   xmlns="http://www.w3.org/2000/svg"
   width="480.0"
   height="480.0"

>
    <g transform="scale(5.591741525945809, -5.591741525945809)   translate(43.67921152564707,-37.98756391178262)" stroke-width="0.1788351617040911"  fill="none">
       <!-- hidden lines -->
       <g  stroke="rgb(100,40,40)" fill="none" stroke-dasharray="0.1788351617040911,0.1788351617040911" >
			<path d="M16.09092191268106,14.713268388317633 L17.77383605190505,12.941470807704468 " />
			<path d="M16.09092191268106,14.713268388317633 L16.09092191268106,16.509560866358633 " />
			<path d="M2.7803438636255065,8.194359686190644 L2.780343863625506,9.990652164231644 " />
			<path d="M2.780343863625525,8.194359686190653 L11.194235737235502,10.858294090988702 " />
			<path d="M28.400236759576522,1.7538346558327742 L27.698786832639467,1.531747585820432 " />
			<path d="M29.285534449622094,-0.13880441875769378 L27.698786832639477,1.5317475858204315 " />
			<path d="M7.050912662290192,-7.663304612405319 L-11.629126229858349,6.716596031400869 " />
			<path d="M-11.629126229858358,6.716596031400826 L-10.870242132604815,7.042445587551796 L-10.108895300977437,7.366374527684556 L-9.345100317197236,7.688376647526368 L-8.578871810375148,8.008445779709248 L-7.81022445623185,8.32657579388804 L-7.0391729768167295,8.642760596857954 L-6.2657321402257224,8.956994132671184 L-5.489916760318636,9.269270382752907 L-4.711741696435382,9.57958336601655 L-3.9312218531113103,9.887927138978384 L-3.1483721797918065,10.19429579587134 L-2.36320767054589,10.49868346875813 L-1.5757433637791394,10.801084327643608 L-0.7859943419455817,11.10149258058648 L0.006024268741256833,11.399902473810187 L0.8002972985978971,11.696308291813153 L1.5968095347615616,11.99070435747825 L2.3955457214815254,12.283085032181475 L3.1964905604112914,12.573444715900038 L3.9996287109016464,12.861777847319544 L4.804944790294471,13.148078903940558 L5.6124233742174425,13.43234240218439 L6.422048996879212,13.714562897498013 L7.233806151365897,13.99473498445849 L8.047679289937918,14.272853296876434 L8.863652824327914,14.548912507898763 L9.681711126039147,14.82290733011078 L10.501838526645045,15.094832515637421 L11.324019318089128,15.364682856243746 L12.148237752985949,15.632453183434762 L12.974478044922648,15.898138368554314 L13.802724368760948,16.161733322883236 " />
			<path d="M15.389471985744013,14.4911813183053 L13.802724368761398,16.16173332288342 " />
			<path d="M16.09092191268106,14.713268388317633 L15.389471985744006,14.49118131830529 " />
			<path d="M2.7803438636255167,8.194359686190651 L3.501592780435795,7.435017865927869 " />
			<path d="M3.5015927804358,7.435017865927868 L10.603773290673484,9.683649449802836 " />
			<path d="M10.603773290673484,9.683649449802836 L18.104762025500403,1.7864945190698744 " />
			<path d="M11.00258151526272,-0.46213706480509087 L18.1047620255004,1.7864945190698749 " />
			<path d="M11.002581515262715,-0.4621370648050931 L11.723830432072997,-1.2214788850678797 " />
			<path d="M11.723830432073004,-1.2214788850678788 L26.717322620352547,3.5256322364459387 " />
			<path d="M26.717322620352537,3.525632236445931 L28.400236759576522,1.7538346558327724 " />
			<path d="M15.389471985744027,16.287473796346294 L15.389471985744027,14.491181318305294 " />
			<path d="M27.69878683263949,3.3280400638614314 L27.69878683263949,1.5317475858204328 " />
			<path d="M28.400236759576522,1.7538346558327742 L28.400236759576522,2.589542921017635 " />
			<path d="M-5.6087709883716705,-8.726715456955544 L-5.6087709883716705,-6.930422978914544 " />
			<path d="M-5.608770988371674,-8.726715456955544 L-17.70029694666166,-15.707761223887593 " />
			<path d="M-6.6694311601514915,-8.11434302125975 L-6.6694311601514915,-7.542795414610335 " />
			<path d="M-5.6087709883716705,-8.726715456955542 L-6.66943116015149,-8.114343021259748 " />
			<path d="M-6.669431160151493,-8.11434302125975 L-12.396996087762538,-11.421154174017037 " />
			<path d="M-12.396996087762538,-11.421154174017035 L-12.396996087762538,-10.849606567367623 " />
			<path d="M-12.396996087762536,-11.421154174017037 L-12.891970834593126,-11.135380370692328 " />
			<path d="M-17.700296946661616,-1.7456696900234752 L-23.42786187427266,-5.052480842780759 " />
			<path d="M-17.700296946661616,-1.7456696900234756 L-17.700296946661616,0.0506227880175234 " />
			<path d="M-18.760957118441432,-1.1332972543276796 L-18.760957118441432,-0.5617496476782651 " />
			<path d="M-17.700296946661613,-1.7456696900234725 L-18.760957118441432,-1.1332972543276778 " />
			<path d="M-18.760957118441432,-1.133297254327676 L-23.427861874272658,-3.827735971389173 " />
			<path d="M-33.32735681088433,-6.685474004636204 L-32.761671385935095,-6.358875372265113 " />
			<path d="M-32.76167138593509,-6.358875372265114 L-32.76167138593509,-4.562582894224114 " />
			<path d="M-32.76167138593509,-6.358875372265112 L-33.32735681088433,-6.032276739894021 " />
			<path d="M13.802724368761407,16.161733322883407 L13.802724368761407,17.958025800924407 " />
			<path d="M-11.629126229858349,6.716596031400867 L-11.629126229858349,8.104640218978004 " />
			<path d="M-11.629126229858386,8.104640218977949 L-12.269126229857463,7.827512089767339 " />
			<path d="M-12.269126229858339,6.439467902189837 L-12.269126229858339,7.827512089766973 " />
			<path d="M-35.09512376385068,-5.011656013734395 L-34.42491733379974,-4.62640189244388 L-33.751797022189905,-4.24284489151097 L-33.07577572142277,-3.860992357276075 L-32.396866379463304,-3.480851603433578 L-31.715081999591504,-3.1024299108918143 L-31.03043564015364,-2.7257345276336196 L-30.34294041431194,-2.3507726685774912 L-29.652609489793505,-1.9775515154393872 L-28.95945608863822,-1.6060782165952077 L-28.26349348694528,-1.2363598869439016 L-27.56473501461913,-0.8684036077711141 L-26.863194055113965,-0.502216426613586 L-26.1588840451776,-0.13780535712425035 L-25.45181847459388,0.2248226210622022 L-24.74201088592453,0.5856605624629907 L-24.0294748742496,0.9447015558802008 L-23.314224086907203,1.3019387245332439 L-22.596272223231992,1.6573652261905067 L-21.87563303429293,2.010974253300475 L-21.15232032262982,2.362759033121989 L-20.426347941988908,2.712712827854105 L-19.69772979705762,3.0608289347650555 L-18.966479843198172,3.407100686320703 L-18.232612086180396,3.75152145031214 L-17.496140581913338,4.094084629982845 L-16.75707943617614,4.434783664154878 L-16.01544280434787,4.773612027354716 L-15.271244891136249,5.1105632299381085 L-14.524499950305895,5.445630818214411 L-13.775222284404961,5.778808374570261 L-13.02342624449146,6.110089517592357 L-12.269126229858543,6.439467902189733 " />
			<path d="M3.5015927804358054,7.435017865927872 L3.501592780435805,9.231310343968872 " />
			<path d="M10.603773290673477,9.683649449802832 L10.603773290673477,11.479941927843832 " />
			<path d="M18.104762025500396,1.7864945190698722 L18.104762025500396,2.5950895201821678 " />
			<path d="M11.002581515262722,-0.4621370648050904 L11.002581515262722,1.3341554132359086 " />
			<path d="M11.723830432072992,-1.2214788850678797 L11.723830432072992,0.5748135929731193 " />
			<path d="M26.717322620352544,3.5256322364459383 L26.717322620352544,5.321924714486938 " />
			<path d="M7.690912662290181,-6.767932654536661 L-11.629126229858358,8.104640218978 " />
			<path d="M7.05091266229019,-8.43310497132482 L-12.269126229858339,6.439467902189838 " />
			<path d="M7.050912662290182,-7.045060783747677 L-12.269126229858358,7.827512089766989 " />

       </g>

       <!-- solid lines -->
       <g  stroke="rgb(200,20,20)" fill="none">
			<path d="M16.09092191268106,16.509560866358626 L17.77383605190505,14.73776328574546 " />
			<path d="M17.77383605190506,12.94147080770447 L17.77383605190506,14.73776328574547 " />
			<path d="M28.400236759576522,3.550127133873768 L27.698786832639467,3.3280400638614256 " />
			<path d="M27.69878683263948,3.3280400638614243 L29.285534449622098,1.6574880592833026 " />
			<path d="M-12.326285409643916,-16.360958488629805 L-11.748388278308582,-16.028785648070794 L-11.16794561547546,-15.69809556275223 L-10.584968834291814,-15.368894734978099 L-9.999469397732767,-15.041189637769335 L-9.411458818376033,-14.714986714736597 L-8.82094865817551,-14.390292379953507 L-8.227950528233933,-14.067113017830579 L-7.6324760885745775,-13.74545498298967 L-7.034537047911954,-13.425324600139064 L-6.434145163421647,-13.106728163949043 L-5.831312240509092,-12.789671938928166 L-5.2260501325774555,-12.474162159300064 L-4.618370740794546,-12.160205028880895 L-4.008286013858822,-11.847806720957308 L-3.3958079477644816,-11.536973378165115 L-2.7809485855655396,-11.227711112368453 L-2.163720017138985,-10.92002600453965 L-1.5441343789471773,-10.613924104639622 L-0.9222038537991182,-10.309411431498944 L-0.2979406706109273,-10.006493972699502 L0.3286428958345766,-9.705177684456757 L0.9575345251293186,-9.405468491502546 L1.58872185148212,-9.10737228696874 L2.22219246396196,-8.810894932271282 L2.8579339067418346,-8.516042256994908 L3.495933679343878,-8.222820058778552 L4.13617923688507,-7.931234103201376 L4.778657990323794,-7.641290123669378 L5.423357306707601,-7.3529938213026185 L6.070264509421378,-7.066350864823178 L6.719366878436759,-6.781366890443692 L7.370651650562195,-6.498047501756474 L8.024106019693889,-6.2163982696234115 L8.679717137067641,-5.936424732066314 L9.337472111511488,-5.6581323941581445 L9.997358009699056,-5.381526727914704 L10.659361856404146,-5.106613172187068 L11.323470634755537,-4.833397132554566 L11.989671286493149,-4.561883981218614 L12.65795071222476,-4.292079056896995 L13.328295771683543,-4.023987664718902 L14.000693283986465,-3.7576150761206435 L14.67513002789346,-3.4929665287419738 L15.351592742067353,-3.230047226323123 L16.030068125334722,-2.968862338602449 L16.71054283694731,-2.709417001214817 L17.3930034968444,-2.451716315590602 L18.077436685915956,-2.1957653488553746 L18.763828946266443,-1.941569133730269 L19.452166781479278,-1.6891326684330892 L20.14243665688258,-1.4384609165798707 L20.834624999814963,-1.189558807087451 L21.52871819989251,-0.9424312340764942 L22.224702609276505,-0.6970830567751989 L22.922564542941643,-0.4535190994238576 L23.62229027894513,-0.2117441511799001 L24.32386605869665,0.028237033976211023 L25.027278087228723,0.26641973733448765 L25.73251253346804,0.5027992755481563 L26.439555530507278,0.7373710007258154 L27.1483931758781,0.9701303005228112 L27.859011531824123,1.2010725982318462 L28.571396625575147,1.4301933528730473 L29.285534449621693,1.6574880592831533 " />
			<path d="M-14.659737787559504,-15.013739130099028 L-12.326285409643898,-16.360958488629777 " />
			<path d="M-15.225423212508744,-15.340337762470117 L-14.659737787559505,-15.013739130099028 " />
			<path d="M-15.225423212508744,-15.340337762470117 L-17.70029694666166,-13.911468745846593 " />
			<path d="M-5.608770988371674,-6.930422978914544 L-17.70029694666166,-13.911468745846593 " />
			<path d="M-5.6087709883716705,-6.930422978914545 L-6.66943116015149,-6.3180505432187495 " />
			<path d="M-6.669431160151493,-6.31805054321875 L-12.396996087762538,-9.624861695976037 " />
			<path d="M-12.396996087762536,-9.624861695976037 L-23.427861874272658,-3.256188364739762 " />
			<path d="M-17.700296946661616,0.050622788017523845 L-23.42786187427266,-3.25618836473976 " />
			<path d="M-17.700296946661613,0.05062278801752562 L-18.760957118441432,0.6629952237133203 " />
			<path d="M-18.760957118441432,0.6629952237133239 L-30.852483076731417,-6.318050543218726 " />
			<path d="M-30.852483076731417,-6.318050543218726 L-33.32735681088433,-4.889181526595204 " />
			<path d="M-33.327356810884325,-4.889181526595206 L-32.76167138593509,-4.562582894224116 " />
			<path d="M-35.095123763850694,-3.2153635356933634 L-32.76167138593509,-4.562582894224114 " />
			<path d="M-35.09512376385068,-3.215363535693399 L-34.41603964160184,-2.825028838331775 L-33.733964277609246,-2.436436519477269 L-33.04891108340705,-2.04959421995585 L-32.36089352908179,-1.6645095461830834 L-31.669925143007916,-1.2811900700146452 L-30.976019511581413,-0.8996433285974348 L-30.279190278952953,-0.5198768242213276 L-29.57945114675941,-0.1418980241717378 L-28.876815873854625,0.23428563941725145 L-28.171298276038655,0.6086667697090604 L-27.462912225786354,0.9812380053099901 L-26.75167165197435,1.3519920204140305 L-26.037590539607365,1.7209215249468315 L-25.32068292954314,2.088019264709132 L-24.60096291821641,2.453278021519324 L-23.87844465736164,2.816690613355405 L-23.153142353734793,3.1782498944962754 L-22.425070268834034,3.5379487556621 L-21.694242718619265,3.8957801241542143 L-20.960674073230663,4.251736963994119 L-20.22437875670606,4.605812276061869 L-19.485371246697397,4.957999098233728 L-18.74366607418601,5.308290505518954 L-17.999277823196948,5.656679610196079 L-17.252221130512154,6.003159561948252 L-16.502510685382745,6.347723547998015 L-15.750161229239993,6.69036479324123 L-14.995187555405792,7.0310765603802565 L-14.237604508801454,7.369852150056474 L-13.47742698565601,7.706684900982026 L-12.714669933213244,8.041568190070691 L-11.949348349437784,8.374495432568281 L-11.181477282720223,8.705460082181972 L-10.411071831581197,9.034455631209084 L-9.6381471443745,9.361475610665067 L-8.862718418989317,9.686513590410613 L-8.084800902551208,10.009563179278175 L-7.304409891122532,10.330618025197609 L-6.5215607294015,10.649671815321028 L-5.736268810420512,10.966718276147049 L-4.948549575243561,11.281751173643968 L-4.158418512662479,11.594764313372536 L-3.365891158892481,11.90575154060761 L-2.5709830972667334,12.214706740459235 L-1.7737099579297109,12.521623837992891 L-0.9740874175301428,12.826496798348884 L-0.17213119891262352,13.129319626861061 L0.6321429291915877,13.430086369174731 L1.4387191524745475,13.728791111363606 L2.247581611362506,14.02542798004616 L3.058714401328004,14.319991142501195 L3.8721015732023005,14.612474806782387 L4.68772713348919,14.902873221832238 L5.505575044679418,15.191180677595213 L6.325629225565962,15.477391505129873 L7.1478735515602665,15.761500076720523 L7.972291855009445,16.04350080598769 L8.79886792551396,16.323388147998145 L9.627585510246504,16.601156599373752 L10.458428314271416,16.87680069839982 L11.291380000865402,17.150315025132443 L12.126424191838396,17.421694201505062 L12.963544467855783,17.69093289143416 L13.802724368760948,17.958025800924233 " />
			<path d="M13.8027243687614,17.958025800924418 L15.389471985744018,16.28747379634629 " />
			<path d="M16.09092191268106,16.509560866358626 L15.389471985744006,16.287473796346283 " />
			<path d="M2.780343863625525,9.990652164231651 L17.773836051905064,14.737763285745467 " />
			<path d="M2.7803438636255167,9.99065216423165 L3.501592780435795,9.231310343968866 " />
			<path d="M3.5015927804358,9.231310343968868 L10.603773290673484,11.479941927843836 " />
			<path d="M10.603773290673484,11.479941927843836 L18.104762025500403,3.5827869971108743 " />
			<path d="M11.00258151526272,1.3341554132359073 L18.1047620255004,3.582786997110873 " />
			<path d="M11.002581515262715,1.334155413235905 L11.723830432072997,0.5748135929731184 " />
			<path d="M11.723830432073004,0.5748135929731202 L26.717322620352547,5.321924714486938 " />
			<path d="M26.717322620352537,5.321924714486924 L28.400236759576522,3.550127133873765 " />
			<path d="M11.194235737235502,10.858294090988702 L17.773836051905064,12.94147080770447 " />
			<path d="M7.690912662290174,-8.15597684211383 L8.335377457186794,-7.879440952864698 L8.981927452641514,-7.604532319941541 L9.630550322409476,-7.331256184379285 L10.281233700727213,-7.059617756089921 L10.93396518254842,-6.7896222137630815 L11.588732323780363,-6.52127470476745 L12.245522641521248,-6.254580345052446 L12.904323614298107,-5.989544219050856 L13.565122682305613,-5.726171379581814 L14.227907247645376,-5.464466847754466 L14.892664674566305,-5.204435612872317 L15.559382289705326,-4.946082632338005 L16.228047382329123,-4.689412831558883 L16.898647204576392,-4.4344311038531 L17.571168971700928,-4.18114231035625 L18.245599862315288,-3.929551279928802 L18.92192701863536,-3.6796628090638706 L19.600137546725236,-3.4314816617960133 L20.280218516743375,-3.18501256961018 L20.962156963188846,-2.9402602313516155 L21.645939885148593,-2.6972293131363045 L22.331554246545323,-2.4559244482619533 L23.018986976385946,-2.2163502371196273 L23.7082249690109,-1.9785112471061836 L24.39925508434392,-1.7424120125370308 L25.09206414814247,-1.508057034559826 L25.786638952249106,-1.2754507810685425 L26.48296625484315,-1.04459768661836 L27.181032780693116,-0.8155021523411534 L27.880825221409907,-0.5881685458614498 L28.58233023570044,-0.3626012012133515 L29.285534449621693,-0.138804418757843 " />
			<path d="M7.6909126622901995,-8.155976842113805 L7.050912662290192,-7.663304612405319 " />
			<path d="M28.400236759576522,2.589542921017635 L28.400236759576522,3.550127133873773 " />
			<path d="M29.285534449622077,1.6574880592833114 L29.285534449622077,-0.13880441875768756 " />
			<path d="M-12.326285409643907,-16.360958488629777 L-12.326285409643907,-18.157250966670777 " />
			<path d="M-12.326285409643916,-18.1572509666708 L-11.757265927873632,-17.830158729243564 L-11.185778186471723,-17.504504041260077 L-10.61183308064794,-17.180293111210673 L-10.03544155246091,-16.857532120061023 L-9.456614590609277,-16.536227221134183 L-8.875363230222462,-16.21638453999337 L-8.291698552650146,-15.898010174325108 L-7.70563168525112,-15.58111019382305 L-7.117173801180925,-15.26569064007218 L-6.526336119179092,-14.95175752643371 L-5.933129903355095,-14.63931683793038 L-5.337566462973697,-14.328374531132354 L-4.739657152239246,-14.018936534043732 L-4.139413370079382,-13.711008745989488 L-3.5368465599274828,-13.404597037502938 L-2.931968209504703,-13.099707250213967 L-2.3247898506008653,-12.79634519673749 L-1.7153230588546222,-12.494516660562795 L-1.1035794535328023,-12.194227395943159 L-0.4895706973088494,-11.895483127786221 L0.1266915039594636,-11.598289551544795 L0.7451954014532731,-11.302652333108341 L1.3659292036165454,-11.008577108694894 L1.988881076380963,-10.716069484743613 L2.6140391433914374,-10.425135037807962 L3.2413914862325583,-10.135779314449266 L3.870926144655911,-9.848007831131142 L4.502631116807933,-9.561826074114165 L5.136494359458865,-9.277239499351381 L5.772503788232186,-8.994253532384263 L6.410647277835238,-8.712873568239218 L7.050912662290003,-8.433104971324923 " />
			<path d="M7.050912662290192,-7.045060783747685 L7.050912662290192,-8.43310497132482 " />
			<path d="M7.050912662290173,-7.045060783747715 L7.6909126622900175,-6.767932654536764 " />
			<path d="M7.690912662290183,-6.767932654536656 L7.690912662290183,-8.155976842113791 " />
			<path d="M-14.659737787559502,-16.810031608140026 L-14.659737787559502,-15.013739130099028 " />
			<path d="M-12.326285409643901,-18.157250966670777 L-14.659737787559505,-16.810031608140026 " />
			<path d="M-15.225423212508744,-17.136630240511117 L-14.659737787559505,-16.810031608140026 " />
			<path d="M-15.225423212508744,-17.136630240511117 L-15.225423212508744,-15.340337762470117 " />
			<path d="M-17.70029694666166,-15.707761223887596 L-17.70029694666166,-13.911468745846596 " />
			<path d="M-15.225423212508744,-17.136630240511117 L-17.70029694666166,-15.707761223887593 " />
			<path d="M-6.6694311601514915,-7.542795414610335 L-6.6694311601514915,-6.3180505432187495 " />
			<path d="M-12.396996087762538,-10.849606567367623 L-12.396996087762538,-9.624861695976035 " />
			<path d="M-23.427861874272658,-5.052480842780758 L-23.427861874272658,-3.2561883647397596 " />
			<path d="M-12.891970834593126,-11.135380370692328 L-23.427861874272658,-5.052480842780762 " />
			<path d="M-18.760957118441432,-0.5617496476782651 L-18.760957118441432,0.6629952237133194 " />
			<path d="M-30.852483076731417,-8.114343021259726 L-30.852483076731417,-6.318050543218726 " />
			<path d="M-23.427861874272658,-3.827735971389173 L-30.852483076731417,-8.114343021259726 " />
			<path d="M-33.32735681088433,-6.685474004636204 L-33.32735681088433,-4.8891815265952046 " />
			<path d="M-30.852483076731417,-8.114343021259726 L-33.32735681088433,-6.685474004636204 " />
			<path d="M-35.095123763850694,-5.011656013734364 L-35.095123763850694,-3.215363535693365 " />
			<path d="M-33.32735681088433,-6.032276739894021 L-35.095123763850694,-5.0116560137343615 " />
			<path d="M18.104762025500396,2.5950895201821678 L18.104762025500396,3.5827869971108712 " />

       </g>
    </g>
    
</svg>
