<?xml version="1.0" encoding="UTF-8" standalone="no"?>
<svg
   xmlns:svg="http://www.w3.org/2000/svg"
   xmlns="http://www.w3.org/2000/svg"
   width="480.0"
   height="480.0"

>
    <g transform="scale(5.1425947722658, -5.1425947722658)   translate(47.80041840821058,-41.00738334139363)" stroke-width="0.1944543648263006"  fill="none">
       <!-- hidden lines -->
       <g  stroke="rgb(100,40,40)" fill="none" stroke-dasharray="0.1944543648263006,0.1944543648263006" >
			<path d="M14.707821048680175,17.513851660899732 L14.707821048680175,19.22849448084796 " />
			<path d="M14.707821048680175,17.513851660899732 L31.536962440920064,-0.20412414523191202 " />
			<path d="M14.707821048680179,17.513851660899732 L10.323759005323591,16.125807473322595 " />
			<path d="M10.323759005323579,16.12580747332259 L10.323759005323579,17.83092916326754 " />
			<path d="M7.277145978506805,-8.36056124327611 L-13.082896345665912,7.312606645488282 " />
			<path d="M10.323759005323579,16.12580747332259 L10.33066774805192,16.118533843987702 " />
			<path d="M-13.08289634566593,7.312606645488259 L-12.381820706594752,7.613754708634289 L-11.67865513168259,7.913274153616442 L-10.973410970834053,8.211160145844957 L-10.266099607504515,8.507407877095758 L-9.556732458516436,8.8020125655883 L-8.845320973875005,9.094969456062614 L-8.131876636583343,9.386273819856058 L-7.416410962457192,9.675920954979716 L-6.698935499938955,9.963906186194265 L-5.979461829911372,10.2502248650854 L-5.258001565510554,10.534872370138913 L-4.5345663519385795,10.817844106815272 L-3.8091678662754163,11.099135507623785 L-3.0818178172905704,11.3787420321963 L-2.352527945253968,11.65665916736053 L-1.6213100217466092,11.932882427212931 L-0.8881758494704002,12.207407353190959 L-0.15313726205778266,12.480229514145236 L0.5837938761194721,12.75134450641093 L1.3226056701414421,13.020747953878882 L2.063286194732399,13.288435508066257 L2.8058234944531506,13.554402848186754 L3.5502055838938986,13.818645681220247 L4.296420447867845,14.081159741982177 L5.0444560416051445,14.341940793192364 L5.794300290947305,14.600984625543433 L6.545941092541909,14.858287057768692 L7.299366314038139,15.113843936709657 L8.054563794282714,15.367651137383106 L8.811521343515935,15.619704563047662 L9.570226743568583,15.870000145269856 L10.330667748058616,16.118533843989752 " />
			<path d="M2.022325394193553,8.295605262225695 L10.376594024013865,10.94066226607269 " />
			<path d="M2.0223253941935493,8.295605262225692 L2.887824094365886,7.38439507791035 " />
			<path d="M2.887824094365886,7.384395077910355 L9.990004604603563,9.633026661785319 " />
			<path d="M9.990004604603557,9.633026661785317 L17.490993339430478,1.7358717310523541 " />
			<path d="M10.38881282919281,-0.5127598528226089 L17.49099333943048,1.7358717310523548 " />
			<path d="M10.388812829192805,-0.5127598528226116 L11.254311529365143,-1.4239700371379556 " />
			<path d="M11.254311529365145,-1.4239700371379458 L26.072441235910425,3.2676193168727856 " />
			<path d="M24.820353116327777,4.585836716848977 L26.072441235910425,3.2676193168727803 " />
			<path d="M10.33066774805202,16.118533843987628 L10.33066774805202,17.833176663935856 " />
			<path d="M-34.92091507483832,-3.4759762990516645 L-34.92091507483832,-1.761333479103438 " />
			<path d="M-13.082896345665926,7.312606645488293 L-13.082896345665926,8.169928055462407 " />
			<path d="M-13.082896345665844,8.169928055462407 L-13.722896345665177,7.8927999262516835 " />
			<path d="M-13.722896345665916,7.035478516277264 L-13.722896345665916,7.892799926251378 " />
			<path d="M-34.920915074834156,-3.47597629904935 L-34.29473751974406,-3.124086548791567 L-33.66611632902347,-2.7736520955362067 L-33.03506164934457,-2.4246785957001578 L-32.40158366665885,-2.077171682118802 L-31.765692606032687,-1.7311369639551373 L-31.1273987314823,-1.386580026609252 L-30.486712345808158,-1.0435064316280886 L-29.8436437904286,-0.7019217166157716 L-29.19820344521291,-0.36183139514417917 L-28.550401728313872,-0.023240956663940437 L-27.900249095999428,0.31384413358416907 L-27.247756042484113,0.6494184346573775 L-26.59293309975952,0.9834765299988817 L-25.93579083742428,1.316013027525102 L-25.276339862513666,1.6470225597128803 L-24.614590819328114,1.9764997836859948 L-23.950554389261598,2.304439381301478 L-23.28424129062914,2.630836059235392 L-22.615662278493843,2.9556845490683656 L-21.9448281444932,3.2789796073704878 L-21.2717497166651,3.600716015786105 L-20.596437859272825,3.9208885811179073 L-19.91890347262982,4.2394921354108845 L-19.239157492923695,4.556521536035632 L-18.557210892039777,4.871971665771412 L-17.87307467738394,5.185837432888761 L-17.186759891704938,5.49811377123163 L-16.498277612916226,5.808795640299195 L-15.807638953916992,6.117878025327229 L-15.114855062413042,6.425355937369005 L-14.419937120736577,6.731224413375855 L-13.722896345666115,7.035478516277152 " />
			<path d="M-34.93107499061541,-3.470110468942817 L-34.93107499061541,-1.7554676489945906 " />
			<path d="M-34.93107499061541,-3.470110468942817 L-38.46660889654815,-5.511351921262129 " />
			<path d="M-34.92091507483822,-3.4759762990517213 L-34.93107499061541,-3.470110468942817 " />
			<path d="M2.022325394193544,8.295605262225687 L2.0223253941935435,10.010248082173913 " />
			<path d="M2.8878240943658895,7.384395077910353 L2.887824094365889,9.09903789785858 " />
			<path d="M9.990004604603563,9.633026661785312 L9.990004604603563,11.347669481733538 " />
			<path d="M17.49099333943048,1.7358717310523528 L17.49099333943048,2.2652775786861445 " />
			<path d="M10.388812829192812,-0.5127598528226076 L10.388812829192812,1.2018829671256186 " />
			<path d="M11.254311529365138,-1.423970037137957 L11.254311529365138,0.2906727828102693 " />
			<path d="M26.072441235910425,3.267619316872779 L26.072441235910425,4.982262136821005 " />
			<path d="M-19.58685783886731,-1.0614455552060371 L-19.58685783886731,-0.8164965809277147 " />
			<path d="M-18.31406563273153,-1.7962924780409892 L-19.58685783886731,-1.0614455552060367 " />
			<path d="M-18.314065632731527,-1.7962924780409906 L-18.314065632731527,-0.08164965809276437 " />
			<path d="M-18.314065632731527,-1.796292478040992 L-24.041630560342576,-5.10310363079828 " />
			<path d="M-31.536962440919993,-7.960841664045319 L-31.536962440919993,-6.246198844097092 " />
			<path d="M-19.58685783886731,-1.0614455552060358 L-24.04163056034258,-3.633409785128374 " />
			<path d="M-30.05203820042824,-7.103520254071202 L-31.53696244091999,-7.960841664045312 " />
			<path d="M-13.01076477383246,-11.471776962034555 L-13.01076477383246,-11.22682798775623 " />
			<path d="M-13.010764773832456,-11.471776962034554 L-13.222896808188427,-11.349302474895392 " />
			<path d="M-17.9605122421383,-15.7992088409515 L-17.9605122421383,-14.084566021003274 " />
			<path d="M-17.9605122421383,-15.799208840951497 L-31.53696244091999,-7.960841664045315 " />
			<path d="M-7.283199846221406,-8.164965809277264 L-13.010764773832454,-11.471776962034552 " />
			<path d="M-7.283199846221408,-8.164965809277266 L-7.283199846221408,-7.920016834998942 " />
			<path d="M-6.010407640085626,-8.89981273211222 L-6.010407640085626,-7.185169912163994 " />
			<path d="M-6.010407640085626,-8.89981273211222 L-17.960512242138304,-15.799208840951497 " />
			<path d="M-6.010407640085622,-8.89981273211222 L-7.283199846221405,-8.164965809277264 " />
			<path d="M7.917145978506799,-7.995912063010478 L-13.08289634566593,8.1699280554624 " />
			<path d="M7.27714597850682,-9.130361602195627 L-13.72289634566592,7.035478516277266 " />
			<path d="M7.277145978506798,-8.273040192221496 L-13.722896345665928,7.89279992625138 " />

       </g>

       <!-- solid lines -->
       <g  stroke="rgb(200,20,20)" fill="none">
			<path d="M14.707821048680172,19.228494480847957 L31.536962440920057,1.5105186747163124 " />
			<path d="M31.536962440920057,-0.20412414523191558 L31.536962440920057,1.5105186747163108 " />
			<path d="M10.323759005323595,17.840450293270823 L14.70782104868018,19.22849448084796 " />
			<path d="M10.323759005323579,17.83092916326754 L10.323759005323579,17.840450293270816 " />
			<path d="M31.53696244092006,1.5105186747163124 L29.34493141924176,0.8164965809277417 " />
			<path d="M-11.950104602052662,-17.064778541389515 L-11.376606905104879,-16.735134477213222 L-10.800583055365678,-16.406961880309254 L-10.222044379095863,-16.08026720348066 L-9.64100225200491,-15.75505687047034 L-9.05746809902719,-15.431337275834807 L-8.471453394097352,-15.109114784818416 L-7.8829696599247825,-14.788395733228228 L-7.292028467766897,-14.469186427309438 L-6.698641437201758,-14.15149314362138 L-6.102820235899529,-13.835322128914044 L-5.504576579393046,-13.520679600005337 L-4.903922230847513,-13.207571743658804 L-4.300869000829138,-12.896004716461974 L-3.69542874707291,-12.585984644705277 L-3.0876133742495426,-12.27751762426169 L-2.47743483373128,-11.970609720466754 L-1.8649051233569196,-11.66526696799933 L-1.2500362871959396,-11.361495370763038 L-0.632840415311648,-11.059300901768083 L-0.013329643523476875,-10.758689503013883 L0.608483846831632,-10.459667085372203 L1.232587829138808,-10.162239528470934 L1.8589700317455993,-9.866412680578506 L2.4876181382032883,-9.572192358488863 L3.1185197875090296,-9.27958434740708 L3.7516625743490266,-8.988594400835666 L4.3870340493423186,-8.699228240461366 L5.024621719285591,-8.411491556042705 L5.664413047398938,-8.125390005298087 L6.3063954535722075,-7.840929213794567 L6.950556314612484,-7.558114774837222 L7.596882964492266,-7.276952249359155 L8.245362694598484,-6.997447165812204 L8.895982753982437,-6.719605020058154 L9.548730349610523,-6.443431275260764 L10.20359264661559,-6.168931361778277 L10.860556768549671,-5.8961106770567255 L11.519609797636818,-5.6249745855236455 L12.180738775027336,-5.35552841848282 L12.843930701052457,-5.087777474009201 L13.509172535480005,-4.821727016844974 L14.176451197770831,-4.5573822782958615 L14.845753567335976,-4.294748456128346 L15.517066483794551,-4.033830714467442 L16.190376747232804,-3.774634183695156 L16.865671118463354,-3.5171639603496203 L17.542936319285644,-3.261425107024891 L18.222159032747086,-3.0074226522713303 L18.90332590340485,-2.755161590496826 L19.58642353758833,-2.5046468818685668 L20.271438503662864,-2.2558834522154285 L20.958357332293403,-2.0088761929312255 L21.647166516709675,-1.7636299608784753 L22.337852512971665,-1.5201495782929015 L23.030401740235874,-1.2784398326886617 L23.724800581022365,-1.0385054767641293 L24.421035381482696,-0.8003512283085001 L25.119092451668138,-0.5639817701090237 L25.818958065799052,-0.329401749858917 L26.52061846253457,-0.09661578006596017 L27.224059845243502,0.1343715620381829 L27.92926838227531,0.36355573458791923 L28.636230207232146,0.5909322311731273 L29.344931419241362,0.8164965809275913 " />
			<path d="M-13.717871555019027,-18.085399267549132 L-11.950104602052654,-17.064778541389476 " />
			<path d="M10.323759005323579,17.840450293270813 L10.33066774805192,17.833176663935927 " />
			<path d="M-13.717871555019027,-18.085399267549132 L-38.46660889654815,-3.796709101313901 " />
			<path d="M-34.92091507483677,-1.7613334791026034 L-34.285762389795096,-1.4044205419920388 L-33.64809580652853,-1.049004918657232 L-33.00792591428841,-0.6950925112192436 L-32.365263343896814,-0.34268919683644583 L-31.7201187675697,0.008199172393247522 L-31.072502898739955,0.35756676952948396 L-30.422426491879364,0.7054077928861915 L-29.76990034231993,1.0517164661279708 L-29.114935286074783,1.3964870383660468 L-28.457542199658107,1.7397137842537092 L-27.797731999904627,2.0813910040814108 L-27.135515643788196,2.4215130238714693 L-26.470904128239894,2.760074195472157 L-25.80390848996548,3.0970688966516917 L-25.13453980526201,3.4324915311914026 L-24.462809189834005,3.7663365289787976 L-23.78872779860869,4.098598346100005 L-23.11230682555096,4.429271464931858 L-22.43355750347733,4.758350394233489 L-21.75249110386953,5.085829669237569 L-21.069118936687246,5.411703851741024 L-20.383452350180207,5.735967530195325 L-19.695502730700028,6.058615319796402 L-19.00528150251084,6.379641862574047 L-18.31280012759963,6.699041827480869 L-17.618070105486098,7.016809910480831 L-16.92110297303138,7.3329408346373555 L-16.22191030424672,7.647429350200937 L-15.52050371010121,7.9602702346962815 L-14.81689483832885,8.271458293009118 L-14.111095373235244,8.580988357472393 L-13.403117035503627,8.888855287952154 L-12.692971581999998,9.19505397193278 L-11.9806708055781,9.49957932460211 L-11.266226534883529,9.802426288935592 L-10.549650634157288,10.103589835780511 L-9.830955003038639,10.4030649639394 L-9.110151576367826,10.700846700253038 L-8.387252323987482,10.99693009968314 L-7.662269250544156,11.291310245394456 L-6.935214395288867,11.583982248836307 L-6.206099831877083,11.874941249823934 L-5.474937668168337,12.164182416619099 L-4.741740046025157,12.451700946010348 L-4.006519141111383,12.737492063392764 L-3.2692871626899773,13.021551022847305 L-2.530056353420335,13.303873107219545 L-1.7888389891548968,13.584453628198048 L-1.045647378735353,13.863287926392232 L-0.3004938637882333,14.140371371409714 L0.446609181480099,14.415699361933221 L1.1956493504887646,14.689267325797005 L1.9466142044887533,14.961070720062736 L2.6994912727690235,15.23110503109504 L3.454268052863881,15.499365774636289 L4.210932010760658,15.765848495881215 L4.969470581107615,16.03054876955086 L5.729871167422715,16.29346219996596 L6.492121142302963,16.55458442112011 L7.256207847633803,16.813911096752108 L8.022118594799437,17.071437920418035 L8.78984066489383,17.327160615562832 L9.5593613089314,17.581074935591175 L10.330667748058616,17.833176663937962 " />
			<path d="M-34.93107499061541,-1.7554676489945908 L-38.46660889654815,-3.7967091013139034 " />
			<path d="M-34.92091507483828,-1.7613334791034632 L-34.93107499061541,-1.7554676489945926 " />
			<path d="M2.022325394193553,10.010248082173922 L16.84045510073883,14.701837436184652 " />
			<path d="M2.0223253941935493,10.01024808217392 L2.887824094365886,9.099037897858578 " />
			<path d="M2.887824094365886,9.099037897858581 L9.990004604603563,11.347669481733547 " />
			<path d="M9.990004604603557,11.347669481733542 L17.490993339430478,3.4505145510005786 " />
			<path d="M10.38881282919281,1.2018829671256173 L17.49099333943048,3.4505145510005812 " />
			<path d="M10.388812829192805,1.2018829671256164 L11.254311529365143,0.2906727828102724 " />
			<path d="M11.254311529365145,0.2906727828102813 L26.072441235910425,4.982262136821013 " />
			<path d="M16.840455100738833,14.701837436184652 L26.072441235910425,4.9822621368210065 " />
			<path d="M-18.31406563273153,-0.08164965809276303 L-19.58685783886731,0.6531972647421895 " />
			<path d="M-18.314065632731527,-0.0816496580927657 L-24.041630560342576,-3.3884608108500536 " />
			<path d="M-19.58685783886731,0.6531972647421895 L-31.53696244091999,-6.246198844097087 " />
			<path d="M-13.010764773832456,-9.757134142086326 L-24.04163056034258,-3.3884608108500505 " />
			<path d="M-17.9605122421383,-14.084566021003269 L-31.53696244091999,-6.246198844097087 " />
			<path d="M-7.283199846221406,-6.450322989329038 L-13.010764773832454,-9.757134142086326 " />
			<path d="M-6.010407640085626,-7.185169912163993 L-17.960512242138304,-14.084566021003269 " />
			<path d="M-6.010407640085622,-7.185169912163993 L-7.283199846221405,-6.450322989329038 " />
			<path d="M31.536962440920057,-0.20412414523191558 L29.344931419241757,-0.8981462390204863 " />
			<path d="M29.344931419241767,0.8164965809277449 L29.344931419241767,-0.8981462390204815 " />
			<path d="M7.917145978506795,-8.853233472984627 L8.556636000294517,-8.578841642188706 L9.198194808944422,-8.306064313321116 L9.841810176287922,-8.034906685542268 L10.487469834958276,-7.765373927140914 L11.135161478624383,-7.497471175435621 L11.784872762225262,-7.231203536676944 L12.436591302205471,-6.966576085950024 L13.090304676751117,-6.703593867077814 L13.74600042602647,-6.442261892525053 L14.403666052411623,-6.182585143302688 L15.06328902074064,-5.924568568872871 L15.724856758540483,-5.668217087054714 L16.388356656270574,-5.413535583930496 L17.05377606756325,-5.160528913752557 L17.72110230946471,-4.9092018988507675 L18.390322662676837,-4.659559329540613 L19.061424371799546,-4.4116059640319065 L19.734394645573914,-4.165346528338105 L20.409220657126085,-3.9207857161861313 L21.085889544211597,-3.6779281889270976 L21.764388409460665,-3.4367785754472635 L22.44470432062394,-3.1973414720799553 L23.12682431081896,-2.9596214425178857 L23.81073537877748,-2.7236230177261547 L24.496424489093044,-2.4893506958559755 L25.183878572469553,-2.2568089421588553 L25.87308452597047,-2.0260021889015007 L26.564029213268327,-1.796934835281391 L27.256699464895306,-1.569611247342877 L27.951082078494125,-1.3440357578939626 L28.64716381906976,-1.1202126664237682 L29.344931419241362,-0.898146239020619 " />
			<path d="M7.917145978506814,-8.853233472984597 L7.277145978506805,-8.36056124327611 " />
			<path d="M10.376594024013865,10.94066226607269 L16.84045510073883,12.987194616236426 " />
			<path d="M16.840455100738833,12.987194616236426 L24.820353116327777,4.585836716848977 " />
			<path d="M-11.950104602052654,-17.06477854138948 L-11.950104602052654,-18.779421361337707 " />
			<path d="M-11.950104602052662,-18.779421361337725 L-11.385484552483476,-18.454857901691213 L-10.818415617442113,-18.131720706215503 L-10.248908605313417,-17.810015933934594 L-9.676974370952237,-17.489749716570344 L-9.102623815476477,-17.17092815842568 L-8.525867886059373,-16.85355733626814 L-7.94671757572074,-16.537643299214096 L-7.365183923117556,-16.223192068613514 L-6.7812780123334875,-15.910209637935083 L-6.195010972667731,-15.59870197265208 L-5.6063939784226875,-15.2886750101286 L-5.015438248691183,-14.980134659506405 L-4.422155047142567,-14.673086801592305 L-3.826555681807946,-14.367537288746107 L-3.2286515048648,-14.063491944768927 L-2.6284539124204116,-13.76095656479238 L-2.0259743442949087,-13.459936915167987 L-1.4212242838029425,-13.160438733357338 L-0.8142152575350678,-12.86246772782269 L-0.20495883513784463,-12.566029577918172 L0.4065333709065442,-12.27112993378158 L1.0202497055016693,-11.977774416226652 L1.6361784711590701,-11.685968616635904 L2.254307928221138,-11.395718096854068 L2.8746262950848376,-11.107028389082188 L3.4971217484263235,-10.819904995772006 L4.1217824234263105,-10.534353389521229 L4.748596413996239,-10.25037901296912 L5.377551773005109,-9.967987278692803 L6.008636512507181,-9.68718356910415 L6.641838603970669,-9.40797323634709 L7.277145978506624,-9.130361602195705 " />
			<path d="M7.277145978506805,-8.273040192221499 L7.277145978506805,-9.130361602195613 " />
			<path d="M7.2771459785067805,-8.27304019222153 L7.9171459785066105,-7.995912063010579 " />
			<path d="M7.917145978506796,-7.995912063010469 L7.917145978506796,-8.853233472984584 " />
			<path d="M-13.717871555019027,-19.80004208749736 L-11.950104602052654,-18.779421361337704 " />
			<path d="M-13.717871555019027,-19.80004208749736 L-13.717871555019027,-18.085399267549132 " />
			<path d="M-38.46660889654815,-5.511351921262127 L-38.46660889654815,-3.796709101313901 " />
			<path d="M-13.717871555019027,-19.80004208749736 L-38.46660889654815,-5.511351921262129 " />
			<path d="M16.84045510073883,12.987194616236422 L16.84045510073883,14.701837436184649 " />
			<path d="M17.49099333943048,2.2652775786861445 L17.49099333943048,3.450514551000579 " />
			<path d="M-19.58685783886731,-0.8164965809277147 L-19.58685783886731,0.6531972647421891 " />
			<path d="M-24.04163056034258,-5.103103630798282 L-24.04163056034258,-3.3884608108500553 " />
			<path d="M-24.04163056034258,-3.633409785128374 L-30.05203820042824,-7.103520254071202 " />
			<path d="M-13.01076477383246,-11.22682798775623 L-13.01076477383246,-9.75713414208633 " />
			<path d="M-13.222896808188427,-11.349302474895392 L-24.04163056034258,-5.1031036307982784 " />
			<path d="M-7.283199846221408,-7.920016834998942 L-7.283199846221408,-6.45032298932904 " />

       </g>
    </g>
    
</svg>
