<?xml version="1.0" encoding="UTF-8" standalone="no"?>
<svg
   xmlns:svg="http://www.w3.org/2000/svg"
   xmlns="http://www.w3.org/2000/svg"
   width="480.0"
   height="480.0"

>
    <g transform="scale(5.612453506198894, -5.612453506198894)   translate(43.48914122286413,-37.82546605218239)" stroke-width="0.17817519537498366"  fill="none">
       <!-- hidden lines -->
       <g  stroke="rgb(100,40,40)" fill="none" stroke-dasharray="0.17817519537498366,0.17817519537498366" >
			<path d="M16.107892475429544,14.726332333612476 L17.742723353532845,13.005157541016832 " />
			<path d="M16.107892475429544,14.726332333612476 L16.107892475429544,16.522624811653476 " />
			<path d="M2.7492311652533132,8.258046419503009 L2.749231165253313,10.054338897544008 " />
			<path d="M2.749231165253317,8.258046419503017 L11.163123038863288,10.921980824301064 " />
			<path d="M28.417207322325005,1.7668986011276129 L27.71575739538795,1.5448115311152704 " />
			<path d="M29.2063384901292,-0.02449489742781452 L27.71575739538795,1.5448115311152746 " />
			<path d="M-5.521089747504541,-8.754476340707088 L-17.612615705794525,-15.735522107639135 " />
			<path d="M-5.521089747504542,-8.75447634070709 L-6.652460597403015,-8.101279075964907 " />
			<path d="M-6.652460597403014,-8.101279075964907 L-12.380025525014059,-11.408090228722193 " />
			<path d="M-12.380025525014059,-11.408090228722193 L-12.804289593725992,-11.163141254443872 " />
			<path d="M-17.683326383913137,-1.7326057447286334 L-23.410891311524182,-5.039416897485918 " />
			<path d="M-17.68332638391314,-1.732605744728632 L-18.81469723381161,-1.0794084799864523 " />
			<path d="M-18.81469723381161,-1.0794084799864496 L-23.410891311524182,-3.733022368001558 " />
			<path d="M-33.310386248135856,-6.672410059341361 L-32.74470082318662,-6.345811426970271 " />
			<path d="M-32.74470082318662,-6.34581142697027 L-33.310386248135856,-6.019212794599179 " />
			<path d="M-34.93673184486491,-5.080241726532321 L-34.25827621324285,-4.690268282939655 L-33.57683210826369,-4.302035605287244 L-32.89241292904916,-3.9155513273294673 L-32.20503213321936,-3.530823048442201 L-31.51470323662818,-3.1478583334733656 L-30.8214398130975,-2.7666647125942347 L-30.12525549415031,-2.3872496811513884 L-29.426163968742713,-2.009620699519246 L-28.724178982994715,-1.633785192953468 L-28.0193143399199,-1.2597505514449097 L-27.311583899154158,-0.887524129574274 L-26.601001576683046,-0.5171132463676145 L-25.887581344568133,-0.14852518515229463 L-25.171337230672407,0.2182328065861725 L-24.45228331838439,0.5831535173465596 L-23.730433746341163,0.9462297717538348 L-23.005802708150327,1.3074544307002185 L-22.27840445211112,1.6668203914855013 L-21.548253280934034,2.024320587956808 L-20.81536355145971,2.379947990647395 L-20.079749674376586,2.733695606914992 L-19.341426113937587,3.08555648107928 L-18.60040738767563,3.435523694558597 L-17.8567080661183,3.783590366006024 L-17.11034277250124,4.129749651444683 L-16.361326182480695,4.473994744402319 L-15.609673023844778,4.8163188760451305 L-14.855398076224219,5.156715315310819 L-14.09851617080136,5.495177369041016 L-13.339042190018858,5.831698382112862 L-12.576991067286798,6.166271737569787 L-11.812377786689296,6.498890856751785 L-11.045217382689685,6.829549199424605 L-10.275524939834924,7.158240263908439 L-9.503315592459032,7.484957587205727 L-8.72860452438563,7.809694745128283 L-7.951406968629101,8.132445352423545 L-7.171738207095302,8.4532030629002 L-6.389613570281,8.7719615695529 L-5.605048436972382,9.08871460468633 L-4.81805823394275,9.403455940038427 L-4.028658435649106,9.716179386902823 L-3.236864563927938,10.0268787962506 L-2.442692187690085,10.335548058851089 L-1.6461569226143666,10.642181105392112 L-0.8472744308408124,10.946771906599224 L-0.0460604206625419,11.249314473354346 L0.7574693537830655,11.549802856813486 L1.5632990928242236,11.848231148523709 L2.3714129515651194,12.144593480539271 L3.1817950401979402,12.43888402553715 L3.994429424314845,12.731096996931456 L4.80930012522154,13.02122664898728 L5.626391120251469,13.30926727693371 L6.445686343080752,13.595213217075937 L7.267169684044049,13.87905884690666 L8.090824990451637,14.160798585216625 L8.916636066906634,14.4404268922044 L9.744586675623694,14.717938269585218 L10.57466053674807,14.993327260699175 L11.406841328676066,15.266588450618542 L12.241112688375608,15.537716466254096 L13.077458211708105,15.806705976460918 L13.915861453750793,16.07355169214304 " />
			<path d="M15.406442548492493,14.504245263600136 L13.915861453751244,16.073551692143226 " />
			<path d="M16.107892475429544,14.726332333612476 L15.406442548492484,14.504245263600131 " />
			<path d="M2.7492311652533123,8.258046419503012 L3.5185633431842764,7.4480818112227105 " />
			<path d="M3.5185633431842724,7.4480818112227105 L10.620743853421962,9.69671339509768 " />
			<path d="M10.62074385342196,9.696713395097678 L18.12173258824888,1.7995584643647167 " />
			<path d="M11.0195520780112,-0.44907311951024864 L18.12173258824888,1.7995584643647171 " />
			<path d="M11.019552078011198,-0.44907311951025264 L11.788884255942165,-1.2590377277905578 " />
			<path d="M11.788884255942161,-1.259037727790557 L26.78237644422171,3.488073393723262 " />
			<path d="M26.782376444221704,3.488073393723255 L28.417207322325005,1.7668986011276147 " />
			<path d="M15.406442548492494,16.300537741641133 L15.406442548492489,14.504245263600133 " />
			<path d="M27.715757395387957,3.341104009156273 L27.715757395387953,1.5448115311152728 " />
			<path d="M28.417207322325005,1.7668986011276129 L28.417207322325005,2.6026068663124735 " />
			<path d="M-5.52108974750454,-8.75447634070709 L-5.52108974750454,-6.95818386266609 " />
			<path d="M-6.652460597403014,-8.101279075964907 L-6.652460597403014,-7.611381127408267 " />
			<path d="M-12.380025525014059,-11.408090228722191 L-12.380025525014059,-10.918192280165552 " />
			<path d="M-17.68332638391314,-1.7326057447286325 L-17.68332638391314,0.06368673331236652 " />
			<path d="M-18.814697233811607,-1.07940847998645 L-18.814697233811607,-0.5895105314298097 " />
			<path d="M-32.74470082318661,-6.345811426970271 L-32.74470082318661,-4.549518948929272 " />
			<path d="M13.91586145375124,16.073551692143223 L13.91586145375124,17.869844170184223 " />
			<path d="M3.518563343184284,7.448081811222716 L3.5185633431842835,9.244374289263714 " />
			<path d="M10.620743853421958,9.69671339509767 L10.620743853421958,11.493005873138669 " />
			<path d="M18.121732588248882,1.7995584643647091 L18.121732588248882,2.542306967015099 " />
			<path d="M11.019552078011198,-0.4490731195102491 L11.019552078011198,1.34721935853075 " />
			<path d="M11.788884255942168,-1.259037727790552 L11.788884255942168,0.537254750250447 " />
			<path d="M26.78237644422171,3.48807339372326 L26.78237644422171,5.28436587176426 " />

       </g>

       <!-- solid lines -->
       <g  stroke="rgb(200,20,20)" fill="none">
			<path d="M16.107892475429544,16.522624811653476 L17.742723353532845,14.801450019057832 " />
			<path d="M17.742723353532856,13.005157541016834 L17.742723353532856,14.801450019057834 " />
			<path d="M28.417207322325005,3.5631910791686128 L27.715757395387957,3.3411040091562723 " />
			<path d="M27.71575739538796,3.34110400915627 L29.206338490129205,1.7717975806131818 " />
			<path d="M-12.45073620313272,-16.2662448852422 L-11.872210581170606,-15.933710790914219 L-11.291136659324081,-15.602661064393573 L-10.707525863152739,-15.273102215055786 L-10.121389668098246,-14.94504072296155 L-9.532739599258804,-14.61848303872921 L-8.941587231162458,-14.293435583408012 L-8.347944187539596,-13.969904748351837 L-7.7518221410943084,-13.647896895093481 L-7.153232813274897,-13.327418355219649 L-6.5521879740434485,-13.008475430246392 L-5.948699441644308,-12.691074391495206 L-5.3427790823718055,-12.375221479969738 L-4.734438810336812,-12.060922906233102 L-4.123690587232588,-11.748184850285668 L-3.5105464220995373,-11.43701346144367 L-2.89501837108908,-11.127414858218202 L-2.2771185372264995,-10.819395128194898 L-1.656859070173141,-10.512960327914342 L-1.0342521659873967,-10.208116482752843 L-0.40931006688492744,-9.904869586804097 L0.21795493900206964,-9.603225602761185 L0.8475305178664598,-9.303190461799403 L1.4794042904687075,-9.004770063459702 L2.1135638323802652,-8.707970275532546 L2.749996674227873,-8.412796933942658 L3.38869030193878,-8.119255842634175 L4.029632156986821,-7.827352773456596 L4.672809636639187,-7.537093466051246 L5.318210094204488,-7.248483627738466 L5.965820839281193,-6.961528933405333 L6.615629138007307,-6.6762350253941065 L7.267622213310688,-6.392607513391297 L7.921787245160303,-6.1106519743173635 L8.578111370818306,-5.8303739522169735 L9.236581685092986,-5.551778958150123 L9.89718524059235,-5.274872470083693 L10.55990904797899,-4.999659932783757 L11.224740076225274,-4.726146757708477 L11.891665252869615,-4.4543383229017905 L12.560671464273597,-4.184239972887596 L13.231745555879684,-3.9158570185646653 L13.904874332470044,-3.649194737102249 L14.580044558425897,-3.3842583718362675 L15.257242957987671,-3.1210531321662813 L15.936456215516344,-2.8595841934529886 L16.617670975754947,-2.5998566969164756 L17.3008738440913,-2.3418757495352054 L17.986051386821444,-2.085646423945448 L18.673190131413733,-1.8311737583416914 L19.362276566773616,-1.5784627563775047 L20.053297143509624,-1.327518387067144 L20.746238274199385,-1.0783455846878383 L21.441086333657125,-0.830949248682856 L22.137827659201406,-0.5853342435650148 L22.83644855092382,-0.34150539882122644 L23.536935271958313,-0.09946750881735511 L24.239274048751426,0.14077466729595756 L24.94345107133303,0.37921640567691384 L25.649452493587816,0.6158530178853852 L26.357264433527604,0.8506798509751547 L27.0668729735644,1.0836922875854071 L27.778264160783877,1.3148857460314787 L28.49142400721979,1.5442556803949685 L29.206338490128815,1.7717975806130255 " />
			<path d="M-14.642767224811024,-15.000675184804187 L-12.450736203132735,-16.266244885242163 " />
			<path d="M-15.208452649760265,-15.327273817175275 L-14.642767224811026,-15.000675184804185 " />
			<path d="M-15.208452649760265,-15.327273817175275 L-17.612615705794525,-13.939229629598136 " />
			<path d="M-17.612615705794525,-13.939229629598138 L-5.521089747504541,-6.95818386266609 " />
			<path d="M-6.652460597403015,-6.304986597923908 L-5.521089747504542,-6.95818386266609 " />
			<path d="M-12.380025525014059,-9.611797750681195 L-6.652460597403014,-6.304986597923908 " />
			<path d="M-23.410891311524182,-3.2431244194449205 L-12.380025525014059,-9.611797750681195 " />
			<path d="M-23.410891311524182,-3.2431244194449187 L-17.683326383913137,0.06368673331236574 " />
			<path d="M-18.81469723381161,0.7168839980545476 L-17.68332638391314,0.06368673331236785 " />
			<path d="M-30.906223192101596,-6.2641617688775 L-18.81469723381161,0.7168839980545494 " />
			<path d="M-30.906223192101592,-6.264161768877498 L-33.310386248135856,-4.876117581300361 " />
			<path d="M-33.310386248135856,-4.876117581300363 L-32.74470082318662,-4.549518948929273 " />
			<path d="M-34.93673184486491,-3.283949248491295 L-32.74470082318661,-4.549518948929272 " />
			<path d="M-34.93673184486491,-3.283949248491325 L-34.25827621324285,-2.893975804898659 L-33.57683210826369,-2.505743127246248 L-32.89241292904916,-2.119258849288471 L-32.20503213321936,-1.7345305704012048 L-31.51470323662818,-1.3515658554323693 L-30.8214398130975,-0.9703722345532384 L-30.12525549415031,-0.590957203110392 L-29.426163968742713,-0.2133282214782497 L-28.724178982994715,0.16250728508752843 L-28.0193143399199,0.5365419265960867 L-27.311583899154158,0.9087683484667224 L-26.601001576683046,1.2791792316733819 L-25.887581344568133,1.6477672928887017 L-25.171337230672407,2.014525284627169 L-24.45228331838439,2.379445995387556 L-23.730433746341163,2.742522249794831 L-23.005802708150327,3.103746908741215 L-22.27840445211112,3.4631128695264977 L-21.548253280934034,3.8206130659978044 L-20.81536355145971,4.176240468688391 L-20.079749674376586,4.529988084955988 L-19.341426113937587,4.881848959120276 L-18.60040738767563,5.2318161725995935 L-17.8567080661183,5.57988284404702 L-17.11034277250124,5.92604212948568 L-16.361326182480695,6.270287222443315 L-15.609673023844778,6.612611354086127 L-14.855398076224219,6.953007793351816 L-14.09851617080136,7.291469847082013 L-13.339042190018858,7.627990860153858 L-12.576991067286798,7.962564215610783 L-11.812377786689296,8.295183334792782 L-11.045217382689685,8.625841677465601 L-10.275524939834924,8.954532741949436 L-9.503315592459032,9.281250065246724 L-8.72860452438563,9.60598722316928 L-7.951406968629101,9.928737830464542 L-7.171738207095302,10.249495540941197 L-6.389613570281,10.568254047593896 L-5.605048436972382,10.885007082727327 L-4.81805823394275,11.199748418079423 L-4.028658435649106,11.51247186494382 L-3.236864563927938,11.823171274291596 L-2.442692187690085,12.131840536892085 L-1.6461569226143666,12.438473583433108 L-0.8472744308408124,12.74306438464022 L-0.0460604206625419,13.045606951395342 L0.7574693537830655,13.346095334854482 L1.5632990928242236,13.644523626564705 L2.3714129515651194,13.940885958580267 L3.1817950401979402,14.235176503578145 L3.994429424314845,14.527389474972452 L4.80930012522154,14.817519127028277 L5.626391120251469,15.105559754974706 L6.445686343080752,15.391505695116933 L7.267169684044049,15.675351324947655 L8.090824990451637,15.957091063257621 L8.916636066906634,16.236719370245396 L9.744586675623694,16.514230747626215 L10.57466053674807,16.78961973874017 L11.406841328676066,17.06288092865954 L12.241112688375608,17.334008944295093 L13.077458211708105,17.602998454501915 L13.915861453750793,17.869844170184038 " />
			<path d="M13.915861453751251,17.869844170184223 L15.4064425484925,16.300537741641133 " />
			<path d="M16.107892475429544,16.522624811653476 L15.406442548492489,16.300537741641133 " />
			<path d="M2.749231165253317,10.054338897544017 L17.742723353532853,14.801450019057832 " />
			<path d="M2.7492311652533123,10.05433889754401 L3.5185633431842764,9.244374289263709 " />
			<path d="M3.5185633431842724,9.244374289263709 L10.620743853421962,11.493005873138678 " />
			<path d="M10.62074385342196,11.493005873138678 L18.12173258824888,3.5958509424057166 " />
			<path d="M11.0195520780112,1.3472193585307495 L18.12173258824888,3.5958509424057152 " />
			<path d="M11.019552078011198,1.3472193585307455 L11.788884255942165,0.5372547502504403 " />
			<path d="M11.788884255942161,0.5372547502504421 L26.78237644422171,5.284365871764261 " />
			<path d="M26.782376444221704,5.284365871764255 L28.417207322325005,3.5631910791686146 " />
			<path d="M11.163123038863288,10.921980824301064 L17.742723353532853,13.005157541016832 " />
			<path d="M-12.45073620313272,-18.062537363283198 L-11.872210581170606,-17.730003268955215 L-11.291136659324081,-17.39895354243457 L-10.707525863152739,-17.069394693096783 L-10.121389668098246,-16.741333201002547 L-9.532739599258804,-16.414775516770206 L-8.941587231162458,-16.08972806144901 L-8.347944187539596,-15.766197226392833 L-7.7518221410943084,-15.444189373134478 L-7.153232813274897,-15.123710833260645 L-6.5521879740434485,-14.804767908287388 L-5.948699441644308,-14.487366869536203 L-5.3427790823718055,-14.171513958010735 L-4.734438810336812,-13.857215384274099 L-4.123690587232588,-13.544477328326664 L-3.5105464220995373,-13.233305939484666 L-2.89501837108908,-12.923707336259199 L-2.2771185372264995,-12.615687606235895 L-1.656859070173141,-12.309252805955339 L-1.0342521659873967,-12.004408960793839 L-0.40931006688492744,-11.701162064845093 L0.21795493900206964,-11.399518080802181 L0.8475305178664598,-11.0994829398404 L1.4794042904687075,-10.801062541500698 L2.1135638323802652,-10.504262753573542 L2.749996674227873,-10.209089411983655 L3.38869030193878,-9.915548320675171 L4.029632156986821,-9.623645251497592 L4.672809636639187,-9.333385944092242 L5.318210094204488,-9.044776105779462 L5.965820839281193,-8.75782141144633 L6.615629138007307,-8.472527503435103 L7.267622213310688,-8.188899991432294 L7.921787245160303,-7.90694445235836 L8.578111370818306,-7.62666643025797 L9.236581685092986,-7.34807143619112 L9.89718524059235,-7.071164948124689 L10.55990904797899,-6.7959524108247535 L11.224740076225274,-6.522439235749474 L11.891665252869615,-6.250630800942787 L12.560671464273597,-5.980532450928592 L13.231745555879684,-5.712149496605662 L13.904874332470044,-5.445487215143245 L14.580044558425897,-5.180550849877264 L15.257242957987671,-4.917345610207278 L15.936456215516344,-4.655876671493985 L16.617670975754947,-4.396149174957472 L17.3008738440913,-4.138168227576202 L17.986051386821444,-3.8819389019864445 L18.673190131413733,-3.6274662363826877 L19.362276566773616,-3.374755234418501 L20.053297143509624,-3.1238108651081404 L20.746238274199385,-2.8746380627288346 L21.441086333657125,-2.6272417267238524 L22.137827659201406,-2.381626721606011 L22.83644855092382,-2.137797876862223 L23.536935271958313,-1.8957599868583515 L24.239274048751426,-1.6555178107450388 L24.94345107133303,-1.4170760723640825 L25.649452493587816,-1.1804394601556112 L26.357264433527604,-0.9456126270658416 L27.0668729735644,-0.7126001904555892 L27.778264160783877,-0.48140673200951767 L28.49142400721979,-0.2520367976460278 L29.206338490128815,-0.02449489742797084 " />
			<path d="M-12.450736203132733,-18.062537363283163 L-14.642767224811026,-16.796967662845184 " />
			<path d="M-15.208452649760265,-17.123566295216275 L-14.642767224811026,-16.796967662845184 " />
			<path d="M-15.208452649760265,-17.123566295216275 L-17.612615705794525,-15.735522107639136 " />
			<path d="M-12.804289593725992,-11.163141254443872 L-23.410891311524182,-5.039416897485919 " />
			<path d="M-23.410891311524182,-3.733022368001558 L-30.906223192101596,-8.060454246918498 " />
			<path d="M-30.906223192101592,-8.060454246918498 L-33.310386248135856,-6.672410059341361 " />
			<path d="M-33.310386248135856,-6.019212794599179 L-34.93673184486491,-5.080241726532295 " />
			<path d="M28.417207322325005,2.6026068663124735 L28.417207322325005,3.563191079168612 " />
			<path d="M29.2063384901292,1.7717975806131818 L29.2063384901292,-0.024494897427817186 " />
			<path d="M-12.45073620313273,-16.266244885242166 L-12.45073620313273,-18.062537363283166 " />
			<path d="M-14.642767224811028,-16.796967662845184 L-14.642767224811028,-15.000675184804185 " />
			<path d="M-15.208452649760265,-17.123566295216275 L-15.208452649760265,-15.327273817175275 " />
			<path d="M-17.612615705794525,-15.735522107639136 L-17.612615705794525,-13.939229629598136 " />
			<path d="M-6.652460597403014,-7.611381127408267 L-6.652460597403014,-6.304986597923907 " />
			<path d="M-12.380025525014059,-10.918192280165552 L-12.380025525014059,-9.611797750681191 " />
			<path d="M-23.410891311524182,-5.039416897485918 L-23.410891311524182,-3.2431244194449182 " />
			<path d="M-18.814697233811607,-0.5895105314298097 L-18.814697233811607,0.7168839980545489 " />
			<path d="M-30.906223192101592,-8.060454246918498 L-30.906223192101592,-6.264161768877498 " />
			<path d="M-33.310386248135856,-6.672410059341361 L-33.310386248135856,-4.876117581300362 " />
			<path d="M-34.93673184486491,-5.080241726532292 L-34.93673184486491,-3.283949248491293 " />
			<path d="M18.121732588248882,2.542306967015099 L18.121732588248882,3.595850942405708 " />

       </g>
    </g>
    
</svg>
