<?xml version="1.0" encoding="UTF-8" standalone="no"?>
<svg
   xmlns:svg="http://www.w3.org/2000/svg"
   xmlns="http://www.w3.org/2000/svg"
   width="480.0"
   height="480.0"

>
    <g transform="scale(5.107922811364417, -5.107922811364417)   translate(48.101363054283574,-41.258094368310594)" stroke-width="0.19577429748451547"  fill="none">
       <!-- hidden lines -->
       <g  stroke="rgb(100,40,40)" fill="none" stroke-dasharray="0.19577429748451547,0.19577429748451547" >
			<path d="M14.945408927158853,17.61673023009663 L14.945408927158853,19.331373050044856 " />
			<path d="M14.945408927158853,17.61673023009663 L31.77455031939874,-0.10124557603501572 " />
			<path d="M14.945408927158862,17.61673023009663 L10.035259438599478,16.062120740010233 " />
			<path d="M10.03525943859947,16.06212074001023 L10.03525943859947,17.764811023071644 " />
			<path d="M7.251690134384092,-8.340965325333846 L-13.108352189788626,7.332202563430547 " />
			<path d="M10.03525943859947,16.06212074001023 L10.043925838307006,16.05299662269696 " />
			<path d="M-13.108352189788619,7.3322025634305135 L-12.414809805256183,7.6301281138879915 L-11.719221972873655,7.926459857845359 L-11.021599680593638,8.221193114255868 L-10.32195394850639,8.51432322732353 L-9.620295828665704,8.805845566576593 L-8.916636404914414,9.09575552694075 L-8.210986792709093,9.384048528811888 L-7.503358138944833,9.670720018128407 L-6.793761621778714,9.955765466443125 L-6.082208450453578,10.239180370994873 L-5.3687098651208345,10.52096025477961 L-4.6532771366628225,10.801100666621124 L-3.9359215665148923,11.079597181241354 L-3.2166544864869024,11.356445399330326 L-2.4954872585840775,11.631640947615537 L-1.7724312748275821,11.905179478931231 L-1.0474979570746257,12.177056672286838 L-0.32069875683802707,12.447268232935457 L0.4079548448948316,12.715809892441541 L1.1384513378431507,12.982677408748373 L1.8707791826145979,13.24786656624508 L2.6049268108877897,13.511373175833242 L3.340882625594773,13.773193074993031 L4.078635001104232,14.033322127848976 L4.818172283405389,14.291756225235318 L5.559482790291881,14.548491284760914 L6.302554811546216,14.803523250873653 L7.0473766091251235,15.056848094924703 L7.793936417344554,15.308461815231894 L8.54222244306574,15.558360437143122 L9.292222865881612,15.806540013099138 L10.04392583830284,16.05299662269563 " />
			<path d="M2.14111933343289,8.163332816115398 L10.495387963253211,10.808389819962395 " />
			<path d="M2.141119333432889,8.1633328161154 L2.8623682502431675,7.4039909958526176 " />
			<path d="M2.8623682502431684,7.403990995852615 L9.96454876048085,9.65262257972758 " />
			<path d="M9.964548760480842,9.652622579727582 L17.465537495307764,1.7554676489946193 " />
			<path d="M10.363356985070089,-0.4931639348803474 L17.465537495307768,1.7554676489946188 " />
			<path d="M10.363356985070089,-0.4931639348803447 L11.084605901880371,-1.2525057551431331 " />
			<path d="M11.08460590188037,-1.252505755143135 L26.078098090159912,3.494605366370682 " />
			<path d="M24.826009970577267,4.812822766346876 L26.078098090159912,3.494605366370683 " />
			<path d="M10.043925838306956,16.052996622697023 L10.043925838306956,17.76763944264525 " />
			<path d="M-34.73165409492998,-3.3353982229849493 L-34.73165409492998,-1.6207554030367228 " />
			<path d="M-13.108352189788643,7.332202563430558 L-13.108352189788643,8.189523973404672 " />
			<path d="M-13.108352189788533,8.189523973404675 L-13.748352189787866,7.912395844193952 " />
			<path d="M-13.748352189788633,7.05507443421953 L-13.748352189788633,7.912395844193644 " />
			<path d="M-34.73165409492988,-3.335398222984935 L-34.11137690775654,-2.9877699967328084 L-33.48871153980956,-2.6415678498355533 L-32.863667827111485,-2.2967972511249144 L-32.23625564325464,-1.9534636468188893 L-31.606484899245217,-1.6115724604358803 L-30.974365543346906,-1.2711290927088328 L-30.33990756092338,-0.9321389215001119 L-29.70312097428085,-0.5946073017163798 L-29.064015842509676,-0.258539565224126 L-28.422602261325423,0.07605897923461669 L-27.778890362909422,0.40918304612608836 L-27.13289031574864,0.7408273732083899 L-26.484612324475236,1.0709867216144744 L-25.834066629705106,1.3996558759350108 L-25.181263507876295,1.7268296443007358 L-24.526213271086633,2.052502858464436 L-23.86892626693087,2.3766703738826465 L-23.209412878337062,2.6993270697968654 L-22.547683523402767,3.020467849314457 L-21.883748655230292,3.3400876394892265 L-21.21761876176167,3.6581813914014703 L-20.549304365613025,3.974744080237741 L-19.878816023908186,4.289770705370316 L-19.206164328112138,4.603256290436036 L-18.53135990386353,4.91519588341508 L-17.854413410806856,5.22558455670908 L-17.175335542424236,5.534417407218982 L-16.49413702586621,5.841689556422509 L-15.810828621782562,6.147396150451229 L-15.12542112415214,6.451532360167263 L-14.437925360112459,6.754093381239485 L-13.748352189788804,7.0550744342194065 " />
			<path d="M-34.74439880038216,-3.328040063861394 L-34.74439880038216,-1.6133972439131676 " />
			<path d="M-34.74439880038216,-3.328040063861394 L-38.70419677502683,-5.614230490459025 " />
			<path d="M-34.73165409492998,-3.335398222984953 L-34.74439880038216,-3.328040063861394 " />
			<path d="M2.1411193334328793,8.1633328161154 L2.141119333432879,9.877975636063626 " />
			<path d="M2.862368250243173,7.403990995852618 L2.8623682502431724,9.118633815800845 " />
			<path d="M9.964548760480849,9.652622579727577 L9.964548760480849,11.367265399675803 " />
			<path d="M17.465537495307768,1.7554676489946233 L17.465537495307768,2.4824129920141407 " />
			<path d="M10.363356985070089,-0.4931639348803447 L10.363356985070089,1.2214788850678815 " />
			<path d="M11.084605901880362,-1.2525057551431362 L11.084605901880362,0.46213706480509 " />
			<path d="M26.0780980901599,3.49460536637068 L26.0780980901599,5.209248186318906 " />
			<path d="M-19.400181648634064,-1.1643241244029343 L-19.400181648634064,-0.6744261758462917 " />
			<path d="M-18.339521476854244,-1.7766965600987294 L-19.400181648634067,-1.164324124402933 " />
			<path d="M-18.339521476854248,-1.776696560098729 L-18.339521476854248,-0.0620537401505028 " />
			<path d="M-18.339521476854248,-1.7766965600987294 L-24.067086404465293,-5.083507712856015 " />
			<path d="M-31.49170760692405,-8.145369891334981 L-31.49170760692405,-6.430727071386755 " />
			<path d="M-19.400181648634064,-1.1643241244029312 L-24.067086404465293,-3.8587628414644275 " />
			<path d="M-30.006783366432302,-7.288048481360871 L-31.49170760692405,-8.14536989133498 " />
			<path d="M-13.036220617955173,-11.45218104409229 L-13.036220617955173,-10.962283095535653 " />
			<path d="M-13.03622061795517,-11.452181044092288 L-13.460484686667101,-11.20723206981397 " />
			<path d="M-18.339521476854287,-15.738788093962842 L-18.339521476854287,-14.024145274014616 " />
			<path d="M-18.33952147685429,-15.73878809396285 L-31.491707606924052,-8.145369891334985 " />
			<path d="M-7.308655690344123,-8.145369891335005 L-13.03622061795517,-11.45218104409229 " />
			<path d="M-7.308655690344125,-8.145369891335003 L-7.308655690344125,-7.655471942778365 " />
			<path d="M-6.247995518564306,-8.7577423270308 L-6.247995518564306,-7.043099507082573 " />
			<path d="M-6.247995518564306,-8.757742327030797 L-18.33952147685429,-15.738788093962846 " />
			<path d="M-6.247995518564306,-8.757742327030797 L-7.308655690344125,-8.145369891335003 " />
			<path d="M7.891690134384092,-7.976316145068217 L-13.108352189788636,8.189523973404661 " />
			<path d="M7.251690134384106,-9.110765684253362 L-13.748352189788633,7.055074434219531 " />
			<path d="M7.251690134384086,-8.253444274279234 L-13.74835218978864,7.912395844193641 " />

       </g>

       <!-- solid lines -->
       <g  stroke="rgb(200,20,20)" fill="none">
			<path d="M14.945408927158853,19.331373050044853 L31.77455031939874,1.6133972439132087 " />
			<path d="M31.774550319398738,-0.10124557603501572 L31.774550319398738,1.6133972439132107 " />
			<path d="M10.035259438599482,17.776763559958457 L14.945408927158866,19.331373050044853 " />
			<path d="M10.03525943859947,17.764811023071644 L10.03525943859947,17.776763559958457 " />
			<path d="M31.77455031939874,1.6133972439132087 L29.319475575119046,0.8360924988700088 " />
			<path d="M-11.97556044617535,-17.045182623447246 L-11.402062749227568,-16.715538559270954 L-10.826038899488367,-16.387365962366985 L-10.247500223218552,-16.06067128553839 L-9.666458096127599,-15.735460952528072 L-9.08292394314988,-15.411741357892538 L-8.496909238220042,-15.089518866876148 L-7.908425504047472,-14.76879981528596 L-7.3174843118895865,-14.44959050936717 L-6.724097281324447,-14.131897225679111 L-6.128276080022218,-13.815726210971775 L-5.530032423515735,-13.501083682063069 L-4.929378074970202,-13.187975825716535 L-4.326324844951827,-12.876408798519705 L-3.720884591195599,-12.566388726763009 L-3.1130692183722317,-12.257921706319422 L-2.5028906778539692,-11.951013802524486 L-1.8903609674796087,-11.64567105005706 L-1.2754921313186287,-11.341899452820769 L-0.6582962594343371,-11.039704983825814 L-0.03878548764616596,-10.739093585071615 L0.583028002708943,-10.440071167429934 L1.2071319850161188,-10.142643610528665 L1.8335141876229102,-9.846816762636237 L2.462162294080599,-9.552596440546594 L3.0930639433863405,-9.259988429464812 L3.7262067302263375,-8.968998482893397 L4.3615782052196295,-8.679632322519097 L4.999165875162902,-8.391895638100436 L5.638957203276249,-8.105794087355818 L6.2809396094495185,-7.821333295852298 L6.925100470489795,-7.538518856894953 L7.571427120369577,-7.2573563314168865 L8.219906850475795,-6.9778512478699355 L8.870526909859748,-6.700009102115885 L9.523274505487834,-6.423835357318495 L10.1781368024929,-6.149335443836009 L10.835100924426982,-5.876514759114457 L11.494153953514129,-5.605378667581377 L12.155282930904647,-5.335932500540551 L12.818474856929768,-5.068181556066932 L13.483716691357316,-4.802131098902706 L14.150995353648142,-4.537786360353593 L14.820297723213287,-4.275152538186077 L15.491610639671862,-4.014234796525173 L16.164920903110115,-3.755038265752887 L16.840215274340665,-3.4975680424073516 L17.517480475162955,-3.2418291890826225 L18.196703188624397,-2.9878267343290617 L18.87787005928216,-2.735565672554557 L19.560967693465642,-2.485050963926298 L20.245982659540175,-2.23628753427316 L20.932901488170714,-1.9892802749889569 L21.621710672586985,-1.7440340429362067 L22.312396668848976,-1.5005536603506329 L23.004945896113185,-1.258843914746393 L23.699344736899675,-1.0189095588218606 L24.395579537360007,-0.7807553103662315 L25.09363660754545,-0.5443858521667551 L25.793502221676363,-0.30980583191664834 L26.495162618411882,-0.0770198621236915 L27.198604001120813,0.15396747998045157 L27.90381253815262,0.3831516525301879 L28.610774363109456,0.610528149115396 L29.319475575118673,0.8360924988698599 " />
			<path d="M-13.955459433497703,-18.188277836746025 L-11.975560446175367,-17.04518262344721 " />
			<path d="M10.03525943859947,17.776763559958454 L10.043925838307006,17.767639442645184 " />
			<path d="M-13.955459433497703,-18.188277836746025 L-38.70419677502682,-3.899587670510794 " />
			<path d="M-34.73165409493451,-1.6207554030393396 L-34.10239015940856,-1.2681109188804243 L-33.47066862375958,-0.9169341359661445 L-32.836499757748285,-0.5672307633016516 L-32.19989387092109,-0.21900648593923222 L-31.560861312442555,0.12773303511418987 L-30.919412470926957,0.47298216298906937 L-30.275557774269785,0.8167352850448424 L-29.62930768947787,1.1589868129611602 L-28.980672722499335,1.4997311828288247 L-28.329663418052903,1.8389628552401263 L-27.676290359456274,2.176676315378998 L-27.020564168454356,2.5128660731105867 L-26.362495505046283,2.8475266630705676 L-25.702095067312243,3.18065264475392 L-25.039373591239737,3.512238602603489 L-24.37434185054873,3.84227914609788 L-23.707010656516715,4.170768909839239 L-23.037390857802862,4.497702553640337 L-22.365493340271755,4.823074762611483 L-21.691329026816376,5.146880247246941 L-21.014908877180417,5.469113743510761 L-20.3362438877803,5.789770012922574 L-19.655345091526286,6.108843842642614 L-18.972223557643204,6.426330045556455 L-18.28689039149033,6.742223460359455 L-17.599356734381118,7.056518951640513 L-16.90963376340183,7.369211409965658 L-16.217732691229983,7.680295751961083 L-15.52366476595192,7.989766920395766 L-14.827441270880186,8.29761988426371 L-14.129073524369844,8.60384963886574 L-13.428572879634672,8.908451205890799 L-12.725950724562452,9.211419633496945 L-12.021218481529942,9.512749996391847 L-11.314387607217085,9.812437395912823 L-10.60546959242096,10.110476960106496 L-9.894475961868665,10.406863843807983 L-9.181418274030221,10.701593228719673 L-8.466308120930606,10.994660323489569 L-7.74915712796124,11.286060363789176 L-7.0299769536910475,11.57578861239088 L-6.308779289676906,11.863840359245103 L-5.585575860273622,12.150210921556749 L-4.860378422443233,12.43489564386141 L-4.133198765564032,12.71788989810095 L-3.404048711238758,12.99918908369888 L-2.6729401131024417,13.278788627635066 L-1.9398848566298312,13.556683984520006 L-1.2048948589420263,13.8328706366689 L-0.4679820686127556,14.107344094174934 L0.27084153452571513,14.38009989498235 L1.0115639395775133,14.651133604958929 L1.7541731047783742,14.920440817968156 L2.498656957691395,15.188017155940813 L3.2450033954032307,15.453858268946092 L3.9932002847208707,15.717959835262391 L4.743235462368958,15.980317561447535 L5.495096735187516,16.240927182408612 L6.2487718803300965,16.49978446147125 L7.004248645462468,16.756885190448514 L7.761514748961915,17.01222518970934 L8.520557880116769,17.26580030824647 L9.281365699326713,17.517606423743885 L10.04392583830284,17.767639442643855 " />
			<path d="M-34.74439880038216,-1.6133972439131679 L-38.70419677502683,-3.8995876705107984 " />
			<path d="M-34.73165409493009,-1.6207554030366573 L-34.74439880038216,-1.6133972439131679 " />
			<path d="M2.14111933343289,9.877975636063624 L17.13461152171243,14.62508675757744 " />
			<path d="M2.141119333432889,9.877975636063626 L2.8623682502431675,9.118633815800845 " />
			<path d="M2.8623682502431684,9.118633815800843 L9.96454876048085,11.367265399675809 " />
			<path d="M9.964548760480842,11.367265399675809 L17.465537495307764,3.4701104689428455 " />
			<path d="M10.363356985070089,1.2214788850678788 L17.465537495307768,3.470110468942845 " />
			<path d="M10.363356985070089,1.2214788850678815 L11.084605901880371,0.4621370648050931 " />
			<path d="M11.08460590188037,0.4621370648050922 L26.078098090159912,5.209248186318909 " />
			<path d="M17.134611521712433,14.625086757577442 L26.078098090159912,5.209248186318909 " />
			<path d="M-18.339521476854244,-0.062053740150503245 L-19.400181648634067,0.5503186955452932 " />
			<path d="M-18.339521476854248,-0.062053740150503245 L-24.067086404465293,-3.3688648929077885 " />
			<path d="M-19.400181648634064,0.5503186955452941 L-31.49170760692405,-6.430727071386755 " />
			<path d="M-13.03622061795517,-9.73753822414406 L-24.067086404465293,-3.3688648929077853 " />
			<path d="M-18.33952147685429,-14.024145274014622 L-31.491707606924052,-6.430727071386757 " />
			<path d="M-7.308655690344123,-6.430727071386777 L-13.03622061795517,-9.737538224144062 " />
			<path d="M-6.247995518564306,-7.043099507082573 L-18.33952147685429,-14.024145274014622 " />
			<path d="M-6.247995518564306,-7.043099507082572 L-7.308655690344125,-6.430727071386777 " />
			<path d="M31.774550319398738,-0.10124557603501572 L29.319475575119043,-0.8785503210782156 " />
			<path d="M29.319475575119053,0.8360924988700118 L29.319475575119053,-0.8785503210782146 " />
			<path d="M7.891690134384106,-8.833637555042372 L8.531180156171828,-8.559245724246452 L9.172738964821733,-8.286468395378861 L9.816354332165233,-8.015310767600013 L10.462013990835587,-7.745778009198659 L11.109705634501694,-7.477875257493366 L11.759416918102573,-7.211607618734689 L12.411135458082782,-6.946980168007769 L13.064848832628428,-6.683997949135559 L13.72054458190378,-6.422665974582799 L14.378210208288934,-6.162989225360434 L15.037833176617951,-5.904972650930617 L15.699400914417794,-5.6486211691124595 L16.362900812147885,-5.393939665988242 L17.02832022344056,-5.140932995810303 L17.695646465342023,-4.889605980908513 L18.364866818554148,-4.639963411598359 L19.035968527676857,-4.392010046089652 L19.708938801451225,-4.145750610395851 L20.383764813003395,-3.901189798243877 L21.060433700088907,-3.658332270984843 L21.738932565337976,-3.417182657505009 L22.419248476501252,-3.177745554137701 L23.10136846669627,-2.9400255245756313 L23.78527953465479,-2.7040270997839 L24.470968644970355,-2.469754777913721 L25.158422728346864,-2.237213024216601 L25.84762868184778,-2.0064062709592463 L26.538573369145638,-1.7773389173391365 L27.231243620772617,-1.5500153294006225 L27.925626234371435,-1.324439839951708 L28.62170797494707,-1.1006167484815137 L29.319475575118673,-0.8785503210783645 " />
			<path d="M7.891690134384099,-8.833637555042332 L7.251690134384092,-8.340965325333846 " />
			<path d="M10.495387963253211,10.808389819962395 L17.13461152171243,12.910443937629214 " />
			<path d="M17.134611521712433,12.910443937629216 L24.826009970577267,4.812822766346876 " />
			<path d="M-11.975560446175367,-17.04518262344721 L-11.975560446175367,-18.75982544339544 " />
			<path d="M-11.97556044617535,-18.75982544339547 L-11.410940396606165,-18.43526198374896 L-10.843871461564802,-18.11212478827325 L-10.274364449436106,-17.79042001599234 L-9.702430215074926,-17.47015379862809 L-9.128079659599166,-17.151332240483427 L-8.551323730182062,-16.833961418325885 L-7.972173419843429,-16.518047381271842 L-7.390639767240245,-16.20359615067126 L-6.806733856456177,-15.890613719992828 L-6.22046681679042,-15.579106054709825 L-5.631849822545377,-15.269079092186345 L-5.040894092813872,-14.96053874156415 L-4.447610891265256,-14.65349088365005 L-3.852011525930635,-14.347941370803852 L-3.254107348987489,-14.043896026826673 L-2.6539097565431007,-13.741360646850126 L-2.051430188417598,-13.440340997225732 L-1.4466801279256316,-13.140842815415084 L-0.8396711016577569,-12.842871809880435 L-0.23041467926053372,-12.546433659975918 L0.3810775267838551,-12.251534015839326 L0.9947938613789802,-11.958178498284397 L1.610722627036381,-11.66637269869365 L2.228852084098449,-11.376122178911814 L2.8491704509621485,-11.087432471139934 L3.4716659043036344,-10.800309077829752 L4.096326579303621,-10.514757471578974 L4.72314056987355,-10.230783095026865 L5.35209592888242,-9.948391360750549 L5.983180668384492,-9.667587651161895 L6.61638275984798,-9.388377318404835 L7.251690134383935,-9.110765684253451 " />
			<path d="M7.251690134384092,-8.253444274279234 L7.251690134384092,-9.110765684253348 " />
			<path d="M7.251690134384091,-8.25344427427926 L7.891690134383921,-7.97631614506831 " />
			<path d="M7.891690134384083,-7.976316145068204 L7.891690134384083,-8.83363755504232 " />
			<path d="M-13.955459433497703,-19.902920656694253 L-11.975560446175367,-18.75982544339544 " />
			<path d="M-13.955459433497703,-19.902920656694253 L-13.955459433497703,-18.188277836746025 " />
			<path d="M-38.70419677502683,-5.614230490459021 L-38.70419677502683,-3.899587670510795 " />
			<path d="M-13.955459433497703,-19.902920656694253 L-38.70419677502682,-5.614230490459022 " />
			<path d="M17.13461152171242,12.910443937629207 L17.13461152171242,14.625086757577433 " />
			<path d="M17.465537495307768,2.4824129920141407 L17.465537495307768,3.4701104689428495 " />
			<path d="M-19.400181648634064,-0.6744261758462917 L-19.400181648634064,0.5503186955452919 " />
			<path d="M-24.067086404465293,-5.083507712856019 L-24.067086404465293,-3.368864892907792 " />
			<path d="M-24.067086404465293,-3.8587628414644275 L-30.006783366432302,-7.288048481360871 " />
			<path d="M-13.036220617955173,-10.962283095535653 L-13.036220617955173,-9.737538224144064 " />
			<path d="M-13.460484686667101,-11.20723206981397 L-24.067086404465293,-5.083507712856013 " />
			<path d="M-7.308655690344125,-7.655471942778365 L-7.308655690344125,-6.430727071386777 " />

       </g>
    </g>
    
</svg>
