<?xml version="1.0" encoding="UTF-8" standalone="no"?>
<svg
   xmlns:svg="http://www.w3.org/2000/svg"
   xmlns="http://www.w3.org/2000/svg"
   width="480.0"
   height="480.0"

>
    <g transform="scale(5.591741525945809, -5.591741525945809)   translate(43.67921152564707,-37.98756391178262)" stroke-width="0.1788351617040911"  fill="none">
       <!-- hidden lines -->
       <g  stroke="rgb(100,40,40)" fill="none" stroke-dasharray="0.1788351617040911,0.1788351617040911" >
			<path d="M16.09092191268106,14.713268388317633 L17.77383605190505,12.941470807704468 " />
			<path d="M16.09092191268106,14.713268388317633 L16.09092191268106,16.509560866358633 " />
			<path d="M2.7803438636255065,8.194359686190644 L2.780343863625506,9.990652164231644 " />
			<path d="M2.780343863625525,8.194359686190653 L11.194235737235502,10.858294090988702 " />
			<path d="M28.400236759576522,1.7538346558327742 L27.698786832639467,1.531747585820432 " />
			<path d="M29.285534449622094,-0.13880441875769378 L27.698786832639477,1.5317475858204315 " />
			<path d="M-5.608770988371675,-8.726715456955544 L-17.70029694666166,-15.70776122388759 " />
			<path d="M-5.608770988371672,-8.726715456955546 L-6.6694311601514915,-8.11434302125975 " />
			<path d="M-6.6694311601514915,-8.11434302125975 L-12.396996087762536,-11.421154174017035 " />
			<path d="M-12.396996087762536,-11.421154174017033 L-12.891970834593124,-11.135380370692326 " />
			<path d="M-17.700296946661616,-1.7456696900234747 L-23.427861874272658,-5.052480842780759 " />
			<path d="M-17.700296946661613,-1.745669690023476 L-18.760957118441432,-1.1332972543276805 " />
			<path d="M-18.760957118441436,-1.1332972543276796 L-23.427861874272658,-3.8277359713891723 " />
			<path d="M-33.32735681088433,-6.685474004636204 L-32.761671385935095,-6.358875372265113 " />
			<path d="M-32.76167138593509,-6.358875372265112 L-33.32735681088433,-6.032276739894021 " />
			<path d="M-35.09512376385068,-5.011656013734395 L-34.41603964160184,-4.6213213163727715 L-33.733964277609246,-4.232728997518265 L-33.04891108340705,-3.8458866979968462 L-32.36089352908179,-3.46080202422408 L-31.669925143007916,-3.0774825480556416 L-30.976019511581413,-2.695935806638431 L-30.279190278952953,-2.316169302262324 L-29.57945114675941,-1.9381905022127341 L-28.876815873854625,-1.562006838623745 L-28.171298276038655,-1.187625708331936 L-27.462912225786354,-0.8150544727310063 L-26.75167165197435,-0.4443004576269658 L-26.037590539607365,-0.07537095309416486 L-25.32068292954314,0.2917267866681357 L-24.60096291821641,0.6569855434783278 L-23.87844465736164,1.0203981353144087 L-23.153142353734793,1.381957416455279 L-22.425070268834034,1.7416562776211038 L-21.694242718619265,2.099487646113218 L-20.960674073230663,2.455444485953123 L-20.22437875670606,2.8095197980208724 L-19.485371246697397,3.1617066201927315 L-18.74366607418601,3.511998027477958 L-17.999277823196948,3.8603871321550827 L-17.252221130512154,4.206867083907255 L-16.502510685382745,4.551431069957019 L-15.750161229239993,4.8940723152002334 L-14.995187555405792,5.23478408233926 L-14.237604508801454,5.573559672015477 L-13.47742698565601,5.91039242294103 L-12.714669933213244,6.245275712029695 L-11.949348349437784,6.578202954527285 L-11.181477282720223,6.9091676041409755 L-10.411071831581197,7.238163153168088 L-9.6381471443745,7.565183132624071 L-8.862718418989317,7.890221112369616 L-8.084800902551208,8.213270701237178 L-7.304409891122532,8.534325547156612 L-6.5215607294015,8.853379337280032 L-5.736268810420512,9.170425798106052 L-4.948549575243561,9.485458695602972 L-4.158418512662479,9.79847183533154 L-3.365891158892481,10.109459062566614 L-2.5709830972667334,10.418414262418239 L-1.7737099579297109,10.725331359951895 L-0.9740874175301428,11.030204320307888 L-0.17213119891262352,11.333027148820065 L0.6321429291915877,11.633793891133735 L1.4387191524745475,11.93249863332261 L2.247581611362506,12.229135502005164 L3.058714401328004,12.523698664460198 L3.8721015732023005,12.816182328741391 L4.68772713348919,13.106580743791241 L5.505575044679418,13.394888199554217 L6.325629225565962,13.681099027088877 L7.1478735515602665,13.965207598679527 L7.972291855009445,14.247208327946694 L8.79886792551396,14.527095669957149 L9.627585510246504,14.804864121332756 L10.458428314271416,15.080508220358823 L11.291380000865402,15.354022547091446 L12.126424191838396,15.625401723464066 L12.963544467855783,15.894640413393162 L13.802724368760948,16.161733322883236 " />
			<path d="M15.389471985744013,14.4911813183053 L13.802724368761398,16.16173332288342 " />
			<path d="M16.09092191268106,14.713268388317633 L15.389471985744006,14.49118131830529 " />
			<path d="M2.7803438636255167,8.194359686190651 L3.501592780435795,7.435017865927869 " />
			<path d="M3.5015927804358,7.435017865927868 L10.603773290673484,9.683649449802836 " />
			<path d="M10.603773290673484,9.683649449802836 L18.104762025500403,1.7864945190698744 " />
			<path d="M11.00258151526272,-0.46213706480509087 L18.1047620255004,1.7864945190698749 " />
			<path d="M11.002581515262715,-0.4621370648050931 L11.723830432072997,-1.2214788850678797 " />
			<path d="M11.723830432073004,-1.2214788850678788 L26.717322620352547,3.5256322364459387 " />
			<path d="M26.717322620352537,3.525632236445931 L28.400236759576522,1.7538346558327724 " />
			<path d="M15.389471985744027,16.287473796346294 L15.389471985744027,14.491181318305294 " />
			<path d="M27.69878683263949,3.3280400638614314 L27.69878683263949,1.5317475858204328 " />
			<path d="M28.400236759576522,1.7538346558327742 L28.400236759576522,2.589542921017635 " />
			<path d="M-5.6087709883716705,-8.726715456955544 L-5.6087709883716705,-6.930422978914544 " />
			<path d="M-6.6694311601514915,-8.11434302125975 L-6.6694311601514915,-7.5427954146103335 " />
			<path d="M-12.396996087762538,-11.421154174017035 L-12.396996087762538,-10.849606567367621 " />
			<path d="M-17.700296946661616,-1.7456696900234756 L-17.700296946661616,0.0506227880175234 " />
			<path d="M-18.760957118441432,-1.1332972543276796 L-18.760957118441432,-0.5617496476782646 " />
			<path d="M-32.76167138593509,-6.358875372265114 L-32.76167138593509,-4.562582894224114 " />
			<path d="M13.802724368761407,16.161733322883407 L13.802724368761407,17.958025800924407 " />
			<path d="M3.5015927804358054,7.435017865927872 L3.501592780435805,9.231310343968872 " />
			<path d="M10.603773290673477,9.683649449802832 L10.603773290673477,11.479941927843832 " />
			<path d="M18.104762025500396,1.7864945190698722 L18.104762025500396,2.5950895201821678 " />
			<path d="M11.002581515262722,-0.4621370648050904 L11.002581515262722,1.3341554132359086 " />
			<path d="M11.723830432072992,-1.2214788850678797 L11.723830432072992,0.5748135929731193 " />
			<path d="M26.717322620352544,3.5256322364459383 L26.717322620352544,5.321924714486938 " />

       </g>

       <!-- solid lines -->
       <g  stroke="rgb(200,20,20)" fill="none">
			<path d="M16.09092191268106,16.509560866358626 L17.77383605190505,14.73776328574546 " />
			<path d="M17.77383605190506,12.94147080770447 L17.77383605190506,14.73776328574547 " />
			<path d="M28.400236759576522,3.550127133873768 L27.698786832639467,3.3280400638614256 " />
			<path d="M27.69878683263948,3.3280400638614243 L29.285534449622098,1.6574880592833026 " />
			<path d="M-12.326285409643916,-16.360958488629805 L-11.748388278308582,-16.028785648070794 L-11.16794561547546,-15.69809556275223 L-10.584968834291814,-15.368894734978099 L-9.999469397732767,-15.041189637769335 L-9.411458818376033,-14.714986714736597 L-8.82094865817551,-14.390292379953507 L-8.227950528233933,-14.067113017830579 L-7.6324760885745775,-13.74545498298967 L-7.034537047911954,-13.425324600139064 L-6.434145163421647,-13.106728163949043 L-5.831312240509092,-12.789671938928166 L-5.2260501325774555,-12.474162159300064 L-4.618370740794546,-12.160205028880895 L-4.008286013858822,-11.847806720957308 L-3.3958079477644816,-11.536973378165115 L-2.7809485855655396,-11.227711112368453 L-2.163720017138985,-10.92002600453965 L-1.5441343789471773,-10.613924104639622 L-0.9222038537991182,-10.309411431498944 L-0.2979406706109273,-10.006493972699502 L0.3286428958345766,-9.705177684456757 L0.9575345251293186,-9.405468491502546 L1.58872185148212,-9.10737228696874 L2.22219246396196,-8.810894932271282 L2.8579339067418346,-8.516042256994908 L3.495933679343878,-8.222820058778552 L4.13617923688507,-7.931234103201376 L4.778657990323794,-7.641290123669378 L5.423357306707601,-7.3529938213026185 L6.070264509421378,-7.066350864823178 L6.719366878436759,-6.781366890443692 L7.370651650562195,-6.498047501756474 L8.024106019693889,-6.2163982696234115 L8.679717137067641,-5.936424732066314 L9.337472111511488,-5.6581323941581445 L9.997358009699056,-5.381526727914704 L10.659361856404146,-5.106613172187068 L11.323470634755537,-4.833397132554566 L11.989671286493149,-4.561883981218614 L12.65795071222476,-4.292079056896995 L13.328295771683543,-4.023987664718902 L14.000693283986465,-3.7576150761206435 L14.67513002789346,-3.4929665287419738 L15.351592742067353,-3.230047226323123 L16.030068125334722,-2.968862338602449 L16.71054283694731,-2.709417001214817 L17.3930034968444,-2.451716315590602 L18.077436685915956,-2.1957653488553746 L18.763828946266443,-1.941569133730269 L19.452166781479278,-1.6891326684330892 L20.14243665688258,-1.4384609165798707 L20.834624999814963,-1.189558807087451 L21.52871819989251,-0.9424312340764942 L22.224702609276505,-0.6970830567751989 L22.922564542941643,-0.4535190994238576 L23.62229027894513,-0.2117441511799001 L24.32386605869665,0.028237033976211023 L25.027278087228723,0.26641973733448765 L25.73251253346804,0.5027992755481563 L26.439555530507278,0.7373710007258154 L27.1483931758781,0.9701303005228112 L27.859011531824123,1.2010725982318462 L28.571396625575147,1.4301933528730473 L29.285534449621693,1.6574880592831533 " />
			<path d="M-14.659737787559504,-15.013739130099028 L-12.326285409643898,-16.360958488629777 " />
			<path d="M-15.225423212508744,-15.340337762470117 L-14.659737787559505,-15.013739130099028 " />
			<path d="M-15.225423212508744,-15.340337762470117 L-17.70029694666166,-13.911468745846593 " />
			<path d="M-17.70029694666166,-13.91146874584659 L-5.608770988371675,-6.930422978914544 " />
			<path d="M-6.6694311601514915,-6.31805054321875 L-5.608770988371672,-6.930422978914545 " />
			<path d="M-12.396996087762536,-9.624861695976035 L-6.6694311601514915,-6.3180505432187495 " />
			<path d="M-23.427861874272658,-3.256188364739761 L-12.396996087762536,-9.624861695976035 " />
			<path d="M-23.427861874272658,-3.25618836473976 L-17.700296946661616,0.0506227880175244 " />
			<path d="M-18.760957118441432,0.6629952237133194 L-17.700296946661613,0.050622788017523845 " />
			<path d="M-30.85248307673142,-6.318050543218728 L-18.760957118441436,0.6629952237133194 " />
			<path d="M-30.852483076731417,-6.318050543218726 L-33.32735681088433,-4.889181526595204 " />
			<path d="M-33.327356810884325,-4.889181526595206 L-32.76167138593509,-4.562582894224116 " />
			<path d="M-35.095123763850694,-3.2153635356933634 L-32.76167138593509,-4.562582894224114 " />
			<path d="M-35.09512376385068,-3.215363535693399 L-34.41603964160184,-2.825028838331775 L-33.733964277609246,-2.436436519477269 L-33.04891108340705,-2.04959421995585 L-32.36089352908179,-1.6645095461830834 L-31.669925143007916,-1.2811900700146452 L-30.976019511581413,-0.8996433285974348 L-30.279190278952953,-0.5198768242213276 L-29.57945114675941,-0.1418980241717378 L-28.876815873854625,0.23428563941725145 L-28.171298276038655,0.6086667697090604 L-27.462912225786354,0.9812380053099901 L-26.75167165197435,1.3519920204140305 L-26.037590539607365,1.7209215249468315 L-25.32068292954314,2.088019264709132 L-24.60096291821641,2.453278021519324 L-23.87844465736164,2.816690613355405 L-23.153142353734793,3.1782498944962754 L-22.425070268834034,3.5379487556621 L-21.694242718619265,3.8957801241542143 L-20.960674073230663,4.251736963994119 L-20.22437875670606,4.605812276061869 L-19.485371246697397,4.957999098233728 L-18.74366607418601,5.308290505518954 L-17.999277823196948,5.656679610196079 L-17.252221130512154,6.003159561948252 L-16.502510685382745,6.347723547998015 L-15.750161229239993,6.69036479324123 L-14.995187555405792,7.0310765603802565 L-14.237604508801454,7.369852150056474 L-13.47742698565601,7.706684900982026 L-12.714669933213244,8.041568190070691 L-11.949348349437784,8.374495432568281 L-11.181477282720223,8.705460082181972 L-10.411071831581197,9.034455631209084 L-9.6381471443745,9.361475610665067 L-8.862718418989317,9.686513590410613 L-8.084800902551208,10.009563179278175 L-7.304409891122532,10.330618025197609 L-6.5215607294015,10.649671815321028 L-5.736268810420512,10.966718276147049 L-4.948549575243561,11.281751173643968 L-4.158418512662479,11.594764313372536 L-3.365891158892481,11.90575154060761 L-2.5709830972667334,12.214706740459235 L-1.7737099579297109,12.521623837992891 L-0.9740874175301428,12.826496798348884 L-0.17213119891262352,13.129319626861061 L0.6321429291915877,13.430086369174731 L1.4387191524745475,13.728791111363606 L2.247581611362506,14.02542798004616 L3.058714401328004,14.319991142501195 L3.8721015732023005,14.612474806782387 L4.68772713348919,14.902873221832238 L5.505575044679418,15.191180677595213 L6.325629225565962,15.477391505129873 L7.1478735515602665,15.761500076720523 L7.972291855009445,16.04350080598769 L8.79886792551396,16.323388147998145 L9.627585510246504,16.601156599373752 L10.458428314271416,16.87680069839982 L11.291380000865402,17.150315025132443 L12.126424191838396,17.421694201505062 L12.963544467855783,17.69093289143416 L13.802724368760948,17.958025800924233 " />
			<path d="M13.8027243687614,17.958025800924418 L15.389471985744018,16.28747379634629 " />
			<path d="M16.09092191268106,16.509560866358626 L15.389471985744006,16.287473796346283 " />
			<path d="M2.780343863625525,9.990652164231651 L17.773836051905064,14.737763285745467 " />
			<path d="M2.7803438636255167,9.99065216423165 L3.501592780435795,9.231310343968866 " />
			<path d="M3.5015927804358,9.231310343968868 L10.603773290673484,11.479941927843836 " />
			<path d="M10.603773290673484,11.479941927843836 L18.104762025500403,3.5827869971108743 " />
			<path d="M11.00258151526272,1.3341554132359073 L18.1047620255004,3.582786997110873 " />
			<path d="M11.002581515262715,1.334155413235905 L11.723830432072997,0.5748135929731184 " />
			<path d="M11.723830432073004,0.5748135929731202 L26.717322620352547,5.321924714486938 " />
			<path d="M26.717322620352537,5.321924714486924 L28.400236759576522,3.550127133873765 " />
			<path d="M11.194235737235502,10.858294090988702 L17.773836051905064,12.94147080770447 " />
			<path d="M-12.326285409643916,-18.1572509666708 L-11.748388278308582,-17.82507812611179 L-11.16794561547546,-17.494388040793226 L-10.584968834291814,-17.165187213019095 L-9.999469397732767,-16.83748211581033 L-9.411458818376033,-16.511279192777593 L-8.82094865817551,-16.186584857994504 L-8.227950528233933,-15.863405495871575 L-7.6324760885745775,-15.541747461030667 L-7.034537047911954,-15.22161707818006 L-6.434145163421647,-14.90302064199004 L-5.831312240509092,-14.585964416969162 L-5.2260501325774555,-14.27045463734106 L-4.618370740794546,-13.956497506921892 L-4.008286013858822,-13.644099198998305 L-3.3958079477644816,-13.333265856206111 L-2.7809485855655396,-13.02400359040945 L-2.163720017138985,-12.716318482580647 L-1.5441343789471773,-12.410216582680619 L-0.9222038537991182,-12.10570390953994 L-0.2979406706109273,-11.802786450740498 L0.3286428958345766,-11.501470162497753 L0.9575345251293186,-11.201760969543543 L1.58872185148212,-10.903664765009736 L2.22219246396196,-10.607187410312278 L2.8579339067418346,-10.312334735035904 L3.495933679343878,-10.019112536819549 L4.13617923688507,-9.727526581242373 L4.778657990323794,-9.437582601710375 L5.423357306707601,-9.149286299343615 L6.070264509421378,-8.862643342864175 L6.719366878436759,-8.577659368484689 L7.370651650562195,-8.29433997979747 L8.024106019693889,-8.012690747664408 L8.679717137067641,-7.73271721010731 L9.337472111511488,-7.454424872199141 L9.997358009699056,-7.1778192059557 L10.659361856404146,-6.902905650228064 L11.323470634755537,-6.6296896105955625 L11.989671286493149,-6.35817645925961 L12.65795071222476,-6.088371534937991 L13.328295771683543,-5.8202801427598985 L14.000693283986465,-5.55390755416164 L14.67513002789346,-5.28925900678297 L15.351592742067353,-5.026339704364119 L16.030068125334722,-4.765154816643445 L16.71054283694731,-4.505709479255813 L17.3930034968444,-4.248008793631598 L18.077436685915956,-3.992057826896371 L18.763828946266443,-3.7378616117712653 L19.452166781479278,-3.4854251464740855 L20.14243665688258,-3.234753394620867 L20.834624999814963,-2.9858512851284473 L21.52871819989251,-2.7387237121174905 L22.224702609276505,-2.4933755348161952 L22.922564542941643,-2.249811577464854 L23.62229027894513,-2.0080366292208964 L24.32386605869665,-1.7680554440647853 L25.027278087228723,-1.5298727407065087 L25.73251253346804,-1.29349320249284 L26.439555530507278,-1.058921477315181 L27.1483931758781,-0.8261621775181851 L27.859011531824123,-0.5952198798091501 L28.571396625575147,-0.36609912516794907 L29.285534449621693,-0.138804418757843 " />
			<path d="M-12.326285409643901,-18.157250966670777 L-14.659737787559505,-16.810031608140026 " />
			<path d="M-15.225423212508744,-17.136630240511117 L-14.659737787559505,-16.810031608140026 " />
			<path d="M-15.225423212508744,-17.136630240511117 L-17.70029694666166,-15.707761223887593 " />
			<path d="M-12.891970834593124,-11.135380370692326 L-23.427861874272658,-5.052480842780759 " />
			<path d="M-23.427861874272658,-3.8277359713891723 L-30.85248307673142,-8.114343021259728 " />
			<path d="M-30.852483076731417,-8.114343021259726 L-33.32735681088433,-6.685474004636204 " />
			<path d="M-33.32735681088433,-6.032276739894021 L-35.095123763850694,-5.0116560137343615 " />
			<path d="M28.400236759576522,2.589542921017635 L28.400236759576522,3.550127133873773 " />
			<path d="M29.285534449622077,1.6574880592833114 L29.285534449622077,-0.13880441875768756 " />
			<path d="M-12.326285409643907,-16.360958488629777 L-12.326285409643907,-18.157250966670777 " />
			<path d="M-14.659737787559502,-16.810031608140026 L-14.659737787559502,-15.013739130099028 " />
			<path d="M-15.225423212508744,-17.136630240511117 L-15.225423212508744,-15.340337762470117 " />
			<path d="M-17.70029694666166,-15.707761223887596 L-17.70029694666166,-13.911468745846596 " />
			<path d="M-6.6694311601514915,-7.5427954146103335 L-6.6694311601514915,-6.3180505432187495 " />
			<path d="M-12.396996087762538,-10.849606567367621 L-12.396996087762538,-9.624861695976035 " />
			<path d="M-23.427861874272658,-5.052480842780758 L-23.427861874272658,-3.2561883647397596 " />
			<path d="M-18.760957118441432,-0.5617496476782646 L-18.760957118441432,0.6629952237133194 " />
			<path d="M-30.852483076731417,-8.114343021259726 L-30.852483076731417,-6.318050543218726 " />
			<path d="M-33.32735681088433,-6.685474004636204 L-33.32735681088433,-4.8891815265952046 " />
			<path d="M-35.095123763850694,-5.011656013734364 L-35.095123763850694,-3.215363535693365 " />
			<path d="M18.104762025500396,2.5950895201821678 L18.104762025500396,3.5827869971108712 " />

       </g>
    </g>
    
</svg>
