<?xml version="1.0" encoding="UTF-8" standalone="no"?>
<svg
   xmlns:svg="http://www.w3.org/2000/svg"
   xmlns="http://www.w3.org/2000/svg"
   width="480.0"
   height="480.0"

>
    <g transform="scale(4.221533022009238, -4.221533022009238)   translate(54.00881594702851,-52.005339755064334)" stroke-width="0.23688077169749347"  fill="none">
       <!-- hidden lines -->
       <g  stroke="rgb(100,40,40)" fill="none" stroke-dasharray="0.23688077169749347,0.23688077169749347" >
			<path d="M17.889801564019656,23.760050504996837 L17.889801564019656,25.474693324945065 " />
			<path d="M17.889801564019656,23.760050504996837 L42.63853890554883,9.471360338761626 " />
			<path d="M17.889801564019653,23.760050504996833 L-2.6634355424693332,11.893633528847205 " />
			<path d="M-22.085301799059835,0.6804138174397689 L-42.63853890554882,-11.186003158709857 " />
			<path d="M-22.085301799059835,1.5377352274138834 L-22.085301799059835,0.6804138174397691 " />
			<path d="M-22.085301799059835,1.5377352274138865 L-21.519616374110598,1.8643338597849768 " />
			<path d="M-21.519616374110598,1.8643338597849728 L-21.519616374110598,1.0070124498108586 " />
			<path d="M-21.519616374110594,1.0070124498108655 L-12.657211383239193,6.123724356957954 " />
			<path d="M-12.6572113832392,6.981045766932061 L-12.6572113832392,6.123724356957946 " />
			<path d="M-12.657211383239197,6.981045766932063 L-12.091525958289958,7.307644399303154 " />
			<path d="M-12.091525958289964,7.30764439930315 L-12.091525958289964,6.4503229893290355 " />
			<path d="M-12.09152595828996,6.450322989329042 L-3.2291209674185595,11.56703489647613 " />
			<path d="M-3.2291209674185684,12.424356306450234 L-3.2291209674185684,11.56703489647612 " />
			<path d="M-3.229120967418563,12.424356306450239 L-2.663435542469326,12.75095493882133 " />
			<path d="M-2.6634355424693332,12.750954938821323 L-2.6634355424693332,11.893633528847209 " />
			<path d="M-2.6634355424693403,11.893633528847214 L21.519616374110598,-2.068458005016909 " />
			<path d="M10.182337649086282,12.614872175333367 L17.394826817189067,16.77900473806477 " />
			<path d="M10.18233764908629,12.614872175333371 L11.242997820866108,12.002499739637576 " />
			<path d="M11.242997820866108,12.002499739637575 L16.970562748477143,15.309310892394866 " />
			<path d="M16.97056274847714,15.309310892394866 L28.001428534987284,8.940637561158601 " />
			<path d="M22.27386360737625,5.633826408401311 L28.001428534987284,8.940637561158603 " />
			<path d="M22.27386360737625,5.633826408401312 L23.334523779156072,5.021453972705517 " />
			<path d="M23.33452377915606,5.0214539727055145 L35.42604973744603,12.002499739637578 " />
			<path d="M33.94112549695428,12.85982114961169 L35.426049737446036,12.002499739637576 " />
			<path d="M-22.08530179905984,0.6804138174397742 L2.663435542469329,-13.608276348795439 " />
			<path d="M-10.182337649086282,-14.329514995281592 L-22.27386360737625,-21.310560762213655 " />
			<path d="M-10.182337649086286,-14.329514995281595 L-11.242997820866105,-13.7171425595858 " />
			<path d="M-11.242997820866105,-13.7171425595858 L-16.970562748477143,-17.023953712343094 " />
			<path d="M-16.970562748477143,-17.023953712343094 L-17.394826817189074,-16.779004738064774 " />
			<path d="M-22.273863607376246,-7.3484692283495345 L-28.001428534987284,-10.655280381106827 " />
			<path d="M-22.27386360737625,-7.348469228349536 L-23.33452377915607,-6.736096792653742 " />
			<path d="M-23.33452377915606,-6.736096792653741 L-28.001428534987284,-9.430535509715245 " />
			<path d="M-33.94112549695428,-12.859821149611692 L-35.42604973744603,-13.717142559585804 " />
			<path d="M-22.27386360737625,-21.310560762213655 L-35.426049737446036,-13.7171425595858 " />
			<path d="M2.6634355424693297,-12.750954938821321 L-22.085301799059835,1.53773522741389 " />
			<path d="M3.2291209674185666,-12.424356306450234 L-21.519616374110598,1.8643338597849777 " />
			<path d="M-21.519616374110605,1.007012449810862 L2.663435542469327,-12.95507908405326 " />
			<path d="M-12.657211383239208,6.1237243569579505 L12.091525958289964,-8.164965809277263 " />
			<path d="M12.091525958289965,-7.307644399303147 L-12.6572113832392,6.9810457669320645 " />
			<path d="M12.657211383239199,-6.981045766932057 L-12.091525958289967,7.307644399303154 " />
			<path d="M-12.09152595828997,6.450322989329038 L12.091525958289964,-7.511768544535083 " />
			<path d="M-3.2291209674185772,11.567034896476123 L21.519616374110594,-2.721655269759088 " />
			<path d="M21.51961637411059,-1.8643338597849688 L-3.2291209674185737,12.424356306450242 " />
			<path d="M22.085301799059827,-1.5377352274138802 L-2.663435542469337,12.75095493882133 " />
			<path d="M10.182337649086284,12.614872175333371 L10.182337649086284,14.329514995281597 " />
			<path d="M11.242997820866108,12.002499739637576 L11.242997820866108,13.717142559585803 " />
			<path d="M16.970562748477136,15.309310892394864 L16.970562748477136,17.02395371234309 " />
			<path d="M28.001428534987276,8.9406375611586 L28.001428534987276,9.430535509715241 " />
			<path d="M22.27386360737625,5.633826408401314 L22.27386360737625,7.34846922834954 " />
			<path d="M23.334523779156065,5.021453972705519 L23.334523779156065,6.736096792653745 " />
			<path d="M35.42604973744603,12.002499739637575 L35.42604973744603,13.7171425595858 " />
			<path d="M-22.273863607376246,-7.348469228349538 L-22.273863607376246,-5.633826408401312 " />
			<path d="M-23.334523779156072,-6.736096792653745 L-23.334523779156072,-6.2461988440971075 " />
			<path d="M-16.970562748477146,-17.023953712343097 L-16.970562748477146,-16.53405576378646 " />
			<path d="M-35.42604973744603,-13.717142559585806 L-35.42604973744603,-12.00249973963758 " />
			<path d="M-11.242997820866105,-13.7171425595858 L-11.242997820866105,-13.227244611029164 " />
			<path d="M-22.27386360737625,-21.310560762213658 L-22.27386360737625,-19.59591794226543 " />
			<path d="M-10.182337649086287,-14.329514995281597 L-10.182337649086287,-12.614872175333371 " />

       </g>

       <!-- solid lines -->
       <g  stroke="rgb(200,20,20)" fill="none">
			<path d="M17.889801564019656,25.474693324945058 L42.63853890554883,11.186003158709847 " />
			<path d="M42.63853890554882,9.47136033876163 L42.63853890554882,11.186003158709855 " />
			<path d="M-42.63853890554881,-9.471360338761626 L17.889801564019656,25.474693324945065 " />
			<path d="M-42.63853890554881,-11.186003158709848 L-42.63853890554881,-9.471360338761622 " />
			<path d="M-17.889801564019653,-23.760050504996833 L42.63853890554881,11.186003158709859 " />
			<path d="M-17.889801564019645,-23.76005050499683 L-42.63853890554881,-9.471360338761619 " />
			<path d="M10.182337649086282,14.329514995281592 L22.27386360737625,21.310560762213655 " />
			<path d="M10.18233764908629,14.329514995281599 L11.242997820866108,13.717142559585804 " />
			<path d="M11.242997820866108,13.717142559585803 L16.970562748477143,17.023953712343094 " />
			<path d="M16.97056274847714,17.02395371234309 L28.001428534987284,10.655280381106826 " />
			<path d="M22.27386360737625,7.348469228349537 L28.001428534987284,10.655280381106827 " />
			<path d="M22.27386360737625,7.34846922834954 L23.334523779156072,6.736096792653745 " />
			<path d="M23.33452377915606,6.736096792653741 L35.42604973744603,13.717142559585804 " />
			<path d="M22.27386360737625,21.310560762213655 L35.426049737446036,13.7171425595858 " />
			<path d="M-22.273863607376246,-5.633826408401308 L-28.001428534987284,-8.940637561158603 " />
			<path d="M-22.27386360737625,-5.633826408401308 L-23.33452377915607,-5.021453972705514 " />
			<path d="M-16.970562748477143,-15.309310892394866 L-28.001428534987284,-8.940637561158601 " />
			<path d="M-23.33452377915606,-5.0214539727055145 L-35.42604973744603,-12.002499739637578 " />
			<path d="M-11.242997820866105,-12.002499739637573 L-16.970562748477143,-15.309310892394866 " />
			<path d="M-22.27386360737625,-19.59591794226543 L-35.426049737446036,-12.002499739637576 " />
			<path d="M-10.182337649086286,-12.614872175333367 L-11.242997820866105,-12.002499739637573 " />
			<path d="M-10.182337649086282,-12.614872175333367 L-22.27386360737625,-19.59591794226543 " />
			<path d="M-17.889801564019645,-25.474693324945058 L-17.889801564019645,-23.76005050499683 " />
			<path d="M-17.889801564019653,-25.474693324945058 L2.6634355424693332,-13.608276348795432 " />
			<path d="M2.663435542469328,-13.608276348795439 L2.663435542469328,-12.750954938821325 " />
			<path d="M3.2291209674185684,-12.424356306450232 L2.6634355424693315,-12.750954938821323 " />
			<path d="M3.229120967418565,-13.281677716424348 L3.229120967418565,-12.424356306450234 " />
			<path d="M3.22912096741857,-13.281677716424344 L12.09152595828997,-8.164965809277255 " />
			<path d="M12.091525958289964,-8.164965809277263 L12.091525958289964,-7.307644399303149 " />
			<path d="M12.657211383239206,-6.981045766932054 L12.091525958289967,-7.307644399303145 " />
			<path d="M12.6572113832392,-7.838367176906173 L12.6572113832392,-6.981045766932059 " />
			<path d="M12.657211383239204,-7.838367176906168 L21.519616374110605,-2.7216552697590792 " />
			<path d="M21.519616374110598,-2.7216552697590877 L21.519616374110598,-1.8643338597849737 " />
			<path d="M22.085301799059835,-1.5377352274138776 L21.519616374110598,-1.8643338597849688 " />
			<path d="M22.08530179905983,-2.3950566373879982 L22.08530179905983,-1.5377352274138842 " />
			<path d="M22.08530179905983,-2.395056637387998 L42.63853890554881,9.471360338761631 " />
			<path d="M21.519616374110598,-2.068458005016909 L22.08530179905983,-2.3950566373879987 " />
			<path d="M17.394826817189067,16.77900473806477 L22.27386360737625,19.59591794226543 " />
			<path d="M22.27386360737625,19.59591794226543 L33.94112549695428,12.85982114961169 " />
			<path d="M-17.889801564019645,-25.474693324945058 L-42.63853890554881,-11.186003158709847 " />
			<path d="M-17.394826817189074,-16.779004738064774 L-28.001428534987284,-10.655280381106829 " />
			<path d="M-28.001428534987284,-9.430535509715245 L-33.94112549695428,-12.859821149611692 " />
			<path d="M2.663435542469327,-12.95507908405326 L3.2291209674185657,-13.281677716424351 " />
			<path d="M12.091525958289964,-7.511768544535083 L12.6572113832392,-7.838367176906174 " />
			<path d="M22.273863607376242,19.595917942265427 L22.273863607376242,21.310560762213655 " />
			<path d="M28.001428534987276,9.430535509715241 L28.001428534987276,10.655280381106826 " />
			<path d="M-28.001428534987287,-10.655280381106833 L-28.001428534987287,-8.940637561158606 " />
			<path d="M-23.334523779156072,-6.2461988440971075 L-23.334523779156072,-5.021453972705519 " />
			<path d="M-16.970562748477146,-16.53405576378646 L-16.970562748477146,-15.30931089239487 " />
			<path d="M-11.242997820866105,-13.227244611029164 L-11.242997820866105,-12.002499739637575 " />

       </g>
    </g>
    
</svg>
