<?xml version="1.0" encoding="UTF-8" standalone="no"?>
<svg
   xmlns:svg="http://www.w3.org/2000/svg"
   xmlns="http://www.w3.org/2000/svg"
   width="480.0"
   height="480.0"

>
    <g transform="scale(4.537583622587469, -4.537583622587469)   translate(50.24700787111608,-48.48361604266166)" stroke-width="0.2203816134698074"  fill="none">
       <!-- hidden lines -->
       <g  stroke="rgb(100,40,40)" fill="none" stroke-dasharray="0.2203816134698074,0.2203816134698074" >
			<path d="M19.798989873223327,20.983962129842567 L22.273863607376246,19.555093113219044 " />
			<path d="M19.798989873223327,20.983962129842567 L19.798989873223327,22.780254607883567 " />
			<path d="M10.182337649086284,12.574047346286985 L10.182337649086284,14.370339824327985 " />
			<path d="M10.182337649086282,12.574047346286976 L17.465537495307725,16.77900473806477 " />
			<path d="M37.90092347159895,10.532805893967671 L37.335238046649714,10.206207261596582 " />
			<path d="M39.66869042456532,8.85898790306583 L37.335238046649714,10.206207261596578 " />
			<path d="M-22.27386360737625,-21.35138559126004 L-10.182337649086282,-14.370339824327978 " />
			<path d="M-11.242997820866105,-13.757967388632187 L-10.182337649086284,-14.370339824327981 " />
			<path d="M-16.97056274847714,-17.06477854138948 L-11.242997820866103,-13.757967388632185 " />
			<path d="M-17.465537495307732,-16.779004738064774 L-16.970562748477143,-17.064778541389483 " />
			<path d="M-28.00142853498728,-10.696105210153213 L-22.273863607376242,-7.389294057395921 " />
			<path d="M-23.334523779156072,-6.776921621700128 L-22.27386360737625,-7.389294057395922 " />
			<path d="M-28.001428534987284,-9.471360338761627 L-23.33452377915606,-6.776921621700126 " />
			<path d="M-37.90092347159895,-12.32909837200867 L-37.335238046649714,-12.002499739637578 " />
			<path d="M-37.335238046649714,-12.002499739637575 L-37.90092347159895,-11.675901107266482 " />
			<path d="M-39.66869042456532,-10.655280381106829 L16.89985207035849,22.004582856002237 " />
			<path d="M19.23330444827409,20.657363497471472 L16.89985207035848,22.004582856002223 " />
			<path d="M19.798989873223327,20.983962129842567 L19.23330444827409,20.657363497471476 " />
			<path d="M10.182337649086287,12.574047346286985 L11.242997820866108,11.96167491059119 " />
			<path d="M11.242997820866107,11.961674910591189 L16.97056274847714,15.26848606334848 " />
			<path d="M16.97056274847714,15.268486063348481 L28.001428534987284,8.899812732112215 " />
			<path d="M22.27386360737625,5.593001579354923 L28.00142853498728,8.899812732112213 " />
			<path d="M22.273863607376253,5.593001579354925 L23.334523779156072,4.980629143659131 " />
			<path d="M23.33452377915607,4.980629143659122 L35.426049737446036,11.961674910591187 " />
			<path d="M35.426049737446036,11.96167491059119 L37.90092347159895,10.53280589396767 " />
			<path d="M19.23330444827409,22.453655975512476 L19.23330444827409,20.657363497471476 " />
			<path d="M37.335238046649714,12.002499739637576 L37.335238046649714,10.206207261596578 " />
			<path d="M37.90092347159895,10.532805893967671 L37.90092347159895,11.675901107266483 " />
			<path d="M-10.182337649086284,-14.370339824327981 L-10.182337649086284,-12.574047346286982 " />
			<path d="M-11.242997820866105,-13.757967388632188 L-11.242997820866105,-13.186419781982774 " />
			<path d="M-16.970562748477146,-17.064778541389483 L-16.970562748477146,-16.49323093474007 " />
			<path d="M-22.273863607376246,-7.389294057395924 L-22.273863607376246,-5.593001579354924 " />
			<path d="M-23.334523779156065,-6.776921621700129 L-23.334523779156065,-6.205374015050717 " />
			<path d="M-37.335238046649714,-12.002499739637576 L-37.335238046649714,-10.206207261596578 " />
			<path d="M16.899852070358484,22.004582856002223 L16.899852070358484,23.800875334043223 " />
			<path d="M11.242997820866108,11.961674910591189 L11.242997820866108,13.757967388632188 " />
			<path d="M16.970562748477136,15.26848606334848 L16.970562748477136,17.06477854138948 " />
			<path d="M28.001428534987276,8.899812732112215 L28.001428534987276,9.471360338761615 " />
			<path d="M22.27386360737625,5.593001579354926 L22.27386360737625,7.389294057395926 " />
			<path d="M23.334523779156065,4.980629143659135 L23.334523779156065,6.776921621700133 " />
			<path d="M35.426049737446036,11.96167491059119 L35.426049737446036,13.75796738863219 " />

       </g>

       <!-- solid lines -->
       <g  stroke="rgb(200,20,20)" fill="none">
			<path d="M19.798989873223327,22.780254607883567 L22.273863607376246,21.351385591260044 " />
			<path d="M22.27386360737625,19.555093113219044 L22.27386360737625,21.35138559126004 " />
			<path d="M37.90092347159895,12.329098372008671 L37.335238046649714,12.002499739637582 " />
			<path d="M37.335238046649714,12.002499739637575 L39.66869042456533,10.655280381106824 " />
			<path d="M-16.899852070358484,-22.004582856002223 L39.66869042456533,10.655280381106842 " />
			<path d="M-19.23330444827409,-20.657363497471472 L-16.89985207035848,-22.004582856002223 " />
			<path d="M-19.798989873223327,-20.983962129842567 L-19.23330444827409,-20.657363497471476 " />
			<path d="M-19.798989873223327,-20.983962129842567 L-22.273863607376246,-19.555093113219044 " />
			<path d="M-10.182337649086282,-12.574047346286978 L-22.27386360737625,-19.55509311321904 " />
			<path d="M-10.182337649086284,-12.574047346286983 L-11.242997820866105,-11.961674910591189 " />
			<path d="M-11.242997820866103,-11.961674910591185 L-16.97056274847714,-15.26848606334848 " />
			<path d="M-16.970562748477143,-15.268486063348483 L-28.001428534987284,-8.899812732112219 " />
			<path d="M-22.273863607376242,-5.593001579354923 L-28.00142853498728,-8.899812732112217 " />
			<path d="M-22.27386360737625,-5.593001579354924 L-23.33452377915607,-4.9806291436591295 " />
			<path d="M-23.33452377915606,-4.980629143659126 L-35.42604973744603,-11.961674910591189 " />
			<path d="M-35.426049737446036,-11.96167491059119 L-37.90092347159895,-10.53280589396767 " />
			<path d="M-37.90092347159895,-10.53280589396767 L-37.335238046649714,-10.206207261596578 " />
			<path d="M-39.66869042456532,-8.85898790306583 L-37.335238046649714,-10.206207261596578 " />
			<path d="M-39.66869042456532,-8.85898790306583 L16.89985207035849,23.800875334043234 " />
			<path d="M16.899852070358484,23.80087533404322 L19.23330444827409,22.453655975512472 " />
			<path d="M19.798989873223327,22.780254607883567 L19.23330444827409,22.453655975512476 " />
			<path d="M10.182337649086282,14.370339824327976 L22.27386360737625,21.35138559126004 " />
			<path d="M10.182337649086287,14.370339824327983 L11.242997820866108,13.757967388632188 " />
			<path d="M11.242997820866107,13.757967388632185 L16.97056274847714,17.064778541389476 " />
			<path d="M16.97056274847714,17.064778541389476 L28.001428534987284,10.696105210153211 " />
			<path d="M22.27386360737625,7.389294057395923 L28.00142853498728,10.696105210153213 " />
			<path d="M22.273863607376253,7.389294057395923 L23.334523779156072,6.776921621700129 " />
			<path d="M23.33452377915607,6.7769216217001205 L35.426049737446036,13.757967388632185 " />
			<path d="M35.426049737446036,13.75796738863219 L37.90092347159895,12.32909837200867 " />
			<path d="M17.465537495307725,16.77900473806477 L22.27386360737625,19.55509311321904 " />
			<path d="M-16.899852070358484,-23.80087533404322 L39.66869042456533,8.858987903065845 " />
			<path d="M-16.899852070358484,-23.80087533404322 L-19.23330444827409,-22.453655975512472 " />
			<path d="M-19.798989873223327,-22.780254607883563 L-19.23330444827409,-22.453655975512472 " />
			<path d="M-19.798989873223327,-22.780254607883563 L-22.273863607376246,-21.35138559126004 " />
			<path d="M-28.001428534987284,-10.696105210153217 L-17.465537495307732,-16.779004738064774 " />
			<path d="M-35.42604973744603,-13.757967388632188 L-28.001428534987284,-9.471360338761627 " />
			<path d="M-35.426049737446036,-13.757967388632187 L-37.90092347159895,-12.329098372008666 " />
			<path d="M-37.90092347159895,-11.675901107266482 L-39.66869042456533,-10.655280381106824 " />
			<path d="M37.90092347159895,11.675901107266483 L37.90092347159895,12.32909837200867 " />
			<path d="M39.66869042456532,10.655280381106829 L39.66869042456532,8.858987903065831 " />
			<path d="M-16.899852070358484,-22.004582856002223 L-16.899852070358484,-23.800875334043223 " />
			<path d="M-19.23330444827409,-22.453655975512472 L-19.23330444827409,-20.657363497471472 " />
			<path d="M-19.798989873223327,-22.780254607883563 L-19.798989873223327,-20.983962129842563 " />
			<path d="M-22.27386360737625,-21.35138559126004 L-22.27386360737625,-19.555093113219044 " />
			<path d="M-11.242997820866105,-13.186419781982774 L-11.242997820866105,-11.961674910591189 " />
			<path d="M-16.970562748477146,-16.49323093474007 L-16.970562748477146,-15.268486063348483 " />
			<path d="M-28.001428534987287,-10.696105210153219 L-28.001428534987287,-8.899812732112219 " />
			<path d="M-23.334523779156065,-6.205374015050717 L-23.334523779156065,-4.9806291436591295 " />
			<path d="M-35.426049737446036,-13.75796738863219 L-35.426049737446036,-11.96167491059119 " />
			<path d="M-37.90092347159895,-12.32909837200867 L-37.90092347159895,-10.53280589396767 " />
			<path d="M-39.66869042456532,-10.655280381106829 L-39.66869042456532,-8.858987903065831 " />
			<path d="M28.001428534987276,9.471360338761615 L28.001428534987276,10.696105210153215 " />

       </g>
    </g>
    
</svg>
