<?xml version="1.0" encoding="UTF-8" standalone="no"?>
<svg
   xmlns:svg="http://www.w3.org/2000/svg"
   xmlns="http://www.w3.org/2000/svg"
   width="480.0"
   height="480.0"

>
    <g transform="scale(4.5538182688221305, -4.5538182688221305)   translate(50.06787415321548,-48.31397087402122)" stroke-width="0.21959593926848894"  fill="none">
       <!-- hidden lines -->
       <g  stroke="rgb(100,40,40)" fill="none" stroke-dasharray="0.21959593926848894,0.21959593926848894" >
			<path d="M19.798989873223327,20.983962129842567 L22.20315292925759,19.59591794226543 " />
			<path d="M19.798989873223327,20.983962129842567 L19.798989873223327,22.780254607883567 " />
			<path d="M10.11162697096763,12.614872175333373 L10.11162697096763,14.411164653374373 " />
			<path d="M10.111626970967624,12.614872175333362 L17.39482681718907,16.819829567111157 " />
			<path d="M37.90092347159895,10.532805893967671 L37.335238046649714,10.206207261596582 " />
			<path d="M39.52726906832801,8.940637561158603 L37.335238046649714,10.206207261596578 " />
			<path d="M-22.20315292925759,-21.392210420306426 L-10.111626970967624,-14.411164653374364 " />
			<path d="M-11.242997820866105,-13.757967388632185 L-10.11162697096763,-14.411164653374367 " />
			<path d="M-16.97056274847714,-17.06477854138948 L-11.242997820866103,-13.757967388632185 " />
			<path d="M-17.394826817189074,-16.81982956711116 L-16.970562748477143,-17.06477854138948 " />
			<path d="M-28.00142853498728,-10.696105210153217 L-22.273863607376242,-7.389294057395923 " />
			<path d="M-23.405234457274723,-6.73609679265374 L-22.27386360737625,-7.3892940573959205 " />
			<path d="M-28.001428534987284,-9.389710680668854 L-23.40523445727472,-6.73609679265374 " />
			<path d="M-37.90092347159895,-12.32909837200867 L-37.335238046649714,-12.002499739637578 " />
			<path d="M-37.335238046649714,-12.002499739637575 L-37.90092347159896,-11.675901107266482 " />
			<path d="M-39.52726906832801,-10.736930039199603 L17.0412734265958,21.92293319790946 " />
			<path d="M19.23330444827409,20.657363497471476 L17.041273426595794,21.92293319790945 " />
			<path d="M19.798989873223327,20.983962129842567 L19.23330444827409,20.657363497471476 " />
			<path d="M10.111626970967633,12.614872175333371 L11.242997820866108,11.96167491059119 " />
			<path d="M11.242997820866107,11.961674910591189 L16.97056274847714,15.26848606334848 " />
			<path d="M16.97056274847714,15.268486063348481 L28.001428534987284,8.899812732112215 " />
			<path d="M22.27386360737625,5.593001579354923 L28.00142853498728,8.899812732112213 " />
			<path d="M22.27386360737625,5.593001579354926 L23.405234457274727,4.939804314612745 " />
			<path d="M23.40523445727472,4.939804314612738 L35.49676041556469,11.920850081544803 " />
			<path d="M35.49676041556469,11.920850081544804 L37.90092347159895,10.53280589396767 " />
			<path d="M19.233304448274104,22.453655975512483 L19.233304448274104,20.657363497471483 " />
			<path d="M37.33523804664972,12.002499739637583 L37.33523804664972,10.206207261596585 " />
			<path d="M37.90092347159895,10.532805893967671 L37.90092347159895,11.675901107266485 " />
			<path d="M-10.11162697096763,-14.411164653374367 L-10.11162697096763,-12.614872175333367 " />
			<path d="M-11.242997820866105,-13.757967388632188 L-11.242997820866105,-13.268069440075548 " />
			<path d="M-16.970562748477146,-17.064778541389483 L-16.970562748477146,-16.574880592832844 " />
			<path d="M-22.273863607376246,-7.389294057395924 L-22.273863607376246,-5.593001579354924 " />
			<path d="M-23.405234457274723,-6.736096792653743 L-23.405234457274723,-6.246198844097106 " />
			<path d="M-37.335238046649714,-12.002499739637576 L-37.335238046649714,-10.206207261596578 " />
			<path d="M17.041273426595794,21.92293319790945 L17.041273426595794,23.71922567595045 " />
			<path d="M11.242997820866108,11.961674910591189 L11.242997820866108,13.757967388632188 " />
			<path d="M16.970562748477136,15.26848606334848 L16.970562748477136,17.06477854138948 " />
			<path d="M28.001428534987276,8.899812732112215 L28.001428534987276,9.389710680668848 " />
			<path d="M22.27386360737625,5.593001579354926 L22.27386360737625,7.389294057395926 " />
			<path d="M23.405234457274723,4.939804314612747 L23.405234457274723,6.736096792653747 " />
			<path d="M35.49676041556469,11.920850081544804 L35.49676041556469,13.717142559585804 " />

       </g>

       <!-- solid lines -->
       <g  stroke="rgb(200,20,20)" fill="none">
			<path d="M19.798989873223327,22.780254607883567 L22.20315292925759,21.39221042030643 " />
			<path d="M22.20315292925759,19.59591794226543 L22.20315292925759,21.392210420306426 " />
			<path d="M37.90092347159895,12.329098372008671 L37.335238046649714,12.002499739637582 " />
			<path d="M37.335238046649714,12.002499739637575 L39.52726906832801,10.736930039199597 " />
			<path d="M-17.041273426595794,-21.92293319790945 L39.52726906832802,10.736930039199613 " />
			<path d="M-19.23330444827409,-20.657363497471476 L-17.041273426595794,-21.92293319790945 " />
			<path d="M-19.798989873223327,-20.983962129842567 L-19.23330444827409,-20.657363497471476 " />
			<path d="M-19.798989873223327,-20.983962129842567 L-22.20315292925759,-19.59591794226543 " />
			<path d="M-10.111626970967624,-12.614872175333364 L-22.20315292925759,-19.595917942265427 " />
			<path d="M-10.11162697096763,-12.61487217533337 L-11.242997820866103,-11.961674910591189 " />
			<path d="M-11.242997820866103,-11.961674910591185 L-16.97056274847714,-15.26848606334848 " />
			<path d="M-16.97056274847714,-15.268486063348483 L-28.001428534987284,-8.899812732112219 " />
			<path d="M-22.273863607376242,-5.593001579354923 L-28.00142853498728,-8.899812732112217 " />
			<path d="M-22.27386360737625,-5.593001579354923 L-23.405234457274723,-4.9398043146127435 " />
			<path d="M-23.40523445727472,-4.93980431461274 L-35.49676041556469,-11.920850081544803 " />
			<path d="M-35.49676041556469,-11.920850081544804 L-37.90092347159895,-10.53280589396767 " />
			<path d="M-37.90092347159895,-10.53280589396767 L-37.335238046649714,-10.206207261596578 " />
			<path d="M-39.52726906832801,-8.940637561158603 L-37.335238046649714,-10.206207261596578 " />
			<path d="M-39.52726906832801,-8.940637561158603 L17.0412734265958,23.71922567595046 " />
			<path d="M17.041273426595794,23.719225675950447 L19.23330444827409,22.453655975512472 " />
			<path d="M19.798989873223327,22.780254607883567 L19.23330444827409,22.453655975512476 " />
			<path d="M10.111626970967624,14.411164653374362 L22.20315292925759,21.392210420306426 " />
			<path d="M10.111626970967633,14.41116465337437 L11.242997820866108,13.757967388632188 " />
			<path d="M11.242997820866107,13.757967388632185 L16.97056274847714,17.064778541389476 " />
			<path d="M16.97056274847714,17.064778541389476 L28.001428534987284,10.696105210153211 " />
			<path d="M22.27386360737625,7.389294057395923 L28.00142853498728,10.696105210153213 " />
			<path d="M22.27386360737625,7.389294057395924 L23.405234457274727,6.736096792653743 " />
			<path d="M23.40523445727472,6.736096792653738 L35.49676041556469,13.717142559585803 " />
			<path d="M35.49676041556469,13.717142559585804 L37.90092347159895,12.32909837200867 " />
			<path d="M17.39482681718907,16.819829567111157 L22.20315292925759,19.595917942265427 " />
			<path d="M-17.041273426595794,-23.719225675950447 L39.52726906832802,8.940637561158617 " />
			<path d="M-17.041273426595794,-23.719225675950447 L-19.23330444827409,-22.453655975512472 " />
			<path d="M-19.798989873223327,-22.780254607883563 L-19.23330444827409,-22.453655975512472 " />
			<path d="M-19.798989873223327,-22.780254607883563 L-22.20315292925759,-21.392210420306426 " />
			<path d="M-28.001428534987284,-10.696105210153215 L-17.394826817189074,-16.81982956711116 " />
			<path d="M-35.49676041556469,-13.717142559585803 L-28.001428534987284,-9.389710680668854 " />
			<path d="M-35.49676041556469,-13.7171425595858 L-37.90092347159895,-12.329098372008666 " />
			<path d="M-37.90092347159896,-11.675901107266482 L-39.52726906832801,-10.736930039199597 " />
			<path d="M37.90092347159895,11.675901107266485 L37.90092347159895,12.32909837200867 " />
			<path d="M39.52726906832801,10.736930039199603 L39.52726906832801,8.940637561158603 " />
			<path d="M-17.041273426595794,-21.92293319790945 L-17.041273426595794,-23.71922567595045 " />
			<path d="M-19.23330444827409,-22.453655975512472 L-19.23330444827409,-20.657363497471472 " />
			<path d="M-19.798989873223327,-22.780254607883563 L-19.798989873223327,-20.983962129842563 " />
			<path d="M-22.20315292925759,-21.392210420306426 L-22.20315292925759,-19.59591794226543 " />
			<path d="M-11.242997820866105,-13.268069440075548 L-11.242997820866105,-11.961674910591189 " />
			<path d="M-16.970562748477146,-16.574880592832844 L-16.970562748477146,-15.268486063348483 " />
			<path d="M-28.001428534987287,-10.696105210153219 L-28.001428534987287,-8.899812732112219 " />
			<path d="M-23.405234457274723,-6.246198844097106 L-23.405234457274723,-4.9398043146127435 " />
			<path d="M-35.49676041556469,-13.717142559585804 L-35.49676041556469,-11.920850081544804 " />
			<path d="M-37.90092347159895,-12.32909837200867 L-37.90092347159895,-10.53280589396767 " />
			<path d="M-39.52726906832801,-10.736930039199603 L-39.52726906832801,-8.940637561158603 " />
			<path d="M28.001428534987276,9.389710680668848 L28.001428534987276,10.696105210153215 " />

       </g>
    </g>
    
</svg>
