<?xml version="1.0" encoding="UTF-8" standalone="no"?>
<svg
   xmlns:svg="http://www.w3.org/2000/svg"
   xmlns="http://www.w3.org/2000/svg"
   width="480.0"
   height="480.0"

>
    <g transform="scale(4.537583622587469, -4.537583622587469)   translate(50.24700787111608,-48.48361604266166)" stroke-width="0.2203816134698074"  fill="none">
       <!-- hidden lines -->
       <g  stroke="rgb(100,40,40)" fill="none" stroke-dasharray="0.2203816134698074,0.2203816134698074" >
			<path d="M19.79898987322333,20.983962129842567 L22.27386360737625,19.555093113219044 " />
			<path d="M19.79898987322333,20.983962129842567 L19.79898987322333,22.780254607883567 " />
			<path d="M10.182337649086286,12.574047346286985 L10.182337649086286,14.370339824327985 " />
			<path d="M10.182337649086282,12.574047346286976 L17.465537495307725,16.77900473806477 " />
			<path d="M37.90092347159895,10.53280589396767 L37.335238046649714,10.20620726159658 " />
			<path d="M39.66869042456532,8.85898790306583 L37.335238046649714,10.206207261596578 " />
			<path d="M-1.6734860488081722,11.281261093151418 L20.529666880449433,-1.5377352274138882 " />
			<path d="M-1.673486048808165,11.281261093151423 L16.89985207035849,22.004582856002237 " />
			<path d="M19.23330444827409,20.657363497471472 L16.89985207035848,22.004582856002223 " />
			<path d="M19.79898987322333,20.983962129842567 L19.233304448274094,20.657363497471476 " />
			<path d="M10.182337649086287,12.574047346286983 L11.242997820866108,11.961674910591189 " />
			<path d="M11.242997820866107,11.961674910591189 L16.97056274847714,15.26848606334848 " />
			<path d="M16.97056274847714,15.268486063348481 L28.001428534987284,8.899812732112215 " />
			<path d="M22.27386360737625,5.593001579354923 L28.001428534987284,8.899812732112213 " />
			<path d="M22.273863607376253,5.593001579354923 L23.334523779156072,4.9806291436591295 " />
			<path d="M23.33452377915607,4.980629143659121 L35.426049737446036,11.961674910591185 " />
			<path d="M35.426049737446036,11.96167491059119 L37.90092347159896,10.53280589396767 " />
			<path d="M19.233304448274094,22.453655975512472 L19.233304448274094,20.657363497471472 " />
			<path d="M37.335238046649714,12.002499739637576 L37.335238046649714,10.206207261596578 " />
			<path d="M37.90092347159895,10.53280589396767 L37.90092347159895,11.675901107266483 " />
			<path d="M-10.182337649086282,-14.370339824327983 L-10.182337649086282,-12.574047346286983 " />
			<path d="M-10.182337649086278,-14.370339824327976 L-22.273863607376246,-21.35138559126004 " />
			<path d="M-11.242997820866103,-13.757967388632188 L-11.242997820866103,-13.186419781982774 " />
			<path d="M-10.182337649086282,-14.370339824327981 L-11.242997820866103,-13.757967388632187 " />
			<path d="M-11.242997820866103,-13.757967388632187 L-16.97056274847714,-17.06477854138948 " />
			<path d="M-16.970562748477143,-17.064778541389483 L-16.970562748477143,-16.49323093474007 " />
			<path d="M-16.97056274847714,-17.06477854138948 L-17.46553749530773,-16.779004738064774 " />
			<path d="M-22.273863607376242,-7.3892940573959205 L-28.00142853498728,-10.696105210153213 " />
			<path d="M-22.273863607376242,-7.389294057395926 L-22.273863607376242,-5.593001579354926 " />
			<path d="M-23.334523779156065,-6.776921621700129 L-23.334523779156065,-6.205374015050719 " />
			<path d="M-22.27386360737625,-7.389294057395921 L-23.33452377915607,-6.776921621700128 " />
			<path d="M-23.33452377915606,-6.776921621700124 L-28.001428534987284,-9.471360338761627 " />
			<path d="M-37.900923471598944,-12.32909837200867 L-37.33523804664971,-12.002499739637578 " />
			<path d="M-37.33523804664971,-12.002499739637578 L-37.33523804664971,-10.20620726159658 " />
			<path d="M-37.335238046649714,-12.002499739637575 L-37.900923471598944,-11.675901107266485 " />
			<path d="M-39.66869042456532,-10.655280381106829 L-21.095352305398666,0.06804138174398133 " />
			<path d="M-21.09535230539867,1.4560855693211112 L-21.09535230539867,0.06804138174397509 " />
			<path d="M-21.09535230539867,1.4560855693211145 L-20.529666880449433,1.7826842016922049 " />
			<path d="M-20.529666880449433,1.7826842016922007 L-20.529666880449433,0.39464001411506455 " />
			<path d="M-20.52966688044943,0.39464001411507077 L-11.667261889578029,5.511351921262159 " />
			<path d="M-11.667261889578036,6.899396108839287 L-11.667261889578036,5.511351921262151 " />
			<path d="M-11.667261889578032,6.899396108839291 L-11.101576464628794,7.225994741210382 " />
			<path d="M-11.101576464628799,7.225994741210377 L-11.101576464628799,5.837950553633241 " />
			<path d="M-11.101576464628796,5.837950553633247 L-2.239171473757395,10.954662460780336 " />
			<path d="M-2.2391714737574038,12.342706648357462 L-2.2391714737574038,10.954662460780325 " />
			<path d="M-2.2391714737573984,12.342706648357467 L-1.6734860488081615,12.669305280728558 " />
			<path d="M-1.6734860488081689,12.669305280728553 L-1.6734860488081686,11.281261093151416 " />
			<path d="M16.899852070358484,22.004582856002223 L16.899852070358484,23.800875334043223 " />
			<path d="M11.242997820866108,11.961674910591189 L11.242997820866108,13.757967388632188 " />
			<path d="M16.970562748477136,15.26848606334848 L16.970562748477136,17.06477854138948 " />
			<path d="M28.001428534987276,8.899812732112215 L28.001428534987276,9.471360338761615 " />
			<path d="M22.27386360737625,5.593001579354926 L22.27386360737625,7.389294057395926 " />
			<path d="M23.33452377915607,4.980629143659133 L23.33452377915607,6.776921621700133 " />
			<path d="M35.426049737446036,11.961674910591189 L35.426049737446036,13.757967388632188 " />
			<path d="M21.095352305398663,-0.47628967220784 L-1.6734860488081793,12.669305280728555 " />
			<path d="M20.529666880449426,-0.8028883045789295 L-2.239171473757416,12.342706648357467 " />
			<path d="M-2.2391714737574056,10.95466246078033 L20.529666880449433,-2.1909324921560662 " />
			<path d="M-11.101576464628803,5.8379505536332434 L11.101576464628799,-6.981045766932061 " />
			<path d="M11.667261889578034,-5.919600211726017 L-11.10157646462881,7.225994741210378 " />
			<path d="M11.101576464628797,-6.246198844097107 L-11.667261889578047,6.899396108839289 " />
			<path d="M-11.66726188957804,5.511351921262156 L11.101576464628799,-7.63424303167424 " />
			<path d="M-20.52966688044944,0.394640014115069 L1.6734860488081624,-12.424356306450235 " />
			<path d="M2.239171473757402,-11.362910751244186 L-20.52966688044944,1.7826842016922093 " />
			<path d="M1.6734860488081669,-11.689509383615274 L-21.095352305398677,1.4560855693211217 " />
			<path d="M-21.095352305398677,0.06804138174397778 L1.6734860488081642,-13.077553571192418 " />

       </g>

       <!-- solid lines -->
       <g  stroke="rgb(200,20,20)" fill="none">
			<path d="M19.79898987322333,22.780254607883563 L22.27386360737625,21.35138559126004 " />
			<path d="M22.27386360737625,19.555093113219044 L22.27386360737625,21.35138559126004 " />
			<path d="M37.90092347159895,12.32909837200867 L37.335238046649714,12.00249973963758 " />
			<path d="M37.335238046649714,12.002499739637575 L39.66869042456533,10.655280381106824 " />
			<path d="M-16.899852070358484,-22.004582856002223 L39.66869042456533,10.655280381106842 " />
			<path d="M-19.23330444827409,-20.657363497471472 L-16.89985207035848,-22.004582856002223 " />
			<path d="M-19.798989873223327,-20.983962129842567 L-19.23330444827409,-20.657363497471476 " />
			<path d="M-19.798989873223327,-20.983962129842567 L-22.273863607376246,-19.555093113219044 " />
			<path d="M-10.182337649086278,-12.574047346286976 L-22.273863607376246,-19.55509311321904 " />
			<path d="M-10.182337649086282,-12.574047346286983 L-11.242997820866103,-11.961674910591189 " />
			<path d="M-11.242997820866103,-11.961674910591187 L-16.97056274847714,-15.26848606334848 " />
			<path d="M-16.97056274847714,-15.268486063348481 L-28.001428534987284,-8.899812732112215 " />
			<path d="M-22.273863607376242,-5.593001579354922 L-28.00142853498728,-8.899812732112217 " />
			<path d="M-22.27386360737625,-5.593001579354923 L-23.33452377915607,-4.9806291436591295 " />
			<path d="M-23.33452377915606,-4.980629143659124 L-35.42604973744603,-11.961674910591189 " />
			<path d="M-35.426049737446036,-11.96167491059119 L-37.90092347159895,-10.53280589396767 " />
			<path d="M-37.900923471598944,-10.53280589396767 L-37.33523804664971,-10.206207261596578 " />
			<path d="M-39.66869042456532,-8.85898790306583 L-37.335238046649714,-10.206207261596578 " />
			<path d="M-39.66869042456532,-8.85898790306583 L16.89985207035849,23.800875334043234 " />
			<path d="M16.899852070358484,23.80087533404322 L19.23330444827409,22.453655975512472 " />
			<path d="M19.79898987322333,22.780254607883563 L19.233304448274094,22.453655975512472 " />
			<path d="M10.182337649086282,14.370339824327976 L22.27386360737625,21.35138559126004 " />
			<path d="M10.182337649086287,14.370339824327981 L11.242997820866108,13.757967388632187 " />
			<path d="M11.242997820866107,13.757967388632185 L16.97056274847714,17.064778541389476 " />
			<path d="M16.97056274847714,17.064778541389476 L28.001428534987284,10.696105210153211 " />
			<path d="M22.27386360737625,7.389294057395923 L28.001428534987284,10.696105210153213 " />
			<path d="M22.273863607376253,7.389294057395921 L23.334523779156072,6.776921621700128 " />
			<path d="M23.33452377915607,6.7769216217001205 L35.426049737446036,13.757967388632185 " />
			<path d="M35.426049737446036,13.757967388632187 L37.90092347159896,12.329098372008666 " />
			<path d="M17.465537495307725,16.77900473806477 L22.27386360737625,19.55509311321904 " />
			<path d="M21.09535230539867,-1.864333859784967 L39.66869042456533,8.858987903065845 " />
			<path d="M20.529666880449433,-1.5377352274138882 L21.095352305398666,-1.8643338597849768 " />
			<path d="M37.90092347159895,11.675901107266483 L37.90092347159895,12.32909837200867 " />
			<path d="M39.66869042456532,10.655280381106829 L39.66869042456532,8.858987903065831 " />
			<path d="M21.095352305398666,-1.8643338597849772 L21.095352305398666,-0.47628967220784124 " />
			<path d="M21.09535230539867,-0.4762896722078356 L20.529666880449433,-0.8028883045789268 " />
			<path d="M20.529666880449433,-2.1909324921560667 L20.529666880449433,-0.8028883045789307 " />
			<path d="M11.66726188957804,-7.307644399303143 L20.52966688044944,-2.1909324921560547 " />
			<path d="M11.667261889578036,-7.307644399303151 L11.667261889578036,-5.9196002117260145 " />
			<path d="M11.667261889578041,-5.91960021172601 L11.101576464628803,-6.246198844097101 " />
			<path d="M11.101576464628799,-7.634243031674241 L11.101576464628799,-6.246198844097104 " />
			<path d="M2.2391714737574056,-12.75095493882132 L11.101576464628806,-7.634243031674231 " />
			<path d="M2.2391714737574,-12.750954938821327 L2.2391714737574,-11.36291075124419 " />
			<path d="M2.2391714737574038,-11.362910751244186 L1.6734860488081669,-11.689509383615277 " />
			<path d="M1.6734860488081633,-13.077553571192418 L1.6734860488081633,-11.689509383615281 " />
			<path d="M-16.899852070358484,-23.80087533404322 L1.6734860488081686,-13.077553571192409 " />
			<path d="M-16.899852070358484,-22.004582856002223 L-16.899852070358484,-23.800875334043223 " />
			<path d="M-19.23330444827409,-22.453655975512472 L-19.23330444827409,-20.657363497471472 " />
			<path d="M-16.899852070358484,-23.80087533404322 L-19.23330444827409,-22.453655975512472 " />
			<path d="M-19.798989873223327,-22.780254607883563 L-19.23330444827409,-22.453655975512472 " />
			<path d="M-19.798989873223327,-22.780254607883563 L-19.798989873223327,-20.983962129842563 " />
			<path d="M-22.273863607376246,-21.35138559126004 L-22.273863607376246,-19.555093113219044 " />
			<path d="M-19.798989873223327,-22.780254607883563 L-22.273863607376246,-21.35138559126004 " />
			<path d="M-11.242997820866103,-13.186419781982774 L-11.242997820866103,-11.961674910591189 " />
			<path d="M-16.970562748477143,-16.49323093474007 L-16.970562748477143,-15.268486063348483 " />
			<path d="M-28.001428534987287,-10.69610521015322 L-28.001428534987287,-8.89981273211222 " />
			<path d="M-17.46553749530773,-16.779004738064774 L-28.001428534987284,-10.696105210153215 " />
			<path d="M-23.334523779156065,-6.205374015050719 L-23.334523779156065,-4.9806291436591295 " />
			<path d="M-35.42604973744603,-13.75796738863219 L-35.42604973744603,-11.96167491059119 " />
			<path d="M-28.001428534987284,-9.471360338761627 L-35.42604973744603,-13.757967388632188 " />
			<path d="M-37.900923471598944,-12.32909837200867 L-37.900923471598944,-10.53280589396767 " />
			<path d="M-35.426049737446036,-13.757967388632187 L-37.90092347159895,-12.329098372008666 " />
			<path d="M-39.66869042456532,-10.655280381106829 L-39.66869042456532,-8.858987903065831 " />
			<path d="M-37.900923471598944,-11.675901107266485 L-39.66869042456533,-10.655280381106824 " />
			<path d="M28.001428534987276,9.471360338761615 L28.001428534987276,10.696105210153215 " />
			<path d="M11.101576464628799,-6.981045766932061 L11.667261889578036,-7.307644399303152 " />
			<path d="M1.6734860488081624,-12.424356306450235 L2.239171473757401,-12.750954938821327 " />

       </g>
    </g>
    
</svg>
