<?xml version="1.0" encoding="UTF-8" standalone="no"?>
<svg
   xmlns:svg="http://www.w3.org/2000/svg"
   xmlns="http://www.w3.org/2000/svg"
   width="480.0"
   height="480.0"

>
    <g transform="scale(4.242640687119284, -4.242640687119284)   translate(53.74011537017762,-51.75087200210369)" stroke-width="0.23570226039551592"  fill="none">
       <!-- hidden lines -->
       <g  stroke="rgb(100,40,40)" fill="none" stroke-dasharray="0.23570226039551592,0.23570226039551592" >
			<path d="M17.677669529663696,23.63757601785768 L17.677669529663696,25.352218837805907 " />
			<path d="M17.677669529663696,23.63757601785768 L42.42640687119287,9.348885851622468 " />
			<path d="M17.67766952966369,23.637576017857675 L-2.663435542469337,11.893633528847205 " />
			<path d="M-22.085301799059835,0.6804138174397689 L-42.42640687119285,-11.0635286715707 " />
			<path d="M-22.085301799059835,1.5377352274138834 L-22.085301799059835,0.6804138174397691 " />
			<path d="M-22.085301799059835,1.5377352274138865 L-21.519616374110598,1.8643338597849768 " />
			<path d="M-21.519616374110598,1.8643338597849728 L-21.519616374110598,1.0070124498108586 " />
			<path d="M-21.519616374110594,1.0070124498108655 L-12.657211383239193,6.123724356957954 " />
			<path d="M-12.6572113832392,6.981045766932061 L-12.6572113832392,6.123724356957946 " />
			<path d="M-12.657211383239197,6.981045766932063 L-12.091525958289958,7.307644399303154 " />
			<path d="M-12.091525958289964,7.30764439930315 L-12.091525958289964,6.4503229893290355 " />
			<path d="M-12.09152595828996,6.450322989329042 L-3.2291209674185595,11.56703489647613 " />
			<path d="M-3.2291209674185684,12.424356306450234 L-3.2291209674185684,11.56703489647612 " />
			<path d="M-3.229120967418563,12.424356306450239 L-2.663435542469326,12.75095493882133 " />
			<path d="M-2.6634355424693332,12.750954938821323 L-2.6634355424693332,11.893633528847209 " />
			<path d="M-2.6634355424693403,11.893633528847214 L21.519616374110598,-2.068458005016909 " />
			<path d="M9.970205614730324,12.737346662472527 L17.182694782833103,16.90147922520393 " />
			<path d="M9.970205614730324,12.737346662472529 L11.242997820866108,12.002499739637575 " />
			<path d="M11.242997820866108,12.002499739637576 L16.97056274847714,15.309310892394867 " />
			<path d="M16.97056274847714,15.309310892394866 L28.001428534987284,8.940637561158601 " />
			<path d="M22.27386360737625,5.63382640840131 L28.00142853498728,8.940637561158601 " />
			<path d="M22.27386360737625,5.63382640840131 L23.546655813512036,4.8989794855663575 " />
			<path d="M23.54665581351204,4.898979485566356 L35.496760415564694,11.798375594405647 " />
			<path d="M34.01183617507294,12.65569700437976 L35.496760415564694,11.798375594405648 " />
			<path d="M-22.08530179905984,0.6804138174397742 L2.663435542469329,-13.608276348795439 " />
			<path d="M-9.970205614730316,-14.451989482420753 L-21.920310216782973,-21.351385591260044 " />
			<path d="M-9.97020561473032,-14.451989482420757 L-11.242997820866105,-13.717142559585803 " />
			<path d="M-11.242997820866103,-13.717142559585803 L-16.97056274847714,-17.023953712343094 " />
			<path d="M-16.970562748477143,-17.023953712343094 L-17.18269478283311,-16.901479225203936 " />
			<path d="M-22.273863607376242,-7.348469228349535 L-28.00142853498728,-10.655280381106829 " />
			<path d="M-22.27386360737625,-7.348469228349538 L-23.546655813512032,-6.6136223055145855 " />
			<path d="M-23.546655813512032,-6.613622305514582 L-28.001428534987284,-9.185586535436922 " />
			<path d="M-34.011836175072936,-12.655697004379759 L-35.496760415564694,-13.513018414353873 " />
			<path d="M-21.920310216782976,-21.351385591260044 L-35.496760415564694,-13.513018414353873 " />
			<path d="M2.6634355424693297,-12.750954938821321 L-22.085301799059835,1.53773522741389 " />
			<path d="M3.2291209674185666,-12.424356306450234 L-21.519616374110598,1.8643338597849777 " />
			<path d="M-21.519616374110605,1.007012449810862 L2.663435542469327,-12.95507908405326 " />
			<path d="M-12.657211383239208,6.1237243569579505 L12.091525958289964,-8.164965809277263 " />
			<path d="M12.091525958289965,-7.307644399303147 L-12.6572113832392,6.9810457669320645 " />
			<path d="M12.657211383239199,-6.981045766932057 L-12.091525958289967,7.307644399303154 " />
			<path d="M-12.09152595828997,6.450322989329038 L12.091525958289964,-7.511768544535083 " />
			<path d="M-3.2291209674185772,11.567034896476123 L21.519616374110594,-2.721655269759088 " />
			<path d="M21.51961637411059,-1.8643338597849688 L-3.2291209674185737,12.424356306450242 " />
			<path d="M22.085301799059827,-1.5377352274138802 L-2.663435542469337,12.75095493882133 " />
			<path d="M9.970205614730318,12.737346662472529 L9.970205614730318,14.451989482420755 " />
			<path d="M11.242997820866108,12.002499739637576 L11.242997820866108,13.717142559585803 " />
			<path d="M16.970562748477136,15.309310892394864 L16.970562748477136,17.02395371234309 " />
			<path d="M28.001428534987276,8.9406375611586 L28.001428534987276,9.185586535436917 " />
			<path d="M22.27386360737625,5.633826408401314 L22.27386360737625,7.34846922834954 " />
			<path d="M23.546655813512032,4.898979485566359 L23.546655813512032,6.6136223055145855 " />
			<path d="M35.49676041556469,11.798375594405647 L35.49676041556469,13.513018414353873 " />
			<path d="M-22.273863607376246,-7.348469228349538 L-22.273863607376246,-5.633826408401312 " />
			<path d="M-23.546655813512032,-6.6136223055145855 L-23.546655813512032,-6.368673331236266 " />
			<path d="M-16.970562748477146,-17.023953712343097 L-16.970562748477146,-16.779004738064778 " />
			<path d="M-35.49676041556469,-13.513018414353873 L-35.49676041556469,-11.798375594405647 " />
			<path d="M-11.242997820866105,-13.7171425595858 L-11.242997820866105,-13.472193585307481 " />
			<path d="M-21.920310216782976,-21.351385591260044 L-21.920310216782976,-19.636742771311816 " />
			<path d="M-9.970205614730318,-14.451989482420755 L-9.970205614730318,-12.737346662472529 " />

       </g>

       <!-- solid lines -->
       <g  stroke="rgb(200,20,20)" fill="none">
			<path d="M17.677669529663696,25.3522188378059 L42.42640687119287,11.063528671570689 " />
			<path d="M42.42640687119286,9.348885851622471 L42.42640687119286,11.063528671570698 " />
			<path d="M-42.42640687119285,-9.348885851622468 L17.677669529663696,25.352218837805907 " />
			<path d="M-42.42640687119285,-11.06352867157069 L-42.42640687119285,-9.348885851622464 " />
			<path d="M-17.67766952966369,-23.637576017857675 L42.42640687119286,11.063528671570701 " />
			<path d="M-17.677669529663685,-23.637576017857672 L-42.42640687119285,-9.34888585162246 " />
			<path d="M9.970205614730324,14.451989482420755 L21.92031021678298,21.351385591260048 " />
			<path d="M9.970205614730324,14.451989482420757 L11.242997820866108,13.717142559585803 " />
			<path d="M11.242997820866108,13.7171425595858 L16.97056274847714,17.02395371234309 " />
			<path d="M16.97056274847714,17.02395371234309 L28.001428534987284,10.655280381106826 " />
			<path d="M22.27386360737625,7.348469228349536 L28.00142853498728,10.655280381106827 " />
			<path d="M22.27386360737625,7.348469228349538 L23.546655813512036,6.6136223055145855 " />
			<path d="M23.54665581351204,6.613622305514584 L35.496760415564694,13.513018414353875 " />
			<path d="M21.92031021678298,21.351385591260048 L35.496760415564694,13.513018414353876 " />
			<path d="M-22.273863607376242,-5.633826408401309 L-28.00142853498728,-8.940637561158603 " />
			<path d="M-22.27386360737625,-5.63382640840131 L-23.546655813512032,-4.8989794855663575 " />
			<path d="M-16.970562748477143,-15.309310892394866 L-28.001428534987284,-8.940637561158601 " />
			<path d="M-23.546655813512032,-4.898979485566354 L-35.496760415564694,-11.798375594405645 " />
			<path d="M-11.242997820866103,-12.002499739637575 L-16.97056274847714,-15.309310892394867 " />
			<path d="M-21.920310216782976,-19.636742771311816 L-35.496760415564694,-11.798375594405645 " />
			<path d="M-9.97020561473032,-12.737346662472529 L-11.242997820866105,-12.002499739637575 " />
			<path d="M-9.970205614730316,-12.737346662472525 L-21.920310216782973,-19.636742771311816 " />
			<path d="M-17.677669529663685,-25.3522188378059 L-17.677669529663685,-23.637576017857672 " />
			<path d="M-17.67766952966369,-25.3522188378059 L2.6634355424693332,-13.608276348795432 " />
			<path d="M2.663435542469328,-13.608276348795439 L2.663435542469328,-12.750954938821325 " />
			<path d="M3.2291209674185684,-12.424356306450232 L2.6634355424693315,-12.750954938821323 " />
			<path d="M3.229120967418565,-13.281677716424348 L3.229120967418565,-12.424356306450234 " />
			<path d="M3.22912096741857,-13.281677716424344 L12.09152595828997,-8.164965809277255 " />
			<path d="M12.091525958289964,-8.164965809277263 L12.091525958289964,-7.307644399303149 " />
			<path d="M12.657211383239206,-6.981045766932054 L12.091525958289967,-7.307644399303145 " />
			<path d="M12.6572113832392,-7.838367176906173 L12.6572113832392,-6.981045766932059 " />
			<path d="M12.657211383239204,-7.838367176906168 L21.519616374110605,-2.7216552697590792 " />
			<path d="M21.519616374110598,-2.7216552697590877 L21.519616374110598,-1.8643338597849737 " />
			<path d="M22.085301799059835,-1.5377352274138776 L21.519616374110598,-1.8643338597849688 " />
			<path d="M22.08530179905983,-2.3950566373879982 L22.08530179905983,-1.5377352274138842 " />
			<path d="M22.08530179905983,-2.395056637387998 L42.42640687119285,9.348885851622473 " />
			<path d="M21.519616374110598,-2.068458005016909 L22.08530179905983,-2.3950566373879987 " />
			<path d="M17.182694782833103,16.90147922520393 L21.92031021678298,19.63674277131182 " />
			<path d="M21.92031021678298,19.63674277131182 L34.01183617507294,12.65569700437976 " />
			<path d="M-17.677669529663685,-25.3522188378059 L-42.42640687119285,-11.063528671570689 " />
			<path d="M-17.18269478283311,-16.901479225203936 L-28.001428534987284,-10.655280381106829 " />
			<path d="M-28.001428534987284,-9.185586535436922 L-34.011836175072936,-12.655697004379759 " />
			<path d="M2.663435542469327,-12.95507908405326 L3.2291209674185657,-13.281677716424351 " />
			<path d="M12.091525958289964,-7.511768544535083 L12.6572113832392,-7.838367176906174 " />
			<path d="M21.920310216782976,19.636742771311816 L21.920310216782976,21.351385591260044 " />
			<path d="M28.001428534987276,9.185586535436917 L28.001428534987276,10.655280381106826 " />
			<path d="M-28.001428534987287,-10.655280381106833 L-28.001428534987287,-8.940637561158606 " />
			<path d="M-23.546655813512032,-6.368673331236266 L-23.546655813512032,-4.898979485566359 " />
			<path d="M-16.970562748477146,-16.779004738064778 L-16.970562748477146,-15.30931089239487 " />
			<path d="M-11.242997820866105,-13.472193585307481 L-11.242997820866105,-12.002499739637575 " />

       </g>
    </g>
    
</svg>
