<?xml version="1.0" encoding="UTF-8" standalone="no"?>
<svg
   xmlns:svg="http://www.w3.org/2000/svg"
   xmlns="http://www.w3.org/2000/svg"
   width="480.0"
   height="480.0"

>
    <g transform="scale(3.181980515339463, -3.181980515339463)   translate(71.65348716023684,-68.7153888661469)" stroke-width="0.31426968052735454"  fill="none">
       <!-- hidden lines -->
       <g  stroke="rgb(100,40,40)" fill="none" stroke-dasharray="0.31426968052735454,0.31426968052735454" >
			<path d="M31.819805153394647,31.80254182713495 L31.819805153394647,33.51718464708318 " />
			<path d="M31.819805153394647,31.80254182713495 L56.56854249492382,17.51385166089974 " />
			<path d="M31.81980515339464,31.802541827134938 L9.121677477306463,18.69777170324493 " />
			<path d="M-33.87041481883563,-6.12372435695795 L-56.56854249492381,-19.228494480847964 " />
			<path d="M-33.87041481883563,-5.2664029469838365 L-33.87041481883563,-6.1237243569579505 " />
			<path d="M-33.87041481883563,-5.266402946983836 L-33.30472939388639,-4.939804314612745 " />
			<path d="M-33.30472939388639,-4.939804314612747 L-33.30472939388639,-5.797125724586861 " />
			<path d="M-33.30472939388639,-5.7971257245868575 L-23.263813101037407,3.552713678800501e-15 " />
			<path d="M-23.263813101037414,0.8573214099741127 L-23.263813101037414,-1.4988010832439613e-15 " />
			<path d="M-23.263813101037417,0.857321409974114 L-22.698127676088177,1.1839200423452052 " />
			<path d="M-22.698127676088177,1.183920042345202 L-22.698127676088177,0.32659863237108794 " />
			<path d="M-22.69812767608817,0.3265986323710912 L-12.657211383239193,6.123724356957954 " />
			<path d="M-12.6572113832392,6.981045766932061 L-12.6572113832392,6.123724356957946 " />
			<path d="M-12.657211383239197,6.981045766932065 L-12.091525958289957,7.307644399303157 " />
			<path d="M-12.091525958289964,7.30764439930315 L-12.091525958289964,6.4503229893290355 " />
			<path d="M-12.091525958289957,6.450322989329042 L-2.0506096654409802,12.247448713915901 " />
			<path d="M-2.050609665440991,13.104770123890004 L-2.050609665440991,12.24744871391589 " />
			<path d="M-2.0506096654409873,13.104770123890011 L-1.4849242404917504,13.4313687562611 " />
			<path d="M-1.4849242404917453,13.431368756261099 L-1.484924240491745,12.574047346286985 " />
			<path d="M-1.4849242404917362,12.574047346286996 L8.555992052357226,18.371173070873844 " />
			<path d="M8.555992052357222,19.228494480847953 L8.555992052357222,18.371173070873837 " />
			<path d="M8.555992052357226,19.228494480847957 L9.121677477306463,19.555093113219048 " />
			<path d="M9.121677477306466,19.555093113219048 L9.121677477306466,18.697771703244932 " />
			<path d="M9.12167747730646,18.69777170324494 L33.30472939388639,4.735680169380819 " />
			<path d="M24.112341238461276,20.902312471749795 L31.324830406564057,25.066445034481198 " />
			<path d="M24.112341238461273,20.90231247174979 L25.38513344459706,20.167465548914837 " />
			<path d="M25.385133444597052,20.16746554891484 L31.112698372208083,23.474276701672128 " />
			<path d="M31.112698372208094,23.474276701672128 L42.143564158718235,17.105603370435865 " />
			<path d="M36.4159992311072,13.798792217678573 L42.143564158718235,17.105603370435862 " />
			<path d="M36.4159992311072,13.798792217678573 L37.68879143724298,13.06394529484362 " />
			<path d="M37.68879143724299,13.063945294843622 L49.638896039295645,19.963341403682914 " />
			<path d="M48.153971798803894,20.820662813657023 L49.638896039295645,19.963341403682914 " />
			<path d="M-33.870414818835634,-6.123724356957947 L-9.121677477306463,-20.41241452319316 " />
			<path d="M-24.112341238461262,-22.616955291698012 L-36.062445840513924,-29.516351400537303 " />
			<path d="M-24.112341238461273,-22.61695529169802 L-25.38513344459706,-21.882108368863065 " />
			<path d="M-25.385133444597052,-21.882108368863065 L-31.11269837220809,-25.188919521620356 " />
			<path d="M-31.112698372208094,-25.188919521620356 L-31.324830406564057,-25.066445034481198 " />
			<path d="M-36.4159992311072,-15.513435037626799 L-42.14356415871824,-18.82024619038409 " />
			<path d="M-36.4159992311072,-15.5134350376268 L-37.68879143724298,-14.778588114791848 " />
			<path d="M-37.688791437242976,-14.778588114791841 L-42.14356415871824,-17.35055234471419 " />
			<path d="M-48.15397179880389,-20.820662813657023 L-49.63889603929564,-21.67798422363113 " />
			<path d="M-36.062445840513924,-29.516351400537307 L-49.63889603929564,-21.677984223631135 " />
			<path d="M-9.121677477306461,-19.555093113219044 L-33.87041481883563,-5.266402946983831 " />
			<path d="M-8.555992052357228,-19.228494480847957 L-33.30472939388639,-4.9398043146127435 " />
			<path d="M-33.3047293938864,-5.797125724586856 L-9.121677477306463,-19.759217258450978 " />
			<path d="M-23.26381310103742,3.552713678800501e-15 L1.4849242404917513,-14.28869016623521 " />
			<path d="M1.4849242404917504,-13.431368756261092 L-23.263813101037414,0.8573214099741193 " />
			<path d="M2.0506096654409856,-13.104770123890004 L-22.69812767608818,1.183920042345207 " />
			<path d="M-22.698127676088184,0.3265986323710912 L1.4849242404917495,-13.63549290149303 " />
			<path d="M-12.657211383239208,6.1237243569579505 L12.091525958289964,-8.164965809277263 " />
			<path d="M12.091525958289965,-7.3076443993031415 L-12.6572113832392,6.98104576693207 " />
			<path d="M12.657211383239199,-6.981045766932052 L-12.091525958289967,7.307644399303159 " />
			<path d="M-12.09152595828997,6.450322989329038 L12.091525958289964,-7.511768544535083 " />
			<path d="M-2.050609665440998,12.247448713915894 L22.698127676088173,-2.0412414523193174 " />
			<path d="M22.69812767608817,-1.1839200423452034 L-2.0506096654409944,13.104770123890008 " />
			<path d="M23.263813101037407,-0.857321409974114 L-1.4849242404917575,13.431368756261097 " />
			<path d="M-1.484924240491754,12.574047346286989 L22.698127676088173,-1.388044187577127 " />
			<path d="M8.555992052357215,18.371173070873844 L33.30472939388639,4.08248290463863 " />
			<path d="M33.30472939388638,4.9398043146127435 L8.555992052357219,19.228494480847957 " />
			<path d="M33.87041481883562,5.266402946983833 L9.121677477306456,19.555093113219044 " />
			<path d="M24.11234123846127,20.90231247174979 L24.11234123846127,22.61695529169802 " />
			<path d="M25.38513344459706,20.167465548914837 L25.38513344459706,21.882108368863065 " />
			<path d="M31.112698372208076,23.474276701672117 L31.112698372208076,25.188919521620345 " />
			<path d="M42.14356415871822,17.105603370435855 L42.14356415871822,17.350552344714174 " />
			<path d="M36.4159992311072,13.798792217678574 L36.4159992311072,15.5134350376268 " />
			<path d="M37.68879143724298,13.063945294843622 L37.68879143724298,14.778588114791848 " />
			<path d="M49.63889603929564,19.963341403682907 L49.63889603929564,21.677984223631135 " />
			<path d="M-36.4159992311072,-15.513435037626802 L-36.4159992311072,-13.798792217678576 " />
			<path d="M-37.688791437242976,-14.778588114791845 L-37.688791437242976,-14.533639140513522 " />
			<path d="M-31.112698372208097,-25.18891952162036 L-31.112698372208097,-24.94397054734204 " />
			<path d="M-49.63889603929563,-21.67798422363113 L-49.63889603929563,-19.963341403682904 " />
			<path d="M-25.38513344459706,-21.882108368863065 L-25.38513344459706,-21.63715939458475 " />
			<path d="M-36.06244584051392,-29.5163514005373 L-36.06244584051392,-27.80170858058907 " />
			<path d="M-24.112341238461262,-22.616955291698016 L-24.112341238461262,-20.902312471749788 " />

       </g>

       <!-- solid lines -->
       <g  stroke="rgb(200,20,20)" fill="none">
			<path d="M31.819805153394647,33.51718464708317 L56.56854249492382,19.228494480847957 " />
			<path d="M56.56854249492381,17.51385166089974 L56.56854249492381,19.228494480847967 " />
			<path d="M-56.568542494923804,-17.513851660899732 L31.819805153394654,33.51718464708318 " />
			<path d="M-56.5685424949238,-19.228494480847957 L-56.5685424949238,-17.51385166089973 " />
			<path d="M-31.81980515339464,-31.802541827134938 L56.56854249492382,19.22849448084797 " />
			<path d="M-31.819805153394633,-31.802541827134938 L-56.568542494923804,-17.513851660899725 " />
			<path d="M24.112341238461276,22.61695529169802 L36.06244584051393,29.51635140053731 " />
			<path d="M24.112341238461273,22.61695529169802 L25.38513344459706,21.882108368863065 " />
			<path d="M25.385133444597052,21.882108368863065 L31.112698372208083,25.188919521620353 " />
			<path d="M31.112698372208094,25.188919521620356 L42.143564158718235,18.82024619038409 " />
			<path d="M36.4159992311072,15.5134350376268 L42.143564158718235,18.82024619038409 " />
			<path d="M36.4159992311072,15.5134350376268 L37.68879143724298,14.778588114791848 " />
			<path d="M37.68879143724299,14.778588114791846 L49.638896039295645,21.67798422363114 " />
			<path d="M36.06244584051393,29.51635140053731 L49.638896039295645,21.67798422363114 " />
			<path d="M-36.4159992311072,-13.798792217678574 L-42.14356415871824,-17.105603370435865 " />
			<path d="M-36.4159992311072,-13.798792217678573 L-37.68879143724298,-13.06394529484362 " />
			<path d="M-31.112698372208094,-23.474276701672128 L-42.143564158718235,-17.105603370435865 " />
			<path d="M-37.688791437242976,-13.063945294843617 L-49.63889603929564,-19.963341403682907 " />
			<path d="M-25.385133444597052,-20.167465548914837 L-31.11269837220809,-23.47427670167213 " />
			<path d="M-36.062445840513924,-27.801708580589082 L-49.63889603929564,-19.96334140368291 " />
			<path d="M-24.112341238461273,-20.90231247174979 L-25.38513344459706,-20.167465548914837 " />
			<path d="M-24.112341238461262,-20.902312471749788 L-36.062445840513924,-27.80170858058908 " />
			<path d="M-31.819805153394633,-33.51718464708316 L-31.819805153394633,-31.802541827134934 " />
			<path d="M-31.81980515339464,-33.51718464708317 L-9.121677477306456,-20.412414523193156 " />
			<path d="M-9.121677477306463,-20.412414523193156 L-9.121677477306463,-19.555093113219044 " />
			<path d="M-8.555992052357226,-19.22849448084795 L-9.121677477306463,-19.55509311321904 " />
			<path d="M-8.555992052357226,-20.08581589082207 L-8.555992052357226,-19.228494480847957 " />
			<path d="M-8.555992052357222,-20.08581589082206 L1.4849242404917575,-14.288690166235202 " />
			<path d="M1.4849242404917504,-14.28869016623521 L1.4849242404917504,-13.431368756261095 " />
			<path d="M2.050609665440991,-13.104770123890004 L1.4849242404917504,-13.431368756261095 " />
			<path d="M2.0506096654409873,-13.962091533864118 L2.0506096654409873,-13.104770123890004 " />
			<path d="M2.0506096654409944,-13.962091533864115 L12.09152595828997,-8.164965809277252 " />
			<path d="M12.091525958289964,-8.164965809277263 L12.091525958289964,-7.307644399303149 " />
			<path d="M12.657211383239208,-6.98104576693205 L12.091525958289967,-7.3076443993031415 " />
			<path d="M12.6572113832392,-7.838367176906173 L12.6572113832392,-6.981045766932059 " />
			<path d="M12.657211383239208,-7.838367176906164 L22.698127676088184,-2.041241452319305 " />
			<path d="M22.698127676088173,-2.041241452319317 L22.698127676088173,-1.183920042345203 " />
			<path d="M23.263813101037414,-0.8573214099741069 L22.698127676088177,-1.1839200423451963 " />
			<path d="M23.26381310103742,-1.7146428199482222 L23.26381310103742,-0.8573214099741082 " />
			<path d="M23.263813101037428,-1.7146428199482102 L33.30472939388639,4.082482904638638 " />
			<path d="M33.30472939388639,4.08248290463863 L33.30472939388639,4.939804314612745 " />
			<path d="M33.87041481883563,5.266402946983838 L33.30472939388639,4.939804314612747 " />
			<path d="M33.87041481883563,4.409081537009725 L33.87041481883563,5.26640294698384 " />
			<path d="M33.87041481883563,4.409081537009724 L56.568542494923804,17.513851660899732 " />
			<path d="M33.30472939388639,4.735680169380819 L33.870414818835634,4.409081537009725 " />
			<path d="M31.324830406564057,25.066445034481198 L36.06244584051393,27.801708580589086 " />
			<path d="M36.06244584051393,27.801708580589086 L48.153971798803894,20.820662813657023 " />
			<path d="M-31.819805153394633,-33.51718464708316 L-56.568542494923804,-19.22849448084795 " />
			<path d="M-31.324830406564057,-25.066445034481198 L-42.143564158718235,-18.82024619038409 " />
			<path d="M-42.14356415871824,-17.35055234471419 L-48.15397179880389,-20.820662813657023 " />
			<path d="M-9.121677477306463,-19.759217258450978 L-8.555992052357226,-20.08581589082207 " />
			<path d="M1.4849242404917495,-13.63549290149303 L2.050609665440988,-13.962091533864122 " />
			<path d="M12.091525958289964,-7.511768544535083 L12.6572113832392,-7.838367176906174 " />
			<path d="M22.698127676088173,-1.388044187577127 L23.263813101037417,-1.7146428199482227 " />
			<path d="M36.062445840513924,27.80170858058908 L36.062445840513924,29.516351400537307 " />
			<path d="M42.14356415871822,17.350552344714174 L42.14356415871822,18.820246190384083 " />
			<path d="M-42.14356415871824,-18.820246190384093 L-42.14356415871824,-17.105603370435865 " />
			<path d="M-37.688791437242976,-14.533639140513522 L-37.688791437242976,-13.063945294843618 " />
			<path d="M-31.112698372208097,-24.94397054734204 L-31.112698372208097,-23.47427670167213 " />
			<path d="M-25.38513344459706,-21.63715939458475 L-25.38513344459706,-20.167465548914837 " />

       </g>
    </g>
    
</svg>
