<?xml version="1.0" encoding="UTF-8" standalone="no"?>
<svg
   xmlns:svg="http://www.w3.org/2000/svg"
   xmlns="http://www.w3.org/2000/svg"
   width="480.0"
   height="480.0"

>
    <g transform="scale(2.192579166469914, -2.192579166469914)   translate(103.9871232412937,-99.37716663479125)" stroke-width="0.4560838738653233"  fill="none">
       <!-- hidden lines -->
       <g  stroke="rgb(100,40,40)" fill="none" stroke-dasharray="0.4560838738653233,0.4560838738653233" >
			<path d="M62.22539674441619,45.47885955767435 L64.70027047856911,44.049990541050825 " />
			<path d="M62.22539674441619,45.47885955767435 L62.22539674441619,47.275152035715344 " />
			<path d="M52.608744520279146,37.06894477411878 L52.608744520279146,38.86523725215978 " />
			<path d="M52.608744520279146,37.068944774118776 L59.89194436650058,41.273902165896565 " />
			<path d="M80.3273303427918,35.02770332179945 L79.76164491784255,34.701104689428355 " />
			<path d="M82.09509729575817,33.35388533089762 L79.76164491784256,34.70110468942837 " />
			<path d="M37.851969925209104,34.101293739593004 L60.0551228544667,21.2822974190277 " />
			<path d="M37.85196992520913,34.10129373959302 L59.32625894155137,46.499480283834046 " />
			<path d="M61.659711319466936,45.15226092530327 L59.32625894155133,46.49948028383402 " />
			<path d="M62.22539674441619,45.47885955767435 L61.65971131946694,45.15226092530325 " />
			<path d="M52.60874452027913,37.06894477411877 L53.669404692058954,36.45657233842297 " />
			<path d="M53.66940469205896,36.45657233842297 L59.39696961967002,39.76338349118028 " />
			<path d="M59.39696961967,39.76338349118028 L70.42783540618015,33.39471015994401 " />
			<path d="M64.7002704785691,30.087899007186707 L70.42783540618015,33.39471015994401 " />
			<path d="M64.7002704785691,30.08789900718671 L65.76093065034891,29.475526571490917 " />
			<path d="M65.76093065034894,29.475526571490924 L77.8524566086389,36.45657233842299 " />
			<path d="M77.85245660863889,36.45657233842297 L80.32733034279181,35.02770332179945 " />
			<path d="M61.65971131946698,46.94855340334428 L61.65971131946698,45.152260925303274 " />
			<path d="M79.76164491784259,36.49739716746938 L79.76164491784259,34.70110468942838 " />
			<path d="M80.3273303427918,35.02770332179945 L80.3273303427918,36.170798535098285 " />
			<path d="M-52.608744520279146,-38.86523725215977 L-52.608744520279146,-37.068944774118776 " />
			<path d="M-52.60874452027913,-38.865237252159766 L-64.7002704785691,-45.84628301909183 " />
			<path d="M-53.66940469205896,-38.252864816463976 L-53.66940469205896,-37.68131720981457 " />
			<path d="M-52.608744520279146,-38.86523725215977 L-53.66940469205897,-38.252864816463976 " />
			<path d="M-53.669404692058954,-38.25286481646397 L-59.39696961966999,-41.55967596922127 " />
			<path d="M-59.396969619669996,-41.55967596922127 L-59.396969619669996,-40.988128362571864 " />
			<path d="M-59.396969619669996,-41.559675969221274 L-59.89194436650058,-41.273902165896565 " />
			<path d="M-64.7002704785691,-31.88419148522771 L-70.42783540618014,-35.19100263798501 " />
			<path d="M-64.70027047856911,-31.884191485227714 L-64.70027047856911,-30.087899007186714 " />
			<path d="M-65.76093065034893,-31.271819049531917 L-65.76093065034893,-30.70027144288251 " />
			<path d="M-64.70027047856911,-31.884191485227714 L-65.76093065034893,-31.27181904953192 " />
			<path d="M-65.76093065034893,-31.271819049531913 L-70.42783540618014,-33.96625776659341 " />
			<path d="M-80.3273303427918,-36.82399579984045 L-79.76164491784256,-36.497397167469366 " />
			<path d="M-79.76164491784256,-36.49739716746937 L-79.76164491784256,-34.70110468942837 " />
			<path d="M-79.76164491784257,-36.49739716746937 L-80.3273303427918,-36.17079853509828 " />
			<path d="M-82.09509729575817,-35.15017780893862 L-60.620808279415925,-22.7519912646976 " />
			<path d="M-60.62080827941595,-21.36394707712047 L-60.62080827941595,-22.751991264697608 " />
			<path d="M-60.62080827941595,-21.363947077120464 L-60.05512285446671,-21.037348444749377 " />
			<path d="M-60.05512285446671,-21.037348444749384 L-60.05512285446671,-22.42539263232652 " />
			<path d="M-60.055122854466696,-22.425392632326513 L-49.742242415007496,-16.47124833448432 " />
			<path d="M-49.74224241500752,-15.083204146907187 L-49.74224241500752,-16.471248334484326 " />
			<path d="M-49.74224241500751,-15.083204146907187 L-49.17655699005827,-14.756605514536098 " />
			<path d="M-49.17655699005828,-14.756605514536096 L-49.17655699005828,-16.144649702113234 " />
			<path d="M-49.176556990058266,-16.14464970211323 L-38.86367655059908,-10.19050540427104 " />
			<path d="M-38.863676550599095,-8.80246121669391 L-38.863676550599095,-10.190505404271047 " />
			<path d="M-38.863676550599095,-8.802461216693905 L-38.29799112564986,-8.475862584322813 " />
			<path d="M-38.29799112564986,-8.47586258432282 L-38.29799112564986,-9.863906771899957 " />
			<path d="M-38.297991125649844,-9.863906771899952 L-27.98511068619065,-3.9097624740577572 " />
			<path d="M-27.98511068619067,-2.5217182864806302 L-27.98511068619067,-3.909762474057766 " />
			<path d="M-27.985110686190666,-2.521718286480624 L-27.41942526124143,-2.1951196541095346 " />
			<path d="M-27.41942526124142,-2.1951196541095355 L-27.41942526124142,-3.5831638416866713 " />
			<path d="M-27.419425261241408,-3.5831638416866625 L-17.106544821782222,2.3709804561555217 " />
			<path d="M-17.106544821782244,3.7590246437326513 L-17.106544821782244,2.370980456155515 " />
			<path d="M-17.106544821782236,3.759024643732655 L-16.540859396833,4.085623276103746 " />
			<path d="M-16.540859396832996,4.085623276103746 L-16.540859396832996,2.6975790885266098 " />
			<path d="M-16.540859396832985,2.6975790885266164 L-6.227978957373807,8.651723386368808 " />
			<path d="M-6.227978957373828,10.039767573945925 L-6.227978957373828,8.651723386368788 " />
			<path d="M-6.227978957373821,10.039767573945934 L-5.662293532424584,10.366366206317021 " />
			<path d="M-5.662293532424582,10.36636620631702 L-5.662293532424582,8.978322018739883 " />
			<path d="M-5.662293532424556,8.978322018739902 L4.650586907034622,14.932466316582087 " />
			<path d="M4.650586907034597,16.320510504159206 L4.650586907034597,14.93246631658207 " />
			<path d="M4.650586907034601,16.320510504159216 L5.216272331983838,16.647109136530304 " />
			<path d="M5.216272331983845,16.6471091365303 L5.216272331983845,15.259064948953165 " />
			<path d="M5.216272331983873,15.259064948953181 L15.529152771443009,21.21320924679535 " />
			<path d="M15.529152771442995,22.601253434372467 L15.529152771442995,21.21320924679533 " />
			<path d="M15.529152771443002,22.60125343437248 L16.094838196392246,22.92785206674357 " />
			<path d="M16.09483819639224,22.92785206674356 L16.09483819639224,21.539807879166425 " />
			<path d="M16.09483819639226,21.539807879166446 L26.407718635851495,27.49395217700866 " />
			<path d="M26.40771863585146,28.881996364585774 L26.40771863585146,27.493952177008637 " />
			<path d="M26.407718635851474,28.881996364585785 L26.973404060800704,29.208594996956872 " />
			<path d="M26.973404060800704,29.20859499695687 L26.973404060800704,27.820550809379732 " />
			<path d="M26.973404060800732,27.820550809379753 L37.286284500259896,33.77469510722193 " />
			<path d="M37.28628450025987,35.16273929479904 L37.28628450025987,33.7746951072219 " />
			<path d="M37.286284500259875,35.16273929479905 L37.85196992520911,35.48933792717014 " />
			<path d="M37.85196992520911,35.48933792717013 L37.85196992520911,34.101293739593 " />
			<path d="M59.32625894155134,46.49948028383401 L59.32625894155134,48.29577276187501 " />
			<path d="M53.669404692058954,36.45657233842298 L53.669404692058954,38.252864816463976 " />
			<path d="M59.39696961967,39.76338349118029 L59.39696961967,41.55967596922129 " />
			<path d="M70.42783540618014,33.394710159944026 L70.42783540618014,33.96625776659341 " />
			<path d="M64.7002704785691,30.087899007186714 L64.7002704785691,31.884191485227714 " />
			<path d="M65.76093065034893,29.475526571490928 L65.76093065034893,31.271819049531928 " />
			<path d="M77.8524566086389,36.45657233842298 L77.8524566086389,38.252864816463976 " />
			<path d="M60.62080827941594,22.343742974233756 L37.8519699252091,35.489337927170155 " />
			<path d="M60.0551228544667,22.01714434186266 L37.28628450025986,35.16273929479905 " />
			<path d="M37.28628450025985,33.7746951072219 L60.055122854466696,20.62910015428551 " />
			<path d="M26.9734040608007,27.820550809379736 L49.176556990058295,15.001554488814435 " />
			<path d="M49.74224241500754,16.06300004402049 L26.973404060800696,29.208594996956887 " />
			<path d="M49.17655699005829,15.736401411649396 L26.407718635851445,28.881996364585792 " />
			<path d="M26.407718635851456,27.49395217700864 L49.176556990058295,14.348357224072245 " />
			<path d="M16.094838196392235,21.539807879166432 L38.29799112564983,8.72081155860113 " />
			<path d="M38.86367655059907,9.782257113807187 L16.094838196392224,22.927852066743583 " />
			<path d="M38.29799112564983,9.455658481436092 L15.529152771442988,22.601253434372488 " />
			<path d="M15.529152771442991,21.213209246795337 L38.29799112564983,8.06761429385894 " />
			<path d="M5.216272331983841,15.259064948953167 L27.419425261241432,2.440068628387868 " />
			<path d="M27.985110686190666,3.5015141835939083 L5.216272331983824,16.647109136530304 " />
			<path d="M27.419425261241415,3.1749155512228135 L4.6505869070345724,16.32051050415921 " />
			<path d="M4.650586907034597,14.932466316582072 L27.419425261241436,1.7868713636456768 " />
			<path d="M-5.662293532424584,8.978322018739888 L16.540859396833007,-3.840674301825411 " />
			<path d="M17.106544821782258,-2.77922874661936 L-5.662293532424584,10.366366206317036 " />
			<path d="M16.540859396833014,-3.1058273789904547 L-6.2279789573738285,10.03976757394594 " />
			<path d="M-6.227978957373832,8.651723386368793 L16.540859396833007,-4.493871566567602 " />
			<path d="M-16.540859396833,2.697579088526613 L5.662293532424591,-10.121417232038686 " />
			<path d="M6.227978957373837,-9.059971676832639 L-16.540859396833007,4.085623276103757 " />
			<path d="M5.66229353242459,-9.386570309203734 L-17.106544821782254,3.759024643732662 " />
			<path d="M-17.106544821782247,2.370980456155518 L5.662293532424592,-10.774614496780877 " />
			<path d="M-27.419425261241425,-3.583163841686666 L-5.216272331983835,-16.402160162251967 " />
			<path d="M-4.650586907034588,-15.340714607045918 L-27.419425261241432,-2.195119654109522 " />
			<path d="M-5.216272331983836,-15.667313239417012 L-27.98511068619068,-2.521718286480617 " />
			<path d="M-27.985110686190673,-3.909762474057761 L-5.216272331983833,-17.055357426994156 " />
			<path d="M-38.29799112564986,-9.863906771899952 L-16.09483819639226,-22.682903092465256 " />
			<path d="M-15.529152771443021,-21.621457537259204 L-38.297991125649865,-8.475862584322808 " />
			<path d="M-16.094838196392267,-21.9480561696303 L-38.86367655059911,-8.802461216693903 " />
			<path d="M-38.863676550599095,-10.190505404271043 L-16.09483819639226,-23.33610035720744 " />
			<path d="M-49.17655699005829,-16.14464970211323 L-26.973404060800682,-28.963646022678535 " />
			<path d="M-26.407718635851438,-27.902200467472483 L-49.17655699005829,-14.756605514536087 " />
			<path d="M-26.973404060800682,-28.228799099843577 L-49.742242415007524,-15.083204146907182 " />
			<path d="M-49.742242415007524,-16.471248334484326 L-26.973404060800682,-29.61684328742072 " />
			<path d="M-60.05512285446672,-22.425392632326517 L-37.85196992520911,-35.244388952891825 " />
			<path d="M-37.28628450025987,-34.18294339768576 L-60.05512285446672,-21.037348444749366 " />
			<path d="M-37.85196992520911,-34.509542030056856 L-60.620808279415954,-21.36394707712046 " />
			<path d="M-60.620808279415954,-22.751991264697605 L-37.85196992520911,-35.897586217634 " />

       </g>

       <!-- solid lines -->
       <g  stroke="rgb(200,20,20)" fill="none">
			<path d="M62.22539674441619,47.27515203571536 L64.70027047856911,45.846283019091835 " />
			<path d="M64.70027047856911,44.04999054105084 L64.70027047856911,45.846283019091835 " />
			<path d="M80.3273303427918,36.82399579984046 L79.76164491784255,36.497397167469366 " />
			<path d="M79.76164491784257,36.49739716746937 L82.09509729575818,35.15017780893862 " />
			<path d="M-59.32625894155134,-46.49948028383401 L82.0950972957582,35.15017780893866 " />
			<path d="M-61.659711319466936,-45.15226092530327 L-59.32625894155133,-46.49948028383402 " />
			<path d="M-62.22539674441618,-45.478859557674355 L-61.65971131946694,-45.15226092530327 " />
			<path d="M-62.22539674441618,-45.478859557674355 L-64.7002704785691,-44.04999054105083 " />
			<path d="M-52.60874452027913,-37.06894477411877 L-64.7002704785691,-44.04999054105083 " />
			<path d="M-52.608744520279146,-37.06894477411877 L-53.66940469205897,-36.45657233842297 " />
			<path d="M-53.669404692058954,-36.45657233842297 L-59.39696961966999,-39.76338349118027 " />
			<path d="M-59.396969619669996,-39.76338349118027 L-70.42783540618014,-33.394710159944005 " />
			<path d="M-64.7002704785691,-30.087899007186707 L-70.42783540618014,-33.394710159944005 " />
			<path d="M-64.70027047856911,-30.08789900718671 L-65.76093065034893,-29.475526571490917 " />
			<path d="M-65.76093065034893,-29.475526571490917 L-77.85245660863889,-36.45657233842298 " />
			<path d="M-77.85245660863889,-36.45657233842298 L-80.32733034279181,-35.02770332179946 " />
			<path d="M-80.3273303427918,-35.02770332179946 L-79.76164491784256,-34.70110468942837 " />
			<path d="M-82.09509729575817,-33.35388533089762 L-79.76164491784256,-34.70110468942837 " />
			<path d="M-82.09509729575817,-33.35388533089762 L59.32625894155137,48.29577276187505 " />
			<path d="M59.32625894155134,48.295772761875014 L61.65971131946694,46.94855340334426 " />
			<path d="M62.22539674441619,47.27515203571536 L61.65971131946694,46.94855340334426 " />
			<path d="M52.608744520279146,38.86523725215977 L64.70027047856911,45.846283019091835 " />
			<path d="M52.60874452027913,38.86523725215977 L53.669404692058954,38.252864816463976 " />
			<path d="M53.66940469205896,38.25286481646397 L59.39696961967002,41.559675969221274 " />
			<path d="M59.39696961967,41.559675969221274 L70.42783540618015,35.19100263798501 " />
			<path d="M64.7002704785691,31.884191485227703 L70.42783540618015,35.19100263798501 " />
			<path d="M64.7002704785691,31.884191485227714 L65.76093065034891,31.27181904953192 " />
			<path d="M65.76093065034894,31.27181904953192 L77.8524566086389,38.25286481646398 " />
			<path d="M77.85245660863889,38.25286481646398 L80.32733034279181,36.82399579984046 " />
			<path d="M59.89194436650058,41.273902165896565 L64.70027047856911,44.04999054105084 " />
			<path d="M60.62080827941596,20.955698786656626 L82.0950972957582,33.353885330897654 " />
			<path d="M60.0551228544667,21.2822974190277 L60.62080827941595,20.955698786656605 " />
			<path d="M80.3273303427918,36.170798535098285 L80.3273303427918,36.823995799840446 " />
			<path d="M82.09509729575817,35.15017780893862 L82.09509729575817,33.353885330897626 " />
			<path d="M60.62080827941595,20.955698786656605 L60.62080827941595,22.34374297423374 " />
			<path d="M60.62080827941595,22.34374297423375 L60.05512285446671,22.01714434186266 " />
			<path d="M60.0551228544667,20.62910015428551 L60.0551228544667,22.017144341862647 " />
			<path d="M49.74224241500756,14.674955856443361 L60.055122854466724,20.62910015428554 " />
			<path d="M49.74224241500754,14.67495585644334 L49.74224241500754,16.063000044020477 " />
			<path d="M49.74224241500754,16.06300004402048 L49.17655699005831,15.736401411649393 " />
			<path d="M49.176556990058295,14.348357224072245 L49.176556990058295,15.736401411649382 " />
			<path d="M38.86367655059909,8.394212926230054 L49.17655699005832,14.348357224072267 " />
			<path d="M38.863676550599074,8.394212926230034 L38.863676550599074,9.782257113807171 " />
			<path d="M38.86367655059908,9.782257113807177 L38.29799112564983,9.455658481436085 " />
			<path d="M38.29799112564983,8.06761429385894 L38.29799112564983,9.455658481436076 " />
			<path d="M27.9851106861907,2.1134699960167893 L38.29799112564984,8.06761429385896 " />
			<path d="M27.98511068619068,2.113469996016772 L27.98511068619068,3.501514183593908 " />
			<path d="M27.985110686190676,3.501514183593912 L27.41942526124144,3.174915551222824 " />
			<path d="M27.419425261241432,1.7868713636456772 L27.419425261241432,3.174915551222813 " />
			<path d="M17.106544821782272,-4.16727293419649 L27.41942526124145,1.7868713636456945 " />
			<path d="M17.106544821782254,-4.167272934196508 L17.106544821782254,-2.779228746619372 " />
			<path d="M17.10654482178225,-2.7792287466193706 L16.540859396833014,-3.1058273789904582 " />
			<path d="M16.540859396833007,-4.493871566567603 L16.540859396833007,-3.1058273789904667 " />
			<path d="M6.227978957373843,-10.448015864409776 L16.54085939683302,-4.493871566567584 " />
			<path d="M6.227978957373838,-10.448015864409783 L6.227978957373838,-9.059971676832646 " />
			<path d="M6.2279789573738356,-9.059971676832646 L5.662293532424599,-9.386570309203737 " />
			<path d="M5.6622935324245915,-10.774614496780877 L5.6622935324245915,-9.38657030920374 " />
			<path d="M-4.6505869070345796,-16.728758794623054 L5.662293532424606,-10.77461449678087 " />
			<path d="M-4.650586907034587,-16.72875879462306 L-4.650586907034587,-15.340714607045925 " />
			<path d="M-4.650586907034594,-15.340714607045927 L-5.216272331983831,-15.667313239417016 " />
			<path d="M-5.216272331983834,-17.055357426994156 L-5.216272331983834,-15.66731323941702 " />
			<path d="M-15.529152771443016,-23.009501724836344 L-5.216272331983824,-17.05535742699415 " />
			<path d="M-15.529152771443023,-23.009501724836348 L-15.529152771443023,-21.62145753725921 " />
			<path d="M-15.52915277144302,-21.62145753725921 L-16.09483819639226,-21.9480561696303 " />
			<path d="M-16.09483819639226,-23.33610035720744 L-16.09483819639226,-21.948056169630302 " />
			<path d="M-26.407718635851438,-29.290244655049623 L-16.094838196392253,-23.33610035720743 " />
			<path d="M-26.407718635851445,-29.290244655049626 L-26.407718635851445,-27.90220046747249 " />
			<path d="M-26.40771863585144,-27.90220046747249 L-26.973404060800675,-28.228799099843577 " />
			<path d="M-26.973404060800682,-29.616843287420718 L-26.973404060800682,-28.22879909984358 " />
			<path d="M-37.28628450025987,-35.570987585262905 L-26.973404060800668,-29.61684328742071 " />
			<path d="M-37.286284500259875,-35.57098758526291 L-37.286284500259875,-34.182943397685776 " />
			<path d="M-37.28628450025987,-34.18294339768576 L-37.851969925209104,-34.509542030056856 " />
			<path d="M-37.85196992520911,-35.897586217634 L-37.85196992520911,-34.50954203005686 " />
			<path d="M-59.32625894155134,-48.295772761875014 L-37.851969925209104,-35.89758621763399 " />
			<path d="M-59.32625894155134,-46.49948028383401 L-59.32625894155134,-48.29577276187501 " />
			<path d="M-61.65971131946694,-46.94855340334426 L-61.65971131946694,-45.15226092530326 " />
			<path d="M-59.32625894155134,-48.295772761875014 L-61.65971131946694,-46.94855340334426 " />
			<path d="M-62.22539674441618,-47.27515203571535 L-61.65971131946694,-46.94855340334426 " />
			<path d="M-62.22539674441618,-47.27515203571535 L-62.22539674441618,-45.478859557674355 " />
			<path d="M-64.7002704785691,-45.84628301909183 L-64.7002704785691,-44.04999054105083 " />
			<path d="M-62.22539674441618,-47.27515203571535 L-64.7002704785691,-45.84628301909183 " />
			<path d="M-53.66940469205896,-37.68131720981457 L-53.66940469205896,-36.45657233842298 " />
			<path d="M-59.396969619669996,-40.988128362571864 L-59.396969619669996,-39.76338349118027 " />
			<path d="M-70.42783540618014,-35.191002637985 L-70.42783540618014,-33.394710159944005 " />
			<path d="M-59.89194436650058,-41.273902165896565 L-70.42783540618014,-35.19100263798501 " />
			<path d="M-65.76093065034893,-30.70027144288251 L-65.76093065034893,-29.475526571490917 " />
			<path d="M-77.85245660863889,-38.252864816463976 L-77.85245660863889,-36.45657233842298 " />
			<path d="M-70.42783540618014,-33.96625776659341 L-77.85245660863889,-38.252864816463976 " />
			<path d="M-80.3273303427918,-36.82399579984045 L-80.3273303427918,-35.02770332179946 " />
			<path d="M-77.85245660863889,-38.252864816463976 L-80.32733034279181,-36.82399579984045 " />
			<path d="M-82.09509729575817,-35.15017780893862 L-82.09509729575817,-33.353885330897626 " />
			<path d="M-80.3273303427918,-36.17079853509828 L-82.09509729575818,-35.15017780893862 " />
			<path d="M70.42783540618014,33.96625776659341 L70.42783540618014,35.19100263798502 " />
			<path d="M49.176556990058295,15.001554488814435 L49.74224241500754,14.67495585644334 " />
			<path d="M38.29799112564983,8.72081155860113 L38.863676550599074,8.394212926230034 " />
			<path d="M27.419425261241432,2.440068628387868 L27.98511068619068,2.1134699960167715 " />
			<path d="M16.540859396833007,-3.840674301825411 L17.106544821782254,-4.167272934196507 " />
			<path d="M5.662293532424591,-10.121417232038686 L6.22797895737384,-10.448015864409783 " />
			<path d="M-5.216272331983835,-16.402160162251967 L-4.650586907034586,-16.72875879462306 " />
			<path d="M-16.09483819639226,-22.682903092465256 L-15.529152771443023,-23.009501724836348 " />
			<path d="M-26.973404060800682,-28.963646022678535 L-26.407718635851445,-29.290244655049626 " />
			<path d="M-37.85196992520911,-35.244388952891825 L-37.286284500259875,-35.57098758526291 " />

       </g>
    </g>
    
</svg>
