<?xml version="1.0" encoding="UTF-8" standalone="no"?>
<svg
   xmlns:svg="http://www.w3.org/2000/svg"
   xmlns="http://www.w3.org/2000/svg"
   width="480.0"
   height="480.0"

>
    <g transform="scale(2.121320343559642, -2.121320343559642)   translate(107.48023074035524,-102.64442259423329)" stroke-width="0.47140452079103184"  fill="none">
       <!-- hidden lines -->
       <g  stroke="rgb(100,40,40)" fill="none" stroke-dasharray="0.47140452079103184,0.47140452079103184" >
			<path d="M60.10407640085653,48.13247344568947 L60.10407640085653,49.847116265637695 " />
			<path d="M60.10407640085653,48.13247344568947 L84.85281374238569,33.84378327945426 " />
			<path d="M60.10407640085654,48.13247344568946 L36.86202043154794,34.713666175288786 " />
			<path d="M-61.61075777307711,-22.13961882900181 L-84.8528137423857,-35.55842609940249 " />
			<path d="M-61.61075777307711,-21.282297419027696 L-61.61075777307711,-22.13961882900181 " />
			<path d="M-61.610757773077104,-21.282297419027692 L-61.04507234812787,-20.955698786656605 " />
			<path d="M-61.045072348127874,-20.95569878665661 L-61.045072348127874,-21.813020196630724 " />
			<path d="M-61.04507234812787,-21.813020196630717 L-50.73219190866867,-15.858875898788522 " />
			<path d="M-50.73219190866868,-15.001554488814415 L-50.73219190866868,-15.85887589878853 " />
			<path d="M-50.73219190866868,-15.001554488814415 L-50.166506483719445,-14.674955856443326 " />
			<path d="M-50.166506483719445,-14.674955856443328 L-50.166506483719445,-15.532277266417442 " />
			<path d="M-50.16650648371944,-15.532277266417434 L-39.85362604426025,-9.578132968575243 " />
			<path d="M-39.85362604426026,-8.720811558601138 L-39.85362604426026,-9.578132968575252 " />
			<path d="M-39.85362604426026,-8.720811558601133 L-39.287940619311016,-8.394212926230042 " />
			<path d="M-39.28794061931102,-8.394212926230049 L-39.28794061931102,-9.251534336204163 " />
			<path d="M-39.287940619311016,-9.251534336204156 L-28.975060179851823,-3.2973900383619608 " />
			<path d="M-28.975060179851834,-2.440068628387858 L-28.975060179851834,-3.297390038361972 " />
			<path d="M-28.97506017985183,-2.440068628387852 L-28.409374754902593,-2.1134699960167627 " />
			<path d="M-28.409374754902586,-2.113469996016763 L-28.409374754902586,-2.970791405990877 " />
			<path d="M-28.40937475490258,-2.970791405990866 L-18.096494315443394,2.983352891851318 " />
			<path d="M-18.096494315443408,3.8406743018254232 L-18.096494315443408,2.9833528918513093 " />
			<path d="M-18.0964943154434,3.840674301825427 L-17.530808890494164,4.167272934196518 " />
			<path d="M-17.53080889049416,4.167272934196518 L-17.53080889049416,3.309951524222404 " />
			<path d="M-17.530808890494157,3.309951524222413 L-7.217928451034979,9.264095822064604 " />
			<path d="M-7.217928451034992,10.121417232038697 L-7.217928451034992,9.264095822064583 " />
			<path d="M-7.217928451034986,10.121417232038706 L-6.652243026085749,10.448015864409793 " />
			<path d="M-6.652243026085746,10.448015864409792 L-6.652243026085746,9.590694454435678 " />
			<path d="M-6.652243026085728,9.590694454435699 L3.6606374133734505,15.544838752277883 " />
			<path d="M3.6606374133734327,16.402160162251977 L3.6606374133734327,15.544838752277863 " />
			<path d="M3.6606374133734434,16.402160162251988 L4.22632283832268,16.728758794623076 " />
			<path d="M4.22632283832268,16.728758794623072 L4.22632283832268,15.871437384648958 " />
			<path d="M4.226322838322702,15.871437384648978 L14.539203277781837,21.825581682491148 " />
			<path d="M14.53920327778183,22.682903092465242 L14.53920327778183,21.825581682491126 " />
			<path d="M14.53920327778183,22.682903092465253 L15.104888702731074,23.009501724836344 " />
			<path d="M15.104888702731074,23.009501724836337 L15.104888702731074,22.15218031486222 " />
			<path d="M15.104888702731088,22.152180314862242 L25.417769142190323,28.106324612704455 " />
			<path d="M25.417769142190295,28.963646022678546 L25.417769142190295,28.10632461270443 " />
			<path d="M25.41776914219031,28.963646022678557 L25.98345456713954,29.290244655049644 " />
			<path d="M25.98345456713954,29.29024465504964 L25.98345456713954,28.432923245075525 " />
			<path d="M25.98345456713956,28.43292324507555 L36.296335006598724,34.38706754291773 " />
			<path d="M36.2963350065987,35.24438895289181 L36.2963350065987,34.3870675429177 " />
			<path d="M36.29633500659871,35.244388952891825 L36.86202043154795,35.57098758526291 " />
			<path d="M36.86202043154795,35.570987585262905 L36.86202043154795,34.71366617528879 " />
			<path d="M36.86202043154793,34.71366617528879 L61.04507234812787,20.75157464142468 " />
			<path d="M52.39661248592317,37.23224409030432 L59.60910165402596,41.39637665303572 " />
			<path d="M52.396612485923185,37.23224409030433 L53.669404692058976,36.49739716746937 " />
			<path d="M53.66940469205897,36.49739716746937 L59.39696961967,39.804208320226664 " />
			<path d="M59.39696961967,39.804208320226664 L70.42783540618015,33.4355349889904 " />
			<path d="M64.70027047856911,30.128723836233103 L70.42783540618015,33.4355349889904 " />
			<path d="M64.70027047856911,30.128723836233107 L65.9730626847049,29.393876913398156 " />
			<path d="M65.97306268470489,29.39387691339814 L77.92316728675755,36.293273022237436 " />
			<path d="M76.43824304626578,37.15059443221154 L77.92316728675753,36.29327302223743 " />
			<path d="M-61.61075777307712,-22.139618829001808 L-36.86202043154795,-36.42830899523702 " />
			<path d="M-52.39661248592317,-38.946886910252545 L-64.34671708797583,-45.846283019091835 " />
			<path d="M-52.39661248592318,-38.946886910252545 L-53.66940469205897,-38.21203998741759 " />
			<path d="M-53.66940469205896,-38.21203998741759 L-59.39696961967,-41.51885114017488 " />
			<path d="M-59.39696961967,-41.51885114017489 L-59.60910165402596,-41.39637665303572 " />
			<path d="M-64.70027047856911,-31.843366656181324 L-70.42783540618014,-35.150177808938615 " />
			<path d="M-64.70027047856911,-31.843366656181324 L-65.9730626847049,-31.108519733346373 " />
			<path d="M-65.97306268470489,-31.108519733346373 L-70.42783540618014,-33.68048396326871 " />
			<path d="M-76.43824304626578,-37.15059443221155 L-77.92316728675755,-38.00791584218567 " />
			<path d="M-64.34671708797582,-45.84628301909183 L-77.92316728675753,-38.00791584218565 " />
			<path d="M-36.86202043154795,-35.570987585262905 L-61.61075777307711,-21.282297419027692 " />
			<path d="M-36.2963350065987,-35.24438895289181 L-61.045072348127874,-20.955698786656598 " />
			<path d="M-61.04507234812788,-21.81302019663072 L-36.86202043154795,-35.77511173049484 " />
			<path d="M-50.73219190866869,-15.85887589878853 L-25.983454567139518,-30.147566065023742 " />
			<path d="M-25.983454567139518,-29.290244655049626 L-50.73219190866868,-15.001554488814413 " />
			<path d="M-25.417769142190274,-28.96364602267853 L-50.166506483719445,-14.674955856443319 " />
			<path d="M-50.16650648371945,-15.532277266417434 L-25.983454567139518,-29.494368800281556 " />
			<path d="M-39.85362604426027,-9.57813296857525 L-15.104888702731095,-23.866823134810463 " />
			<path d="M-15.1048887027311,-23.009501724836348 L-39.85362604426027,-8.720811558601135 " />
			<path d="M-14.539203277781857,-22.682903092465253 L-39.28794061931102,-8.39421292623004 " />
			<path d="M-39.28794061931103,-9.251534336204159 L-15.104888702731095,-23.21362587006828 " />
			<path d="M-28.97506017985184,-3.297390038361968 L-4.226322838322669,-17.58608020459718 " />
			<path d="M-4.226322838322675,-16.72875879462307 L-28.97506017985184,-2.4400686283878557 " />
			<path d="M-3.6606374133734274,-16.402160162251967 L-28.409374754902593,-2.1134699960167573 " />
			<path d="M-28.409374754902593,-2.970791405990873 L-4.2263228383226705,-16.932882939854988 " />
			<path d="M-18.096494315443415,2.983352891851313 L6.652243026085757,-11.305337274383898 " />
			<path d="M6.652243026085751,-10.448015864409788 L-18.096494315443415,3.8406743018254232 " />
			<path d="M7.217928451034995,-10.121417232038693 L-17.53080889049417,4.167272934196518 " />
			<path d="M-17.530808890494168,3.3099515242224076 L6.652243026085755,-10.652140009641707 " />
			<path d="M-7.217928451035,9.264095822064588 L17.53080889049417,-5.024594344170624 " />
			<path d="M17.53080889049418,-4.167272934196507 L-7.2179284510349895,10.121417232038704 " />
			<path d="M18.096494315443422,-3.8406743018254126 L-6.652243026085742,10.448015864409799 " />
			<path d="M-6.652243026085753,9.590694454435683 L17.53080889049417,-4.371397079428432 " />
			<path d="M3.6606374133734256,15.544838752277869 L28.409374754902597,1.2561485860426567 " />
			<path d="M28.40937475490258,2.113469996016761 L3.660637413373415,16.402160162251974 " />
			<path d="M28.97506017985183,2.4400686283878557 L4.226322838322666,16.72875879462307 " />
			<path d="M4.226322838322677,15.871437384648964 L28.409374754902593,1.9093458507848515 " />
			<path d="M14.539203277781827,21.82558168249113 L39.287940619311,7.536891516255918 " />
			<path d="M39.28794061931098,8.394212926230027 L14.539203277781816,22.68290309246524 " />
			<path d="M39.85362604426023,8.720811558601122 L15.104888702731067,23.009501724836333 " />
			<path d="M15.104888702731063,22.152180314862225 L39.287940619310994,8.190088780998106 " />
			<path d="M25.417769142190284,28.106324612704434 L50.16650648371946,13.817634446469224 " />
			<path d="M50.16650648371945,14.67495585644333 L25.417769142190288,28.96364602267854 " />
			<path d="M50.7321919086687,15.001554488814424 L25.98345456713954,29.290244655049634 " />
			<path d="M25.983454567139535,28.43292324507553 L50.16650648371946,14.470831711211416 " />
			<path d="M36.296335006598696,34.387067542917706 L61.045072348127874,20.09837737668249 " />
			<path d="M61.04507234812787,20.955698786656598 L36.2963350065987,35.24438895289181 " />
			<path d="M61.610757773077104,21.282297419027692 L36.86202043154794,35.570987585262905 " />
			<path d="M52.3966124859232,37.232244090304334 L52.3966124859232,38.94688691025256 " />
			<path d="M53.66940469205897,36.49739716746937 L53.66940469205897,38.2120399874176 " />
			<path d="M59.396969619669996,39.804208320226664 L59.396969619669996,41.51885114017489 " />
			<path d="M70.42783540618014,33.4355349889904 L70.42783540618014,33.68048396326871 " />
			<path d="M64.70027047856911,30.12872383623311 L64.70027047856911,31.843366656181338 " />
			<path d="M65.97306268470491,29.393876913398156 L65.97306268470491,31.108519733346384 " />
			<path d="M77.92316728675758,36.29327302223745 L77.92316728675758,38.007915842185675 " />
			<path d="M-64.70027047856911,-31.843366656181328 L-64.70027047856911,-30.1287238362331 " />
			<path d="M-65.97306268470487,-31.108519733346373 L-65.97306268470487,-30.863570759068043 " />
			<path d="M-59.396969619669996,-41.51885114017488 L-59.396969619669996,-41.273902165896565 " />
			<path d="M-77.92316728675753,-38.00791584218565 L-77.92316728675753,-36.29327302223743 " />
			<path d="M-53.66940469205896,-38.21203998741758 L-53.66940469205896,-37.967091013139274 " />
			<path d="M-64.34671708797582,-45.84628301909183 L-64.34671708797582,-44.131640199143604 " />
			<path d="M-52.396612485923164,-38.946886910252545 L-52.396612485923164,-37.23224409030432 " />

       </g>

       <!-- solid lines -->
       <g  stroke="rgb(200,20,20)" fill="none">
			<path d="M60.10407640085653,49.84711626563769 L84.85281374238569,35.558426099402475 " />
			<path d="M84.85281374238569,33.84378327945426 L84.85281374238569,35.55842609940248 " />
			<path d="M-84.8528137423857,-33.84378327945426 L60.10407640085657,49.84711626563772 " />
			<path d="M-84.8528137423857,-35.55842609940248 L-84.8528137423857,-33.84378327945426 " />
			<path d="M-60.10407640085654,-48.13247344568946 L84.85281374238573,35.55842609940252 " />
			<path d="M-60.10407640085654,-48.13247344568946 L-84.8528137423857,-33.84378327945425 " />
			<path d="M52.39661248592317,38.946886910252545 L64.34671708797583,45.846283019091835 " />
			<path d="M52.396612485923185,38.94688691025255 L53.669404692058976,38.2120399874176 " />
			<path d="M53.66940469205897,38.2120399874176 L59.39696961967,41.51885114017489 " />
			<path d="M59.39696961967,41.51885114017489 L70.42783540618015,35.15017780893862 " />
			<path d="M64.70027047856911,31.843366656181328 L70.42783540618015,35.15017780893862 " />
			<path d="M64.70027047856911,31.84336665618133 L65.9730626847049,31.10851973334638 " />
			<path d="M65.97306268470489,31.108519733346373 L77.92316728675755,38.00791584218567 " />
			<path d="M64.34671708797582,45.84628301909183 L77.92316728675753,38.00791584218565 " />
			<path d="M-64.70027047856911,-30.1287238362331 L-70.42783540618014,-33.43553498899039 " />
			<path d="M-64.70027047856911,-30.1287238362331 L-65.9730626847049,-29.39387691339815 " />
			<path d="M-59.39696961967,-39.80420832022666 L-70.42783540618015,-33.43553498899039 " />
			<path d="M-65.97306268470489,-29.39387691339814 L-77.92316728675755,-36.293273022237436 " />
			<path d="M-53.66940469205896,-36.497397167469366 L-59.39696961967,-39.80420832022666 " />
			<path d="M-64.34671708797582,-44.131640199143604 L-77.92316728675753,-36.29327302223743 " />
			<path d="M-52.39661248592318,-37.23224409030432 L-53.66940469205897,-36.497397167469366 " />
			<path d="M-52.39661248592317,-37.23224409030432 L-64.34671708797583,-44.13164019914361 " />
			<path d="M-60.10407640085654,-49.84711626563769 L-60.10407640085654,-48.13247344568946 " />
			<path d="M-60.10407640085654,-49.84711626563769 L-36.86202043154794,-36.42830899523701 " />
			<path d="M-36.86202043154795,-36.428308995237025 L-36.86202043154795,-35.570987585262905 " />
			<path d="M-36.2963350065987,-35.24438895289181 L-36.86202043154794,-35.570987585262905 " />
			<path d="M-36.29633500659871,-36.10171036286594 L-36.29633500659871,-35.24438895289182 " />
			<path d="M-36.2963350065987,-36.10171036286592 L-25.983454567139503,-30.147566065023728 " />
			<path d="M-25.983454567139518,-30.14756606502374 L-25.983454567139518,-29.290244655049626 " />
			<path d="M-25.417769142190277,-28.96364602267853 L-25.98345456713951,-29.29024465504962 " />
			<path d="M-25.41776914219028,-29.820967432652647 L-25.41776914219028,-28.963646022678535 " />
			<path d="M-25.417769142190274,-29.82096743265264 L-15.104888702731088,-23.86682313481045 " />
			<path d="M-15.104888702731095,-23.86682313481046 L-15.104888702731095,-23.009501724836348 " />
			<path d="M-14.539203277781855,-22.682903092465253 L-15.104888702731095,-23.00950172483634 " />
			<path d="M-14.539203277781859,-23.54022450243937 L-14.539203277781859,-22.682903092465256 " />
			<path d="M-14.539203277781851,-23.54022450243936 L-4.226322838322659,-17.586080204597167 " />
			<path d="M-4.22632283832267,-17.586080204597177 L-4.22632283832267,-16.728758794623065 " />
			<path d="M-3.660637413373429,-16.402160162251974 L-4.226322838322666,-16.72875879462306 " />
			<path d="M-3.660637413373422,-17.259481572226083 L-3.660637413373422,-16.40216016225197 " />
			<path d="M-3.660637413373415,-17.259481572226072 L6.65224302608577,-11.305337274383888 " />
			<path d="M6.652243026085756,-11.305337274383898 L6.652243026085756,-10.448015864409784 " />
			<path d="M7.217928451035,-10.121417232038688 L6.652243026085763,-10.44801586440978 " />
			<path d="M7.217928451035003,-10.978738642012804 L7.217928451035003,-10.12141723203869 " />
			<path d="M7.217928451035007,-10.978738642012793 L17.530808890494185,-5.024594344170602 " />
			<path d="M17.53080889049417,-5.024594344170625 L17.53080889049417,-4.167272934196511 " />
			<path d="M18.096494315443415,-3.8406743018254126 L17.53080889049418,-4.1672729341965 " />
			<path d="M18.09649431544342,-4.69799571179953 L18.09649431544342,-3.8406743018254157 " />
			<path d="M18.096494315443437,-4.697995711799507 L28.409374754902615,1.256148586042677 " />
			<path d="M28.409374754902597,1.2561485860426562 L28.409374754902597,2.11346999601677 " />
			<path d="M28.97506017985184,2.4400686283878663 L28.409374754902604,2.1134699960167787 " />
			<path d="M28.975060179851845,1.582747218413751 L28.975060179851845,2.440068628387865 " />
			<path d="M28.975060179851866,1.5827472184137719 L39.287940619311,7.536891516255942 " />
			<path d="M39.287940619310994,7.536891516255918 L39.287940619310994,8.394212926230033 " />
			<path d="M39.85362604426024,8.720811558601135 L39.287940619311,8.394212926230043 " />
			<path d="M39.85362604426024,7.863490148627013 L39.85362604426024,8.720811558601127 " />
			<path d="M39.85362604426025,7.8634901486270365 L50.16650648371949,13.817634446469249 " />
			<path d="M50.16650648371946,13.817634446469224 L50.16650648371946,14.674955856443338 " />
			<path d="M50.7321919086687,15.001554488814438 L50.16650648371947,14.67495585644335 " />
			<path d="M50.7321919086687,14.144233078840319 L50.7321919086687,15.001554488814433 " />
			<path d="M50.732191908668725,14.144233078840344 L61.04507234812789,20.09837737668252 " />
			<path d="M61.04507234812787,20.09837737668249 L61.04507234812787,20.9556987866566 " />
			<path d="M61.61075777307711,21.282297419027707 L61.045072348127874,20.95569878665662 " />
			<path d="M61.61075777307711,20.424976009053584 L61.61075777307711,21.282297419027696 " />
			<path d="M61.61075777307711,20.424976009053584 L84.8528137423857,33.84378327945426 " />
			<path d="M61.04507234812787,20.75157464142468 L61.61075777307711,20.424976009053584 " />
			<path d="M59.60910165402596,41.39637665303572 L64.34671708797583,44.13164019914361 " />
			<path d="M64.34671708797582,44.131640199143604 L76.43824304626578,37.15059443221154 " />
			<path d="M-60.10407640085654,-49.84711626563769 L-84.8528137423857,-35.558426099402475 " />
			<path d="M-59.60910165402596,-41.39637665303572 L-70.42783540618015,-35.15017780893862 " />
			<path d="M-70.42783540618014,-33.68048396326871 L-76.43824304626578,-37.15059443221155 " />
			<path d="M-36.86202043154795,-35.77511173049484 L-36.29633500659871,-36.10171036286593 " />
			<path d="M-25.983454567139518,-29.494368800281556 L-25.41776914219028,-29.820967432652647 " />
			<path d="M-15.104888702731095,-23.21362587006828 L-14.539203277781859,-23.540224502439372 " />
			<path d="M-4.2263228383226705,-16.932882939854988 L-3.660637413373421,-17.259481572226086 " />
			<path d="M6.652243026085755,-10.652140009641707 L7.217928451035005,-10.978738642012804 " />
			<path d="M17.53080889049417,-4.371397079428432 L18.09649431544342,-4.697995711799529 " />
			<path d="M28.409374754902593,1.9093458507848515 L28.975060179851848,1.5827472184137514 " />
			<path d="M39.287940619310994,8.190088780998106 L39.85362604426024,7.863490148627013 " />
			<path d="M50.16650648371946,14.470831711211416 L50.73219190866871,14.144233078840319 " />
			<path d="M64.34671708797586,44.131640199143625 L64.34671708797586,45.84628301909185 " />
			<path d="M70.42783540618014,33.68048396326871 L70.42783540618014,35.15017780893862 " />
			<path d="M-70.42783540618014,-35.150177808938615 L-70.42783540618014,-33.43553498899039 " />
			<path d="M-65.97306268470487,-30.863570759068043 L-65.97306268470487,-29.393876913398145 " />
			<path d="M-59.396969619669996,-41.273902165896565 L-59.396969619669996,-39.80420832022666 " />
			<path d="M-53.66940469205896,-37.967091013139274 L-53.66940469205896,-36.49739716746936 " />

       </g>
    </g>
    
</svg>
