<?xml version="1.0" encoding="UTF-8" standalone="no"?>
<svg
   xmlns:svg="http://www.w3.org/2000/svg"
   xmlns="http://www.w3.org/2000/svg"
   width="480.0"
   height="480.0"

>
    <g transform="scale(2.192579166469914, -2.192579166469914)   translate(103.9871232412937,-99.37716663479125)" stroke-width="0.4560838738653233"  fill="none">
       <!-- hidden lines -->
       <g  stroke="rgb(100,40,40)" fill="none" stroke-dasharray="0.4560838738653233,0.4560838738653233" >
			<path d="M62.22539674441618,45.47885955767435 L64.7002704785691,44.049990541050825 " />
			<path d="M62.22539674441618,45.47885955767435 L62.22539674441618,47.275152035715344 " />
			<path d="M52.608744520279146,37.06894477411878 L52.608744520279146,38.86523725215978 " />
			<path d="M52.608744520279146,37.068944774118776 L59.89194436650059,41.27390216589657 " />
			<path d="M80.3273303427918,35.02770332179945 L79.76164491784255,34.701104689428355 " />
			<path d="M82.09509729575817,33.35388533089762 L79.76164491784256,34.70110468942837 " />
			<path d="M-64.7002704785691,-45.846283019091835 L-52.60874452027913,-38.86523725215977 " />
			<path d="M-53.66940469205896,-38.25286481646398 L-52.608744520279146,-38.86523725215977 " />
			<path d="M-59.396969619669996,-41.559675969221274 L-53.669404692058954,-38.25286481646398 " />
			<path d="M-59.89194436650057,-41.273902165896565 L-59.396969619669996,-41.55967596922127 " />
			<path d="M-70.42783540618014,-35.191002637985015 L-64.7002704785691,-31.88419148522772 " />
			<path d="M-65.76093065034893,-31.27181904953192 L-64.70027047856911,-31.884191485227717 " />
			<path d="M-70.42783540618014,-33.966257766593415 L-65.76093065034893,-31.27181904953192 " />
			<path d="M-80.3273303427918,-36.82399579984045 L-79.76164491784256,-36.497397167469366 " />
			<path d="M-79.76164491784257,-36.49739716746937 L-80.3273303427918,-36.17079853509828 " />
			<path d="M-82.09509729575817,-35.15017780893862 L59.32625894155137,46.499480283834046 " />
			<path d="M61.659711319466936,45.15226092530327 L59.32625894155133,46.49948028383402 " />
			<path d="M62.22539674441618,45.47885955767435 L61.659711319466936,45.15226092530325 " />
			<path d="M52.60874452027913,37.06894477411877 L53.669404692058954,36.45657233842297 " />
			<path d="M53.669404692058954,36.45657233842297 L59.39696961967,39.76338349118028 " />
			<path d="M59.396969619669996,39.76338349118028 L70.42783540618014,33.39471015994401 " />
			<path d="M64.7002704785691,30.087899007186707 L70.42783540618015,33.39471015994401 " />
			<path d="M64.7002704785691,30.08789900718671 L65.76093065034891,29.475526571490917 " />
			<path d="M65.76093065034894,29.475526571490924 L77.8524566086389,36.45657233842299 " />
			<path d="M77.85245660863889,36.45657233842297 L80.32733034279181,35.02770332179945 " />
			<path d="M61.65971131946697,46.94855340334428 L61.65971131946697,45.152260925303274 " />
			<path d="M79.76164491784259,36.49739716746938 L79.76164491784259,34.70110468942838 " />
			<path d="M80.3273303427918,35.02770332179945 L80.3273303427918,36.170798535098285 " />
			<path d="M-52.608744520279146,-38.865237252159766 L-52.608744520279146,-37.06894477411877 " />
			<path d="M-53.66940469205896,-38.252864816463976 L-53.66940469205896,-37.68131720981458 " />
			<path d="M-59.396969619669996,-41.55967596922127 L-59.396969619669996,-40.98812836257187 " />
			<path d="M-64.70027047856911,-31.884191485227714 L-64.70027047856911,-30.087899007186714 " />
			<path d="M-65.76093065034893,-31.271819049531917 L-65.76093065034893,-30.700271442882517 " />
			<path d="M-79.76164491784256,-36.497397167469366 L-79.76164491784256,-34.70110468942836 " />
			<path d="M59.32625894155134,46.49948028383401 L59.32625894155134,48.29577276187501 " />
			<path d="M53.66940469205895,36.45657233842298 L53.66940469205895,38.252864816463976 " />
			<path d="M59.396969619669996,39.76338349118029 L59.396969619669996,41.55967596922129 " />
			<path d="M70.42783540618014,33.394710159944026 L70.42783540618014,33.96625776659341 " />
			<path d="M64.7002704785691,30.087899007186714 L64.7002704785691,31.884191485227714 " />
			<path d="M65.76093065034893,29.475526571490928 L65.76093065034893,31.271819049531928 " />
			<path d="M77.8524566086389,36.45657233842299 L77.8524566086389,38.25286481646398 " />

       </g>

       <!-- solid lines -->
       <g  stroke="rgb(200,20,20)" fill="none">
			<path d="M62.22539674441618,47.27515203571536 L64.7002704785691,45.846283019091835 " />
			<path d="M64.70027047856911,44.04999054105084 L64.70027047856911,45.846283019091835 " />
			<path d="M80.3273303427918,36.82399579984046 L79.76164491784255,36.497397167469366 " />
			<path d="M79.76164491784257,36.49739716746937 L82.09509729575818,35.15017780893862 " />
			<path d="M-59.32625894155134,-46.49948028383401 L82.0950972957582,35.15017780893866 " />
			<path d="M-61.659711319466936,-45.15226092530327 L-59.32625894155133,-46.49948028383402 " />
			<path d="M-62.22539674441618,-45.478859557674355 L-61.65971131946694,-45.15226092530327 " />
			<path d="M-62.22539674441618,-45.478859557674355 L-64.7002704785691,-44.04999054105083 " />
			<path d="M-52.60874452027913,-37.068944774118776 L-64.7002704785691,-44.04999054105084 " />
			<path d="M-52.608744520279146,-37.06894477411877 L-53.66940469205897,-36.45657233842298 " />
			<path d="M-53.669404692058954,-36.45657233842299 L-59.396969619669996,-39.76338349118028 " />
			<path d="M-59.39696961967,-39.76338349118027 L-70.42783540618015,-33.394710159944005 " />
			<path d="M-64.7002704785691,-30.087899007186717 L-70.42783540618014,-33.39471015994401 " />
			<path d="M-64.70027047856911,-30.087899007186714 L-65.76093065034893,-29.475526571490917 " />
			<path d="M-65.76093065034893,-29.475526571490924 L-77.85245660863889,-36.45657233842299 " />
			<path d="M-77.85245660863889,-36.45657233842298 L-80.32733034279181,-35.02770332179946 " />
			<path d="M-80.3273303427918,-35.02770332179946 L-79.76164491784256,-34.70110468942837 " />
			<path d="M-82.09509729575817,-33.35388533089762 L-79.76164491784256,-34.70110468942837 " />
			<path d="M-82.09509729575817,-33.35388533089762 L59.32625894155137,48.29577276187505 " />
			<path d="M59.32625894155134,48.295772761875014 L61.65971131946694,46.94855340334426 " />
			<path d="M62.22539674441618,47.27515203571536 L61.659711319466936,46.94855340334426 " />
			<path d="M52.608744520279146,38.86523725215977 L64.70027047856911,45.846283019091835 " />
			<path d="M52.60874452027913,38.86523725215977 L53.669404692058954,38.252864816463976 " />
			<path d="M53.669404692058954,38.25286481646397 L59.39696961967,41.559675969221274 " />
			<path d="M59.396969619669996,41.55967596922128 L70.42783540618014,35.191002637985015 " />
			<path d="M64.7002704785691,31.88419148522771 L70.42783540618015,35.191002637985015 " />
			<path d="M64.7002704785691,31.884191485227714 L65.76093065034891,31.27181904953192 " />
			<path d="M65.76093065034894,31.27181904953192 L77.8524566086389,38.25286481646398 " />
			<path d="M77.85245660863889,38.25286481646398 L80.32733034279181,36.82399579984046 " />
			<path d="M59.89194436650059,41.27390216589657 L64.70027047856911,44.04999054105084 " />
			<path d="M-59.32625894155134,-48.295772761875014 L82.0950972957582,33.353885330897654 " />
			<path d="M-59.32625894155134,-48.295772761875014 L-61.65971131946694,-46.94855340334426 " />
			<path d="M-62.22539674441618,-47.27515203571535 L-61.65971131946694,-46.94855340334426 " />
			<path d="M-62.22539674441618,-47.27515203571535 L-64.7002704785691,-45.84628301909183 " />
			<path d="M-70.42783540618014,-35.191002637985 L-59.89194436650057,-41.273902165896565 " />
			<path d="M-77.85245660863889,-38.25286481646398 L-70.42783540618014,-33.966257766593415 " />
			<path d="M-77.85245660863889,-38.252864816463976 L-80.32733034279181,-36.82399579984045 " />
			<path d="M-80.3273303427918,-36.17079853509828 L-82.09509729575818,-35.15017780893862 " />
			<path d="M80.3273303427918,36.170798535098285 L80.3273303427918,36.823995799840446 " />
			<path d="M82.09509729575817,35.15017780893862 L82.09509729575817,33.353885330897626 " />
			<path d="M-59.32625894155134,-46.49948028383401 L-59.32625894155134,-48.29577276187501 " />
			<path d="M-61.65971131946694,-46.94855340334426 L-61.65971131946694,-45.15226092530326 " />
			<path d="M-62.22539674441618,-47.27515203571535 L-62.22539674441618,-45.478859557674355 " />
			<path d="M-64.7002704785691,-45.84628301909183 L-64.7002704785691,-44.04999054105083 " />
			<path d="M-53.66940469205896,-37.68131720981458 L-53.66940469205896,-36.45657233842298 " />
			<path d="M-59.396969619669996,-40.98812836257187 L-59.396969619669996,-39.76338349118027 " />
			<path d="M-70.42783540618014,-35.191002637985 L-70.42783540618014,-33.394710159944005 " />
			<path d="M-65.76093065034893,-30.700271442882517 L-65.76093065034893,-29.475526571490917 " />
			<path d="M-77.85245660863889,-38.252864816463976 L-77.85245660863889,-36.45657233842298 " />
			<path d="M-80.3273303427918,-36.82399579984045 L-80.3273303427918,-35.02770332179946 " />
			<path d="M-82.09509729575817,-35.15017780893862 L-82.09509729575817,-33.353885330897626 " />
			<path d="M70.42783540618014,33.96625776659341 L70.42783540618014,35.19100263798502 " />

       </g>
    </g>
    
</svg>
