<?xml version="1.0" encoding="UTF-8" standalone="no"?>
<svg
   xmlns:svg="http://www.w3.org/2000/svg"
   xmlns="http://www.w3.org/2000/svg"
   width="480.0"
   height="480.0"

>
    <g transform="scale(2.19636273707642, -2.19636273707642)   translate(103.80798952339309,-99.20752146615081)" stroke-width="0.4552981996640048"  fill="none">
       <!-- hidden lines -->
       <g  stroke="rgb(100,40,40)" fill="none" stroke-dasharray="0.4552981996640048,0.4552981996640048" >
			<path d="M62.22539674441618,45.47885955767435 L64.62955980045044,44.09081537009721 " />
			<path d="M62.22539674441618,45.47885955767435 L62.22539674441618,47.275152035715344 " />
			<path d="M52.53803384216049,37.10976960316517 L52.53803384216049,38.906062081206166 " />
			<path d="M52.5380338421605,37.10976960316516 L59.82123368838194,41.31472699494295 " />
			<path d="M80.3273303427918,35.02770332179945 L79.76164491784255,34.701104689428355 " />
			<path d="M81.95367593952086,33.43553498899039 L79.76164491784256,34.70110468942837 " />
			<path d="M-64.62955980045045,-45.88710784813822 L-52.53803384216049,-38.90606208120616 " />
			<path d="M-53.66940469205897,-38.252864816463976 L-52.53803384216049,-38.90606208120615 " />
			<path d="M-59.39696961967,-41.559675969221274 L-53.66940469205896,-38.25286481646398 " />
			<path d="M-59.82123368838192,-41.31472699494295 L-59.39696961967,-41.55967596922127 " />
			<path d="M-70.42783540618014,-35.191002637985015 L-64.7002704785691,-31.88419148522772 " />
			<path d="M-65.83164132846758,-31.230994220485528 L-64.70027047856911,-31.88419148522771 " />
			<path d="M-70.42783540618014,-33.88460810850065 L-65.83164132846757,-31.230994220485535 " />
			<path d="M-80.3273303427918,-36.82399579984045 L-79.76164491784256,-36.497397167469366 " />
			<path d="M-79.76164491784257,-36.49739716746936 L-80.3273303427918,-36.17079853509827 " />
			<path d="M-81.95367593952086,-35.231827467031394 L59.467680297788675,46.417830625741274 " />
			<path d="M61.65971131946694,45.15226092530327 L59.46768029778865,46.41783062574124 " />
			<path d="M62.22539674441618,45.47885955767435 L61.659711319466936,45.15226092530325 " />
			<path d="M52.53803384216047,37.109769603165155 L53.66940469205895,36.45657233842297 " />
			<path d="M53.669404692058954,36.45657233842297 L59.39696961967,39.76338349118028 " />
			<path d="M59.396969619669996,39.76338349118028 L70.42783540618014,33.39471015994401 " />
			<path d="M64.7002704785691,30.087899007186707 L70.42783540618015,33.39471015994401 " />
			<path d="M64.7002704785691,30.08789900718671 L65.83164132846757,29.43470174244453 " />
			<path d="M65.83164132846758,29.43470174244454 L77.92316728675755,36.4157475093766 " />
			<path d="M77.92316728675755,36.41574750937659 L80.32733034279181,35.02770332179945 " />
			<path d="M61.65971131946697,46.94855340334428 L61.65971131946697,45.152260925303274 " />
			<path d="M79.76164491784259,36.49739716746938 L79.76164491784259,34.70110468942838 " />
			<path d="M80.3273303427918,35.02770332179945 L80.3273303427918,36.17079853509828 " />
			<path d="M-52.53803384216049,-38.90606208120615 L-52.53803384216049,-37.109769603165155 " />
			<path d="M-53.66940469205896,-38.252864816463976 L-53.66940469205896,-37.762966867907345 " />
			<path d="M-59.396969619669996,-41.55967596922127 L-59.396969619669996,-41.069778020664636 " />
			<path d="M-64.70027047856911,-31.884191485227714 L-64.70027047856911,-30.087899007186714 " />
			<path d="M-65.83164132846758,-31.23099422048553 L-65.83164132846758,-30.741096271928903 " />
			<path d="M-79.76164491784256,-36.497397167469366 L-79.76164491784256,-34.70110468942836 " />
			<path d="M59.46768029778865,46.41783062574124 L59.46768029778865,48.214123103782235 " />
			<path d="M53.66940469205895,36.45657233842298 L53.66940469205895,38.252864816463976 " />
			<path d="M59.396969619669996,39.76338349118029 L59.396969619669996,41.55967596922129 " />
			<path d="M70.42783540618014,33.394710159944026 L70.42783540618014,33.88460810850064 " />
			<path d="M64.7002704785691,30.087899007186714 L64.7002704785691,31.884191485227714 " />
			<path d="M65.83164132846758,29.434701742444542 L65.83164132846758,31.23099422048554 " />
			<path d="M77.92316728675755,36.4157475093766 L77.92316728675755,38.2120399874176 " />

       </g>

       <!-- solid lines -->
       <g  stroke="rgb(200,20,20)" fill="none">
			<path d="M62.22539674441618,47.27515203571536 L64.62955980045044,45.88710784813822 " />
			<path d="M64.62955980045047,44.090815370097225 L64.62955980045047,45.88710784813822 " />
			<path d="M80.3273303427918,36.82399579984046 L79.76164491784255,36.497397167469366 " />
			<path d="M79.76164491784257,36.49739716746936 L81.95367593952086,35.23182746703139 " />
			<path d="M-59.46768029778865,-46.41783062574124 L81.95367593952089,35.23182746703143 " />
			<path d="M-61.65971131946694,-45.15226092530327 L-59.46768029778865,-46.41783062574124 " />
			<path d="M-62.22539674441618,-45.478859557674355 L-61.65971131946694,-45.15226092530327 " />
			<path d="M-62.22539674441618,-45.478859557674355 L-64.62955980045044,-44.09081537009722 " />
			<path d="M-52.53803384216049,-37.10976960316516 L-64.62955980045045,-44.090815370097225 " />
			<path d="M-52.53803384216049,-37.109769603165155 L-53.66940469205896,-36.45657233842298 " />
			<path d="M-53.66940469205896,-36.45657233842299 L-59.39696961967,-39.76338349118028 " />
			<path d="M-59.39696961967,-39.76338349118027 L-70.42783540618014,-33.394710159944005 " />
			<path d="M-64.7002704785691,-30.087899007186717 L-70.42783540618014,-33.39471015994401 " />
			<path d="M-64.70027047856911,-30.08789900718671 L-65.83164132846758,-29.43470174244453 " />
			<path d="M-65.83164132846757,-29.43470174244454 L-77.92316728675753,-36.4157475093766 " />
			<path d="M-77.92316728675755,-36.415747509376594 L-80.32733034279181,-35.02770332179946 " />
			<path d="M-80.3273303427918,-35.02770332179946 L-79.76164491784256,-34.70110468942837 " />
			<path d="M-81.95367593952086,-33.43553498899039 L-79.76164491784256,-34.70110468942837 " />
			<path d="M-81.95367593952086,-33.43553498899039 L59.467680297788675,48.21412310378228 " />
			<path d="M59.46768029778865,48.214123103782235 L61.65971131946694,46.948553403344256 " />
			<path d="M62.22539674441618,47.27515203571536 L61.659711319466936,46.94855340334426 " />
			<path d="M52.5380338421605,38.90606208120616 L64.62955980045047,45.88710784813822 " />
			<path d="M52.53803384216047,38.90606208120616 L53.66940469205895,38.252864816463976 " />
			<path d="M53.669404692058954,38.25286481646397 L59.39696961967,41.559675969221274 " />
			<path d="M59.396969619669996,41.55967596922128 L70.42783540618014,35.191002637985015 " />
			<path d="M64.7002704785691,31.88419148522771 L70.42783540618015,35.191002637985015 " />
			<path d="M64.7002704785691,31.884191485227714 L65.83164132846757,31.230994220485535 " />
			<path d="M65.83164132846758,31.230994220485535 L77.92316728675755,38.2120399874176 " />
			<path d="M77.92316728675755,38.2120399874176 L80.32733034279181,36.82399579984046 " />
			<path d="M59.82123368838194,41.31472699494295 L64.62955980045047,44.090815370097225 " />
			<path d="M-59.46768029778865,-48.214123103782235 L81.95367593952089,33.43553498899043 " />
			<path d="M-59.46768029778865,-48.214123103782235 L-61.65971131946694,-46.948553403344256 " />
			<path d="M-62.22539674441618,-47.27515203571535 L-61.65971131946694,-46.94855340334426 " />
			<path d="M-62.22539674441618,-47.27515203571535 L-64.62955980045044,-45.887107848138214 " />
			<path d="M-70.42783540618014,-35.191002637985 L-59.82123368838192,-41.31472699494295 " />
			<path d="M-77.92316728675753,-38.2120399874176 L-70.42783540618014,-33.88460810850065 " />
			<path d="M-77.92316728675755,-38.21203998741759 L-80.32733034279181,-36.82399579984045 " />
			<path d="M-80.3273303427918,-36.17079853509827 L-81.95367593952086,-35.23182746703139 " />
			<path d="M80.3273303427918,36.17079853509828 L80.3273303427918,36.823995799840446 " />
			<path d="M81.95367593952086,35.231827467031394 L81.95367593952086,33.4355349889904 " />
			<path d="M-59.46768029778865,-46.41783062574124 L-59.46768029778865,-48.214123103782235 " />
			<path d="M-61.65971131946694,-46.94855340334426 L-61.65971131946694,-45.15226092530326 " />
			<path d="M-62.22539674441618,-47.27515203571535 L-62.22539674441618,-45.478859557674355 " />
			<path d="M-64.62955980045045,-45.887107848138214 L-64.62955980045045,-44.09081537009722 " />
			<path d="M-53.66940469205896,-37.762966867907345 L-53.66940469205896,-36.45657233842298 " />
			<path d="M-59.396969619669996,-41.069778020664636 L-59.396969619669996,-39.76338349118027 " />
			<path d="M-70.42783540618014,-35.191002637985 L-70.42783540618014,-33.394710159944005 " />
			<path d="M-65.83164132846758,-30.741096271928903 L-65.83164132846758,-29.43470174244453 " />
			<path d="M-77.92316728675753,-38.21203998741759 L-77.92316728675753,-36.415747509376594 " />
			<path d="M-80.3273303427918,-36.82399579984045 L-80.3273303427918,-35.02770332179946 " />
			<path d="M-81.95367593952086,-35.231827467031394 L-81.95367593952086,-33.4355349889904 " />
			<path d="M70.42783540618014,33.88460810850064 L70.42783540618014,35.19100263798502 " />

       </g>
    </g>
    
</svg>
