<?xml version="1.0" encoding="UTF-8" standalone="no"?>
<svg
   xmlns:svg="http://www.w3.org/2000/svg"
   xmlns="http://www.w3.org/2000/svg"
   width="480.0"
   height="480.0"

>
    <g transform="scale(7.012629234907909, -7.012629234907909)   translate(32.51276979895746,-31.647919518212504)" stroke-width="0.1425998675392871"  fill="none">
       <!-- hidden lines -->
       <g  stroke="rgb(100,40,40)" fill="none" stroke-dasharray="0.1425998675392871,0.1425998675392871" >
			<path d="M0.9192388155425135,13.962091533864118 L0.9192388155425134,15.676734353812344 " />
			<path d="M0.9192388155425135,13.962091533864118 L25.66797615707168,-0.326598632371093 " />
			<path d="M0.91923881554251,13.962091533864118 L-25.667976157071678,-1.3880441875771403 " />
			<path d="M16.97056274847714,3.0618621784789717 L18.455486988968893,2.2045407685048577 " />
			<path d="M-5.303300858899107,-11.51260179108094 L18.455486988968893,2.204540768504865 " />
			<path d="M-18.455486988968893,-3.9191835884530857 L-5.303300858899108,-11.512601791080938 " />
			<path d="M0.4242640687119321,6.981045766932059 L-11.030865786510144,0.36742346141747184 " />
			<path d="M-16.970562748477143,-3.061862178478979 L-18.455486988968893,-3.919183588453091 " />
			<path d="M-18.455486988968893,-3.9191835884530906 L-18.455486988968893,-2.2045407685048644 " />
			<path d="M-5.30330085889911,-11.512601791080943 L-5.30330085889911,-9.797958971132717 " />
			<path d="M18.455486988968893,2.2045407685048617 L18.455486988968893,3.919183588453088 " />
			<path d="M3.4114053575189615e-15,5.511351921262154 L3.246545649357165e-15,7.22599474121038 " />
			<path d="M1.7763568394002505e-15,5.511351921262152 L-11.030865786510143,-0.8573214099741158 " />
			<path d="M11.030865786510146,-0.8573214099741095 L11.030865786510146,-0.36742346141747206 " />
			<path d="M3.1086244689504383e-15,5.511351921262152 L11.030865786510144,-0.8573214099741122 " />
			<path d="M2.5232269378188362e-15,-7.225994741210377 L2.4761241640583227e-15,-6.736096792653739 " />
			<path d="M8.881784197001252e-16,-7.225994741210377 L11.030865786510144,-0.8573214099741087 " />
			<path d="M-0.424264068711929,-6.981045766932059 L-1.3322676295501878e-15,-7.225994741210377 " />

       </g>

       <!-- solid lines -->
       <g  stroke="rgb(200,20,20)" fill="none">
			<path d="M0.9192388155425135,15.676734353812346 L25.66797615707168,1.388044187577135 " />
			<path d="M25.667976157071678,-0.32659863237108766 L25.667976157071678,1.3880441875771388 " />
			<path d="M-25.667976157071674,0.3265986323710903 L0.9192388155425135,15.67673435381235 " />
			<path d="M-25.667976157071674,-1.3880441875771359 L-25.667976157071674,0.32659863237109055 " />
			<path d="M-0.91923881554251,-13.962091533864118 L-25.667976157071678,0.326598632371093 " />
			<path d="M-0.91923881554251,-13.962091533864118 L25.667976157071678,1.3880441875771403 " />
			<path d="M-18.45548698896889,-2.2045407685048604 L5.30330085889911,11.512601791080943 " />
			<path d="M5.3033008588991075,11.51260179108094 L18.455486988968893,3.9191835884530857 " />
			<path d="M18.45548698896889,3.9191835884530875 L-5.30330085889911,-9.797958971132717 " />
			<path d="M-5.303300858899105,-9.797958971132713 L-18.45548698896889,-2.20454076850486 " />
			<path d="M-0.91923881554251,-15.676734353812343 L-0.9192388155425101,-13.962091533864116 " />
			<path d="M-0.91923881554251,-15.676734353812343 L25.667976157071678,-0.3265986323710841 " />
			<path d="M-0.91923881554251,-15.676734353812343 L-25.667976157071678,-1.3880441875771314 " />
			<path d="M5.3033008588991075,9.797958971132712 L16.97056274847714,3.0618621784789717 " />
			<path d="M5.303300858899107,9.797958971132713 L0.4242640687119321,6.981045766932059 " />
			<path d="M-11.030865786510144,0.36742346141747184 L-16.970562748477143,-3.061862178478979 " />
			<path d="M5.303300858899108,9.797958971132713 L5.303300858899108,11.51260179108094 " />
			<path d="M1.7763568394002505e-15,7.225994741210378 L-11.030865786510143,0.8573214099741104 " />
			<path d="M0.0,-5.511351921262151 L-11.030865786510143,0.8573214099741133 " />
			<path d="M8.881784197001252e-16,-5.5113519212621505 L11.030865786510144,0.8573214099741175 " />
			<path d="M3.1086244689504383e-15,7.225994741210378 L11.030865786510144,0.857321409974114 " />
			<path d="M-11.030865786510141,-0.8573214099741127 L-11.030865786510141,0.8573214099741135 " />
			<path d="M11.030865786510146,-0.36742346141747206 L11.030865786510146,0.8573214099741167 " />
			<path d="M2.4761241640583227e-15,-6.736096792653739 L2.3583672296570398e-15,-5.5113519212621505 " />
			<path d="M-11.030865786510143,-0.8573214099741122 L-0.424264068711929,-6.981045766932059 " />

       </g>
    </g>
    
</svg>
