<?xml version="1.0" encoding="UTF-8" standalone="no"?>
<svg
   xmlns:svg="http://www.w3.org/2000/svg"
   xmlns="http://www.w3.org/2000/svg"
   width="480.0"
   height="480.0"

>
    <g transform="scale(7.930169508634175, -7.930169508634175)   translate(28.75096172304503,-28.126195805809825)" stroke-width="0.12610070931160103"  fill="none">
       <!-- hidden lines -->
       <g  stroke="rgb(100,40,40)" fill="none" stroke-dasharray="0.12610070931160103,0.12610070931160103" >
			<path d="M2.82842712474619,11.186003158709848 L5.303300858899108,9.757134142086327 " />
			<path d="M2.82842712474619,11.186003158709848 L2.82842712474619,12.982295636750848 " />
			<path d="M-11.030865786510141,0.3265986323710921 L0.4949747468305823,6.98104576693206 " />
			<path d="M2.82842712474619,11.186003158709848 L2.262741699796954,10.859404526338759 " />
			<path d="M2.2627416997969476,10.85940452633876 L-0.07071067811866172,12.206623884869511 " />
			<path d="M-22.698127676088177,-0.8573214099741131 L-0.07071067811865106,12.206623884869511 " />
			<path d="M-20.36467529817257,-2.2045407685048595 L-20.930360723121808,-1.8779421361337665 " />
			<path d="M-20.930360723121808,-2.5311394008759516 L-20.36467529817257,-2.204540768504861 " />
			<path d="M2.262741699796951,12.655697004379759 L2.262741699796951,10.85940452633876 " />
			<path d="M-20.36467529817257,-2.2045407685048617 L-20.36467529817257,-0.4082482904638627 " />
			<path d="M-0.07071067811865639,12.206623884869508 L-0.07071067811865656,14.002916362910508 " />
			<path d="M20.930360723121808,0.7348469228349517 L20.930360723121808,1.87794213613377 " />
			<path d="M18.455486988968893,2.1637159394584717 L20.930360723121815,0.7348469228349508 " />
			<path d="M18.455486988968893,2.1637159394584735 L18.455486988968893,3.960008417499473 " />
			<path d="M20.930360723121808,0.7348469228349517 L20.36467529817257,0.4082482904638622 " />
			<path d="M20.36467529817257,2.2045407685048626 L20.36467529817257,0.4082482904638635 " />
			<path d="M-5.303300858899107,-11.553426620127325 L18.45548698896889,2.1637159394584753 " />
			<path d="M22.698127676088177,-0.938971068066885 L20.36467529817257,0.4082482904638636 " />
			<path d="M8.881784197001252e-16,-7.2668195702567635 L11.030865786510144,-0.8981462390204955 " />
			<path d="M2.5232269378188362e-15,-7.266819570256763 L2.468273701764904e-15,-6.695271963607354 " />
			<path d="M11.030865786510146,-0.8981462390204964 L11.030865786510146,-0.32659863237108855 " />
			<path d="M-0.49497474683058273,-6.981045766932059 L-8.881784197001252e-16,-7.266819570256763 " />
			<path d="M3.4114053575189615e-15,5.470527092215766 L3.2386951870637457e-15,7.266819570256766 " />
			<path d="M1.7763568394002505e-15,5.470527092215766 L-11.030865786510143,-0.8981462390205017 " />
			<path d="M2.6645352591003757e-15,5.470527092215766 L11.030865786510146,-0.8981462390205 " />

       </g>

       <!-- solid lines -->
       <g  stroke="rgb(200,20,20)" fill="none">
			<path d="M2.82842712474619,12.982295636750848 L5.303300858899108,11.553426620127327 " />
			<path d="M5.303300858899107,9.757134142086327 L5.303300858899107,11.553426620127327 " />
			<path d="M-18.455486988968893,-2.1637159394584735 L5.303300858899103,11.553426620127327 " />
			<path d="M2.82842712474619,12.982295636750848 L2.262741699796954,12.655697004379759 " />
			<path d="M-0.07071067811865639,14.002916362910506 L2.262741699796951,12.655697004379757 " />
			<path d="M-22.698127676088177,0.9389710680668859 L-0.07071067811865106,14.002916362910511 " />
			<path d="M-22.698127676088177,0.9389710680668859 L-20.36467529817257,-0.4082482904638627 " />
			<path d="M-20.930360723121808,-0.7348469228349526 L-20.36467529817257,-0.40824829046386185 " />
			<path d="M-18.455486988968893,-2.1637159394584717 L-20.93036072312181,-0.7348469228349508 " />
			<path d="M-18.455486988968893,-3.9600084174994734 L-18.455486988968893,-2.163715939458474 " />
			<path d="M-18.455486988968893,-3.9600084174994725 L-11.030865786510141,0.3265986323710921 " />
			<path d="M0.4949747468305823,6.98104576693206 L5.303300858899103,9.75713414208633 " />
			<path d="M-20.930360723121808,-1.8779421361337665 L-22.69812767608818,-0.8573214099741087 " />
			<path d="M-18.455486988968893,-3.9600084174994716 L-20.93036072312181,-2.5311394008759507 " />
			<path d="M-20.930360723121808,-2.5311394008759516 L-20.930360723121808,-0.7348469228349526 " />
			<path d="M-22.698127676088177,-0.8573214099741131 L-22.698127676088177,0.9389710680668859 " />
			<path d="M18.455486988968893,3.9600084174994716 L20.930360723121815,2.5311394008759507 " />
			<path d="M20.930360723121808,1.87794213613377 L20.930360723121808,2.5311394008759507 " />
			<path d="M20.930360723121808,2.5311394008759516 L20.36467529817257,2.204540768504862 " />
			<path d="M18.455486988968893,3.9600084174994725 L-5.303300858899103,-9.75713414208633 " />
			<path d="M-2.828427124746188,-11.186003158709848 L-5.303300858899107,-9.757134142086327 " />
			<path d="M-2.828427124746188,-11.186003158709848 L-2.26274169979695,-10.859404526338757 " />
			<path d="M-2.2627416997969476,-10.859404526338759 L0.07071067811866172,-12.20662388486951 " />
			<path d="M0.07071067811865817,-12.206623884869506 L22.698127676088184,0.8573214099741193 " />
			<path d="M20.36467529817257,2.2045407685048612 L22.698127676088184,0.8573214099741104 " />
			<path d="M-2.828427124746188,-12.982295636750848 L-5.303300858899107,-11.553426620127327 " />
			<path d="M-2.828427124746188,-12.982295636750848 L-2.26274169979695,-12.655697004379757 " />
			<path d="M0.07071067811865817,-14.002916362910504 L-2.2627416997969494,-12.655697004379755 " />
			<path d="M0.07071067811865817,-14.002916362910504 L22.698127676088184,-0.9389710680668788 " />
			<path d="M-5.303300858899107,-11.553426620127327 L-5.303300858899107,-9.757134142086327 " />
			<path d="M22.698127676088177,0.857321409974114 L22.698127676088177,-0.938971068066885 " />
			<path d="M0.07071067811865817,-12.206623884869506 L0.07071067811865833,-14.002916362910504 " />
			<path d="M-2.2627416997969494,-12.655697004379757 L-2.2627416997969494,-10.859404526338759 " />
			<path d="M-2.828427124746188,-12.982295636750848 L-2.828427124746188,-11.186003158709848 " />
			<path d="M8.881784197001252e-16,-5.4705270922157645 L11.030865786510144,0.8981462390205035 " />
			<path d="M2.6645352591003757e-15,7.266819570256766 L11.030865786510146,0.8981462390205 " />
			<path d="M1.7763568394002505e-15,7.266819570256765 L-11.030865786510143,0.8981462390204973 " />
			<path d="M1.7763568394002505e-15,-5.470527092215765 L-11.030865786510141,0.8981462390204997 " />
			<path d="M2.468273701764904e-15,-6.695271963607354 L2.3505167673636205e-15,-5.470527092215763 " />
			<path d="M11.030865786510146,-0.32659863237108855 L11.030865786510146,0.8981462390205026 " />
			<path d="M-11.030865786510141,-0.8981462390204982 L-11.030865786510141,0.8981462390205008 " />
			<path d="M-11.030865786510143,-0.8981462390204982 L-0.49497474683058273,-6.981045766932059 " />

       </g>
    </g>
    
</svg>
