<?xml version="1.0" encoding="UTF-8" standalone="no"?>
<svg
   xmlns:svg="http://www.w3.org/2000/svg"
   xmlns="http://www.w3.org/2000/svg"
   width="480.0"
   height="480.0"

>
    <g transform="scale(7.071067811865473, -7.071067811865473)   translate(32.244069222106575,-31.39345176525186)" stroke-width="0.14142135623730956"  fill="none">
       <!-- hidden lines -->
       <g  stroke="rgb(100,40,40)" fill="none" stroke-dasharray="0.14142135623730956,0.14142135623730956" >
			<path d="M0.7071067811865479,13.83961704672496 L0.7071067811865478,15.554259866673187 " />
			<path d="M0.7071067811865479,13.83961704672496 L25.455844122715718,-0.44907311951025086 " />
			<path d="M0.7071067811865479,13.83961704672496 L-25.455844122715718,-1.2655697004379824 " />
			<path d="M17.0412734265958,2.857738033247042 L18.526197667087548,2.0004166232729297 " />
			<path d="M-4.9497474683058345,-11.553426620127327 L18.52619766708755,2.000416623272935 " />
			<path d="M-18.526197667087548,-3.7150594432211577 L-4.949747468305836,-11.553426620127327 " />
			<path d="M0.2121320343559665,7.103520254071217 L-11.030865786510148,0.6123724356957876 " />
			<path d="M-17.041273426595797,-2.8577380332470472 L-18.52619766708755,-3.715059443221161 " />
			<path d="M-18.526197667087548,-3.71505944322116 L-18.526197667087548,-2.0004166232729337 " />
			<path d="M-4.949747468305836,-11.55342662012733 L-4.949747468305836,-9.838783800179105 " />
			<path d="M18.526197667087548,2.00041662327293 L18.526197667087548,3.7150594432211563 " />
			<path d="M3.4114053575189615e-15,5.511351921262154 L3.246545649357165e-15,7.22599474121038 " />
			<path d="M0.0,5.511351921262151 L-11.030865786510144,-0.8573214099741167 " />
			<path d="M11.030865786510146,-0.8573214099741095 L11.030865786510146,-0.6123724356957922 " />
			<path d="M1.3322676295501878e-15,5.511351921262151 L11.030865786510144,-0.8573214099741131 " />
			<path d="M-1.4130832128153962e-16,-7.225994741210378 L-1.6485970816179648e-16,-6.981045766932057 " />
			<path d="M0.0,-7.2259947412103775 L11.030865786510144,-0.8573214099741095 " />
			<path d="M-0.2121320343559665,-7.103520254071219 L-2.220446049250313e-15,-7.225994741210378 " />

       </g>

       <!-- solid lines -->
       <g  stroke="rgb(200,20,20)" fill="none">
			<path d="M0.7071067811865479,15.554259866673188 L25.455844122715718,1.2655697004379771 " />
			<path d="M25.45584412271571,-0.4490731195102464 L25.45584412271571,1.26556970043798 " />
			<path d="M-25.45584412271571,0.4490731195102482 L0.7071067811865532,15.554259866673192 " />
			<path d="M-25.45584412271571,-1.265569700437978 L-25.45584412271571,0.4490731195102484 " />
			<path d="M-0.7071067811865479,-13.83961704672496 L-25.455844122715718,0.44907311951025086 " />
			<path d="M-0.7071067811865479,-13.83961704672496 L25.455844122715718,1.2655697004379824 " />
			<path d="M-18.526197667087548,-2.0004166232729306 L4.949747468305837,11.553426620127333 " />
			<path d="M4.949747468305835,11.553426620127329 L18.526197667087548,3.7150594432211577 " />
			<path d="M18.526197667087548,3.7150594432211568 L-4.949747468305837,-9.838783800179105 " />
			<path d="M-4.949747468305832,-9.838783800179103 L-18.526197667087548,-2.0004166232729306 " />
			<path d="M-0.7071067811865479,-15.554259866673185 L-0.707106781186548,-13.839617046724959 " />
			<path d="M-0.7071067811865479,-15.554259866673185 L25.455844122715718,-0.449073119510242 " />
			<path d="M-0.7071067811865479,-15.554259866673185 L-25.455844122715718,-1.2655697004379736 " />
			<path d="M4.949747468305835,9.838783800179101 L17.0412734265958,2.857738033247042 " />
			<path d="M4.9497474683058345,9.838783800179101 L0.2121320343559665,7.103520254071217 " />
			<path d="M-11.030865786510148,0.6123724356957876 L-17.041273426595797,-2.8577380332470472 " />
			<path d="M4.9497474683058345,9.838783800179101 L4.9497474683058345,11.553426620127327 " />
			<path d="M0.0,7.2259947412103775 L-11.030865786510144,0.8573214099741095 " />
			<path d="M0.0,-5.511351921262152 L-11.030865786510143,0.8573214099741124 " />
			<path d="M0.0,-5.511351921262151 L11.030865786510144,0.8573214099741167 " />
			<path d="M1.3322676295501878e-15,7.225994741210378 L11.030865786510144,0.857321409974114 " />
			<path d="M-11.030865786510143,-0.857321409974114 L-11.030865786510143,0.8573214099741122 " />
			<path d="M11.030865786510146,-0.6123724356957922 L11.030865786510146,0.8573214099741167 " />
			<path d="M-1.6485970816179648e-16,-6.981045766932057 L-3.061680294433361e-16,-5.511351921262152 " />
			<path d="M-11.030865786510144,-0.857321409974114 L-0.2121320343559665,-7.103520254071219 " />

       </g>
    </g>
    
</svg>
