<?xml version="1.0" encoding="UTF-8" standalone="no"?>
<svg
   xmlns:svg="http://www.w3.org/2000/svg"
   xmlns="http://www.w3.org/2000/svg"
   width="480.0"
   height="480.0"

>
    <g transform="scale(7.9798884397227905, -7.9798884397227905)   translate(28.571828005144432,-27.956550637169393)" stroke-width="0.12531503511028264"  fill="none">
       <!-- hidden lines -->
       <g  stroke="rgb(100,40,40)" fill="none" stroke-dasharray="0.12531503511028264,0.12531503511028264" >
			<path d="M2.82842712474619,11.186003158709848 L5.232590180780454,9.797958971132713 " />
			<path d="M2.82842712474619,11.186003158709848 L2.82842712474619,12.982295636750848 " />
			<path d="M-11.03086578651014,0.40824829046386313 L0.4242640687119348,7.02187059597845 " />
			<path d="M2.82842712474619,11.186003158709848 L2.262741699796954,10.859404526338759 " />
			<path d="M2.2627416997969476,10.85940452633876 L0.07071067811865106,12.124974226776738 " />
			<path d="M-22.556706319850868,-0.9389710680668859 L0.07071067811865817,12.12497422677674 " />
			<path d="M-20.36467529817257,-2.2045407685048595 L-20.930360723121815,-1.8779421361337665 " />
			<path d="M-20.930360723121808,-2.5311394008759516 L-20.36467529817257,-2.204540768504861 " />
			<path d="M2.262741699796951,12.655697004379759 L2.262741699796951,10.85940452633876 " />
			<path d="M-20.36467529817257,-2.2045407685048617 L-20.36467529817257,-0.4082482904638627 " />
			<path d="M0.07071067811865461,12.124974226776734 L0.07071067811865445,13.921266704817732 " />
			<path d="M20.930360723121808,0.7348469228349517 L20.930360723121808,1.877942136133772 " />
			<path d="M18.52619766708755,2.122891110412086 L20.930360723121815,0.7348469228349508 " />
			<path d="M18.526197667087544,2.1228911104120884 L18.526197667087544,3.919183588453088 " />
			<path d="M20.930360723121808,0.7348469228349517 L20.36467529817257,0.4082482904638622 " />
			<path d="M20.36467529817257,2.2045407685048626 L20.36467529817257,0.4082482904638635 " />
			<path d="M-5.232590180780452,-11.594251449173711 L18.526197667087548,2.122891110412093 " />
			<path d="M22.556706319850868,-0.8573214099741122 L20.36467529817257,0.40824829046386335 " />
			<path d="M8.881784197001252e-16,-7.2668195702567635 L11.030865786510144,-0.8981462390204955 " />
			<path d="M2.5232269378188362e-15,-7.266819570256763 L2.4761241640583227e-15,-6.776921621700125 " />
			<path d="M11.030865786510146,-0.8981462390204964 L11.030865786510146,-0.4082482904638589 " />
			<path d="M-0.42426406871192857,-7.021870595978445 L-1.3322676295501878e-15,-7.266819570256762 " />
			<path d="M3.4114053575189615e-15,5.470527092215766 L3.2386951870637457e-15,7.266819570256766 " />
			<path d="M1.7763568394002505e-15,5.470527092215766 L-11.030865786510143,-0.8981462390205017 " />
			<path d="M2.6645352591003757e-15,5.470527092215766 L11.030865786510146,-0.8981462390205 " />

       </g>

       <!-- solid lines -->
       <g  stroke="rgb(200,20,20)" fill="none">
			<path d="M2.82842712474619,12.982295636750848 L5.232590180780454,11.594251449173713 " />
			<path d="M5.232590180780452,9.797958971132713 L5.232590180780452,11.594251449173713 " />
			<path d="M-18.526197667087544,-2.1228911104120884 L5.232590180780456,11.594251449173715 " />
			<path d="M2.82842712474619,12.982295636750848 L2.262741699796954,12.655697004379759 " />
			<path d="M0.07071067811865461,13.921266704817732 L2.262741699796952,12.655697004379757 " />
			<path d="M-22.556706319850868,0.8573214099741131 L0.07071067811865817,13.92126670481774 " />
			<path d="M-22.556706319850868,0.8573214099741131 L-20.36467529817257,-0.40824829046386246 " />
			<path d="M-20.930360723121808,-0.7348469228349526 L-20.36467529817257,-0.40824829046386185 " />
			<path d="M-18.526197667087548,-2.122891110412086 L-20.93036072312181,-0.7348469228349508 " />
			<path d="M-18.526197667087544,-3.9191835884530875 L-18.526197667087544,-2.122891110412088 " />
			<path d="M-18.526197667087544,-3.9191835884530875 L-11.03086578651014,0.40824829046386313 " />
			<path d="M0.4242640687119348,7.02187059597845 L5.232590180780456,9.797958971132717 " />
			<path d="M-20.930360723121815,-1.8779421361337665 L-22.556706319850868,-0.9389710680668824 " />
			<path d="M-18.526197667087548,-3.9191835884530857 L-20.93036072312181,-2.5311394008759507 " />
			<path d="M-20.930360723121808,-2.5311394008759516 L-20.930360723121808,-0.7348469228349526 " />
			<path d="M-22.556706319850868,-0.9389710680668859 L-22.556706319850868,0.8573214099741131 " />
			<path d="M18.52619766708755,3.9191835884530857 L20.930360723121815,2.5311394008759507 " />
			<path d="M20.930360723121808,1.877942136133772 L20.930360723121808,2.5311394008759507 " />
			<path d="M20.930360723121808,2.5311394008759516 L20.36467529817257,2.204540768504862 " />
			<path d="M18.526197667087544,3.9191835884530875 L-5.232590180780456,-9.797958971132717 " />
			<path d="M-2.828427124746188,-11.186003158709848 L-5.232590180780452,-9.797958971132713 " />
			<path d="M-2.828427124746188,-11.186003158709848 L-2.26274169979695,-10.859404526338757 " />
			<path d="M-2.2627416997969476,-10.85940452633876 L-0.07071067811865106,-12.124974226776736 " />
			<path d="M-0.07071067811865284,-12.124974226776732 L22.556706319850875,0.938971068066893 " />
			<path d="M20.364675298172575,2.2045407685048595 L22.55670631985087,0.9389710680668824 " />
			<path d="M-2.828427124746188,-12.982295636750848 L-5.232590180780452,-11.594251449173713 " />
			<path d="M-2.828427124746188,-12.982295636750848 L-2.26274169979695,-12.655697004379757 " />
			<path d="M-0.07071067811865284,-13.921266704817732 L-2.2627416997969503,-12.655697004379757 " />
			<path d="M-0.07071067811865284,-13.921266704817732 L22.556706319850875,-0.8573214099741069 " />
			<path d="M-5.232590180780452,-11.594251449173713 L-5.232590180780452,-9.797958971132713 " />
			<path d="M22.556706319850868,0.9389710680668868 L22.556706319850868,-0.8573214099741122 " />
			<path d="M-0.07071067811865284,-12.124974226776732 L-0.07071067811865267,-13.921266704817732 " />
			<path d="M-2.2627416997969494,-12.655697004379757 L-2.2627416997969494,-10.859404526338759 " />
			<path d="M-2.828427124746188,-12.982295636750848 L-2.828427124746188,-11.186003158709848 " />
			<path d="M8.881784197001252e-16,-5.4705270922157645 L11.030865786510144,0.8981462390205035 " />
			<path d="M2.6645352591003757e-15,7.266819570256766 L11.030865786510146,0.8981462390205 " />
			<path d="M1.7763568394002505e-15,7.266819570256765 L-11.030865786510143,0.8981462390204973 " />
			<path d="M3.552713678800501e-15,-5.470527092215765 L-11.030865786510141,0.8981462390204995 " />
			<path d="M2.4761241640583227e-15,-6.776921621700125 L2.3505167673636205e-15,-5.470527092215763 " />
			<path d="M11.030865786510146,-0.4082482904638589 L11.030865786510146,0.8981462390205026 " />
			<path d="M-11.030865786510141,-0.8981462390204982 L-11.030865786510141,0.8981462390205008 " />
			<path d="M-11.030865786510143,-0.8981462390204982 L-0.42426406871192857,-7.021870595978445 " />

       </g>
    </g>
    
</svg>
