<?xml version="1.0" encoding="UTF-8" standalone="no"?>
<svg
   xmlns:svg="http://www.w3.org/2000/svg"
   xmlns="http://www.w3.org/2000/svg"
   width="480.0"
   height="480.0"

>
    <g transform="scale(6.316586630946826, -6.316586630946826)   translate(36.0954441569693,-35.040822891021136)" stroke-width="0.15831335156565482"  fill="none">
       <!-- hidden lines -->
       <g  stroke="rgb(100,40,40)" fill="none" stroke-dasharray="0.15831335156565482,0.15831335156565482" >
			<path d="M3.7476659402887016,15.59508469571957 L3.7476659402887016,17.3097275156678 " />
			<path d="M3.7476659402887016,15.59508469571957 L28.49640328181787,1.3063945294843595 " />
			<path d="M3.7476659402887016,15.595084695719569 L-28.496403281817866,-3.0210373494325946 " />
			<path d="M-3.959797974644669,4.4499063660561005 L3.2526911934581237,8.614038928787512 " />
			<path d="M-3.9597979746446645,4.449906366056105 L-2.8991378028648436,3.837533930360311 " />
			<path d="M-2.899137802864847,3.837533930360312 L2.82842712474619,7.144345083117605 " />
			<path d="M2.828427124746192,7.144345083117603 L13.859292911256334,0.7756717518813385 " />
			<path d="M8.131727983645296,-2.5311394008759533 L13.859292911256333,0.7756717518813399 " />
			<path d="M8.131727983645298,-2.5311394008759533 L9.19238815542512,-3.143511836571748 " />
			<path d="M9.192388155425114,-3.14351183657175 L21.28391411371508,3.8375339303603138 " />
			<path d="M19.798989873223327,4.694855340334424 L21.28391411371508,3.83753393036031 " />
			<path d="M-2.82842712474619,-8.858987903065831 L2.899137802864847,-5.552176750308537 " />
			<path d="M-3.2526911934581246,-8.614038928787512 L-2.828427124746192,-8.858987903065831 " />
			<path d="M2.8991378028648436,-5.552176750308538 L3.9597979746446645,-6.164549186004333 " />
			<path d="M-13.859292911256333,-2.4903145718295665 L-8.131727983645296,0.8164965809277263 " />
			<path d="M-8.131727983645296,-13.145594952936394 L3.9597979746446708,-6.16454918600433 " />
			<path d="M-9.19238815542512,1.428869016623521 L-8.131727983645298,0.8164965809277263 " />
			<path d="M-21.283914113715085,-5.552176750308538 L-8.131727983645298,-13.145594952936392 " />
			<path d="M-21.283914113715078,-5.552176750308542 L-19.798989873223327,-4.694855340334428 " />
			<path d="M-13.859292911256333,-1.265569700437979 L-9.19238815542511,1.4288690166235218 " />
			<path d="M-3.959797974644665,4.449906366056105 L-3.9597979746446654,6.164549186004331 " />
			<path d="M-2.8991378028648453,3.8375339303603124 L-2.899137802864846,5.552176750308538 " />
			<path d="M2.8284271247461943,7.1443450831176065 L2.828427124746194,8.858987903065833 " />
			<path d="M13.859292911256336,0.7756717518813425 L13.859292911256336,1.26556970043798 " />
			<path d="M8.131727983645296,-2.5311394008759502 L8.131727983645296,-0.816496580927724 " />
			<path d="M9.192388155425117,-3.1435118365717476 L9.192388155425117,-1.4288690166235214 " />
			<path d="M21.28391411371508,3.8375339303603107 L21.28391411371508,5.552176750308536 " />
			<path d="M-8.131727983645295,0.8164965809277254 L-8.131727983645295,2.5311394008759516 " />
			<path d="M-9.192388155425117,1.4288690166235192 L-9.192388155425117,1.918766965180158 " />
			<path d="M-2.8284271247461907,-8.858987903065831 L-2.8284271247461907,-8.369089954509192 " />
			<path d="M-21.283914113715085,-5.5521767503085435 L-21.283914113715085,-3.837533930360317 " />
			<path d="M2.8991378028648462,-5.552176750308538 L2.8991378028648462,-5.062278801751898 " />
			<path d="M-8.131727983645302,-13.145594952936396 L-8.131727983645302,-11.43095213298817 " />
			<path d="M3.9597979746446654,-6.164549186004333 L3.959797974644665,-4.449906366056107 " />

       </g>

       <!-- solid lines -->
       <g  stroke="rgb(200,20,20)" fill="none">
			<path d="M3.7476659402887016,17.309727515667795 L28.49640328181787,3.021037349432584 " />
			<path d="M28.496403281817866,1.306394529484363 L28.496403281817866,3.0210373494325893 " />
			<path d="M-28.496403281817866,-1.306394529484363 L3.7476659402887016,17.309727515667802 " />
			<path d="M-28.496403281817866,-3.0210373494325893 L-28.496403281817866,-1.3063945294843629 " />
			<path d="M-3.7476659402887016,-15.59508469571957 L28.496403281817866,3.021037349432593 " />
			<path d="M-3.7476659402887016,-15.59508469571957 L-28.49640328181787,-1.3063945294843595 " />
			<path d="M-3.959797974644669,6.164549186004328 L8.131727983645296,13.145594952936392 " />
			<path d="M-3.9597979746446645,6.164549186004333 L-2.8991378028648436,5.552176750308538 " />
			<path d="M-2.899137802864847,5.552176750308536 L2.82842712474619,8.85898790306583 " />
			<path d="M2.828427124746192,8.858987903065831 L13.859292911256334,2.4903145718295665 " />
			<path d="M8.131727983645296,-0.8164965809277271 L13.859292911256333,2.490314571829566 " />
			<path d="M8.131727983645298,-0.8164965809277263 L9.19238815542512,-1.428869016623521 " />
			<path d="M9.192388155425114,-1.4288690166235236 L21.28391411371508,5.55217675030854 " />
			<path d="M8.131727983645298,13.145594952936392 L21.28391411371508,5.552176750308538 " />
			<path d="M-8.131727983645296,2.5311394008759525 L-13.859292911256333,-0.7756717518813403 " />
			<path d="M-8.131727983645296,2.531139400875952 L-9.192388155425117,3.1435118365717463 " />
			<path d="M-2.8284271247461916,-7.144345083117605 L-13.859292911256334,-0.7756717518813401 " />
			<path d="M-9.19238815542511,3.143511836571749 L-21.283914113715078,-3.8375339303603146 " />
			<path d="M2.899137802864847,-3.837533930360311 L-2.82842712474619,-7.144345083117604 " />
			<path d="M-8.131727983645296,-11.430952132988168 L-21.28391411371508,-3.8375339303603133 " />
			<path d="M3.959797974644667,-4.449906366056107 L2.8991378028648462,-3.837533930360312 " />
			<path d="M3.95979797464467,-4.449906366056102 L-8.131727983645298,-11.430952132988166 " />
			<path d="M-3.7476659402887016,-17.309727515667795 L-3.7476659402887016,-15.595084695719569 " />
			<path d="M-3.7476659402887016,-17.309727515667795 L28.496403281817866,1.3063945294843684 " />
			<path d="M-3.7476659402887016,-17.309727515667795 L-28.49640328181787,-3.021037349432584 " />
			<path d="M3.2526911934581237,8.614038928787512 L8.131727983645296,11.430952132988164 " />
			<path d="M8.131727983645298,11.430952132988164 L19.798989873223327,4.694855340334424 " />
			<path d="M-13.859292911256334,-2.4903145718295665 L-3.2526911934581246,-8.614038928787512 " />
			<path d="M-19.798989873223327,-4.694855340334428 L-13.859292911256333,-1.265569700437979 " />
			<path d="M8.131727983645298,11.430952132988162 L8.131727983645298,13.145594952936388 " />
			<path d="M13.859292911256336,1.26556970043798 L13.859292911256336,2.4903145718295687 " />
			<path d="M-13.859292911256333,-2.4903145718295665 L-13.859292911256333,-0.7756717518813403 " />
			<path d="M-9.192388155425117,1.918766965180158 L-9.192388155425117,3.1435118365717454 " />
			<path d="M-2.8284271247461907,-8.369089954509192 L-2.828427124746191,-7.144345083117605 " />
			<path d="M2.8991378028648462,-5.062278801751898 L2.899137802864846,-3.8375339303603115 " />

       </g>
    </g>
    
</svg>
