<?xml version="1.0" encoding="UTF-8" standalone="no"?>
<svg
   xmlns:svg="http://www.w3.org/2000/svg"
   xmlns="http://www.w3.org/2000/svg"
   width="480.0"
   height="480.0"

>
    <g transform="scale(7.051480366403242, -7.051480366403242)   translate(32.33363608105687,-31.519099178618465)" stroke-width="0.14181419333796874"  fill="none">
       <!-- hidden lines -->
       <g  stroke="rgb(100,40,40)" fill="none" stroke-dasharray="0.14181419333796874,0.14181419333796874" >
			<path d="M5.65685424949238,12.8189963205653 L8.131727983645298,11.39012730394178 " />
			<path d="M5.65685424949238,12.8189963205653 L5.65685424949238,14.6152887986063 " />
			<path d="M-3.9597979746446623,4.4090815370097225 L-3.9597979746446628,6.205374015050721 " />
			<path d="M-3.9597979746446708,4.409081537009714 L3.3234018715767775,8.61403892878751 " />
			<path d="M23.758787847868,2.367840084690404 L23.193102422918763,2.0412414523193148 " />
			<path d="M25.52655480083437,0.6940220937885666 L23.193102422918763,2.041241452319315 " />
			<path d="M-8.131727983645298,-13.186419781982778 L3.9597979746446708,-6.205374015050715 " />
			<path d="M2.8991378028648445,-5.593001579354924 L3.9597979746446654,-6.205374015050719 " />
			<path d="M-2.82842712474619,-8.899812732112217 L2.899137802864847,-5.593001579354923 " />
			<path d="M-3.3234018715767797,-8.614038928787512 L-2.828427124746192,-8.899812732112217 " />
			<path d="M-13.859292911256333,-2.5311394008759525 L-8.131727983645296,0.7756717518813403 " />
			<path d="M-9.192388155425121,1.388044187577135 L-8.131727983645298,0.7756717518813403 " />
			<path d="M-13.85929291125633,-1.306394529484363 L-9.19238815542511,1.3880441875771368 " />
			<path d="M-23.758787847868,-4.164132562731406 L-23.193102422918763,-3.837533930360315 " />
			<path d="M-23.193102422918763,-3.8375339303603138 L-23.758787847868,-3.5109352979892208 " />
			<path d="M-25.52655480083437,-2.4903145718295665 L2.757716446627537,13.839617046724966 " />
			<path d="M5.091168824543139,12.492397688194211 L2.75771644662753,13.839617046724962 " />
			<path d="M5.65685424949238,12.8189963205653 L5.091168824543144,12.492397688194211 " />
			<path d="M-3.9597979746446668,4.40908153700972 L-2.899137802864846,3.7967091013139256 " />
			<path d="M-2.899137802864847,3.7967091013139243 L2.82842712474619,7.103520254071218 " />
			<path d="M2.8284271247461916,7.103520254071219 L13.859292911256336,0.7348469228349526 " />
			<path d="M8.131727983645295,-2.57196422992234 L13.859292911256333,0.7348469228349532 " />
			<path d="M8.131727983645298,-2.57196422992234 L9.19238815542512,-3.184336665618134 " />
			<path d="M9.192388155425114,-3.1843366656181384 L21.28391411371508,3.7967091013139256 " />
			<path d="M21.283914113715085,3.7967091013139243 L23.758787847868003,2.3678400846904033 " />
			<path d="M5.091168824543141,14.28869016623521 L5.091168824543141,12.492397688194211 " />
			<path d="M23.193102422918763,3.837533930360314 L23.193102422918763,2.041241452319315 " />
			<path d="M23.758787847868,2.367840084690404 L23.758787847868,3.5109352979892225 " />
			<path d="M3.9597979746446663,-6.205374015050719 L3.959797974644666,-4.409081537009719 " />
			<path d="M2.8991378028648462,-5.593001579354924 L2.8991378028648462,-5.021453972705512 " />
			<path d="M-2.8284271247461907,-8.899812732112217 L-2.8284271247461907,-8.328265125462805 " />
			<path d="M-8.131727983645295,0.7756717518813385 L-8.131727983645295,2.5719642299223375 " />
			<path d="M-9.192388155425117,1.3880441875771332 L-9.192388155425117,1.9595917942265446 " />
			<path d="M-23.193102422918763,-3.837533930360314 L-23.193102422918763,-2.041241452319315 " />
			<path d="M2.7577164466275335,13.839617046724959 L2.7577164466275335,15.635909524765957 " />
			<path d="M-2.8991378028648453,3.796709101313926 L-2.899137802864846,5.593001579354925 " />
			<path d="M2.8284271247461943,7.103520254071222 L2.828427124746194,8.89981273211222 " />
			<path d="M13.859292911256336,0.7348469228349583 L13.859292911256336,1.3063945294843644 " />
			<path d="M8.131727983645296,-2.571964229922338 L8.131727983645296,-0.775671751881339 " />
			<path d="M9.192388155425121,-3.184336665618131 L9.192388155425121,-1.3880441875771319 " />
			<path d="M21.28391411371508,3.796709101313925 L21.28391411371508,5.593001579354924 " />

       </g>

       <!-- solid lines -->
       <g  stroke="rgb(200,20,20)" fill="none">
			<path d="M5.65685424949238,14.6152887986063 L8.131727983645298,13.18641978198278 " />
			<path d="M8.131727983645296,11.390127303941778 L8.131727983645296,13.186419781982778 " />
			<path d="M23.758787847868,4.164132562731404 L23.193102422918763,3.8375339303603146 " />
			<path d="M23.193102422918763,3.8375339303603138 L25.526554800834372,2.490314571829563 " />
			<path d="M-2.7577164466275335,-13.839617046724959 L25.526554800834372,2.4903145718295736 " />
			<path d="M-5.091168824543139,-12.492397688194211 L-2.75771644662753,-13.839617046724962 " />
			<path d="M-5.65685424949238,-12.818996320565303 L-5.091168824543141,-12.492397688194211 " />
			<path d="M-5.65685424949238,-12.818996320565303 L-8.131727983645298,-11.390127303941782 " />
			<path d="M3.959797974644669,-4.409081537009715 L-8.131727983645298,-11.390127303941778 " />
			<path d="M3.959797974644667,-4.409081537009721 L2.8991378028648453,-3.796709101313926 " />
			<path d="M2.899137802864847,-3.796709101313925 L-2.82842712474619,-7.103520254071218 " />
			<path d="M-2.82842712474619,-7.103520254071219 L-13.859292911256333,-0.7348469228349537 " />
			<path d="M-8.131727983645296,2.5719642299223393 L-13.859292911256333,-0.7348469228349535 " />
			<path d="M-8.131727983645296,2.5719642299223384 L-9.192388155425117,3.184336665618133 " />
			<path d="M-9.19238815542511,3.1843366656181376 L-21.283914113715078,-3.796709101313926 " />
			<path d="M-21.283914113715085,-3.796709101313926 L-23.758787847868003,-2.367840084690405 " />
			<path d="M-23.758787847868,-2.367840084690407 L-23.193102422918763,-2.041241452319316 " />
			<path d="M-25.52655480083437,-0.6940220937885666 L-23.193102422918763,-2.041241452319315 " />
			<path d="M-25.52655480083437,-0.6940220937885666 L2.757716446627537,15.635909524765966 " />
			<path d="M2.7577164466275335,15.635909524765959 L5.091168824543141,14.28869016623521 " />
			<path d="M5.65685424949238,14.6152887986063 L5.091168824543144,14.288690166235211 " />
			<path d="M-3.9597979746446708,6.2053740150507135 L8.131727983645296,13.186419781982778 " />
			<path d="M-3.9597979746446668,6.205374015050719 L-2.899137802864846,5.593001579354924 " />
			<path d="M-2.899137802864847,5.593001579354922 L2.82842712474619,8.899812732112215 " />
			<path d="M2.8284271247461916,8.899812732112219 L13.859292911256336,2.5311394008759525 " />
			<path d="M8.131727983645295,-0.7756717518813412 L13.859292911256333,2.5311394008759525 " />
			<path d="M8.131727983645298,-0.7756717518813412 L9.19238815542512,-1.388044187577135 " />
			<path d="M9.192388155425114,-1.3880441875771385 L21.28391411371508,5.593001579354926 " />
			<path d="M21.283914113715085,5.593001579354924 L23.758787847868003,4.164132562731403 " />
			<path d="M3.3234018715767775,8.61403892878751 L8.131727983645296,11.390127303941778 " />
			<path d="M-2.7577164466275335,-15.635909524765959 L25.526554800834372,0.6940220937885737 " />
			<path d="M-2.7577164466275335,-15.635909524765959 L-5.091168824543141,-14.28869016623521 " />
			<path d="M-5.65685424949238,-14.6152887986063 L-5.091168824543141,-14.28869016623521 " />
			<path d="M-5.65685424949238,-14.6152887986063 L-8.131727983645298,-13.18641978198278 " />
			<path d="M-13.859292911256334,-2.5311394008759525 L-3.3234018715767797,-8.614038928787512 " />
			<path d="M-21.283914113715078,-5.593001579354927 L-13.85929291125633,-1.306394529484363 " />
			<path d="M-21.283914113715085,-5.593001579354924 L-23.758787847868003,-4.164132562731403 " />
			<path d="M-23.758787847868,-3.5109352979892208 L-25.526554800834372,-2.490314571829563 " />
			<path d="M23.758787847868,3.5109352979892225 L23.758787847868,4.164132562731403 " />
			<path d="M25.52655480083437,2.4903145718295665 L25.52655480083437,0.6940220937885675 " />
			<path d="M-2.7577164466275335,-13.839617046724959 L-2.7577164466275335,-15.635909524765957 " />
			<path d="M-5.091168824543141,-14.28869016623521 L-5.091168824543141,-12.492397688194211 " />
			<path d="M-5.65685424949238,-14.6152887986063 L-5.65685424949238,-12.8189963205653 " />
			<path d="M-8.131727983645298,-13.18641978198278 L-8.131727983645298,-11.39012730394178 " />
			<path d="M2.8991378028648462,-5.021453972705512 L2.899137802864846,-3.7967091013139256 " />
			<path d="M-2.8284271247461907,-8.328265125462805 L-2.828427124746191,-7.103520254071217 " />
			<path d="M-13.859292911256333,-2.531139400875954 L-13.859292911256333,-0.7348469228349548 " />
			<path d="M-9.192388155425117,1.9595917942265446 L-9.192388155425117,3.1843366656181322 " />
			<path d="M-21.283914113715085,-5.593001579354927 L-21.283914113715085,-3.7967091013139274 " />
			<path d="M-23.758787847868,-4.164132562731406 L-23.758787847868,-2.367840084690407 " />
			<path d="M-25.52655480083437,-2.4903145718295665 L-25.52655480083437,-0.6940220937885675 " />
			<path d="M13.859292911256336,1.3063945294843644 L13.859292911256336,2.5311394008759573 " />

       </g>
    </g>
    
</svg>
