<?xml version="1.0" encoding="UTF-8" standalone="no"?>
<svg
   xmlns:svg="http://www.w3.org/2000/svg"
   xmlns="http://www.w3.org/2000/svg"
   width="480.0"
   height="480.0"

>
    <g transform="scale(6.363961030678926, -6.363961030678926)   translate(35.82674358011842,-34.7863551380605)" stroke-width="0.15713484026367727"  fill="none">
       <!-- hidden lines -->
       <g  stroke="rgb(100,40,40)" fill="none" stroke-dasharray="0.15713484026367727,0.15713484026367727" >
			<path d="M3.535533905932736,15.47261020858041 L3.535533905932736,17.187253028528637 " />
			<path d="M3.535533905932736,15.47261020858041 L28.284271247461902,1.183920042345198 " />
			<path d="M3.5355339059327378,15.472610208580411 L-28.28427124746191,-2.8985628622934367 " />
			<path d="M-4.171930009000631,4.572380853195263 L3.0405591591021572,8.73651341592667 " />
			<path d="M-4.171930009000633,4.5723808531952645 L-2.899137802864847,3.8375339303603107 " />
			<path d="M-2.8991378028648507,3.83753393036031 L2.828427124746189,7.144345083117605 " />
			<path d="M2.828427124746192,7.144345083117603 L13.859292911256334,0.7756717518813385 " />
			<path d="M8.131727983645291,-2.531139400875955 L13.85929291125633,0.7756717518813399 " />
			<path d="M8.131727983645295,-2.5311394008759542 L9.40452018978108,-3.265986323710907 " />
			<path d="M9.404520189781083,-3.2659863237109077 L21.35462479183374,3.633409785128383 " />
			<path d="M19.86970055134199,4.490731195102494 L21.354624791833736,3.633409785128382 " />
			<path d="M-2.82842712474619,-8.858987903065831 L2.899137802864847,-5.552176750308537 " />
			<path d="M-3.0405591591021572,-8.736513415926671 L-2.828427124746192,-8.858987903065831 " />
			<path d="M2.8991378028648436,-5.552176750308538 L4.171930009000629,-6.2870236731434925 " />
			<path d="M-13.859292911256333,-2.4903145718295665 L-8.131727983645296,0.8164965809277263 " />
			<path d="M-7.778174593052025,-13.18641978198278 L4.171930009000632,-6.287023673143489 " />
			<path d="M-9.404520189781083,1.5513435037626788 L-8.131727983645298,0.8164965809277263 " />
			<path d="M-21.354624791833736,-5.34805260507661 L-7.778174593052025,-13.186419781982782 " />
			<path d="M-21.35462479183374,-5.3480526050766075 L-19.86970055134199,-4.490731195102494 " />
			<path d="M-13.859292911256333,-1.0206207261596552 L-9.404520189781083,1.5513435037626824 " />
			<path d="M-4.171930009000633,4.572380853195263 L-4.171930009000633,6.287023673143489 " />
			<path d="M-2.899137802864848,3.8375339303603107 L-2.8991378028648485,5.552176750308536 " />
			<path d="M2.8284271247461943,7.1443450831176065 L2.828427124746194,8.858987903065833 " />
			<path d="M13.859292911256336,0.7756717518813425 L13.859292911256336,1.0206207261596598 " />
			<path d="M8.131727983645295,-2.531139400875952 L8.131727983645295,-0.8164965809277258 " />
			<path d="M9.40452018978108,-3.265986323710909 L9.40452018978108,-1.5513435037626828 " />
			<path d="M21.354624791833736,3.633409785128379 L21.354624791833736,5.348052605076605 " />
			<path d="M-8.131727983645295,0.8164965809277254 L-8.131727983645295,2.5311394008759516 " />
			<path d="M-9.404520189781081,1.551343503762678 L-9.404520189781081,1.7962924780409995 " />
			<path d="M-2.8284271247461907,-8.858987903065831 L-2.8284271247461907,-8.614038928787513 " />
			<path d="M-21.35462479183374,-5.348052605076612 L-21.35462479183374,-3.633409785128386 " />
			<path d="M2.8991378028648462,-5.552176750308538 L2.8991378028648462,-5.307227776030221 " />
			<path d="M-7.778174593052028,-13.186419781982783 L-7.778174593052028,-11.471776962034557 " />
			<path d="M4.171930009000631,-6.2870236731434925 L4.171930009000631,-4.572380853195266 " />

       </g>

       <!-- solid lines -->
       <g  stroke="rgb(200,20,20)" fill="none">
			<path d="M3.535533905932736,17.187253028528637 L28.284271247461902,2.898562862293426 " />
			<path d="M28.284271247461902,1.1839200423452034 L28.284271247461902,2.8985628622934296 " />
			<path d="M-28.284271247461902,-1.1839200423452034 L3.535533905932745,17.187253028528644 " />
			<path d="M-28.284271247461902,-2.8985628622934296 L-28.284271247461902,-1.1839200423452032 " />
			<path d="M-3.5355339059327378,-15.472610208580411 L28.28427124746191,2.8985628622934367 " />
			<path d="M-3.5355339059327378,-15.472610208580411 L-28.284271247461906,-1.1839200423451999 " />
			<path d="M-4.171930009000631,6.287023673143489 L7.778174593052025,13.18641978198278 " />
			<path d="M-4.171930009000633,6.287023673143491 L-2.899137802864847,5.552176750308536 " />
			<path d="M-2.8991378028648507,5.552176750308535 L2.828427124746189,8.85898790306583 " />
			<path d="M2.828427124746192,8.858987903065831 L13.859292911256334,2.4903145718295665 " />
			<path d="M8.131727983645291,-0.8164965809277289 L13.85929291125633,2.490314571829566 " />
			<path d="M8.131727983645295,-0.816496580927728 L9.40452018978108,-1.5513435037626806 " />
			<path d="M9.404520189781083,-1.5513435037626815 L21.35462479183374,5.348052605076609 " />
			<path d="M7.778174593052025,13.186419781982782 L21.354624791833736,5.34805260507661 " />
			<path d="M-8.131727983645296,2.5311394008759525 L-13.859292911256333,-0.7756717518813403 " />
			<path d="M-8.131727983645295,2.5311394008759516 L-9.404520189781081,3.265986323710905 " />
			<path d="M-2.8284271247461916,-7.144345083117605 L-13.859292911256334,-0.7756717518813401 " />
			<path d="M-9.40452018978108,3.2659863237109077 L-21.354624791833736,-3.6334097851283826 " />
			<path d="M2.899137802864847,-3.837533930360311 L-2.82842712474619,-7.144345083117604 " />
			<path d="M-7.778174593052023,-11.471776962034555 L-21.35462479183374,-3.633409785128383 " />
			<path d="M4.171930009000633,-4.572380853195267 L2.8991378028648462,-3.837533930360313 " />
			<path d="M4.171930009000634,-4.5723808531952645 L-7.778174593052023,-11.471776962034555 " />
			<path d="M-3.5355339059327378,-17.187253028528637 L-3.5355339059327378,-15.472610208580411 " />
			<path d="M-3.5355339059327378,-17.187253028528637 L28.28427124746191,1.1839200423452105 " />
			<path d="M-3.5355339059327378,-17.187253028528637 L-28.284271247461906,-2.898562862293426 " />
			<path d="M3.0405591591021572,8.73651341592667 L7.778174593052025,11.471776962034554 " />
			<path d="M7.778174593052025,11.471776962034554 L19.86970055134199,4.490731195102494 " />
			<path d="M-13.859292911256334,-2.4903145718295665 L-3.0405591591021572,-8.736513415926671 " />
			<path d="M-19.86970055134199,-4.490731195102494 L-13.859292911256333,-1.0206207261596552 " />
			<path d="M7.778174593052024,11.47177696203455 L7.778174593052024,13.186419781982776 " />
			<path d="M13.859292911256336,1.0206207261596598 L13.859292911256336,2.4903145718295687 " />
			<path d="M-13.859292911256333,-2.4903145718295665 L-13.859292911256333,-0.7756717518813403 " />
			<path d="M-9.404520189781081,1.7962924780409995 L-9.404520189781081,3.265986323710904 " />
			<path d="M-2.8284271247461907,-8.614038928787513 L-2.828427124746191,-7.144345083117605 " />
			<path d="M2.8991378028648462,-5.307227776030221 L2.899137802864846,-3.8375339303603115 " />

       </g>
    </g>
    
</svg>
