<?xml version="1.0" encoding="UTF-8" standalone="no"?>
<svg
   xmlns:svg="http://www.w3.org/2000/svg"
   xmlns="http://www.w3.org/2000/svg"
   width="480.0"
   height="480.0"

>
    <g transform="scale(7.090764379586547, -7.090764379586547)   translate(32.154502363156276,-31.349454009978032)" stroke-width="0.14102851913665035"  fill="none">
       <!-- hidden lines -->
       <g  stroke="rgb(100,40,40)" fill="none" stroke-dasharray="0.14102851913665035,0.14102851913665035" >
			<path d="M5.65685424949238,12.8189963205653 L8.061017305526644,11.430952132988166 " />
			<path d="M5.65685424949238,12.8189963205653 L5.65685424949238,14.6152887986063 " />
			<path d="M-4.0305086527633165,4.4499063660561085 L-4.0305086527633165,6.2461988440971075 " />
			<path d="M-4.030508652763325,4.449906366056101 L3.252691193458121,8.654863757833898 " />
			<path d="M23.758787847868,2.367840084690404 L23.193102422918763,2.0412414523193148 " />
			<path d="M25.38513344459706,0.7756717518813403 L23.193102422918763,2.0412414523193156 " />
			<path d="M-8.061017305526644,-13.227244611029164 L4.030508652763325,-6.246198844097101 " />
			<path d="M2.899137802864845,-5.593001579354924 L4.03050865276332,-6.246198844097105 " />
			<path d="M-2.8284271247461907,-8.899812732112217 L2.8991378028648462,-5.593001579354923 " />
			<path d="M-3.2526911934581237,-8.654863757833898 L-2.828427124746192,-8.899812732112217 " />
			<path d="M-13.859292911256329,-2.5311394008759533 L-8.131727983645293,0.7756717518813394 " />
			<path d="M-9.263098833543774,1.4288690166235218 L-8.131727983645298,0.7756717518813412 " />
			<path d="M-13.859292911256333,-1.2247448713915885 L-9.263098833543769,1.4288690166235245 " />
			<path d="M-23.758787847868,-4.164132562731406 L-23.193102422918763,-3.837533930360315 " />
			<path d="M-23.193102422918763,-3.837533930360312 L-23.758787847868007,-3.510935297989219 " />
			<path d="M-25.38513344459706,-2.5719642299223393 L2.8991378028648462,13.757967388632192 " />
			<path d="M5.091168824543139,12.492397688194213 L2.8991378028648427,13.75796738863219 " />
			<path d="M5.65685424949238,12.8189963205653 L5.091168824543144,12.492397688194211 " />
			<path d="M-4.03050865276332,4.449906366056107 L-2.899137802864845,3.796709101313926 " />
			<path d="M-2.899137802864847,3.7967091013139243 L2.82842712474619,7.103520254071218 " />
			<path d="M2.8284271247461916,7.103520254071219 L13.859292911256336,0.7348469228349526 " />
			<path d="M8.131727983645295,-2.57196422992234 L13.859292911256333,0.7348469228349532 " />
			<path d="M8.131727983645298,-2.5719642299223393 L9.263098833543774,-3.22516149466452 " />
			<path d="M9.263098833543769,-3.2251614946645235 L21.354624791833736,3.7558842722675405 " />
			<path d="M21.35462479183374,3.7558842722675383 L23.758787847868003,2.3678400846904033 " />
			<path d="M5.091168824543146,14.288690166235213 L5.091168824543146,12.492397688194215 " />
			<path d="M23.193102422918766,3.8375339303603178 L23.193102422918766,2.0412414523193187 " />
			<path d="M23.758787847868,2.367840084690404 L23.758787847868,3.5109352979892225 " />
			<path d="M4.030508652763321,-6.246198844097105 L4.030508652763321,-4.449906366056107 " />
			<path d="M2.8991378028648462,-5.593001579354924 L2.8991378028648462,-5.103103630798283 " />
			<path d="M-2.8284271247461907,-8.899812732112217 L-2.8284271247461907,-8.409914783555578 " />
			<path d="M-8.131727983645296,0.7756717518813394 L-8.131727983645296,2.5719642299223384 " />
			<path d="M-9.263098833543772,1.4288690166235196 L-9.263098833543772,1.9187669651801555 " />
			<path d="M-23.193102422918763,-3.837533930360314 L-23.193102422918763,-2.041241452319315 " />
			<path d="M2.8991378028648445,13.757967388632187 L2.8991378028648445,15.554259866673185 " />
			<path d="M-2.8991378028648453,3.796709101313926 L-2.899137802864846,5.593001579354925 " />
			<path d="M2.8284271247461943,7.103520254071222 L2.828427124746194,8.89981273211222 " />
			<path d="M13.859292911256336,0.7348469228349583 L13.859292911256336,1.2247448713915918 " />
			<path d="M8.131727983645298,-2.571964229922338 L8.131727983645298,-0.775671751881339 " />
			<path d="M9.263098833543776,-3.225161494664517 L9.263098833543776,-1.4288690166235178 " />
			<path d="M21.354624791833736,3.75588427226754 L21.354624791833736,5.55217675030854 " />

       </g>

       <!-- solid lines -->
       <g  stroke="rgb(200,20,20)" fill="none">
			<path d="M5.65685424949238,14.6152887986063 L8.061017305526644,13.227244611029166 " />
			<path d="M8.061017305526642,11.430952132988166 L8.061017305526642,13.227244611029166 " />
			<path d="M23.758787847868,4.164132562731404 L23.193102422918763,3.8375339303603146 " />
			<path d="M23.193102422918763,3.837533930360312 L25.38513344459706,2.571964229922335 " />
			<path d="M-2.8991378028648445,-13.757967388632187 L25.38513344459706,2.5719642299223455 " />
			<path d="M-5.091168824543139,-12.492397688194213 L-2.8991378028648427,-13.75796738863219 " />
			<path d="M-5.65685424949238,-12.818996320565303 L-5.091168824543141,-12.492397688194211 " />
			<path d="M-5.65685424949238,-12.818996320565303 L-8.061017305526644,-11.430952132988168 " />
			<path d="M4.030508652763325,-4.449906366056101 L-8.061017305526644,-11.430952132988164 " />
			<path d="M4.03050865276332,-4.449906366056107 L2.8991378028648462,-3.796709101313927 " />
			<path d="M2.8991378028648462,-3.7967091013139234 L-2.8284271247461907,-7.103520254071216 " />
			<path d="M-2.828427124746188,-7.103520254071219 L-13.859292911256333,-0.7348469228349543 " />
			<path d="M-8.131727983645293,2.5719642299223384 L-13.859292911256329,-0.7348469228349543 " />
			<path d="M-8.131727983645298,2.5719642299223393 L-9.263098833543772,3.225161494664519 " />
			<path d="M-9.263098833543769,3.2251614946645235 L-21.354624791833736,-3.75588427226754 " />
			<path d="M-21.35462479183374,-3.75588427226754 L-23.758787847868003,-2.367840084690405 " />
			<path d="M-23.758787847868,-2.367840084690407 L-23.193102422918763,-2.041241452319316 " />
			<path d="M-25.38513344459706,-0.7756717518813403 L-23.193102422918763,-2.0412414523193156 " />
			<path d="M-25.38513344459706,-0.7756717518813403 L2.8991378028648462,15.554259866673192 " />
			<path d="M2.8991378028648445,15.554259866673185 L5.091168824543142,14.28869016623521 " />
			<path d="M5.65685424949238,14.6152887986063 L5.091168824543144,14.288690166235211 " />
			<path d="M-4.030508652763325,6.2461988440970995 L8.061017305526642,13.227244611029164 " />
			<path d="M-4.03050865276332,6.246198844097106 L-2.899137802864845,5.593001579354925 " />
			<path d="M-2.899137802864847,5.593001579354922 L2.82842712474619,8.899812732112215 " />
			<path d="M2.8284271247461916,8.899812732112219 L13.859292911256336,2.5311394008759525 " />
			<path d="M8.131727983645295,-0.7756717518813412 L13.859292911256333,2.5311394008759525 " />
			<path d="M8.131727983645298,-0.7756717518813403 L9.263098833543774,-1.428869016623521 " />
			<path d="M9.263098833543769,-1.4288690166235245 L21.354624791833736,5.55217675030854 " />
			<path d="M21.35462479183374,5.552176750308538 L23.758787847868003,4.164132562731403 " />
			<path d="M3.252691193458121,8.654863757833898 L8.061017305526642,11.430952132988166 " />
			<path d="M-2.8991378028648445,-15.554259866673185 L25.38513344459706,0.7756717518813474 " />
			<path d="M-2.8991378028648445,-15.554259866673185 L-5.091168824543142,-14.28869016623521 " />
			<path d="M-5.65685424949238,-14.6152887986063 L-5.091168824543141,-14.28869016623521 " />
			<path d="M-5.65685424949238,-14.6152887986063 L-8.061017305526644,-13.227244611029166 " />
			<path d="M-13.859292911256334,-2.5311394008759525 L-3.2526911934581237,-8.654863757833898 " />
			<path d="M-21.354624791833736,-5.552176750308539 L-13.859292911256333,-1.2247448713915885 " />
			<path d="M-21.35462479183374,-5.552176750308538 L-23.758787847868003,-4.164132562731403 " />
			<path d="M-23.758787847868007,-3.510935297989219 L-25.38513344459706,-2.571964229922335 " />
			<path d="M23.758787847868,3.5109352979892225 L23.758787847868,4.164132562731403 " />
			<path d="M25.38513344459706,2.5719642299223393 L25.38513344459706,0.7756717518813403 " />
			<path d="M-2.8991378028648445,-13.757967388632187 L-2.8991378028648445,-15.554259866673185 " />
			<path d="M-5.091168824543141,-14.28869016623521 L-5.091168824543141,-12.492397688194211 " />
			<path d="M-5.65685424949238,-14.6152887986063 L-5.65685424949238,-12.8189963205653 " />
			<path d="M-8.061017305526644,-13.227244611029166 L-8.061017305526644,-11.430952132988166 " />
			<path d="M2.8991378028648462,-5.103103630798283 L2.899137802864846,-3.7967091013139256 " />
			<path d="M-2.8284271247461907,-8.409914783555578 L-2.828427124746191,-7.103520254071217 " />
			<path d="M-13.859292911256333,-2.531139400875954 L-13.859292911256333,-0.7348469228349548 " />
			<path d="M-9.263098833543772,1.9187669651801555 L-9.263098833543772,3.2251614946645186 " />
			<path d="M-21.354624791833736,-5.552176750308541 L-21.354624791833736,-3.7558842722675414 " />
			<path d="M-23.758787847868,-4.164132562731406 L-23.758787847868,-2.367840084690407 " />
			<path d="M-25.38513344459706,-2.5719642299223393 L-25.38513344459706,-0.7756717518813403 " />
			<path d="M13.859292911256336,1.2247448713915918 L13.859292911256336,2.5311394008759573 " />

       </g>
    </g>
    
</svg>
