<?xml version="1.0" encoding="UTF-8" standalone="no"?>
<svg
   xmlns:svg="http://www.w3.org/2000/svg"
   xmlns="http://www.w3.org/2000/svg"
   width="480.0"
   height="480.0"

>
    <g transform="scale(19.371276503139757, -19.371276503139757)   translate(11.763658070432099,-11.517644783026942)" stroke-width="0.05162282412508628"  fill="none">
       <!-- hidden lines -->
       <g  stroke="rgb(100,40,40)" fill="none" stroke-dasharray="0.05162282412508628,0.05162282412508628" >
			<path d="M3.6415999231107197,4.592793267718462 L3.6415999231107192,5.735888481017277 " />
			<path d="M3.6415999231107214,4.592793267718465 L2.9344931419241735,4.1845449772546015 " />
			<path d="M4.065863991822649,1.898354550656963 L4.490128060534577,1.6534055763786457 " />
			<path d="M4.490128060534577,3.2863987382341 L4.490128060534577,1.653405576378646 " />
			<path d="M4.995309568454114,4.954323852873675 L5.197234841721125,4.837742241996778 " />
			<path d="M4.59178448130616,4.488185313430242 L5.197234841721125,4.837742241996779 " />
			<path d="M3.6415999231107206,4.592793267718461 L5.197234841721125,3.694647028697962 " />
			<path d="M5.197234841721125,4.130303547229777 L5.197234841721125,4.837742241996779 " />
			<path d="M7.601397897755385,3.2863987382341 L5.904341622907672,4.266194635347371 " />
			<path d="M5.823424183700064,4.312912340656018 L3.7250022614045166,5.524436802366765 " />
			<path d="M3.7250022614045175,5.524436802366765 L2.9344931419241713,5.0680361494379325 " />
			<path d="M-6.740178100156387,-0.5176378964984112 L-7.6721085758740415,-1.055688207520015 " />
			<path d="M-5.975052301026327,-0.9593834825900771 L-6.965001794687494,-1.5309310892394852 " />
			<path d="M-6.965001794687494,-1.5309310892394852 L-7.6721085758740415,-1.9391793797033485 " />
			<path d="M6.045762979144983,3.2047490801413296 L5.338656197958437,2.7965007896774665 " />
			<path d="M6.045762979144982,3.204749080141326 L7.601397897755387,2.306602841120827 " />
			<path d="M-4.136574669941305,-2.6740263025383015 L-4.560838738653233,-2.918975276816619 " />
			<path d="M-4.560838738653233,-2.918975276816619 L-5.26794551983978,-3.327223567280482 " />
			<path d="M-4.985102807365162,-2.184128353981667 L-4.136574669941304,-2.674026302538303 " />
			<path d="M-4.98510280736516,-2.1841283539816665 L-5.267945519839779,-2.347427670167212 " />
			<path d="M4.49012806053458,1.6534055763786482 L4.065863991822649,1.4084566021003289 " />
			<path d="M5.480077554195743,1.0818579697292376 L6.894291116568839,0.26536138880151094 " />
			<path d="M6.894291116568841,0.26536138880151405 L4.085466300116243,-1.3563143750838949 " />
			<path d="M4.0854663001162415,-1.3563143750838977 L3.898249013340888,-1.313500733524784 L3.7068068013154383,-1.2774488466902747 L3.511871518637764,-1.248296535486547 L3.3141883733860906,-1.2261552447865318 L3.11451307830132,-1.211109617393038 L2.913608961811612,-1.2032171704621264 L2.712244049943351,-1.2025080756237307 L2.5111881302739034,-1.2089850436400815 L2.3112098091502307,-1.2226233140428744 L2.1130735734231703,-1.2433707497887914 L1.9175368679299276,-1.2711480365715253 L1.7253471998971146,-1.3058489860283675 L1.537239281333775,-1.3473409416822444 L1.3539322203385877,-1.395465286067349 L1.1761267720584556,-1.4500380470997036 L1.0045026598076567,-1.5108506013745864 L0.9212146260577745,-1.5435250599524784 L0.8397159765884972,-1.5776704717022316 L0.7600846192687558,-1.6132541956380078 L0.6823966769470813,-1.650242215832934 L0.6067264146826776,-1.6885991739363129 L0.5331461687524381,-1.7282884029741026 L0.4617262775017634,-1.769271962400367 L0.3925350141052739,-1.811510674366186 L0.32563852130171433,-1.8549641611713514 L0.26110074816542284,-1.8995908838630498 L0.19898338897481072,-1.945348181944636 L0.13934582423630193,-1.9921923141565325 L0.08224506392008957,-2.040078500290278 L0.027735692961991187,-2.088960963995746 L-0.024130180916504873,-2.1387929765406177 L-0.07330297702013011,-2.189526901480274 L-0.11973568907603438,-2.2411142401954085 L-0.16338393016899255,-2.293505678253828 L-0.20420597517265948,-2.34665113255212 L-0.2421628006363088,-2.400499799192124 L-0.2772181220889407,-2.455000202046443 L-0.309338428725078,-2.5101002419665663 L-0.3384930154391035,-2.5657472465865547 L-0.36465401217752413,-2.6218880206747017 L-0.3877964105810805,-2.678468896985012 L-0.4078980878912568,-2.7354357875599016 L-0.424939828098323,-2.792734235435074 L-0.4389053403106993,-2.850309466697145 L-0.44978127432808,-2.9081064428442476 L-0.4575572334034348,-2.9660699133995756 L-0.46222578418167837,-3.0241444687275556 L-0.46378246380551724,-3.0822745930021593 " />
			<path d="M-0.46378246380551724,-3.0822745930021673 L-0.46272336128806435,-3.1302244396167533 L-0.45954674255875805,-3.178143100430949 L-0.45425467363875516,-3.2259994099271028 L-0.4468505964036127,-3.273762243139847 L-0.4373393263447456,-3.3214005358992664 L-0.42572704943750983,-3.3688833050345326 L-0.4120213181179464,-3.4161796685248524 L-0.39623104637079676,-3.463258865584631 L-0.37836650393199545,-3.5100902766697892 L-0.3584393096093983,-3.556643443392218 L-0.31245013969125024,-3.648794134716423 L-0.25838315959559655,-3.7394712452932444 L-0.19637900359023375,-3.8284389138071573 " />
			<path d="M-0.19637900359022797,-3.8284389138071626 L-3.0052038200428264,-5.450114677692572 " />
			<path d="M-4.560838738653231,-4.551968438672073 L-3.005203820042827,-5.450114677692573 " />
			<path d="M-4.136574669941305,-4.307019464393755 L-4.560838738653233,-4.5519684386720725 " />
			<path d="M-4.985102807365162,-3.817121515837121 L-4.136574669941304,-4.307019464393757 " />
			<path d="M-4.98510280736516,-3.81712151583712 L-5.4093668760770885,-4.062070490115437 " />
			<path d="M-6.965001794687494,-3.1639242510949392 L-5.4093668760770885,-4.062070490115438 " />
			<path d="M-4.560838738653232,-1.7758800635178043 L-5.267945519839779,-2.1841283539816674 " />
			<path d="M-5.409366876077088,-2.2657780120744393 L-6.965001794687494,-3.1639242510949392 " />
			<path d="M-0.3838089521663166,-1.0351444248738233 L-0.3211982495349459,-0.9913577872033829 L-0.2609059604252315,-0.9464996817546395 L-0.2029870613675624,-0.90061101165192 L-0.14749436475571542,-0.8537336197229503 L-0.09447847069074378,-0.8059102503451632 L-0.04398772084210867,-0.75718451046994 L0.0039318456318766515,-0.7076008298603332 L0.04923653406409212,-0.6572044205785168 L0.0918850341208759,-0.6060412357599135 L0.1318384574701703,-0.5541579277115851 L0.16906037324120593,-0.5016018053730947 L0.20351684124339142,-0.4484207911786303 L0.23517644291411877,-0.394663377359722 L0.26401030996725927,-0.34037858172840063 L0.2899921507162353,-0.2856159029811126 L0.31309827404765533,-0.23042527556416767 " />
			<path d="M0.39307178568686263,0.18371173070873867 L0.39201268316940974,0.23166157732332474 L0.38883606444010343,0.2795802381375214 L0.3835439955201001,0.32743654763367674 L0.3761399182849581,0.3751993808464218 L0.3666286482260901,0.4228376736058423 L0.35501637131885433,0.4703204427411092 L0.34131063999929,0.517616806231429 L0.3255203682521399,0.5646960032912084 L0.3076558258133377,0.6115274143763683 L0.2877286314907401,0.6580805810987975 L0.24173946157259074,0.750231272423004 L0.18767248147693527,0.8409083829998267 L0.12566832547156537,0.9298760515137483 " />
			<path d="M0.39307178568686574,1.084261511251273 L0.12566832547157603,0.9298760515137383 " />
			<path d="M3.725002261404519,3.89144364051131 L9.298454172603101,0.6736096792653736 " />
			<path d="M-0.47894712601218803,1.4642923300267132 L3.7250022614045184,3.891443640511312 " />
			<path d="M-0.4789471260121876,1.4642923300267134 L-0.4912138836394089,1.4718651810457124 " />
			<path d="M-0.49121388363941065,1.4718651810457173 L-5.094929687734313,-1.1860913777210094 " />
			<path d="M-5.094929687734313,-1.1860913777210116 L-5.081813125011264,-1.1931735935391674 " />
			<path d="M-9.285762512427958,-3.620324904023772 L-5.0818131250112515,-1.1931735935391732 " />
			<path d="M0.12566832547157467,0.9298760515137363 L0.12566832547157453,2.56286921336919 " />
			<path d="M3.7250022614045175,5.524436802366765 L3.7250022614045175,3.8914436405113104 " />
			<path d="M-0.4789471260121867,1.4642923300267137 L-0.47894712601218686,3.0972854918821673 " />
			<path d="M-0.491213883639412,1.4718651810457155 L-0.49121388363941215,3.104858342901169 " />
			<path d="M-5.094929687734313,-1.1860913777210107 L-5.094929687734313,0.4322467172972788 " />
			<path d="M-5.0818131250112515,-1.1931735935391734 L-5.0818131250112515,0.4398195683162802 " />
			<path d="M-6.965001794687494,-3.1639242510949392 L-6.965001794687494,-1.5309310892394854 " />
			<path d="M-6.965001794687494,-1.5309310892394854 L-6.965001794687494,-0.3878358759406706 " />
			<path d="M6.045762979144981,3.2047490801413274 L6.045762979144981,4.347844293440143 " />
			<path d="M6.894291116568838,0.2653613888015114 L6.894291116568838,1.8983545506569652 " />
			<path d="M4.0854663001162415,-1.3563143750838973 L4.0854663001162415,0.27667878677155633 " />
			<path d="M-0.19637900359022867,-3.8284389138071644 L-0.1963790035902288,-2.1954457519517105 " />
			<path d="M-3.0052038200428273,-5.4501146776925715 L-3.0052038200428273,-3.8171215158371177 " />
			<path d="M-4.560838738653231,-2.91897527681662 L-4.560838738653231,-4.551968438672073 " />
			<path d="M-4.136574669941304,-4.307019464393756 L-4.136574669941304,-2.6740263025383024 " />
			<path d="M-4.560838738653231,-1.7758800635178047 L-4.560838738653231,-2.91897527681662 " />
			<path d="M-4.98510280736516,-3.81712151583712 L-4.98510280736516,-2.1841283539816665 " />
			<path d="M-5.4093668760770885,-2.429077328259985 L-5.4093668760770885,-4.062070490115438 " />
			<path d="M-6.1164736572636365,-1.748471835449854 L-6.1164736572636365,-1.694230405425032 " />
			<path d="M-6.1164736572636365,-1.6942304054250326 L-5.4093668760770885,-1.2859821149611692 " />
			<path d="M-5.4093668760770885,-1.2859821149611697 L-5.4093668760770885,-2.1219031558561525 " />
			<path d="M-6.3183989305306465,-1.5776487945481346 L-6.1164736572636365,-1.6942304054250321 " />
			<path d="M-5.6112921493441,-1.1694005040842719 L-5.4093668760770885,-1.2859821149611694 " />
			<path d="M5.278152280928735,5.117623169059221 L5.3971028662834675,5.013366178524876 L5.457336756490365,4.964552044044695 L5.517971292392048,4.918033791401327 L5.578926977009933,4.8738724099382065 L5.640123892312447,4.832125798942334 L5.70148180399429,4.792848691733443 L5.762920266670363,4.756092583904008 L5.824358729346438,4.721905665804188 L5.885716641028281,4.690332759360227 L5.946913556330795,4.661415259309137 L6.00786924094868,4.6351910789267095 L6.0685037768503625,4.611694600320028 L6.128737667057259,4.590956629349629 L6.188491939871005,4.573004355240423 L6.247688252411985,4.557861314934339 " />
			<path d="M-4.5003348216235315,-1.6475127001163847 L-4.559531134164518,-1.6323696598103 L-4.619285406978264,-1.6144173857010924 L-4.679519297185162,-1.5936794147306923 L-4.740153833086845,-1.5701829361240116 L-4.80110951770473,-1.5439587557415848 L-4.862306433007244,-1.5150412556904946 L-4.923664344689087,-1.483468349246534 L-4.98510280736516,-1.449281431146714 L-5.046541270041234,-1.412525323317278 L-5.107899181723077,-1.3732482161083877 L-5.169096097025591,-1.331501605112516 L-5.230051781643476,-1.2873402236493952 L-5.290686317545159,-1.2408219710060266 L-5.350920207752057,-1.1920078365258457 L-5.469870793106786,-1.0877508459915042 " />
			<path d="M-0.4637824638055177,-3.0822745930021656 L-0.4637824638055178,-2.3498312116892444 " />

       </g>

       <!-- solid lines -->
       <g  stroke="rgb(200,20,20)" fill="none">
			<path d="M2.9344931419241718,4.184544977254598 L2.9344931419241713,5.327640190553414 " />
			<path d="M2.9344931419241744,5.327640190553416 L3.6415999231107223,5.735888481017279 " />
			<path d="M2.9344931419241718,2.5515518153991446 L4.065863991822649,1.898354550656963 " />
			<path d="M4.490128060534577,4.429493951532915 L4.490128060534577,3.2863987382341 " />
			<path d="M2.934493141924172,5.327640190553414 L4.490128060534577,4.429493951532915 " />
			<path d="M2.9344931419241718,2.5515518153991446 L2.9344931419241718,4.184544977254598 " />
			<path d="M3.6415999231107197,5.735888481017277 L4.995309568454114,4.954323852873675 " />
			<path d="M4.490128060534577,4.429493951532915 L4.59178448130616,4.488185313430242 " />
			<path d="M5.197234841721125,3.694647028697963 L5.197234841721125,4.130303547229777 " />
			<path d="M-3.7123106012293743,-5.205165703414252 L9.298454172603103,2.3066028411208324 " />
			<path d="M9.2984541726031,2.3066028411208284 L7.601397897755385,3.2863987382341 " />
			<path d="M5.904341622907672,4.266194635347371 L5.823424183700064,4.312912340656018 " />
			<path d="M2.9344931419241713,5.0680361494379325 L-0.4789471260121889,3.097285491882166 " />
			<path d="M-0.47894712601218714,3.0972854918821673 L-0.4912138836394089,3.1048583429011662 " />
			<path d="M-0.4912138836394089,3.1048583429011725 L-5.094929687734313,0.4469017841344449 " />
			<path d="M-5.094929687734313,0.44690178413444226 L-5.081813125011264,0.43981956831628644 " />
			<path d="M-5.0818131250112515,0.43981956831628066 L-6.740178100156387,-0.5176378964984112 " />
			<path d="M-7.6721085758740415,-1.055688207520015 L-9.285762512427958,-1.987331742168318 " />
			<path d="M-9.285762512427956,-1.9873317421683174 L-3.7123106012293725,-5.205165703414254 " />
			<path d="M-4.156176978234895,0.0907446746459244 L-5.975052301026327,-0.9593834825900771 " />
			<path d="M-4.156176978234919,0.09074467464592884 L-3.968959691459567,0.047931033086814345 L-3.7775174794341155,0.011879146252304018 L-3.5825821967564395,-0.017273164951424835 L-3.3848990515047643,-0.03941445565144064 L-3.1852237564199917,-0.054460083044935326 L-2.9843196399302845,-0.062352529975847615 L-2.782954728062025,-0.06306162481424393 L-2.581898808392575,-0.05658465679789382 L-2.3819204872689,-0.0429463863951014 L-2.183784251541841,-0.02219895064918531 L-1.9882475460485987,0.00557833613354819 L-1.7960578780157834,0.04027928559039018 L-1.6079499594524413,0.08177124124426705 L-1.4246428984572543,0.1298955856293713 L-1.246837450177123,0.18446834666172474 L-1.0752133379263211,0.24528090093660815 L-0.9919253041764375,0.27795535951450034 L-0.9104266547071589,0.31210077126425406 L-0.8307952973874198,0.34768449520002886 L-0.7531073550657439,0.3846725153949555 L-0.6774370928013393,0.42302947349833486 L-0.6038568468711016,0.46271870253612324 L-0.5324369556204251,0.5037022619623883 L-0.4632456922239343,0.5459409739282077 L-0.39634919942037383,0.5893944607333736 L-0.33181142628408145,0.6340211834250724 L-0.26969406709347066,0.6797784815066574 L-0.21005650235496098,0.7266226137185545 L-0.1529557420387473,0.7745087998523004 L-0.09844637108065024,0.8233912635577673 L-0.04658049720215374,0.8732232761026393 L0.0025922989014723896,0.9239572010422963 L0.049025010957377546,0.9755445397574317 L0.09267325205033661,1.0279359778158519 L0.1334952970540022,1.0810814321141424 L0.1714521225176524,1.1349300987541469 L0.2065074439702852,1.189430501608467 L0.23862775060642116,1.2445305415285886 L0.267782337320448,1.3001775461485776 L0.29394333405886863,1.3563183202367255 L0.31708573246242544,1.4128991965470359 L0.33718740977260175,1.469866087121926 L0.3542291499796675,1.5271645349970977 L0.3681946621920442,1.5847397662591687 L0.3790705962094254,1.6425367424062722 L0.3868465552847802,1.7005002129615991 L0.39151510606302375,1.7585747682895794 L0.39307178568686263,1.8167048925641753 " />
			<path d="M0.39307178568686263,1.8167048925641924 L0.39201268316940974,1.8646547391787784 L0.38883606444010343,1.9125733999929753 L0.3835439955201001,1.9604297094891305 L0.3761399182849581,2.0081925427018756 L0.3666286482260901,2.055830835461296 L0.35501637131885433,2.103313604596563 L0.34131063999929,2.150609968086883 L0.3255203682521399,2.197689165146662 L0.3076558258133377,2.244520576231822 L0.2877286314907401,2.2910737429542514 L0.24173946157259074,2.383224434278458 L0.18767248147693527,2.4739015448552806 L0.12566832547156537,2.562869213369202 " />
			<path d="M2.9344931419241735,4.1845449772546015 L0.12566832547157603,2.562869213369192 " />
			<path d="M5.1972348417211265,3.6946470286979647 L4.49012806053458,3.2863987382341016 " />
			<path d="M4.49012806053458,3.2863987382341016 L4.065863991822649,3.0414497639557823 " />
			<path d="M4.065863991822648,3.041449763955782 L4.914392129246506,2.551551815399146 " />
			<path d="M5.338656197958437,2.7965007896774665 L4.914392129246505,2.551551815399147 " />
			<path d="M7.601397897755389,2.3066028411208306 L6.894291116568841,1.8983545506569675 " />
			<path d="M6.894291116568841,1.8983545506569675 L4.085466300116243,0.27667878677155855 " />
			<path d="M4.0854663001162415,0.2766787867715561 L3.898249013340888,0.31949242833066993 L3.7068068013154383,0.35554431516517915 L3.511871518637764,0.3846966263689069 L3.3141883733860906,0.40683791706892203 L3.11451307830132,0.4218835444624158 L2.913608961811612,0.42977599139332745 L2.712244049943351,0.4304850862317231 L2.5111881302739034,0.4240081182153723 L2.3112098091502307,0.41036984781257946 L2.1130735734231703,0.3896224120666625 L1.9175368679299276,0.36184512528392854 L1.7253471998971146,0.3271441758270863 L1.537239281333775,0.28565222017320946 L1.3539322203385877,0.23752787578810475 L1.1761267720584556,0.18295511475575021 L1.0045026598076567,0.12214256048086747 L0.9212146260577745,0.0894681019029755 L0.8397159765884972,0.05532269015322222 L0.7600846192687558,0.019738966217446086 L0.6823966769470813,-0.01724905397748011 L0.6067264146826776,-0.055606012080859024 L0.5331461687524381,-0.09529524111864873 L0.4617262775017634,-0.13627880054491315 L0.3925350141052739,-0.1785175125107321 L0.32563852130171433,-0.2219709993158976 L0.26110074816542284,-0.2665977220075959 L0.19898338897481072,-0.31235502008918226 L0.13934582423630193,-0.3591991523010787 L0.08224506392008957,-0.40708533843482386 L0.027735692961991187,-0.4559678021402923 L-0.024130180916504873,-0.5057998146851637 L-0.07330297702013011,-0.55653373962482 L-0.11973568907603438,-0.6081210783399547 L-0.16338393016899255,-0.6605125163983743 L-0.20420597517265948,-0.7136579706966664 L-0.2421628006363088,-0.7675066373366701 L-0.2772181220889407,-0.8220070401909894 L-0.309338428725078,-0.8771070801111126 L-0.3384930154391035,-0.9327540847311009 L-0.36465401217752413,-0.9888948588192479 L-0.3877964105810805,-1.0454757351295585 L-0.4078980878912568,-1.1024426257044477 L-0.424939828098323,-1.15974107357962 L-0.4389053403106993,-1.2173163048416913 L-0.44978127432808,-1.2751132809887937 L-0.4575572334034348,-1.3330767515441218 L-0.46222578418167837,-1.391151306872102 L-0.46378246380551724,-1.4492814311467053 " />
			<path d="M-0.46378246380551724,-1.4492814311467137 L-0.46272336128806435,-1.4972312777612995 L-0.45954674255875805,-1.545149938575495 L-0.45425467363875516,-1.5930062480716491 L-0.4468505964036127,-1.6407690812843931 L-0.4373393263447456,-1.6884073740438124 L-0.42572704943750983,-1.735890143179079 L-0.4120213181179464,-1.7831865066693986 L-0.39623104637079676,-1.8302657037291767 L-0.37836650393199545,-1.8770971148143356 L-0.3584393096093983,-1.923650281536764 L-0.31245013969125024,-2.015800972860969 L-0.25838315959559655,-2.1064780834377905 L-0.19637900359023375,-2.1954457519517034 " />
			<path d="M-0.19637900359022797,-2.195445751951709 L-3.0052038200428264,-3.817121515837119 " />
			<path d="M-3.0052038200428264,-3.817121515837119 L-3.7123106012293743,-4.225369806300982 " />
			<path d="M-5.26794551983978,-3.327223567280484 L-3.712310601229375,-4.225369806300983 " />
			<path d="M-5.267945519839779,-2.347427670167212 L-5.4093668760770885,-2.429077328259984 " />
			<path d="M-5.4093668760770885,-2.429077328259984 L-6.116473657263636,-2.837325618723847 " />
			<path d="M-7.6721085758740415,-1.9391793797033494 L-6.116473657263637,-2.837325618723848 " />
			<path d="M4.065863991822648,1.408456602100328 L4.914392129246506,0.918558653543692 " />
			<path d="M5.338656197958437,1.1635076278220131 L4.914392129246505,0.9185586535436938 " />
			<path d="M5.338656197958434,1.16350762782201 L5.480077554195743,1.0818579697292376 " />
			<path d="M-4.156176978234895,-1.5422484872095295 L-4.560838738653232,-1.7758800635178043 " />
			<path d="M-5.267945519839779,-2.1841283539816674 L-5.409366876077088,-2.2657780120744393 " />
			<path d="M-4.156176978234919,-1.542248487209525 L-4.036202889024716,-1.5705715938966325 L-3.914371826078263,-1.5961161256035823 L-3.790876755228704,-1.6188416228471858 L-3.6659132778986954,-1.6387120911576976 L-3.5396793212911426,-1.6556960580897506 L-3.412374824896179,-1.6697666230709471 L-3.2842014238109343,-1.6809015000091452 L-3.1553621293736493,-1.689083052590966 L-3.0260610076179906,-1.6942983222156052 L-2.8965028560568644,-1.696539048519705 L-2.7668928793076537,-1.6958016824607818 L-2.6374363640726424,-1.692087391938487 L-2.508338353989423,-1.6854020599447923 L-2.379803324866304,-1.675756275246033 L-2.252034860817089,-1.6631653156115715 L-2.1252353318081827,-1.6476491236156352 L-1.9996055731287625,-1.6292322750506634 L-1.8753445672917024,-1.6079439400021944 L-1.7526491288690795,-1.583817836646936 L-1.6317135927614217,-1.5568921778472078 L-1.5127295063944628,-1.5272096106263355 L-1.3958853263309365,-1.4948171486208681 L-1.281366119777917,-1.4597660976165994 L-1.1693532714624935,-1.4221119742863386 L-1.0600241963400638,-1.3819144182581435 L-0.9535520585902582,-1.3392370976532793 L-0.8501054973455822,-1.2941476082435281 L-0.7498483595872072,-1.2467173663875735 L-0.652939440630949,-1.1970214959160277 L-0.5595322326144703,-1.1451387091442675 L-0.46977468138410305,-1.0911511822015452 L-0.38380895216633526,-1.035144424873836 " />
			<path d="M0.31309827404766155,-0.2304252755641514 L0.33178302123214953,-0.17935889294114873 L0.348005682870141,-0.1280127754984324 L0.36175375989662584,-0.07642648385029907 L0.3730166598384099,-0.02463976365793602 L0.38178570497529307,0.027307484993401715 L0.38805413902598973,0.07937523833619223 L0.3918171323536317,0.13152337975772666 L0.39307178568686263,0.18371173070872152 " />
			<path d="M2.9344931419241735,2.551551815399147 L0.39307178568686574,1.084261511251273 " />
			<path d="M-3.7123106012293743,-6.838158865269706 L9.298454172603103,0.673609679265379 " />
			<path d="M-9.285762512427956,-3.620324904023772 L-3.7123106012293725,-6.838158865269708 " />
			<path d="M4.065863991822649,1.4084566021003275 L4.065863991822649,3.0414497639557814 " />
			<path d="M-3.712310601229374,-5.205165703414254 L-3.712310601229374,-6.838158865269707 " />
			<path d="M9.2984541726031,2.306602841120828 L9.2984541726031,0.6736096792653744 " />
			<path d="M-5.094929687734313,0.4322467172972788 L-5.094929687734313,0.4469017841344429 " />
			<path d="M-9.285762512427956,-1.9873317421683176 L-9.285762512427956,-3.6203249040237715 " />
			<path d="M-4.156176978234895,-1.5422484872095301 L-4.156176978234895,0.0907446746459235 " />
			<path d="M-7.672108575874041,-1.939179379703348 L-7.672108575874041,-0.7960841664045328 " />
			<path d="M-7.672108575874041,-0.7960841664045333 L-6.965001794687493,-0.38783587594067 " />
			<path d="M4.914392129246505,0.9185586535436918 L4.914392129246505,2.5515518153991454 " />
			<path d="M5.338656197958433,3.939596002976279 L6.04576297914498,4.347844293440143 " />
			<path d="M5.338656197958434,3.939596002976279 L5.338656197958434,2.796500789677464 " />
			<path d="M5.338656197958434,2.796500789677464 L5.338656197958434,1.1635076278220104 " />
			<path d="M7.601397897755386,2.306602841120829 L7.601397897755386,3.449698054419644 " />
			<path d="M6.045762979144982,4.347844293440142 L7.601397897755387,3.449698054419643 " />
			<path d="M6.894291116568838,1.8983545506569652 L6.894291116568838,3.04144976395578 " />
			<path d="M6.894291116568841,3.041449763955783 L7.601397897755389,3.4496980544196463 " />
			<path d="M-3.7123106012293743,-4.225369806300981 L-3.7123106012293747,-3.082274593002166 " />
			<path d="M-3.7123106012293743,-3.0822745930021664 L-3.0052038200428264,-2.6740263025383033 " />
			<path d="M-3.0052038200428273,-3.8171215158371177 L-3.0052038200428277,-2.674026302538303 " />
			<path d="M-5.267945519839779,-2.184128353981668 L-3.712310601229374,-3.082274593002167 " />
			<path d="M-5.26794551983978,-3.327223567280483 L-5.26794551983978,-2.184128353981668 " />
			<path d="M-5.26794551983978,-2.1841283539816683 L-4.560838738653232,-1.775880063517805 " />
			<path d="M-6.1164736572636365,-2.837325618723847 L-6.1164736572636365,-1.748471835449854 " />
			<path d="M-5.4093668760770885,-2.1219031558561525 L-5.4093668760770885,-2.429077328259985 " />
			<path d="M-7.672108575874041,-0.7960841664045333 L-6.3183989305306465,-1.5776487945481346 " />
			<path d="M-6.965001794687494,-0.3878358759406706 L-5.6112921493441,-1.1694005040842719 " />
			<path d="M5.338656197958434,3.939596002976279 L6.894291116568839,3.04144976395578 " />
			<path d="M-4.560838738653231,-1.7758800635178051 L-3.005203820042827,-2.674026302538304 " />
			<path d="M4.429624143504877,4.627725220502584 L4.5485747288596095,4.523468229968239 L4.608808619066506,4.4746540954880585 L4.66944315496819,4.42813584284469 L4.7303988395860745,4.38397446138157 L4.791595754888589,4.342227850385697 L4.852953666570432,4.302950743176806 L4.914392129246506,4.266194635347371 L4.975830591922579,4.232007717247551 L5.037188503604423,4.20043481080359 L5.098385418906937,4.1715173107525 L5.159341103524822,4.145293130370073 L5.219975639426504,4.1217966517633915 L5.280209529633401,4.101058680792992 L5.339963802447147,4.083106406683786 L5.399160114988127,4.067963366377702 " />
			<path d="M4.429624143504877,4.627725220502584 L5.399160114988134,4.0679633663777 " />
			<path d="M6.247688252411994,4.557861314934335 L5.399160114988136,4.067963366377699 " />
			<path d="M5.278152280928733,5.117623169059221 L4.429624143504875,4.627725220502585 " />
			<path d="M5.278152280928734,5.11762316905922 L6.247688252411991,4.557861314934336 " />
			<path d="M-5.4698707931067885,-1.0877508459914993 L-4.5003348216235315,-1.6475127001163832 " />
			<path d="M-5.348862959047388,-2.137410648673021 L-4.50033482162353,-1.6475127001163847 " />
			<path d="M-6.3183989305306465,-1.5776487945481357 L-5.3488629590473895,-2.1374106486730193 " />
			<path d="M-6.318398930530648,-1.577648794548135 L-5.46987079310679,-1.0877508459914988 " />
			<path d="M-5.348862959047389,-2.1374106486730207 L-5.4080592715883755,-2.122267608366936 L-5.467813544402121,-2.1043153342577283 L-5.528047434609019,-2.0835773632873282 L-5.588681970510702,-2.0600808846806475 L-5.649637655128587,-2.0338567042982207 L-5.710834570431101,-2.0049392042471306 L-5.772192482112944,-1.9733662978031699 L-5.833630944789017,-1.9391793797033499 L-5.895069407465091,-1.902423271873914 L-5.956427319146934,-1.8631461646650236 L-6.017624234449448,-1.8213995536691518 L-6.078579919067333,-1.777238172206031 L-6.139214454969016,-1.7307199195626626 L-6.199448345175914,-1.6819057850824817 L-6.318398930530643,-1.57764879454814 " />
			<path d="M0.3930717856868633,0.18371173070873903 L0.39307178568686313,1.8167048925641927 " />
			<path d="M-0.4637824638055178,-2.3498312116892444 L-0.46378246380551785,-1.4492814311467122 " />

       </g>
    </g>
    
</svg>
