<?xml version="1.0" encoding="UTF-8" standalone="no"?>
<svg
   xmlns:svg="http://www.w3.org/2000/svg"
   xmlns="http://www.w3.org/2000/svg"
   width="480.0"
   height="480.0"

>
    <g transform="scale(18.85618083164126, -18.85618083164126)   translate(12.091525958289964,-11.777647515600243)" stroke-width="0.053033008588991085"  fill="none">
       <!-- hidden lines -->
       <g  stroke="rgb(100,40,40)" fill="none" stroke-dasharray="0.053033008588991085,0.053033008588991085" >
			<path d="M4.030508652763322,2.8985628622934296 L4.030508652763322,5.8379505536332434 " />
			<path d="M3.959797974644667,2.8577380332470423 L4.030508652763321,2.898562862293428 " />
			<path d="M3.959797974644667,2.857738033247043 L3.959797974644667,4.490731195102496 " />
			<path d="M3.959797974644667,4.490731195102496 L3.9597979746446668,5.103103630798291 " />
			<path d="M4.030508652763322,2.8985628622934296 L4.101219330881976,2.8577380332470432 " />
			<path d="M4.101219330881976,5.103103630798291 L4.101219330881976,4.490731195102497 " />
			<path d="M4.101219330881976,4.490731195102497 L4.101219330881976,2.8577380332470432 " />
			<path d="M3.1819805153394647,3.3068111527572923 L3.9597979746446677,2.857738033247043 " />
			<path d="M3.1819805153394682,3.3068111527572963 L-8.237794000823282,-3.2863987382340984 " />
			<path d="M-8.237794000823282,-3.2863987382341 L-7.954951288348662,-3.449698054419645 " />
			<path d="M-7.954951288348662,-3.4496980544196445 L-8.096372644585971,-3.531347712512417 " />
			<path d="M-8.874190103891173,-3.0822745930021673 L-8.09637264458597,-3.5313477125124173 " />
			<path d="M-9.545941546018392,-3.4701104689428357 L-8.874190103891173,-3.0822745930021664 " />
			<path d="M4.525483399593904,3.4292856398964506 L9.54594154601839,0.5307227776030228 " />
			<path d="M3.8890872965260144,3.0618621784789766 L4.525483399593906,3.429285639896453 " />
			<path d="M3.889087296526012,3.0618621784789735 L4.171930009000631,2.898562862293428 " />
			<path d="M4.171930009000633,2.898562862293431 L4.101219330881978,2.857738033247044 " />
			<path d="M4.31335136523794,1.7554676489946108 L4.737615433949868,1.510518674716293 " />
			<path d="M4.7376154339498715,1.5105186747162964 L4.31335136523794,1.2655697004379771 " />
			<path d="M5.727564927611033,0.9389710680668857 L7.000357133746821,0.20412414523193112 " />
			<path d="M7.000357133746824,0.040824829046387734 L7.000357133746824,0.20412414523193267 " />
			<path d="M7.0003571337468244,0.0408248290463904 L4.332953673531534,-1.4992012767462475 " />
			<path d="M4.332953673531533,-1.4992012767462495 L4.145736386756179,-1.4563876351871357 L3.95429417473073,-1.4203357483526264 L3.7593588920530556,-1.3911834371488987 L3.5616757468013827,-1.3690421464488836 L3.3620004517166118,-1.3539965190553898 L3.1610963352269037,-1.3461040721244781 L2.9597314233586425,-1.3453949772860825 L2.758675503689195,-1.3518719453024333 L2.5586971825655223,-1.3655102157052261 L2.3605609468384623,-1.386257651451143 L2.165024241345219,-1.414034938233877 L1.9728345733124062,-1.4487358876907193 L1.7847266547490666,-1.4902278433445961 L1.6014195937538793,-1.5383521877297008 L1.4236141454737472,-1.5929249487620554 L1.2519900332229483,-1.6537375030369381 L1.168701999473066,-1.68641196161483 L1.0872033500037888,-1.7205573733645834 L1.0075719926840474,-1.7561410973003595 L0.9298840503623729,-1.7931291174952857 L0.8542137880979692,-1.8314860755986646 L0.7806335421677297,-1.8711753046364543 L0.709213650917055,-1.9121588640627187 L0.6400223875205655,-1.9543975760285377 L0.5731258947170059,-1.9978510628337032 L0.5085881215807144,-2.0424777855254015 L0.4464707623901023,-2.088235083606988 L0.3868331976515935,-2.1350792158188843 L0.32973243733538116,-2.1829654019526297 L0.2752230663772828,-2.231847865658098 L0.22335719249878672,-2.2816798782029695 L0.17418439639516148,-2.3324138031426256 L0.1277516843392572,-2.3840011418577602 L0.08410344324629904,-2.4363925799161796 L0.04328139824263211,-2.4895380342144717 L0.005324572778982795,-2.5433867008544757 L-0.02973074867364911,-2.597887103708795 L-0.06185105530978641,-2.652987143628918 L-0.0910056420238119,-2.7086341482489065 L-0.11716663876223254,-2.7647749223370535 L-0.1403090371657889,-2.821355798647364 L-0.16041071447596522,-2.8783226892222533 L-0.1774524546830314,-2.9356211370974257 L-0.1914179668954077,-2.993196368359497 L-0.20229390091278843,-3.0509933445065993 L-0.2100698599881432,-3.1089568150619273 L-0.21473841076638678,-3.1670313703899073 L-0.21629509039022565,-3.225161494664511 " />
			<path d="M-0.21629509039022565,-3.225161494664519 L-0.21523598787277276,-3.273111341279105 L-0.21205936914346646,-3.3210300020933006 L-0.20676730022346357,-3.3688863115894545 L-0.1993632229883211,-3.4166491448021987 L-0.189851952929454,-3.464287437561618 L-0.17823967602221868,-3.511770206696884 L-0.1645339447026548,-3.5590665701872024 L-0.1487436729555056,-3.6061457672469808 L-0.13087913051670474,-3.6529771783321396 L-0.11095193619410759,-3.699530345054568 L-0.06496276627595954,-3.791681036378773 L-0.010895786180305844,-3.8823581469555943 L0.051108369825056066,-3.9713258154695077 " />
			<path d="M0.05110836982506406,-3.9713258154695144 L-2.6162950903902256,-5.511351921262152 " />
			<path d="M-2.6162950903902242,-5.511351921262152 L-2.8991378028648445,-5.511351921262152 " />
			<path d="M-4.31335136523794,-4.694855340334426 L-2.8991378028648445,-5.511351921262152 " />
			<path d="M-3.8890872965260126,-4.449906366056108 L-4.31335136523794,-4.694855340334425 " />
			<path d="M-4.737615433949869,-3.9600084174994725 L-3.889087296526011,-4.4499063660561085 " />
			<path d="M-4.737615433949869,-3.9600084174994725 L-5.161879502661797,-4.20495739177779 " />
			<path d="M-6.576093065034891,-3.3884608108500642 L-5.161879502661797,-4.20495739177779 " />
			<path d="M-6.5760930650348906,-3.225161494664519 L-6.5760930650348906,-3.3884608108500642 " />
			<path d="M-4.313351365237942,-1.9187669651801564 L-5.020458146424487,-2.3270152556440182 " />
			<path d="M-5.1618795026617965,-2.4086649137367906 L-6.576093065034893,-3.2251614946645177 " />
			<path d="M-0.13632157875102502,-1.178031326536175 L-0.07371087611965432,-1.1342446888657347 L-0.01341858700993992,-1.0893865834169913 L0.044500312047729196,-1.0434979133142719 L0.09999300865957617,-0.996620521385302 L0.1530089027245478,-0.9487971520075149 L0.20349965257318292,-0.9000714121322917 L0.25141921904716824,-0.850487731522685 L0.2967239074793837,-0.8000913222408685 L0.3393724075361675,-0.7489281374222653 L0.3793258308854619,-0.6970448293739369 L0.4165477466564975,-0.6444887070354465 L0.451004214658683,-0.5913076928409821 L0.48266381632941036,-0.5375502790220738 L0.5114976833825509,-0.48326548339075237 L0.5374795241315269,-0.42850280464346435 L0.5605856474629469,-0.37331217722651944 " />
			<path d="M0.6405591591021542,0.04082482904638693 L0.6395000565847013,0.088774675660973 L0.636323437855395,0.1366933364751697 L0.6310313689353917,0.184549645971325 L0.6236272917002497,0.23231247918407005 L0.6141160216413817,0.27995077194349055 L0.6025037447341459,0.32743354107875744 L0.5887980134145816,0.3747299045690773 L0.5730077416674315,0.42180910162885665 L0.5551431992286293,0.4686405127140165 L0.5352160049060317,0.5151936794364458 L0.48922683498788233,0.6073443707606523 L0.43515985489222686,0.698021481337475 L0.37315569888685696,0.7869891498513966 " />
			<path d="M0.6405591591021569,0.9413746095889213 L0.37315569888686717,0.7869891498513866 " />
			<path d="M3.3234018715767726,4.858154656519973 L3.9597979746446677,4.490731195102496 " />
			<path d="M3.181980515339465,3.3068111527572928 L3.181980515339465,4.939804314612747 " />
			<path d="M4.030508652763322,4.449906366056111 L4.030508652763322,5.103103630798291 " />
			<path d="M3.9597979746446677,4.490731195102496 L4.030508652763322,4.44990636605611 " />
			<path d="M4.101219330881978,4.490731195102498 L4.030508652763324,4.449906366056112 " />
			<path d="M4.171930009000633,4.531556024148885 L4.101219330881978,4.490731195102498 " />
			<path d="M4.171930009000631,2.8985628622934296 L4.171930009000631,4.531556024148884 " />
			<path d="M-6.505382386916239,-0.6531972647421789 L-6.576093065034892,-0.6940220937885644 " />
			<path d="M3.889087296526012,4.694855340334428 L4.171930009000631,4.531556024148882 " />
			<path d="M3.8890872965260144,4.6948553403344295 L4.525483399593906,5.062278801751907 " />
			<path d="M4.525483399593904,5.062278801751905 L6.0811183182043065,4.164132562731407 " />
			<path d="M6.151828996322965,4.123307733685018 L7.000357133746823,3.633409785128382 " />
			<path d="M-5.727564927611036,-1.1022703842524284 L-6.576093065034893,-1.5921683328090643 " />
			<path d="M-6.5760930650348906,-1.5921683328090654 L-6.5760930650348906,-1.7554676489946104 " />
			<path d="M-6.5760930650348906,-1.7554676489946104 L-6.5760930650348906,-2.571964229922337 " />
			<path d="M-4.737615433949869,-2.3270152556440182 L-5.020458146424488,-2.4903145718295634 " />
			<path d="M-4.737615433949869,-2.327015255644019 L-3.889087296526011,-2.816913204200655 " />
			<path d="M-3.8890872965260126,-2.8169132042006533 L-4.31335136523794,-3.061862178478971 " />
			<path d="M-4.31335136523794,-3.061862178478971 L-5.020458146424488,-3.470110468942834 " />
			<path d="M7.000357133746824,1.8371173070873856 L7.000357133746824,2.653613888015113 " />
			<path d="M6.293250352560274,3.0618621784789752 L7.000357133746823,2.6536138880151117 " />
			<path d="M6.293250352560275,3.0618621784789775 L5.586143571373729,2.6536138880151143 " />
			<path d="M4.73761543394987,3.960008417499474 L5.444722215136417,3.551760127035611 " />
			<path d="M3.323401871576775,3.9600084174994734 L4.737615433949876,3.960008417499474 " />
			<path d="M-8.237794000823282,-3.2863987382341 L-8.237794000823282,-1.8167048925641893 " />
			<path d="M3.8890872965260117,3.0618621784789752 L3.8890872965260117,4.694855340334429 " />
			<path d="M-8.874190103891173,-1.4492814311467148 L-8.874190103891173,-3.082274593002168 " />
			<path d="M-8.096372644585973,-3.5313477125124173 L-8.096372644585973,-1.898354550656964 " />
			<path d="M-7.9549512883486635,-3.4496980544196445 L-7.9549512883486635,-1.816704892564191 " />
			<path d="M4.525483399593903,5.062278801751905 L4.525483399593903,3.429285639896451 " />
			<path d="M0.3731556988868663,0.7869891498513841 L0.3731556988868661,2.4199823117068378 " />
			<path d="M-6.576093065034892,-3.225161494664518 L-6.576093065034892,-1.5921683328090648 " />
			<path d="M-6.576093065034892,-1.7554676489946102 L-6.576093065034892,-3.388460810850064 " />
			<path d="M-5.161879502661797,-2.5719642299223366 L-5.161879502661797,-4.20495739177779 " />
			<path d="M-4.737615433949869,-3.9600084174994716 L-4.737615433949869,-2.3270152556440182 " />
			<path d="M-3.8890872965260113,-4.449906366056108 L-3.8890872965260113,-2.816913204200654 " />
			<path d="M-4.31335136523794,-3.0618621784789717 L-4.31335136523794,-4.694855340334425 " />
			<path d="M-2.899137802864844,-3.8783587594066997 L-2.899137802864844,-5.511351921262153 " />
			<path d="M-2.616295090390226,-5.511351921262151 L-2.616295090390226,-3.878358759406698 " />
			<path d="M0.05110836982506271,-3.9713258154695144 L0.051108369825062554,-2.338332653614061 " />
			<path d="M4.332953673531533,-1.4992012767462486 L4.332953673531533,0.13379188510920503 " />
			<path d="M7.000357133746821,0.04082482904638707 L7.000357133746821,1.6738179909018407 " />
			<path d="M7.000357133746821,0.20412414523193145 L7.000357133746821,1.673817990901842 " />
			<path d="M4.737615433949868,3.1435118365717476 L4.737615433949868,1.5105186747162938 " />
			<path d="M-6.576093065034892,-0.6123724356957947 L-6.576093065034892,-1.7554676489946102 " />
			<path d="M-5.868986283848345,-1.8924696808218298 L-5.868986283848345,-1.8371173070873836 " />
			<path d="M-6.0811183182043065,-1.7146428199482262 L-5.8689862838483435,-1.8371173070873843 " />
			<path d="M-5.868986283848345,-1.8371173070873845 L-5.161879502661797,-1.4288690166235212 " />
			<path d="M-5.161879502661797,-1.4288690166235214 L-5.161879502661797,-2.267355663018284 " />
			<path d="M-4.31335136523794,-1.9187669651801564 L-4.31335136523794,-3.0618621784789717 " />
			<path d="M7.000357133746821,2.6536138880151126 L7.000357133746821,3.796709101313928 " />
			<path d="M6.293250352560273,3.0618621784789752 L6.293250352560273,4.204957391777791 " />
			<path d="M4.838209877443931,4.344685278900841 L5.444722215136416,4.694855340334427 " />
			<path d="M5.444722215136416,3.9863057018578014 L5.444722215136416,4.694855340334426 " />
			<path d="M5.232590180780453,4.817329827473584 L5.444722215136416,4.694855340334425 " />
			<path d="M4.737615433949869,3.960008417499474 L4.737615433949869,5.103103630798289 " />
			<path d="M-5.3740115370177595,-1.3063945294843635 L-5.161879502661797,-1.4288690166235216 " />
			<path d="M6.505382386916236,4.409081537009726 L6.444881779722493,4.42497346934362 L6.383834477447502,4.443670729257119 L6.3223172953878075,4.465149790148533 L6.260407640085654,4.489383625099875 L6.198183411929,4.516341740884601 L6.135722907130126,4.545990216336975 L6.073104719206186,4.578291745034775 L6.010407640085655,4.613205682241656 L5.947710560965124,4.650688096050059 L5.885092373041184,4.690691822660366 L5.82263186824231,4.733166525726691 L5.760407640085656,4.778058759694686 L5.6984979847835024,4.8253120370516145 L5.636980802723808,4.874866899404106 L5.5154328932550785,4.980629143659128 " />
			<path d="M-4.242640687119288,-1.796292478040996 L-4.303141294313031,-1.7804005457071015 L-4.364188596588022,-1.7617032857936028 L-4.425705778647717,-1.7402242249021889 L-4.487615433949871,-1.7159903899508464 L-4.549839662106525,-1.6890322741661201 L-4.612300166905398,-1.6593837987137467 L-4.674918354829338,-1.6270822700159457 L-4.737615433949869,-1.5921683328090657 L-4.8003125130704,-1.5546859190006619 L-4.86293070099434,-1.5146821923903562 L-4.925391205793214,-1.4722074893240307 L-4.987615433949868,-1.4273152553560349 L-5.049525089252022,-1.3800619779991068 L-5.1110422713117165,-1.3305071156466162 L-5.232590180780446,-1.2247448713915943 " />
			<path d="M-0.21629509039022524,-3.225161494664518 L-0.2162950903902253,-2.4927181133515957 " />

       </g>

       <!-- solid lines -->
       <g  stroke="rgb(200,20,20)" fill="none">
			<path d="M3.959797974644667,5.7971257245868575 L4.030508652763321,5.8379505536332434 " />
			<path d="M3.9597979746446668,5.103103630798291 L3.9597979746446668,5.7971257245868575 " />
			<path d="M4.030508652763321,5.8379505536332434 L4.1012193308819755,5.7971257245868575 " />
			<path d="M4.030508652763323,5.756300895540471 L4.101219330881976,5.797125724586856 " />
			<path d="M4.030508652763322,5.756300895540471 L3.959797974644667,5.797125724586857 " />
			<path d="M4.101219330881976,5.7971257245868575 L4.101219330881976,5.103103630798291 " />
			<path d="M-9.545941546018392,-3.4701104689428366 L-3.464823227814083,-6.981045766932059 " />
			<path d="M-3.464823227814083,-6.981045766932058 L9.545941546018394,0.5307227776030263 " />
			<path d="M3.040559159102158,2.3270152556440205 L3.323401871576775,2.3270152556440205 " />
			<path d="M3.3234018715767735,2.327015255644019 L4.31335136523794,1.7554676489946108 " />
			<path d="M4.313351365237939,1.2655697004379758 L5.161879502661797,0.7756717518813399 " />
			<path d="M5.586143571373729,1.020620726159661 L5.161879502661797,0.7756717518813416 " />
			<path d="M5.586143571373725,1.0206207261596574 L5.727564927611033,0.9389710680668857 " />
			<path d="M-3.908689604819603,-1.6851353888718803 L-4.313351365237942,-1.9187669651801564 " />
			<path d="M-5.020458146424487,-2.3270152556440182 L-5.1618795026617965,-2.4086649137367906 " />
			<path d="M-3.908689604819627,-1.6851353888718767 L-3.7887155156094248,-1.7134584955589842 L-3.6668844526629716,-1.739003027265934 L-3.5433893818134123,-1.7617285245095375 L-3.4184259044834038,-1.7815989928200493 L-3.292191947875851,-1.7985829597521024 L-3.1648874514808876,-1.8126535247332989 L-3.0367140503956427,-1.823788401671497 L-2.9078747559583578,-1.8319699542533177 L-2.778573634202699,-1.837185223877957 L-2.6490154826415724,-1.8394259501820567 L-2.519405505892362,-1.8386885841231335 L-2.389948990657351,-1.8349742936008386 L-2.2608509805741313,-1.828288961607144 L-2.1323159514510124,-1.8186431769083848 L-2.0045474874017977,-1.8060522172739233 L-1.8777479583928913,-1.790536025277987 L-1.752118199713471,-1.772119176713015 L-1.6278571938764108,-1.7508308416645462 L-1.505161755453788,-1.7267047383092877 L-1.38422621934613,-1.6997790795095595 L-1.2652421329791712,-1.6700965122886873 L-1.148397952915645,-1.6377040502832199 L-1.0338787463626253,-1.602652999278951 L-0.9218658980472019,-1.5649988759486904 L-0.8125368229247723,-1.5248013199204953 L-0.7060646851749666,-1.482123999315631 L-0.6026181239302906,-1.4370345099058799 L-0.5023609861719156,-1.3896042680499252 L-0.4054520672156574,-1.3399083975783794 L-0.3120448591991787,-1.2880256108066193 L-0.22228730796881147,-1.234038083863897 L-0.13632157875104367,-1.1780313265361877 " />
			<path d="M0.5605856474629531,-0.3733121772265031 L0.5792703946474411,-0.32224579460350045 L0.5954930562854326,-0.2708996771607841 L0.6092411333119174,-0.2193133855126508 L0.6205040332537015,-0.16752666532028776 L0.6292730783905847,-0.11557941666895002 L0.6355415124412813,-0.06351166332615951 L0.6393045057689233,-0.01136352190462507 L0.6405591591021542,0.04082482904636977 " />
			<path d="M3.0405591591021572,2.3270152556440244 L0.6405591591021569,0.9413746095889213 " />
			<path d="M3.1819805153394647,4.939804314612745 L3.3234018715767726,4.858154656519973 " />
			<path d="M4.030508652763322,5.103103630798291 L4.030508652763322,5.7563008955404715 " />
			<path d="M-3.464823227814083,-5.348052605076604 L9.545941546018394,2.1637159394584806 " />
			<path d="M-9.54594154601839,-1.8371173070873827 L-3.4648232278140814,-5.348052605076606 " />
			<path d="M-9.545941546018392,-1.837117307087383 L-8.874190103891173,-1.4492814311467135 " />
			<path d="M-8.874190103891173,-1.449281431146714 L-8.09637264458597,-1.898354550656964 " />
			<path d="M-7.954951288348662,-1.81670489256419 L-8.096372644585971,-1.8983545506569626 " />
			<path d="M-8.237794000823282,-1.6534055763786457 L-7.954951288348662,-1.816704892564191 " />
			<path d="M3.1819805153394682,4.939804314612751 L-6.505382386916239,-0.6531972647421789 " />
			<path d="M-6.576093065034892,-0.6940220937885644 L-8.237794000823282,-1.6534055763786446 " />
			<path d="M6.0811183182043065,4.164132562731407 L6.151828996322965,4.123307733685018 " />
			<path d="M7.000357133746823,3.633409785128382 L9.54594154601839,2.163715939458476 " />
			<path d="M3.0405591591021572,3.960008417499478 L0.37315569888686717,2.41998231170684 " />
			<path d="M-3.908689604819627,-0.052142227016422904 L-3.721472318044275,-0.0949558685755374 L-3.530030106018824,-0.13100775541004772 L-3.335094823341148,-0.16016006661377657 L-3.1374116780894727,-0.18230135731379238 L-2.9377363830047,-0.19734698470728707 L-2.736832266514993,-0.20523943163819935 L-2.5354673546467335,-0.20594852647659567 L-2.3344114349772833,-0.19947155846024556 L-2.134433113853609,-0.18583328805745314 L-1.9362968781265493,-0.16508585231153705 L-1.740760172633307,-0.13730856552880355 L-1.5485705046004918,-0.10260761607196156 L-1.3604625860371498,-0.061115660418084694 L-1.1771555250419627,-0.012991316032980427 L-0.9993500767618315,0.041581444999372996 L-0.8277259645110295,0.10239399927425641 L-0.744437930761146,0.1350684578521486 L-0.6629392812918673,0.16921386960190232 L-0.5833079239721282,0.20479759353767713 L-0.5056199816504523,0.24178561373260377 L-0.42994971938604776,0.2801425718359831 L-0.35636947345581005,0.3198318008737715 L-0.28494958220513356,0.3608153603000366 L-0.2157583188086427,0.403054072265856 L-0.14886182600508224,0.4465075590710219 L-0.08432405286878986,0.49113428176272067 L-0.022206693678179068,0.5368915798443057 L0.037430871060330606,0.5837357120562028 L0.0945316313765443,0.6316218981899486 L0.14904100233464135,0.6805043618954155 L0.20090687621313785,0.7303363744402875 L0.250079672316764,0.7810702993799445 L0.29651238437266914,0.83265763809508 L0.3401606254656282,0.8850490761535001 L0.3809826704692938,0.9381945304517908 L0.418939495932944,0.9920431970917951 L0.4539948173855768,1.0465435999461152 L0.48611512402171275,1.1016436398662368 L0.5152697107357396,1.1572906444862259 L0.5414307074741602,1.2134314185743738 L0.564573105877717,1.2700122948846841 L0.5846747831878933,1.3269791854595743 L0.6017165233949591,1.384277633334746 L0.6156820356073358,1.441852864596817 L0.626557969624717,1.4996498407439205 L0.6343339287000718,1.5576133112992474 L0.6390024794783153,1.6156878666272276 L0.6405591591021542,1.6738179909018236 " />
			<path d="M0.6405591591021542,1.6738179909018407 L0.6395000565847013,1.7217678375164267 L0.636323437855395,1.7696864983306235 L0.6310313689353917,1.8175428078267788 L0.6236272917002497,1.865305641039524 L0.6141160216413817,1.9129439337989442 L0.6025037447341459,1.9604267029342113 L0.5887980134145816,2.007723066424531 L0.5730077416674315,2.0548022634843104 L0.5551431992286293,2.10163367456947 L0.5352160049060317,2.1481868412918996 L0.48922683498788233,2.240337532616106 L0.43515985489222686,2.331014643192929 L0.37315569888685696,2.41998231170685 " />
			<path d="M-3.908689604819603,-0.0521422270164269 L-5.727564927611036,-1.1022703842524284 " />
			<path d="M-6.576093065034891,-2.571964229922337 L-5.868986283848344,-2.9802125203861998 " />
			<path d="M-5.020458146424488,-2.4903145718295634 L-5.161879502661797,-2.5719642299223358 " />
			<path d="M-5.161879502661797,-2.5719642299223358 L-5.868986283848344,-2.980212520386199 " />
			<path d="M-5.020458146424487,-3.4701104689428357 L-4.3133513652379385,-3.8783587594066993 " />
			<path d="M-2.6162950903902242,-3.8783587594066984 L-2.8991378028648427,-3.8783587594066984 " />
			<path d="M-2.8991378028648427,-3.8783587594066984 L-4.3133513652379385,-3.8783587594066984 " />
			<path d="M0.05110836982506406,-2.338332653614061 L-2.6162950903902256,-3.8783587594066984 " />
			<path d="M4.332953673531533,0.13379188510920437 L4.145736386756179,0.1766055266683182 L3.95429417473073,0.2126574135028274 L3.7593588920530556,0.24180972470655515 L3.5616757468013827,0.2639510154065703 L3.3620004517166118,0.2789966428000641 L3.1610963352269037,0.2868890897309757 L2.9597314233586425,0.28759818456937136 L2.758675503689195,0.2811212165530206 L2.5586971825655223,0.2674829461502277 L2.3605609468384623,0.24673551040431074 L2.165024241345219,0.2189582236215768 L1.9728345733124062,0.18425727416473459 L1.7847266547490666,0.14276531851085772 L1.6014195937538793,0.09464097412575301 L1.4236141454737472,0.040068213093398475 L1.2519900332229483,-0.02074434118148427 L1.168701999473066,-0.053418799759376245 L1.0872033500037888,-0.08756421150912952 L1.0075719926840474,-0.12314793544490565 L0.9298840503623729,-0.16013595563983185 L0.8542137880979692,-0.19849291374321076 L0.7806335421677297,-0.23818214278100047 L0.709213650917055,-0.2791657022072649 L0.6400223875205655,-0.32140441417308385 L0.5731258947170059,-0.3648579009782493 L0.5085881215807144,-0.40948462366994764 L0.4464707623901023,-0.455241921751534 L0.3868331976515935,-0.5020860539634304 L0.32973243733538116,-0.5499722400971756 L0.2752230663772828,-0.598854703802644 L0.22335719249878672,-0.6486867163475154 L0.17418439639516148,-0.6994206412871717 L0.1277516843392572,-0.7510079800023064 L0.08410344324629904,-0.803399418060726 L0.04328139824263211,-0.8565448723590181 L0.005324572778982795,-0.9103935389990219 L-0.02973074867364911,-0.9648939418533411 L-0.06185105530978641,-1.0199939817734642 L-0.0910056420238119,-1.0756409863934526 L-0.11716663876223254,-1.1317817604815996 L-0.1403090371657889,-1.1883626367919102 L-0.16041071447596522,-1.2453295273667995 L-0.1774524546830314,-1.3026279752419718 L-0.1914179668954077,-1.360203206504043 L-0.20229390091278843,-1.4180001826511455 L-0.2100698599881432,-1.4759636532064735 L-0.21473841076638678,-1.5340382085344537 L-0.21629509039022565,-1.592168332809057 " />
			<path d="M-0.21629509039022565,-1.5921683328090654 L-0.21523598787277276,-1.6401181794236512 L-0.21205936914346646,-1.6880368402378467 L-0.20676730022346357,-1.7358931497340009 L-0.1993632229883211,-1.7836559829467449 L-0.189851952929454,-1.831294275706164 L-0.17823967602221868,-1.8787770448414298 L-0.1645339447026548,-1.9260734083317486 L-0.1487436729555056,-1.973152605391527 L-0.13087913051670474,-2.019984016476686 L-0.11095193619410759,-2.066537183199114 L-0.06496276627595954,-2.158687874523319 L-0.010895786180305844,-2.249364985100141 L0.051108369825056066,-2.338332653614054 " />
			<path d="M7.0003571337468244,1.6738179909018438 L4.332953673531534,0.13379188510920592 " />
			<path d="M7.000357133746824,1.6738179909018411 L7.000357133746824,1.8371173070873856 " />
			<path d="M5.586143571373729,2.6536138880151143 L5.161879502661797,2.408664913736795 " />
			<path d="M4.313351365237939,2.898562862293429 L5.161879502661797,2.4086649137367933 " />
			<path d="M5.444722215136418,3.551760127035613 L4.7376154339498715,3.14351183657175 " />
			<path d="M4.7376154339498715,3.14351183657175 L4.31335136523794,2.8985628622934305 " />
			<path d="M3.040559159102158,3.9600084174994734 L3.323401871576775,3.9600084174994734 " />
			<path d="M-8.237794000823282,-1.8167048925641893 L-8.237794000823282,-1.653405576378646 " />
			<path d="M-3.4648232278140823,-5.348052605076606 L-3.4648232278140823,-6.981045766932059 " />
			<path d="M9.54594154601839,2.163715939458476 L9.54594154601839,0.5307227776030227 " />
			<path d="M-9.545941546018392,-1.8371173070873823 L-9.545941546018392,-3.470110468942836 " />
			<path d="M3.0405591591021546,2.32701525564402 L3.0405591591021546,3.9600084174994734 " />
			<path d="M-3.9086896048196036,-1.6851353888718823 L-3.9086896048196036,-0.05214222701642868 " />
			<path d="M7.000357133746821,1.673817990901842 L7.000357133746821,1.8371173070873852 " />
			<path d="M5.161879502661797,0.7756717518813396 L5.161879502661797,2.4086649137367933 " />
			<path d="M5.586143571373725,2.653613888015112 L5.586143571373725,1.0206207261596583 " />
			<path d="M4.31335136523794,1.2655697004379756 L4.31335136523794,2.898562862293429 " />
			<path d="M3.323401871576773,2.32701525564402 L3.323401871576773,3.9600084174994734 " />
			<path d="M-6.576093065034892,-2.5719642299223366 L-6.576093065034892,-1.4288690166235214 " />
			<path d="M-6.576093065034892,-0.6123724356957951 L-6.576093065034892,-1.4288690166235216 " />
			<path d="M-5.868986283848345,-2.980212520386199 L-5.868986283848345,-1.8924696808218298 " />
			<path d="M-6.576093065034891,-1.4288690166235214 L-6.0811183182043065,-1.7146428199482262 " />
			<path d="M-5.161879502661797,-2.267355663018284 L-5.161879502661797,-2.5719642299223366 " />
			<path d="M-5.020458146424488,-3.4701104689428357 L-5.020458146424488,-2.3270152556440205 " />
			<path d="M-5.020458146424488,-2.3270152556440205 L-4.31335136523794,-1.918766965180157 " />
			<path d="M-4.31335136523794,-3.878358759406699 L-4.31335136523794,-2.7352635461078836 " />
			<path d="M-5.020458146424486,-2.32701525564402 L-4.313351365237939,-2.735263546107883 " />
			<path d="M-2.899137802864845,-2.735263546107883 L-4.313351365237941,-2.735263546107883 " />
			<path d="M-2.8991378028648445,-2.735263546107884 L-2.899137802864844,-3.8783587594066997 " />
			<path d="M7.000357133746822,2.9802125203862007 L7.000357133746822,3.7967091013139274 " />
			<path d="M7.000357133746821,1.8371173070873852 L7.000357133746821,2.9802125203862007 " />
			<path d="M6.293250352560273,4.204957391777789 L7.000357133746821,3.7967091013139265 " />
			<path d="M5.586143571373725,3.796709101313927 L6.293250352560273,4.20495739177779 " />
			<path d="M5.586143571373725,3.796709101313927 L5.586143571373725,2.653613888015112 " />
			<path d="M4.737615433949868,4.286607049870563 L4.838209877443931,4.344685278900841 " />
			<path d="M5.444722215136416,3.551760127035611 L5.444722215136416,3.9863057018578014 " />
			<path d="M4.737615433949868,4.286607049870563 L4.737615433949868,3.1435118365717476 " />
			<path d="M4.737615433949869,5.103103630798288 L5.232590180780453,4.817329827473584 " />
			<path d="M3.323401871576773,5.10310363079829 L4.737615433949871,5.10310363079829 " />
			<path d="M3.323401871576773,3.9600084174994734 L3.3234018715767726,5.103103630798289 " />
			<path d="M-6.576093065034892,-0.6123724356957954 L-5.3740115370177595,-1.3063945294843635 " />
			<path d="M-4.31335136523794,-1.9187669651801573 L-2.8991378028648436,-2.735263546107884 " />
			<path d="M5.586143571373725,3.7967091013139265 L7.000357133746823,2.9802125203861993 " />
			<path d="M3.323401871576772,5.103103630798289 L4.737615433949868,4.286607049870562 " />
			<path d="M4.666904755831219,4.490731195102497 L5.515432893255076,4.980629143659132 " />
			<path d="M5.515432893255074,4.9806291436591295 L6.505382386916235,4.409081537009724 " />
			<path d="M5.65685424949238,3.919183588453092 L6.505382386916237,4.409081537009727 " />
			<path d="M4.666904755831217,4.4907311951024935 L5.656854249492378,3.9191835884530883 " />
			<path d="M5.656854249492379,3.919183588453089 L5.596353642298636,3.935075520786983 L5.535306340023645,3.953772780700482 L5.47378915796395,3.975251841591896 L5.4118795026617965,3.9994856765432383 L5.349655274505142,4.026443792327965 L5.287194769706269,4.056092267780338 L5.224576581782329,4.0883937964781385 L5.161879502661798,4.123307733685019 L5.099182423541267,4.160790147493422 L5.036564235617327,4.200793874103729 L4.974103730818453,4.2432685771700545 L4.911879502661799,4.28816081113805 L4.849969847359645,4.335414088494978 L4.788452665299951,4.384968950847469 L4.666904755831221,4.490731195102491 " />
			<path d="M-6.0811183182043065,-1.7146428199482275 L-5.091168824543146,-2.2861904265976323 " />
			<path d="M-5.0911688245431455,-2.286190426597632 L-5.151669431736888,-2.2702984942637374 L-5.212716734011879,-2.2516012343502387 L-5.274233916071574,-2.230122173458825 L-5.336143571373728,-2.2058883385074823 L-5.398367799530382,-2.178930222722756 L-5.460828304329255,-2.1492817472703827 L-5.523446492253195,-2.1169802185725817 L-5.586143571373726,-2.0820662813657016 L-5.648840650494257,-2.044583867557298 L-5.7114588384181975,-2.004580140946992 L-5.773919343217071,-1.9621054378806666 L-5.836143571373725,-1.9172132039126708 L-5.898053226675879,-1.8699599265557427 L-5.959570408735574,-1.820405064203252 L-6.081118318204303,-1.7146428199482302 " />
			<path d="M-5.2325901807804485,-1.2247448713915912 L-4.242640687119287,-1.796292478040996 " />
			<path d="M-5.091168824543146,-2.2861904265976314 L-4.242640687119288,-1.796292478040995 " />
			<path d="M-6.081118318204307,-1.7146428199482262 L-5.232590180780449,-1.2247448713915898 " />
			<path d="M0.6405591591021547,0.04082482904638729 L0.6405591591021544,1.673817990901841 " />
			<path d="M-0.2162950903902253,-2.4927181133515957 L-0.21629509039022538,-1.5921683328090648 " />

       </g>
    </g>
    
</svg>
