<?xml version="1.0" encoding="UTF-8" standalone="no"?>
<svg
   xmlns:svg="http://www.w3.org/2000/svg"
   xmlns="http://www.w3.org/2000/svg"
   width="480.0"
   height="480.0"

>
    <g transform="scale(18.85618083164126, -18.85618083164126)   translate(12.091525958289964,-11.777647515600243)" stroke-width="0.053033008588991085"  fill="none">
       <!-- hidden lines -->
       <g  stroke="rgb(100,40,40)" fill="none" stroke-dasharray="0.053033008588991085,0.053033008588991085" >
			<path d="M4.030508652763322,2.8985628622934296 L4.030508652763322,5.8379505536332434 " />
			<path d="M3.959797974644667,2.8577380332470423 L4.030508652763321,2.898562862293428 " />
			<path d="M3.959797974644667,2.857738033247043 L3.959797974644667,4.490731195102496 " />
			<path d="M4.030508652763322,2.8985628622934296 L4.101219330881976,2.8577380332470432 " />
			<path d="M4.101219330881976,4.490731195102497 L4.101219330881976,2.8577380332470432 " />
			<path d="M3.1819805153394647,3.3068111527572923 L3.9597979746446677,2.857738033247043 " />
			<path d="M3.1819805153394682,3.3068111527572963 L-8.237794000823282,-3.2863987382340984 " />
			<path d="M-8.237794000823282,-3.2863987382341 L-7.954951288348662,-3.449698054419645 " />
			<path d="M-7.954951288348662,-3.4496980544196445 L-8.096372644585971,-3.531347712512417 " />
			<path d="M-8.874190103891173,-3.0822745930021673 L-8.09637264458597,-3.5313477125124173 " />
			<path d="M-9.545941546018392,-3.4701104689428357 L-8.874190103891173,-3.0822745930021664 " />
			<path d="M4.525483399593904,3.4292856398964506 L9.54594154601839,0.5307227776030228 " />
			<path d="M3.8890872965260144,3.0618621784789766 L4.525483399593906,3.429285639896453 " />
			<path d="M3.889087296526012,3.0618621784789735 L4.171930009000631,2.898562862293428 " />
			<path d="M4.171930009000633,2.898562862293431 L4.101219330881978,2.857738033247044 " />
			<path d="M-1.2020815280171302,-0.12247448713915876 L-0.9131388475069757,-0.28929562151206856 " />
			<path d="M0.013122461482870662,-0.8240728375972917 L0.21823200239150164,-0.9424928862542505 " />
			<path d="M0.21823200239149898,-0.9424928862542503 L0.2708750364618986,-0.8900410198632007 L0.3206072442147443,-0.8366506605215913 L0.3673784859586444,-0.7823756360456736 L0.4111416072290459,-0.7272706661654026 " />
			<path d="M0.690559159102154,0.04082482904638757 L0.6894520190674975,0.09022481453126258 L0.6861313403079987,0.1395917216295409 L0.6805993463606623,0.18889249410401823 L0.6728597414661399,0.23809412000144367 L0.6629177080883601,0.2871636537574279 L0.6507799034443322,0.3360682382568977 L0.6364544550464526,0.38477512683532367 L0.6199509552602986,0.433251705205991 L0.6012804548815489,0.4814655132986285 L0.5804554557363368,0.5293842669947749 L0.5574899023099857,0.5769758797453263 L0.5323991724097397,0.624208484055791 L0.5052000668677343,0.6710504528248653 L0.47591079829110594,0.7174704205220394 L0.41114160722905746,0.8089203242581607 " />
			<path d="M0.690559159102154,0.9702421230484015 L0.41114160722906057,0.808920324258164 " />
			<path d="M4.277996026178612,1.7758800635178045 L4.737615433949868,1.510518674716293 " />
			<path d="M4.73761543394987,1.510518674716295 L4.277996026178615,1.2451572859147846 " />
			<path d="M5.727564927611033,0.9389710680668857 L6.151828996322964,0.6940220937885668 " />
			<path d="M6.1518289963229655,-0.449073119510249 L6.1518289963229655,0.6940220937885679 " />
			<path d="M6.151828996322967,-0.44907311951024553 L4.370939581873728,-1.47727010233947 " />
			<path d="M4.37093958187373,-1.477270102339474 L4.187960021639722,-1.4345604514359356 L4.000893170119275,-1.3982293106768742 L3.8104054001008048,-1.3684060994830862 L3.6171752704280347,-1.3451970546156078 L3.4218911088258914,-1.3286848517372791 L3.225248559927524,-1.3189283109040613 L3.0279481072369094,-1.3159621870352116 L2.8306925778543435,-1.3197970461087067 L2.6341846388535304,-1.3304192275229314 L2.4391242942287317,-1.3477908927587121 L2.2462063913283714,-1.371850160168346 L2.056118145657745,-1.4025113254114825 L1.8695366928680008,-1.4396651667526126 L1.6871266766517639,-1.4831793341326345 L1.5095378811378273,-1.5328988206285306 L1.3374029162188523,-1.5886465146217192 " />
			<path d="M1.3374029162188803,-1.5886465146216875 L2.757716446627536,-2.408664913736793 " />
			<path d="M2.757716446627539,-2.4086649137367893 L1.6263455967290597,-3.0618621784789726 " />
			<path d="M0.20603206632040383,-2.241843779363869 L1.6263455967290597,-3.0618621784789744 " />
			<path d="M0.20603206632046778,-2.2418437793638444 L0.15007000895885714,-2.2977353969277607 L0.09741292782658029,-2.3546874305833043 L0.04812103086506614,-2.412634761553802 L0.002250678274713813,-2.4715111330427515 L-0.04014568192717949,-2.531249225991637 L-0.07901957387531988,-2.5917807360523266 L-0.11432654928356634,-2.653036451686051 L-0.14602623826696481,-2.7149463332996606 L-0.17408239550054594,-2.7774395933286757 L-0.19846294166211598,-2.840444777175566 L-0.21914000011165458,-2.9038898449107124 L-0.23608992876537682,-2.9677022536426394 L-0.24929334712801632,-3.0318090404633256 L-0.258735158452426,-3.096136905873768 L-0.26440456700114723,-3.160612297594396 L-0.2662950903902255,-3.2251614946645106 " />
			<path d="M-0.2662950903902255,-3.225161494664519 L-0.26518795035556897,-3.2745614801493943 L-0.26186727159607015,-3.323928387247673 L-0.2563352776487333,-3.3732291597221513 L-0.2485956727542109,-3.4224307856195773 L-0.23865363937643114,-3.4715003193755622 L-0.22651583473240278,-3.520404903875032 L-0.21219038633452314,-3.569111792453458 L-0.19568688654836874,-3.6175883708241257 L-0.177016386169619,-3.665802178916764 L-0.1561913870244065,-3.71372093261291 L-0.1332258335980554,-3.7613125453634613 L-0.10813510369780888,-3.8085451496739267 L-0.08093599815580266,-3.8553871184430015 L-0.05164672957917471,-3.9018070861401757 L0.013122461482869774,-3.9932569898762904 " />
			<path d="M0.01312246148287155,-3.9932569898762913 L-1.767766952966367,-5.021453972705515 " />
			<path d="M-1.767766952966367,-5.021453972705516 L-3.7476659402887,-5.021453972705517 " />
			<path d="M-4.31335136523794,-4.694855340334426 L-3.7476659402887016,-5.021453972705516 " />
			<path d="M-3.853731957466685,-4.429493951532914 L-4.31335136523794,-4.694855340334425 " />
			<path d="M-4.7022600948905415,-3.9395960029762795 L-3.8537319574666835,-4.4294939515329155 " />
			<path d="M-4.702260094890541,-3.939596002976279 L-5.161879502661797,-4.20495739177779 " />
			<path d="M-5.727564927611034,-3.8783587594066997 L-5.161879502661797,-4.20495739177779 " />
			<path d="M-5.727564927611035,-2.7352635461078827 L-5.727564927611035,-3.8783587594066997 " />
			<path d="M-4.313351365237942,-1.9187669651801564 L-4.879036790187178,-2.245365597551246 " />
			<path d="M-5.1618795026617965,-2.4086649137367906 L-5.727564927611034,-2.735263546107881 " />
			<path d="M-2.3334523779156067,-0.7756717518813399 L-0.9131388475069748,-1.5956901509964316 " />
			<path d="M-1.2020815280171284,-0.12247448713915521 L-2.3334523779156076,-0.7756717518813385 " />
			<path d="M3.181980515339465,3.3068111527572928 L3.181980515339465,4.939804314612747 " />
			<path d="M4.171930009000631,2.8985628622934296 L4.171930009000631,4.531556024148884 " />
			<path d="M3.9597979746446668,4.654030511288042 L4.101219330881976,4.572380853195269 " />
			<path d="M3.959797974644667,4.7356801693808155 L4.101219330881978,4.817329827473589 " />
			<path d="M5.091168824543145,4.735680169380812 L6.0811183182043065,4.164132562731407 " />
			<path d="M-5.727564927611035,-1.1022703842524288 L-5.727564927611035,-2.245365597551246 " />
			<path d="M-5.727564927611035,-2.245365597551246 L-5.727564927611035,-2.898562862293427 " />
			<path d="M-4.702260094890541,-2.306602841120825 L-4.879036790187179,-2.408664913736791 " />
			<path d="M-4.7022600948905415,-2.3066028411208257 L-3.8537319574666835,-2.7965007896774616 " />
			<path d="M-3.853731957466685,-2.79650078967746 L-4.31335136523794,-3.061862178478971 " />
			<path d="M-4.31335136523794,-3.061862178478971 L-4.879036790187179,-3.388460810850062 " />
			<path d="M6.1518289963229655,2.327015255644022 L6.1518289963229655,2.980212520386204 " />
			<path d="M6.151828996322967,2.9802125203862064 L5.586143571373727,2.6536138880151134 " />
			<path d="M4.171930009000634,3.4701104689428393 L5.303300858899113,3.4701104689428393 " />
			<path d="M-8.237794000823282,-3.2863987382341 L-8.237794000823282,-1.8167048925641893 " />
			<path d="M3.8890872965260117,3.0618621784789752 L3.8890872965260117,4.531556024148884 " />
			<path d="M-8.874190103891173,-1.4492814311467148 L-8.874190103891173,-3.082274593002168 " />
			<path d="M-8.096372644585973,-3.5313477125124173 L-8.096372644585973,-1.898354550656964 " />
			<path d="M-7.9549512883486635,-3.4496980544196445 L-7.9549512883486635,-1.816704892564191 " />
			<path d="M4.525483399593903,5.062278801751905 L4.525483399593903,3.429285639896451 " />
			<path d="M-2.3334523779156067,-0.7756717518813396 L-2.3334523779156067,0.857321409974114 " />
			<path d="M-5.727564927611035,-2.735263546107883 L-5.727564927611035,-1.1022703842524293 " />
			<path d="M-5.727564927611034,-2.2453655975512463 L-5.727564927611034,-3.8783587594066997 " />
			<path d="M-4.702260094890542,-3.9395960029762787 L-4.702260094890542,-2.3066028411208253 " />
			<path d="M-5.161879502661797,-2.5719642299223366 L-5.161879502661797,-4.20495739177779 " />
			<path d="M-3.853731957466685,-4.429493951532915 L-3.853731957466685,-2.796500789677461 " />
			<path d="M-4.31335136523794,-3.0618621784789717 L-4.31335136523794,-4.694855340334425 " />
			<path d="M-3.7476659402887016,-3.388460810850063 L-3.7476659402887016,-5.021453972705516 " />
			<path d="M-1.7677669529663689,-5.021453972705515 L-1.767766952966369,-3.388460810850062 " />
			<path d="M0.013122461482870646,-3.9932569898762917 L0.013122461482870489,-2.3602638280208383 " />
			<path d="M0.20603206632042823,-2.2418437793638812 L0.2060320663204281,-0.6088506175084278 " />
			<path d="M1.6263455967290597,-3.0618621784789726 L1.6263455967290594,-1.4288690166235192 " />
			<path d="M2.757716446627536,-2.408664913736792 L2.757716446627536,-0.7756717518813381 " />
			<path d="M1.3374029162189043,-1.5886465146217006 L1.3374029162189043,-1.2620478822506103 " />
			<path d="M4.370939581873724,-1.477270102339472 L4.370939581873724,0.15572305951598153 " />
			<path d="M6.151828996322964,-0.4490731195102484 L6.151828996322964,1.1839200423452052 " />
			<path d="M6.151828996322964,0.6940220937885678 L6.151828996322964,1.183920042345206 " />
			<path d="M4.737615433949868,3.1435118365717476 L4.737615433949868,1.5105186747162938 " />
			<path d="M0.4111416072290579,0.8089203242581606 L0.41114160722905774,2.4419134861136143 " />
			<path d="M0.21823200239150006,-0.9424928862542494 L0.21823200239150004,-0.6158942538831587 " />
			<path d="M-1.2020815280171304,-0.1224744871391586 L-1.2020815280171304,0.20412414523193168 " />
			<path d="M-5.727564927611035,-1.510518674716296 L-5.727564927611035,-1.7554676489946117 " />
			<path d="M-5.727564927611034,-1.1022703842524306 L-5.727564927611034,-2.2453655975512463 " />
			<path d="M-5.727564927611035,-1.7554676489946117 L-5.727564927611035,-1.993874165891195 " />
			<path d="M-5.727564927611036,-1.7554676489946117 L-5.161879502661797,-1.4288690166235212 " />
			<path d="M-5.161879502661797,-1.4288690166235214 L-5.161879502661797,-2.267355663018284 " />
			<path d="M-4.31335136523794,-1.9187669651801564 L-4.31335136523794,-3.0618621784789717 " />
			<path d="M6.151828996322964,2.980212520386203 L6.151828996322964,4.123307733685018 " />
			<path d="M4.83820987744393,4.344685278900841 L5.303300858899108,4.613205682241656 " />
			<path d="M5.3033008588991075,4.613205682241654 L5.3033008588991075,4.048200532973981 " />
			<path d="M4.879036790187179,4.613205682241653 L5.30330085889911,4.613205682241653 " />
			<path d="M-5.3740115370177595,-1.3063945294843635 L-5.161879502661797,-1.4288690166235216 " />
			<path d="M6.505382386916236,4.409081537009726 L6.444881779722493,4.42497346934362 L6.383834477447502,4.443670729257119 L6.3223172953878075,4.465149790148533 L6.260407640085654,4.489383625099875 L6.198183411929,4.516341740884601 L6.135722907130126,4.545990216336975 L6.073104719206186,4.578291745034775 L6.010407640085655,4.613205682241656 L5.947710560965124,4.650688096050059 L5.885092373041184,4.690691822660366 L5.82263186824231,4.733166525726691 L5.760407640085656,4.778058759694686 L5.6984979847835024,4.8253120370516145 L5.636980802723808,4.874866899404106 L5.5154328932550785,4.980629143659128 " />
			<path d="M-4.242640687119288,-1.796292478040996 L-4.303141294313031,-1.7804005457071015 L-4.364188596588022,-1.7617032857936028 L-4.425705778647717,-1.7402242249021889 L-4.487615433949871,-1.7159903899508464 L-4.549839662106525,-1.6890322741661201 L-4.612300166905398,-1.6593837987137467 L-4.674918354829338,-1.6270822700159457 L-4.737615433949869,-1.5921683328090657 L-4.8003125130704,-1.5546859190006619 L-4.86293070099434,-1.5146821923903562 L-4.925391205793214,-1.4722074893240307 L-4.987615433949868,-1.4273152553560349 L-5.049525089252022,-1.3800619779991068 L-5.1110422713117165,-1.3305071156466162 L-5.232590180780446,-1.2247448713915943 " />
			<path d="M-0.26629509039022503,-3.2251614946645186 L-0.26629509039022514,-2.521585626811077 " />

       </g>

       <!-- solid lines -->
       <g  stroke="rgb(200,20,20)" fill="none">
			<path d="M3.959797974644667,5.7971257245868575 L4.030508652763321,5.8379505536332434 " />
			<path d="M3.959797974644667,4.490731195102496 L3.9597979746446668,5.7971257245868575 " />
			<path d="M4.030508652763321,5.8379505536332434 L4.1012193308819755,5.7971257245868575 " />
			<path d="M4.030508652763323,5.756300895540471 L4.101219330881976,5.797125724586856 " />
			<path d="M4.030508652763322,5.756300895540471 L3.959797974644667,5.797125724586857 " />
			<path d="M4.101219330881976,5.7971257245868575 L4.101219330881976,4.490731195102497 " />
			<path d="M-9.545941546018392,-3.4701104689428366 L-3.464823227814083,-6.981045766932059 " />
			<path d="M-3.464823227814083,-6.981045766932058 L9.545941546018394,0.5307227776030263 " />
			<path d="M-0.9131388475069757,-0.28929562151206856 L0.013122461482870662,-0.8240728375972917 " />
			<path d="M0.41114160722905746,-0.7272706661653869 L0.4759107982911064,-0.635820762429265 L0.5052000668677348,-0.5894007947320902 L0.5323991724097406,-0.5425588259630153 L0.5574899023099862,-0.49532622165255136 L0.5804554557363377,-0.44773460890199945 L0.6012804548815502,-0.3998158552058524 L0.6199509552602991,-0.35160204711321574 L0.6364544550464526,-0.3031254687425494 L0.6507799034443322,-0.2544185801641228 L0.6629177080883606,-0.20551399566465234 L0.6728597414661404,-0.15644446190866906 L0.6805993463606623,-0.10724283601124465 L0.6861313403079987,-0.05794206353676659 L0.6894520190674975,-0.008575156438487538 L0.690559159102154,0.04082482904636951 " />
			<path d="M2.1920310216783,1.8371173070873885 L0.690559159102154,0.9702421230484015 " />
			<path d="M2.192031021678299,1.8371173070873852 L4.171930009000634,1.8371173070873852 " />
			<path d="M4.171930009000631,1.8371173070873834 L4.277996026178612,1.7758800635178045 " />
			<path d="M4.277996026178613,1.2451572859147828 L5.126524163602471,0.7552593373581469 " />
			<path d="M5.586143571373727,1.0206207261596596 L5.126524163602471,0.7552593373581491 " />
			<path d="M5.586143571373725,1.0206207261596574 L5.727564927611033,0.9389710680668857 " />
			<path d="M-3.9466755131617957,-1.7070665632786572 L-4.313351365237942,-1.9187669651801564 " />
			<path d="M-4.879036790187178,-2.245365597551246 L-5.1618795026617965,-2.4086649137367906 " />
			<path d="M-3.9466755131617948,-1.7070665632786592 L-3.7636959529277942,-1.7497762141821962 L-3.576629101407351,-1.786107354941257 L-3.386141331388886,-1.8159305661350442 L-3.1929112017161208,-1.8391396110025224 L-2.997627040113982,-1.8556518138808515 L-2.8009844912156203,-1.8654083547140696 L-2.603684038525011,-1.8683744785829202 L-2.4064285091424487,-1.8645396195094264 L-2.2099205701416405,-1.853917438095203 L-2.0148602255168457,-1.8365457728594243 L-1.8219423226164904,-1.8124865054497927 L-1.6318540769458674,-1.7818253402066586 L-1.4452726241561262,-1.7446714988655307 L-1.2628626079398926,-1.7011573314855122 L-1.085273812425959,-1.6514378449896194 L-0.9131388475070008,-1.5956901509964394 " />
			<path d="M3.1819805153394647,4.939804314612745 L3.9597979746446677,4.490731195102496 " />
			<path d="M4.030508652763322,4.449906366056111 L4.030508652763322,5.7563008955404715 " />
			<path d="M3.9597979746446677,4.490731195102496 L4.030508652763322,4.44990636605611 " />
			<path d="M4.101219330881978,4.490731195102498 L4.030508652763324,4.449906366056112 " />
			<path d="M4.171930009000633,4.531556024148885 L4.101219330881978,4.490731195102498 " />
			<path d="M-3.464823227814083,-5.348052605076604 L9.545941546018394,2.1637159394584806 " />
			<path d="M-9.54594154601839,-1.8371173070873827 L-3.4648232278140814,-5.348052605076606 " />
			<path d="M-9.545941546018392,-1.837117307087383 L-8.874190103891173,-1.4492814311467135 " />
			<path d="M-8.874190103891173,-1.449281431146714 L-8.09637264458597,-1.898354550656964 " />
			<path d="M-7.954951288348662,-1.81670489256419 L-8.096372644585971,-1.8983545506569626 " />
			<path d="M-8.237794000823282,-1.6534055763786457 L-7.954951288348662,-1.816704892564191 " />
			<path d="M3.1819805153394682,4.939804314612751 L-8.237794000823282,-1.6534055763786446 " />
			<path d="M3.889087296526012,4.694855340334428 L3.9597979746446668,4.654030511288042 " />
			<path d="M4.101219330881976,4.572380853195269 L4.171930009000631,4.531556024148882 " />
			<path d="M3.8890872965260144,4.6948553403344295 L3.959797974644667,4.7356801693808155 " />
			<path d="M4.101219330881978,4.817329827473589 L4.525483399593906,5.062278801751907 " />
			<path d="M4.525483399593904,5.062278801751905 L5.091168824543145,4.735680169380812 " />
			<path d="M6.0811183182043065,4.164132562731407 L9.54594154601839,2.163715939458476 " />
			<path d="M-2.3334523779156076,0.8573214099741131 L-0.9131388475069757,0.037303010859021324 " />
			<path d="M-3.9466755131617948,-0.0740734014232054 L-3.7636959529277942,-0.11678305232674235 L-3.576629101407351,-0.1531141930858031 L-3.386141331388886,-0.18293740427959038 L-3.1929112017161208,-0.2061464491470686 L-2.997627040113982,-0.2226586520253977 L-2.8009844912156203,-0.23241519285861578 L-2.603684038525011,-0.23538131672746632 L-2.4064285091424487,-0.23154645765397253 L-2.2099205701416405,-0.2209242762397492 L-2.0148602255168457,-0.20355261100397049 L-1.8219423226164904,-0.17949334359433888 L-1.6318540769458674,-0.14883217835120477 L-1.4452726241561262,-0.1116783370100769 L-1.2628626079398926,-0.06816416963005834 L-1.085273812425959,-0.018444683134165585 L-0.9131388475070008,0.03730301085901444 " />
			<path d="M-3.9466755131617957,-0.07407340142320384 L-5.727564927611034,-1.1022703842524275 " />
			<path d="M-4.879036790187179,-2.408664913736791 L-5.161879502661797,-2.5719642299223358 " />
			<path d="M-5.161879502661797,-2.5719642299223358 L-5.727564927611034,-2.898562862293426 " />
			<path d="M-1.767766952966367,-3.3884608108500625 L-3.7476659402887,-3.3884608108500625 " />
			<path d="M-3.7476659402887,-3.3884608108500625 L-4.879036790187177,-3.3884608108500625 " />
			<path d="M0.01312246148287155,-2.360263828020838 L-1.767766952966367,-3.3884608108500616 " />
			<path d="M0.20603206632046778,-0.6088506175083906 L0.15007000895885714,-0.6647422350723069 L0.09741292782658029,-0.7216942687278505 L0.04812103086506614,-0.7796415996983479 L0.002250678274713813,-0.8385179711872978 L-0.04014568192717949,-0.8982560641361832 L-0.07901957387531988,-0.9587875741968725 L-0.11432654928356634,-1.020043289830597 L-0.14602623826696481,-1.0819531714442068 L-0.17408239550054594,-1.144446431473222 L-0.19846294166211598,-1.207451615320112 L-0.21914000011165458,-1.2708966830552586 L-0.23608992876537682,-1.3347090917871853 L-0.24929334712801632,-1.3988158786078717 L-0.258735158452426,-1.4631437440183142 L-0.26440456700114723,-1.5276191357389424 L-0.2662950903902255,-1.592168332809057 " />
			<path d="M-0.2662950903902255,-1.5921683328090654 L-0.26518795035556897,-1.6415683182939402 L-0.26186727159607015,-1.6909352253922192 L-0.2563352776487333,-1.7402359978666972 L-0.2485956727542109,-1.7894376237641234 L-0.23865363937643114,-1.8385071575201084 L-0.22651583473240278,-1.887411742019578 L-0.21219038633452314,-1.9361186305980038 L-0.19568688654836874,-1.9845952089686718 L-0.177016386169619,-2.03280901706131 L-0.1561913870244065,-2.080727770757456 L-0.1332258335980554,-2.1283193835080074 L-0.10813510369780888,-2.175551987818473 L-0.08093599815580266,-2.2223939565875477 L-0.05164672957917471,-2.2688139242847214 L0.013122461482869774,-2.3602638280208366 " />
			<path d="M0.20603206632040383,-0.6088506175084154 L1.6263455967290597,-1.428869016623521 " />
			<path d="M2.757716446627539,-0.7756717518813359 L1.6263455967290597,-1.4288690166235192 " />
			<path d="M1.3374029162188803,0.044346647233766134 L2.757716446627536,-0.7756717518813394 " />
			<path d="M4.37093958187373,0.15572305951597976 L4.187960021639722,0.19843271041951827 L4.000893170119275,0.23476385117857967 L3.8104054001008048,0.2645870623723676 L3.6171752704280347,0.28779610723984606 L3.4218911088258914,0.3043083101181747 L3.225248559927524,0.3140648509513926 L3.0279481072369094,0.31703097482024223 L2.8306925778543435,0.3131961157467471 L2.6341846388535304,0.30257393433252244 L2.4391242942287317,0.28520226909674173 L2.2462063913283714,0.2611430016871079 L2.056118145657745,0.23048183644397136 L1.8695366928680008,0.19332799510284127 L1.6871266766517639,0.14981382772281937 L1.5095378811378273,0.10009434122692329 L1.3374029162188523,0.044346647233734604 " />
			<path d="M6.151828996322967,1.1839200423452079 L4.370939581873728,0.1557230595159833 " />
			<path d="M6.1518289963229655,1.1839200423452052 L6.1518289963229655,2.327015255644022 " />
			<path d="M5.586143571373727,2.6536138880151134 L5.126524163602471,2.388252499213603 " />
			<path d="M4.277996026178613,2.878150447770236 L5.126524163602471,2.3882524992136003 " />
			<path d="M5.30330085889911,3.470110468942842 L4.73761543394987,3.143511836571749 " />
			<path d="M4.73761543394987,3.143511836571749 L4.277996026178615,2.8781504477702384 " />
			<path d="M2.192031021678299,3.470110468942839 L4.171930009000634,3.4701104689428393 " />
			<path d="M2.1920310216783,3.470110468942842 L0.41114160722906057,2.4419134861136174 " />
			<path d="M0.21823200239149898,0.6905002756012034 L0.2741940597531056,0.7463918931651182 L0.3268511408853789,0.8033439268206609 L0.37614303784688863,0.8612912577911559 L0.42201339043723696,0.9201676292801031 L0.46440975063912715,0.9799057222289873 L0.5032836425872635,1.040437232289674 L0.5385906179955069,1.1016929479233954 L0.5702903069789036,1.1636028295370038 L0.5983464642124816,1.2260960895660158 L0.6227270103740499,1.2891012734129026 L0.6434040688235871,1.3525463411480476 L0.6603539974773076,1.4163587498799712 L0.6735574158399467,1.4804655367006543 L0.682999227164355,1.544793402111095 L0.6886686357130758,1.6092687938317198 L0.690559159102154,1.6738179909018234 " />
			<path d="M0.690559159102154,1.6738179909018414 L0.6894520190674975,1.7232179763867164 L0.6861313403079987,1.7725848834849947 L0.6805993463606623,1.821885655959472 L0.6728597414661399,1.8710872818568975 L0.6629177080883601,1.9201568156128817 L0.6507799034443322,1.9690614001123514 L0.6364544550464526,2.0177682886907773 L0.6199509552602986,2.0662448670614446 L0.6012804548815489,2.1144586751540824 L0.5804554557363368,2.1623774288502284 L0.5574899023099857,2.20996904160078 L0.5323991724097397,2.2572016459112447 L0.5052000668677343,2.304043614680319 L0.47591079829110594,2.3504635823774933 L0.41114160722905746,2.4419134861136147 " />
			<path d="M-1.2020815280171302,1.5105186747162942 L0.21823200239150164,0.6905002756012024 " />
			<path d="M-1.2020815280171284,1.5105186747162982 L-2.3334523779156076,0.8573214099741149 " />
			<path d="M-8.237794000823282,-1.8167048925641893 L-8.237794000823282,-1.653405576378646 " />
			<path d="M3.8890872965260117,4.531556024148884 L3.8890872965260117,4.694855340334429 " />
			<path d="M-3.4648232278140823,-5.348052605076606 L-3.4648232278140823,-6.981045766932059 " />
			<path d="M9.54594154601839,2.163715939458476 L9.54594154601839,0.5307227776030227 " />
			<path d="M-9.545941546018392,-1.8371173070873823 L-9.545941546018392,-3.470110468942836 " />
			<path d="M-0.913138847506976,-1.5956901509964303 L-0.9131388475069763,0.03730301085902332 " />
			<path d="M-3.9466755131617957,-1.7070665632786592 L-3.9466755131617957,-0.07407340142320562 " />
			<path d="M1.3374029162189043,-1.2620478822506103 L1.337402916218904,0.044346647233753034 " />
			<path d="M6.151828996322964,1.183920042345206 L6.151828996322964,2.327015255644022 " />
			<path d="M5.586143571373725,2.653613888015112 L5.586143571373725,1.0206207261596583 " />
			<path d="M5.126524163602469,0.7552593373581475 L5.126524163602469,2.388252499213601 " />
			<path d="M4.277996026178612,1.2451572859147835 L4.277996026178612,2.878150447770237 " />
			<path d="M4.171930009000631,1.837117307087384 L4.171930009000631,3.470110468942838 " />
			<path d="M2.1920310216782974,1.8371173070873843 L2.1920310216782974,3.470110468942838 " />
			<path d="M0.21823200239150004,-0.6158942538831587 L0.21823200239149992,0.6905002756012042 " />
			<path d="M-1.2020815280171304,0.20412414523193168 L-1.2020815280171306,1.510518674716295 " />
			<path d="M-5.727564927611035,-1.1022703842524306 L-5.727564927611035,-1.510518674716296 " />
			<path d="M-5.727564927611035,-1.993874165891195 L-5.727564927611035,-2.898562862293427 " />
			<path d="M-5.161879502661797,-2.267355663018284 L-5.161879502661797,-2.5719642299223366 " />
			<path d="M-4.879036790187179,-2.2453655975512476 L-4.31335136523794,-1.918766965180157 " />
			<path d="M-4.879036790187179,-3.388460810850063 L-4.879036790187179,-2.2453655975512476 " />
			<path d="M-3.7476659402887025,-2.245365597551247 L-4.879036790187178,-2.245365597551247 " />
			<path d="M-3.747665940288702,-2.245365597551247 L-3.7476659402887016,-3.388460810850063 " />
			<path d="M6.151828996322964,3.4701104689428375 L6.151828996322964,4.123307733685019 " />
			<path d="M6.151828996322964,2.327015255644022 L6.151828996322964,3.470110468942837 " />
			<path d="M5.586143571373725,3.7967091013139287 L6.151828996322965,4.12330773368502 " />
			<path d="M5.586143571373725,3.796709101313927 L5.586143571373725,2.653613888015112 " />
			<path d="M4.737615433949868,4.286607049870565 L4.83820987744393,4.344685278900841 " />
			<path d="M5.3033008588991075,4.048200532973981 L5.3033008588991075,3.4701104689428384 " />
			<path d="M4.737615433949868,4.286607049870563 L4.737615433949868,3.1435118365717476 " />
			<path d="M4.171930009000632,4.613205682241653 L4.879036790187179,4.613205682241653 " />
			<path d="M4.171930009000631,3.470110468942838 L4.171930009000631,4.613205682241653 " />
			<path d="M-5.727564927611034,-1.1022703842524313 L-5.3740115370177595,-1.3063945294843635 " />
			<path d="M-4.31335136523794,-1.9187669651801573 L-3.7476659402887016,-2.245365597551248 " />
			<path d="M5.586143571373725,3.7967091013139265 L6.151828996322964,3.4701104689428357 " />
			<path d="M4.17193000900063,4.613205682241652 L4.737615433949868,4.286607049870562 " />
			<path d="M4.666904755831219,4.490731195102497 L5.515432893255076,4.980629143659132 " />
			<path d="M5.515432893255074,4.9806291436591295 L6.505382386916235,4.409081537009724 " />
			<path d="M5.65685424949238,3.919183588453092 L6.505382386916237,4.409081537009727 " />
			<path d="M4.666904755831217,4.4907311951024935 L5.656854249492378,3.9191835884530883 " />
			<path d="M5.656854249492379,3.919183588453089 L5.596353642298636,3.935075520786983 L5.535306340023645,3.953772780700482 L5.47378915796395,3.975251841591896 L5.4118795026617965,3.9994856765432383 L5.349655274505142,4.026443792327965 L5.287194769706269,4.056092267780338 L5.224576581782329,4.0883937964781385 L5.161879502661798,4.123307733685019 L5.099182423541267,4.160790147493422 L5.036564235617327,4.200793874103729 L4.974103730818453,4.2432685771700545 L4.911879502661799,4.28816081113805 L4.849969847359645,4.335414088494978 L4.788452665299951,4.384968950847469 L4.666904755831221,4.490731195102491 " />
			<path d="M-6.0811183182043065,-1.7146428199482275 L-5.091168824543146,-2.2861904265976323 " />
			<path d="M-5.0911688245431455,-2.286190426597632 L-5.151669431736888,-2.2702984942637374 L-5.212716734011879,-2.2516012343502387 L-5.274233916071574,-2.230122173458825 L-5.336143571373728,-2.2058883385074823 L-5.398367799530382,-2.178930222722756 L-5.460828304329255,-2.1492817472703827 L-5.523446492253195,-2.1169802185725817 L-5.586143571373726,-2.0820662813657016 L-5.648840650494257,-2.044583867557298 L-5.7114588384181975,-2.004580140946992 L-5.773919343217071,-1.9621054378806666 L-5.836143571373725,-1.9172132039126708 L-5.898053226675879,-1.8699599265557427 L-5.959570408735574,-1.820405064203252 L-6.081118318204303,-1.7146428199482302 " />
			<path d="M-5.2325901807804485,-1.2247448713915912 L-4.242640687119287,-1.796292478040996 " />
			<path d="M-5.091168824543146,-2.2861904265976314 L-4.242640687119288,-1.796292478040995 " />
			<path d="M-6.081118318204307,-1.7146428199482262 L-5.232590180780449,-1.2247448713915898 " />
			<path d="M-0.26629509039022514,-2.521585626811077 L-0.2662950903902252,-1.5921683328090652 " />
			<path d="M0.6905591591021546,0.04082482904638707 L0.6905591591021544,1.6738179909018407 " />

       </g>
    </g>
    
</svg>
