<?xml version="1.0" encoding="UTF-8" standalone="no"?>
<svg
   xmlns:svg="http://www.w3.org/2000/svg"
   xmlns="http://www.w3.org/2000/svg"
   width="480.0"
   height="480.0"

>
    <g transform="scale(18.85618083164126, -18.85618083164126)   translate(12.091525958289964,-11.532698541321928)" stroke-width="0.053033008588991085"  fill="none">
       <!-- hidden lines -->
       <g  stroke="rgb(100,40,40)" fill="none" stroke-dasharray="0.053033008588991085,0.053033008588991085" >
			<path d="M3.8890872965260117,4.449906366056109 L3.8890872965260113,5.593001579354924 " />
			<path d="M3.8890872965260126,4.449906366056113 L3.1819805153394665,4.04165807559225 " />
			<path d="M4.31335136523794,1.7554676489946108 L4.737615433949868,1.510518674716293 " />
			<path d="M4.737615433949868,3.143511836571748 L4.737615433949868,1.5105186747162942 " />
			<path d="M5.242796941869405,4.8114369512113235 L5.444722215136416,4.694855340334425 " />
			<path d="M4.83927185472145,4.345298411767891 L5.444722215136416,4.694855340334427 " />
			<path d="M3.8890872965260126,4.44990636605611 L5.444722215136417,3.551760127035611 " />
			<path d="M5.444722215136416,3.987416645567424 L5.444722215136416,4.694855340334426 " />
			<path d="M3.3941125496954303,5.0622788017519085 L3.1819805153394647,4.939804314612749 " />
			<path d="M-6.5053823869162395,-0.6531972647421789 L-7.424621202458748,-1.1839200423451994 " />
			<path d="M3.394112549695428,5.062278801751904 L3.8183766184073566,4.8173298274735865 " />
			<path d="M3.8183766184073566,4.8173298274735865 L3.7935040521841574,4.799831894098336 L3.775022068142409,4.779868645918892 L3.76364091856402,4.758207259367274 L3.759797974644666,4.735680169380815 " />
			<path d="M3.759797974644666,4.735680169380814 L3.76364091856402,4.7131530793943535 L3.775022068142409,4.691491692842734 L3.7935040521841574,4.671528444663291 L3.8183766184073566,4.654030511288041 L3.848683928040746,4.63967032848364 L3.8832612881716484,4.628999750021978 L3.9207799102414405,4.622428840249208 L3.9597979746446663,4.620210115542888 L3.998816039047892,4.622428840249208 L4.036334661117684,4.628999750021978 L4.070912021248587,4.63967032848364 L4.1012193308819755,4.654030511288041 L4.126091897105176,4.671528444663291 L4.144573881146924,4.691491692842734 L4.155955030725313,4.7131530793943535 L4.1597979746446665,4.735680169380813 " />
			<path d="M4.1597979746446665,4.735680169380814 L4.155955030725312,4.758207259367276 L4.144573881146922,4.779868645918895 L4.126091897105171,4.7998318940983395 L4.101219330881969,4.81732982747359 " />
			<path d="M4.101219330881976,4.817329827473588 L4.525483399593906,5.062278801751907 " />
			<path d="M4.525483399593904,5.062278801751905 L6.070911557115358,4.170025438993665 " />
			<path d="M6.151828996322965,4.123307733685018 L7.848885271170678,3.143511836571747 " />
			<path d="M-5.727564927611036,-1.1022703842524284 L-6.717514421272202,-1.6738179909018367 " />
			<path d="M-6.717514421272202,-1.6738179909018367 L-7.4246212024587495,-2.0820662813657 " />
			<path d="M-4.737615433949869,-2.3270152556440182 L-5.020458146424488,-2.4903145718295634 " />
			<path d="M-4.737615433949869,-2.327015255644019 L-3.889087296526011,-2.816913204200655 " />
			<path d="M-3.8890872965260126,-2.8169132042006533 L-4.31335136523794,-3.061862178478971 " />
			<path d="M-4.31335136523794,-3.061862178478971 L-5.020458146424488,-3.470110468942834 " />
			<path d="M6.293250352560274,3.0618621784789752 L7.848885271170679,2.163715939458476 " />
			<path d="M6.293250352560275,3.061862178478978 L5.586143571373729,2.6536138880151148 " />
			<path d="M4.7376154339498715,1.5105186747162964 L4.31335136523794,1.2655697004379771 " />
			<path d="M5.727564927611033,0.9389710680668857 L7.14177848998413,0.12247448713915832 " />
			<path d="M7.141778489984134,0.12247448713916231 L4.332953673531534,-1.4992012767462475 " />
			<path d="M4.332953673531533,-1.4992012767462495 L4.145736386756179,-1.4563876351871357 L3.95429417473073,-1.4203357483526264 L3.7593588920530556,-1.3911834371488987 L3.5616757468013827,-1.3690421464488836 L3.3620004517166118,-1.3539965190553898 L3.1610963352269037,-1.3461040721244781 L2.9597314233586425,-1.3453949772860825 L2.758675503689195,-1.3518719453024333 L2.5586971825655223,-1.3655102157052261 L2.3605609468384623,-1.386257651451143 L2.165024241345219,-1.414034938233877 L1.9728345733124062,-1.4487358876907193 L1.7847266547490666,-1.4902278433445961 L1.6014195937538793,-1.5383521877297008 L1.4236141454737472,-1.5929249487620554 L1.2519900332229483,-1.6537375030369381 L1.168701999473066,-1.68641196161483 L1.0872033500037888,-1.7205573733645834 L1.0075719926840474,-1.7561410973003595 L0.9298840503623729,-1.7931291174952857 L0.8542137880979692,-1.8314860755986646 L0.7806335421677297,-1.8711753046364543 L0.709213650917055,-1.9121588640627187 L0.6400223875205655,-1.9543975760285377 L0.5731258947170059,-1.9978510628337032 L0.5085881215807144,-2.0424777855254015 L0.4464707623901023,-2.088235083606988 L0.3868331976515935,-2.1350792158188843 L0.32973243733538116,-2.1829654019526297 L0.2752230663772828,-2.231847865658098 L0.22335719249878672,-2.2816798782029695 L0.17418439639516148,-2.3324138031426256 L0.1277516843392572,-2.3840011418577602 L0.08410344324629904,-2.4363925799161796 L0.04328139824263211,-2.4895380342144717 L0.005324572778982795,-2.5433867008544757 L-0.02973074867364911,-2.597887103708795 L-0.06185105530978641,-2.652987143628918 L-0.0910056420238119,-2.7086341482489065 L-0.11716663876223254,-2.7647749223370535 L-0.1403090371657889,-2.821355798647364 L-0.16041071447596522,-2.8783226892222533 L-0.1774524546830314,-2.9356211370974257 L-0.1914179668954077,-2.993196368359497 L-0.20229390091278843,-3.0509933445065993 L-0.2100698599881432,-3.1089568150619273 L-0.21473841076638678,-3.1670313703899073 L-0.21629509039022565,-3.225161494664511 " />
			<path d="M-0.21629509039022565,-3.225161494664519 L-0.21523598787277276,-3.273111341279105 L-0.21205936914346646,-3.3210300020933006 L-0.20676730022346357,-3.3688863115894545 L-0.1993632229883211,-3.4166491448021987 L-0.189851952929454,-3.464287437561618 L-0.17823967602221868,-3.511770206696884 L-0.1645339447026548,-3.5590665701872024 L-0.1487436729555056,-3.6061457672469808 L-0.13087913051670474,-3.6529771783321396 L-0.11095193619410759,-3.699530345054568 L-0.06496276627595954,-3.791681036378773 L-0.010895786180305844,-3.8823581469555943 L0.051108369825056066,-3.9713258154695077 " />
			<path d="M0.05110836982506406,-3.9713258154695144 L-2.757716446627535,-5.593001579354924 " />
			<path d="M-4.31335136523794,-4.694855340334426 L-2.757716446627535,-5.593001579354925 " />
			<path d="M-3.8890872965260126,-4.449906366056108 L-4.31335136523794,-4.694855340334425 " />
			<path d="M-4.737615433949869,-3.9600084174994725 L-3.889087296526011,-4.4499063660561085 " />
			<path d="M-4.737615433949869,-3.9600084174994716 L-5.161879502661797,-4.204957391777789 " />
			<path d="M-6.7175144212722016,-3.3068111527572914 L-5.161879502661797,-4.20495739177779 " />
			<path d="M-4.313351365237942,-1.9187669651801564 L-5.020458146424487,-2.3270152556440182 " />
			<path d="M-5.1618795026617965,-2.4086649137367906 L-6.717514421272202,-3.30681115275729 " />
			<path d="M-0.13632157875102502,-1.1780313265361748 L-0.07371087611965432,-1.1342446888657345 L-0.01341858700993992,-1.0893865834169911 L0.044500312047729196,-1.0434979133142717 L0.09999300865957617,-0.9966205213853018 L0.1530089027245478,-0.9487971520075147 L0.20349965257318292,-0.9000714121322915 L0.25141921904716824,-0.8504877315226848 L0.2967239074793837,-0.8000913222408683 L0.3393724075361675,-0.748928137422265 L0.3793258308854619,-0.6970448293739366 L0.4165477466564975,-0.6444887070354463 L0.451004214658683,-0.5913076928409818 L0.48266381632941036,-0.5375502790220735 L0.5114976833825509,-0.48326548339075215 L0.5374795241315269,-0.42850280464346413 L0.5605856474629469,-0.3733121772265192 " />
			<path d="M0.6405591591021542,0.04082482904638715 L0.6395000565847013,0.08877467566097322 L0.636323437855395,0.13669333647516993 L0.6310313689353917,0.18454964597132523 L0.6236272917002497,0.23231247918407028 L0.6141160216413817,0.2799507719434908 L0.6025037447341459,0.32743354107875766 L0.5887980134145816,0.3747299045690775 L0.5730077416674315,0.4218091016288569 L0.5551431992286293,0.46864051271401674 L0.5352160049060317,0.515193679436446 L0.48922683498788233,0.6073443707606525 L0.43515985489222686,0.6980214813374752 L0.37315569888685696,0.7869891498513968 " />
			<path d="M0.6405591591021569,0.9413746095889213 L0.37315569888686717,0.7869891498513866 " />
			<path d="M4.525483399593904,3.4292856398964506 L9.54594154601839,0.5307227776030228 " />
			<path d="M4.101219330881976,3.184336665618135 L4.525483399593906,3.4292856398964533 " />
			<path d="M3.8183766184073566,3.184336665618133 L3.7935040521841574,3.1668387322428826 L3.775022068142409,3.146875484063439 L3.76364091856402,3.1252140975118206 L3.759797974644666,3.1026870075253608 " />
			<path d="M3.759797974644666,3.1026870075253603 L3.76364091856402,3.0801599175388996 L3.775022068142409,3.0584985309872814 L3.7935040521841574,3.038535282807838 L3.8183766184073566,3.0210373494325875 L3.848683928040746,3.0066771666281866 L3.8832612881716484,2.9960065881665248 L3.9207799102414405,2.989435678393755 L3.9597979746446663,2.987216953687435 L3.998816039047892,2.989435678393755 L4.036334661117684,2.9960065881665248 L4.070912021248587,3.0066771666281866 L4.1012193308819755,3.0210373494325875 L4.126091897105176,3.038535282807838 L4.144573881146924,3.0584985309872814 L4.155955030725313,3.0801599175388996 L4.1597979746446665,3.1026870075253594 " />
			<path d="M4.1597979746446665,3.1026870075253603 L4.155955030725312,3.1252140975118223 L4.144573881146922,3.146875484063442 L4.126091897105171,3.1668387322428857 L4.101219330881969,3.1843366656181367 " />
			<path d="M3.394112549695428,3.4292856398964497 L3.8183766184073566,3.1843366656181322 " />
			<path d="M3.3941125496954303,3.429285639896454 L-8.343860018001262,-3.3476359818036774 " />
			<path d="M-8.65756735267419,-3.3706411129154343 L-8.669529502087109,-3.384368577866123 L-8.6782285116715,-3.398891549700942 L-8.683510316987336,-3.4139528182741152 L-8.68528137423857,-3.4292856398964497 " />
			<path d="M-8.68528137423857,-3.42928563989645 L-8.681438430319217,-3.451812729882911 L-8.670057280740828,-3.473474116434529 L-8.65157529669908,-3.4934373646139725 L-8.62670273047588,-3.510935297989223 L-8.59639542084249,-3.525295480793624 L-8.56181806071159,-3.5359660592552857 L-8.524299438641798,-3.5425369690280557 L-8.485281374238571,-3.544755693734375 L-8.446263309835345,-3.5425369690280557 L-8.408744687765553,-3.5359660592552857 L-8.374167327634652,-3.525295480793624 L-8.343860018001262,-3.510935297989223 L-8.318987451778062,-3.4934373646139725 L-8.300505467736315,-3.473474116434529 L-8.289124318157926,-3.451812729882911 L-8.285281374238572,-3.429285639896451 " />
			<path d="M-8.285281374238572,-3.42928563989645 L-8.289124318157926,-3.4067585499099895 L-8.300505467736315,-3.385097163358371 L-8.318987451778064,-3.3651339151789275 L-8.343860018001262,-3.347635981803677 " />
			<path d="M-9.015611460128483,-3.1639242510949397 L-8.657567352674189,-3.3706411129154343 " />
			<path d="M-9.54594154601839,-3.4701104689428353 L-9.01561146012848,-3.1639242510949384 " />
			<path d="M0.3731556988868663,0.7869891498513841 L0.3731556988868661,2.4199823117068378 " />
			<path d="M-9.015611460128483,-1.5309310892394867 L-9.015611460128483,-3.16392425109494 " />
			<path d="M-8.65756735267419,-3.3706411129154343 L-8.65756735267419,-1.8549370050220126 " />
			<path d="M-8.343860018001262,-3.347635981803678 L-8.343860018001262,-1.8779421361337694 " />
			<path d="M3.394112549695429,3.4292856398964506 L3.394112549695429,5.062278801751905 " />
			<path d="M3.818376618407357,3.184336665618133 L3.818376618407357,4.8173298274735865 " />
			<path d="M4.1012193308819755,3.184336665618133 L4.1012193308819755,4.8173298274735865 " />
			<path d="M4.525483399593903,5.062278801751905 L4.525483399593903,3.429285639896451 " />
			<path d="M-6.7175144212722016,-3.3068111527572914 L-6.7175144212722016,-1.6738179909018376 " />
			<path d="M-6.7175144212722016,-1.6738179909018376 L-6.7175144212722016,-0.5307227776030228 " />
			<path d="M-5.868986283848345,-1.8913587371122063 L-5.868986283848345,-1.8371173070873836 " />
			<path d="M-6.070911557115355,-1.7205356962104863 L-5.8689862838483435,-1.8371173070873843 " />
			<path d="M-5.161879502661797,-2.5719642299223366 L-5.161879502661797,-4.20495739177779 " />
			<path d="M-4.737615433949869,-3.9600084174994716 L-4.737615433949869,-2.3270152556440182 " />
			<path d="M-5.868986283848345,-1.8371173070873845 L-5.161879502661797,-1.4288690166235212 " />
			<path d="M-5.161879502661797,-1.4288690166235214 L-5.161879502661797,-2.2647900575185043 " />
			<path d="M-3.8890872965260113,-4.449906366056108 L-3.8890872965260113,-2.816913204200654 " />
			<path d="M-4.31335136523794,-3.0618621784789717 L-4.31335136523794,-4.694855340334425 " />
			<path d="M-4.31335136523794,-1.9187669651801564 L-4.31335136523794,-3.0618621784789717 " />
			<path d="M0.05110836982506271,-3.9713258154695144 L0.051108369825062554,-2.338332653614061 " />
			<path d="M-2.7577164466275352,-5.593001579354924 L-2.7577164466275352,-3.9600084174994703 " />
			<path d="M4.332953673531533,-1.4992012767462486 L4.332953673531533,0.13379188510920503 " />
			<path d="M7.14177848998413,0.1224744871391592 L7.14177848998413,1.755467648994613 " />
			<path d="M6.293250352560273,3.0618621784789752 L6.293250352560273,4.204957391777791 " />
			<path d="M-5.363804775928809,-1.3122874057466234 L-5.161879502661797,-1.4288690166235216 " />
			<path d="M5.525639654344026,4.974736267396868 L5.644590239698759,4.870479276862524 L5.704824129905656,4.821665142382343 L5.765458665807339,4.775146889738974 L5.826414350425224,4.730985508275854 L5.887611265727738,4.689238897279981 L5.948969177409581,4.649961790071091 L6.0104076400856545,4.613205682241655 L6.071846102761729,4.579018764141836 L6.133204014443572,4.547445857697874 L6.194400929746086,4.518528357646784 L6.255356614363971,4.492304177264357 L6.315991150265654,4.468807698657676 L6.3762250404725505,4.448069727687276 L6.435979313286296,4.43011745357807 L6.495175625827276,4.414974413271986 " />
			<path d="M-4.25284744820824,-1.7903996017787365 L-4.312043760749227,-1.7752565614726517 L-4.371798033562973,-1.7573042873634441 L-4.432031923769871,-1.736566316393044 L-4.492666459671554,-1.7130698377863633 L-4.553622144289439,-1.6868456574039365 L-4.6148190595919525,-1.6579281573528464 L-4.6761769712737955,-1.6263552509088857 L-4.737615433949869,-1.5921683328090657 L-4.799053896625943,-1.5554122249796298 L-4.860411808307786,-1.5161351177707394 L-4.9216087236103,-1.4743885067748677 L-4.982564408228185,-1.430227125311747 L-5.043198944129868,-1.3837088726683784 L-5.103432834336766,-1.3348947381881975 L-5.222383419691495,-1.230637747653856 " />
			<path d="M-8.285281374238572,-3.4292856398964506 L-8.285281374238572,-1.7962924780409972 " />
			<path d="M-8.68528137423857,-3.4292856398964497 L-8.68528137423857,-1.7962924780409963 " />
			<path d="M4.1597979746446665,3.1026870075253603 L4.1597979746446665,4.735680169380814 " />
			<path d="M3.7597979746446666,3.1026870075253603 L3.7597979746446666,4.735680169380814 " />
			<path d="M-0.21629509039022524,-3.225161494664518 L-0.2162950903902253,-2.492718113351595 " />

       </g>

       <!-- solid lines -->
       <g  stroke="rgb(200,20,20)" fill="none">
			<path d="M3.181980515339464,4.041658075592245 L3.1819805153394634,5.184753288891061 " />
			<path d="M3.1819805153394665,5.184753288891065 L3.8890872965260144,5.593001579354928 " />
			<path d="M3.181980515339464,2.408664913736792 L4.31335136523794,1.7554676489946108 " />
			<path d="M4.737615433949868,4.286607049870563 L4.737615433949868,3.143511836571748 " />
			<path d="M3.181980515339464,5.184753288891061 L4.737615433949868,4.286607049870562 " />
			<path d="M3.181980515339464,2.408664913736792 L3.181980515339464,4.041658075592245 " />
			<path d="M3.8890872965260117,5.593001579354924 L5.242796941869405,4.8114369512113235 " />
			<path d="M4.737615433949868,4.286607049870563 L4.83927185472145,4.345298411767891 " />
			<path d="M5.444722215136416,3.551760127035611 L5.444722215136416,3.987416645567424 " />
			<path d="M-3.464823227814083,-5.348052605076604 L9.545941546018394,2.1637159394584806 " />
			<path d="M-9.54594154601839,-1.8371173070873827 L-3.4648232278140814,-5.348052605076606 " />
			<path d="M-9.54594154601839,-1.8371173070873819 L-9.01561146012848,-1.530931089239485 " />
			<path d="M-9.015611460128483,-1.5309310892394863 L-8.657567352674189,-1.7376479510599812 " />
			<path d="M-8.65756735267419,-1.7376479510599805 L-8.669529502087109,-1.7513754160106694 L-8.6782285116715,-1.7658983878454884 L-8.683510316987336,-1.7809596564186618 L-8.68528137423857,-1.7962924780409961 " />
			<path d="M-8.68528137423857,-1.7962924780409966 L-8.681438430319217,-1.818819568027457 L-8.670057280740828,-1.8404809545790755 L-8.65157529669908,-1.8604442027585186 L-8.62670273047588,-1.8779421361337691 L-8.59639542084249,-1.8923023189381702 L-8.56181806071159,-1.9029728973998319 L-8.524299438641798,-1.909543807172602 L-8.485281374238571,-1.9117625318789218 L-8.446263309835345,-1.909543807172602 L-8.408744687765553,-1.9029728973998319 L-8.374167327634652,-1.8923023189381702 L-8.343860018001262,-1.8779421361337691 L-8.318987451778062,-1.8604442027585186 L-8.300505467736315,-1.8404809545790755 L-8.289124318157926,-1.818819568027457 L-8.285281374238572,-1.7962924780409977 " />
			<path d="M-8.285281374238572,-1.7962924780409966 L-8.289124318157926,-1.7737653880545359 L-8.300505467736315,-1.7521040015029172 L-8.318987451778064,-1.7321407533234738 L-8.343860018001262,-1.7146428199482233 " />
			<path d="M3.1819805153394647,4.939804314612749 L-6.5053823869162395,-0.6531972647421789 " />
			<path d="M-7.424621202458748,-1.1839200423451994 L-8.343860018001262,-1.714642819948223 " />
			<path d="M6.070911557115358,4.170025438993665 L6.151828996322965,4.123307733685018 " />
			<path d="M7.848885271170678,3.143511836571747 L9.54594154601839,2.163715939458476 " />
			<path d="M3.1819805153394665,4.04165807559225 L0.37315569888686717,2.41998231170684 " />
			<path d="M-3.908689604819627,-0.052142227016422904 L-3.721472318044275,-0.0949558685755374 L-3.530030106018824,-0.13100775541004772 L-3.335094823341148,-0.16016006661377657 L-3.1374116780894727,-0.18230135731379238 L-2.9377363830047,-0.19734698470728707 L-2.736832266514993,-0.20523943163819935 L-2.5354673546467335,-0.20594852647659567 L-2.3344114349772833,-0.19947155846024556 L-2.134433113853609,-0.18583328805745314 L-1.9362968781265493,-0.16508585231153705 L-1.740760172633307,-0.13730856552880355 L-1.5485705046004918,-0.10260761607196156 L-1.3604625860371498,-0.061115660418084694 L-1.1771555250419627,-0.012991316032980427 L-0.9993500767618315,0.041581444999372996 L-0.8277259645110295,0.10239399927425641 L-0.744437930761146,0.1350684578521486 L-0.6629392812918673,0.16921386960190232 L-0.5833079239721282,0.20479759353767713 L-0.5056199816504523,0.24178561373260377 L-0.42994971938604776,0.2801425718359831 L-0.35636947345581005,0.3198318008737715 L-0.28494958220513356,0.3608153603000366 L-0.2157583188086427,0.403054072265856 L-0.14886182600508224,0.4465075590710219 L-0.08432405286878986,0.49113428176272067 L-0.022206693678179068,0.5368915798443057 L0.037430871060330606,0.5837357120562028 L0.0945316313765443,0.6316218981899486 L0.14904100233464135,0.6805043618954155 L0.20090687621313785,0.7303363744402875 L0.250079672316764,0.7810702993799445 L0.29651238437266914,0.83265763809508 L0.3401606254656282,0.8850490761535001 L0.3809826704692938,0.9381945304517908 L0.418939495932944,0.9920431970917951 L0.4539948173855768,1.0465435999461152 L0.48611512402171275,1.1016436398662368 L0.5152697107357396,1.1572906444862259 L0.5414307074741602,1.2134314185743738 L0.564573105877717,1.2700122948846841 L0.5846747831878933,1.3269791854595743 L0.6017165233949591,1.384277633334746 L0.6156820356073358,1.441852864596817 L0.626557969624717,1.4996498407439205 L0.6343339287000718,1.5576133112992474 L0.6390024794783153,1.6156878666272276 L0.6405591591021542,1.6738179909018236 " />
			<path d="M0.6405591591021542,1.6738179909018407 L0.6395000565847013,1.7217678375164267 L0.636323437855395,1.7696864983306235 L0.6310313689353917,1.8175428078267788 L0.6236272917002497,1.865305641039524 L0.6141160216413817,1.9129439337989442 L0.6025037447341459,1.9604267029342113 L0.5887980134145816,2.007723066424531 L0.5730077416674315,2.0548022634843104 L0.5551431992286293,2.10163367456947 L0.5352160049060317,2.1481868412918996 L0.48922683498788233,2.240337532616106 L0.43515985489222686,2.331014643192929 L0.37315569888685696,2.41998231170685 " />
			<path d="M-3.908689604819603,-0.0521422270164269 L-5.727564927611036,-1.1022703842524284 " />
			<path d="M-7.424621202458749,-2.082066281365701 L-5.868986283848344,-2.9802125203861998 " />
			<path d="M-5.020458146424488,-2.4903145718295634 L-5.161879502661797,-2.5719642299223358 " />
			<path d="M-5.161879502661797,-2.5719642299223358 L-5.868986283848344,-2.980212520386199 " />
			<path d="M-5.020458146424487,-3.4701104689428357 L-3.4648232278140823,-4.368256707963335 " />
			<path d="M0.05110836982506406,-2.33833265361406 L-2.757716446627535,-3.96000841749947 " />
			<path d="M-2.757716446627535,-3.96000841749947 L-3.4648232278140823,-4.368256707963333 " />
			<path d="M4.332953673531533,0.13379188510920437 L4.145736386756179,0.1766055266683182 L3.95429417473073,0.2126574135028274 L3.7593588920530556,0.24180972470655515 L3.5616757468013827,0.2639510154065703 L3.3620004517166118,0.2789966428000641 L3.1610963352269037,0.2868890897309757 L2.9597314233586425,0.28759818456937136 L2.758675503689195,0.2811212165530206 L2.5586971825655223,0.2674829461502277 L2.3605609468384623,0.24673551040431074 L2.165024241345219,0.2189582236215768 L1.9728345733124062,0.18425727416473459 L1.7847266547490666,0.14276531851085772 L1.6014195937538793,0.09464097412575301 L1.4236141454737472,0.040068213093398475 L1.2519900332229483,-0.02074434118148427 L1.168701999473066,-0.053418799759376245 L1.0872033500037888,-0.08756421150912952 L1.0075719926840474,-0.12314793544490565 L0.9298840503623729,-0.16013595563983185 L0.8542137880979692,-0.19849291374321076 L0.7806335421677297,-0.23818214278100047 L0.709213650917055,-0.2791657022072649 L0.6400223875205655,-0.32140441417308385 L0.5731258947170059,-0.3648579009782493 L0.5085881215807144,-0.40948462366994764 L0.4464707623901023,-0.455241921751534 L0.3868331976515935,-0.5020860539634304 L0.32973243733538116,-0.5499722400971756 L0.2752230663772828,-0.598854703802644 L0.22335719249878672,-0.6486867163475154 L0.17418439639516148,-0.6994206412871717 L0.1277516843392572,-0.7510079800023064 L0.08410344324629904,-0.803399418060726 L0.04328139824263211,-0.8565448723590181 L0.005324572778982795,-0.9103935389990219 L-0.02973074867364911,-0.9648939418533411 L-0.06185105530978641,-1.0199939817734642 L-0.0910056420238119,-1.0756409863934526 L-0.11716663876223254,-1.1317817604815996 L-0.1403090371657889,-1.1883626367919102 L-0.16041071447596522,-1.2453295273667995 L-0.1774524546830314,-1.3026279752419718 L-0.1914179668954077,-1.360203206504043 L-0.20229390091278843,-1.4180001826511455 L-0.2100698599881432,-1.4759636532064735 L-0.21473841076638678,-1.5340382085344537 L-0.21629509039022565,-1.592168332809057 " />
			<path d="M-0.21629509039022565,-1.5921683328090654 L-0.21523598787277276,-1.6401181794236512 L-0.21205936914346646,-1.6880368402378467 L-0.20676730022346357,-1.7358931497340009 L-0.1993632229883211,-1.7836559829467449 L-0.189851952929454,-1.831294275706164 L-0.17823967602221868,-1.8787770448414298 L-0.1645339447026548,-1.9260734083317486 L-0.1487436729555056,-1.973152605391527 L-0.13087913051670474,-2.019984016476686 L-0.11095193619410759,-2.066537183199114 L-0.06496276627595954,-2.158687874523319 L-0.010895786180305844,-2.249364985100141 L0.051108369825056066,-2.338332653614054 " />
			<path d="M7.84888527117068,2.1637159394584797 L7.141778489984134,1.7554676489946166 " />
			<path d="M7.141778489984134,1.7554676489946166 L4.332953673531534,0.1337918851092068 " />
			<path d="M5.586143571373729,2.6536138880151148 L5.161879502661797,2.4086649137367955 " />
			<path d="M4.313351365237939,2.898562862293429 L5.161879502661797,2.4086649137367933 " />
			<path d="M5.444722215136418,3.551760127035613 L4.7376154339498715,3.14351183657175 " />
			<path d="M4.7376154339498715,3.14351183657175 L4.31335136523794,2.8985628622934305 " />
			<path d="M4.313351365237939,1.2655697004379758 L5.161879502661797,0.7756717518813399 " />
			<path d="M5.586143571373729,1.020620726159661 L5.161879502661797,0.7756717518813416 " />
			<path d="M5.586143571373725,1.0206207261596574 L5.727564927611033,0.9389710680668857 " />
			<path d="M-3.908689604819603,-1.6851353888718803 L-4.313351365237942,-1.9187669651801564 " />
			<path d="M-5.020458146424487,-2.3270152556440182 L-5.1618795026617965,-2.4086649137367906 " />
			<path d="M-3.908689604819627,-1.6851353888718765 L-3.7887155156094248,-1.713458495558984 L-3.6668844526629716,-1.7390030272659338 L-3.5433893818134123,-1.7617285245095373 L-3.4184259044834038,-1.781598992820049 L-3.292191947875851,-1.7985829597521021 L-3.1648874514808876,-1.8126535247332987 L-3.0367140503956427,-1.8237884016714967 L-2.9078747559583578,-1.8319699542533174 L-2.778573634202699,-1.8371852238779567 L-2.6490154826415724,-1.8394259501820565 L-2.519405505892362,-1.8386885841231333 L-2.389948990657351,-1.8349742936008384 L-2.2608509805741313,-1.8282889616071438 L-2.1323159514510124,-1.8186431769083846 L-2.0045474874017977,-1.806052217273923 L-1.8777479583928913,-1.7905360252779867 L-1.752118199713471,-1.7721191767130149 L-1.6278571938764108,-1.750830841664546 L-1.505161755453788,-1.7267047383092875 L-1.38422621934613,-1.6997790795095593 L-1.2652421329791712,-1.670096512288687 L-1.148397952915645,-1.6377040502832196 L-1.0338787463626253,-1.6026529992789509 L-0.9218658980472019,-1.5649988759486901 L-0.8125368229247723,-1.524801319920495 L-0.7060646851749666,-1.4821239993156308 L-0.6026181239302906,-1.4370345099058797 L-0.5023609861719156,-1.389604268049925 L-0.4054520672156574,-1.3399083975783792 L-0.3120448591991787,-1.288025610806619 L-0.22228730796881147,-1.2340380838638967 L-0.13632157875104367,-1.1780313265361875 " />
			<path d="M0.5605856474629531,-0.3733121772265029 L0.5792703946474411,-0.3222457946035002 L0.5954930562854326,-0.2708996771607839 L0.6092411333119174,-0.2193133855126506 L0.6205040332537015,-0.16752666532028754 L0.6292730783905847,-0.1155794166689498 L0.6355415124412813,-0.06351166332615929 L0.6393045057689233,-0.011363521904624849 L0.6405591591021542,0.04082482904636999 " />
			<path d="M3.1819805153394665,2.4086649137367964 L0.6405591591021569,0.9413746095889213 " />
			<path d="M-3.464823227814083,-6.981045766932058 L9.545941546018394,0.5307227776030263 " />
			<path d="M-9.545941546018392,-3.4701104689428366 L-3.464823227814083,-6.981045766932059 " />
			<path d="M4.31335136523794,1.2655697004379756 L4.31335136523794,2.898562862293429 " />
			<path d="M-3.4648232278140823,-5.348052605076606 L-3.4648232278140823,-6.981045766932059 " />
			<path d="M9.54594154601839,2.163715939458477 L9.54594154601839,0.5307227776030231 " />
			<path d="M-9.545941546018392,-1.8371173070873823 L-9.545941546018392,-3.470110468942836 " />
			<path d="M-8.65756735267419,-1.8549370050220126 L-8.65756735267419,-1.737647951059981 " />
			<path d="M-8.343860018001262,-1.8779421361337694 L-8.343860018001262,-1.7146428199482244 " />
			<path d="M-3.9086896048196036,-1.6851353888718823 L-3.9086896048196036,-0.05214222701642868 " />
			<path d="M-7.424621202458749,-2.0820662813657007 L-7.424621202458749,-0.9389710680668855 " />
			<path d="M-7.424621202458749,-0.9389710680668855 L-6.717514421272201,-0.5307227776030221 " />
			<path d="M-5.868986283848345,-2.980212520386199 L-5.868986283848345,-1.8913587371122063 " />
			<path d="M-7.424621202458749,-0.9389710680668855 L-6.070911557115355,-1.7205356962104863 " />
			<path d="M-5.161879502661797,-2.2647900575185043 L-5.161879502661797,-2.5719642299223366 " />
			<path d="M-5.020458146424488,-3.4701104689428357 L-5.020458146424488,-2.3270152556440205 " />
			<path d="M-5.020458146424488,-2.3270152556440205 L-4.31335136523794,-1.918766965180157 " />
			<path d="M-3.4648232278140823,-4.368256707963334 L-3.4648232278140827,-3.2251614946645186 " />
			<path d="M-5.020458146424486,-2.32701525564402 L-3.464823227814082,-3.225161494664519 " />
			<path d="M-3.4648232278140823,-3.225161494664518 L-2.7577164466275343,-2.816913204200655 " />
			<path d="M-2.7577164466275352,-3.9600084174994703 L-2.7577164466275357,-2.8169132042006555 " />
			<path d="M7.14177848998413,1.755467648994613 L7.14177848998413,2.898562862293428 " />
			<path d="M7.141778489984133,2.8985628622934314 L7.848885271170681,3.3068111527572945 " />
			<path d="M7.848885271170678,2.1637159394584766 L7.848885271170678,3.306811152757292 " />
			<path d="M6.293250352560273,4.204957391777789 L7.848885271170678,3.3068111527572905 " />
			<path d="M5.586143571373725,3.796709101313927 L6.293250352560273,4.20495739177779 " />
			<path d="M5.586143571373725,3.796709101313928 L5.586143571373725,2.6536138880151126 " />
			<path d="M5.161879502661797,0.7756717518813396 L5.161879502661797,2.4086649137367933 " />
			<path d="M5.586143571373725,2.6536138880151126 L5.586143571373725,1.0206207261596587 " />
			<path d="M-6.7175144212722016,-0.5307227776030228 L-5.363804775928809,-1.3122874057466234 " />
			<path d="M-4.31335136523794,-1.9187669651801573 L-2.757716446627535,-2.8169132042006564 " />
			<path d="M5.586143571373725,3.7967091013139265 L7.14177848998413,2.8985628622934274 " />
			<path d="M4.677111516920168,4.484838318840231 L4.796062102274901,4.380581328305887 L4.856295992481797,4.331767193825706 L4.916930528383481,4.285248941182338 L4.977886213001366,4.241087559719217 L5.03908312830388,4.199340948723345 L5.100441039985723,4.160063841514454 L5.161879502661797,4.123307733685018 L5.22331796533787,4.089120815585199 L5.284675877019714,4.057547909141237 L5.345872792322228,4.028630409090147 L5.406828476940113,4.00240622870772 L5.467463012841796,3.9789097501010393 L5.527696903048692,3.9581717791306392 L5.587451175862438,3.940219505021433 L5.646647488403418,3.9250764647153495 " />
			<path d="M4.677111516920169,4.484838318840232 L5.646647488403426,3.9250764647153487 " />
			<path d="M6.495175625827285,4.414974413271984 L5.646647488403427,3.9250764647153473 " />
			<path d="M5.525639654344024,4.974736267396869 L4.677111516920166,4.484838318840232 " />
			<path d="M5.525639654344026,4.974736267396868 L6.495175625827283,4.414974413271985 " />
			<path d="M-5.222383419691496,-1.2306377476538515 L-4.2528474482082395,-1.7903996017787354 " />
			<path d="M-5.101375585632097,-2.280297550335372 L-4.252847448208239,-1.7903996017787356 " />
			<path d="M-6.0709115571153545,-1.7205356962104879 L-5.1013755856320975,-2.280297550335372 " />
			<path d="M-6.070911557115357,-1.7205356962104863 L-5.222383419691499,-1.2306377476538501 " />
			<path d="M-5.1013755856320975,-2.2802975503353724 L-5.160571898173084,-2.2651545100292876 L-5.22032617098683,-2.24720223592008 L-5.280560061193728,-2.22646426494968 L-5.341194597095411,-2.2029677863429993 L-5.402150281713296,-2.1767436059605725 L-5.46334719701581,-2.1478261059094823 L-5.524705108697653,-2.116253199465522 L-5.586143571373726,-2.0820662813657016 L-5.6475820340498,-2.045310173536266 L-5.708939945731643,-2.006033066327375 L-5.770136861034157,-1.9642864553315036 L-5.831092545652042,-1.9201250738683828 L-5.891727081553725,-1.8736068212250143 L-5.951960971760623,-1.8247926867448334 L-6.070911557115352,-1.7205356962104918 " />
			<path d="M0.6405591591021547,0.04082482904638729 L0.6405591591021544,1.673817990901841 " />
			<path d="M-0.2162950903902253,-2.492718113351595 L-0.21629509039022538,-1.5921683328090648 " />

       </g>
    </g>
    
</svg>
