<?xml version="1.0" encoding="UTF-8" standalone="no"?>
<svg
   xmlns:svg="http://www.w3.org/2000/svg"
   xmlns="http://www.w3.org/2000/svg"
   width="480.0"
   height="480.0"

>
    <g transform="scale(18.85618083164126, -18.85618083164126)   translate(12.091525958289964,-11.777647515600243)" stroke-width="0.053033008588991085"  fill="none">
       <!-- hidden lines -->
       <g  stroke="rgb(100,40,40)" fill="none" stroke-dasharray="0.053033008588991085,0.053033008588991085" >
			<path d="M4.030508652763322,2.8985628622934296 L4.030508652763322,5.8379505536332434 " />
			<path d="M3.959797974644667,2.8577380332470423 L4.030508652763321,2.898562862293428 " />
			<path d="M3.959797974644667,2.857738033247043 L3.959797974644667,4.490731195102496 " />
			<path d="M4.030508652763322,2.8985628622934296 L4.101219330881976,2.8577380332470432 " />
			<path d="M4.101219330881976,4.490731195102497 L4.101219330881976,2.8577380332470432 " />
			<path d="M3.1819805153394647,3.3068111527572923 L3.9597979746446677,2.857738033247043 " />
			<path d="M3.1819805153394682,3.3068111527572963 L-8.237794000823282,-3.2863987382340984 " />
			<path d="M-8.237794000823282,-3.2863987382341 L-7.954951288348662,-3.449698054419645 " />
			<path d="M-7.954951288348662,-3.4496980544196445 L-8.096372644585971,-3.531347712512417 " />
			<path d="M-8.874190103891173,-3.0822745930021673 L-8.09637264458597,-3.5313477125124173 " />
			<path d="M-9.545941546018392,-3.4701104689428357 L-8.874190103891173,-3.0822745930021664 " />
			<path d="M4.525483399593904,3.4292856398964506 L9.54594154601839,0.5307227776030228 " />
			<path d="M3.8890872965260144,3.0618621784789766 L4.525483399593906,3.429285639896453 " />
			<path d="M3.889087296526012,3.0618621784789735 L4.171930009000631,2.898562862293428 " />
			<path d="M4.171930009000633,2.898562862293431 L4.101219330881978,2.857738033247044 " />
			<path d="M0.690559159102154,0.9702421230484015 L0.41114160722906057,0.808920324258164 " />
			<path d="M4.277996026178612,1.7758800635178045 L4.737615433949868,1.510518674716293 " />
			<path d="M4.73761543394987,1.510518674716295 L4.277996026178615,1.2451572859147846 " />
			<path d="M5.727564927611033,0.9389710680668857 L6.151828996322964,0.6940220937885668 " />
			<path d="M6.1518289963229655,-0.449073119510249 L6.1518289963229655,0.6940220937885679 " />
			<path d="M6.151828996322967,-0.44907311951024553 L4.370939581873728,-1.47727010233947 " />
			<path d="M4.370939581873813,-1.4772701023394952 L4.1807215739196755,-1.4330198805406698 L3.9861184981148883,-1.395662240424748 L3.7878787984357283,-1.3653408595805723 L3.5867649053241135,-1.3421723541240553 L3.3835503033779752,-1.326245830192275 L3.179016556527326,-1.317622541241018 L2.9739503021371863,-1.3163356524638177 L2.7691402255980693,-1.322390113238527 L2.565374027039755,-1.3357626380919962 L2.363435391834376,-1.3564017962560695 L2.1641009765402734,-1.384228209470462 L1.9681374218786942,-1.4191348572717735 L1.776298404231423,-1.4609874885944911 L1.5893217369992978,-1.509625138100963 L1.407926532969801,-1.5648607452545416 L1.3195409066819686,-1.5948873661590914 L1.232810438607256,-1.6264818737549303 L1.1478185402065004,-1.659613882595149 L1.0646469509025653,-1.6942515285687934 L0.9833756594689222,-1.730361499545597 L0.9040828271018939,-1.76790906741332 L0.8268447122505433,-1.8068581214768822 L0.7517355972764803,-1.8471712031871739 L0.6788277170141419,-1.888809542166139 L0.6081911893002494,-1.9317330934934842 L0.5398939475392437,-1.9759005762191584 L0.47400167536956195,-2.021269513064558 L0.4105777434935831,-2.0677962712742888 L0.3496831487319989,-2.115436104579174 L0.29137645536122836,-2.1641431962301727 L0.2357137387902788,-2.2138707030618083 L0.18274853163123295,-2.2645708005427414 L0.13253177221523105,-2.3161947287701463 L0.08511175560344775,-2.3686928393636637 L0.04053408714019158,-2.4220146432138367 L-0.001158361407214148,-2.4761088590391016 L-0.03992549307957605,-2.5309234627046306 L-0.07573002428835762,-2.5864057372556037 L-0.10853752067249633,-2.6425023236167893 L-0.1383164302150317,-2.6991592719096698 L-0.16503811358768372,-2.756322093337766 L-0.18867687169420977,-2.8139358125902447 L-0.20920997038604838,-2.871945020713439 L-0.22661766232647462,-2.9302939283994056 L-0.24088320598224433,-2.9889264196402827 L-0.2519928817244619,-3.0477861056968476 L-0.25993600502318337,-3.106816379329368 L-0.26470493672307427,-3.165960469238592 L-0.2662950903902255,-3.2251614946645106 " />
			<path d="M-0.2662950903902255,-3.225161494664519 L-0.26518795035556897,-3.2745614801493943 L-0.26186727159607015,-3.323928387247673 L-0.2563352776487333,-3.3732291597221504 L-0.24859567275421135,-3.4224307856195755 L-0.23865363937643158,-3.4715003193755596 L-0.22651583473240366,-3.520404903875029 L-0.21219038633452403,-3.5691117924534552 L-0.19568688654837008,-3.617588370824122 L-0.1770163861696208,-3.66580217891676 L-0.1561913870244087,-3.713720932612906 L-0.13322583359805762,-3.7613125453634573 L-0.10813510369781154,-3.8085451496739218 L-0.08093599815580577,-3.8553871184429958 L-0.05164672957917826,-3.90180708614017 L0.013122461482864889,-3.993256989876284 " />
			<path d="M0.01312246148287155,-3.9932569898762913 L-1.767766952966367,-5.021453972705515 " />
			<path d="M-1.767766952966367,-5.021453972705516 L-3.7476659402887,-5.021453972705517 " />
			<path d="M-4.31335136523794,-4.694855340334426 L-3.7476659402887016,-5.021453972705516 " />
			<path d="M-3.853731957466685,-4.429493951532914 L-4.31335136523794,-4.694855340334425 " />
			<path d="M-4.7022600948905415,-3.9395960029762795 L-3.8537319574666835,-4.4294939515329155 " />
			<path d="M-4.702260094890541,-3.939596002976279 L-5.161879502661797,-4.20495739177779 " />
			<path d="M-5.727564927611034,-3.8783587594066997 L-5.161879502661797,-4.20495739177779 " />
			<path d="M-5.727564927611035,-2.7352635461078827 L-5.727564927611035,-3.8783587594066997 " />
			<path d="M-4.313351365237942,-1.9187669651801564 L-4.879036790187178,-2.245365597551246 " />
			<path d="M-5.1618795026617965,-2.4086649137367906 L-5.727564927611034,-2.735263546107881 " />
			<path d="M-0.22036883902715632,-1.2750807432263258 L-0.13748034877778315,-1.222868501915237 L-0.05800313922284461,-1.168917198547101 L0.017953415158781905,-1.1133010795093234 L0.09028478492275083,-1.056096682265552 L0.1588914295099655,-0.9973827300267945 L0.22367893423172003,-0.9372400234145736 L0.28455814020074843,-0.8757513292652072 L0.3414452670293797,-0.8130012667282265 L0.39426202812594013,-0.7490761908156905 L0.44293573843073464,-0.6840640735626569 L0.4873994144433409,-0.6180543829623426 L0.5275918664035739,-0.5511379598425863 L0.5634577824992455,-0.48340689285305627 L0.5949478049848524,-0.41495439173523097 L0.6220185981064281,-0.34587465904956183 L0.6446329077390804,-0.27626276053636944 " />
			<path d="M0.690559159102154,0.040824829046386936 L0.6894520190674975,0.09022481453126274 L0.6861313403079983,0.13959172162954187 L0.6805993463606619,0.18889249410402004 L0.6728597414661395,0.23809412000144628 L0.6629177080883593,0.2871636537574313 L0.6507799034443305,0.3360682382569018 L0.6364544550464504,0.38477512683532855 L0.6199509552602964,0.43325170520599665 L0.6012804548815462,0.48146551329863496 L0.5804554557363337,0.5293842669947821 L0.5574899023099817,0.5769758797453342 L0.5323991724097348,0.6242084840557997 L0.5052000668677281,0.6710504528248746 L0.4759107982910993,0.7174704205220493 L0.411141607229049,0.808920324258172 " />
			<path d="M3.181980515339465,3.3068111527572928 L3.181980515339465,4.939804314612747 " />
			<path d="M4.171930009000631,2.8985628622934296 L4.171930009000631,4.531556024148884 " />
			<path d="M3.9597979746446668,4.654030511288042 L4.101219330881976,4.572380853195269 " />
			<path d="M3.959797974644667,4.7356801693808155 L4.101219330881978,4.817329827473589 " />
			<path d="M5.091168824543145,4.735680169380812 L6.0811183182043065,4.164132562731407 " />
			<path d="M-5.727564927611035,-1.1022703842524288 L-5.727564927611035,-2.245365597551246 " />
			<path d="M-5.727564927611035,-2.245365597551246 L-5.727564927611035,-2.898562862293427 " />
			<path d="M-4.702260094890541,-2.306602841120825 L-4.879036790187179,-2.408664913736791 " />
			<path d="M-4.7022600948905415,-2.3066028411208257 L-3.8537319574666835,-2.7965007896774616 " />
			<path d="M-3.853731957466685,-2.79650078967746 L-4.31335136523794,-3.061862178478971 " />
			<path d="M-4.31335136523794,-3.061862178478971 L-4.879036790187179,-3.388460810850062 " />
			<path d="M6.1518289963229655,2.327015255644022 L6.1518289963229655,2.980212520386204 " />
			<path d="M6.151828996322967,2.9802125203862064 L5.586143571373727,2.6536138880151134 " />
			<path d="M4.171930009000634,3.4701104689428393 L5.303300858899113,3.4701104689428393 " />
			<path d="M-8.237794000823282,-3.2863987382341 L-8.237794000823282,-1.8167048925641893 " />
			<path d="M3.8890872965260117,3.0618621784789752 L3.8890872965260117,4.531556024148884 " />
			<path d="M-8.874190103891173,-1.4492814311467148 L-8.874190103891173,-3.082274593002168 " />
			<path d="M-8.096372644585973,-3.5313477125124173 L-8.096372644585973,-1.898354550656964 " />
			<path d="M-7.9549512883486635,-3.4496980544196445 L-7.9549512883486635,-1.816704892564191 " />
			<path d="M4.525483399593903,5.062278801751905 L4.525483399593903,3.429285639896451 " />
			<path d="M-5.727564927611035,-2.735263546107883 L-5.727564927611035,-1.1022703842524293 " />
			<path d="M-5.727564927611034,-2.2453655975512463 L-5.727564927611034,-3.8783587594066997 " />
			<path d="M-4.702260094890542,-3.9395960029762787 L-4.702260094890542,-2.3066028411208253 " />
			<path d="M-5.161879502661797,-2.5719642299223366 L-5.161879502661797,-4.20495739177779 " />
			<path d="M-3.853731957466685,-4.429493951532915 L-3.853731957466685,-2.796500789677461 " />
			<path d="M-4.31335136523794,-3.0618621784789717 L-4.31335136523794,-4.694855340334425 " />
			<path d="M-3.7476659402887016,-3.388460810850063 L-3.7476659402887016,-5.021453972705516 " />
			<path d="M-1.7677669529663689,-5.021453972705515 L-1.767766952966369,-3.388460810850062 " />
			<path d="M0.013122461482870646,-3.9932569898762917 L0.013122461482870489,-2.3602638280208383 " />
			<path d="M4.370939581873724,-1.477270102339472 L4.370939581873724,0.15572305951598153 " />
			<path d="M6.151828996322964,-0.4490731195102484 L6.151828996322964,1.1839200423452052 " />
			<path d="M6.151828996322964,0.6940220937885678 L6.151828996322964,1.183920042345206 " />
			<path d="M4.737615433949868,3.1435118365717476 L4.737615433949868,1.5105186747162938 " />
			<path d="M0.4111416072290579,0.8089203242581606 L0.41114160722905774,2.4419134861136143 " />
			<path d="M-5.727564927611035,-1.510518674716296 L-5.727564927611035,-1.7554676489946117 " />
			<path d="M-5.727564927611034,-1.1022703842524306 L-5.727564927611034,-2.2453655975512463 " />
			<path d="M-5.727564927611035,-1.7554676489946117 L-5.727564927611035,-1.993874165891195 " />
			<path d="M-5.727564927611036,-1.7554676489946117 L-5.161879502661797,-1.4288690166235212 " />
			<path d="M-5.161879502661797,-1.4288690166235214 L-5.161879502661797,-2.267355663018284 " />
			<path d="M-4.31335136523794,-1.9187669651801564 L-4.31335136523794,-3.0618621784789717 " />
			<path d="M6.151828996322964,2.980212520386203 L6.151828996322964,4.123307733685018 " />
			<path d="M4.83820987744393,4.344685278900841 L5.303300858899108,4.613205682241656 " />
			<path d="M5.3033008588991075,4.613205682241654 L5.3033008588991075,4.048200532973981 " />
			<path d="M4.879036790187179,4.613205682241653 L5.30330085889911,4.613205682241653 " />
			<path d="M-5.3740115370177595,-1.3063945294843635 L-5.161879502661797,-1.4288690166235216 " />
			<path d="M6.505382386916236,4.409081537009726 L6.444881779722493,4.42497346934362 L6.383834477447502,4.443670729257119 L6.3223172953878075,4.465149790148533 L6.260407640085654,4.489383625099875 L6.198183411929,4.516341740884601 L6.135722907130126,4.545990216336975 L6.073104719206186,4.578291745034775 L6.010407640085655,4.613205682241656 L5.947710560965124,4.650688096050059 L5.885092373041184,4.690691822660366 L5.82263186824231,4.733166525726691 L5.760407640085656,4.778058759694686 L5.6984979847835024,4.8253120370516145 L5.636980802723808,4.874866899404106 L5.5154328932550785,4.980629143659128 " />
			<path d="M-4.242640687119288,-1.796292478040996 L-4.303141294313031,-1.7804005457071015 L-4.364188596588022,-1.7617032857936028 L-4.425705778647717,-1.7402242249021889 L-4.487615433949871,-1.7159903899508464 L-4.549839662106525,-1.6890322741661201 L-4.612300166905398,-1.6593837987137467 L-4.674918354829338,-1.6270822700159457 L-4.737615433949869,-1.5921683328090657 L-4.8003125130704,-1.5546859190006619 L-4.86293070099434,-1.5146821923903562 L-4.925391205793214,-1.4722074893240307 L-4.987615433949868,-1.4273152553560349 L-5.049525089252022,-1.3800619779991068 L-5.1110422713117165,-1.3305071156466162 L-5.232590180780446,-1.2247448713915943 " />
			<path d="M-0.26629509039022503,-3.2251614946645186 L-0.26629509039022514,-2.521585626811077 " />

       </g>

       <!-- solid lines -->
       <g  stroke="rgb(200,20,20)" fill="none">
			<path d="M3.959797974644667,5.7971257245868575 L4.030508652763321,5.8379505536332434 " />
			<path d="M3.959797974644667,4.490731195102496 L3.9597979746446668,5.7971257245868575 " />
			<path d="M4.030508652763321,5.8379505536332434 L4.1012193308819755,5.7971257245868575 " />
			<path d="M4.030508652763323,5.756300895540471 L4.101219330881976,5.797125724586856 " />
			<path d="M4.030508652763322,5.756300895540471 L3.959797974644667,5.797125724586857 " />
			<path d="M4.101219330881976,5.7971257245868575 L4.101219330881976,4.490731195102497 " />
			<path d="M-9.545941546018392,-3.4701104689428366 L-3.464823227814083,-6.981045766932059 " />
			<path d="M-3.464823227814083,-6.981045766932058 L9.545941546018394,0.5307227776030263 " />
			<path d="M2.1920310216783,1.8371173070873885 L0.690559159102154,0.9702421230484015 " />
			<path d="M2.192031021678299,1.8371173070873852 L4.171930009000634,1.8371173070873852 " />
			<path d="M4.171930009000631,1.8371173070873834 L4.277996026178612,1.7758800635178045 " />
			<path d="M4.277996026178613,1.2451572859147828 L5.126524163602471,0.7552593373581469 " />
			<path d="M5.586143571373727,1.0206207261596596 L5.126524163602471,0.7552593373581491 " />
			<path d="M5.586143571373725,1.0206207261596574 L5.727564927611033,0.9389710680668857 " />
			<path d="M-3.9466755131617957,-1.7070665632786572 L-4.313351365237942,-1.9187669651801564 " />
			<path d="M-4.879036790187178,-2.245365597551246 L-5.1618795026617965,-2.4086649137367906 " />
			<path d="M-3.946675513161819,-1.7070665632786532 L-3.829893155655735,-1.7351692365752336 L-3.711334296729267,-1.7606721562379988 L-3.59117248641295,-1.7835379903246007 L-3.4695836211858713,-1.8037332671380293 L-3.346745686493094,-1.8212284242234893 L-3.2228384962052075,-1.8359978516428133 L-3.0980434294013697,-1.8480199294630595 L-2.972543164861139,-1.8572770594044228 L-2.8465214136537655,-1.8637556906011266 L-2.720162650216399,-1.8674463394375875 L-2.593651842314853,-1.8683436034308196 L-2.467174180282209,-1.8664461691387495 L-2.3409148059316225,-1.8617568140828749 L-2.21505854154016,-1.8542824026824418 L-2.089789619300388,-1.8440338762061044 L-1.9652914116357327,-1.8310262367557637 L-1.8417461627743927,-1.8152785253060395 L-1.719334721974752,-1.796813793831517 L-1.5982362787927926,-1.7756590715625749 L-1.4786281007790152,-1.7518453254191788 L-1.3606852739888513,-1.7254074146805745 L-1.2445804466864263,-1.6963840399572208 L-1.130483576616831,-1.6648176865396735 L-1.0185616822168482,-1.6307545622073363 L-0.9089785981283252,-1.5942445295881165 L-0.8018947353720951,-1.5553410331680113 L-0.6974668465334939,-1.5141010210574595 L-0.5958477963031985,-1.4705848616289805 L-0.49718633770927667,-1.4248562551481263 L-0.40162689436803856,-1.3769821405271219 L-0.3093093490723855,-1.327032597337663 L-0.2203688390271763,-1.275080743226338 " />
			<path d="M0.6446329077390849,-0.2762627605363528 L0.664699397980355,-0.19747483850666184 L0.6790575944743549,-0.11827232129642526 L0.6876825167453293,-0.038793005916691756 L0.690559159102154,0.04082482904636951 " />
			<path d="M3.1819805153394647,4.939804314612745 L3.9597979746446677,4.490731195102496 " />
			<path d="M4.030508652763322,4.449906366056111 L4.030508652763322,5.7563008955404715 " />
			<path d="M3.9597979746446677,4.490731195102496 L4.030508652763322,4.44990636605611 " />
			<path d="M4.101219330881978,4.490731195102498 L4.030508652763324,4.449906366056112 " />
			<path d="M4.171930009000633,4.531556024148885 L4.101219330881978,4.490731195102498 " />
			<path d="M-3.464823227814083,-5.348052605076604 L9.545941546018394,2.1637159394584806 " />
			<path d="M-9.54594154601839,-1.8371173070873827 L-3.4648232278140814,-5.348052605076606 " />
			<path d="M-9.545941546018392,-1.837117307087383 L-8.874190103891173,-1.4492814311467135 " />
			<path d="M-8.874190103891173,-1.449281431146714 L-8.09637264458597,-1.898354550656964 " />
			<path d="M-7.954951288348662,-1.81670489256419 L-8.096372644585971,-1.8983545506569626 " />
			<path d="M-8.237794000823282,-1.6534055763786457 L-7.954951288348662,-1.816704892564191 " />
			<path d="M3.1819805153394682,4.939804314612751 L-8.237794000823282,-1.6534055763786446 " />
			<path d="M3.889087296526012,4.694855340334428 L3.9597979746446668,4.654030511288042 " />
			<path d="M4.101219330881976,4.572380853195269 L4.171930009000631,4.531556024148882 " />
			<path d="M3.8890872965260144,4.6948553403344295 L3.959797974644667,4.7356801693808155 " />
			<path d="M4.101219330881978,4.817329827473589 L4.525483399593906,5.062278801751907 " />
			<path d="M4.525483399593904,5.062278801751905 L5.091168824543145,4.735680169380812 " />
			<path d="M6.0811183182043065,4.164132562731407 L9.54594154601839,2.163715939458476 " />
			<path d="M-3.9466755131617957,-0.07407340142320384 L-5.727564927611034,-1.1022703842524275 " />
			<path d="M-4.879036790187179,-2.408664913736791 L-5.161879502661797,-2.5719642299223358 " />
			<path d="M-5.161879502661797,-2.5719642299223358 L-5.727564927611034,-2.898562862293426 " />
			<path d="M-1.767766952966367,-3.3884608108500625 L-3.7476659402887,-3.3884608108500625 " />
			<path d="M-3.7476659402887,-3.3884608108500625 L-4.879036790187177,-3.3884608108500625 " />
			<path d="M0.01312246148287155,-2.360263828020838 L-1.767766952966367,-3.3884608108500616 " />
			<path d="M4.370939581873813,0.15572305951595866 L4.1807215739196755,0.1999732813147841 L3.9861184981148883,0.23733092143070578 L3.7878787984357283,0.26765230227488157 L3.5867649053241135,0.2908208077313985 L3.3835503033779752,0.3067473316631788 L3.179016556527326,0.31537062061443577 L2.9739503021371863,0.31665750939163617 L2.7691402255980693,0.3106030486169269 L2.565374027039755,0.2972305237634576 L2.363435391834376,0.27659136559938435 L2.1641009765402734,0.24876495238499174 L1.9681374218786942,0.21385830458368038 L1.776298404231423,0.17200567326096272 L1.5893217369992978,0.12336802375449074 L1.407926532969801,0.0681324166009123 L1.3195409066819686,0.03810579569636241 L1.232810438607256,0.006511288100523593 L1.1478185402065004,-0.026620720739695125 L1.0646469509025653,-0.06125836671333951 L0.9833756594689222,-0.09736833769014308 L0.9040828271018939,-0.13491590555786614 L0.8268447122505433,-0.17386495962142834 L0.7517355972764803,-0.21417804133172003 L0.6788277170141419,-0.2558163803106852 L0.6081911893002494,-0.29873993163803036 L0.5398939475392437,-0.34290741436370453 L0.47400167536956195,-0.38827635120910453 L0.4105777434935831,-0.43480310941883515 L0.3496831487319989,-0.48244294272372024 L0.29137645536122836,-0.5311500343747186 L0.2357137387902788,-0.5808775412063545 L0.18274853163123295,-0.6315776386872878 L0.13253177221523105,-0.6832015669146925 L0.08511175560344775,-0.7356996775082097 L0.04053408714019158,-0.789021481358383 L-0.001158361407214148,-0.8431156971836476 L-0.03992549307957605,-0.8979303008491768 L-0.07573002428835762,-0.95341257540015 L-0.10853752067249633,-1.0095091617613354 L-0.1383164302150317,-1.0661661100542161 L-0.16503811358768372,-1.1233289314823118 L-0.18867687169420977,-1.180942650734791 L-0.20920997038604838,-1.2389518588579853 L-0.22661766232647462,-1.2973007665439518 L-0.24088320598224433,-1.355933257784829 L-0.2519928817244619,-1.414792943841394 L-0.25993600502318337,-1.473823217473914 L-0.26470493672307427,-1.532967307383138 L-0.2662950903902255,-1.592168332809057 " />
			<path d="M-0.2662950903902255,-1.5921683328090654 L-0.26518795035556897,-1.6415683182939402 L-0.26186727159607015,-1.6909352253922192 L-0.2563352776487333,-1.7402359978666966 L-0.24859567275421135,-1.7894376237641219 L-0.23865363937643158,-1.8385071575201057 L-0.22651583473240366,-1.8874117420195755 L-0.21219038633452403,-1.9361186305980014 L-0.19568688654837008,-1.9845952089686685 L-0.1770163861696208,-2.032809017061306 L-0.1561913870244087,-2.080727770757452 L-0.13322583359805762,-2.1283193835080034 L-0.10813510369781154,-2.175551987818468 L-0.08093599815580577,-2.222393956587542 L-0.05164672957917826,-2.268813924284716 L0.013122461482864889,-2.3602638280208303 " />
			<path d="M6.151828996322967,1.1839200423452079 L4.370939581873728,0.1557230595159833 " />
			<path d="M6.1518289963229655,1.1839200423452052 L6.1518289963229655,2.327015255644022 " />
			<path d="M5.586143571373727,2.6536138880151134 L5.126524163602471,2.388252499213603 " />
			<path d="M4.277996026178613,2.878150447770236 L5.126524163602471,2.3882524992136003 " />
			<path d="M5.30330085889911,3.470110468942842 L4.73761543394987,3.143511836571749 " />
			<path d="M4.73761543394987,3.143511836571749 L4.277996026178615,2.8781504477702384 " />
			<path d="M2.192031021678299,3.470110468942839 L4.171930009000634,3.4701104689428393 " />
			<path d="M2.1920310216783,3.470110468942842 L0.41114160722906057,2.4419134861136174 " />
			<path d="M-3.946675513161819,-0.0740734014231994 L-3.756457505207681,-0.11832362322202217 L-3.5618544294028935,-0.15568126333794097 L-3.3636147297237375,-0.18600264418211387 L-3.162500836612123,-0.20917114963862837 L-2.959286234665986,-0.22509767357040666 L-2.7547524878153404,-0.2337209625216614 L-2.549686233425202,-0.2350078512988596 L-2.344876156886088,-0.22895339052414831 L-2.141109958327776,-0.21558086567067725 L-1.939171323122399,-0.1949417075066029 L-1.7398369078283014,-0.16711529429220895 L-1.5438733531667244,-0.13220864649089603 L-1.3520343355194553,-0.09035601516817748 L-1.1650576682873355,-0.04171836566170528 L-0.9836624642578409,0.013517241491873833 L-0.8952768379700102,0.04354386239642416 L-0.8085463698952979,0.0751383699922632 L-0.7235544714945432,0.10827037883248258 L-0.6403828821906103,0.1429080248061272 L-0.5591115907569684,0.17901799578293054 L-0.47981875838994137,0.21656556365065383 L-0.40258064353859346,0.2555146177142156 L-0.3274715285645322,0.29582769942450704 L-0.25456364830219336,0.3374660384034729 L-0.18392712058830307,0.3803895897308174 L-0.11562987882730003,0.42455707245649044 L-0.04973760665761784,0.4699260093018911 L0.013686325218359663,0.5164527675116215 L0.07458091997994121,0.5640926008165057 L0.1328876133507113,0.6127996924675043 L0.18855032992166,0.6625271992991395 L0.24151553708070406,0.7132272967800724 L0.29173229649670596,0.764851225007477 L0.3391523131084888,0.8173493356009945 L0.38372998157174365,0.8706711394511671 L0.4254224301191485,0.9247653552764312 L0.46418956179150994,0.9795799589419604 L0.49999409300028974,1.035062233492932 L0.532801589384428,1.0911588198541167 L0.5625804989269634,1.1478157681469983 L0.5893021822996141,1.2049785895750924 L0.6129409404061397,1.2625923088275701 L0.6334740390979778,1.3206015169507652 L0.6508817310384036,1.3789504246367308 L0.6651472746941733,1.4375829158776063 L0.6762569504363904,1.4964426019341712 L0.6842000737351119,1.5554728755666898 L0.6889690054350028,1.6146169654759122 L0.690559159102154,1.6738179909018234 " />
			<path d="M0.690559159102154,1.6738179909018407 L0.6894520190674975,1.7232179763867166 L0.6861313403079983,1.7725848834849955 L0.6805993463606619,1.8218856559594738 L0.6728597414661395,1.8710872818569 L0.6629177080883593,1.920156815612885 L0.6507799034443305,1.9690614001123556 L0.6364544550464504,2.017768288690782 L0.6199509552602964,2.0662448670614504 L0.6012804548815462,2.1144586751540886 L0.5804554557363337,2.162377428850236 L0.5574899023099817,2.2099690416007878 L0.5323991724097348,2.2572016459112536 L0.5052000668677281,2.3040436146803285 L0.4759107982910993,2.350463582377503 L0.411141607229049,2.441913486113626 " />
			<path d="M-8.237794000823282,-1.8167048925641893 L-8.237794000823282,-1.653405576378646 " />
			<path d="M3.8890872965260117,4.531556024148884 L3.8890872965260117,4.694855340334429 " />
			<path d="M-3.4648232278140823,-5.348052605076606 L-3.4648232278140823,-6.981045766932059 " />
			<path d="M9.54594154601839,2.163715939458476 L9.54594154601839,0.5307227776030227 " />
			<path d="M-9.545941546018392,-1.8371173070873823 L-9.545941546018392,-3.470110468942836 " />
			<path d="M-3.9466755131617957,-1.7070665632786592 L-3.9466755131617957,-0.07407340142320562 " />
			<path d="M6.151828996322964,1.183920042345206 L6.151828996322964,2.327015255644022 " />
			<path d="M5.586143571373725,2.653613888015112 L5.586143571373725,1.0206207261596583 " />
			<path d="M5.126524163602469,0.7552593373581475 L5.126524163602469,2.388252499213601 " />
			<path d="M4.277996026178612,1.2451572859147835 L4.277996026178612,2.878150447770237 " />
			<path d="M4.171930009000631,1.837117307087384 L4.171930009000631,3.470110468942838 " />
			<path d="M2.1920310216782974,1.8371173070873843 L2.1920310216782974,3.470110468942838 " />
			<path d="M-5.727564927611035,-1.1022703842524306 L-5.727564927611035,-1.510518674716296 " />
			<path d="M-5.727564927611035,-1.993874165891195 L-5.727564927611035,-2.898562862293427 " />
			<path d="M-5.161879502661797,-2.267355663018284 L-5.161879502661797,-2.5719642299223366 " />
			<path d="M-4.879036790187179,-2.2453655975512476 L-4.31335136523794,-1.918766965180157 " />
			<path d="M-4.879036790187179,-3.388460810850063 L-4.879036790187179,-2.2453655975512476 " />
			<path d="M-3.7476659402887025,-2.245365597551247 L-4.879036790187178,-2.245365597551247 " />
			<path d="M-3.747665940288702,-2.245365597551247 L-3.7476659402887016,-3.388460810850063 " />
			<path d="M6.151828996322964,3.4701104689428375 L6.151828996322964,4.123307733685019 " />
			<path d="M6.151828996322964,2.327015255644022 L6.151828996322964,3.470110468942837 " />
			<path d="M5.586143571373725,3.7967091013139287 L6.151828996322965,4.12330773368502 " />
			<path d="M5.586143571373725,3.796709101313927 L5.586143571373725,2.653613888015112 " />
			<path d="M4.737615433949868,4.286607049870565 L4.83820987744393,4.344685278900841 " />
			<path d="M5.3033008588991075,4.048200532973981 L5.3033008588991075,3.4701104689428384 " />
			<path d="M4.737615433949868,4.286607049870563 L4.737615433949868,3.1435118365717476 " />
			<path d="M4.171930009000632,4.613205682241653 L4.879036790187179,4.613205682241653 " />
			<path d="M4.171930009000631,3.470110468942838 L4.171930009000631,4.613205682241653 " />
			<path d="M-5.727564927611034,-1.1022703842524313 L-5.3740115370177595,-1.3063945294843635 " />
			<path d="M-4.31335136523794,-1.9187669651801573 L-3.7476659402887016,-2.245365597551248 " />
			<path d="M5.586143571373725,3.7967091013139265 L6.151828996322964,3.4701104689428357 " />
			<path d="M4.17193000900063,4.613205682241652 L4.737615433949868,4.286607049870562 " />
			<path d="M4.666904755831219,4.490731195102497 L5.515432893255076,4.980629143659132 " />
			<path d="M5.515432893255074,4.9806291436591295 L6.505382386916235,4.409081537009724 " />
			<path d="M5.65685424949238,3.919183588453092 L6.505382386916237,4.409081537009727 " />
			<path d="M4.666904755831217,4.4907311951024935 L5.656854249492378,3.9191835884530883 " />
			<path d="M5.656854249492379,3.919183588453089 L5.596353642298636,3.935075520786983 L5.535306340023645,3.953772780700482 L5.47378915796395,3.975251841591896 L5.4118795026617965,3.9994856765432383 L5.349655274505142,4.026443792327965 L5.287194769706269,4.056092267780338 L5.224576581782329,4.0883937964781385 L5.161879502661798,4.123307733685019 L5.099182423541267,4.160790147493422 L5.036564235617327,4.200793874103729 L4.974103730818453,4.2432685771700545 L4.911879502661799,4.28816081113805 L4.849969847359645,4.335414088494978 L4.788452665299951,4.384968950847469 L4.666904755831221,4.490731195102491 " />
			<path d="M-6.0811183182043065,-1.7146428199482275 L-5.091168824543146,-2.2861904265976323 " />
			<path d="M-5.0911688245431455,-2.286190426597632 L-5.151669431736888,-2.2702984942637374 L-5.212716734011879,-2.2516012343502387 L-5.274233916071574,-2.230122173458825 L-5.336143571373728,-2.2058883385074823 L-5.398367799530382,-2.178930222722756 L-5.460828304329255,-2.1492817472703827 L-5.523446492253195,-2.1169802185725817 L-5.586143571373726,-2.0820662813657016 L-5.648840650494257,-2.044583867557298 L-5.7114588384181975,-2.004580140946992 L-5.773919343217071,-1.9621054378806666 L-5.836143571373725,-1.9172132039126708 L-5.898053226675879,-1.8699599265557427 L-5.959570408735574,-1.820405064203252 L-6.081118318204303,-1.7146428199482302 " />
			<path d="M-5.2325901807804485,-1.2247448713915912 L-4.242640687119287,-1.796292478040996 " />
			<path d="M-5.091168824543146,-2.2861904265976314 L-4.242640687119288,-1.796292478040995 " />
			<path d="M-6.081118318204307,-1.7146428199482262 L-5.232590180780449,-1.2247448713915898 " />
			<path d="M-0.26629509039022514,-2.521585626811077 L-0.2662950903902252,-1.5921683328090652 " />
			<path d="M0.6905591591021546,0.04082482904638707 L0.6905591591021544,1.6738179909018407 " />

       </g>
    </g>
    
</svg>
