<?xml version="1.0" encoding="UTF-8" standalone="no"?>
<svg
   xmlns:svg="http://www.w3.org/2000/svg"
   xmlns="http://www.w3.org/2000/svg"
   width="480.0"
   height="480.0"

>
    <g transform="scale(2.0567426196183467, -2.0567426196183467)   translate(102.10490125269448,-81.29354977144894)" stroke-width="0.48620570724866"  fill="none">
       <!-- hidden lines -->
       <g  stroke="rgb(100,40,40)" fill="none" stroke-dasharray="0.48620570724866,0.48620570724866" >
			<path d="M96.26702730475878,-16.73488084878056 L92.73149339882605,-14.693639396461244 " />
			<path d="M92.73149339882607,-14.693639396461247 L92.73149339882607,-12.97899657651302 " />
			<path d="M47.803795160304375,-19.00200583119032 L68.77854713548344,-2.825235347657653 " />
			<path d="M92.73149339882607,-14.693639396461247 L92.72234322121001,-14.698922253971018 " />
			<path d="M68.77854713548345,-2.8252353476576815 L69.56653868303212,-3.1684383686310866 L70.35209402476622,-3.5134979890335103 L71.13520003768167,-3.8604084445113074 L71.91584363969136,-4.209163939791935 L72.69401178984359,-4.559758648780644 L73.46969148854006,-4.912186714657963 L74.24286977775313,-5.266442249977501 L75.01353374124187,-5.6225193367642134 L75.78167050476847,-5.980412026613493 L76.54726723631293,-6.340114340790265 L77.31031114628732,-6.701620270329016 L78.07078948774952,-7.064923776134137 L78.82868955661638,-7.4300187890807905 L79.58399869187562,-7.796899210116351 L80.33670427579773,-8.165558910362279 L81.08679373414645,-8.535991731216527 L81.83425453638878,-8.908191484456282 L82.5790741959045,-9.282151952341536 L83.32124027019472,-9.657866887718797 L84.06074036108961,-10.03533001412552 L84.79756211495581,-10.41453502589502 L85.53169322290253,-10.79547558826178 L86.2631214209872,-11.1781453374671 L86.99183449042039,-11.562537880865662 L87.71782025777,-11.948646797032154 L88.44106659516444,-12.33646563586855 L89.16156142049553,-12.725987918712079 L89.87929269762017,-13.117207138443149 L90.59424843656123,-13.510116759594226 L91.30641669370806,-13.904710218458916 L92.015785572016,-14.300980923201735 L92.72234322120423,-14.698922253967652 " />
			<path d="M77.38727624707798,-12.284974482724461 L81.84204896855321,-14.856938712646794 " />
			<path d="M87.85245660863887,-18.32704918158963 L89.33738084913062,-19.18437059156375 " />
			<path d="M77.38727624707799,-12.28497448272445 L76.11448404094219,-13.019821405559409 " />
			<path d="M76.11448404094219,-13.019821405559416 L81.84204896855321,-16.326632558316703 " />
			<path d="M71.02331521639903,-22.572831402413804 L70.81118318204307,-22.695305889552962 " />
			<path d="M65.08361825443205,-19.38849473679567 L70.8111831820431,-22.69530588955296 " />
			<path d="M65.08361825443205,-19.38849473679567 L63.81082604829627,-20.123341659630622 " />
			<path d="M63.81082604829624,-20.123341659630622 L75.7609306503489,-27.02273776846991 " />
			<path d="M89.33738084913062,-19.18437059156375 L75.76093065034891,-27.02273776846992 " />
			<path d="M92.7223432212101,-14.698922253970942 L92.7223432212101,-12.984279434022715 " />
			<path d="M-78.7670273047588,25.123867739650777 L-78.7670273047588,26.838510559599005 " />
			<path d="M-78.76702730475878,4.916608318013889 L-78.7670273047588,25.123867739650798 " />
			<path d="M-73.7670273047588,25.116396650912506 L-73.7670273047588,26.831039470860734 " />
			<path d="M68.77854713548345,-2.8252353476576566 L68.77854713548345,-1.9679139376835426 " />
			<path d="M68.77854713548331,-1.967913937683491 L68.13811414274417,-1.6911194400199179 " />
			<path d="M68.13811414274394,-2.5484408499939413 L68.13811414274394,-1.6911194400198273 " />
			<path d="M54.63405242951109,2.8648169912052737 L55.4964919950238,2.542148110856587 L56.356545477562605,2.2173632434077177 L57.21419730256625,1.8904682703321782 L58.06943193896501,1.5614691113149632 L58.92223389946162,1.2303717241453853 L59.772587740811474,0.8971821046092998 L60.62047806410274,0.5619062863803634 L61.465889515035116,0.22455034091083803 L62.30880678419737,-0.11487962267824514 L63.14921460734533,-0.45637745770794425 L63.987097765678016,-0.7999369800525216 L64.82244108611275,-1.1455519682514819 L65.65522944156075,-1.4932161636222787 L66.48544775120052,-1.8429232703736886 L67.31308098075098,-2.194666955719569 L68.13811414274306,-2.5484408499935682 " />
			<path d="M54.63405242951105,2.8648169912052897 L54.63405242951105,3.7221384011794036 " />
			<path d="M54.6340524295112,3.7221384011793504 L53.96104960324686,3.9718496983734326 " />
			<path d="M53.96104960324608,3.1145282883996064 L53.96104960324608,3.9718496983737204 " />
			<path d="M39.82251582642462,7.957792572000017 L40.72262795863011,7.671467714158027 L41.62062154523184,7.382933983246815 L42.51648032461776,7.0921966042743065 L43.410188073834945,6.799260842153785 L44.301728608883124,6.50413200160871 L45.19108578500747,6.206815427076691 L46.07824349699152,5.907316502612588 L46.96318567944847,5.605640651790978 L47.845896307112,5.3017933376081885 L48.72635939512665,4.995780062383133 L49.604558999337485,4.687606367657693 L50.480479216578544,4.377277834096446 L51.35410418496065,4.064800081385613 L52.22541808415917,3.7501787681312493 L53.094405135700214,3.4334195917566888 L53.961049603245186,3.1145282883999386 " />
			<path d="M39.82251582642465,7.957792572000001 L39.82251582642465,8.815113981974115 " />
			<path d="M39.822515826424734,8.81511398197408 L39.120372634771556,9.036469607167234 " />
			<path d="M39.12037263477083,8.179148197193339 L39.12037263477083,9.036469607167453 " />
			<path d="M24.41941352164571,12.427738758581157 L25.3526114554424,12.179216969089921 L26.28396917662819,11.928404676471288 L27.21346981940593,11.675306422642038 L28.14109655160766,11.419926790915099 L29.066832575000078,11.162270405916402 L29.990661125588417,10.902341933501177 L30.912565473919685,10.640146080669666 L31.832528925386214,10.375687595481509 L32.75053482052775,10.108971266970087 L33.66656653533276,9.840001925055688 L34.580607481540156,9.56878444045796 L35.49264110693923,9.295323724607812 L36.40265089566934,9.019624729558473 L37.31062036851935,8.741692447895772 L38.21653308322588,8.461531912647686 L39.12037263476982,8.179148197193669 " />
			<path d="M24.4194135216457,12.42773875858116 L24.4194135216457,13.285060168555274 " />
			<path d="M24.419413521645737,13.285060168555276 L23.691707925362763,13.476932144220754 " />
			<path d="M23.691707925362103,12.619610734246802 L23.691707925362103,13.476932144220916 " />
			<path d="M8.503236193812398,16.251877729785292 L9.464764566437836,16.042425418717727 L10.424740436746916,15.830612646343525 L11.383146420701337,15.616443248343785 L12.339965162691442,15.399921103075457 L13.295179335850719,15.181050131500882 L14.248771642369533,14.959834297116998 L15.200724813808293,14.73627760588343 L16.151021611410386,14.510384106149928 L17.099644826414007,14.282157888583129 L18.04657728036399,14.051603086092456 L18.991801825423025,13.818723873755346 L19.935301344681875,13.583524468741487 L20.877058752469566,13.346009130236553 L21.817056994662707,13.106182159365076 L22.755279048994268,12.864047899112578 L23.691707925361612,12.619610734246919 " />
			<path d="M8.503236193812414,16.251877729785292 L8.503236193812414,17.109199139759408 " />
			<path d="M8.50323619381237,17.10919913975941 L7.753676413813224,17.270609730290218 " />
			<path d="M7.753676413812611,16.41328832031623 L7.753676413812611,17.270609730290346 " />
			<path d="M-7.844910965726839,19.410722549986247 L-6.859951882457608,19.241407038308807 L-5.876249680014126,19.06967313551519 L-4.89382217209095,18.89552395150514 L-3.912687149299231,18.718962639916356 L-2.932862378844888,18.539992398067426 L-1.9543656042066715,18.35861646689969 L-0.9772145448148137,18.1748381309188 L-0.0014268957303045227,17.98866071813515 L0.9729796726756774,17.800087600003565 L1.9459875150416792,17.609122191362246 L2.917579011335505,17.415767950371134 L3.8877365671734765,17.220028378448944 L4.856442614138729,17.02190702021005 L5.823679610099546,16.821407463400135 L6.789430039527161,16.61853333883127 L7.7536764138121015,16.413288320316326 " />
			<path d="M-7.844910965726793,19.41072254998625 L-7.844910965726793,20.268043959960366 " />
			<path d="M-7.8449109657269105,20.268043959960366 L-8.61250534461783,20.39817065398576 " />
			<path d="M-8.612505344618414,19.540849244011753 L-8.612505344618414,20.39817065398587 " />
			<path d="M-24.541721546377524,21.88817647005223 L-23.538350878180054,21.759860550801875 L-22.53593506454117,21.62908063419252 L-21.534492258036977,21.495839088495302 L-20.534040593623573,21.36013832655854 L-19.534598188308458,21.22198080576399 L-18.536183140822814,21.081369027982532 L-17.538813531293563,20.938305539528756 L-16.542507420915804,20.792792931114803 L-15.547282851626086,20.64483383780359 L-14.553157845775516,20.49443093896093 L-13.56015040580322,20.34158695820713 L-12.568278513910677,20.186304663367622 L-11.577560131735964,20.02858686642284 L-10.5880132000282,19.868436423457382 L-9.599655638323156,19.705856234608092 L-8.612505344618995,19.540849244011838 " />
			<path d="M-24.54172154637752,21.888176470052244 L-24.54172154637752,22.74549788002636 " />
			<path d="M-24.54172154637771,22.745497880026377 L-25.323439039154366,22.843677581741375 " />
			<path d="M-25.32343903915443,21.98635617176727 L-25.32343903915443,22.843677581741385 " />
			<path d="M-41.50211242867211,23.67161495268988 L-40.48544312247836,23.584952494378427 L-39.46942177885611,23.495792988430992 L-38.454066796761666,23.40413804942179 L-37.43939656308434,23.309989337114388 L-36.42542945231325,23.213348556431697 L-35.412183826204995,23.114217457425013 L-34.39967803345088,23.01259783524239 L-33.387930409344584,22.90849153009617 L-32.37695927545035,22.801900427229583 L-31.366782939271133,22.692826456882614 L-30.35741969391684,22.58127159425709 L-29.348887817773452,22.46723785948086 L-28.341205574171788,22.35072731757134 L-27.334391211056698,22.231742078397872 L-26.328462960656857,22.110284296643812 L-25.32343903915502,21.986356171767312 " />
			<path d="M-41.5021124286721,23.67161495268987 L-41.5021124286721,24.528936362663984 " />
			<path d="M-41.5021124286724,24.528936362664027 L-42.293969582176445,24.594668770813357 " />
			<path d="M-42.29396958217684,23.73734736083927 L-42.29396958217684,24.594668770813385 " />
			<path d="M-73.76702730475745,25.116396650912463 L-72.78003899574558,25.109332712016197 L-71.79310893821469,25.099939782647937 L-70.80625361921105,25.088218019720216 L-69.81948952453224,25.074167619049547 L-68.8328331384521,25.057788815353348 L-67.8463009434451,25.039081882245796 L-66.85990941991095,25.01804713223339 L-65.87367504589949,24.99468491670973 L-64.88761429683531,24.968995625949617 L-63.90174364524249,24.940979689102534 L-62.916079560469555,24.9106375741855 L-61.93063850841406,24.877969788075177 L-60.945436951247885,24.842976876499534 L-59.96049134714204,24.80565942402862 L-58.975818149991596,24.766018054064773 L-57.99143380914113,24.724053428832406 L-57.00735476910969,24.67976624936668 L-56.02359746931616,24.63315725550197 L-55.0401783438047,24.58422722585945 L-54.05711382096995,24.532976977834096 L-53.074420323282965,24.47940736758099 L-52.09211426701667,24.42351929000108 L-51.11021206197145,24.36531367872621 L-50.128730111201406,24.304791506103527 L-49.14768481074009,24.241953783179184 L-48.1670925493265,24.17680155968148 L-47.1869697081316,24.10933592400343 L-46.20733266048451,24.039558003184396 L-45.22819777159883,23.96746896289136 L-44.24958139829954,23.8930700073995 L-43.27149988874964,23.816362379572013 L-42.293969582177375,23.737347360839323 " />
			<path d="M-73.7670273047588,25.12386773965078 L-73.7670273047588,26.83851055959901 " />
			<path d="M-73.76702730475878,25.123867739650787 L-78.76702730475878,25.123867739650787 " />
			<path d="M-73.7670273047588,25.116396650912485 L-73.7670273047588,25.123867739650798 " />
			<path d="M77.38727624707795,-12.284974482724454 L77.38727624707795,-12.040025508446128 " />
			<path d="M89.33738084913062,-19.18437059156374 L89.33738084913062,-17.469727771615513 " />
			<path d="M76.11448404094219,-13.019821405559409 L76.11448404094219,-11.305178585611182 " />
			<path d="M70.81118318204307,-22.695305889552966 L70.81118318204307,-22.450356915274643 " />
			<path d="M65.08361825443205,-19.388494736795675 L65.08361825443205,-19.143545762517366 " />
			<path d="M63.81082604829625,-20.123341659630622 L63.81082604829625,-18.408698839682394 " />
			<path d="M75.7609306503489,-27.022737768469927 L75.7609306503489,-25.3080949485217 " />
			<path d="M-59.96702730475879,20.56280061305274 L-59.96702730475879,21.238212948459644 " />
			<path d="M-59.96702730475878,19.523570128511416 L-59.96702730475878,20.56280061305274 " />
			<path d="M-59.96702730475878,19.523570128511416 L-59.96702730475878,21.238212948459644 " />
			<path d="M-59.96702730475879,19.52357012851142 L-68.0670273047588,19.523570128511416 " />
			<path d="M-68.0670273047588,19.523570128511412 L-68.0670273047588,21.23821294845964 " />
			<path d="M-76.8670273047588,20.56280061305274 L-76.8670273047588,22.27744343300097 " />
			<path d="M-59.967027304758794,20.562800613052744 L-68.0670273047588,20.562800613052744 " />
			<path d="M-68.06702730475878,10.516905929153248 L-68.06702730475878,11.192318264560152 " />
			<path d="M-68.06702730475878,10.516905929153252 L-68.06702730475878,19.523570128511416 " />
			<path d="M-76.8670273047588,9.477675444611922 L-76.8670273047588,11.192318264560148 " />
			<path d="M-76.86702730475878,9.477675444611922 L-76.86702730475879,20.562800613052737 " />
			<path d="M-59.96702730475879,10.516905929153252 L-68.0670273047588,10.51690592915325 " />
			<path d="M-59.96702730475877,10.51690592915325 L-59.96702730475877,11.192318264560154 " />
			<path d="M-59.96702730475879,9.477675444611933 L-59.96702730475879,11.192318264560159 " />
			<path d="M-59.96702730475877,9.47767544461193 L-76.86702730475878,9.477675444611926 " />
			<path d="M-59.96702730475877,9.477675444611922 L-59.96702730475877,10.51690592915325 " />
			<path d="M47.80379516030432,-18.144684421216215 L68.77854713548342,-1.967913937683523 " />
			<path d="M-47.065778293088805,4.5758663944373295 L-42.29396958217684,23.737347360839266 " />
			<path d="M-47.27499691220728,4.593058027438639 L-42.29396958217686,24.5946687708134 " />
			<path d="M-46.483139758702514,4.527325619289243 L-41.50211242867209,24.528936362664 " />
			<path d="M-46.483139758702514,3.670004209315141 L-41.50211242867209,23.671614952689882 " />
			<path d="M-32.45472750965024,3.0596573190659564 L-25.323439039154447,21.986356171767262 " />
			<path d="M-32.76323610828385,3.098185692695435 L-25.32343903915447,22.843677581741396 " />
			<path d="M-31.981518615506896,3.0000059909804113 L-24.54172154637752,22.745497880026367 " />
			<path d="M-31.981518615506886,2.14268458100632 L-24.541721546377516,21.888176470052244 " />
			<path d="M-18.07164640856649,0.9415819063760911 L-8.612505344618416,19.540849244011746 " />
			<path d="M-18.473160652336542,1.009416119863646 L-8.612505344618441,20.39817065398587 " />
			<path d="M-17.705566273444923,0.8792894258381398 L-7.844910965726825,20.26804395996036 " />
			<path d="M-17.705566273444894,0.021968015864067436 L-7.844910965726818,19.41072254998624 " />
			<path d="M-3.9912567865009505,-1.767116316871364 L7.753676413812619,16.41328832031623 " />
			<path d="M-4.477589493310496,-1.6626068001023926 L7.7536764138126095,17.270609730290346 " />
			<path d="M-3.7280297133106783,-1.8240173906333288 L8.503236193812427,17.10919913975941 " />
			<path d="M-3.72802971331065,-2.681338800607408 L8.503236193812437,16.251877729785303 " />
			<path d="M9.713388210146384,-5.052071035355175 L23.691707925362095,12.619610734246804 " />
			<path d="M9.15215914623969,-4.904267050884964 L23.69170792536208,13.476932144220928 " />
			<path d="M9.879864742523328,-5.096139026550609 L24.41941352164571,13.285060168555272 " />
			<path d="M9.87986474252336,-5.953460436524688 L24.41941352164573,12.427738758581178 " />
			<path d="M22.97130303424311,-8.895877961354147 L39.120372634770845,8.179148197193364 " />
			<path d="M22.346631191464816,-8.699045874901111 L39.12037263477081,9.036469607167458 " />
			<path d="M23.048774383118623,-8.92040150009446 L39.82251582642462,8.815113981974122 " />
			<path d="M23.048774383118676,-9.77772291006852 L39.82251582642464,7.95779257200001 " />
			<path d="M35.71159346353103,-13.280318744718127 L53.961049603246096,3.1145282883996046 " />
			<path d="M35.038590637266026,-13.027605949104768 L53.961049603246074,3.9718496983737133 " />
			<path d="M35.71159346353099,-13.277317246299088 L54.634052429511044,3.7221384011793965 " />
			<path d="M35.711593463531024,-14.134638656273173 L54.63405242951105,2.864816991205288 " />
			<path d="M47.803795160304375,-18.231277600918514 L68.13811414274393,-2.5484408499939306 " />
			<path d="M47.16336216756483,-17.8678899235525 L68.13811414274392,-1.6911194400198077 " />

       </g>

       <!-- solid lines -->
       <g  stroke="rgb(200,20,20)" fill="none">
			<path d="M96.26702730475881,-16.734880848780563 L96.26702730475881,-15.020238028832336 " />
			<path d="M96.26702730475881,-15.020238028832331 L71.51828996322965,-29.308928195067537 " />
			<path d="M71.51828996322963,-31.02357101501576 L71.51828996322963,-29.308928195067534 " />
			<path d="M96.26702730475881,-16.734880848780563 L71.51828996322965,-31.02357101501577 " />
			<path d="M92.73149339882605,-12.978996576513008 L96.26702730475878,-15.020238028832324 " />
			<path d="M71.51828996322963,-29.30892819506753 L69.75052301026331,-28.288307468907895 " />
			<path d="M-76.2670273047588,6.6312511379620815 L-74.9999671247084,6.629006801868769 L-73.7329546487576,6.622273878086844 L-72.46603757921007,6.611052620107074 L-71.19926361477738,6.595343450403476 L-69.93268044878332,6.575146960417399 L-68.66633576736818,6.550463910535299 L-67.40027724769351,6.521295230060019 L-66.13455255614697,6.4876420171759435 L-64.86920934654782,6.449505538907474 L-63.604295258352735,6.406887231071465 L-62.339857914862186,6.359788698223156 L-61.07594492142749,6.3082117135956395 L-59.8126038636585,6.252158219033291 L-58.549882305631996,6.191630324918435 L-57.28782778810093,6.126630310092111 L-56.02648782670458,6.057160621768148 L-54.76590991017957,5.983223875441027 L-53.506141498572006,5.904822854787469 L-52.24723002145052,5.821960511561585 L-50.98922287612072,5.734639965483751 L-49.732167425840586,5.642864504123196 L-48.47611099803731,5.546637582774153 L-47.22110088252548,5.445962824325818 L-45.967184329726635,5.340844019125967 L-44.714408548890276,5.231285124838195 L-43.46282070631642,5.117290266292926 L-42.21246792358003,4.998863735332193 L-40.96339727575662,4.87600999064793 L-39.71565578965011,4.748733657614167 L-38.46929044202223,4.61703952811294 L-37.224348157823854,4.480932560353779 L-35.98087580842836,4.3404178786870915 L-34.73892020986687,4.195500773411226 L-33.498528121065725,4.046186700573259 L-32.25974624208599,3.8924812817636933 L-31.02262121236525,3.7343903039046467 L-29.78719960896165,3.5719197190320813 L-28.553527944800287,3.4050756440716725 L-27.321652666922006,3.2338643606085498 L-26.091620154734855,3.0582923146508136 L-24.863476718267634,2.8783661163866867 L-23.63726859642655,2.6940925399358804 L-22.41304195525442,2.5054785230943963 L-21.1908428861923,2.3125311670733453 L-19.970717404344363,2.115257736231655 L-18.752711446745373,1.9136656578024827 L-17.536870870631198,1.7077625216136312 L-16.32324145171237,1.4975560798018108 L-15.11186888245053,1.2830542465207486 L-13.902798770338258,1.064265097643215 L-12.696076636181907,0.8411968704570398 L-11.49174791238778,0.6138579633548602 L-10.28985794125164,0.3822569355180434 L-9.09045197325159,0.14640250659439857 L-7.893575165344373,-0.09369644363013663 L-6.699272579265411,-0.33803087556577793 L-5.50758917983201,-0.5865915901592871 L-4.318569833250578,-0.8393692292402193 L-3.132259305427567,-1.0963542758733524 L-1.9487022602837811,-1.3575370547169427 L-0.7679432580730321,-1.622907732386949 L0.40997324629560694,-1.8924563178273672 L1.5850029049315282,-2.166172662686293 L2.757101478632194,-2.444046461698079 L3.9262248385487624,-2.726067253071207 L5.092328967847564,-3.0122244188823117 L6.255369963367244,-3.3025071854758323 L7.415304037271582,-3.596904623869648 L8.57208751869834,-3.895405650166609 L9.725676855403279,-4.197999025971825 L10.876028615399875,-4.504673358815694 L12.023099488594454,-4.815417102582899 L13.166846288417034,-5.130218557947131 L14.307225953447144,-5.449065872811545 L15.444195549034859,-5.7719470427549595 L16.577712268917438,-6.098849911483754 L17.707733436831134,-6.429762171289724 L18.834216508117734,-6.764671363513358 L19.95711907132622,-7.103564879012822 L21.076398849809678,-7.446429958638788 L22.19201370331713,-7.793253693714817 L23.30392162957999,-8.144023026523314 L24.412080765893208,-8.498724750797166 L25.516449390691534,-8.857345512216867 L26.616985925120545,-9.219871808913496 L27.713648934601807,-9.586289991976898 L28.806397130392753,-9.956586265969563 L29.895189371141413,-10.33074668944603 L30.979984664435335,-10.70875717547787 L32.06074216834493,-11.09060349218396 L33.137421192961,-11.476271263266241 L34.20998120192668,-11.865745968551124 L35.278381813964,-12.259012944536138 L36.34258280439376,-12.656057384941874 L37.40254410665,-13.056864341269545 L38.458225813789,-13.46141872336382 L39.50958817999107,-13.869705299980836 L40.556591622057255,-14.281708699361744 L41.59919672089991,-14.69741340981146 L42.63736422302625,-15.11680378028258 L43.67105504201655,-15.539864020964657 L44.70023025999582,-15.966578203878797 L45.72485112909875,-16.396930263477174 L46.74487907292868,-16.830903997247944 L47.76027568801008,-17.268483066325345 L48.771002745234384,-17.709650996104784 L49.77702219129911,-18.154391176863015 L50.77829615014062,-18.602686864383585 L51.77478692436034,-19.05452118058723 L52.76645699664394,-19.509877114167395 L53.75326903117363,-19.96873752123051 L54.73518587503395,-20.431085125941536 L55.7121705596108,-20.89690252117454 L56.68418630198306,-21.366172169167882 L57.6511965063074,-21.838876402184553 L58.61316476519602,-22.314997423177275 L59.57005486108784,-22.794517306458772 L60.52183076761159,-23.277417998376492 L61.46845665094227,-23.76368131799228 L62.40989687115041,-24.25328895776697 L63.346115983543825,-24.74622248424967 L64.27707874000214,-25.242463338771756 L65.20275009030377,-25.741992838145507 L66.12309518344543,-26.244792175367564 L67.03807936895467,-26.750842420327118 L67.94766819819404,-27.26012452051846 L68.85182742565814,-27.77261930175831 L69.75052301026258,-28.28830746890752 " />
			<path d="M-78.76702730475878,6.63125113796211 L-76.26702730475877,6.631251137962111 " />
			<path d="M92.73149339882607,-12.978996576513016 L92.72234322121001,-12.984279434022787 " />
			<path d="M-78.76702730475878,6.63125113796211 L-78.7670273047588,26.83851055959902 " />
			<path d="M-73.7670273047575,26.831039470860702 L-72.32439556395543,26.819928510200384 L-70.88190453808656,26.803841867730114 L-69.43960571053606,26.78278011759204 L-67.99755055782944,26.756744011492827 L-66.55579054779524,26.725734478677055 L-65.11437713772828,26.689752625893817 L-63.67336177255289,26.64879973735745 L-62.23279588298692,26.602877274701484 L-60.79273088370629,26.55198687692669 L-59.35321817150977,26.49613036034242 L-57.91430912348469,26.435309718501827 L-56.476055095173265,26.369527122130734 L-55.03850741873956,26.298784919050178 L-53.60171740113753,26.22308563409254 L-52.16573632227988,26.14243196901154 L-50.7306154332078,26.05682680238567 L-49.29640595426176,25.96627318951562 L-47.86315907325342,25.870774362315075 L-46.430925943638776,25.7703337291955 L-44.99975768269245,25.66495487494433 L-43.56970536968314,25.554641560597247 L-42.140820044050685,25.439397723303756 L-40.71315270358454,25.31922747618674 L-39.286754302603484,25.194135108195667 L-37.86167575013705,25.064125083953513 L-36.43796790810859,24.9292020435974 L-35.01568158951995,24.78937080261298 L-33.59486755663799,24.644636351662598 L-32.17557651918272,24.495003856407124 L-30.757859132517474,24.340478657321682 L-29.341765995841136,24.181066269504896 L-27.927347650382096,24.01677238248223 L-26.514654577594385,23.847602860002752 L-25.10373719735604,23.67356373983 L-23.69464586616951,23.494661233526386 L-22.28743087536452,23.310901726231606 L-20.882142449302926,23.122291776434537 L-19.478830743586336,22.928838115739467 L-18.077545843266115,22.730547648625617 L-16.678337761055623,22.527427452200783 L-15.28125643554533,22.31948477594875 L-13.886351729420475,22.10672704147055 L-12.493673427681415,21.88916184221958 L-11.103271235866785,21.666796943230622 L-9.715194778279454,21.43964028084261 L-8.329493596215329,21.20769996241549 L-6.9462171461954085,20.970984266040773 L-5.5654147982005355,20.729501640246184 L-4.187135833909252,20.483260703693958 L-2.8114294449390655,20.23227024487349 L-1.4383447310906377,19.97653922178742 L-0.06793069859556056,19.716076761632053 L1.2997637416329866,19.450892160471568 L2.6646897757456713,19.18099488290622 L4.026798688699202,18.906394561734572 L5.386041865995111,18.627100997609716 L6.742370795414772,18.34312415868942 L8.09573706875085,18.05447418028041 L9.446092383534989,17.76116136447655 L10.793388544761783,17.46319617979131 L12.13757746660896,17.16058926078398 L13.4786111741535,16.85335140768015 L14.816441805083826,16.541493585986416 L16.151021611408154,16.22502692609868 L17.482302961158652,15.903962722905248 L18.810238340091345,15.57831243538351 L20.134780353382084,15.248087686190956 L21.455881727317916,14.913300261250455 L22.7734953109845,14.573962109329543 L24.087574077948872,14.230085341613957 L25.39807112793774,13.881682231275462 L26.704939688511487,13.52876521303368 L28.008133116733575,13.171346882712399 L29.307604900835116,12.809439996790005 L30.60330866187489,12.443057471944172 L31.895198155395036,12.072212384590784 L33.1832272730709,11.696917970417374 L34.467350044357005,11.31718762391067 L35.74752063812811,10.933034897878471 L37.02369336431423,10.544473502966042 L38.29582267553185,10.15151730716677 L39.5638631687094,9.754180335327078 L40.82776958670773,9.352476768646056 L42.08749681993535,8.946420944169148 L43.3429999079584,8.536027354276584 L44.59423404110538,8.121310646166052 L45.84115456206629,7.702285621330063 L47.083716967486836,7.278967235027409 L48.32187690955628,6.851370595749714 L49.55559019759049,6.419510964682047 L50.78481279960937,5.983403755158179 L52.009500843907944,5.543064532110634 L53.22961062062234,5.098509011515034 L54.44509858328996,4.649753059829251 L55.65592135040356,4.1968126934271055 L56.86203570695952,3.739704078026705 L58.063398606000305,3.27844352811357 L59.25996717015073,2.813047506358245 L60.4516986931485,2.3435326230287927 L61.63855064136814,1.8699156353980015 L62.820480655339196,1.3922134471452097 L63.99744655125809,0.9104431077530677 L65.16940632249353,0.4246218118991294 L66.33631814108614,-0.0652331011581424 L67.49814035924081,-0.5591041481978749 L68.65483151081332,-1.0569737026609118 L69.8063503127907,-1.558823995279056 L70.95265566676395,-2.064637114709015 L72.09370666039533,-2.574395008171848 L73.22946256887843,-3.0880794820971857 L74.35988285639172,-3.6056722027726096 L75.48492717754507,-4.1271546969980335 L76.60455537882007,-4.652508352744931 L77.71872750000281,-5.181714419820679 L78.82740377561024,-5.714754010537732 L79.93054463630938,-6.251608100387756 L81.02811071032963,-6.7922575287206115 L82.12006282486786,-7.336682999428234 L83.2063620074866,-7.884865081633194 L84.2869694875051,-8.436784210382513 L85.36184669738282,-8.992420687345543 L86.43095527409594,-9.551754681517266 L87.49425706050698,-10.114766229926119 L88.55171410672617,-10.681435238346268 L89.60328867146603,-11.251741482014893 L90.64894322338856,-11.82566460635411 L91.68864044244455,-12.403184127697301 L92.72234322120494,-12.984279434019811 " />
			<path d="M-73.76702730475878,26.838510559599012 L-78.76702730475878,26.838510559599012 " />
			<path d="M-73.7670273047588,26.831039470860695 L-73.7670273047588,26.838510559599023 " />
			<path d="M77.38727624707798,-10.57033166277623 L89.33738084913062,-17.469727771615517 " />
			<path d="M77.38727624707799,-10.570331662776226 L76.11448404094219,-11.305178585611184 " />
			<path d="M76.11448404094219,-11.305178585611184 L81.84204896855321,-14.611989738368472 " />
			<path d="M81.84204896855321,-14.61198973836847 L70.81118318204307,-20.980663069604734 " />
			<path d="M65.08361825443205,-17.673851916847447 L70.8111831820431,-20.980663069604734 " />
			<path d="M65.08361825443205,-17.673851916847447 L63.81082604829627,-18.408698839682398 " />
			<path d="M63.81082604829624,-18.408698839682398 L75.7609306503489,-25.308094948521685 " />
			<path d="M89.33738084913062,-17.469727771615517 L75.76093065034891,-25.30809494852169 " />
			<path d="M-59.96702730475878,21.23821294845964 L-59.96702730475878,22.277443433000965 " />
			<path d="M-59.96702730475879,21.238212948459644 L-68.0670273047588,21.23821294845964 " />
			<path d="M-59.967027304758794,22.27744343300097 L-76.86702730475879,22.277443433000965 " />
			<path d="M-68.06702730475878,12.231548749101476 L-68.06702730475878,21.23821294845964 " />
			<path d="M-76.86702730475878,11.192318264560146 L-76.86702730475879,22.27744343300096 " />
			<path d="M-59.96702730475879,12.231548749101476 L-68.0670273047588,12.231548749101474 " />
			<path d="M-59.96702730475877,11.192318264560154 L-76.86702730475878,11.19231826456015 " />
			<path d="M-59.96702730475877,11.192318264560146 L-59.96702730475877,12.231548749101474 " />
			<path d="M71.51828996322963,-31.02357101501576 L69.75052301026331,-30.002950288856127 " />
			<path d="M69.75052301026327,-28.28830746890792 L69.75052301026327,-30.002950288856148 " />
			<path d="M47.80379516030429,-19.002005831190317 L48.529229438557266,-19.318250569966125 L49.25224551569195,-19.636335908976093 L49.972829381686424,-19.956255684619293 L50.69096707364842,-20.278003697748616 L51.406644676085364,-20.601573713790813 L52.119848321174345,-20.926959462867245 L52.830564189031094,-21.25415463991564 L53.5387785079771,-21.583152904811953 L54.24447755480705,-21.913947882493375 L54.94764765505454,-22.246533163081907 L55.648275183256914,-22.580902302008425 L56.34634656321967,-22.917048820137722 L57.041848268279125,-23.254966203893943 L57.73476682156456,-23.59464790538675 L58.425088796259786,-23.93608734253843 L59.11280081586281,-24.27927789921118 L59.79788955444528,-24.624212925335428 L60.480341736910646,-24.9708857370387 L61.1601441392514,-25.319289616775066 L61.83728358880552,-25.669417813455496 L62.5117469645113,-26.02126354257838 L63.183521197161895,-26.374819986361203 L63.8525932696586,-26.73008029387269 L64.51895021726293,-27.08703758116532 L65.18257912784773,-27.445684931408948 L65.84346714214794,-27.806015395024815 L66.50160145400898,-28.16802198982002 L67.15696931063547,-28.531697701123008 L67.80955801283818,-28.89703548191946 L68.45935491528007,-29.26402825298881 L69.10634742672124,-29.632668903041306 L69.75052301026258,-30.002950288855757 " />
			<path d="M81.84204896855321,-14.856938712646794 L87.85245660863887,-18.32704918158963 " />
			<path d="M81.84204896855321,-16.3266325583167 L71.02331521639903,-22.572831402413804 " />
			<path d="M-76.26702730475876,6.631251137962103 L-76.26702730475876,4.916608318013877 " />
			<path d="M-76.2670273047588,4.916608318013843 L-75.35802615311302,4.915453216131098 L-74.4490426153577,4.911987932865458 L-73.54009430504213,4.906212535364418 L-72.63119883503283,4.898127135538942 L-71.72237381717247,4.887731890061403 L-70.81363686193865,4.875027000362465 L-69.90500557810245,4.860012712627224 L-68.99649757238731,4.842689317790416 L-68.08813044912802,4.8230571515308185 L-67.17992180992941,4.801116594264698 L-66.27188925332528,4.776868071138466 L-65.36405037443745,4.750312052020405 L-64.45642276463488,4.721449051491646 L-63.54902401119273,4.690279628836109 L-62.64187169695147,4.65680438802967 L-61.73498339997628,4.621023977728555 L-60.82837669321652,4.582939091256648 L-59.92206914416512,4.542550466592161 L-59.01607831451808,4.499858886353223 L-58.11042175983427,4.454865177782864 L-57.20511702919537,4.407570212732793 L-56.30018166486559,4.357974907646678 L-55.39563320195184,4.306080223542324 L-54.4914891680641,4.251887165993011 L-53.58776708297553,4.195396785108059 L-52.68448445828308,4.136610175512459 L-51.78165879706836,4.075528476325701 L-50.87930759355815,4.0121528711396195 L-49.9774483327856,3.9464845879955135 L-49.07609849025148,3.8785248993604 L-48.17527553158537,3.808275122102245 L-47.27499691220776,3.7357366174645676 " />
			<path d="M-47.27499691220727,4.593058027438655 L-47.27499691220727,3.735736617464541 " />
			<path d="M-47.2749969122073,4.593058027438644 L-46.48313975870298,4.527325619289272 " />
			<path d="M-46.483139758702535,4.527325619289256 L-46.483139758702535,3.6700042093151417 " />
			<path d="M-46.483139758702535,3.670004209315124 L-45.621016022290085,3.596381592576236 L-44.75943813426767,3.5206589653040226 L-43.89842144054436,3.442837676224542 L-43.037981277033595,3.362919111443972 L-42.178132969379995,3.2809046944238958 L-41.3188918326864,3.1967958859559644 L-40.46027317124107,3.1105941841358913 L-39.60229227824519,3.022301124336707 L-38.74496443554027,2.931918279181531 L-37.88830491333609,2.839447258515392 L-37.03232896993881,2.74488970937675 L-36.17705185147903,2.6482473159679785 L-35.3224887916403,2.5495217996255093 L-34.4686550113878,2.448714918789051 L-33.61556571869722,2.345828468970396 L-32.763236108284296,2.2408642827213754 " />
			<path d="M-32.7632361082838,3.0981856926954627 L-32.7632361082838,2.2408642827213487 " />
			<path d="M-32.76323610828385,3.098185692695438 L-31.98151861550734,3.000005990980455 " />
			<path d="M-31.981518615506886,3.000005990980436 L-31.981518615506886,2.142684581006322 " />
			<path d="M-31.981518615506943,2.142684581006293 L-31.130688509575336,2.0337406553493906 L-30.280662345064883,1.922724551983194 L-29.43145526213229,1.809638248260029 L-28.583082386345268,1.694483758405383 L-27.735558828413147,1.5772631334820062 L-26.888899683917714,1.4579784613534628 L-26.043120033044318,1.3366318666468402 L-25.19823494031334,1.2132255107149632 L-24.35425945431178,1.0877615915979248 L-23.511208607425296,0.9602423439838503 L-22.66909741557042,0.8306700391691777 L-21.827940877927112,0.6990469850181853 L-20.987753976671613,0.5653755259217945 L-20.148551676709552,0.42965804275598884 L-19.310348925409457,0.2918969528392381 L-18.473160652336936,0.15209470988959595 " />
			<path d="M-18.473160652336503,1.009416119863678 L-18.473160652336503,0.15209470988956375 " />
			<path d="M-18.473160652336553,1.0094161198636442 L-17.705566273445363,0.8792894258382233 " />
			<path d="M-17.70556627344488,0.8792894258381753 L-17.70556627344488,0.021968015864061163 " />
			<path d="M-17.70556627344493,0.021968015864018753 L-16.870365433186286,-0.12174206543794241 L-16.036222530678714,-0.2674859322825256 L-15.20315242317578,-0.4152609887673151 L-14.371169948823052,-0.5650646028115034 L-13.540289926393854,-0.716894106202929 L-12.71052715502529,-0.8707467946454273 L-11.881896413954664,-1.0266199278071042 L-11.054412462256195,-1.1845107293690944 L-10.228090038578216,-1.3444163870750856 L-9.402943860880612,-1.506334052781284 L-8.578988626172674,-1.670260842507247 L-7.756239010251349,-1.8361938364872543 L-6.93470966743979,-2.0041300792222074 L-6.114415230326401,-2.1740665795323935 L-5.295370309504193,-2.346000310610691 L-4.477589493310916,-2.519928210076415 " />
			<path d="M-4.477589493310469,-1.6626068001023708 L-4.477589493310469,-2.519928210076485 " />
			<path d="M-4.477589493310504,-1.6626068001023953 L-3.7280297133111304,-1.8240173906332302 " />
			<path d="M-3.728029713310666,-1.8240173906333101 L-3.728029713310666,-2.681338800607424 " />
			<path d="M-3.728029713310704,-2.681338800607449 L-2.912714130761856,-2.8590827239214605 L-2.0987050912856944,-3.0388116769064766 L-1.2860170935234976,-3.220522458338081 L-0.4746646125869347,-3.4042118316927343 L0.33533790019977516,-3.589876525205355 L1.143976017557236,-3.777513231927685 L1.9512353365077928,-3.9671186097871356 L2.757101478632194,-4.158689281646318 L3.561560090325557,-4.35222183536321 L4.364596843053164,-4.547712823851953 L5.166197433605518,-4.7451587651441685 L5.966347584353201,-4.944556142451091 L6.765033043501234,-5.1459014042260804 L7.562239585342724,-5.3491909642279865 L8.35795301051246,-5.554421201585001 L9.152159146239285,-5.761588460858974 " />
			<path d="M9.152159146239734,-4.904267050884946 L9.152159146239734,-5.76158846085906 " />
			<path d="M9.152159146239697,-4.904267050884968 L9.8798647425225,-5.096139026550404 " />
			<path d="M9.879864742523333,-5.0961390265505875 L9.879864742523333,-5.9534604365247015 " />
			<path d="M9.879864742523253,-5.953460436524722 L10.671140406040749,-6.164332459560114 L11.46086757900791,-6.377130641138734 L12.249032195277522,-6.591851191026834 L13.03562021653373,-6.808490284750675 L13.820617632541982,-7.027044063664519 L14.604010461398687,-7.247508635019415 L15.385784749780171,-7.469880072032495 L16.16592657319127,-7.694154413956994 L16.944422036213282,-7.9203276661527156 L17.72125727275146,-8.14839580015719 L18.496418446282064,-8.378354753757492 L19.26989175009875,-8.610200431062523 L20.041663407558488,-8.843928702576022 L20.811719672326944,-9.079535405270036 L21.580046828623367,-9.317016342659144 L22.346631191464,-9.556367284874966 " />
			<path d="M22.346631191464855,-8.69904587490109 L22.346631191464855,-9.556367284875204 " />
			<path d="M22.346631191464823,-8.699045874901103 L23.048774383117845,-8.9204015000942 " />
			<path d="M23.048774383118676,-8.92040150009443 L23.048774383118676,-9.777722910068544 " />
			<path d="M23.04877438311864,-9.777722910068576 L23.811977968200097,-10.020648477332188 L24.573399006006454,-10.265431516748762 L25.333023934562476,-10.512067668389491 L26.090839223884075,-10.760552539319036 L26.8468313762194,-11.010881703673746 L27.60098692628921,-11.263050702740586 L28.353292441526776,-11.517055045036386 L29.10373452231697,-11.772890206388027 L29.852299802235137,-12.030551630012909 L30.59897494828509,-12.29003472660014 L31.34374666113648,-12.551334874392282 L32.086601675361834,-12.81444741926768 L32.82752675967278,-13.079367674823345 L33.56650871715564,-13.346090922458401 L34.30353438550658,-13.61461241145821 L35.03859063726529,-13.884927359078603 " />
			<path d="M35.03859063726606,-13.027605949104748 L35.03859063726606,-13.884927359078862 " />
			<path d="M35.03859063726607,-13.027605949104753 L35.71159346353018,-13.277317246298765 " />
			<path d="M35.71159346353103,-13.277317246299067 L35.71159346353103,-14.13463865627318 " />
			<path d="M35.71159346353096,-14.134638656273182 L36.44283585964868,-14.408379874757713 L37.172070735218924,-14.683900413752696 L37.89928510154702,-14.961195365851339 L38.624466005926465,-15.240259792042167 L39.34760053186946,-15.5210887217968 L40.06867579933714,-15.803677153158603 L40.78767896496892,-16.088020052831794 L41.50459722231123,-16.374112356271 L42.219417802045655,-16.66194896777155 L42.93212797221635,-16.95152476056016 L43.642715038456785,-17.242834576886352 L44.351166344215926,-17.535873228114227 L45.05746927098363,-17.8306354948149 L45.761611238515385,-18.127116126859505 L46.46357970505635,-18.425309843512693 L47.16336216756412,-18.725211333526303 " />
			<path d="M47.163362167564884,-17.867889923552493 L47.163362167564884,-18.72521133352661 " />
			<path d="M47.163362167564856,-17.86788992355251 L47.80379516030362,-18.144684421215928 " />
			<path d="M47.803795160304375,-18.144684421216205 L47.803795160304375,-19.00200583119032 " />
			<path d="M-78.76702730475878,4.916608318013889 L-76.26702730475877,4.91660831801389 " />
			<path d="M-78.76702730475878,4.916608318013889 L-78.76702730475878,6.631251137962115 " />
			<path d="M77.38727624707795,-12.040025508446128 L77.38727624707795,-10.570331662776228 " />
			<path d="M81.84204896855321,-16.3266325583167 L81.84204896855321,-14.611989738368473 " />
			<path d="M70.81118318204307,-22.450356915274643 L70.81118318204307,-20.980663069604738 " />
			<path d="M65.08361825443205,-19.143545762517366 L65.08361825443205,-17.673851916847447 " />
			<path d="M-59.96702730475879,21.238212948459644 L-59.96702730475879,22.27744343300097 " />
			<path d="M-68.0670273047588,20.562800613052744 L-76.86702730475879,20.56280061305274 " />
			<path d="M-68.06702730475878,11.192318264560152 L-68.06702730475878,12.231548749101474 " />
			<path d="M-59.96702730475877,11.192318264560154 L-59.96702730475877,12.231548749101476 " />
			<path d="M-47.27499691220726,3.735736617464558 L-47.065778293088805,4.5758663944373295 " />
			<path d="M-32.763236108283806,2.240864282721365 L-32.45472750965024,3.0596573190659564 " />
			<path d="M-18.47316065233649,0.1520947098895722 L-18.07164640856649,0.9415819063760911 " />
			<path d="M-4.477589493310461,-2.5199282100764737 L-3.9912567865009505,-1.767116316871364 " />
			<path d="M9.152159146239732,-5.7615884608590555 L9.713388210146384,-5.052071035355175 " />
			<path d="M22.346631191464862,-9.556367284875183 L22.97130303424311,-8.895877961354147 " />
			<path d="M35.038590637266076,-13.884927359078844 L35.71159346353103,-13.280318744718127 " />
			<path d="M47.16336216756486,-18.725211333526598 L47.803795160304375,-18.231277600918514 " />

       </g>
    </g>
    
</svg>
