<?xml version="1.0" encoding="UTF-8" standalone="no"?>
<svg
   xmlns:svg="http://www.w3.org/2000/svg"
   xmlns="http://www.w3.org/2000/svg"
   width="480.0"
   height="480.0"

>
    <g transform="scale(1.0432723001112993, -1.0432723001112993)   translate(218.5431358387223,-150.07059286654982)" stroke-width="0.9585225256084313"  fill="none">
       <!-- hidden lines -->
       <g  stroke="rgb(100,40,40)" fill="none" stroke-dasharray="0.9585225256084313,0.9585225256084313" >
			<path d="M172.5340546095176,-0.8573214099741122 L168.99852070358486,1.1839200423452034 " />
			<path d="M168.99852070358486,1.1839200423451928 L168.99852070358486,2.898562862293419 " />
			<path d="M124.0708224650632,-3.1244463923838577 L145.04557444024226,13.052324091148808 " />
			<path d="M168.99852070358486,1.1839200423451928 L168.98937052596878,1.178637184835422 " />
			<path d="M145.04557444024226,13.052324091148805 L145.8335659877909,12.7091210701754 L146.619121329525,12.364061449772962 L147.40222734244045,12.017150994295164 L148.18287094445014,11.668395499014537 L148.96103909460237,11.317800790025828 L149.73671879329888,10.965372724148509 L150.5098970825119,10.61111718882897 L151.28056104600066,10.255040102042258 L152.04869780952725,9.897147412192979 L152.81429454107175,9.537445098016207 L153.5773384510461,9.175939168477456 L154.3378167925083,8.812635662672335 L155.0957168613752,8.447540649725681 L155.85102599663443,8.080660228690121 L156.60373158055654,7.712000528444193 L157.35382103890527,7.341567707589945 L158.10128184114757,6.96936795435019 L158.84610150066328,6.595407486464936 L159.58826757495353,6.219692551087675 L160.32776766584843,5.842229424680951 L161.06458941971462,5.463024412911437 L161.79872052766132,5.0820838505446915 L162.530148725746,4.6994141013393715 L163.25886179517917,4.31502155794081 L163.98484756252878,3.9289126417743176 L164.70809389992326,3.5410938029379224 L165.42858872525434,3.151571520094393 L166.14632000237899,2.7603523003633086 L166.86127574132004,2.367442679212246 L167.57344399846687,1.9728492203475554 L168.2828128767748,1.5765785156047372 L168.98937052596304,1.17863718483882 " />
			<path d="M153.65430355183682,3.592584956081992 L158.109076273312,1.0206207261596774 " />
			<path d="M164.1194839133977,-2.449489742783179 L165.60440815388947,-3.306811152757299 " />
			<path d="M153.65430355183676,3.592584956081984 L152.381511345701,2.857738033247037 " />
			<path d="M152.381511345701,2.857738033247027 L158.10907627331204,-0.4490731195102633 " />
			<path d="M147.29034252115784,-6.695271963607352 L147.07821048680188,-6.81774645074651 " />
			<path d="M141.35064555919084,-3.5109352979892465 L147.07821048680188,-6.817746450746537 " />
			<path d="M141.35064555919084,-3.510935297989235 L140.07785335305505,-4.245782220824186 " />
			<path d="M140.07785335305508,-4.245782220824169 L152.02795795510772,-11.14517832966346 " />
			<path d="M165.60440815388944,-3.3068111527573 L152.02795795510772,-11.14517832966347 " />
			<path d="M168.98937052596887,1.1786371848354875 L168.98937052596887,2.8932800047837137 " />
			<path d="M-168.9893705259689,1.1786371848354804 L-168.9893705259689,2.8932800047837066 " />
			<path d="M145.04557444024226,13.05232409114879 L145.04557444024226,13.909645501122904 " />
			<path d="M145.04557444024212,13.90964550112298 L144.40514144750296,14.186439998786568 " />
			<path d="M144.40514144750276,13.329118588812506 L144.40514144750276,14.18643999878662 " />
			<path d="M130.90107973426987,18.742376430011745 L131.7635192997826,18.419707549663073 L132.6235727823214,18.09492268221419 L133.48122460732503,17.76802770913865 L134.3364592437238,17.439028550121435 L135.1892612042204,17.107931162951857 L136.03961504557026,16.77474154341577 L136.88750536886153,16.43946572518685 L137.7329168197939,16.10210977971731 L138.57583408895624,15.762679816128198 L139.41624191210423,15.4211819810985 L140.2541250704368,15.07762245875395 L141.08946839087162,14.732007470554962 L141.92225674631962,14.384343275184165 L142.75247505595934,14.034636168432783 L143.58010828550985,13.68289248308686 L144.40514144750193,13.329118588812875 " />
			<path d="M130.90107973426984,18.742376430011756 L130.90107973426984,19.599697839985872 " />
			<path d="M130.90107973426998,19.599697839985822 L130.22807690800525,19.84940913718006 " />
			<path d="M130.2280769080049,18.992087727206037 L130.2280769080049,19.849409137180153 " />
			<path d="M116.08954313118349,23.83535201080646 L116.98965526338908,23.54902715296444 L117.88764884999073,23.260493422053273 L118.78350762937663,22.96975604308075 L119.67721537859391,22.6768202809602 L120.56875591364201,22.381691440415153 L121.45811308976637,22.08437486588315 L122.34527080175049,21.784875941419003 L123.23021298420734,21.48320009059742 L124.11292361187078,21.179352776414675 L124.99338669988555,20.873339501189577 L125.87158630409638,20.56516580646415 L126.74750652133733,20.25483727290292 L127.62113148971953,19.942359520192056 L128.49244538891804,19.627738206937693 L129.361432440459,19.31097903056316 L130.22807690800406,18.992087727206382 " />
			<path d="M116.08954313118348,23.835352010806464 L116.08954313118348,24.69267342078058 " />
			<path d="M116.08954313118352,24.692673420780565 L115.38739993953034,24.91402904597372 " />
			<path d="M115.38739993952966,24.056707635999807 L115.38739993952966,24.914029045973923 " />
			<path d="M100.68644082640448,28.305298197387643 L101.61963876020127,28.05677640789638 L102.55099648138706,27.805964115277746 L103.4804971241647,27.552865861448524 L104.40812385636653,27.297486229721542 L105.33385987975896,27.039829844722846 L106.2576884303472,26.779901372307663 L107.17959277867855,26.51770551947611 L108.09955623014508,26.25324703428798 L109.01756212528652,25.986530705776573 L109.93359384009165,25.71756136386213 L110.84763478629903,25.44634387926442 L111.75966841169802,25.172883163414284 L112.66967820042822,24.89718416836493 L113.57764767327824,24.61925188670223 L114.48356038798467,24.339091351454172 L115.3873999395287,24.056707636000112 " />
			<path d="M100.68644082640449,28.305298197387636 L100.68644082640449,29.16261960736175 " />
			<path d="M100.68644082640489,29.16261960736165 L99.95873523012153,29.354491583027226 " />
			<path d="M99.95873523012091,28.497170173053277 L99.95873523012091,29.354491583027393 " />
			<path d="M84.77026349857123,32.12943716859178 L85.73179187119666,31.919984857524213 L86.69176774150579,31.708172085149982 L87.65017372546015,31.494002687150243 L88.60699246745025,31.277480541881914 L89.56220664060955,31.058609570307368 L90.5157989471283,30.837393735923484 L91.46775211856712,30.613837044689916 L92.4180489161692,30.387943544956386 L93.36667213117282,30.159717327389586 L94.31360458512285,29.929162524898942 L95.25882913018184,29.69628331256183 L96.2023286494407,29.46108390754796 L97.14408605722839,29.22356856904301 L98.08408429942148,28.983741598171562 L99.02230635375311,28.741607337919035 L99.95873523012042,28.49717017305339 " />
			<path d="M84.77026349857121,32.12943716859177 L84.77026349857121,32.98675857856588 " />
			<path d="M84.77026349857114,32.9867585785659 L84.020703718572,33.148169169096704 " />
			<path d="M84.02070371857141,32.2908477591227 L84.02070371857141,33.14816916909681 " />
			<path d="M68.42211633903203,35.288281988792704 L69.40707542230126,35.118966477115265 L70.39077762474474,34.947232574321646 L71.37320513266792,34.7730833903116 L72.35434015545962,34.59652207872284 L73.33416492591398,34.41755183687388 L74.31266170055218,34.23617590570615 L75.28981275994404,34.05239756972529 L76.26560040902856,33.86622015694161 L77.24000697743455,33.677647038809994 L78.21301481980055,33.48668163016873 L79.18460631609437,33.29332738917759 L80.15476387193233,33.09758781725543 L81.1234699188976,32.89946645901651 L82.09070691485842,32.69896690220659 L83.05645734428603,32.496092777637756 L84.02070371857096,32.29084775912281 " />
			<path d="M68.42211633903202,35.2882819887927 L68.42211633903202,36.14560339876681 " />
			<path d="M68.42211633903185,36.14560339876685 L67.65452196014093,36.275730092792244 " />
			<path d="M67.65452196014049,35.418408682818196 L67.65452196014049,36.27573009279231 " />
			<path d="M51.72530575838133,37.765735908858716 L52.72867642657885,37.63741998960833 L53.73109224021774,37.506640072999005 L54.73253504672188,37.37339852730179 L55.73298671113534,37.237697765365 L56.73242911645045,37.09954024457045 L57.73084416393604,36.95892846678899 L58.72821377346535,36.81586497833521 L59.72451988384311,36.67035236992126 L60.71974445313282,36.522393276610046 L61.71386945898346,36.37199037776739 L62.7068768989557,36.21914639701359 L63.69874879084823,36.06386410217408 L64.68946717302302,35.9061463052293 L65.67901410473071,35.74599586226384 L66.66737166643574,35.58341567341455 L67.65452196013997,35.418408682818296 " />
			<path d="M51.72530575838135,37.7657359088587 L51.72530575838135,38.623057318832814 " />
			<path d="M51.72530575838147,38.62305731883281 L50.9435882656048,38.721237020547804 " />
			<path d="M50.94358826560442,37.863915610573734 L50.94358826560442,38.721237020547846 " />
			<path d="M34.764914876086685,39.54917439149634 L35.78158418228049,39.46251193318491 L36.79760552590269,39.37335242723748 L37.81296050799713,39.281697488228275 L38.82763074167452,39.187548775920874 L39.841597852445595,39.090907995238155 L40.85484347855386,38.99177689623147 L41.867349271307965,38.890157274048875 L42.87909689541427,38.78605096890266 L43.8900680293085,38.67945986603604 L44.90024436548772,38.5703858956891 L45.909607610842016,38.45883103306355 L46.91813948698541,38.34479729828735 L47.92582173058712,38.2282867563778 L48.93263609370221,38.10930151720436 L49.93856434410199,37.98784373545027 L50.943588265603886,37.8639156105738 " />
			<path d="M34.76491487608668,39.54917439149634 L34.76491487608668,40.40649580147045 " />
			<path d="M34.764914876086344,40.40649580147051 L33.9730577225823,40.47222820961984 " />
			<path d="M33.97305772258195,39.61490679964575 L33.97305772258195,40.472228209619864 " />
			<path d="M17.627369956415027,40.629509442998796 L18.652157186862148,40.584942057649016 L19.676606648593598,40.537857298768614 L20.70069979002972,40.48825601900742 L21.724418066043384,40.43613911658653 L22.747742938296003,40.38150753528197 L23.770655875572903,40.32436226440768 L24.79313835411908,40.2647043387976 L25.81517185797479,40.20253483878682 L26.836737879310526,40.13785489019219 L27.857817918762358,40.070665664291795 L28.878393485767067,40.000968377803844 L29.89844609889668,39.92876429286446 L30.91795728619331,39.85405471700511 L31.93690858550381,39.77684100312865 L32.9552815448138,39.69712454948501 L33.973057722581416,39.61490679964581 " />
			<path d="M17.627369956415006,40.62950944299882 L17.627369956415006,41.48683085297293 " />
			<path d="M17.62736995641495,41.486830852972915 L16.82940826472702,41.519781010271984 " />
			<path d="M16.829408264726816,40.66245960029789 L16.829408264726816,41.519781010272006 " />
			<path d="M0.3999999999999934,41.00123592357855 L1.4276830738764297,40.99899071637037 L2.4553402940849236,40.99422063769546 L3.48295305095706,40.98692577393433 L4.510502735629763,40.97710625718841 L5.5379707403819625,40.96476226527767 L6.565338458971713,40.94989402173729 L7.592587286973293,40.932501795813806 L8.619698622113795,40.912585902459995 L9.646653864610196,40.89014670232942 L10.673434417506128,40.86518460176967 L11.700021687008595,40.83770005281514 L12.726397082824896,40.80769355317881 L13.752542018498955,40.775165646243266 L14.778437911748057,40.74011692105074 L15.804066184799519,40.70254801229265 L16.82940826472624,40.66245960029789 " />
			<path d="M0.4000000000000128,41.00123592357855 L0.40000000000001273,41.85855733355266 " />
			<path d="M0.39999999999991576,41.85855733355267 L-0.39999999999937835,41.85855733355267 " />
			<path d="M-0.39999999999994884,41.00123592357855 L-0.3999999999999489,41.85855733355266 " />
			<path d="M-16.829408264726677,40.66245960029789 L-15.804066184799415,40.70254801229265 L-14.778437911748009,40.74011692105074 L-13.752542018498852,40.775165646243266 L-12.726397082824795,40.80769355317881 L-11.700021687008546,40.83770005281514 L-10.673434417506027,40.86518460176967 L-9.646653864610094,40.89014670232942 L-8.619698622113747,40.91258590246002 L-7.592587286973244,40.932501795813806 L-6.565338458971663,40.94989402173729 L-5.537970740381914,40.96476226527767 L-4.510502735629715,40.97710625718841 L-3.4829530509570104,40.98692577393433 L-2.455340294084874,40.99422063769546 L-1.4276830738763804,40.99899071637037 L-0.4000000000004804,41.00123592357855 " />
			<path d="M-16.829408264726716,40.66245960029789 L-16.829408264726716,41.519781010272006 " />
			<path d="M-16.829408264726485,41.51978101027201 L-17.62736995641441,41.48683085297294 " />
			<path d="M-17.627369956414906,40.62950944299882 L-17.627369956414906,41.48683085297293 " />
			<path d="M-33.9730577225819,39.61490679964575 L-32.955281544813694,39.69712454948501 L-31.936908585503705,39.77684100312868 L-30.917957286193257,39.85405471700511 L-29.898446098896578,39.92876429286446 L-28.878393485766964,40.000968377803844 L-27.85781791876231,40.070665664291795 L-26.836737879310427,40.137854890192216 L-25.815171857974686,40.20253483878682 L-24.793138354118977,40.2647043387976 L-23.770655875572746,40.32436226440768 L-22.7477429382959,40.38150753528197 L-21.72441806604328,40.43613911658653 L-20.700699790029564,40.48825601900742 L-19.676606648593495,40.537857298768614 L-18.652157186862045,40.584942057649016 L-17.627369956415404,40.629509442998796 " />
			<path d="M-33.97305772258187,39.61490679964575 L-33.97305772258187,40.472228209619864 " />
			<path d="M-33.973057722581764,40.4722282096199 L-34.76491487608624,40.40649580147051 " />
			<path d="M-34.76491487608663,39.549174391496344 L-34.76491487608663,40.406495801470456 " />
			<path d="M-50.94358826560442,37.86391561057374 L-49.938564344102005,37.98784373545027 L-48.932636093702165,38.10930151720436 L-47.92582173058707,38.2282867563778 L-46.91813948698535,38.34479729828735 L-45.90960761084197,38.45883103306355 L-44.90024436548768,38.5703858956891 L-43.89006802930845,38.67945986603607 L-42.87909689541422,38.78605096890266 L-41.867349271307916,38.890157274048875 L-40.85484347855381,38.9917768962315 L-39.84159785244555,39.09090799523818 L-38.82763074167447,39.187548775920874 L-37.81296050799708,39.281697488228275 L-36.79760552590264,39.37335242723748 L-35.78158418228038,39.46251193318491 L-34.76491487608712,39.54917439149631 " />
			<path d="M-50.943588265604376,37.86391561057372 L-50.943588265604376,38.72123702054783 " />
			<path d="M-50.94358826560428,38.72123702054786 L-51.72530575838052,38.62305731883292 " />
			<path d="M-51.72530575838127,37.7657359088587 L-51.72530575838127,38.623057318832814 " />
			<path d="M-67.65452196014034,35.41840868281824 L-66.66737166643566,35.58341567341455 L-65.67901410473061,35.74599586226387 L-64.68946717302286,35.90614630522933 L-63.698748790848136,36.06386410217411 L-62.706876898955606,36.21914639701359 L-61.7138694589833,36.37199037776739 L-60.719744453132726,36.522393276610075 L-59.72451988384301,36.67035236992129 L-58.72821377346525,36.81586497833524 L-57.73084416393599,36.95892846678902 L-56.73242911645035,37.09954024457045 L-55.73298671113524,37.23769776536503 L-54.73253504672183,37.37339852730179 L-53.731092240217635,37.506640072999005 L-52.72867642657875,37.63741998960836 L-51.7253057583818,37.76573590885866 " />
			<path d="M-67.65452196014036,35.418408682818225 L-67.65452196014036,36.27573009279234 " />
			<path d="M-67.65452196014,36.275730092792415 L-68.42211633903133,36.14560339876694 " />
			<path d="M-68.42211633903197,35.288281988792725 L-68.42211633903197,36.14560339876684 " />
			<path d="M-84.02070371857143,32.2908477591227 L-83.05645734428599,32.496092777637756 L-82.09070691485839,32.69896690220659 L-81.12346991889754,32.89946645901654 L-80.15476387193229,33.09758781725543 L-79.18460631609433,33.29332738917762 L-78.21301481980049,33.48668163016873 L-77.24000697743449,33.67764703881002 L-76.26560040902852,33.86622015694164 L-75.289812759944,34.05239756972529 L-74.31266170055214,34.236175905706176 L-73.3341649259139,34.41755183687391 L-72.35434015545954,34.59652207872287 L-71.3732051326678,34.773083390311626 L-70.3907776247446,34.947232574321674 L-69.40707542230118,35.11896647711529 L-68.42211633903244,35.28828198879265 " />
			<path d="M-84.02070371857141,32.29084775912271 L-84.02070371857141,33.148169169096825 " />
			<path d="M-84.0207037185715,33.14816916909682 L-84.77026349857064,32.98675857856601 " />
			<path d="M-84.77026349857123,32.12943716859177 L-84.77026349857123,32.98675857856588 " />
			<path d="M-99.95873523012088,28.49717017305325 L-99.02230635375305,28.74160733791902 L-98.08408429942143,28.983741598171548 L-97.14408605722835,29.223568569042996 L-96.20232864944066,29.461083907547945 L-95.2588291301818,29.69628331256183 L-94.31360458512282,29.929162524898942 L-93.36667213117278,30.159717327389586 L-92.41804891616917,30.387943544956414 L-91.46775211856712,30.613837044689916 L-90.51579894712832,30.837393735923513 L-89.56220664060949,31.058609570307368 L-88.60699246745025,31.277480541881914 L-87.65017372546015,31.49400268715027 L-86.69176774150573,31.708172085149982 L-85.73179187119666,31.919984857524213 L-84.77026349857172,32.129437168591664 " />
			<path d="M-99.9587352301209,28.497170173053277 L-99.9587352301209,29.354491583027393 " />
			<path d="M-99.95873523012104,29.35449158302734 L-100.68644082640353,29.16261960736199 " />
			<path d="M-100.6864408264045,28.305298197387625 L-100.6864408264045,29.16261960736174 " />
			<path d="M-115.3873999395296,24.0567076359998 L-114.48356038798472,24.33909135145413 L-113.57764767327824,24.6192518867022 L-112.66967820042818,24.89718416836493 L-111.75966841169807,25.172883163414255 L-110.84763478629903,25.446343879264404 L-109.9335938400916,25.71756136386213 L-109.01756212528657,25.986530705776545 L-108.0995562301451,26.253247034287952 L-107.17959277867851,26.517705519476095 L-106.25768843034726,26.779901372307634 L-105.33385987975898,27.03982984472283 L-104.40812385636649,27.297486229721557 L-103.48049712416476,27.552865861448495 L-102.55099648138707,27.805964115277717 L-101.61963876020124,28.056776407896365 L-100.68644082640502,28.305298197387486 " />
			<path d="M-115.38739993952962,24.056707635999793 L-115.38739993952962,24.91402904597391 " />
			<path d="M-115.38739993952949,24.914029045973948 L-116.08954313118258,24.69267342078085 " />
			<path d="M-116.08954313118343,23.835352010806456 L-116.08954313118343,24.692673420780572 " />
			<path d="M-130.22807690800485,18.99208772720607 L-129.3614324404589,19.31097903056316 L-128.492445388918,19.62773820693768 L-127.62113148971943,19.942359520192085 L-126.7475065213373,20.254837272902904 L-125.8715863040963,20.56516580646415 L-124.99338669988542,20.873339501189605 L-124.11292361187076,21.17935277641466 L-123.23021298420726,21.48320009059745 L-122.34527080175036,21.784875941419017 L-121.45811308976631,22.08437486588315 L-120.56875591364192,22.381691440415167 L-119.67721537859377,22.67682028096023 L-118.78350762937656,22.96975604308075 L-117.88764884999058,23.260493422053287 L-116.98965526338895,23.54902715296447 L-116.08954313118387,23.835352010806304 " />
			<path d="M-130.22807690800488,18.992087727206062 L-130.22807690800488,19.849409137180178 " />
			<path d="M-130.22807690800516,19.849409137180075 L-130.90107973426905,19.59969783998615 " />
			<path d="M-130.9010797342698,18.742376430011753 L-130.9010797342698,19.59969783998587 " />
			<path d="M-144.40514144750273,13.32911858881252 L-143.58010828550968,13.682892483086903 L-142.75247505595925,14.034636168432797 L-141.9222567463195,14.384343275184165 L-141.0894683908715,14.73200747055499 L-140.25412507043671,15.07762245875395 L-139.41624191210414,15.421181981098528 L-138.5758340889561,15.762679816128227 L-137.7329168197938,16.102109779717324 L-136.88750536886153,16.43946572518682 L-136.0396150455702,16.77474154341577 L-135.18926120422034,17.107931162951857 L-134.3364592437238,17.43902855012142 L-133.48122460732498,17.76802770913865 L-132.6235727823213,18.09492268221419 L-131.76351929978256,18.419707549663045 L-130.90107973427004,18.74237643001166 " />
			<path d="M-144.40514144750273,13.329118588812527 L-144.40514144750273,14.186439998786641 " />
			<path d="M-144.40514144750273,14.186439998786625 L-145.04557444024155,13.90964550112318 " />
			<path d="M-145.0455744402422,13.052324091148805 L-145.0455744402422,13.909645501122919 " />
			<path d="M-168.98937052596384,1.178637184838351 L-168.28281287677476,1.5765785156047372 L-167.57344399846684,1.972849220347527 L-166.86127574132004,2.3674426792122176 L-166.146320002379,2.760352300363266 L-165.42858872525443,3.151571520094336 L-164.70809389992326,3.54109380293788 L-163.98484756252873,3.928912641774332 L-163.25886179517917,4.315021557940796 L-162.530148725746,4.699414101339343 L-161.79872052766135,5.082083850544649 L-161.06458941971468,5.4630244129113805 L-160.32776766584843,5.842229424680923 L-159.58826757495348,6.219692551087675 L-158.84610150066328,6.595407486464907 L-158.10128184114757,6.969367954350147 L-157.35382103890527,7.341567707589917 L-156.6037315805566,7.712000528444136 L-155.85102599663443,8.080660228690107 L-155.09571686137514,8.447540649725681 L-154.33781679250828,8.812635662672335 L-153.57733845104607,9.175939168477427 L-152.81429454107177,9.537445098016164 L-152.0486978095273,9.897147412192936 L-151.28056104600063,10.25504010204223 L-150.50989708251183,10.61111718882897 L-149.73671879329882,10.965372724148509 L-148.96103909460234,11.317800790025814 L-148.18287094445014,11.668395499014508 L-147.40222734244048,12.017150994295122 L-146.619121329525,12.364061449772947 L-145.83356598779085,12.709121070175414 L-145.0455744402424,13.052324091148705 " />
			<path d="M-168.99852070358486,1.1839200423451928 L-168.99852070358486,2.898562862293419 " />
			<path d="M-168.99852070358486,1.1839200423451928 L-172.5340546095176,-0.8573214099741238 " />
			<path d="M-168.9893705259688,1.1786371848354253 L-168.99852070358486,1.1839200423451963 " />
			<path d="M153.6543035518368,3.592584956081961 L153.6543035518368,3.837533930360306 " />
			<path d="M165.60440815388944,-3.3068111527573154 L165.60440815388944,-1.5921683328090892 " />
			<path d="M152.38151134570103,2.8577380332470423 L152.38151134570103,4.572380853195268 " />
			<path d="M147.07821048680188,-6.817746450746537 L147.07821048680188,-6.572797476468191 " />
			<path d="M141.35064555919087,-3.510935297989231 L141.35064555919087,-3.2659863237109095 " />
			<path d="M140.0778533530551,-4.2457822208242 L140.0778533530551,-2.5311394008759733 " />
			<path d="M152.02795795510775,-11.14517832966347 L152.02795795510775,-9.430535509715243 " />
			<path d="M-153.65430355183676,3.5925849560819967 L-153.65430355183676,3.8375339303603218 " />
			<path d="M-152.381511345701,2.85773803324704 L-153.6543035518368,3.5925849560819927 " />
			<path d="M-152.381511345701,2.8577380332470423 L-152.381511345701,4.572380853195268 " />
			<path d="M-152.381511345701,2.857738033247032 L-158.10907627331204,-0.4490731195102615 " />
			<path d="M-165.60440815388944,-3.306811152757294 L-165.60440815388944,-1.5921683328090679 " />
			<path d="M-153.65430355183676,3.5925849560819882 L-158.10907627331204,1.0206207261596356 " />
			<path d="M-164.1194839133977,-2.4494897427831903 L-165.6044081538894,-3.3068111527573016 " />
			<path d="M-147.07821048680188,-6.817746450746515 L-147.07821048680188,-6.572797476468198 " />
			<path d="M-147.07821048680188,-6.817746450746516 L-147.29034252115784,-6.695271963607361 " />
			<path d="M-152.02795795510772,-11.145178329663462 L-152.02795795510772,-9.430535509715236 " />
			<path d="M-152.02795795510772,-11.145178329663466 L-165.60440815388944,-3.306811152757298 " />
			<path d="M-141.35064555919084,-3.51093529798922 L-147.07821048680188,-6.8177464507465135 " />
			<path d="M-141.35064555919087,-3.510935297989224 L-141.35064555919087,-3.2659863237109175 " />
			<path d="M-140.07785335305505,-4.245782220824172 L-140.07785335305505,-2.531139400875945 " />
			<path d="M-140.07785335305505,-4.2457822208241796 L-152.0279579551077,-11.14517832966347 " />
			<path d="M-140.07785335305508,-4.245782220824175 L-141.35064555919087,-3.5109352979892225 " />
			<path d="M124.07082246506323,-2.26712498240971 L145.04557444024232,13.90964550112296 " />
			<path d="M-124.07082246506315,-3.124446392383854 L-145.0455744402422,13.052324091148794 " />
			<path d="M-124.07082246506319,-2.2671249824097455 L-145.04557444024226,13.909645501122913 " />
			<path d="M-123.43038947232368,-1.9903304847460195 L-144.40514144750273,14.186439998786629 " />
			<path d="M-124.07082246506316,-2.3537181621120524 L-144.40514144750273,13.329118588812523 " />
			<path d="M-111.97862076828984,1.7429207825333144 L-130.90107973426984,18.742376430011753 " />
			<path d="M-111.97862076828982,2.6002421925074115 L-130.9010797342698,19.59969783998585 " />
			<path d="M-111.30561794202485,2.8499534897017416 L-130.22807690800485,19.849409137180178 " />
			<path d="M-111.9786207682898,2.597240694088322 L-130.2280769080049,18.992087727206084 " />
			<path d="M-99.31580168787745,6.0998365287379395 L-116.08954313118343,23.835352010806467 " />
			<path d="M-99.31580168787747,6.957157938712053 L-116.08954313118345,24.692673420780586 " />
			<path d="M-98.61365849622368,7.1785135639053985 L-115.38739993952964,24.91402904597393 " />
			<path d="M-99.23833033900198,6.981681477452375 L-115.38739993952963,24.056707635999807 " />
			<path d="M-86.14689204728215,9.924099002281775 L-100.68644082640454,28.305298197387636 " />
			<path d="M-86.1468920472822,10.78142041225587 L-100.68644082640455,29.162619607361712 " />
			<path d="M-85.41918645099855,10.973292387921525 L-99.95873523012092,29.35449158302737 " />
			<path d="M-85.9804155149052,10.825488403451349 L-99.95873523012088,28.49717017305328 " />
			<path d="M-72.53899759144811,13.196220638199069 L-84.7702634985712,32.12943716859178 " />
			<path d="M-72.53899759144812,14.053542048173188 L-84.77026349857121,32.98675857856588 " />
			<path d="M-71.7894378114483,14.214952638704109 L-84.02070371857138,33.1481691690968 " />
			<path d="M-72.27577051825786,14.110443121935168 L-84.0207037185714,32.29084775912271 " />
			<path d="M-58.56146103131388,15.899527454670546 L-68.42211633903196,35.28828198879272 " />
			<path d="M-58.56146103131386,16.756848864644656 L-68.42211633903194,36.14560339876682 " />
			<path d="M-57.79386665242226,16.886975558670166 L-67.65452196014034,36.27573009279233 " />
			<path d="M-58.19538089619231,16.819141345182636 L-67.65452196014036,35.41840868281823 " />
			<path d="M-44.285508689251905,18.020244019812804 L-51.72530575838128,37.765735908858716 " />
			<path d="M-44.28550868925197,18.877565429786912 L-51.72530575838134,38.62305731883281 " />
			<path d="M-43.503791196475035,18.97574513150195 L-50.9435882656044,38.72123702054784 " />
			<path d="M-43.81229979510857,18.9372167578725 L-50.94358826560435,37.86391561057374 " />
			<path d="M-29.78388754605624,19.547563648121663 L-34.76491487608666,39.549174391496365 " />
			<path d="M-29.783887546056267,20.404885058095765 L-34.764914876086685,40.40649580147047 " />
			<path d="M-28.9920303925515,20.470617466245173 L-33.97305772258191,40.47222820961987 " />
			<path d="M-29.201249011669944,20.453425833243873 L-33.9730577225819,39.61490679964577 " />
			<path d="M-15.130494539003672,20.473703468864173 L-17.62736995641492,40.629509442998824 " />
			<path d="M-15.130494539003767,21.331024878838257 L-17.62736995641502,41.4868308529729 " />
			<path d="M-14.332532847315559,21.363975036137333 L-16.829408264726812,41.51978101027197 " />
			<path d="M-14.438208924134846,21.35971440990376 L-16.82940826472671,40.66245960029788 " />
			<path d="M-0.39999999999997016,20.793944085804085 L-0.39999999999997016,41.00123592357855 " />
			<path d="M-0.4000000000000144,21.65126549577817 L-0.4000000000000183,41.858557333552625 " />
			<path d="M0.3999999999999952,21.65126549577819 L0.3999999999999913,41.85855733355264 " />
			<path d="M0.40000000000000924,20.793944085804103 L0.40000000000000924,41.00123592357855 " />
			<path d="M14.438208924134903,21.35971440990375 L16.829408264726766,40.662459600297886 " />
			<path d="M14.332532847315475,21.363975036137344 L16.829408264726723,41.51978101027197 " />
			<path d="M15.130494539003669,21.33102487883827 L17.627369956414917,41.486830852972915 " />
			<path d="M15.130494539003752,20.473703468864155 L17.627369956415002,40.62950944299881 " />
			<path d="M29.201249011669994,20.45342583324387 L33.973057722581956,39.61490679964577 " />
			<path d="M28.99203039255157,20.47061746624515 L33.97305772258199,40.47222820961984 " />
			<path d="M29.783887546056306,20.404885058095736 L34.764914876086735,40.40649580147044 " />
			<path d="M29.783887546056278,19.547563648121635 L34.764914876086706,39.549174391496365 " />
			<path d="M43.81229979510862,18.93721675787248 L50.94358826560442,37.863915610573756 " />
			<path d="M43.50379119647501,18.97574513150196 L50.94358826560438,38.72123702054786 " />
			<path d="M44.28550868925193,18.877565429786905 L51.7253057583813,38.6230573188328 " />
			<path d="M44.285508689252,18.0202440198128 L51.725305758381374,37.7657359088587 " />
			<path d="M58.1953808961924,16.81914134518261 L67.65452196014046,35.4184086828182 " />
			<path d="M57.793866652422366,16.886975558670144 L67.65452196014046,36.27573009279231 " />
			<path d="M58.56146103131399,16.756848864644617 L68.42211633903207,36.14560339876678 " />
			<path d="M58.56146103131393,15.89952745467054 L68.42211633903203,35.288281988792704 " />
			<path d="M72.2757705182579,14.11044312193518 L84.02070371857145,32.29084775912271 " />
			<path d="M71.78943781144831,14.214952638704133 L84.02070371857141,33.14816916909684 " />
			<path d="M72.53899759144812,14.053542048173204 L84.77026349857121,32.986758578565905 " />
			<path d="M72.53899759144815,13.196220638199069 L84.77026349857125,32.129437168591785 " />
			<path d="M85.98041551490525,10.82548840345136 L99.95873523012092,28.497170173053274 " />
			<path d="M85.41918645099848,10.9732923879215 L99.95873523012085,29.354491583027343 " />
			<path d="M86.1468920472821,10.78142041225587 L100.68644082640445,29.162619607361705 " />
			<path d="M86.14689204728215,9.924099002281778 L100.68644082640452,28.30529819738763 " />
			<path d="M99.238330339002,6.981681477452379 L115.38739993952967,24.0567076359998 " />
			<path d="M98.61365849622361,7.1785135639053745 L115.38739993952957,24.914029045973905 " />
			<path d="M99.31580168787741,6.957157938712021 L116.08954313118338,24.69267342078055 " />
			<path d="M99.31580168787751,6.099836528737923 L116.08954313118349,23.835352010806467 " />
			<path d="M111.9786207682898,2.597240694088283 L130.2280769080049,18.99208772720604 " />
			<path d="M111.3056179420249,2.849953489701692 L130.2280769080049,19.849409137180135 " />
			<path d="M111.97862076828986,2.6002421925074 L130.90107973426987,19.599697839985843 " />
			<path d="M111.9786207682898,1.7429207825332975 L130.90107973426984,18.742376430011756 " />
			<path d="M124.07082246506319,-2.3537181621120276 L144.40514144750276,13.329118588812552 " />
			<path d="M123.4303894723237,-1.990330484745984 L144.40514144750279,14.186439998786685 " />

       </g>

       <!-- solid lines -->
       <g  stroke="rgb(200,20,20)" fill="none">
			<path d="M172.53405460951763,-0.8573214099741264 L172.53405460951763,0.8573214099741 " />
			<path d="M172.53405460951763,0.8573214099740909 L147.78531726798843,-13.431368756261113 " />
			<path d="M147.78531726798843,-15.146011576209318 L147.78531726798843,-13.431368756261092 " />
			<path d="M172.53405460951763,-0.8573214099741264 L147.78531726798843,-15.14601157620933 " />
			<path d="M168.99852070358486,2.8985628622934314 L172.5340546095176,0.8573214099741158 " />
			<path d="M147.78531726798843,-13.4313687562611 L146.01755031502205,-12.41074803010143 " />
			<path d="M-146.01755031502205,-12.41074803010143 L-145.11885473041698,-11.89505986295184 L-144.21469550295285,-11.38256508171196 L-143.3051066737135,-10.873282981520646 L-142.3901224882043,-10.367232736561107 L-141.4697773950626,-9.864433399339035 L-140.54410604476104,-9.364903899965299 L-139.61314328830272,-8.868663045443242 L-138.67692417590928,-8.375729518960512 L-137.73548395570114,-7.886121879185808 L-136.78885807237046,-7.399858559570035 L-135.83708216584674,-6.916957867652329 L-134.8801920699549,-6.437437984370803 L-133.91822381106618,-5.961316963378053 L-132.95121360674193,-5.48861273036141 L-131.9791978643697,-5.019343082368081 L-131.0022131797928,-4.55352568713505 L-130.02029633593241,-4.091178082423994 L-129.03348430140278,-3.632317675360909 L-128.0418142291192,-3.176961741780758 L-127.04532345489945,-2.725127425577085 L-126.0440494960579,-2.276831738056501 L-125.03803004999321,-1.832091557298284 L-124.02730299276894,-1.390923627518859 L-123.01190637768748,-0.9533445584414437 L-121.99187843385754,-0.5193708246706592 L-120.96725756475465,-0.08901876507229645 L-119.93808234677539,0.337695417841843 L-118.90439152778505,0.7607556585239195 L-117.86622402565874,1.1801460289950398 L-116.82361892681611,1.5958507394447423 L-115.77661548474988,2.0078541388256497 L-114.72525311854784,2.4161407154426797 L-113.6695714114089,2.8206950975369267 L-112.6096101091526,3.2215020538645973 L-111.5454091187229,3.618546494270319 L-110.47700850668558,4.011813470255333 L-109.40444849771986,4.40128817554023 L-108.32776947310386,4.786955946622527 L-107.24701196919423,5.168802263328601 L-106.16221667590027,5.5468127493604555 L-105.0734244351516,5.920973172836952 L-103.98067623936063,6.291269446829602 L-102.88401322987941,6.6576876298930046 L-101.78347669545037,7.0202139265896335 L-100.679108070652,7.378834688009363 L-99.57094893433883,7.7335364122832 L-98.459041008076,8.084305745091683 L-97.3434261545685,8.431129480167712 L-96.22414637608502,8.773994559793692 L-95.10124381287656,9.112888075293142 L-93.97476074159,9.447797267516762 L-92.84473957367626,9.77870952732276 L-91.71122285379366,10.105612396051555 L-90.57425325820597,10.428493565994955 L-89.4338735931759,10.747340880859369 L-88.29012679335327,11.062142336223616 L-87.14305592015867,11.37288607999082 L-85.9927041601621,11.67956041283469 L-84.83911482345721,11.982153788639877 L-83.68233134203045,12.280654814936852 L-82.52239726812613,12.575052253330682 L-81.35935627260649,12.865335019924188 L-80.19325214330765,13.151492185735307 L-79.02412878339106,13.433512977108435 L-77.8520302096904,13.711386776120207 L-76.67700055105443,13.985103120979147 L-75.4990840466858,14.25465170641958 L-74.31832504447505,14.520022384089586 L-73.13476799933126,14.781205162933148 L-71.94845747150825,15.038190209566281 L-70.75943812492686,15.290967848647213 L-69.56775472549346,15.539528563240737 L-68.37345213941451,15.783862995176392 L-67.17657533150732,16.023961945400927 L-65.97716936350726,16.259816374324572 L-64.77527939237112,16.491417402161375 L-63.570950668577,16.71875630926354 L-62.36422853442065,16.941824536449744 L-61.155158422308375,17.160613685327263 L-59.943785853046535,17.375115518608325 L-58.73015643412769,17.58532196042016 L-57.51431585801353,17.791225096608997 L-56.29630990041454,17.992817175038184 L-55.07618441856659,18.190090605879874 L-53.853985349504484,18.383037961900925 L-52.629758708332346,18.571651978742395 L-51.40355058649126,18.755925555193215 L-50.17540715002404,18.935851753457314 L-48.945374637836885,19.11142379941508 L-47.713499359958604,19.282635082878187 L-46.47982769579724,19.449479157838596 L-45.24440609239364,19.61194974271116 L-44.0072810626729,19.770040720570222 L-42.768499183693166,19.923746139379787 L-41.52810709489202,20.073060212217754 L-40.28615149633053,20.21797731749362 L-39.042679146935036,20.358491999160307 L-37.79773686273667,20.49459896691947 L-36.55137151510878,20.626293096420696 L-35.30363002900227,20.753569429454444 L-34.05455938117886,20.876423174138708 L-32.80420659844246,20.994849705099455 L-31.552618755868604,21.108844563644723 L-30.29984297503224,21.218403457932496 L-29.045926422233407,21.32352226313236 L-27.79091630672156,21.42419702158068 L-26.534859878918297,21.520423942929725 L-25.27780442863816,21.61219940429028 L-24.019797283308353,21.699519950368114 L-22.760885806186877,21.78238229359401 L-21.5011173945793,21.860783314247556 L-20.2405394780543,21.934720060574676 L-18.979199516657946,22.004189748898654 L-17.717144999126884,22.069189763724978 L-16.454423441100367,22.12971765783982 L-15.191082383331379,22.185771152402182 L-13.927169389896688,22.2373481370297 L-12.662732046406138,22.284446669878008 L-11.397817958210998,22.327064977714016 L-10.13247474861185,22.365201455982486 L-8.866750057065316,22.398854668866562 L-7.600691537390594,22.428023349341842 L-6.334346855975463,22.452706399223942 L-5.067763689981392,22.47290288921002 L-3.800989725548705,22.488612058913617 L-2.5340726560011793,22.499833316893387 L-1.2670601800504189,22.506566240675312 L-2.4802881678128895e-14,22.508810576768624 L1.2670601800503691,22.506566240675312 L2.53407265600113,22.499833316893387 L3.8009897255486553,22.488612058913617 L5.0677636899813425,22.47290288921002 L6.334346855975413,22.452706399223942 L7.600691537390543,22.428023349341842 L8.866750057065264,22.398854668866562 L10.1324747486118,22.365201455982486 L11.397817958210949,22.327064977714016 L12.662732046406088,22.284446669878008 L13.927169389896639,22.2373481370297 L15.191082383331329,22.185771152402182 L16.454423441100325,22.12971765783982 L17.717144999126834,22.069189763724978 L18.9791995166579,22.004189748898654 L20.240539478054252,21.93472006057469 L21.501117394579254,21.860783314247556 L22.760885806186828,21.78238229359401 L24.019797283308307,21.699519950368114 L25.27780442863811,21.61219940429028 L26.53485987891825,21.520423942929725 L27.790916306721517,21.42419702158068 L29.045926422233364,21.32352226313236 L30.299842975032195,21.218403457932496 L31.552618755868558,21.108844563644723 L32.80420659844241,20.994849705099455 L34.054559381178805,20.876423174138708 L35.30363002900222,20.753569429454444 L36.55137151510873,20.626293096420696 L37.79773686273661,20.49459896691947 L39.04267914693499,20.358491999160307 L40.28615149633048,20.21797731749362 L41.52810709489197,20.073060212217754 L42.768499183693116,19.9237461393798 L44.00728106267285,19.770040720570222 L45.24440609239358,19.611949742711175 L46.47982769579719,19.449479157838596 L47.71349935995855,19.2826350828782 L48.94537463783683,19.11142379941508 L50.17540715002399,18.935851753457328 L51.40355058649121,18.755925555193215 L52.6297587083323,18.571651978742395 L53.85398534950442,18.383037961900925 L55.076184418566534,18.190090605879874 L56.296309900414485,17.992817175038184 L57.51431585801348,17.791225096608997 L58.73015643412764,17.58532196042016 L59.94378585304648,17.37511551860834 L61.155158422308325,17.160613685327277 L62.36422853442058,16.941824536449744 L63.57095066857695,16.718756309263554 L64.77527939237108,16.491417402161375 L65.97716936350722,16.259816374324572 L67.17657533150727,16.023961945400927 L68.37345213941444,15.783862995176392 L69.56775472549342,15.539528563240737 L70.7594381249268,15.290967848647256 L71.94845747150819,15.038190209566324 L73.13476799933122,14.78120516293319 L74.318325044475,14.520022384089614 L75.49908404668575,14.254651706419608 L76.67700055105439,13.98510312097919 L77.85203020969035,13.711386776120236 L79.024128783391,13.433512977108478 L80.19325214330759,13.151492185735336 L81.35935627260645,12.865335019924231 L82.52239726812607,12.575052253330725 L83.68233134203041,12.280654814936895 L84.83911482345715,11.98215378863992 L85.99270416016206,11.679560412834718 L87.14305592015866,11.372886079990849 L88.29012679335322,11.062142336223644 L89.4338735931758,10.747340880859412 L90.57425325820591,10.428493565994998 L91.71122285379363,10.105612396051583 L92.84473957367622,9.778709527322789 L93.97476074158992,9.447797267516819 L95.1012438128765,9.112888075293185 L96.22414637608499,8.77399455979372 L97.34342615456846,8.431129480167755 L98.45904100807591,8.084305745091726 L99.57094893433877,7.733536412283229 L100.67910807065199,7.378834688009377 L101.78347669545032,7.020213926589676 L102.88401322987933,6.657687629893047 L103.98067623936059,6.291269446829645 L105.07342443515154,5.92097317283698 L106.1622166759002,5.546812749360498 L107.24701196919412,5.168802263328672 L108.32776947310371,4.786955946622584 L109.40444849771978,4.401288175540273 L110.47700850668546,4.01181347025539 L111.5454091187228,3.618546494270376 L112.60961010915254,3.22150205386464 L113.6695714114088,2.8206950975369836 L114.7252531185478,2.416140715442708 L115.77661548474985,2.007854138825678 L116.82361892681605,1.5958507394447707 L117.86622402565871,1.1801460289950683 L118.90439152778505,0.7607556585239337 L119.93808234677535,0.3376954178418714 L120.96725756475462,-0.08901876507226802 L121.99187843385755,-0.519370824670645 L123.01190637768748,-0.9533445584414295 L124.02730299276888,-1.3909236275188306 L125.03803004999318,-1.8320915572982557 L126.04404949605791,-2.2768317380564866 L127.04532345489942,-2.725127425577057 L128.04181422911915,-3.1769617417807154 L129.03348430140275,-3.6323176753608806 L130.02029633593244,-4.09117808242398 L131.00221317979276,-4.553525687135021 L131.9791978643696,-5.0193430823680245 L132.9512136067419,-5.488612730361368 L133.9182238110662,-5.961316963378039 L134.88019206995486,-6.43743798437076 L135.83708216584665,-6.916957867652258 L136.78885807237043,-7.399858559569978 L137.7354839557011,-7.8861218791857794 L138.67692417590922,-8.375729518960455 L139.61314328830264,-8.868663045443157 L140.54410604476098,-9.364903899965242 L141.46977739506258,-9.864433399338992 L142.39012248820424,-10.36723273656105 L143.30510667371348,-10.873282981520603 L144.21469550295288,-11.382565081711945 L145.11885473041696,-11.895059862951797 L146.0175503150214,-12.410748030101018 " />
			<path d="M-147.78531726798843,-13.431368756261087 L-146.01755031502208,-12.410748030101429 " />
			<path d="M168.99852070358486,2.89856286229341 L168.98937052596892,2.893280004783721 " />
			<path d="M-147.78531726798843,-13.431368756261087 L-172.5340546095176,0.8573214099741158 " />
			<path d="M-168.98937052596904,2.893280004783634 L-167.9416326409159,3.48221748650667 L-166.88773743088112,4.067481425305772 L-165.82772353533238,4.649050363367252 L-164.76162981806982,5.22690297834896 L-163.68949536580098,5.801018084162095 L-162.61135948670776,6.3713746317479405 L-161.5272617090053,6.937951709849656 L-160.43724177949264,7.50072854577887 L-159.34133966209558,8.059684506177348 L-158.2395955364014,8.614799097773428 L-157.13204979618573,9.16605196813343 L-156.01874304793157,9.7134229064078 L-154.8997161093406,10.256891844072129 L-153.77501000783653,10.796438855662956 L-152.64466597906096,11.332044159508285 L-151.50872546536155,11.8636881184528 L-150.36723011427262,12.391351240577947 L-149.2202217769881,12.915014179916483 L-148.0677425068272,13.4346577371618 L-146.9098345576926,13.950262860371836 L-145.74654038252126,14.461810645667526 L-144.57790263172797,14.969282337926018 L-143.40396415164153,15.47265933146818 L-142.224767982934,15.971923170740794 L-141.04035735904253,16.467055550993223 L-139.85077570458444,16.958038318948482 L-138.65606663376496,17.44485347346881 L-137.45627394877832,17.92748316621568 L-136.2514416382017,18.4059097023042 L-135.04161387538252,18.88011554095175 L-133.8268350168189,19.350083296121227 L-132.60714960053335,19.815795737158467 L-131.38260234443982,20.27723578942384 L-130.15323814470426,20.734386534918457 L-128.9191020740986,21.187231212904294 L-127.6802393803481,21.63575322051875 L-126.43669548447252,22.07993611338341 L-125.18851597912078,22.519763606206894 L-123.93574662689937,22.955219573381925 L-122.67843335869456,23.38628804957665 L-121.41662227198837,23.812953230319806 L-120.15035962916866,24.235199472580376 L-118.87969185583262,24.65301129534093 L-117.60466553908496,25.06637338016536 L-116.32532742582978,25.475270571760404 L-115.04172442105663,25.879687878531342 L-113.75390358612081,26.27961047313164 L-112.46191213701802,26.67502369300655 L-111.16579744265316,27.06591304093071 L-109.86560702310364,27.45226418553966 L-108.56138854787717,27.83406296185524 L-107.25318983416402,28.211295371804994 L-105.94105884508382,28.583947584735355 L-104.62504368792713,28.952005937918713 L-103.30519261239165,29.31545693705438 L-101.98155400881313,29.674287256763236 L-100.65417640639139,30.02848374107647 L-99.32310847141098,30.378033403917684 L-97.98839900545676,30.72292342957924 L-96.65009694362486,31.06314117319195 L-95.30825135272852,31.398674161188836 L-93.96291142949903,31.72951009176225 L-92.61412649878211,32.05563683531514 L-91.26194601172944,32.377042434905576 L-89.9064195439856,32.69371510668523 L-88.54759679387051,33.00564324033138 L-87.18552758055725,33.31281539947261 L-85.82026184224554,33.61522032210806 L-84.45184963433087,33.91284692102039 L-83.08034112756921,34.20568428418218 L-81.70578660623767,34.493721675156166 L-80.32823646629079,34.77694853348871 L-78.94774121351303,35.05535447509703 L-77.5643514616669,35.32892929265 L-76.17811793063731,35.5976629559423 L-74.78909144457198,35.86154561226215 L-73.39732293001809,36.1205675867526 L-72.00286341405523,36.374719382766216 L-70.60576402242435,36.62399168221327 L-69.20607597765348,36.86837534590339 L-67.80385059717973,37.107861413880556 L-66.39913929146769,37.342441105751675 L-64.9919935621247,37.572105821008535 L-63.58246500001249,37.796847139343015 L-62.17060528335576,38.016656820955916 L-60.75646617584748,38.23152680685894 L-59.34009952475096,38.44144921917035 L-57.92155725899902,38.646416361403595 L-56.50089138729017,38.846420718749584 L-55.07815399618169,39.041454958352176 L-53.6533972481799,39.23151192957715 L-52.226673379827815,39.41658466427421 L-50.79803469978992,39.59666637703248 L-49.36753358693439,39.77175046542942 L-47.93522248841265,39.94183051027272 L-46.501153917736495,40.106900275835784 L-45.0653804528528,40.266953710086256 L-43.627954734215756,40.42198494490799 L-42.18892946285696,40.571988296316135 L-40.74835739845318,40.71695826466555 L-39.306291357391984,40.856889534852456 L-37.86278421083534,40.99177697650924 L-36.41788888278115,41.12161564419273 L-34.97165834812285,41.24640077756524 L-33.52414563070729,41.36612780156935 L-32.0754038013906,41.48079232659546 L-30.625485976092335,41.59039014864288 L-29.1744453138482,41.69491724947386 L-27.722335014861034,41.79436979676095 L-26.269208318550255,41.88874414422747 L-24.81511850159997,41.97803683178128 L-23.36011887600563,42.062244585641565 L-21.90426278711943,42.14136431845887 L-20.4476036116945,42.21539312942832 L-18.990194755927934,42.284328304395956 L-17.532089653502695,42.34816731595825 L-16.073341763628576,42.40690782355475 L-14.61400456908221,42.46054767355392 L-13.154131574246177,42.50908489933215 L-11.693776303147311,42.55251772134571 L-10.232992297494485,42.59084454719613 L-8.771833114715466,42.62406397168854 L-7.31035232599322,42.65217477688316 L-5.848603514301956,42.67517593214001 L-4.386640272442542,42.69306659415665 L-2.9245162010776,42.70584610699913 L-1.4622849067663208,42.713514002126004 L9.362211376804515e-13,42.716069998405516 L1.4622849067681933,42.713514002125976 L2.9245162010794723,42.705846106999104 L4.3866402724444145,42.69306659415662 L5.848603514303829,42.67517593213998 L7.310352325995091,42.65217477688313 L8.771833114717337,42.624063971688514 L10.232992297496354,42.5908445471961 L11.693776303149182,42.55251772134565 L13.154131574248046,42.509084899332095 L14.61400456908408,42.46054767355386 L16.073341763630445,42.40690782355466 L17.532089653504563,42.348167315958165 L18.9901947559298,42.28432830439587 L20.447603611696366,42.215393129428236 L21.90426278712129,42.141364318458784 L23.36011887600749,42.06224458564145 L24.815118501601834,41.97803683178117 L26.269208318552117,41.88874414422736 L27.722335014862892,41.794369796760805 L29.17444531385006,41.69491724947372 L30.62548597609419,41.59039014864274 L32.075403801392454,41.48079232659532 L33.52414563070914,41.366127801569206 L34.971658348124706,41.2464007775651 L36.417888882783004,41.12161564419256 L37.86278421083719,40.99177697650907 L39.30629135739383,40.856889534852286 L40.74835739845503,40.71695826466538 L42.18892946285881,40.571988296315936 L43.627954734217596,40.42198494490779 L45.06538045285463,40.26695371008606 L46.501153917738336,40.10690027583556 L47.93522248841449,39.941830510272496 L49.367533586936226,39.77175046542919 L50.79803469979176,39.59666637703225 L52.22667337982964,39.416584664273984 L53.653397248181726,39.231511929576925 L55.07815399618351,39.04145495835192 L56.500891387291986,38.8464207187493 L57.92155725900084,38.64641636140334 L59.34009952475278,38.441449219170096 L60.75646617584929,38.23152680685868 L62.170605283357574,38.01665682095563 L63.582465000014295,37.79684713934273 L64.9919935621265,37.57210582100825 L66.3991392914695,37.34244110575139 L67.80385059718152,37.107861413880244 L69.20607597765527,36.868375345903075 L70.60576402242614,36.62399168221296 L72.00286341405702,36.374719382765875 L73.3973229300199,36.12056758675226 L74.78909144457376,35.86154561226181 L76.17811793063909,35.597662955941956 L77.56435146166869,35.32892929264966 L78.9477412135148,35.05535447509669 L80.32823646629251,34.776948533488365 L81.70578660623933,34.493721675155825 L83.08034112757088,34.20568428418184 L84.4518496343325,33.91284692102002 L85.82026184224719,33.61522032210769 L87.1855275805589,33.31281539947224 L88.54759679387216,33.00564324033101 L89.90641954398724,32.693715106684834 L91.26194601173113,32.37704243490518 L92.61412649878383,32.055636835314715 L93.96291142950076,31.729510091761824 L95.30825135273024,31.39867416118841 L96.65009694362658,31.063141173191553 L97.98839900545848,30.722923429578813 L99.32310847141268,30.37803340391727 L100.65417640639309,30.028483741076045 L101.98155400881478,29.674287256762824 L103.30519261239324,29.315456937053952 L104.62504368792872,28.9520059379183 L105.9410588450854,28.58394758473493 L107.2531898341656,28.211295371804553 L108.56138854787875,27.834062961854798 L109.8656070231052,27.45226418553922 L111.16579744265472,27.06591304093027 L112.46191213701958,26.675023693006096 L113.75390358612238,26.279610473131186 L115.04172442105826,25.879687878530845 L116.32532742583142,25.475270571759907 L117.6046655390866,25.066373380164848 L118.87969185583424,24.65301129534042 L120.15035962917028,24.23519947257985 L121.41662227199001,23.812953230319295 L122.67843335869611,23.386288049576137 L123.9357466269009,22.955219573381413 L125.18851597912229,22.519763606206368 L126.43669548447403,22.079936113382885 L127.68023938034959,21.63575322051824 L128.9191020741001,21.187231212903754 L130.15323814470577,20.73438653491793 L131.38260234444132,20.277235789423315 L132.60714960053485,19.815795737157913 L133.8268350168204,19.350083296120687 L135.041613875384,18.88011554095118 L136.25144163820318,18.40590970230363 L137.45627394877977,17.92748316621514 L138.6560666337664,17.444853473468243 L139.85077570458583,16.958038318947914 L141.04035735904392,16.46705555099267 L142.22476798293542,15.97192317074024 L143.40396415164295,15.47265933146761 L144.57790263172936,14.96928233792545 L145.74654038252265,14.461810645666944 L146.90983455769396,13.950262860371254 L148.0677425068285,13.434657737161245 L149.2202217769894,12.915014179915914 L150.367230114274,12.391351240577336 L151.50872546536294,11.863688118452188 L152.64466597906232,11.332044159507646 L153.77501000783798,10.796438855662288 L154.89971610934205,10.256891844071461 L156.01874304793301,9.713422906407118 L157.13204979618715,9.166051968132763 L158.2395955364028,8.61479909777276 L159.34133966209697,8.05968450617668 L160.437241779494,7.500728545778188 L161.52726170900667,6.937951709848974 L162.61135948670912,6.371374631747258 L163.68949536580234,5.801018084161399 L164.76162981807116,5.226902978348264 L165.82772353533372,4.649050363366555 L166.88773743088242,4.0674814253050755 L167.94163264091725,3.482217486505945 L168.98937052596955,2.893280004783378 " />
			<path d="M-168.99852070358486,2.8985628622934243 L-172.5340546095176,0.8573214099741078 " />
			<path d="M-168.98937052596892,2.893280004783726 L-168.99852070358486,2.898562862293428 " />
			<path d="M153.65430355183682,5.307227776030223 L165.60440815388947,-1.5921683328090677 " />
			<path d="M153.65430355183676,5.307227776030215 L152.381511345701,4.572380853195268 " />
			<path d="M152.381511345701,4.572380853195258 L158.10907627331204,1.2655697004379682 " />
			<path d="M158.10907627331204,1.265569700437986 L147.07821048680188,-5.1031036307982784 " />
			<path d="M141.35064555919084,-1.796292478041022 L147.07821048680188,-5.103103630798312 " />
			<path d="M141.35064555919084,-1.7962924780410034 L140.07785335305505,-2.5311394008759542 " />
			<path d="M140.07785335305508,-2.5311394008759445 L152.02795795510772,-9.430535509715236 " />
			<path d="M165.60440815388944,-1.5921683328090683 L152.02795795510772,-9.430535509715238 " />
			<path d="M-152.381511345701,4.5723808531952645 L-153.6543035518368,5.307227776030217 " />
			<path d="M-152.381511345701,4.572380853195264 L-158.10907627331204,1.26556970043797 " />
			<path d="M-153.65430355183676,5.30722777603022 L-165.6044081538894,-1.59216833280907 " />
			<path d="M-147.07821048680188,-5.103103630798285 L-158.10907627331204,1.2655697004379771 " />
			<path d="M-152.02795795510772,-9.430535509715234 L-165.60440815388944,-1.5921683328090666 " />
			<path d="M-141.35064555919084,-1.7962924780409883 L-147.07821048680188,-5.103103630798282 " />
			<path d="M-140.07785335305505,-2.531139400875948 L-152.0279579551077,-9.430535509715238 " />
			<path d="M-140.07785335305508,-2.531139400875951 L-141.35064555919087,-1.7962924780409981 " />
			<path d="M147.78531726798843,-15.146011576209318 L146.01755031502205,-14.125390850049648 " />
			<path d="M146.01755031502205,-12.410748030101423 L146.01755031502205,-14.12539085004965 " />
			<path d="M124.07082246506316,-3.1244463923838453 L124.79625674331614,-3.440691131159639 L125.51927282045075,-3.758776470169579 L126.23985668644532,-4.078696245812793 L126.95799437840729,-4.40044425894213 L127.67367198084418,-4.724014274984285 L128.38687562593324,-5.049400024060759 L129.09759149378996,-5.37659520110914 L129.8058058127359,-5.705593466005425 L130.51150485956586,-6.03638844368686 L131.21467495981335,-6.368973724275392 L131.91530248801573,-6.703342863201897 L132.6133738679785,-7.039489381331208 L133.30887557303794,-7.377406765087414 L134.00179412632338,-7.717088466580222 L134.6921161010186,-8.058527903731914 L135.37982812062162,-8.401718460404666 L136.0649168592041,-8.746653486528913 L136.74736904166946,-9.093326298232185 L137.4271714440102,-9.441730177968552 L138.10431089356433,-9.791858374648982 L138.77877426927012,-10.143704103771867 L139.4505485019207,-10.497260547554703 L140.1196205744174,-10.852520855066174 L140.78597752202174,-11.209478142358805 L141.44960643260657,-11.568125492602434 L142.11049444690676,-11.9284559562183 L142.76862875876782,-12.290462551013505 L143.4239966153943,-12.654138262316494 L144.07658531759702,-13.01947604311296 L144.7263822200389,-13.386468814182294 L145.37337473148006,-13.755109464234792 L146.0175503150214,-14.125390850049257 " />
			<path d="M158.109076273312,1.0206207261596774 L164.1194839133977,-2.449489742783179 " />
			<path d="M158.10907627331204,-0.44907311951024553 L147.29034252115784,-6.695271963607352 " />
			<path d="M-146.01755031502208,-12.410748030101438 L-146.01755031502208,-14.125390850049664 " />
			<path d="M-146.01755031502205,-14.12539085004967 L-145.37337473148008,-13.755109464234835 L-144.7263822200389,-13.386468814182308 L-144.07658531759702,-13.019476043112988 L-143.4239966153943,-12.654138262316536 L-142.7686287587678,-12.290462551013519 L-142.11049444690676,-11.928455956218329 L-141.4496064326066,-11.568125492602462 L-140.78597752202168,-11.209478142358819 L-140.11962057441738,-10.852520855066174 L-139.45054850192068,-10.497260547554717 L-138.7787742692701,-10.143704103771867 L-138.1043108935643,-9.791858374648982 L-137.4271714440102,-9.44173017796858 L-136.7473690416694,-9.093326298232185 L-136.06491685920406,-8.746653486528913 L-135.37982812062162,-8.401718460404695 L-134.69211610101863,-8.058527903731942 L-134.0017941263234,-7.717088466580265 L-133.3088755730379,-7.377406765087443 L-132.6133738679785,-7.039489381331222 L-131.91530248801573,-6.703342863201925 L-131.2146749598133,-6.368973724275392 L-130.51150485956586,-6.036388443686889 L-129.8058058127359,-5.705593466005453 L-129.0975914937899,-5.376595201109168 L-128.38687562593324,-5.049400024060773 L-127.6736719808442,-4.724014274984313 L-126.95799437840728,-4.400444258942144 L-126.23985668644531,-4.078696245812807 L-125.51927282045078,-3.758776470169593 L-124.79625674331609,-3.4406911311596247 L-124.07082246506333,-3.1244463923839305 " />
			<path d="M-124.07082246506316,-2.267124982409726 L-124.07082246506316,-3.12444639238384 " />
			<path d="M-124.07082246506315,-2.267124982409726 L-123.43038947232384,-1.9903304847460817 " />
			<path d="M-123.43038947232367,-1.9903304847460106 L-123.43038947232367,-2.8476518947201246 " />
			<path d="M-123.43038947232365,-2.8476518947201157 L-122.73060700981517,-2.5477504047061927 L-122.02863854327418,-2.249556688053019 L-121.32449657574244,-1.9530760560084133 L-120.61819364897475,-1.6583137893077264 L-119.90974234321558,-1.365275138079852 L-119.19915527697515,-1.0739653217536613 L-118.48644510680448,-0.7843895289650362 L-117.77162452707006,-0.4965529174645127 L-117.05470626972776,-0.21046061402530825 L-116.335703104096,0.07388228564786914 L-115.6146278366283,0.35647071700969946 L-114.8914933106853,0.637299646764319 L-114.16631240630586,0.9163640729551332 L-113.43909803997776,1.1936590250538046 L-112.70986316440752,1.4691795640487726 L-111.97862076829,1.742920782533247 " />
			<path d="M-111.9786207682898,2.6002421925074195 L-111.9786207682898,1.7429207825333053 " />
			<path d="M-111.97862076828982,2.600242192507423 L-111.30561794202525,2.8499534897015906 " />
			<path d="M-111.30561794202487,2.8499534897017327 L-111.30561794202487,1.9926320797276185 " />
			<path d="M-111.30561794202487,1.9926320797276134 L-110.57056169026542,2.2629470273482895 L-109.83353602191448,2.5314685163480988 L-109.09455406443162,2.798191763983155 L-108.35362898012067,3.0631120195388206 L-107.61077396589532,3.3262245644142183 L-106.86600225304393,3.58752471220636 L-106.11932710699398,3.847007808793606 L-105.37076182707578,4.1046692324184875 L-104.6203197462856,4.360504393770114 L-103.86801423104805,4.614508736065929 L-103.11385868097824,4.866677735132754 L-102.35786652864292,5.117006899487478 L-101.60005123932132,5.365491770417009 L-100.8404263107653,5.612127922057752 L-100.07900527295892,5.856910961474327 L-99.31580168787788,6.099836528737811 " />
			<path d="M-99.31580168787747,6.957157938712047 L-99.31580168787747,6.099836528737933 " />
			<path d="M-99.31580168787742,6.957157938712058 L-98.61365849622405,7.178513563905284 " />
			<path d="M-98.61365849622365,7.178513563905387 L-98.61365849622365,6.321192153931273 " />
			<path d="M-98.61365849622365,6.321192153931278 L-97.8470741333822,6.560543096147356 L-97.07874697708579,6.798024033536478 L-96.30869071231733,7.033630736230492 L-95.53691905485758,7.267359007743977 L-94.76344575104089,7.499204685049008 L-93.9882845775103,7.729163638649325 L-93.21144934097211,7.957231772653813 L-92.4329538779501,8.18340502484952 L-91.65281205453901,8.407679366774019 L-90.87103776615751,8.6300508037871 L-90.08764493730081,8.850515375141995 L-89.30264752129256,9.069069154055825 L-88.51605950003635,9.285708247779667 L-87.72789488376674,9.500428797667794 L-86.93816771079958,9.713226979246386 L-86.14689204728253,9.924099002281665 " />
			<path d="M-86.14689204728215,10.781420412255901 L-86.14689204728215,9.924099002281787 " />
			<path d="M-86.14689204728212,10.781420412255912 L-85.41918645099894,10.973292387921433 " />
			<path d="M-85.41918645099854,10.973292387921553 L-85.41918645099854,10.11597097794744 " />
			<path d="M-85.41918645099852,10.115970977947427 L-84.62498031527129,10.323138237221514 L-83.82926689010155,10.528368474578514 L-83.03206034826006,10.731658034580434 L-82.23337488911204,10.933003296355423 L-81.43322473836434,11.132400673662346 L-80.63162414781199,11.329846614954562 L-79.8285873950844,11.52533760344329 L-79.02412878339102,11.718870157160211 L-78.21826264126662,11.910440829019393 L-77.41100332231606,12.10004620687883 L-76.60236520495862,12.28768291360116 L-75.7923626921719,12.473347607113794 L-74.98101021123533,12.657036980468419 L-74.16832221347313,12.838747761900038 L-73.35431317399697,13.018476714885068 L-72.53899759144855,13.196220638198966 " />
			<path d="M-72.53899759144812,14.05354204817318 L-72.53899759144812,13.196220638199065 " />
			<path d="M-72.53899759144814,14.053542048173185 L-71.78943781144876,14.21495263870402 " />
			<path d="M-71.78943781144831,14.214952638704116 L-71.78943781144831,13.357631228730002 " />
			<path d="M-71.78943781144834,13.35763122873 L-70.97165699525463,13.531559128195823 L-70.15261207443243,13.703492859274121 L-69.33231763731904,13.873429359584321 L-68.51078829450748,14.041365602319289 L-67.68803867858615,14.207298596299282 L-66.86408344387823,14.371225386025259 L-66.03893726618061,14.533143051731457 L-65.21261484250265,14.693048709437434 L-64.38513089080418,14.850939510999439 L-63.55650014973352,15.006812644161101 L-62.72673737836496,15.160665332603614 L-61.89585735593576,15.312494835995025 L-61.06387488158303,15.462298450039228 L-60.2308047740801,15.610073506523989 L-59.39666187157253,15.755817373368586 L-58.56146103131433,15.899527454670476 " />
			<path d="M-58.56146103131389,16.756848864644674 L-58.56146103131389,15.89952745467056 " />
			<path d="M-58.5614610313139,16.75684886464468 L-57.79386665242271,16.886975558670116 " />
			<path d="M-57.793866652422274,16.88697555867017 L-57.793866652422274,16.029654148696054 " />
			<path d="M-57.79386665242226,16.029654148696068 L-56.956678379349306,16.16945639164578 L-56.11847562804921,16.30721748156253 L-55.279273328087164,16.442934964728337 L-54.43908642683165,16.576606423824714 L-53.59792988918834,16.708229477975735 L-52.75581869733347,16.837801782790393 L-51.91276785044698,16.965321030404468 L-51.06879236444547,17.090784949521506 L-50.22390727171453,17.21419130545337 L-49.37812762084114,17.33553790015999 L-48.5314684763457,17.45482257228855 L-47.68394491841358,17.57204319721191 L-46.835572042626566,17.687197687066558 L-45.986364959693965,17.800283990789723 L-45.13633879518351,17.91130009415592 L-44.28550868925236,18.020244019812765 " />
			<path d="M-44.285508689251905,18.877565429786923 L-44.285508689251905,18.020244019812807 " />
			<path d="M-44.28550868925191,18.877565429786955 L-43.5037911964754,18.975745131501924 " />
			<path d="M-43.50379119647499,18.97574513150195 L-43.50379119647499,18.118423721527833 " />
			<path d="M-43.50379119647495,18.118423721527847 L-42.65146158606159,18.223387907776925 L-41.798372293370996,18.326274357595594 L-40.9445385131185,18.427081238432038 L-40.08997545327977,18.52580675477452 L-39.23469833481999,18.62244914818328 L-38.378722391422706,18.717006697321935 L-37.52206286921853,18.80947771798806 L-36.66473502651361,18.89986056314325 L-35.80675413351772,18.988153622942406 L-34.9481354720724,19.074355324762493 L-34.088894335378804,19.15846413323044 L-33.2290460277252,19.240478550250515 L-32.36860586421444,19.320397115031085 L-31.507589170491123,19.398218404110565 L-30.646011282468702,19.47394103138278 L-29.78388754605671,19.54756364812161 " />
			<path d="M-29.783887546056214,20.40488505809575 L-29.783887546056214,19.547563648121635 " />
			<path d="M-29.783887546056167,20.404885058095786 L-28.992030392551936,20.470617466245145 " />
			<path d="M-28.99203039255146,20.470617466245155 L-28.99203039255146,19.61329605627104 " />
			<path d="M-28.992030392551392,19.613296056271068 L-28.12890272112086,19.68288731238634 L-27.265274034529764,19.750374836342317 L-26.401159715214778,19.81575742609165 L-25.53657515426239,19.87903391707887 L-24.671535751134748,19.940203182261 L-23.80605691339537,19.999264132127763 L-22.94015405643472,20.056215714720864 L-22.073842603195697,20.111056915652895 L-21.20713798389876,20.163786758125227 L-20.34005563576722,20.214404302945496 L-19.472611002752366,20.26290864854431 L-18.60481953525822,20.30929893099136 L-17.736696689866424,20.353574324010694 L-16.868257929060935,20.39573403899557 L-15.999518720952594,20.435777325022414 L-15.130494539004083,20.47370346886416 " />
			<path d="M-15.130494539003646,21.33102487883829 L-15.130494539003646,20.473703468864173 " />
			<path d="M-15.130494539003625,21.331024878838292 L-14.332532847315894,21.36397503613736 " />
			<path d="M-14.332532847315454,21.36397503613736 L-14.332532847315454,20.506653626163246 " />
			<path d="M-14.332532847315436,20.506653626163256 L-13.463005415634834,20.540517331055284 L-12.593238188968684,20.572262028196022 L-11.723246659089721,20.601887152167933 L-10.853046321765778,20.629392175306066 L-9.982652676483843,20.654776607707447 L-9.112081226173991,20.678039997239765 L-8.241347476933255,20.699181929549454 L-7.370466937749435,20.718202028069115 L-6.499455120224867,20.735099954024108 L-5.628327538300139,20.74987540643872 L-4.757099707977765,20.76252812214146 L-3.8857871470458227,20.77305787576971 L-3.014405374801563,20.78146447977383 L-2.1429699117749843,20.787747784420432 L-1.271496279452394,20.791907677795024 L-0.40000000000045277,20.793944085804114 " />
			<path d="M-0.3999999999999488,21.651265495778205 L-0.3999999999999487,20.79394408580409 " />
			<path d="M-0.39999999999999425,21.651265495778233 L0.39999999999953195,21.651265495778233 " />
			<path d="M0.4000000000000093,21.651265495778205 L0.4000000000000094,20.79394408580409 " />
			<path d="M0.3999999999999905,20.793944085804114 L1.271496279452436,20.791907677795024 L2.1429699117750265,20.787747784420432 L3.0144053748016058,20.78146447977383 L3.8857871470458654,20.77305787576971 L4.757099707977806,20.76252812214146 L5.62832753830018,20.74987540643872 L6.499455120224908,20.735099954024108 L7.370466937749476,20.7182020280691 L8.241347476933298,20.699181929549454 L9.112081226174034,20.678039997239765 L9.982652676483884,20.654776607707447 L10.853046321765818,20.629392175306066 L11.723246659089762,20.601887152167933 L12.593238188968725,20.572262028196008 L13.463005415634875,20.540517331055284 L14.332532847315068,20.50665362616327 " />
			<path d="M14.332532847315555,21.36397503613737 L14.332532847315555,20.506653626163253 " />
			<path d="M14.332532847315527,21.363975036137376 L15.130494539003301,21.331024878838306 " />
			<path d="M15.130494539003745,21.331024878838292 L15.130494539003745,20.473703468864176 " />
			<path d="M15.130494539003758,20.473703468864173 L15.999518720952727,20.435777325022414 L16.868257929061073,20.39573403899557 L17.736696689866562,20.353574324010694 L18.604819535258354,20.309298930991346 L19.4726110027525,20.262908648544297 L20.34005563576736,20.214404302945482 L21.207137983898896,20.163786758125227 L22.073842603195832,20.11105691565288 L22.94015405643486,20.056215714720864 L23.806056913395505,19.99926413212775 L24.671535751134883,19.940203182261 L25.536575154262525,19.879033917078857 L26.40115971521491,19.81575742609165 L27.265274034529895,19.750374836342303 L28.128902721120998,19.682887312386327 L28.992030392551072,19.613296056271096 " />
			<path d="M28.992030392551527,20.470617466245155 L28.992030392551527,19.61329605627104 " />
			<path d="M28.992030392551527,20.470617466245173 L29.78388754605585,20.404885058095815 " />
			<path d="M29.783887546056253,20.40488505809574 L29.783887546056253,19.547563648121624 " />
			<path d="M29.783887546056306,19.547563648121653 L30.646011282468752,19.473941031382765 L31.507589170491165,19.398218404110565 L32.36860586421447,19.32039711503107 L33.22904602772524,19.240478550250515 L34.08889433537884,19.15846413323044 L34.94813547207244,19.074355324762493 L35.806754133517764,18.988153622942406 L36.66473502651365,18.89986056314325 L37.522062869218566,18.80947771798806 L38.37872239142275,18.717006697321935 L39.234698334820024,18.62244914818328 L40.08997545327981,18.525806754774507 L40.94453851311854,18.427081238432038 L41.79837229337104,18.326274357595594 L42.65146158606162,18.223387907776925 L43.50379119647454,18.118423721527904 " />
			<path d="M43.50379119647504,18.97574513150196 L43.50379119647504,18.118423721527844 " />
			<path d="M43.503791196475035,18.975745131501952 L44.2855086892515,18.877565429786983 " />
			<path d="M44.28550868925198,18.877565429786923 L44.28550868925198,18.020244019812807 " />
			<path d="M44.28550868925195,18.02024401981282 L45.13633879518355,17.911300094155905 L45.986364959694,17.800283990789723 L46.8355720426266,17.687197687066543 L47.683944918413616,17.572043197211897 L48.53146847634574,17.454822572288535 L49.37812762084118,17.33553790015999 L50.223907271714566,17.214191305453355 L51.06879236444555,17.090784949521478 L51.9127678504471,16.96532103040444 L52.755818697333595,16.837801782790365 L53.59792988918847,16.708229477975706 L54.43908642683177,16.5766064238247 L55.279273328087285,16.442934964728323 L56.118475628049346,16.307217481562503 L56.95667837934943,16.169456391645753 L57.79386665242195,16.029654148696125 " />
			<path d="M57.793866652422395,16.886975558670148 L57.793866652422395,16.029654148696032 " />
			<path d="M57.79386665242238,16.88697555867016 L58.56146103131349,16.756848864644738 " />
			<path d="M58.56146103131393,16.756848864644645 L58.56146103131393,15.899527454670531 " />
			<path d="M58.561461031313925,15.899527454670547 L59.39666187157256,15.755817373368572 L60.230804774080134,15.610073506523989 L61.063874881583075,15.462298450039214 L61.8958573559358,15.312494835995011 L62.726737378365,15.1606653326036 L63.556500149733566,15.006812644161101 L64.3851308908042,14.850939510999424 L65.21261484250263,14.69304870943742 L66.03893726618057,14.533143051731457 L66.86408344387816,14.371225386025259 L67.6880386785861,14.207298596299282 L68.51078829450744,14.041365602319289 L69.33231763731898,13.873429359584321 L70.15261207443237,13.703492859274164 L70.97165699525459,13.531559128195852 L71.78943781144785,13.357631228730128 " />
			<path d="M71.78943781144832,14.214952638704112 L71.78943781144832,13.357631228729998 " />
			<path d="M71.78943781144837,14.214952638704133 L72.5389975914477,14.053542048173298 " />
			<path d="M72.53899759144811,14.053542048173183 L72.53899759144811,13.196220638199069 " />
			<path d="M72.53899759144812,13.196220638199094 L73.354313173997,13.018476714885082 L74.16832221347317,12.838747761900052 L74.98101021123536,12.657036980468433 L75.79236269217193,12.473347607113794 L76.60236520495866,12.287682913601174 L77.41100332231609,12.100046206878858 L78.21826264126666,11.910440829019407 L79.02412878339105,11.718870157160225 L79.82858739508443,11.525337603443319 L80.63162414781202,11.329846614954576 L81.43322473836437,11.132400673662346 L82.23337488911208,10.933003296355437 L83.03206034826009,10.731658034580448 L83.82926689010158,10.528368474578528 L84.62498031527132,10.323138237221514 L85.41918645099814,10.11597097794754 " />
			<path d="M85.41918645099855,10.973292387921543 L85.41918645099855,10.115970977947429 " />
			<path d="M85.41918645099855,10.97329238792156 L86.14689204728136,10.781420412256125 " />
			<path d="M86.14689204728217,10.781420412255898 L86.14689204728217,9.924099002281784 " />
			<path d="M86.1468920472822,9.924099002281793 L86.9381677107997,9.713226979246386 L87.72789488376685,9.50042879766778 L88.51605950003648,9.285708247779652 L89.30264752129266,9.06906915405581 L90.08764493730091,8.850515375141981 L90.87103776615761,8.6300508037871 L91.65281205453911,8.407679366774005 L92.43295387795021,8.183405024849506 L93.21144934097222,7.957231772653799 L93.9882845775104,7.729163638649311 L94.763445751041,7.499204685049008 L95.53691905485769,7.267359007743963 L96.30869071231743,7.033630736230492 L97.07874697708588,6.798024033536464 L97.84707413338232,6.560543096147342 L98.61365849622287,6.321192153931548 " />
			<path d="M98.61365849622369,7.178513563905394 L98.61365849622369,6.32119215393128 " />
			<path d="M98.61365849622368,7.178513563905412 L99.3158016878767,6.957157938712314 " />
			<path d="M99.31580168787751,6.957157938712051 L99.31580168787751,6.099836528737937 " />
			<path d="M99.31580168787751,6.099836528737939 L100.07900527295888,5.856910961474355 L100.84042631076524,5.61212792205778 L101.60005123932126,5.3654917704170515 L102.35786652864286,5.117006899487507 L103.11385868097818,4.866677735132782 L103.868014231048,4.614508736065957 L104.62031974628556,4.360504393770157 L105.37076182707575,4.104669232418516 L106.11932710699392,3.8470078087936344 L106.86600225304387,3.5875247122064025 L107.61077396589526,3.326224564414261 L108.35362898012062,3.0631120195388633 L109.09455406443156,2.7981917639831835 L109.83353602191443,2.531468516348127 L110.57056169026538,2.262947027348318 L111.30561794202409,1.992632079727926 " />
			<path d="M111.3056179420249,2.8499534897017043 L111.3056179420249,1.99263207972759 " />
			<path d="M111.30561794202485,2.849953489701761 L111.97862076828906,2.6002421925077357 " />
			<path d="M111.9786207682898,2.600242192507423 L111.9786207682898,1.7429207825333088 " />
			<path d="M111.97862076828982,1.742920782533318 L112.70986316440754,1.4691795640487868 L113.43909803997781,1.1936590250538046 L114.1663124063059,0.9163640729551474 L114.89149331068532,0.637299646764319 L115.61462783662833,0.35647071700969946 L116.33570310409601,0.07388228564788335 L117.0547062697278,-0.21046061402530825 L117.77162452707012,-0.4965529174645127 L118.48644510680454,-0.7843895289650504 L119.19915527697522,-1.0739653217536613 L119.90974234321564,-1.3652751380798662 L120.61819364897481,-1.6583137893077406 L121.3244965757425,-1.9530760560084133 L122.02863854327424,-2.2495566880530333 L122.73060700981524,-2.547750404706207 L123.43038947232299,-2.8476518947198315 " />
			<path d="M123.4303894723237,-1.990330484746032 L123.4303894723237,-2.847651894720146 " />
			<path d="M123.43038947232372,-1.9903304847460106 L124.07082246506242,-2.2671249824094133 " />
			<path d="M124.07082246506319,-2.26712498240974 L124.07082246506319,-3.124446392383854 " />
			<path d="M-147.78531726798843,-15.146011576209318 L-146.01755031502208,-14.12539085004966 " />
			<path d="M-147.78531726798843,-15.146011576209318 L-147.78531726798843,-13.431368756261092 " />
			<path d="M-172.5340546095176,-0.8573214099741193 L-172.5340546095176,0.8573214099741071 " />
			<path d="M-147.78531726798843,-15.146011576209318 L-172.5340546095176,-0.8573214099741158 " />
			<path d="M153.6543035518368,3.837533930360306 L153.6543035518368,5.307227776030187 " />
			<path d="M158.109076273312,-0.44907311951024864 L158.109076273312,1.2655697004379776 " />
			<path d="M147.07821048680188,-6.572797476468191 L147.07821048680188,-5.10310363079831 " />
			<path d="M141.35064555919087,-3.2659863237109095 L141.35064555919087,-1.7962924780410048 " />
			<path d="M-153.65430355183676,3.8375339303603218 L-153.65430355183676,5.307227776030222 " />
			<path d="M-158.10907627331204,-0.44907311951025575 L-158.10907627331204,1.2655697004379705 " />
			<path d="M-158.10907627331204,1.0206207261596356 L-164.1194839133977,-2.4494897427831903 " />
			<path d="M-147.07821048680188,-6.572797476468198 L-147.07821048680188,-5.103103630798289 " />
			<path d="M-147.29034252115784,-6.695271963607361 L-158.10907627331204,-0.4490731195102544 " />
			<path d="M-141.35064555919087,-3.2659863237109175 L-141.35064555919087,-1.7962924780409977 " />
			<path d="M-123.43038947232364,-2.8476518947201424 L-124.07082246506316,-2.3537181621120524 " />
			<path d="M-111.30561794202487,1.9926320797276178 L-111.9786207682898,2.597240694088322 " />
			<path d="M-98.61365849622366,6.321192153931273 L-99.23833033900198,6.981681477452375 " />
			<path d="M-85.41918645099852,10.115970977947434 L-85.9804155149052,10.825488403451349 " />
			<path d="M-71.78943781144831,13.357631228730009 L-72.27577051825786,14.110443121935168 " />
			<path d="M-57.793866652422274,16.02965414869604 L-58.19538089619231,16.819141345182636 " />
			<path d="M-43.50379119647497,18.11842372152782 L-43.81229979510857,18.9372167578725 " />
			<path d="M-28.99203039255148,19.613296056271064 L-29.201249011669944,20.453425833243873 " />
			<path d="M-14.332532847315461,20.50665362616325 L-14.438208924134846,21.35971440990376 " />
			<path d="M14.332532847315518,20.50665362616323 L14.438208924134903,21.35971440990375 " />
			<path d="M28.992030392551523,19.613296056271043 L29.201249011669994,20.45342583324387 " />
			<path d="M43.503791196475035,18.118423721527837 L43.81229979510862,18.93721675787248 " />
			<path d="M57.793866652422366,16.02965414869604 L58.1953808961924,16.81914134518261 " />
			<path d="M71.78943781144834,13.357631228730003 L72.2757705182579,14.11044312193518 " />
			<path d="M85.41918645099854,10.115970977947415 L85.98041551490525,10.82548840345136 " />
			<path d="M98.61365849622369,6.321192153931273 L99.238330339002,6.981681477452379 " />
			<path d="M111.3056179420249,1.9926320797276027 L111.9786207682898,2.597240694088283 " />
			<path d="M123.43038947232368,-2.847651894720114 L124.07082246506319,-2.3537181621120276 " />

       </g>
    </g>
    
</svg>
