<?xml version="1.0" encoding="UTF-8" standalone="no"?>
<svg
   xmlns:svg="http://www.w3.org/2000/svg"
   xmlns="http://www.w3.org/2000/svg"
   width="480.0"
   height="480.0"

>
    <g transform="scale(3.030457633656632, -3.030457633656632)   translate(75.23616151824866,-72.10829223895553)" stroke-width="0.32998316455372223"  fill="none">
       <!-- hidden lines -->
       <g  stroke="rgb(100,40,40)" fill="none" stroke-dasharray="0.32998316455372223,0.32998316455372223" >
			<path d="M34.64823227814083,33.4355349889904 L34.64823227814083,35.15017780893862 " />
			<path d="M34.64823227814083,33.4355349889904 L59.39696961967,19.146844822755185 " />
			<path d="M34.64823227814083,33.43553498899039 L13.050048483898397,20.9658177613775 " />
			<path d="M-37.79878582542756,-8.391770415090523 L-59.39696961967,-20.861487642703416 " />
			<path d="M-37.79878582542756,-7.534449005116409 L-37.79878582542756,-8.391770415090523 " />
			<path d="M-37.79878582542756,-7.534449005116407 L-37.233100400478314,-7.207850372745317 " />
			<path d="M-37.23310040047832,-7.20785037274532 L-37.23310040047832,-8.065171782719434 " />
			<path d="M-37.23310040047832,-8.06517178271943 L-27.74215604855221,-2.5855725062711308 " />
			<path d="M-27.742156048552218,-1.7282510962970226 L-27.742156048552218,-2.5855725062711366 " />
			<path d="M-27.74215604855221,-1.7282510962970186 L-27.176470623602974,-1.4016524639259273 " />
			<path d="M-27.17647062360298,-1.4016524639259322 L-27.17647062360298,-2.2589738739000462 " />
			<path d="M-27.176470623602977,-2.258973873900043 L-17.68552627167687,3.220625402548258 " />
			<path d="M-17.685526271676874,4.077946812522365 L-17.685526271676874,3.2206254025482512 " />
			<path d="M-17.685526271676878,4.077946812522367 L-17.119840846727637,4.404545444893458 " />
			<path d="M-17.119840846727637,4.404545444893454 L-17.119840846727637,3.5472240349193407 " />
			<path d="M-17.119840846727627,3.547224034919349 L-7.628896494801523,9.02682331136765 " />
			<path d="M-7.628896494801531,9.884144721341752 L-7.628896494801531,9.026823311367638 " />
			<path d="M-7.628896494801527,9.884144721341759 L-7.063211069852294,10.210743353712846 " />
			<path d="M-7.063211069852286,10.210743353712846 L-7.063211069852286,9.353421943738732 " />
			<path d="M-7.063211069852272,9.353421943738745 L2.4277332820738238,14.833021220187035 " />
			<path d="M2.427733282073806,15.690342630161135 L2.427733282073806,14.833021220187021 " />
			<path d="M2.4277332820738167,15.690342630161144 L2.99341870702305,16.01694126253223 " />
			<path d="M2.993418707023052,16.01694126253223 L2.993418707023052,15.159619852558118 " />
			<path d="M2.993418707023068,15.15961985255813 L12.484363058949164,20.639219129006428 " />
			<path d="M12.484363058949153,21.496540538980526 L12.484363058949153,20.63921912900641 " />
			<path d="M12.484363058949157,21.496540538980533 L13.050048483898394,21.823139171351627 " />
			<path d="M13.0500484838984,21.823139171351624 L13.0500484838984,20.965817761377508 " />
			<path d="M13.050048483898397,20.96581776137751 L37.23310040047832,7.003726227513397 " />
			<path d="M26.940768363207457,22.53530563360524 L34.153257531310246,26.69943819633665 " />
			<path d="M26.94076836320746,22.535305633605248 L28.213560569343247,21.800458710770293 " />
			<path d="M28.213560569343244,21.800458710770293 L33.94112549695428,25.10726986352758 " />
			<path d="M33.941125496954285,25.107269863527584 L44.971991283464426,18.738596532291318 " />
			<path d="M39.24442635585339,15.431785379534025 L44.971991283464426,18.738596532291314 " />
			<path d="M39.24442635585339,15.431785379534029 L40.517218561989175,14.696938456699076 " />
			<path d="M40.51721856198917,14.696938456699069 L52.46732316404183,21.59633456553836 " />
			<path d="M50.98239892355008,22.45365597551247 L52.46732316404183,21.59633456553836 " />
			<path d="M-37.798785825427565,-8.391770415090516 L-13.050048483898394,-22.68046058132573 " />
			<path d="M-26.940768363207454,-24.249948453553465 L-38.890872965260115,-31.149344562392756 " />
			<path d="M-26.94076836320746,-24.249948453553472 L-28.213560569343247,-23.515101530718518 " />
			<path d="M-28.213560569343244,-23.515101530718518 L-33.941125496954285,-26.82191268347581 " />
			<path d="M-33.941125496954285,-26.82191268347581 L-34.153257531310246,-26.69943819633665 " />
			<path d="M-39.24442635585339,-17.14642819948225 L-44.97199128346443,-20.453239352239542 " />
			<path d="M-39.24442635585339,-17.14642819948225 L-40.517218561989175,-16.4115812766473 " />
			<path d="M-40.51721856198917,-16.411581276647293 L-44.97199128346443,-18.98354550656964 " />
			<path d="M-50.98239892355008,-22.453655975512472 L-52.46732316404183,-23.310977385486584 " />
			<path d="M-38.890872965260115,-31.149344562392756 L-52.46732316404183,-23.310977385486584 " />
			<path d="M-13.050048483898406,-21.82313917135162 L-37.79878582542757,-7.534449005116411 " />
			<path d="M-12.484363058949162,-21.496540538980526 L-37.23310040047833,-7.207850372745316 " />
			<path d="M-37.233100400478335,-8.065171782719428 L-13.050048483898395,-22.02726331658355 " />
			<path d="M-27.742156048552225,-2.5855725062711308 L-2.993418707023051,-16.874262672506344 " />
			<path d="M-2.9934187070230465,-16.016941262532228 L-27.74215604855221,-1.728251096297015 " />
			<path d="M-2.4277332820738113,-15.690342630161139 L-27.176470623602977,-1.4016524639259273 " />
			<path d="M-27.176470623602988,-2.258973873900043 L-2.9934187070230527,-16.221065407764165 " />
			<path d="M-17.68552627167688,3.2206254025482544 L7.063211069852291,-11.068064763686959 " />
			<path d="M7.063211069852285,-10.210743353712845 L-17.68552627167688,4.077946812522367 " />
			<path d="M7.628896494801525,-9.884144721341752 L-17.11984084672764,4.40454544489346 " />
			<path d="M-17.119840846727644,3.5472240349193456 L7.063211069852289,-10.414867498944776 " />
			<path d="M-7.628896494801538,9.026823311367643 L17.119840846727634,-5.261866854867569 " />
			<path d="M17.119840846727627,-4.404545444893458 L-7.628896494801538,9.884144721341753 " />
			<path d="M17.68552627167687,-4.077946812522367 L-7.063211069852297,10.210743353712845 " />
			<path d="M-7.063211069852294,9.353421943738738 L17.119840846727634,-4.608669590125379 " />
			<path d="M2.427733282073799,14.833021220187025 L27.17647062360297,0.5443310539518125 " />
			<path d="M27.176470623602974,1.401652463925931 L2.4277332820738096,15.690342630161142 " />
			<path d="M27.742156048552218,1.7282510962970221 L2.9934187070230536,16.016941262532235 " />
			<path d="M2.993418707023043,15.159619852558123 L27.17647062360297,1.1975283186940064 " />
			<path d="M12.484363058949146,20.639219129006413 L37.23310040047832,6.350528962771203 " />
			<path d="M37.23310040047832,7.207850372745318 L12.484363058949157,21.49654053898053 " />
			<path d="M37.798785825427565,7.534449005116411 L13.0500484838984,21.82313917135162 " />
			<path d="M26.94076836320746,22.53530563360524 L26.94076836320746,24.24994845355347 " />
			<path d="M28.213560569343247,21.80045871077029 L28.213560569343247,23.515101530718518 " />
			<path d="M33.941125496954264,25.10726986352757 L33.941125496954264,26.821912683475798 " />
			<path d="M44.97199128346441,18.738596532291307 L44.97199128346441,18.983545506569627 " />
			<path d="M39.24442635585339,15.431785379534029 L39.24442635585339,17.146428199482255 " />
			<path d="M40.517218561989175,14.69693845669907 L40.517218561989175,16.411581276647297 " />
			<path d="M52.46732316404184,21.596334565538367 L52.46732316404184,23.310977385486595 " />
			<path d="M-39.24442635585339,-17.146428199482255 L-39.24442635585339,-15.431785379534029 " />
			<path d="M-40.51721856198917,-16.4115812766473 L-40.51721856198917,-16.166632302368974 " />
			<path d="M-33.941125496954285,-26.821912683475812 L-33.941125496954285,-26.576963709197493 " />
			<path d="M-52.467323164041815,-23.31097738548658 L-52.467323164041815,-21.596334565538353 " />
			<path d="M-28.213560569343247,-23.515101530718518 L-28.213560569343247,-23.2701525564402 " />
			<path d="M-38.8908729652601,-31.149344562392752 L-38.8908729652601,-29.434701742444524 " />
			<path d="M-26.940768363207454,-24.24994845355347 L-26.940768363207454,-22.53530563360524 " />

       </g>

       <!-- solid lines -->
       <g  stroke="rgb(200,20,20)" fill="none">
			<path d="M34.64823227814083,35.15017780893862 L59.39696961967,20.86148764270341 " />
			<path d="M59.396969619669996,19.14684482275519 L59.396969619669996,20.86148764270342 " />
			<path d="M-59.396969619669996,-19.14684482275518 L34.648232278140846,35.150177808938636 " />
			<path d="M-59.396969619669996,-20.86148764270341 L-59.396969619669996,-19.14684482275518 " />
			<path d="M-34.64823227814083,-33.43553498899039 L59.39696961967001,20.861487642703423 " />
			<path d="M-34.64823227814083,-33.43553498899039 L-59.39696961967,-19.146844822755178 " />
			<path d="M26.940768363207457,24.249948453553465 L38.890872965260115,31.149344562392756 " />
			<path d="M26.94076836320746,24.249948453553472 L28.213560569343247,23.515101530718518 " />
			<path d="M28.213560569343244,23.515101530718518 L33.94112549695428,26.821912683475805 " />
			<path d="M33.941125496954285,26.82191268347581 L44.971991283464426,20.453239352239542 " />
			<path d="M39.24442635585339,17.14642819948225 L44.971991283464426,20.453239352239542 " />
			<path d="M39.24442635585339,17.14642819948225 L40.517218561989175,16.4115812766473 " />
			<path d="M40.51721856198917,16.411581276647293 L52.46732316404183,23.310977385486584 " />
			<path d="M38.890872965260115,31.149344562392756 L52.46732316404183,23.310977385486584 " />
			<path d="M-39.24442635585339,-15.431785379534027 L-44.97199128346443,-18.738596532291318 " />
			<path d="M-39.24442635585339,-15.431785379534029 L-40.517218561989175,-14.696938456699076 " />
			<path d="M-33.941125496954285,-25.107269863527584 L-44.971991283464426,-18.738596532291318 " />
			<path d="M-40.51721856198917,-14.696938456699069 L-52.46732316404183,-21.59633456553836 " />
			<path d="M-28.213560569343244,-21.80045871077029 L-33.941125496954285,-25.107269863527584 " />
			<path d="M-38.890872965260115,-29.43470174244453 L-52.46732316404183,-21.59633456553836 " />
			<path d="M-26.94076836320746,-22.535305633605248 L-28.213560569343247,-21.800458710770293 " />
			<path d="M-26.940768363207454,-22.53530563360524 L-38.890872965260115,-29.43470174244453 " />
			<path d="M-34.64823227814083,-35.150177808938615 L-34.64823227814083,-33.43553498899039 " />
			<path d="M-34.64823227814083,-35.150177808938615 L-13.05004848389839,-22.680460581325725 " />
			<path d="M-13.050048483898394,-22.68046058132573 L-13.050048483898394,-21.823139171351617 " />
			<path d="M-12.484363058949151,-21.496540538980522 L-13.05004848389839,-21.823139171351613 " />
			<path d="M-12.48436305894916,-22.35386194895464 L-12.48436305894916,-21.49654053898053 " />
			<path d="M-12.484363058949157,-22.353861948954638 L-2.9934187070230465,-16.874262672506337 " />
			<path d="M-2.993418707023052,-16.874262672506344 L-2.993418707023052,-16.01694126253223 " />
			<path d="M-2.4277332820738113,-15.690342630161135 L-2.99341870702305,-16.016941262532228 " />
			<path d="M-2.4277332820738167,-16.547664040135256 L-2.4277332820738167,-15.690342630161142 " />
			<path d="M-2.427733282073813,-16.54766404013525 L7.063211069852294,-11.068064763686948 " />
			<path d="M7.06321106985229,-11.068064763686955 L7.06321106985229,-10.210743353712841 " />
			<path d="M7.6288964948015305,-9.884144721341752 L7.06321106985229,-10.210743353712843 " />
			<path d="M7.628896494801526,-10.741466131315867 L7.628896494801526,-9.884144721341753 " />
			<path d="M7.628896494801538,-10.741466131315857 L17.11984084672764,-5.261866854867556 " />
			<path d="M17.119840846727634,-5.261866854867571 L17.119840846727634,-4.404545444893456 " />
			<path d="M17.68552627167687,-4.077946812522363 L17.119840846727637,-4.404545444893451 " />
			<path d="M17.685526271676878,-4.935268222496475 L17.685526271676878,-4.077946812522361 " />
			<path d="M17.685526271676892,-4.935268222496461 L27.176470623602988,0.5443310539518293 " />
			<path d="M27.17647062360297,0.5443310539518137 L27.17647062360297,1.4016524639259278 " />
			<path d="M27.74215604855221,1.728251096297024 L27.17647062360298,1.4016524639259362 " />
			<path d="M27.742156048552218,0.8709296863229102 L27.742156048552218,1.7282510962970243 " />
			<path d="M27.742156048552232,0.8709296863229241 L37.23310040047833,6.350528962771222 " />
			<path d="M37.23310040047832,6.350528962771203 L37.23310040047832,7.207850372745318 " />
			<path d="M37.79878582542756,7.534449005116418 L37.23310040047832,7.207850372745327 " />
			<path d="M37.798785825427565,6.6771275951422995 L37.798785825427565,7.534449005116414 " />
			<path d="M37.798785825427565,6.6771275951423 L59.39696961967,19.146844822755188 " />
			<path d="M37.23310040047832,7.003726227513397 L37.79878582542757,6.6771275951422995 " />
			<path d="M34.153257531310246,26.69943819633665 L38.890872965260115,29.43470174244453 " />
			<path d="M38.890872965260115,29.43470174244453 L50.98239892355008,22.45365597551247 " />
			<path d="M-34.64823227814083,-35.150177808938615 L-59.39696961967,-20.861487642703402 " />
			<path d="M-34.153257531310246,-26.69943819633665 L-44.971991283464426,-20.453239352239542 " />
			<path d="M-44.97199128346443,-18.98354550656964 L-50.98239892355008,-22.453655975512472 " />
			<path d="M-13.050048483898395,-22.02726331658355 L-12.48436305894916,-22.35386194895464 " />
			<path d="M-2.9934187070230527,-16.221065407764165 L-2.427733282073816,-16.547664040135256 " />
			<path d="M7.063211069852289,-10.414867498944776 L7.628896494801528,-10.741466131315867 " />
			<path d="M17.119840846727634,-4.608669590125379 L17.685526271676878,-4.935268222496474 " />
			<path d="M27.17647062360297,1.1975283186940064 L27.742156048552214,0.8709296863229108 " />
			<path d="M38.89087296526012,29.434701742444535 L38.89087296526012,31.149344562392763 " />
			<path d="M44.97199128346441,18.983545506569627 L44.97199128346441,20.453239352239535 " />
			<path d="M-44.97199128346443,-20.453239352239546 L-44.97199128346443,-18.738596532291318 " />
			<path d="M-40.51721856198917,-16.166632302368974 L-40.51721856198917,-14.696938456699074 " />
			<path d="M-33.941125496954285,-26.576963709197493 L-33.941125496954285,-25.107269863527584 " />
			<path d="M-28.213560569343247,-23.2701525564402 L-28.213560569343247,-21.80045871077029 " />

       </g>
    </g>
    
</svg>
