<?xml version="1.0" encoding="UTF-8" standalone="no"?>
<svg
   xmlns:svg="http://www.w3.org/2000/svg"
   xmlns="http://www.w3.org/2000/svg"
   width="480.0"
   height="480.0"

>
    <g transform="scale(1.719989467751061, -1.719989467751061)   translate(132.5589512464381,-126.39474620389376)" stroke-width="0.581398908975606"  fill="none">
       <!-- hidden lines -->
       <g  stroke="rgb(100,40,40)" fill="none" stroke-dasharray="0.581398908975606,0.581398908975606" >
			<path d="M79.90306627407988,59.56342557867766 L79.90306627407988,61.278068398625884 " />
			<path d="M79.90306627407988,59.56342557867766 L104.65180361560904,45.274735412442446 " />
			<path d="M79.90306627407988,59.56342557867763 L57.12174956491093,46.41062624414481 " />
			<path d="M-81.87048690644009,-33.83657889785784 L-104.65180361560904,-46.98937823239066 " />
			<path d="M-81.87048690644009,-32.97925748788372 L-81.87048690644009,-33.836578897857834 " />
			<path d="M-81.87048690644008,-32.97925748788372 L-81.30480148149084,-32.652658855512634 " />
			<path d="M-81.30480148149086,-32.65265885551263 L-81.30480148149086,-33.50998026548674 " />
			<path d="M-81.30480148149086,-33.509980265486746 L-71.22229067210148,-27.68883993557848 " />
			<path d="M-71.2222906721015,-26.831518525604366 L-71.2222906721015,-27.688839935578482 " />
			<path d="M-71.22229067210148,-26.831518525604373 L-70.65660524715224,-26.504919893233282 " />
			<path d="M-70.65660524715226,-26.50491989323328 L-70.65660524715226,-27.362241303207394 " />
			<path d="M-70.65660524715224,-27.362241303207387 L-60.574094437762895,-21.541100973299127 " />
			<path d="M-60.57409443776289,-20.683779563325018 L-60.57409443776289,-21.541100973299134 " />
			<path d="M-60.57409443776289,-20.68377956332501 L-60.008409012813644,-20.357180930953916 " />
			<path d="M-60.008409012813665,-20.357180930953934 L-60.008409012813665,-21.21450234092805 " />
			<path d="M-60.00840901281365,-21.214502340928036 L-49.92589820342429,-15.393362011019772 " />
			<path d="M-49.925898203424296,-14.53604060104567 L-49.925898203424296,-15.393362011019784 " />
			<path d="M-49.925898203424296,-14.536040601045668 L-49.36021277847506,-14.209441968674579 " />
			<path d="M-49.36021277847505,-14.209441968674575 L-49.36021277847505,-15.06676337864869 " />
			<path d="M-49.360212778475045,-15.066763378648677 L-39.27770196908569,-9.24562304874042 " />
			<path d="M-39.2777019690857,-8.388301638766318 L-39.2777019690857,-9.245623048740432 " />
			<path d="M-39.2777019690857,-8.388301638766315 L-38.71201654413647,-8.061703006395227 " />
			<path d="M-38.71201654413645,-8.061703006395224 L-38.71201654413645,-8.919024416369338 " />
			<path d="M-38.712016544136446,-8.919024416369325 L-28.6295057347471,-3.0978840864610646 " />
			<path d="M-28.629505734747106,-2.2405626764869724 L-28.629505734747106,-3.0978840864610864 " />
			<path d="M-28.629505734747106,-2.240562676486963 L-28.06382030979787,-1.9139640441158754 " />
			<path d="M-28.063820309797862,-1.9139640441158758 L-28.063820309797862,-2.77128545408999 " />
			<path d="M-28.063820309797848,-2.77128545408997 L-17.9813095004085,3.0498548758182835 " />
			<path d="M-17.981309500408507,3.907176285792381 L-17.981309500408507,3.049854875818267 " />
			<path d="M-17.9813095004085,3.9071762857923886 L-17.415624075459256,4.23377491816348 " />
			<path d="M-17.41562407545926,4.233774918163476 L-17.41562407545926,3.3764535081893623 " />
			<path d="M-17.41562407545925,3.3764535081893783 L-7.333113266069887,9.197593838097639 " />
			<path d="M-7.333113266069905,10.054915248071733 L-7.333113266069905,9.19759383809762 " />
			<path d="M-7.333113266069894,10.054915248071744 L-6.767427841120664,10.381513880442832 " />
			<path d="M-6.767427841120658,10.381513880442828 L-6.767427841120658,9.524192470468714 " />
			<path d="M-6.767427841120636,9.524192470468734 L3.3150829682687117,15.345332800376994 " />
			<path d="M3.3150829682686958,16.202654210351085 L3.3150829682686958,15.345332800376971 " />
			<path d="M3.3150829682687046,16.202654210351096 L3.8807683932179415,16.529252842722187 " />
			<path d="M3.8807683932179415,16.529252842722183 L3.8807683932179415,15.671931432748067 " />
			<path d="M3.8807683932179486,15.671931432748089 L13.96327920260731,21.49307176265635 " />
			<path d="M13.963279202607296,22.35039317263044 L13.963279202607296,21.493071762656324 " />
			<path d="M13.963279202607303,22.35039317263045 L14.52896462755654,22.67699180500154 " />
			<path d="M14.528964627556544,22.676991805001535 L14.528964627556544,21.81967039502742 " />
			<path d="M14.528964627556547,21.819670395027437 L24.61147543694591,27.640810724935697 " />
			<path d="M24.611475436945902,28.498132134909792 L24.611475436945902,27.640810724935676 " />
			<path d="M24.61147543694591,28.498132134909802 L25.177160861895146,28.82473076728089 " />
			<path d="M25.177160861895146,28.824730767280887 L25.177160861895146,27.96740935730677 " />
			<path d="M25.177160861895175,27.9674093573068 L35.25967167128451,33.788549687215045 " />
			<path d="M35.25967167128448,34.645871097189136 L35.25967167128448,33.788549687215024 " />
			<path d="M35.259671671284494,34.64587109718914 L35.82535709623373,34.97246972956024 " />
			<path d="M35.825357096233724,34.97246972956023 L35.825357096233724,34.11514831958612 " />
			<path d="M35.825357096233745,34.11514831958615 L45.90786790562311,39.93628864949441 " />
			<path d="M45.90786790562308,40.793610059468485 L45.90786790562308,39.93628864949437 " />
			<path d="M45.90786790562309,40.793610059468506 L46.47355333057233,41.12020869183959 " />
			<path d="M46.47355333057233,41.12020869183958 L46.47355333057233,40.26288728186547 " />
			<path d="M46.473553330572344,40.262887281865495 L56.556064139961705,46.084027611773756 " />
			<path d="M56.55606413996168,46.94134902174784 L56.55606413996168,46.08402761177373 " />
			<path d="M56.55606413996169,46.941349021747854 L57.12174956491093,47.26794765411894 " />
			<path d="M57.12174956491093,47.267947654118935 L57.12174956491093,46.41062624414482 " />
			<path d="M57.121749564910914,46.41062624414482 L81.30480148149084,32.44853471028071 " />
			<path d="M72.19560235914652,48.66319622329249 L79.4080915272493,52.8273287860239 " />
			<path d="M72.19560235914652,48.663196223292495 L73.46839456528231,47.92834930045754 " />
			<path d="M73.46839456528231,47.92834930045754 L79.19595949289335,51.23516045321483 " />
			<path d="M79.19595949289334,51.23516045321484 L90.22682527940347,44.86648712197857 " />
			<path d="M84.49926035179244,41.559675969221274 L90.22682527940349,44.866487121978565 " />
			<path d="M84.49926035179244,41.559675969221274 L85.77205255792823,40.82482904638633 " />
			<path d="M85.77205255792823,40.82482904638632 L97.72215715998088,47.72422515522561 " />
			<path d="M96.23723291948914,48.58154656519973 L97.7221571599809,47.72422515522561 " />
			<path d="M-81.8704869064401,-33.836578897857834 L-57.12174956491093,-48.12526906409305 " />
			<path d="M-72.1956023591465,-50.37783904324071 L-84.14570696119917,-57.27723515208001 " />
			<path d="M-72.1956023591465,-50.37783904324071 L-73.4683945652823,-49.64299212040576 " />
			<path d="M-73.46839456528231,-49.642992120405765 L-79.19595949289334,-52.949803273163056 " />
			<path d="M-79.19595949289334,-52.949803273163056 L-79.4080915272493,-52.82732878602389 " />
			<path d="M-84.49926035179244,-43.2743187891695 L-90.22682527940347,-46.58112994192679 " />
			<path d="M-84.49926035179243,-43.27431878916949 L-85.77205255792822,-42.53947186633454 " />
			<path d="M-85.77205255792822,-42.53947186633454 L-90.22682527940346,-45.111436096256874 " />
			<path d="M-96.23723291948912,-48.581546565199716 L-97.72215715998088,-49.438867975173835 " />
			<path d="M-84.14570696119915,-57.277235152079996 L-97.72215715998087,-49.43886797517382 " />
			<path d="M-57.121749564910935,-47.267947654118935 L-81.8704869064401,-32.97925748788372 " />
			<path d="M-56.556064139961684,-46.94134902174784 L-81.30480148149084,-32.65265885551263 " />
			<path d="M-81.30480148149087,-33.509980265486746 L-57.12174956491093,-47.472071799350864 " />
			<path d="M-71.22229067210151,-27.688839935578475 L-46.47355333057233,-41.977530101813684 " />
			<path d="M-46.47355333057234,-41.12020869183957 L-71.22229067210151,-26.83151852560436 " />
			<path d="M-45.907867905623085,-40.793610059468485 L-70.65660524715224,-26.50491989323327 " />
			<path d="M-70.65660524715227,-27.362241303207387 L-46.47355333057233,-41.32433283707151 " />
			<path d="M-60.574094437762895,-21.541100973299127 L-35.825357096233724,-35.829791139534336 " />
			<path d="M-35.825357096233724,-34.972469729560224 L-60.574094437762895,-20.68377956332501 " />
			<path d="M-35.25967167128448,-34.64587109718913 L-60.008409012813644,-20.357180930953916 " />
			<path d="M-60.00840901281367,-21.214502340928046 L-35.825357096233724,-35.176593874792175 " />
			<path d="M-49.9258982034243,-15.393362011019779 L-25.177160861895132,-29.68205217725499 " />
			<path d="M-25.17716086189514,-28.824730767280876 L-49.92589820342431,-14.536040601045663 " />
			<path d="M-24.611475436945895,-28.49813213490978 L-49.36021277847506,-14.209441968674568 " />
			<path d="M-49.36021277847506,-15.066763378648684 L-25.177160861895132,-29.0288549125128 " />
			<path d="M-39.277701969085705,-9.24562304874043 L-14.528964627556533,-23.534313214975644 " />
			<path d="M-14.528964627556542,-22.676991805001528 L-39.27770196908571,-8.388301638766315 " />
			<path d="M-13.963279202607294,-22.350393172630433 L-38.71201654413646,-8.06170300639522 " />
			<path d="M-38.71201654413646,-8.919024416369336 L-14.528964627556533,-22.88111595023345 " />
			<path d="M-28.629505734747113,-3.0978840864610824 L-3.8807683932179406,-17.386574252696295 " />
			<path d="M-3.880768393217947,-16.52925284272218 L-28.629505734747113,-2.2405626764869666 " />
			<path d="M-3.315082968268701,-16.202654210351085 L-28.06382030979787,-1.9139640441158718 " />
			<path d="M-28.06382030979787,-2.7712854540899876 L-3.8807683932179415,-16.733376987954102 " />
			<path d="M-17.981309500408514,3.049854875818271 L6.767427841120658,-11.23883529041694 " />
			<path d="M6.767427841120652,-10.38151388044283 L-17.981309500408514,3.9071762857923815 " />
			<path d="M7.333113266069899,-10.054915248071733 L-17.415624075459267,4.233774918163478 " />
			<path d="M-17.415624075459267,3.376453508189366 L6.767427841120657,-10.585638025674749 " />
			<path d="M-7.333113266069912,9.197593838097625 L17.41562407545926,-5.091096328137588 " />
			<path d="M17.415624075459277,-4.233774918163466 L-7.333113266069891,10.054915248071746 " />
			<path d="M17.98130950040852,-3.907176285792371 L-6.7674278411206465,10.38151388044284 " />
			<path d="M-6.767427841120664,9.52419247046872 L17.41562407545926,-4.437899063395395 " />
			<path d="M3.315082968268687,15.345332800376976 L28.06382030979786,1.056642634141764 " />
			<path d="M28.063820309797833,1.913964044115863 L3.315082968268669,16.202654210351074 " />
			<path d="M28.629505734747077,2.2405626764869577 L3.880768393217913,16.52925284272217 " />
			<path d="M3.880768393217938,15.671931432748073 L28.063820309797862,1.7098398988839585 " />
			<path d="M13.963279202607286,21.493071762656328 L38.71201654413646,7.204381596421116 " />
			<path d="M38.712016544136475,8.061703006395236 L13.96327920260731,22.350393172630447 " />
			<path d="M39.27770196908572,8.38830163876633 L14.528964627556554,22.676991805001542 " />
			<path d="M14.528964627556537,21.819670395027423 L38.71201654413646,7.857578861163308 " />
			<path d="M24.6114754369459,27.640810724935683 L49.36021277847507,13.35212055870047 " />
			<path d="M49.36021277847504,14.209441968674565 L24.611475436945874,28.498132134909774 " />
			<path d="M49.925898203424275,14.53604060104566 L25.17716086189511,28.82473076728087 " />
			<path d="M25.177160861895135,27.967409357306778 L49.360212778475066,14.005317823442658 " />
			<path d="M35.259671671284465,33.788549687215024 L60.008409012813644,19.49985952097981 " />
			<path d="M60.00840901281364,20.35718093095392 L35.25967167128447,34.64587109718913 " />
			<path d="M60.57409443776289,20.683779563325015 L35.825357096233724,34.972469729560224 " />
			<path d="M35.82535709623372,34.11514831958612 L60.008409012813644,20.153056785722004 " />
			<path d="M45.907867905623064,39.93628864949437 L70.65660524715224,25.647598483259163 " />
			<path d="M70.65660524715224,26.504919893233264 L45.90786790562307,40.79361005946848 " />
			<path d="M71.2222906721015,26.83151852560436 L46.47355333057232,41.12020869183957 " />
			<path d="M46.473553330572315,40.262887281865474 L70.65660524715224,26.300795748001356 " />
			<path d="M56.55606413996166,46.084027611773735 L81.30480148149084,31.795337445538518 " />
			<path d="M81.30480148149084,32.65265885551262 L56.55606413996167,46.94134902174783 " />
			<path d="M81.87048690644009,32.979257487883714 L57.12174956491092,47.26794765411893 " />
			<path d="M72.19560235914653,48.66319622329251 L72.19560235914653,50.37783904324073 " />
			<path d="M73.46839456528231,47.92834930045755 L73.46839456528231,49.64299212040577 " />
			<path d="M79.19595949289334,51.23516045321483 L79.19595949289334,52.949803273163056 " />
			<path d="M90.22682527940347,44.866487121978565 L90.22682527940347,45.11143609625688 " />
			<path d="M84.49926035179244,41.55967596922128 L84.49926035179244,43.274318789169506 " />
			<path d="M85.77205255792825,40.824829046386334 L85.77205255792825,42.53947186633456 " />
			<path d="M97.72215715998091,47.72422515522562 L97.72215715998091,49.43886797517384 " />
			<path d="M-84.49926035179243,-43.27431878916949 L-84.49926035179243,-41.55967596922127 " />
			<path d="M-85.77205255792822,-42.53947186633454 L-85.77205255792822,-42.29452289205623 " />
			<path d="M-79.19595949289332,-52.94980327316304 L-79.19595949289332,-52.704854298884726 " />
			<path d="M-97.72215715998087,-49.43886797517383 L-97.72215715998087,-47.724225155225604 " />
			<path d="M-73.4683945652823,-49.64299212040576 L-73.4683945652823,-49.39804314612744 " />
			<path d="M-84.14570696119915,-57.277235152079996 L-84.14570696119915,-55.56259233213177 " />
			<path d="M-72.1956023591465,-50.377839043240705 L-72.1956023591465,-48.66319622329248 " />

       </g>

       <!-- solid lines -->
       <g  stroke="rgb(200,20,20)" fill="none">
			<path d="M79.90306627407988,61.27806839862588 L104.65180361560904,46.98937823239066 " />
			<path d="M104.65180361560904,45.27473541244245 L104.65180361560904,46.98937823239068 " />
			<path d="M-104.65180361560904,-45.274735412442425 L79.9030662740799,61.27806839862589 " />
			<path d="M-104.65180361560904,-46.98937823239065 L-104.65180361560904,-45.274735412442425 " />
			<path d="M-79.90306627407988,-59.56342557867763 L104.65180361560907,46.989378232390685 " />
			<path d="M-79.90306627407988,-59.56342557867763 L-104.65180361560904,-45.27473541244242 " />
			<path d="M72.19560235914652,50.37783904324072 L84.14570696119917,57.27723515208001 " />
			<path d="M72.19560235914652,50.37783904324072 L73.46839456528231,49.642992120405765 " />
			<path d="M73.46839456528231,49.642992120405765 L79.19595949289335,52.949803273163056 " />
			<path d="M79.19595949289334,52.94980327316306 L90.22682527940347,46.5811299419268 " />
			<path d="M84.49926035179244,43.2743187891695 L90.22682527940349,46.58112994192679 " />
			<path d="M84.49926035179244,43.2743187891695 L85.77205255792823,42.53947186633455 " />
			<path d="M85.77205255792823,42.539471866334544 L97.72215715998088,49.438867975173835 " />
			<path d="M84.14570696119918,57.27723515208001 L97.7221571599809,49.438867975173835 " />
			<path d="M-84.49926035179244,-41.559675969221274 L-90.22682527940347,-44.866487121978565 " />
			<path d="M-84.49926035179243,-41.55967596922127 L-85.77205255792822,-40.82482904638631 " />
			<path d="M-79.19595949289334,-51.23516045321483 L-90.22682527940347,-44.866487121978565 " />
			<path d="M-85.77205255792822,-40.82482904638631 L-97.72215715998088,-47.72422515522561 " />
			<path d="M-73.46839456528231,-47.92834930045753 L-79.19595949289334,-51.235160453214824 " />
			<path d="M-84.14570696119915,-55.56259233213177 L-97.72215715998087,-47.7242251552256 " />
			<path d="M-72.1956023591465,-48.66319622329249 L-73.4683945652823,-47.92834930045753 " />
			<path d="M-72.1956023591465,-48.66319622329249 L-84.14570696119917,-55.56259233213178 " />
			<path d="M-79.90306627407988,-61.27806839862586 L-79.90306627407988,-59.56342557867764 " />
			<path d="M-79.90306627407988,-61.27806839862586 L-57.12174956491093,-48.12526906409305 " />
			<path d="M-57.12174956491093,-48.125269064093054 L-57.12174956491093,-47.267947654118935 " />
			<path d="M-56.55606413996168,-46.94134902174784 L-57.12174956491092,-47.26794765411893 " />
			<path d="M-56.55606413996169,-47.79867043172195 L-56.55606413996169,-46.94134902174783 " />
			<path d="M-56.55606413996169,-47.798670431721945 L-46.47355333057232,-41.977530101813684 " />
			<path d="M-46.47355333057233,-41.97753010181369 L-46.47355333057233,-41.12020869183957 " />
			<path d="M-45.90786790562308,-40.79361005946849 L-46.473553330572315,-41.12020869183958 " />
			<path d="M-45.90786790562309,-41.650931469442604 L-45.90786790562309,-40.793610059468485 " />
			<path d="M-45.907867905623085,-41.6509314694426 L-35.82535709623373,-35.829791139534336 " />
			<path d="M-35.825357096233724,-35.82979113953434 L-35.825357096233724,-34.972469729560224 " />
			<path d="M-35.25967167128448,-34.64587109718913 L-35.825357096233724,-34.972469729560224 " />
			<path d="M-35.2596716712845,-35.503192507163256 L-35.2596716712845,-34.645871097189136 " />
			<path d="M-35.25967167128449,-35.50319250716324 L-25.177160861895125,-29.682052177254977 " />
			<path d="M-25.177160861895132,-29.68205217725499 L-25.177160861895132,-28.82473076728088 " />
			<path d="M-24.6114754369459,-28.49813213490979 L-25.177160861895135,-28.824730767280876 " />
			<path d="M-24.611475436945888,-29.355453544883897 L-24.611475436945888,-28.498132134909785 " />
			<path d="M-24.61147543694588,-29.355453544883883 L-14.528964627556526,-23.534313214975626 " />
			<path d="M-14.528964627556533,-23.53431321497564 L-14.528964627556533,-22.676991805001528 " />
			<path d="M-13.963279202607303,-22.350393172630433 L-14.528964627556537,-22.67699180500152 " />
			<path d="M-13.96327920260729,-23.207714582604545 L-13.96327920260729,-22.350393172630433 " />
			<path d="M-13.963279202607282,-23.20771458260453 L-3.8807683932179344,-17.38657425269627 " />
			<path d="M-3.8807683932179415,-17.386574252696295 L-3.8807683932179415,-16.529252842722183 " />
			<path d="M-3.3150829682687046,-16.20265421035108 L-3.8807683932179415,-16.52925284272217 " />
			<path d="M-3.3150829682686958,-17.059975620325197 L-3.3150829682686958,-16.202654210351085 " />
			<path d="M-3.3150829682686833,-17.059975620325176 L6.767427841120664,-11.238835290416922 " />
			<path d="M6.767427841120658,-11.23883529041694 L6.767427841120658,-10.381513880442826 " />
			<path d="M7.333113266069908,-10.05491524807173 L6.767427841120664,-10.38151388044282 " />
			<path d="M7.333113266069905,-10.912236658045845 L7.333113266069905,-10.054915248071731 " />
			<path d="M7.333113266069915,-10.912236658045828 L17.415624075459277,-5.091096328137567 " />
			<path d="M17.41562407545926,-5.091096328137589 L17.41562407545926,-4.2337749181634745 " />
			<path d="M17.9813095004085,-3.9071762857923744 L17.41562407545927,-4.233774918163462 " />
			<path d="M17.981309500408507,-4.764497695766494 L17.981309500408507,-3.9071762857923793 " />
			<path d="M17.98130950040853,-4.764497695766472 L28.063820309797876,1.056642634141788 " />
			<path d="M28.063820309797862,1.0566426341417636 L28.063820309797862,1.9139640441158776 " />
			<path d="M28.629505734747106,2.240562676486981 L28.06382030979787,1.9139640441158896 " />
			<path d="M28.629505734747106,1.3832412665128602 L28.629505734747106,2.240562676486974 " />
			<path d="M28.629505734747113,1.3832412665128828 L38.712016544136475,7.204381596421143 " />
			<path d="M38.71201654413646,7.204381596421116 L38.71201654413646,8.06170300639523 " />
			<path d="M39.277701969085705,8.388301638766333 L38.71201654413647,8.061703006395245 " />
			<path d="M39.27770196908571,7.5309802287922105 L39.27770196908571,8.388301638766325 " />
			<path d="M39.27770196908571,7.530980228792231 L49.36021277847507,13.352120558700491 " />
			<path d="M49.360212778475066,13.35212055870047 L49.360212778475066,14.209441968674584 " />
			<path d="M49.92589820342431,14.53604060104568 L49.36021277847507,14.209441968674593 " />
			<path d="M49.92589820342431,13.678719191071565 L49.92589820342431,14.536040601045679 " />
			<path d="M49.92589820342434,13.678719191071593 L60.00840901281367,19.49985952097984 " />
			<path d="M60.008409012813644,19.49985952097981 L60.008409012813644,20.357180930953923 " />
			<path d="M60.574094437762895,20.683779563325032 L60.00840901281366,20.357180930953938 " />
			<path d="M60.57409443776289,19.826458153350906 L60.57409443776289,20.683779563325018 " />
			<path d="M60.57409443776291,19.82645815335094 L70.65660524715227,25.647598483259202 " />
			<path d="M70.65660524715224,25.647598483259163 L70.65660524715224,26.504919893233275 " />
			<path d="M71.2222906721015,26.83151852560438 L70.65660524715226,26.504919893233293 " />
			<path d="M71.2222906721015,25.974197115630258 L71.2222906721015,26.83151852560437 " />
			<path d="M71.22229067210151,25.97419711563029 L81.30480148149087,31.79533744553855 " />
			<path d="M81.30480148149084,31.795337445538518 L81.30480148149084,32.652658855512634 " />
			<path d="M81.87048690644009,32.97925748788373 L81.30480148149086,32.65265885551264 " />
			<path d="M81.87048690644009,32.12193607790961 L81.87048690644009,32.97925748788373 " />
			<path d="M81.87048690644009,32.12193607790961 L104.65180361560904,45.274735412442425 " />
			<path d="M81.30480148149084,32.44853471028071 L81.87048690644009,32.121936077909616 " />
			<path d="M79.4080915272493,52.8273287860239 L84.14570696119917,55.56259233213178 " />
			<path d="M84.14570696119918,55.562592332131786 L96.23723291948914,48.58154656519973 " />
			<path d="M-79.90306627407988,-61.27806839862586 L-104.65180361560904,-46.98937823239065 " />
			<path d="M-79.4080915272493,-52.82732878602389 L-90.22682527940347,-46.58112994192679 " />
			<path d="M-90.22682527940346,-45.111436096256874 L-96.23723291948912,-48.581546565199716 " />
			<path d="M-57.12174956491093,-47.472071799350864 L-56.55606413996169,-47.79867043172195 " />
			<path d="M-46.47355333057233,-41.32433283707151 L-45.90786790562309,-41.6509314694426 " />
			<path d="M-35.825357096233724,-35.176593874792175 L-35.2596716712845,-35.503192507163256 " />
			<path d="M-25.177160861895132,-29.0288549125128 L-24.611475436945888,-29.355453544883897 " />
			<path d="M-14.528964627556533,-22.88111595023345 L-13.96327920260729,-23.20771458260455 " />
			<path d="M-3.8807683932179415,-16.733376987954102 L-3.315082968268695,-17.0599756203252 " />
			<path d="M6.767427841120657,-10.585638025674749 L7.333113266069906,-10.912236658045845 " />
			<path d="M17.41562407545926,-4.437899063395395 L17.981309500408507,-4.764497695766493 " />
			<path d="M28.063820309797862,1.7098398988839585 L28.62950573474711,1.3832412665128606 " />
			<path d="M38.71201654413646,7.857578861163308 L39.27770196908571,7.5309802287922105 " />
			<path d="M49.360212778475066,14.005317823442658 L49.92589820342431,13.678719191071565 " />
			<path d="M60.008409012813644,20.153056785722004 L60.574094437762895,19.826458153350906 " />
			<path d="M70.65660524715224,26.300795748001356 L71.2222906721015,25.974197115630258 " />
			<path d="M84.1457069611992,55.56259233213179 L84.1457069611992,57.27723515208002 " />
			<path d="M90.22682527940347,45.11143609625688 L90.22682527940347,46.58112994192679 " />
			<path d="M-90.22682527940346,-46.581129941926775 L-90.22682527940346,-44.86648712197855 " />
			<path d="M-85.77205255792822,-42.29452289205623 L-85.77205255792822,-40.82482904638631 " />
			<path d="M-79.19595949289332,-52.704854298884726 L-79.19595949289332,-51.23516045321482 " />
			<path d="M-73.4683945652823,-49.39804314612744 L-73.4683945652823,-47.92834930045753 " />

       </g>
    </g>
    
</svg>
