<?xml version="1.0" encoding="UTF-8" standalone="no"?>
<svg
   xmlns:svg="http://www.w3.org/2000/svg"
   xmlns="http://www.w3.org/2000/svg"
   width="480.0"
   height="480.0"

>
    <g transform="scale(4.895354638983789, -4.895354638983789)   translate(46.57476665415394,-44.965065256486426)" stroke-width="0.20427529234278047"  fill="none">
       <!-- hidden lines -->
       <g  stroke="rgb(100,40,40)" fill="none" stroke-dasharray="0.20427529234278047,0.20427529234278047" >
			<path d="M12.020815280171309,20.37158969414677 L12.020815280171309,22.086232514095 " />
			<path d="M12.020815280171309,20.37158969414677 L36.76955262170048,6.082899527911559 " />
			<path d="M12.020815280171309,20.37158969414677 L-7.566042558696065,9.063112048297755 " />
			<path d="M-17.182694782833103,3.510935297989222 L-36.76955262170048,-7.7975423478597925 " />
			<path d="M-17.182694782833103,4.3682567079633365 L-17.182694782833103,3.5109352979892225 " />
			<path d="M-17.182694782833103,4.368256707963338 L-16.617009357883866,4.6948553403344295 " />
			<path d="M-16.617009357883866,4.694855340334426 L-16.617009357883866,3.837533930360312 " />
			<path d="M-16.617009357883862,3.8375339303603164 L-8.131727983645288,8.736513415926677 " />
			<path d="M-8.131727983645296,9.593834825900784 L-8.131727983645296,8.73651341592667 " />
			<path d="M-8.131727983645296,9.593834825900787 L-7.566042558696058,9.920433458271878 " />
			<path d="M-7.5660425586960605,9.920433458271873 L-7.5660425586960605,9.063112048297759 " />
			<path d="M-7.5660425586960685,9.063112048297764 L16.617009357883866,-4.898979485566357 " />
			<path d="M4.313351365237933,9.471360338761615 L11.525840533340727,13.635492901493025 " />
			<path d="M4.3133513652379385,9.471360338761622 L5.586143571373724,8.736513415926668 " />
			<path d="M5.5861435713737215,8.736513415926668 L11.31370849898476,12.04332456868396 " />
			<path d="M11.31370849898476,12.04332456868396 L22.3445742854949,5.674651237447696 " />
			<path d="M16.617009357883862,2.3678400846904024 L22.3445742854949,5.674651237447696 " />
			<path d="M16.617009357883866,2.3678400846904033 L17.88980156401965,1.6329931618554507 " />
			<path d="M17.88980156401965,1.6329931618554454 L29.839906166072304,8.532389270694736 " />
			<path d="M28.354981925580557,9.38971068066885 L29.839906166072304,8.53238927069474 " />
			<path d="M-17.18269478283311,3.510935297989226 L7.566042558696062,-10.777754868245985 " />
			<path d="M-4.313351365237937,-11.186003158709845 L-16.263455967290593,-18.085399267549136 " />
			<path d="M-4.31335136523794,-11.18600315870985 L-5.586143571373726,-10.451156235874896 " />
			<path d="M-5.586143571373723,-10.451156235874894 L-11.313708498984761,-13.757967388632187 " />
			<path d="M-11.313708498984763,-13.757967388632188 L-11.525840533340732,-13.635492901493027 " />
			<path d="M-16.617009357883866,-4.08248290463863 L-22.3445742854949,-7.389294057395924 " />
			<path d="M-16.617009357883866,-4.082482904638631 L-17.889801564019653,-3.3476359818036787 " />
			<path d="M-17.88980156401965,-3.3476359818036734 L-22.344574285494907,-5.919600211726016 " />
			<path d="M-28.35498192558056,-9.389710680668854 L-29.839906166072307,-10.247032090642964 " />
			<path d="M-16.263455967290597,-18.08539926754914 L-29.83990616607231,-10.247032090642968 " />
			<path d="M7.566042558696056,-9.920433458271871 L-17.18269478283311,4.36825670796334 " />
			<path d="M8.131727983645293,-9.593834825900782 L-16.617009357883873,4.6948553403344295 " />
			<path d="M-16.617009357883873,3.8375339303603155 L7.5660425586960605,-10.124557603503806 " />
			<path d="M-8.131727983645302,8.736513415926675 L16.61700935788387,-5.552176750308537 " />
			<path d="M16.61700935788386,-4.694855340334426 L-8.131727983645305,9.593834825900785 " />
			<path d="M17.182694782833096,-4.368256707963338 L-7.5660425586960685,9.920433458271873 " />
			<path d="M4.313351365237934,9.471360338761622 L4.313351365237934,11.186003158709848 " />
			<path d="M5.586143571373722,8.73651341592667 L5.586143571373722,10.451156235874896 " />
			<path d="M11.31370849898476,12.043324568683962 L11.31370849898476,13.757967388632188 " />
			<path d="M22.3445742854949,5.674651237447698 L22.3445742854949,5.919600211726012 " />
			<path d="M16.617009357883866,2.3678400846904055 L16.617009357883866,4.082482904638631 " />
			<path d="M17.889801564019645,1.632993161855452 L17.889801564019645,3.3476359818036783 " />
			<path d="M29.839906166072304,8.53238927069474 L29.839906166072304,10.247032090642966 " />
			<path d="M-16.617009357883866,-4.082482904638633 L-16.617009357883866,-2.3678400846904064 " />
			<path d="M-17.889801564019653,-3.34763598180368 L-17.889801564019653,-3.1026870075253594 " />
			<path d="M-11.313708498984766,-13.75796738863219 L-11.313708498984766,-13.51301841435387 " />
			<path d="M-29.83990616607231,-10.247032090642968 L-29.83990616607231,-8.532389270694742 " />
			<path d="M-5.586143571373724,-10.451156235874898 L-5.586143571373724,-10.206207261596575 " />
			<path d="M-16.263455967290597,-18.08539926754914 L-16.263455967290597,-16.37075644760091 " />
			<path d="M-4.313351365237939,-11.186003158709852 L-4.313351365237939,-9.471360338761626 " />

       </g>

       <!-- solid lines -->
       <g  stroke="rgb(200,20,20)" fill="none">
			<path d="M12.020815280171309,22.086232514094995 L36.76955262170048,7.797542347859784 " />
			<path d="M36.76955262170047,6.082899527911563 L36.76955262170047,7.797542347859789 " />
			<path d="M-36.76955262170047,-6.082899527911563 L12.02081528017132,22.08623251409501 " />
			<path d="M-36.76955262170047,-7.797542347859785 L-36.76955262170047,-6.082899527911559 " />
			<path d="M-12.020815280171309,-20.37158969414677 L36.769552621700484,7.7975423478598 " />
			<path d="M-12.020815280171306,-20.371589694146767 L-36.76955262170047,-6.082899527911556 " />
			<path d="M4.313351365237933,11.186003158709843 L16.26345596729059,18.085399267549136 " />
			<path d="M4.3133513652379385,11.186003158709848 L5.586143571373724,10.451156235874894 " />
			<path d="M5.5861435713737215,10.451156235874892 L11.31370849898476,13.757967388632185 " />
			<path d="M11.31370849898476,13.757967388632187 L22.3445742854949,7.389294057395922 " />
			<path d="M16.617009357883862,4.0824829046386295 L22.3445742854949,7.389294057395923 " />
			<path d="M16.617009357883866,4.0824829046386295 L17.88980156401965,3.347635981803677 " />
			<path d="M17.88980156401965,3.3476359818036716 L29.839906166072304,10.247032090642962 " />
			<path d="M16.26345596729059,18.085399267549136 L29.839906166072304,10.247032090642964 " />
			<path d="M-16.617009357883866,-2.3678400846904033 L-22.3445742854949,-5.674651237447697 " />
			<path d="M-16.617009357883866,-2.367840084690405 L-17.889801564019653,-1.6329931618554525 " />
			<path d="M-11.313708498984763,-12.04332456868396 L-22.344574285494907,-5.674651237447696 " />
			<path d="M-17.88980156401965,-1.6329931618554472 L-29.839906166072307,-8.532389270694738 " />
			<path d="M-5.586143571373723,-8.73651341592667 L-11.313708498984761,-12.043324568683962 " />
			<path d="M-16.263455967290597,-16.37075644760091 L-29.83990616607231,-8.53238927069474 " />
			<path d="M-4.31335136523794,-9.471360338761624 L-5.586143571373726,-8.73651341592667 " />
			<path d="M-4.313351365237937,-9.471360338761617 L-16.263455967290593,-16.370756447600908 " />
			<path d="M-12.020815280171306,-22.086232514094995 L-12.020815280171306,-20.371589694146767 " />
			<path d="M-12.020815280171309,-22.086232514094995 L7.566042558696065,-10.77775486824598 " />
			<path d="M7.5660425586960605,-10.777754868245985 L7.5660425586960605,-9.920433458271871 " />
			<path d="M8.131727983645302,-9.593834825900778 L7.566042558696061,-9.92043345827187 " />
			<path d="M8.131727983645296,-10.451156235874896 L8.131727983645296,-9.593834825900782 " />
			<path d="M8.131727983645298,-10.451156235874892 L16.617009357883873,-5.552176750308533 " />
			<path d="M16.617009357883866,-5.552176750308539 L16.617009357883866,-4.694855340334424 " />
			<path d="M17.18269478283311,-4.368256707963329 L16.61700935788387,-4.694855340334421 " />
			<path d="M17.182694782833103,-5.22557811793745 L17.182694782833103,-4.368256707963335 " />
			<path d="M17.182694782833103,-5.225578117937449 L36.76955262170048,6.082899527911566 " />
			<path d="M16.617009357883866,-4.898979485566357 L17.182694782833103,-5.225578117937448 " />
			<path d="M11.525840533340727,13.635492901493025 L16.26345596729059,16.370756447600908 " />
			<path d="M16.26345596729059,16.37075644760091 L28.354981925580557,9.38971068066885 " />
			<path d="M-12.020815280171306,-22.086232514094995 L-36.76955262170047,-7.797542347859784 " />
			<path d="M-11.525840533340732,-13.635492901493027 L-22.344574285494907,-7.389294057395924 " />
			<path d="M-22.344574285494907,-5.919600211726016 L-28.35498192558056,-9.389710680668854 " />
			<path d="M7.5660425586960605,-10.124557603503806 L8.131727983645298,-10.451156235874898 " />
			<path d="M16.26345596729059,16.37075644760091 L16.26345596729059,18.085399267549136 " />
			<path d="M22.3445742854949,5.919600211726012 L22.3445742854949,7.389294057395924 " />
			<path d="M-22.344574285494907,-7.389294057395928 L-22.344574285494907,-5.674651237447701 " />
			<path d="M-17.889801564019653,-3.1026870075253594 L-17.889801564019653,-1.6329931618554538 " />
			<path d="M-11.313708498984766,-13.51301841435387 L-11.313708498984766,-12.043324568683964 " />
			<path d="M-5.586143571373724,-10.206207261596575 L-5.586143571373724,-8.736513415926671 " />

       </g>
    </g>
    
</svg>
