<svg version="1.1"
     viewBox="0 0 19 12"
     width="190" height="120"
     xmlns="http://www.w3.org/2000/svg">
  <defs>
    <pattern id="studs-bg" width="1" height="1" patternUnits="userSpaceOnUse">
      <circle cx="0.5" cy="0.5" r="0.3" fill="white" opacity="0.05" />
    </pattern>
    <pattern id="studs-fg" width="1" height="1" patternUnits="userSpaceOnUse">
      <mask id="studs-mask">
        <rect width="1" height="1" fill="white" />
        <circle cx="0.5" cy="0.5" r="0.3" fill="black" />
      </mask>
      <rect width="1" height="1" fill="#F2CD37" mask="url(#studs-mask)" />
    </pattern>
    <marker
      id="marker"
      viewBox="0 0 4 4"
      refX="2"
      refY="2"
      markerWidth="1"
      markerHeight="1"
      orient="auto-start-reverse">
      <rect x="1.9" y="0" width="0.1" height="4" fill="#6D6E5C" />
      <circle cx="2" cy="2" r="0.5" fill="#6D6E5C" />
      <circle cx="2" cy="2" r="0.3" fill="#F2CD37" />
    </marker>
  </defs>
      
  <rect width="100%" height="100%" fill="#6D6E5C" rx="0.5" />

  <path d="M1 5 a 25 25 0 0 0 7 -1" stroke-width="4" stroke="#9BA19D" fill="none" marker-start="url(#marker)" marker-end="url(#marker)" />
  <path d="M8 4 a 25 25 0 0 1 7 -1" stroke-width="4" stroke="#9BA19D" fill="none" marker-start="url(#marker)" marker-end="url(#marker)" />

  <path d="M1.5 7.5 l 13 0" stroke-width="1" stroke="url(#studs-fg)" fill="none" stroke-linecap="round" />
  <rect x="7" y="9" width="2" height="2" fill="#F2CD37" rx="0.1" />
  <text x="8" y="10.1" font-size="1.4" font-family="sans" font-weight="bold" text-anchor="middle" dominant-baseline="middle" fill="#05131D">14</text>

  <path d="M14.5 6.5 l 0 -1" stroke-width="1" stroke="url(#studs-fg)" fill="none" stroke-linecap="round" />
  <rect x="16" y="5" width="2" height="2" fill="#F2CD37" rx="0.1" />
  <text x="17" y="6.1" font-size="1.4" font-family="sans" font-weight="bold" text-anchor="middle" dominant-baseline="middle" fill="#05131D">2</text>

  <rect width="100%" height="100%" fill="url(#studs-bg)" />
</svg>
